<?xml version="1.0" standalone="no"?>
<!DOCTYPE svg PUBLIC "-//W3C//DTD SVG 1.1//EN" "http://www.w3.org/Graphics/SVG/1.1/DTD/svg11.dtd" >
<svg xmlns="http://www.w3.org/2000/svg" xmlns:xlink="http://www.w3.org/1999/xlink" version="1.1">
<metadata>
Created by FontForge 20170731 at Fri May  5 14:19:02 2017
 By Aleksey,,,
Copyright (c) 2015, Cadson Demak (info@cadsondemak.com)
</metadata>
<defs>
<font id="Taviraj-MediumItalic" horiz-adv-x="0" >
  <font-face 
    font-family="Taviraj Medium"
    font-weight="500"
    font-style="italic"
    font-stretch="normal"
    units-per-em="1000"
    panose-1="0 0 6 0 0 0 0 0 0 0"
    ascent="750"
    descent="-250"
    x-height="470"
    cap-height="700"
    bbox="-532 -498 1276 1142"
    underline-thickness="50"
    underline-position="-150"
    slope="-12"
    unicode-range="U+000D-FB02"
  />
<missing-glyph horiz-adv-x="570" 
d="M44 714h403v-714h-403v714zM411 35v643h-331v-643h331z" />
    <glyph glyph-name="fi" unicode="fi" horiz-adv-x="680" 
d="M155 426h-87l9 44h86l17 81q18 88 84 129.5t189 41.5q92 0 147.5 -23t55.5 -70q0 -4 -2 -16q-6 -28 -23.5 -42.5t-42.5 -14.5q-44 0 -44 34q0 7 1 11q2 14 2 19q0 59 -102 59q-56 0 -97 -24.5t-52 -76.5l-22 -108h317l21 6h26l-84 -412q-1 -4 -1 -11q0 -20 21 -20
q12 0 35 7l-4 -21q-19 -14 -45.5 -21.5t-52.5 -7.5q-30 0 -47.5 14.5t-17.5 43.5q0 13 2 21l73 357h-252l-116 -570l-113 -7z" />
    <glyph glyph-name="fl" unicode="fl" horiz-adv-x="686" 
d="M155 426h-87l9 44h86l17 79q18 88 68 130.5t142 42.5q41 0 82 -10t69 -24l122 29h27l-133 -654q-1 -4 -1 -11q0 -19 21 -19q12 0 35 7l-4 -21q-19 -14 -46 -21.5t-52 -7.5q-30 0 -47.5 14.5t-17.5 43.5q0 13 2 21l113 550q2 9 -18 23t-52.5 24t-66.5 10q-61 0 -90.5 -30
t-42.5 -97l-16 -79h136l-9 -44h-136l-116 -570l-113 -7z" />
    <glyph glyph-name="ru_lakkhangyaothai" unicode="&#xe24;&#xe45;" horiz-adv-x="898" 
d="M886 438q0 -17 -5 -44l-120 -590h-111l121 593q4 19 4 38q0 79 -85 79q-41 0 -75 -25.5t-54 -75.5q0 -19 -4 -35l-117 -574h-112l121 593q2 7 2 22q0 41 -32.5 68t-92.5 27q-61 0 -117 -36t-78 -97h145l-8 -40q-43 -19 -64.5 -44.5t-31.5 -71.5l-10 -48q15 7 35 7
q25 0 47.5 -18.5t22.5 -54.5q0 -5 -2 -21q-10 -45 -46 -72.5t-81 -27.5q-103 0 -103 91q0 16 5 43l19 92q8 41 35 75.5t74 52.5h-102q20 74 66 123t104.5 72.5t118.5 23.5q63 0 110.5 -17t72.5 -51q33 33 78 50.5t93 17.5q177 0 177 -125zM128.5 128.5
q-22.5 -23.5 -22.5 -54.5q0 -21 12.5 -34t37.5 -13q26 0 46 18t26 45q1 4 1 13q0 21 -13 35t-35 14q-30 0 -52.5 -23.5z" />
    <glyph glyph-name="lu_lakkhangyaothai" unicode="&#xe26;&#xe45;" horiz-adv-x="934" 
d="M923 438q0 -17 -5 -44l-120 -590h-111l121 593q5 25 5 40q0 77 -85 77q-41 0 -74.5 -24t-53.5 -72q0 -21 -4 -40l-117 -574h-111l121 593q2 14 2 21q0 42 -32.5 69t-93.5 27t-117.5 -36t-78.5 -97h164l-8 -40q-40 -18 -59 -49.5t-31 -87.5l-20 -99q-11 -55 -50.5 -85
t-99.5 -30q-38 0 -62.5 20.5t-24.5 55.5q0 12 3 24q6 32 24.5 53t41 31t40.5 10t31 -7l11 50q7 40 31.5 70t66.5 47h-122q20 74 66 123t104.5 72.5t119.5 23.5t108 -17t72 -50q33 33 78 50t94 17q176 0 176 -125zM138 104q0 21 -13 34.5t-36 13.5q-29 0 -51 -23t-22 -55
q0 -21 12.5 -34t34.5 -13q29 0 49 18t25 45q1 5 1 14z" />
    <glyph glyph-name=".notdef" horiz-adv-x="570" 
d="M44 714h403v-714h-403v714zM411 35v643h-331v-643h331z" />
    <glyph glyph-name=".null" horiz-adv-x="480" 
 />
    <glyph glyph-name="nonmarkingreturn" unicode="&#xd;" horiz-adv-x="250" 
 />
    <glyph glyph-name="space" unicode=" " horiz-adv-x="250" 
 />
    <glyph glyph-name="exclam" unicode="!" horiz-adv-x="298" 
d="M180 626q0 9 1 17q7 32 23 49.5t51 17.5q49 0 49 -40q0 -13 -3 -27q-1 -5 -2 -9.5t-1 -7.5l-132 -480h-50zM72.5 2.5q-12.5 12.5 -12.5 33.5q0 10 1 15q6 28 25.5 44.5t46.5 16.5q23 0 35.5 -12.5t12.5 -33.5q0 -10 -1 -15q-6 -28 -25.5 -44.5t-46.5 -16.5
q-23 0 -35.5 12.5z" />
    <glyph glyph-name="quotedbl" unicode="&#x22;" horiz-adv-x="406" 
d="M154 641q8 40 22 59t47 19q44 0 44 -41q0 -14 -5 -34l-79 -219h-42zM328 641q9 40 23 59t47 19q24 0 33.5 -10.5t9.5 -30.5q0 -18 -4 -34l-78 -219h-42z" />
    <glyph glyph-name="numbersign" unicode="#" horiz-adv-x="816" 
d="M673 463l-100 -232h157l-10 -46h-167l-84 -195h-79l84 195h-210l-84 -195h-80l84 195h-155l9 46h166l100 232h-158l10 46h168l78 180h79l-78 -180h210l78 180h80l-78 -180h153l-10 -46h-163zM594 463h-210l-100 -232h210z" />
    <glyph glyph-name="dollar" unicode="$" horiz-adv-x="577" 
d="M543 509q1 7 1 19q0 65 -39.5 99.5t-103.5 34.5q-65 0 -108.5 -29t-53.5 -79q-2 -14 -2 -20q0 -28 17.5 -48.5t42.5 -34.5t71 -34q57 -25 92 -45.5t59.5 -54.5t24.5 -84q0 -18 -5 -45q-19 -93 -94 -144t-180 -54l-16 -76h-45l17 77q-101 6 -150 59q-8 8 -12 8t-7.5 -5
t-4.5 -12l-9 -42h-40l40 196h34q-1 -6 -1 -16q0 -44 23 -76t60 -49t79 -17q71 0 121.5 34t63.5 98q3 12 3 24q0 32 -19 56t-47 41t-75 39q-53 24 -86 44.5t-55.5 51.5t-22.5 75q0 21 4 38q17 81 82.5 124.5t164.5 47.5l16 80h44l-16 -81q91 -5 139 -49q8 -8 10 -8q4 0 6 7
l10 47h41l-40 -197h-34z" />
    <glyph glyph-name="percent" unicode="%" horiz-adv-x="879" 
d="M99 0l711 723l31 -32l-713 -722zM125.5 352.5q-37.5 34.5 -37.5 99.5q0 27 6 57q19 90 75 140.5t149 50.5q76 0 114.5 -35.5t38.5 -99.5q0 -26 -6 -56q-19 -90 -75.5 -140.5t-149.5 -50.5q-77 0 -114.5 34.5zM326 408.5q30 43.5 43 100.5q5 27 5 50q0 41 -15.5 67.5
t-50.5 26.5q-46 0 -75.5 -43.5t-41.5 -100.5q-6 -25 -6 -54q0 -40 15.5 -65t49.5 -25q46 0 76 43.5zM509 24q-38 35 -38 100q0 27 6 57q19 90 75.5 140t149.5 50q76 0 114.5 -35t38.5 -99q0 -26 -6 -56q-19 -90 -75.5 -141t-149.5 -51q-77 0 -115 35zM710 80.5
q30 43.5 42 100.5q5 28 5 52q0 41 -15 66.5t-49 25.5q-46 0 -76.5 -44t-42.5 -100q-5 -28 -5 -53q0 -40 15 -65.5t50 -25.5q46 0 76 43.5z" />
    <glyph glyph-name="ampersand" unicode="&#x26;" horiz-adv-x="712" 
d="M86 28.5q-55 38.5 -55 106.5q0 20 4 37q15 72 68.5 120.5t142.5 94.5q-25 39 -39 78.5t-14 72.5q0 15 3 27q14 70 68.5 106.5t131.5 36.5q61 0 99 -23.5t38 -75.5q0 -15 -3 -32q-11 -56 -56.5 -95.5t-118.5 -80.5q32 -51 81.5 -118t57.5 -79l34 -47q71 77 103 173h50
q-20 -58 -53 -110.5t-77 -94.5q30 -38 73 -99l19 -26h-131l-47 63q-110 -73 -230 -73q-94 0 -149 38.5zM432.5 499q34.5 33 43.5 78q3 14 3 24q0 30 -19 46t-53 16q-39 0 -67 -22t-37 -65q-2 -9 -2 -27q0 -53 38 -116q59 33 93.5 66zM440 96q-65 87 -102.5 140t-63.5 99
q-52 -37 -85 -74.5t-43 -85.5q-4 -24 -4 -34q0 -51 33 -78t83 -27q98 0 182 60z" />
    <glyph glyph-name="quotesingle" unicode="'" horiz-adv-x="231" 
d="M154 641q8 40 22 59t47 19q44 0 44 -41q0 -14 -5 -34l-79 -219h-42z" />
    <glyph glyph-name="parenleft" unicode="(" horiz-adv-x="274" 
d="M42 160q0 67 15 138q26 129 94.5 244.5t177.5 199.5l25 -13q-89 -98 -139 -204.5t-74 -225.5q-19 -90 -19 -176q0 -141 57 -252l-29 -12q-108 118 -108 301z" />
    <glyph glyph-name="parenright" unicode=")" horiz-adv-x="274" 
d="M-36 -129q89 98 139.5 205t73.5 223q19 92 19 178q0 141 -58 252l31 13q107 -120 107 -305q0 -68 -15 -139q-26 -128 -94.5 -242t-177.5 -197z" />
    <glyph glyph-name="asterisk" unicode="*" horiz-adv-x="509" 
d="M252 312.5q-9 9.5 -9 26.5q0 8 1 13q3 13 7.5 22t13.5 22q12 19 20 36.5t15 47.5q-27 -13 -45 -28t-37 -35q-19 -19 -31 -27t-29 -8q-13 0 -22.5 10t-9.5 25q0 17 13 33.5t32 21.5q11 3 29 5q22 3 42 8.5t49 20.5q-27 16 -48.5 23t-43.5 7q-19 0 -31 15.5t-9 35.5
q4 18 19.5 31t31.5 13q19 0 27.5 -7.5t16.5 -25.5q11 -21 21.5 -36t34.5 -30q5 26 5 48q0 20 -6 38q-4 14 -4 23q0 31 15.5 50t39.5 19q17 0 26 -10t9 -28q0 -8 -1 -12q-3 -13 -7.5 -21.5t-13.5 -21.5q-12 -18 -20.5 -35.5t-14.5 -49.5q30 15 47 30t36 36q15 18 26.5 25.5
t30.5 7.5q14 0 24 -10.5t10 -25.5q0 -5 -1 -8q-4 -19 -23 -35t-39 -16q-22 0 -45 -7t-57 -23q21 -15 38 -20t39 -8q14 -1 28 -6q13 -4 20 -14t7 -24q0 -20 -17 -36t-34 -16q-19 0 -27 8t-19 28q-9 20 -20.5 35t-33.5 28q-6 -33 -6 -50q0 -18 6 -36q4 -16 4 -24
q0 -30 -16 -49t-39 -19q-16 0 -25 9.5z" />
    <glyph glyph-name="plus" unicode="+" horiz-adv-x="566" 
d="M250 296h-181l13 61h180l40 194h111l-41 -194h180l-12 -61h-180l-39 -194h-111z" />
    <glyph glyph-name="comma" unicode="," horiz-adv-x="241" 
d="M-4 -122q29 27 45.5 53t22.5 57q1 7 -2.5 12t-10.5 11q-9 7 -14.5 14.5t-5.5 19.5q0 29 21 51.5t53 22.5q26 0 40 -15.5t14 -43.5q0 -13 -3 -28q-9 -44 -48.5 -91.5t-86.5 -83.5z" />
    <glyph glyph-name="hyphen" unicode="-" horiz-adv-x="389" 
d="M67 312h305l-14 -67h-304z" />
    <glyph glyph-name="period" unicode="." horiz-adv-x="241" 
d="M41 4q-14 14 -14 36q0 36 23 60t58 24q24 0 38 -13.5t14 -36.5q0 -35 -23 -59.5t-57 -24.5q-25 0 -39 14z" />
    <glyph glyph-name="slash" unicode="/" horiz-adv-x="354" 
d="M380 704h54l-396 -704h-52z" />
    <glyph glyph-name="zero" unicode="0" horiz-adv-x="573" 
d="M52 204q0 63 17 146q73 360 323 360q193 0 193 -215q0 -63 -17 -145q-73 -360 -323 -360q-193 0 -193 214zM453 350q21 99 21 172q0 142 -91 142q-71 0 -119 -81.5t-79 -232.5q-21 -107 -21 -173q0 -140 90 -140q136 0 199 313z" />
    <glyph glyph-name="one" unicode="1" horiz-adv-x="573" 
d="M105 31h43q53 0 62 36l114 560l-135 -57l12 56l259 101l-135 -660q-1 -3 -1 -8q0 -28 49 -28h43l-6 -31h-311z" />
    <glyph glyph-name="two" unicode="2" horiz-adv-x="573" 
d="M12 57q21 50 58 92t77 73.5t102 73.5q92 63 150 120t71 123q4 17 4 38q0 41 -24.5 64t-77.5 23q-55 0 -89.5 -26.5t-45.5 -75.5q-4 -16 -19.5 -27.5t-37.5 -11.5q-19 0 -31.5 9.5t-12.5 27.5q0 7 1 11q8 37 43 69t89.5 51t118.5 19q87 0 140.5 -34t53.5 -105
q0 -17 -5 -44q-11 -54 -48.5 -99.5t-86 -79.5t-119.5 -77q-84 -50 -134.5 -89.5t-71.5 -89.5l-3 -13h288q29 0 48.5 24t35.5 65h27l-45 -168h-468z" />
    <glyph glyph-name="three" unicode="3" horiz-adv-x="573" 
d="M125 5.5q-44 15.5 -67.5 42.5t-23.5 60q0 34 19 51t46 17q22 0 33 -11t8 -27q-3 -13 -3 -26q0 -36 25 -55.5t72 -19.5q63 0 109 43.5t62 119.5q4 24 4 35q0 51 -30.5 82t-84.5 31h-87l10 47h86q46 0 81 23t56 57.5t28 69.5q3 17 3 32q0 41 -24.5 64t-73.5 23
q-55 0 -89.5 -26.5t-44.5 -75.5q-4 -16 -19.5 -27.5t-37.5 -11.5q-19 0 -31.5 9.5t-12.5 28.5q0 7 1 11q8 38 42.5 69.5t89 50t119.5 18.5q82 0 135 -34t53 -104q0 -21 -4 -40q-11 -56 -56.5 -100t-103.5 -57l-1 -4q47 -13 78 -45.5t31 -84.5q0 -19 -4 -38
q-22 -109 -103 -161t-187 -52q-59 0 -103 15.5z" />
    <glyph glyph-name="four" unicode="4" horiz-adv-x="573" 
d="M204 31h43q53 0 62 36l19 96h-306l13 61l408 481h111l-97 -479h102l-27 -63h-88l-20 -96q-1 -3 -1 -8q0 -28 49 -28h43l-6 -31h-311zM342 226l78 388l-323 -388h245z" />
    <glyph glyph-name="five" unicode="5" horiz-adv-x="573" 
d="M119 6.5q-43 16.5 -63.5 41t-20.5 49.5q0 8 1 11q6 26 21.5 39.5t33.5 13.5q16 0 23.5 -9.5t7.5 -24.5q0 -49 27 -69.5t76 -20.5q65 0 112 49.5t64 131.5q7 35 7 59q0 53 -24.5 85t-76.5 32q-88 0 -168 -78l-36 12l118 372h295q28 0 46 37h29l-31 -112h-312l-75 -236
q72 51 167 51q96 0 139.5 -44.5t43.5 -116.5q0 -25 -7 -62q-21 -101 -95.5 -164t-193.5 -63q-65 0 -108 16.5z" />
    <glyph glyph-name="six" unicode="6" horiz-adv-x="573" 
d="M55 187q0 51 14 119q39 196 128 300t214 104q81 0 127 -32.5t46 -82.5q0 -34 -17.5 -51.5t-44.5 -17.5q-19 0 -27.5 7t-8.5 22q0 4 2 16q2 8 2 23q0 70 -89 70q-68 0 -122.5 -79.5t-86.5 -231.5q31 47 81.5 70.5t99.5 23.5q80 0 124 -43t44 -119q0 -27 -6 -59
q-22 -109 -96.5 -172.5t-192.5 -63.5q-191 0 -191 197zM359.5 85.5q42.5 49.5 59.5 129.5q8 38 8 68q0 55 -23 86t-70 31q-54 0 -99 -50.5t-61 -129.5q-6 -31 -6 -60q0 -55 22.5 -89.5t66.5 -34.5q60 0 102.5 49.5z" />
    <glyph glyph-name="seven" unicode="7" horiz-adv-x="573" 
d="M139 5q-12 10 -12 29q0 4 2 14q29 147 133 299.5t244 277.5h-282q-24 0 -43 -26.5t-27 -57.5h-32l33 159h471l-8 -41q-76 -67 -152.5 -171t-135 -219t-82.5 -213q-7 -29 -24.5 -45t-53.5 -16q-19 0 -31 10z" />
    <glyph glyph-name="eight" unicode="8" horiz-adv-x="573" 
d="M522.5 445.5q-39.5 -42.5 -98.5 -67.5q51 -25 80 -58.5t29 -86.5q0 -17 -5 -44q-19 -92 -94.5 -145.5t-192.5 -53.5q-99 0 -151.5 39t-52.5 109q0 18 5 43q12 62 55.5 109.5t104.5 75.5q-34 24 -52.5 54t-18.5 71q0 17 5 42q17 83 85.5 130t171.5 47q85 0 135 -34t50 -97
q0 -19 -4 -35q-12 -56 -51.5 -98.5zM506 572q0 44 -31 68t-82 24q-59 0 -101.5 -28.5t-53.5 -82.5q-3 -13 -3 -25q0 -33 18.5 -55.5t45 -37t76.5 -35.5q54 22 86.5 60t41.5 84q3 15 3 28zM424 193q0 29 -17 50.5t-42 36.5t-70 36q-26 12 -46 22q-48 -24 -83 -68t-45 -92
q-3 -18 -3 -33q0 -53 34.5 -80.5t87.5 -27.5q63 0 116 35t66 99q2 8 2 22z" />
    <glyph glyph-name="nine" unicode="9" horiz-adv-x="573" 
d="M99 21.5q-46 31.5 -46 81.5q0 35 16.5 53t43.5 18q38 0 38 -31q0 -5 -2 -15q-3 -13 -3 -25q0 -32 23 -49.5t66 -17.5q68 0 122.5 79t86.5 231q-31 -47 -83.5 -71.5t-102.5 -24.5q-78 0 -120.5 43.5t-42.5 118.5q0 24 7 62q23 109 96.5 172.5t191.5 63.5q191 0 191 -197
q0 -52 -14 -120q-39 -196 -128 -299.5t-214 -103.5q-80 0 -126 31.5zM369 321.5q33 23.5 58 64.5t35 93q6 32 6 60q0 55 -23 89.5t-67 34.5q-60 0 -102 -49.5t-58 -128.5q-8 -40 -8 -72q0 -53 22 -84t68 -31q36 0 69 23.5z" />
    <glyph glyph-name="colon" unicode=":" horiz-adv-x="241" 
d="M118 379.5q-14 13.5 -14 35.5q0 35 23 60t57 25q25 0 39 -14t14 -37q0 -35 -23.5 -59t-57.5 -24q-24 0 -38 13.5zM41 4q-14 14 -14 36q0 36 23 60t58 24q24 0 38 -13.5t14 -36.5q0 -35 -23 -59.5t-57 -24.5q-25 0 -39 14z" />
    <glyph glyph-name="semicolon" unicode=";" horiz-adv-x="241" 
d="M118 379.5q-14 13.5 -14 35.5q0 35 23 60t57 25q25 0 39 -14t14 -37q0 -35 -23.5 -59t-57.5 -24q-24 0 -38 13.5zM-4 -122q29 27 45.5 53t22.5 57q-1 7 -5.5 12.5t-9.5 9.5q-9 8 -13.5 14.5t-4.5 18.5q0 30 21 53t53 23q26 0 40 -15.5t14 -43.5q0 -13 -3 -28
q-9 -44 -48.5 -91.5t-86.5 -83.5z" />
    <glyph glyph-name="less" unicode="&#x3c;" horiz-adv-x="566" 
d="M69 313l8 36l518 245l-14 -68l-405 -195l325 -195l-13 -68z" />
    <glyph glyph-name="equal" unicode="=" horiz-adv-x="566" 
d="M98 430h468l-12 -60h-469zM59 237h468l-12 -61h-469z" />
    <glyph glyph-name="greater" unicode="&#x3e;" horiz-adv-x="566" 
d="M38 136l406 195l-326 195l14 68l420 -245l-8 -36l-519 -245z" />
    <glyph glyph-name="question" unicode="?" horiz-adv-x="462" 
d="M174 214q12 60 43 101t85 91q43 39 67.5 69.5t32.5 69.5q5 23 5 40q0 79 -90 79q-49 0 -82 -27t-42 -75q-4 -17 -17.5 -28t-34.5 -11q-18 0 -29 8.5t-11 26.5q0 8 1 13q7 37 38 69t81 51t112 19q81 0 130 -30t49 -97q0 -17 -5 -44q-8 -38 -28.5 -68t-45.5 -51t-66 -51
q-42 -31 -66 -51.5t-44 -49.5t-27 -66q-1 -7 -3 -33h-58q0 23 5 45zM123.5 2.5q-12.5 12.5 -12.5 33.5q0 10 1 15q6 28 26 45t47 17q23 0 35.5 -12t12.5 -33q0 -34 -21 -56t-53 -22q-23 0 -35.5 12.5z" />
    <glyph glyph-name="at" unicode="@" horiz-adv-x="779" 
d="M116 15q-73 71 -73 189q0 40 9 85q21 103 83.5 190t157.5 138.5t209 51.5q83 0 145.5 -30t96.5 -86t34 -132q0 -32 -8 -74q-12 -60 -42.5 -111.5t-73 -82t-88.5 -30.5q-31 0 -53.5 20.5t-20.5 56.5q-27 -40 -68.5 -58.5t-81.5 -18.5q-60 0 -92.5 30t-32.5 85q0 17 5 44
q11 55 44 103.5t83.5 78.5t114.5 30q83 0 138 -36l-69 -233q0 -3 -1 -5q-2 -10 -2 -15q0 -38 49 -38q28 0 57 23.5t51.5 64.5t32.5 93q7 32 7 66q0 63 -28.5 111t-80.5 74t-121 26q-98 0 -178.5 -43.5t-134 -118.5t-73.5 -168q-9 -45 -9 -87q0 -101 60 -159.5t186 -58.5
q44 0 99.5 10t109.5 33l-11 -50q-52 -19 -109.5 -29t-108.5 -10q-139 0 -212 71zM426.5 196q29.5 28 43.5 74l47 159q-27 14 -62 14q-50 0 -92 -47t-56 -116q-5 -27 -5 -43q0 -33 15 -51t45 -18q35 0 64.5 28z" />
    <glyph glyph-name="A" unicode="A" horiz-adv-x="722" 
d="M684 31l-5 -31h-263l5 31h18q29 0 39.5 10.5t10.5 32.5q0 6 -2 26l-15 103h-265l-69 -123q-7 -11 -7 -22q0 -13 11 -20t29 -7h18l-6 -31h-217l6 31h15q20 0 41.5 10t31.5 26l354 616l92 34l110 -651q3 -17 17.5 -26t32.5 -9h18zM465 249l-48 326l-184 -326h232z" />
    <glyph glyph-name="B" unicode="B" horiz-adv-x="603" 
d="M-16 31h28q28 0 43.5 8.5t19.5 27.5l115 565q1 3 1 9q0 28 -49 28h-28l6 31h308q185 0 185 -124q0 -17 -5 -42q-13 -58 -54.5 -103t-104.5 -61v-2q72 -12 102 -48.5t30 -87.5q0 -23 -4 -42q-18 -91 -83.5 -140.5t-175.5 -49.5h-340zM340 389q58 0 99 39t53 102q4 19 4 39
q0 43 -27.5 64t-83.5 21h-75l-55 -265h85zM284 46q75 0 120.5 38.5t60.5 111.5q5 28 5 46q0 52 -34.5 77t-108.5 25h-80l-62 -298h99z" />
    <glyph glyph-name="C" unicode="C" horiz-adv-x="658" 
d="M125.5 55q-66.5 65 -66.5 184q0 51 12 111q34 168 139 264t262 96q63 0 107 -17.5t72 -41.5q1 -1 3.5 -2.5t4.5 -1.5q8 0 11 14l9 44h40l-40 -197h-34q1 7 1 20q0 65 -44.5 99.5t-114.5 34.5q-113 0 -191.5 -83.5t-108.5 -228.5q-13 -67 -13 -114q0 -95 43.5 -147
t130.5 -52q66 0 130.5 33t102.5 102h43q-34 -83 -115 -132.5t-187 -49.5q-130 0 -196.5 65z" />
    <glyph glyph-name="D" unicode="D" horiz-adv-x="681" 
d="M-17 31h29q53 0 62 36l115 565q1 3 1 9q0 28 -48 28h-29l6 31h314q254 0 254 -233q0 -55 -13 -117q-72 -350 -384 -350h-313zM297 45q97 0 164 79t97 226q14 72 14 123q0 88 -37 135t-112 47h-114l-125 -610h113z" />
    <glyph glyph-name="E" unicode="E" horiz-adv-x="599" 
d="M653 700l-37 -179h-29q3 33 3 45q0 88 -65 88h-217l-54 -264h159q29 0 42.5 23t28.5 72h26l-49 -236h-26q1 7 3 22t2 26q0 47 -36 47h-160l-61 -298h235q73 0 117 138h29l-54 -184h-534l6 31h28q28 0 43.5 8.5t19.5 27.5l115 565q1 3 1 9q0 28 -49 28h-28l6 31h535z" />
    <glyph glyph-name="F" unicode="F" horiz-adv-x="577" 
d="M653 700l-37 -179h-29q3 36 3 45q0 88 -64 88h-218l-60 -294h148q29 0 43 23.5t28 71.5h25l-48 -236h-25q3 24 3 46q0 24 -7.5 36.5t-27.5 12.5h-149l-50 -247q-1 -3 -1 -9q0 -27 49 -27h28l-6 -31h-282l6 31h29q53 0 62 36l115 565q1 3 1 9q0 28 -48 28h-29l6 31h535z
" />
    <glyph glyph-name="G" unicode="G" horiz-adv-x="700" 
d="M125.5 55q-66.5 65 -66.5 184q0 51 12 111q34 168 140 264t264 96q52 0 102 -15t76 -43q4 -4 8 -4q11 0 14 13l9 44h40l-40 -197h-34q1 6 1 18q0 66 -46 101t-116 35q-112 0 -192 -84t-110 -228q-13 -67 -13 -114q0 -95 43.5 -147t130.5 -52q37 0 77.5 9t72.5 31l41 197
q1 4 1 10q0 40 -66 40h-12l6 26h257l-5 -22h-15q-26 0 -38.5 -16t-20.5 -57l-38 -187q-66 -41 -132.5 -59.5t-153.5 -18.5q-130 0 -196.5 65z" />
    <glyph glyph-name="H" unicode="H" horiz-adv-x="759" 
d="M844 700l-6 -31h-29q-55 0 -62 -37l-115 -565q-1 -3 -1 -9q0 -27 48 -27h29l-6 -31h-282l5 31h28q29 0 44 8.5t19 27.5l57 276h-324l-56 -276q-1 -3 -1 -9q0 -27 48 -27h29l-6 -31h-282l6 31h27q29 0 44.5 8.5t19.5 27.5l115 565q1 3 1 8q0 29 -49 29h-28l6 31h282
l-6 -31h-28q-56 0 -63 -37l-49 -243h323l50 243q6 37 -48 37h-28l6 31h282z" />
    <glyph glyph-name="I" unicode="I" horiz-adv-x="329" 
d="M-10 31h29q28 0 43.5 8.5t19.5 27.5l115 565q1 3 1 8q0 29 -48 29h-29l6 31h282l-6 -31h-28q-56 0 -63 -37l-115 -565q-1 -3 -1 -9q0 -14 12 -20.5t37 -6.5h28l-6 -31h-282z" />
    <glyph glyph-name="J" unicode="J" horiz-adv-x="375" 
d="M-22 -91q124 29 157 192l109 531q1 3 1 8q0 29 -49 29h-28l6 31h282l-6 -31h-29q-55 0 -62 -37l-108 -532q-22 -105 -95.5 -159.5t-177.5 -54.5v23z" />
    <glyph glyph-name="K" unicode="K" horiz-adv-x="700" 
d="M752 700l-6 -31h-21q-18 0 -31.5 -6t-28.5 -17l-334 -261l218 -302q19 -25 35 -38.5t40 -13.5h28l-6 -31h-175l-227 315l-51 -248q-1 -3 -1 -9q0 -27 48 -27h29l-6 -31h-282l6 31h27q29 0 44.5 8.5t19.5 27.5l115 565q1 3 1 8q0 29 -49 29h-28l6 31h282l-6 -31h-28
q-56 0 -63 -37l-50 -244l320 247q11 8 11 18q0 16 -32 16h-15l6 31h204z" />
    <glyph glyph-name="L" unicode="L" horiz-adv-x="596" 
d="M-11 31h28q29 0 44.5 8.5t19.5 27.5l115 565q1 3 1 8q0 29 -49 29h-28l6 31h282l-6 -31h-29q-55 0 -62 -37l-111 -543q-1 -4 -1 -11q0 -32 50 -32h177q41 0 73 49t47 98h32l-57 -193h-537z" />
    <glyph glyph-name="M" unicode="M" horiz-adv-x="886" 
d="M-13 31h27q29 0 44.5 8.5t19.5 27.5l115 565q1 3 1 8q0 29 -49 29h-28l6 31h201l110 -521l324 521h213l-6 -31h-29q-56 0 -62 -37l-116 -565q-1 -3 -1 -8q0 -28 48 -28h29l-6 -31h-282l6 31h28q28 0 43.5 8.5t19.5 27.5l109 534l-331 -525h-68l-114 520l-107 -529
q-1 -3 -1 -9q0 -27 48 -27h28l-5 -31h-221z" />
    <glyph glyph-name="N" unicode="N" horiz-adv-x="734" 
d="M-13 31h27q29 0 44.5 8.5t19.5 27.5l115 565q1 3 1 8q0 29 -49 29h-28l6 31h205l242 -549l98 481q1 3 1 9q0 28 -49 28h-28l6 31h221l-6 -31h-29q-55 0 -62 -37l-129 -632h-65l-282 629l-114 -562q-1 -3 -1 -9q0 -27 48 -27h28l-5 -31h-221z" />
    <glyph glyph-name="O" unicode="O" horiz-adv-x="741" 
d="M123 55q-69 65 -69 186q0 51 12 109q34 170 139.5 265t270.5 95q137 0 206.5 -66t69.5 -187q0 -50 -12 -107q-35 -171 -140 -265.5t-271 -94.5q-137 0 -206 65zM521.5 121q73.5 83 102.5 229q12 62 12 113q0 95 -42.5 147.5t-127.5 52.5q-107 0 -180.5 -83.5
t-103.5 -229.5q-12 -61 -12 -113q0 -95 42.5 -147t126.5 -52q109 0 182.5 83z" />
    <glyph glyph-name="P" unicode="P" horiz-adv-x="592" 
d="M-13 31h27q29 0 44.5 8.5t19.5 27.5l115 565q1 3 1 8q0 29 -49 29h-28l6 31h342q93 0 135 -38.5t42 -108.5q0 -33 -7 -67q-21 -101 -82.5 -157.5t-175.5 -56.5h-143l-41 -205q-1 -3 -1 -9q0 -27 48 -27h29l-6 -31h-282zM363 318q124 0 158 168q7 34 7 65q0 103 -96 103
h-119l-69 -336h119z" />
    <glyph glyph-name="Q" unicode="Q" horiz-adv-x="741" 
d="M682.5 644q69.5 -66 69.5 -187q0 -50 -12 -107q-35 -171 -140 -265.5t-271 -94.5q-17 0 -25 1q-30 -14 -47 -27h12q30 0 56 -8t64 -25q35 -16 59 -24t51 -8q33 0 53.5 16t38.5 54h19q0 -15 -3 -27q-11 -51 -55.5 -86t-98.5 -35q-38 0 -68.5 16t-65.5 46q-31 24 -50 35
t-41 11q-27 0 -47 -4t-49 -20l-5 14q68 52 128 77q-100 16 -150.5 79t-50.5 166q0 51 12 109q34 170 139.5 265t270.5 95q137 0 206.5 -66zM636 463q0 95 -42.5 147.5t-127.5 52.5q-107 0 -180.5 -83.5t-103.5 -229.5q-12 -61 -12 -113q0 -95 42.5 -147t126.5 -52
q109 0 182.5 83t102.5 229q12 62 12 113z" />
    <glyph glyph-name="R" unicode="R" horiz-adv-x="658" 
d="M578.5 367.5q-39.5 -49.5 -110.5 -68.5q27 -17 35.5 -45t12.5 -78q3 -45 8.5 -74.5t21.5 -49.5t48 -21l-6 -31h-89q-50 0 -72.5 25t-27.5 77q-1 18 -1 56q-1 54 -5.5 83t-22.5 48h-132l-45 -222q-1 -3 -1 -9q0 -27 48 -27h29l-6 -31h-282l6 31h27q29 0 44.5 8.5
t19.5 27.5l115 565q1 3 1 8q0 29 -49 29h-28l6 31h339q94 0 137 -36.5t43 -105.5q0 -31 -7 -63q-17 -78 -56.5 -127.5zM528 555q0 99 -100 99h-115l-65 -319h115q65 0 103.5 40.5t54.5 119.5q7 31 7 60z" />
    <glyph glyph-name="S" unicode="S" horiz-adv-x="577" 
d="M139 6.5q-43 16.5 -68 43.5q-8 8 -12 8t-7.5 -5t-4.5 -12l-9 -42h-40l40 196h34q-1 -6 -1 -16q0 -44 23 -76t60 -49t79 -17q71 0 121.5 34t63.5 98q3 12 3 24q0 32 -19 56t-47 41t-75 39q-53 24 -86 44.5t-55.5 51.5t-22.5 75q0 21 4 38q17 85 88 128.5t177 43.5
q111 0 165 -50q8 -8 10 -8q4 0 6 7l10 47h41l-40 -197h-34q1 7 1 19q0 65 -39.5 99.5t-103.5 34.5q-65 0 -108.5 -29t-53.5 -79q-2 -14 -2 -20q0 -28 17.5 -48.5t42.5 -34.5t71 -34q57 -25 92 -45.5t59.5 -54.5t24.5 -84q0 -18 -5 -45q-20 -96 -98.5 -147t-187.5 -51
q-71 0 -114 16.5z" />
    <glyph glyph-name="T" unicode="T" horiz-adv-x="647" 
d="M150 31h28q28 0 43.5 8.5t19.5 27.5l120 587h-132q-38 0 -65 -54.5t-38 -103.5h-30l41 204h580l-41 -204h-31q7 35 7 71q0 87 -45 87h-131l-120 -587q-1 -3 -1 -9q0 -27 48 -27h29l-6 -31h-282z" />
    <glyph glyph-name="U" unicode="U" horiz-adv-x="730" 
d="M155.5 28q-59.5 38 -59.5 121q0 29 7 60l86 423q1 3 1 8q0 29 -45 29h-23l6 31h266l-6 -31h-24q-24 0 -40 -9.5t-20 -27.5l-88 -432q-5 -22 -5 -48q0 -63 41.5 -89t112.5 -26q76 0 135.5 37.5t77.5 125.5l88 432q1 3 1 8q0 29 -45 29h-23l6 31h204l-5 -31h-24
q-24 0 -40 -9.5t-20 -27.5l-86 -423q-46 -219 -306 -219q-113 0 -172.5 38z" />
    <glyph glyph-name="V" unicode="V" horiz-adv-x="717" 
d="M175 634q-3 16 -17.5 25.5t-31.5 9.5h-18l5 31h263l-5 -31h-19q-21 0 -37 -10.5t-15 -26.5l67 -510l276 506q4 7 4 14q0 12 -13.5 19.5t-27.5 7.5h-18l6 31h217l-6 -31h-15q-20 0 -41.5 -10t-31.5 -27l-355 -635h-86z" />
    <glyph glyph-name="W" unicode="W" horiz-adv-x="1003" 
d="M1097 700l-5 -31h-16q-54 0 -73 -37l-308 -635h-71l-54 462l-255 -462h-86l-54 637q-1 17 -16 26t-33 9h-18l5 31h263l-5 -31h-19q-23 0 -37.5 -10.5t-14.5 -27.5l22 -506l236 434l-9 75q-2 17 -16.5 26t-32.5 9h-18l6 31h248l-5 -31h-19q-20 0 -36.5 -10t-15.5 -26
l42 -508l228 504q4 8 4 15q0 12 -11 18.5t-24 6.5h-24l5 31h217z" />
    <glyph glyph-name="X" unicode="X" horiz-adv-x="702" 
d="M778 700l-6 -31h-16q-17 0 -37 -10.5t-35 -26.5l-243 -249l153 -317q8 -16 21 -25.5t28 -9.5h18l-5 -31h-266l6 31h17q14 0 34.5 7.5t20.5 21.5l-2 8l-111 228l-219 -224q-7 -7 -7 -14q0 -12 15 -19.5t29 -7.5h18l-6 -31h-217l6 31h15q17 0 37.5 10.5t35.5 25.5l270 277
l-140 290q-8 16 -21 25.5t-28 9.5h-18l6 31h265l-5 -31h-19q-20 0 -39 -11.5t-13 -24.5l98 -202l192 197q9 9 9 18q0 10 -11 16.5t-26 6.5h-27l6 31h217z" />
    <glyph glyph-name="Y" unicode="Y" horiz-adv-x="677" 
d="M157 31h28q29 0 44.5 8.5t19.5 27.5l45 224l-119 343q-5 16 -19 25.5t-30 9.5h-18l5 31h256l-6 -31h-26q-22 0 -35.5 -11.5t-8.5 -25.5l91 -288l219 284q9 12 9 21q0 10 -9 15t-25 5h-30l6 31h217l-6 -31h-21q-18 0 -36 -10t-31 -27l-268 -342l-45 -223q-1 -3 -1 -9
q0 -27 48 -27h29l-6 -31h-282z" />
    <glyph glyph-name="Z" unicode="Z" horiz-adv-x="563" 
d="M-12 29l515 625h-234q-78 0 -116 -133h-30l36 179h477l-4 -21l-518 -633h270q73 0 117 137h30l-54 -183h-494z" />
    <glyph glyph-name="bracketleft" unicode="[" horiz-adv-x="289" 
d="M148 703h214l-9 -44h-128l-151 -736h129l-10 -46h-214z" />
    <glyph glyph-name="backslash" unicode="\" horiz-adv-x="354" 
d="M129 704h51l110 -704h-53z" />
    <glyph glyph-name="bracketright" unicode="]" horiz-adv-x="289" 
d="M-25 -77h129l150 736h-128l8 44h214l-168 -826h-215z" />
    <glyph glyph-name="asciicircum" unicode="^" horiz-adv-x="539" 
d="M337 721h81l109 -410h-79l-81 359l-228 -359h-78z" />
    <glyph glyph-name="underscore" unicode="_" horiz-adv-x="445" 
d="M-56 -67h452l-9 -46h-452z" />
    <glyph glyph-name="grave" unicode="`" horiz-adv-x="480" 
d="M275 665q-29 18 -29 41q0 5 1 8q4 14 14.5 24.5t28.5 10.5q23 0 47 -28l88 -113l-27 -30z" />
    <glyph glyph-name="a" unicode="a" horiz-adv-x="568" 
d="M67.5 29.5q-31.5 39.5 -31.5 105.5q0 31 8 71q26 125 97 199.5t170 74.5q39 0 74 -9.5t49 -32.5l6 32h110l-82 -407q-2 -12 -2 -15q0 -17 18 -17q8 0 38 8l-5 -21q-18 -13 -46.5 -20.5t-53.5 -7.5q-29 0 -47 10t-18 33q0 8 1 12l19 90q-55 -70 -110.5 -107.5t-98.5 -37.5
q-64 0 -95.5 39.5zM272.5 78q36.5 32 70 74.5t47.5 71.5l30 144q-6 34 -26.5 48t-53.5 14q-31 0 -69 -22t-71.5 -72t-49.5 -128q-5 -28 -5 -47q0 -50 20 -82.5t46 -32.5q25 0 61.5 32z" />
    <glyph glyph-name="b" unicode="b" horiz-adv-x="579" 
d="M182.5 10.5q-37.5 20.5 -50.5 55.5l-43 -66h-52l127 624q1 3 1 7q0 17 -18 17q-7 0 -28 -7l-2 26l150 50h27l-64 -312q32 38 78 56.5t89 18.5q79 0 123.5 -42.5t44.5 -123.5q0 -29 -8 -71q-28 -135 -98 -194t-178 -59q-61 0 -98.5 20.5zM446 238q9 45 9 81
q0 116 -102 116q-49 0 -91.5 -42t-56.5 -109l-23 -111q-3 -16 -3 -31q0 -46 25 -77t72 -31q128 0 170 204z" />
    <glyph glyph-name="c" unicode="c" horiz-adv-x="507" 
d="M79.5 35q-52.5 45 -52.5 130q0 30 8 70q23 112 101 178.5t193 66.5q87 0 130 -27.5t43 -74.5q0 -13 -3 -25q-3 -15 -16 -28.5t-29 -13.5t-24 8.5t-8 20.5q0 9 7 21q6 14 6 21q0 20 -23 37.5t-65 17.5q-78 0 -129.5 -56t-70.5 -147q-7 -34 -7 -66q0 -63 29 -100t84 -37
q130 0 183 137h32q-24 -80 -85 -129t-153 -49q-98 0 -150.5 45z" />
    <glyph glyph-name="d" unicode="d" horiz-adv-x="581" 
d="M69 30q-32 40 -32 108q0 34 7 68q26 125 97 199.5t170 74.5q40 0 77.5 -9.5t51.5 -32.5l37 186q1 3 1 7q0 17 -18 17q-7 0 -28 -7l-2 26l150 50h27l-134 -654q-2 -10 -2 -14q0 -18 19 -18q8 0 38 8l-5 -21q-18 -13 -47 -20.5t-54 -7.5q-28 0 -46 10t-18 32q0 8 1 13
l18 90q-55 -70 -111.5 -107.5t-99.5 -37.5q-65 0 -97 40zM276.5 78q37.5 32 71.5 75t48 71l29 144q-10 62 -85 62q-31 0 -69 -22t-71.5 -72t-49.5 -128q-5 -27 -5 -45q0 -34 10 -60.5t26 -41.5t33 -15q25 0 62.5 32z" />
    <glyph glyph-name="e" unicode="e" horiz-adv-x="510" 
d="M385 207q-110 -40 -245 -46q2 -60 32.5 -95t83.5 -35q63 0 110.5 33.5t74.5 103.5h31q-23 -79 -85 -128.5t-155 -49.5q-99 0 -151.5 45t-52.5 131q0 34 7 69q23 114 101 179.5t191 65.5q98 0 144 -30t46 -82q0 -13 -3 -28q-19 -93 -129 -133zM339 247.5q82 37.5 82 114.5
q0 74 -95 75q-70 0 -115.5 -59t-63.5 -144q-3 -11 -4 -20t-2 -15q116 11 198 48.5z" />
    <glyph glyph-name="f" unicode="f" horiz-adv-x="404" 
d="M478 700q32 -22 32 -61q0 -38 -16.5 -54t-40.5 -16q-16 0 -25 6.5t-9 19.5t11 28q9 11 9 20q0 16 -15.5 26t-37.5 10q-69 0 -89 -96l-23 -113h136l-9 -44h-136l-116 -570l-113 -7l118 577h-86l9 44h86l21 101q15 73 66 112t127 39q69 0 101 -22z" />
    <glyph glyph-name="g" unicode="g" horiz-adv-x="506" 
d="M571 467q16 -13 13 -33q-4 -18 -15.5 -28.5t-29.5 -10.5q-12 0 -16.5 4.5t-8.5 13.5q-4 10 -9 15t-19 5q-13 0 -37 -11q20 -28 20 -66q0 -11 -4 -35q-16 -75 -78 -116t-159 -41q-58 0 -101 16q-36 -24 -36 -49q0 -15 13.5 -24t38.5 -9h163q55 0 89.5 -22t34.5 -65
q0 -12 -3 -24q-15 -71 -86.5 -110t-184.5 -39q-87 0 -134 25t-47 73q0 70 83 106q-20 8 -30 23t-10 33q0 52 77 100q-42 31 -42 87q0 19 4 36q15 75 77.5 117t158.5 42q87 0 133 -34q50 34 100 34q29 0 45 -13zM359 357q0 37 -18.5 58.5t-57.5 21.5q-47 0 -77 -32.5
t-40 -83.5q-4 -17 -4 -37q0 -36 18 -57t56 -21q48 0 78.5 32t40.5 83q4 17 4 36zM77 -5.5q-17 -20.5 -21 -38.5q-2 -10 -2 -14q0 -31 30.5 -47t84.5 -16q64 0 106 22.5t50 64.5q2 12 2 16q0 21 -19.5 31.5t-62.5 10.5h-122q-29 -9 -46 -29.5z" />
    <glyph glyph-name="h" unicode="h" horiz-adv-x="624" 
d="M528 33q12 0 35 7l-4 -21q-19 -14 -46 -21.5t-52 -7.5q-30 0 -47.5 14.5t-17.5 43.5q0 13 2 21l49 241q7 29 7 54q0 37 -17.5 53t-53.5 16q-41 0 -86.5 -46t-77.5 -112l-56 -275l-113 -10l130 634l1 6q0 18 -20 18q-6 0 -27 -7l-2 26l150 50h27l-76 -373q31 61 80 98.5
t113 37.5q71 0 106 -25.5t35 -80.5q0 -21 -6 -50l-53 -260q-1 -4 -1 -11q0 -20 21 -20z" />
    <glyph glyph-name="i" unicode="i" horiz-adv-x="300" 
d="M179 573q-14 13 -14 34q0 5 2 15q6 28 26.5 45.5t48.5 17.5q23 0 37 -13t14 -35q0 -32 -22.5 -54.5t-53.5 -22.5q-24 0 -38 13zM84 1q-20 11 -20 34q0 7 1 11l69 337q1 3 1 8q0 9 -5.5 13t-13.5 4q-5 0 -13.5 -3t-13.5 -4l-3 26l155 49h23l-84 -412q-2 -12 -2 -15
q0 -17 18 -17q8 0 38 8l-4 -21q-19 -14 -46 -21.5t-52 -7.5q-28 0 -48 11z" />
    <glyph glyph-name="j" unicode="j" horiz-adv-x="304" 
d="M204.5 572.5q-13.5 12.5 -13.5 33.5q0 6 2 16q6 28 26 45.5t48 17.5q23 0 37 -13.5t14 -35.5q0 -32 -22.5 -54t-53.5 -22q-24 0 -37.5 12.5zM-43 -114q47 18 74.5 48t40.5 67t25 97l59 284l1 6q0 18 -20 18q-7 0 -28 -7l-1 26l149 50h27l-75 -370q-22 -107 -83 -167.5
t-169 -75.5v24z" />
    <glyph glyph-name="k" unicode="k" horiz-adv-x="598" 
d="M593 470l-5 -30h-24q-23 0 -71 -31l-200 -148l160 -198q12 -15 33 -24t38 -9h27l-6 -30h-171l-163 201l-9 -6l-40 -195l-113 -10l130 634l1 6q0 18 -20 18q-6 0 -27 -7l-2 26l150 50h27l-93 -459l291 212h87z" />
    <glyph glyph-name="l" unicode="l" horiz-adv-x="307" 
d="M89 1q-20 11 -20 34q0 7 1 11l118 578q1 3 1 7q0 17 -19 17q-6 0 -27 -7l-3 26l151 50h27l-134 -653q-1 -5 -1 -13q0 -19 18 -19q8 0 38 8l-4 -21q-20 -14 -46.5 -21.5t-52.5 -7.5q-27 0 -47 11z" />
    <glyph glyph-name="m" unicode="m" horiz-adv-x="900" 
d="M785 64q-1 -4 -1 -11q0 -20 21 -20q14 0 35 7l-4 -21q-19 -14 -45.5 -21.5t-52.5 -7.5q-28 0 -48 11t-20 34q0 7 1 11l58 283q5 25 5 41q0 63 -62 63q-27 0 -58.5 -25t-57.5 -67t-39 -91l-51 -250l-110 -10l70 340q5 23 5 39q0 64 -65 64q-27 0 -58 -25.5t-57 -68.5
t-38 -93l-50 -246l-113 -10l81 392l1 6q0 18 -20 18q-7 0 -28 -7l-1 26l149 50h27l-23 -113q31 50 78 84t97 34q66 0 97 -27t31 -76q0 -10 -1 -15q31 49 79.5 83.5t98.5 34.5q67 0 98.5 -27.5t31.5 -75.5q0 -20 -4 -37z" />
    <glyph glyph-name="n" unicode="n" horiz-adv-x="624" 
d="M507 64q-1 -5 -1 -12q0 -20 20 -20q13 0 36 7l-4 -20q-19 -14 -46 -22t-52 -8q-28 0 -48 11t-20 34q0 8 1 12l58 288q4 17 4 35q0 64 -71 64q-32 0 -66.5 -25t-63 -67t-41.5 -91l-50 -250l-113 -10l81 392l1 6q0 18 -20 18q-7 0 -28 -7l-1 26l149 50h27l-23 -116
q32 51 85.5 86t107.5 35q72 0 105.5 -26.5t33.5 -74.5q0 -19 -4 -36z" />
    <glyph glyph-name="o" unicode="o" horiz-adv-x="560" 
d="M82 35.5q-54 45.5 -54 132.5q0 33 7 67q24 117 103.5 181t201.5 64q102 0 156 -45.5t54 -130.5q0 -29 -8 -69q-23 -118 -102.5 -181.5t-200.5 -63.5q-103 0 -157 45.5zM364 86.5q49 52.5 68 148.5q8 42 8 72q0 62 -29 95t-81 33q-67 0 -116 -52t-69 -148q-8 -42 -8 -71
q0 -63 29 -96.5t83 -33.5q66 0 115 52.5z" />
    <glyph glyph-name="p" unicode="p" horiz-adv-x="588" 
d="M132 382l1 6q0 18 -20 18q-7 0 -28 -7l-1 26l149 50h27l-22 -109q32 48 80.5 81t101.5 33q78 0 120 -40.5t42 -118.5q0 -38 -8 -74q-28 -136 -98.5 -196.5t-183.5 -60.5q-43 0 -75.5 18.5t-41.5 45.5l-57 -278l-112 -8zM464 242q11 55 11 90q0 52 -21 77.5t-66 25.5
q-30 0 -65.5 -27t-64.5 -68.5t-41 -80.5l-20 -97q-4 -22 -4 -33q0 -42 25.5 -68.5t73.5 -26.5q129 0 172 208z" />
    <glyph glyph-name="q" unicode="q" horiz-adv-x="590" 
d="M332.5 -219.5q-18.5 9.5 -18.5 31.5q0 4 2 14l51 253q-30 -41 -76 -65t-96 -24q-165 0 -165 164q0 38 11 93q23 113 92 173t161 60q57 0 95.5 -19t54.5 -54l39 68h75l-129 -631q-2 -10 -2 -13q0 -19 19 -19q8 0 20 3.5t18 4.5l-4 -21q-18 -13 -47 -20.5t-54 -7.5
q-28 0 -46.5 9.5zM311 63q33 29 54.5 72t30.5 85l18 89q3 15 3 28q0 46 -30 72t-69 26q-60 0 -104 -49t-64 -144q-10 -46 -10 -88q0 -120 96 -120q42 0 75 29z" />
    <glyph glyph-name="r" unicode="r" horiz-adv-x="420" 
d="M445.5 470.5q18.5 -9.5 18.5 -29.5q0 -6 -1 -9q-4 -23 -17.5 -34.5t-32.5 -11.5q-12 0 -18 4t-12 12q-5 8 -11 12t-17 4q-23 0 -49 -19.5t-48.5 -55.5t-34.5 -83l-53 -260l-113 -10l80 392q1 3 1 8q0 16 -18 16q-8 0 -29 -7l-1 26l149 50h27l-19 -96q23 46 67 73.5
t85 27.5q28 0 46.5 -9.5z" />
    <glyph glyph-name="s" unicode="s" horiz-adv-x="455" 
d="M59.5 17q-43.5 27 -43.5 70q0 6 2 18q4 18 17 28.5t29 10.5t25 -9t5 -23q-1 -5 -5 -12t-5 -12q-3 -19 20 -36.5t69 -17.5q53 0 88 19.5t42 56.5q1 4 1 10q0 23 -22.5 37.5t-69.5 31.5q-45 17 -72.5 31.5t-47.5 39.5t-20 62q0 10 4 32q12 60 66 93t142 33q85 0 125 -26
t40 -68q0 -14 -2 -21q-3 -18 -16 -28.5t-29 -10.5q-13 0 -22 7t-9 19q0 9 4.5 16.5t5.5 12.5q3 12 -4.5 24.5t-26.5 21t-51 8.5q-44 0 -74 -17.5t-37 -48.5q-1 -4 -1 -12q0 -27 24 -42.5t74 -33.5q43 -16 70 -29.5t46 -37t19 -59.5q0 -13 -3 -30q-15 -69 -78.5 -102
t-148.5 -33q-87 0 -130.5 27z" />
    <glyph glyph-name="t" unicode="t" horiz-adv-x="398" 
d="M182 129q-4 -20 -4 -40q0 -29 13.5 -43.5t41.5 -14.5q30 0 55.5 16t35.5 51h36q-16 -56 -58 -82t-100 -26q-65 0 -100.5 22.5t-35.5 75.5q0 20 4 39l61 299h-71l9 44h71l11 52l105 82h23l-27 -134h134l-9 -44h-134z" />
    <glyph glyph-name="u" unicode="u" horiz-adv-x="603" 
d="M508 32q8 0 38 8l-4 -21q-19 -14 -45 -21.5t-51 -7.5q-29 0 -47 16t-18 46q0 7 2 21q-28 -36 -77.5 -59.5t-102.5 -23.5q-72 0 -108.5 28t-36.5 77q0 15 3 31l53 256q1 3 1 8q0 16 -18 16q-8 0 -29 -7l-1 26l149 50h27l-68 -336q-4 -16 -4 -33q0 -35 19.5 -52t56.5 -17
q30 0 63 17t60 51.5t37 84.5l39 192q1 3 1 8q0 16 -18 16q-8 0 -29 -7l-1 26l149 50h27l-83 -411q-2 -12 -2 -15q0 -17 18 -17z" />
    <glyph glyph-name="v" unicode="v" horiz-adv-x="545" 
d="M85 16.5q-28 26.5 -28 70.5q0 15 3 31l54 264q1 3 1 8q0 16 -18 16q-8 0 -29 -7l-1 26l149 50h27l-71 -348q-3 -15 -3 -30q0 -30 13.5 -48.5t42.5 -18.5q40 0 85 46.5t80.5 116.5t48.5 133q7 35 7 66q0 40 -16 69q28 19 62 19q35 0 51 -22t16 -59q0 -22 -4 -39
q-17 -81 -70.5 -167t-135.5 -144.5t-179 -58.5q-57 0 -85 26.5z" />
    <glyph glyph-name="w" unicode="w" horiz-adv-x="749" 
d="M744 458q14 -22 14 -59q0 -28 -6 -57q-16 -80 -56.5 -160.5t-110 -136t-164.5 -55.5q-89 0 -97 76q-72 -76 -150 -76q-60 0 -89 24.5t-29 67.5q0 10 4 32l54 268q1 3 1 8q0 16 -18 16q-8 0 -29 -7l-1 26l149 50h27l-74 -363q-3 -16 -3 -29q0 -53 55 -53q44 0 104 75l3 18
l70 343h99l-72 -353q-6 -27 -6 -44q0 -21 9.5 -31.5t30.5 -10.5q29 0 66 36t68 93t43 115q13 62 13 114q0 50 -13 76q30 19 64 19q30 0 44 -22z" />
    <glyph glyph-name="x" unicode="x" horiz-adv-x="550" 
d="M587 470l-6 -30h-11q-33 0 -83 -48l-150 -142l71 -144q12 -25 35 -49t43 -24q9 0 26 7l-4 -21q-16 -13 -57.5 -21t-71.5 -8q-24 0 -42.5 10t-31.5 35l-61 126l-170 -161h-104l6 30h16q20 0 37.5 11t43.5 35l145 137l-93 191q-3 7 -15 7q-10 0 -24.5 -5.5t-19.5 -7.5
l-3 26l120 46h45l83 -169l179 169h97z" />
    <glyph glyph-name="y" unicode="y" horiz-adv-x="559" 
d="M566.5 462q17.5 -18 17.5 -50q0 -15 -2 -24q-5 -22 -25.5 -52t-54.5 -74l-346 -429q-33 -41 -73.5 -67t-75.5 -26q-27 0 -42 10.5t-15 29.5q0 4 2 14q3 16 15.5 29t28.5 13q14 0 20 -6.5t10 -18.5q1 -1 3 -6.5t5 -7.5t7 -2q14 0 39 22t47 51l107 136l-104 400q-1 7 -15 7
q-10 0 -24.5 -6t-18.5 -7l-3 26l104 46h64l68 -375l80 102q27 33 52 80t32 85q4 17 4 34q0 41 -24 63q14 9 36 15t40 6q24 0 41.5 -18z" />
    <glyph glyph-name="z" unicode="z" horiz-adv-x="449" 
d="M255 -4q-22 6 -50 17q-30 11 -50.5 16.5t-42.5 5.5q-46 0 -89 -39l-43 41l372 389h-196q-25 0 -54 -85h-27l26 129h389l-6 -29l-342 -353q9 2 23 2q20 0 41 -7t25 -8q43 -17 75 -17q56 0 93 87l21 -7q-20 -74 -48.5 -111t-71.5 -37q-23 0 -45 6z" />
    <glyph glyph-name="braceleft" unicode="{" horiz-adv-x="348" 
d="M117.5 -114q-37.5 22 -37.5 75q0 22 6 52l36 175q3 17 3 31q0 75 -86 85l6 29q62 9 90.5 35.5t40.5 79.5l33 165q12 60 34.5 93t65.5 48.5t119 15.5l-6 -28q-61 -8 -90.5 -38t-43.5 -101l-27 -129q-14 -72 -47 -108t-106 -47v-3q51 -6 74.5 -28.5t23.5 -66.5
q0 -22 -6 -51l-28 -137q-8 -38 -8 -61q0 -38 20 -55.5t67 -25.5l-5 -27q-91 0 -128.5 22z" />
    <glyph glyph-name="bar" unicode="|" horiz-adv-x="430" 
d="M131 751h92v-946h-92v946z" />
    <glyph glyph-name="braceright" unicode="}" horiz-adv-x="348" 
d="M-26 -109q60 9 90.5 33.5t42.5 84.5l37 182q11 56 47 87t101 38v3q-52 7 -75.5 30t-23.5 62q0 16 5 41l34 173q5 25 5 40q0 37 -21.5 54t-65.5 23l6 28q90 0 126 -22.5t36 -74.5q0 -28 -7 -60l-34 -165q-4 -19 -4 -37q0 -33 20 -52t67 -26l-6 -29q-56 -6 -88 -37t-42 -79
l-36 -175q-11 -57 -34.5 -89t-67 -46t-117.5 -14z" />
    <glyph glyph-name="asciitilde" unicode="~" horiz-adv-x="567" 
d="M353.5 251.5q-30.5 9.5 -68.5 26.5q-38 15 -58 21.5t-41 6.5q-54 0 -97 -40l-12 42q22 24 54.5 39t66.5 15q25 0 49.5 -8t63.5 -24q37 -16 63.5 -24t53.5 -8q53 0 95 40l13 -42q-21 -24 -52.5 -39t-65.5 -15t-64.5 9.5z" />
    <glyph glyph-name="uni00A0" unicode="&#xa0;" horiz-adv-x="250" 
 />
    <glyph glyph-name="exclamdown" unicode="&#xa1;" horiz-adv-x="298" 
d="M146.5 369q-12.5 12 -12.5 33q0 5 2 17q5 28 25 44.5t46 16.5q24 0 36.5 -12t12.5 -33q0 -6 -2 -16q-6 -29 -25.5 -45.5t-47.5 -16.5q-22 0 -34.5 12zM22 -227q-11 11 -11 31q0 11 3 25l5 17l131 477h50l-63 -477q-1 -3 -1.5 -7t-1.5 -10q-6 -32 -22 -49.5t-52 -17.5
q-27 0 -38 11z" />
    <glyph glyph-name="cent" unicode="&#xa2;" horiz-adv-x="507" 
d="M468 446.5q34 -26.5 34 -68.5q0 -13 -3 -25q-3 -15 -16 -28.5t-29 -13.5t-24 8.5t-8 20.5q0 9 7 21q6 14 6 21q0 20 -23 37.5t-65 17.5q-78 0 -129.5 -56t-70.5 -147q-7 -34 -7 -66q0 -63 29 -100t84 -37q130 0 183 137h32q-21 -72 -73 -119.5t-130 -56.5l-16 -78h-45
l17 76q-94 2 -144 47t-50 128q0 30 8 70q22 110 98 176t188 69l16 82h44l-17 -83q70 -6 104 -32.5z" />
    <glyph glyph-name="sterling" unicode="&#xa3;" horiz-adv-x="568" 
d="M-4 44h69q21 18 31.5 39.5t16.5 50.5l41 199h-94l9 43h93l25 120q21 101 79.5 156t165.5 55q108 0 146 -55q3 -5 8 -5q6 0 9 15l9 41h41l-38 -187h-34q1 9 1 26q0 60 -31 89t-87 29q-125 0 -156 -149l-28 -135h198l-8 -43h-199l-38 -189q-7 -31 -20.5 -55t-38.5 -44h203
q33 0 53.5 12.5t34 35.5t29.5 65h29l-47 -158h-480z" />
    <glyph glyph-name="currency" unicode="&#xa4;" horiz-adv-x="567" 
d="M58 112l74 63q-19 36 -19 80q0 22 4 39q15 68 63 119l-49 64l42 37l50 -65q55 41 122 41q63 0 106 -41l76 65l27 -37l-77 -64q19 -36 19 -80q0 -20 -4 -39q-13 -66 -63 -119l48 -62l-41 -37l-49 63q-57 -40 -122 -40q-64 0 -106 40l-74 -63zM349 167.5q36 19.5 61.5 52.5
t33.5 73q4 22 4 33q0 50 -32 82.5t-82 32.5q-38 0 -73.5 -19.5t-61 -53t-33.5 -74.5q-3 -16 -3 -31q0 -51 31 -83t81 -32q38 0 74 19.5z" />
    <glyph glyph-name="yen" unicode="&#xa5;" horiz-adv-x="677" 
d="M771 700l-6 -31h-21q-18 0 -36 -10t-31 -27l-180 -230h136l-9 -43h-161l-54 -69l-18 -90h200l-8 -43h-201l-18 -90q-1 -3 -1 -9q0 -27 48 -27h29l-6 -31h-282l5 31h28q29 0 44.5 8.5t19.5 27.5l18 90h-183l8 43h184l18 91l-24 68h-145l8 43h122l-80 232q-5 16 -19 25.5
t-30 9.5h-18l5 31h256l-6 -31h-26q-22 0 -35.5 -11.5t-8.5 -25.5l73 -230h63l174 226q9 12 9 21q0 10 -9 15t-25 5h-30l6 31h217zM396 359h-17l5 -15z" />
    <glyph glyph-name="brokenbar" unicode="&#xa6;" horiz-adv-x="430" 
d="M131 751h92v-414h-92v414zM131 245h92v-440h-92v440z" />
    <glyph glyph-name="section" unicode="&#xa7;" horiz-adv-x="577" 
d="M626 757l-39 -196h-34q1 6 1 19q0 65 -39.5 99.5t-103.5 34.5q-65 0 -108.5 -29t-53.5 -79q-2 -8 -2 -21q0 -30 18 -52t45 -37.5t73 -36.5q56 -26 89.5 -46t57 -52.5t23.5 -79.5q0 -17 -5 -42q-17 -89 -92 -141q40 -42 40 -99q0 -21 -4 -41q-19 -95 -98 -146.5
t-188 -51.5q-59 0 -101 17.5t-67 34t-27 16.5q-7 0 -10 -15l-10 -44h-39l39 197h34l-1 -15q0 -44 23 -76.5t60 -49.5t80 -17q70 0 120.5 33.5t64.5 97.5q2 8 2 23q0 33 -19 57t-46 40t-76 40q-54 26 -86.5 45.5t-55 51t-22.5 75.5q0 21 4 38q19 91 105 137q-51 44 -51 106
q0 21 4 38q17 84 87.5 127.5t177.5 43.5q48 0 83.5 -14t59.5 -28.5t27 -14.5q10 0 12 12l8 41h40zM412 301q-19 24 -46.5 40t-75.5 39q-30 14 -45 22q-43 -28 -52 -77q-2 -8 -2 -22q0 -30 18 -52t44 -37.5t72 -36.5q49 -22 66 -32q28 31 37 75q3 14 3 25q0 32 -19 56z" />
    <glyph glyph-name="dieresis" unicode="&#xa8;" horiz-adv-x="480" 
d="M181.5 588.5q-10.5 10.5 -10.5 28.5q0 27 18.5 47t43.5 20q20 0 31 -11.5t11 -30.5q0 -7 -1 -11q-5 -23 -22.5 -38t-40.5 -15q-19 0 -29.5 10.5zM396 589q-11 11 -11 28q0 27 18.5 47t43.5 20q20 0 31 -11.5t11 -30.5q0 -7 -1 -11q-5 -23 -22.5 -38t-40.5 -15
q-18 0 -29 11z" />
    <glyph glyph-name="copyright" unicode="&#xa9;" horiz-adv-x="788" 
d="M176.5 37q-79.5 47 -124.5 130.5t-45 188.5t45 188.5t124.5 130.5t179.5 47t179.5 -47t124.5 -130.5t45 -188.5t-45 -188.5t-124.5 -130.5t-179.5 -47t-179.5 47zM510.5 77.5q68.5 41.5 107 114.5t38.5 164q0 90 -38.5 163t-107 114.5t-154.5 41.5q-87 0 -155 -41.5
t-106.5 -114.5t-38.5 -163q0 -91 38.5 -164t106.5 -114.5t155 -41.5q86 0 154.5 41.5zM210.5 187.5q-53.5 57.5 -53.5 164.5q0 101 52.5 161.5t147.5 60.5q41 0 75.5 -12t53.5 -32l6 42h25v-138h-25q-11 100 -110 100q-68 0 -103 -51t-35 -132q0 -80 32.5 -131t100.5 -51
q47 0 79.5 24.5t42.5 75.5h27q-7 -62 -49.5 -100.5t-113.5 -38.5q-99 0 -152.5 57.5z" />
    <glyph glyph-name="ordfeminine" unicode="&#xaa;" horiz-adv-x="424" 
d="M307 364q0 8 1 13l14 68q-27 -51 -69 -84.5t-77 -33.5q-50 0 -75.5 30t-25.5 83q0 27 8 64q24 119 83.5 162.5t125.5 43.5q23 0 46 -9.5t31 -27.5l6 37h97l-64 -317l-2 -13q0 -17 16 -17q10 0 35 7l-4 -18q-38 -27 -87 -27q-59 0 -59 39zM272.5 406.5
q36.5 42.5 59.5 87.5l25 124q-2 31 -22 44.5t-42 13.5q-40 0 -69.5 -39t-49.5 -135q-5 -23 -5 -51q0 -37 10.5 -62t34.5 -25q22 0 58.5 42.5z" />
    <glyph glyph-name="guillemotleft" unicode="&#xab;" horiz-adv-x="501" 
d="M48 253l4 19l240 225l16 -36l-162 -199l82 -198l-32 -36zM249 253l3 19l240 225l17 -36l-162 -199l81 -198l-32 -36z" />
    <glyph glyph-name="logicalnot" unicode="&#xac;" horiz-adv-x="469" 
d="M331 329h-334v44h386v-195h-52v151z" />
    <glyph glyph-name="uni00AD" unicode="&#xad;" horiz-adv-x="389" 
d="M65 312h308l-13 -67h-308z" />
    <glyph glyph-name="registered" unicode="&#xae;" horiz-adv-x="788" 
d="M535.5 675q79.5 -47 124.5 -130.5t45 -188.5t-45 -188.5t-124.5 -130.5t-179.5 -47t-179.5 47t-124.5 130.5t-45 188.5t45 188.5t124.5 130.5t179.5 47t179.5 -47zM510.5 77.5q68.5 41.5 107 114.5t38.5 164q0 90 -38.5 163t-107 114.5t-154.5 41.5q-87 0 -155 -41.5
t-106.5 -114.5t-38.5 -163q0 -91 38.5 -164t106.5 -114.5t155 -41.5q86 0 154.5 41.5zM548 164v-23h-104l-91 183h-46v-130q0 -16 7.5 -23t27.5 -7h19v-23h-183v23h19q20 0 27.5 7t7.5 23v325q0 28 -30 28h-20v24h208q133 0 133 -121q0 -50 -24 -82t-71 -41l72 -141
q11 -20 48 -22zM307 359h63q41 0 59.5 23t18.5 69q0 44 -18.5 65t-59.5 21h-63v-178z" />
    <glyph glyph-name="macron" unicode="&#xaf;" horiz-adv-x="480" 
d="M164 770h388l-11 -54h-387z" />
    <glyph glyph-name="degree" unicode="&#xb0;" horiz-adv-x="318" 
d="M133 481.5q-29 28.5 -29 74.5q0 18 4 33q11 58 55.5 96.5t103.5 38.5q51 0 79.5 -28.5t28.5 -74.5q0 -15 -3 -32q-12 -59 -56.5 -97.5t-103.5 -38.5q-50 0 -79 28.5zM287 525q29 26 37 64q2 12 2 19q0 31 -18.5 51t-49.5 20q-27 0 -51 -15.5t-38.5 -41t-14.5 -53.5
q0 -31 18.5 -50.5t49.5 -19.5q36 0 65 26z" />
    <glyph glyph-name="plusminus" unicode="&#xb1;" horiz-adv-x="566" 
d="M256 327h-180l12 60h181l37 185h111l-38 -185h180l-13 -60h-179l-38 -185h-110zM24 70h464l-12 -60h-464z" />
    <glyph glyph-name="uni00B2" unicode="&#xb2;" horiz-adv-x="394" 
d="M63 310q19 40 51 69t86 68q58 41 88.5 72.5t39.5 74.5q2 14 2 20q0 25 -14.5 38.5t-41.5 13.5q-37 0 -57 -16t-28 -49q-2 -13 -13.5 -21.5t-27.5 -8.5q-26 0 -26 26q0 8 1 12q8 43 57 71t116 28q58 0 94.5 -23t36.5 -70q0 -39 -19 -69.5t-46.5 -53t-75.5 -55.5
q-44 -29 -72.5 -51.5t-45.5 -49.5h157q25 0 45 53h18l-33 -117h-299z" />
    <glyph glyph-name="uni00B3" unicode="&#xb3;" horiz-adv-x="394" 
d="M101.5 285.5q-33.5 20.5 -33.5 57.5q0 26 11.5 40t31.5 14q17 0 24 -8.5t5 -21.5q-2 -12 -2 -17q0 -41 57 -41q41 0 66.5 21.5t33.5 61.5q2 12 2 17q0 28 -17 46t-48 18h-53l8 43h53q37 0 60.5 25t28.5 56q3 12 3 21q0 23 -14 35.5t-40 12.5q-37 0 -56.5 -15.5
t-27.5 -48.5q-2 -13 -13.5 -21.5t-27.5 -8.5q-26 0 -26 25q0 8 1 12q8 44 53 71.5t110 27.5q58 0 96 -22t38 -66q0 -40 -24 -75.5t-63 -49.5q55 -17 55 -75q0 -12 -3 -27q-13 -65 -67.5 -96.5t-124.5 -31.5q-63 0 -96.5 20.5z" />
    <glyph glyph-name="acute" unicode="&#xb4;" horiz-adv-x="480" 
d="M235 608l135 113q8 8 25 18t33 10q15 0 22 -7.5t7 -18.5q0 -6 -1 -9q-6 -28 -47 -49l-160 -87z" />
    <glyph glyph-name="paragraph" unicode="&#xb6;" horiz-adv-x="495" 
d="M104 30h20q47 0 47 33v247q-86 6 -132 59.5t-46 143.5q0 96 49 141.5t143 45.5h241v-30h-21q-47 0 -47 -34v-573q0 -33 47 -33h21v-30h-131v658h-60v-658h-131v30zM171 658q-64 -1 -96.5 -38.5t-32.5 -106.5q0 -76 37.5 -116t91.5 -42v303z" />
    <glyph glyph-name="periodcentered" unicode="&#xb7;" horiz-adv-x="276" 
d="M115.5 292q-13.5 14 -13.5 38q0 39 23 65.5t58 26.5q26 0 40.5 -14.5t14.5 -38.5q0 -39 -23.5 -65t-59.5 -26q-26 0 -39.5 14z" />
    <glyph glyph-name="cedilla" unicode="&#xb8;" horiz-adv-x="480" 
d="M69 -218l12 31q14 -2 21 -2q95 0 105 57q5 24 -22 34.5t-53 10.5l-5 11l72 94h47l-51 -68q32 0 59.5 -15t27.5 -47q0 -4 -2 -16q-11 -55 -57.5 -75t-104.5 -20q-22 0 -49 5z" />
    <glyph glyph-name="uni00B9" unicode="&#xb9;" horiz-adv-x="394" 
d="M83 302h40q52 0 58 35l61 295l-85 -30l9 42l197 68l-77 -375q-1 -3 -1 -8q0 -27 46 -27h41l-7 -30h-289z" />
    <glyph glyph-name="ordmasculine" unicode="&#xba;" horiz-adv-x="366" 
d="M110 360q-34 35 -34 98q0 27 6 58q18 90 72 141t134 51q67 0 101 -35t34 -99q0 -26 -6 -58q-18 -89 -72 -140t-135 -51q-66 0 -100 35zM288 415.5q29 37.5 42 100.5q7 35 7 56q0 39 -15.5 60.5t-43.5 21.5q-37 0 -67 -37.5t-43 -100.5q-6 -28 -6 -53q0 -40 15.5 -62.5
t44.5 -22.5q37 0 66 37.5z" />
    <glyph glyph-name="guillemotright" unicode="&#xbb;" horiz-adv-x="501" 
d="M20 64l163 198l-82 199l31 36l148 -225l-4 -19l-240 -225zM221 64l163 198l-83 199l32 36l148 -225l-4 -19l-240 -225z" />
    <glyph glyph-name="onequarter" unicode="&#xbc;" horiz-adv-x="900" 
d="M72 302h39q53 0 60 35l60 295l-85 -30l9 42l196 68l-76 -375q-1 -3 -1 -8q0 -14 11.5 -20.5t35.5 -6.5h39l-7 -30h-288zM755 704h49l-556 -704h-49zM564 30h30q53 0 60 35l7 38h-188l7 30l247 298h105l-57 -284h66l-16 -44h-60l-8 -38q-3 -18 8.5 -26.5t38.5 -8.5h29
l-5 -30h-269zM671 147l43 211l-174 -211h131z" />
    <glyph glyph-name="onehalf" unicode="&#xbd;" horiz-adv-x="900" 
d="M72 302h39q53 0 60 35l60 295l-85 -30l9 42l196 68l-76 -375q-1 -3 -1 -8q0 -14 11.5 -20.5t35.5 -6.5h39l-7 -30h-288zM745 704h49l-556 -704h-48zM522 38q19 40 50.5 68.5t85.5 68.5q58 41 88.5 72.5t39.5 74.5q2 7 2 21q0 24 -14.5 37.5t-41.5 13.5q-37 0 -57 -16
t-28 -49q-2 -13 -13.5 -21.5t-27.5 -8.5q-26 0 -26 26q0 8 1 12q8 43 57 71t116 28q58 0 94.5 -23t36.5 -70q0 -39 -19 -69.5t-46.5 -53t-75.5 -55.5q-44 -29 -72.5 -51.5t-45.5 -49.5h157q25 0 45 53h18l-32 -117h-299z" />
    <glyph glyph-name="threequarters" unicode="&#xbe;" horiz-adv-x="900" 
d="M108.5 286q-34.5 21 -34.5 57q0 26 11.5 40t30.5 14q17 0 24.5 -8.5t5.5 -21.5q-2 -12 -2 -17q0 -41 57 -41q40 0 65.5 21.5t33.5 61.5q2 12 2 17q0 28 -17 46t-48 18h-54l9 43h53q30 0 51 16.5t31 40.5t10 44q0 24 -14 36.5t-40 12.5q-36 0 -56.5 -15.5t-27.5 -48.5
q-2 -13 -13.5 -21.5t-27.5 -8.5q-27 0 -27 27q0 6 1 10q9 44 56 71.5t112 27.5q58 0 94 -21.5t36 -65.5q0 -40 -24.5 -76t-62.5 -50q27 -8 41.5 -27.5t14.5 -48.5q0 -12 -3 -26q-14 -66 -66.5 -97t-122.5 -31q-64 0 -98.5 21zM745 704h49l-556 -704h-48zM558 30h30
q52 0 59 35l8 38h-188l6 30l247 298h106l-58 -284h66l-16 -44h-60l-7 -38q-1 -3 -1 -8q0 -14 11.5 -20.5t35.5 -6.5h30l-6 -30h-269zM664 147l44 211l-175 -211h131z" />
    <glyph glyph-name="questiondown" unicode="&#xbf;" horiz-adv-x="462" 
d="M260.5 368.5q-12.5 11.5 -12.5 32.5q0 12 2 18q4 28 24 44.5t48 16.5q22 0 34.5 -12.5t12.5 -34.5q0 -9 -1 -14q-7 -28 -26.5 -45t-45.5 -17q-23 0 -35.5 11.5zM18 -210.5q-48 29.5 -48 97.5q0 22 4 42q11 54 44.5 90t93.5 79t93.5 79t44.5 91q2 10 2 33h59q1 -22 -4 -45
q-13 -62 -45.5 -105.5t-88.5 -95.5q-43 -40 -65.5 -68t-29.5 -62q-5 -23 -5 -40q0 -79 91 -79q49 0 81.5 27.5t41.5 74.5q3 16 17.5 27.5t35.5 11.5q18 0 29 -8.5t11 -25.5q0 -4 -2 -14q-7 -37 -38 -69t-81.5 -51t-112.5 -19q-80 0 -128 29.5z" />
    <glyph glyph-name="Agrave" unicode="&#xc0;" horiz-adv-x="722" 
d="M417.5 886q-6.5 9 -6.5 21q0 7 1 10q3 14 14.5 24t29.5 10q15 0 25 -8t19 -20l89 -113l-26 -30l-125 87q-14 10 -20.5 19zM684 31l-5 -31h-263l5 31h18q29 0 39.5 10.5t10.5 32.5q0 6 -2 26l-15 103h-265l-69 -123q-7 -11 -7 -22q0 -13 11 -20t29 -7h18l-6 -31h-217l6 31
h15q20 0 41.5 10t31.5 26l354 616l92 34l110 -651q3 -17 17.5 -26t32.5 -9h18zM465 249l-48 326l-184 -326h232z" />
    <glyph glyph-name="Aacute" unicode="&#xc1;" horiz-adv-x="722" 
d="M403 780l-13 30l136 114q15 12 27.5 19.5t27.5 7.5q16 0 23.5 -8t7.5 -20q0 -16 -12.5 -29.5t-35.5 -26.5zM684 31l-5 -31h-263l5 31h18q29 0 39.5 10.5t10.5 32.5q0 6 -2 26l-15 103h-265l-69 -123q-7 -11 -7 -22q0 -13 11 -20t29 -7h18l-6 -31h-217l6 31h15
q20 0 41.5 10t31.5 26l354 616l92 34l110 -651q3 -17 17.5 -26t32.5 -9h18zM465 249l-48 326l-184 -326h232z" />
    <glyph glyph-name="Acircumflex" unicode="&#xc2;" horiz-adv-x="722" 
d="M346 781l-16 23l155 140h59l98 -140l-24 -23l-93 89q-15 13 -23 13q-11 0 -30 -13zM684 31l-5 -31h-263l5 31h18q29 0 39.5 10.5t10.5 32.5q0 6 -2 26l-15 103h-265l-69 -123q-7 -11 -7 -22q0 -13 11 -20t29 -7h18l-6 -31h-217l6 31h15q20 0 41.5 10t31.5 26l354 616
l92 34l110 -651q3 -17 17.5 -26t32.5 -9h18zM465 249l-48 326l-184 -326h232z" />
    <glyph glyph-name="Atilde" unicode="&#xc3;" horiz-adv-x="722" 
d="M373.5 823q-17.5 -14 -35.5 -45l-20 13q19 43 51 72.5t72 29.5q17 0 32 -6t40 -19q22 -13 38.5 -19.5t33.5 -6.5q23 0 40 14.5t36 46.5l21 -13q-21 -45 -52.5 -75t-72.5 -30q-17 0 -32 6.5t-39 19.5q-21 13 -37.5 19.5t-33.5 6.5q-24 0 -41.5 -14zM684 31l-5 -31h-263
l5 31h18q29 0 39.5 10.5t10.5 32.5q0 6 -2 26l-15 103h-265l-69 -123q-7 -11 -7 -22q0 -13 11 -20t29 -7h18l-6 -31h-217l6 31h15q20 0 41.5 10t31.5 26l354 616l92 34l110 -651q3 -17 17.5 -26t32.5 -9h18zM465 249l-48 326l-184 -326h232z" />
    <glyph glyph-name="Adieresis" unicode="&#xc4;" horiz-adv-x="722" 
d="M334.5 791q-10.5 11 -10.5 29q0 8 1 12q5 24 21.5 38.5t39.5 14.5q20 0 30.5 -10t10.5 -28q0 -29 -17.5 -48t-45.5 -19q-19 0 -29.5 11zM547.5 790.5q-10.5 10.5 -10.5 28.5q0 28 18 47t45 19q19 0 29.5 -10t10.5 -28q0 -28 -17.5 -47.5t-44.5 -19.5q-20 0 -30.5 10.5z
M684 31l-5 -31h-263l5 31h18q29 0 39.5 10.5t10.5 32.5q0 6 -2 26l-15 103h-265l-69 -123q-7 -11 -7 -22q0 -13 11 -20t29 -7h18l-6 -31h-217l6 31h15q20 0 41.5 10t31.5 26l354 616l92 34l110 -651q3 -17 17.5 -26t32.5 -9h18zM465 249l-48 326l-184 -326h232z" />
    <glyph glyph-name="Aring" unicode="&#xc5;" horiz-adv-x="722" 
d="M417 771q-21 20 -21 53q0 7 2 21q9 42 41 68t75 26q36 0 57 -19.5t21 -51.5q0 -50 -34 -83.5t-83 -33.5q-37 0 -58 20zM461 879.5q-19 -18.5 -19 -47.5q0 -19 11.5 -29.5t30.5 -10.5q26 0 44.5 19t18.5 47q0 19 -11.5 29.5t-30.5 10.5q-25 0 -44 -18.5zM684 31l-5 -31
h-263l5 31h18q29 0 39.5 10.5t10.5 32.5q0 6 -2 26l-15 103h-265l-69 -123q-7 -11 -7 -22q0 -13 11 -20t29 -7h18l-6 -31h-217l6 31h15q20 0 41.5 10t31.5 26l354 616l92 34l110 -651q3 -17 17.5 -26t32.5 -9h18zM465 249l-48 326l-184 -326h232z" />
    <glyph glyph-name="AE" unicode="&#xc6;" horiz-adv-x="956" 
d="M-21 31h15q28 1 48.5 16t40.5 41l432 554l2 6q4 5 4 11q0 10 -11 10h-30l6 31h524l-37 -179h-29q3 33 3 45q0 88 -65 88h-20h-182l-55 -264h147q29 0 42.5 23t28.5 72h26l-49 -236h-26q1 7 3 22t2 26q0 47 -36 47h-147l-61 -298h220q73 0 117 138h30l-55 -184h-512l6 31
h24q24 0 39.5 9t19.5 27l28 136h-231l-100 -131q-6 -9 -6 -14q0 -12 17 -14v-1q0 -5 9 -8.5t17 -3.5h18l-6 -31h-217zM481 249l73 357l-278 -357h205z" />
    <glyph glyph-name="Ccedilla" unicode="&#xc7;" horiz-adv-x="658" 
d="M719 705l-40 -197h-34q1 7 1 20q0 65 -44.5 99.5t-114.5 34.5q-113 0 -191.5 -83.5t-108.5 -228.5q-13 -67 -13 -114q0 -95 43.5 -147t130.5 -52q66 0 130.5 33t102.5 102h43q-31 -76 -102.5 -124.5t-166.5 -56.5l-33 -45q31 0 58.5 -15t27.5 -47q0 -4 -2 -16
q-11 -55 -57 -75t-104 -20q-22 0 -49 5l11 31q16 -2 21 -2q94 0 105 57q5 24 -22 34.5t-52 10.5l-6 11l53 70q-122 4 -184.5 69t-62.5 180q0 51 12 111q34 168 139 264t262 96q63 0 107 -17.5t72 -41.5q1 -1 3.5 -2.5t4.5 -1.5q8 0 11 14l9 44h40z" />
    <glyph glyph-name="Egrave" unicode="&#xc8;" horiz-adv-x="599" 
d="M381.5 886q-6.5 9 -6.5 21q0 7 1 10q3 14 15 24t29 10q16 0 26 -8t19 -20l89 -113l-27 -30l-125 87q-14 10 -20.5 19zM653 700l-37 -179h-29q3 33 3 45q0 88 -65 88h-217l-54 -264h159q29 0 42.5 23t28.5 72h26l-49 -236h-26q1 7 3 22t2 26q0 47 -36 47h-160l-61 -298
h235q73 0 117 138h29l-54 -184h-534l6 31h28q28 0 43.5 8.5t19.5 27.5l115 565q1 3 1 9q0 28 -49 28h-28l6 31h535z" />
    <glyph glyph-name="Eacute" unicode="&#xc9;" horiz-adv-x="599" 
d="M376 780l-13 30l136 114q15 12 27.5 19.5t27.5 7.5q16 0 23.5 -7.5t7.5 -19.5q0 -17 -12 -31t-36 -26zM653 700l-37 -179h-29q3 33 3 45q0 88 -65 88h-217l-54 -264h159q29 0 42.5 23t28.5 72h26l-49 -236h-26q1 7 3 22t2 26q0 47 -36 47h-160l-61 -298h235q73 0 117 138
h29l-54 -184h-534l6 31h28q28 0 43.5 8.5t19.5 27.5l115 565q1 3 1 9q0 28 -49 28h-28l6 31h535z" />
    <glyph glyph-name="Ecircumflex" unicode="&#xca;" horiz-adv-x="599" 
d="M310 781l-15 23l154 140h60l98 -140l-24 -23l-93 89q-15 13 -23 13q-12 0 -30 -13zM653 700l-37 -179h-29q3 33 3 45q0 88 -65 88h-217l-54 -264h159q29 0 42.5 23t28.5 72h26l-49 -236h-26q1 7 3 22t2 26q0 47 -36 47h-160l-61 -298h235q73 0 117 138h29l-54 -184h-534
l6 31h28q28 0 43.5 8.5t19.5 27.5l115 565q1 3 1 9q0 28 -49 28h-28l6 31h535z" />
    <glyph glyph-name="Edieresis" unicode="&#xcb;" horiz-adv-x="599" 
d="M316.5 790.5q-10.5 10.5 -10.5 28.5q0 9 1 13q5 24 21.5 38.5t39.5 14.5q19 0 30 -10.5t11 -28.5q0 -28 -18 -47t-45 -19q-19 0 -29.5 10.5zM529 791q-11 11 -11 30q0 7 1 11q5 24 22 38.5t41 14.5q19 0 29.5 -10.5t10.5 -28.5q0 -28 -18 -47t-44 -19q-20 0 -31 11z
M653 700l-37 -179h-29q3 33 3 45q0 88 -65 88h-217l-54 -264h159q29 0 42.5 23t28.5 72h26l-49 -236h-26q1 7 3 22t2 26q0 47 -36 47h-160l-61 -298h235q73 0 117 138h29l-54 -184h-534l6 31h28q28 0 43.5 8.5t19.5 27.5l115 565q1 3 1 9q0 28 -49 28h-28l6 31h535z" />
    <glyph glyph-name="Igrave" unicode="&#xcc;" horiz-adv-x="329" 
d="M239 867q-14 10 -20.5 19t-6.5 21q0 7 1 10q3 14 14.5 24t29.5 10q25 0 44 -28l90 -113l-27 -30zM-10 31h29q28 0 43.5 8.5t19.5 27.5l115 565q1 3 1 8q0 29 -48 29h-29l6 31h282l-6 -31h-28q-56 0 -63 -37l-115 -565q-1 -3 -1 -9q0 -14 12 -20.5t37 -6.5h28l-6 -31h-282
z" />
    <glyph glyph-name="Iacute" unicode="&#xcd;" horiz-adv-x="329" 
d="M192 810l136 114q15 12 27.5 19.5t27.5 7.5q16 0 23.5 -7.5t7.5 -19.5q0 -17 -12 -31t-36 -26l-161 -87zM-10 31h29q28 0 43.5 8.5t19.5 27.5l115 565q1 3 1 8q0 29 -48 29h-29l6 31h282l-6 -31h-28q-56 0 -63 -37l-115 -565q-1 -3 -1 -9q0 -14 12 -20.5t37 -6.5h28
l-6 -31h-282z" />
    <glyph glyph-name="Icircumflex" unicode="&#xce;" horiz-adv-x="329" 
d="M132 804l155 140h60l97 -140l-24 -23l-93 89q-13 13 -23 13q-11 0 -29 -13l-127 -89zM-10 31h29q28 0 43.5 8.5t19.5 27.5l115 565q1 3 1 8q0 29 -48 29h-29l6 31h282l-6 -31h-28q-56 0 -63 -37l-115 -565q-1 -3 -1 -9q0 -14 12 -20.5t37 -6.5h28l-6 -31h-282z" />
    <glyph glyph-name="Idieresis" unicode="&#xcf;" horiz-adv-x="329" 
d="M146.5 791q-10.5 11 -10.5 29q0 8 1 12q5 24 21.5 38.5t39.5 14.5q19 0 30 -10.5t11 -28.5q0 -28 -18 -47t-45 -19q-19 0 -29.5 11zM359 791q-11 11 -11 30q0 7 1 11q5 24 22 38.5t41 14.5q19 0 29.5 -10t10.5 -28q0 -28 -18 -47.5t-44 -19.5q-20 0 -31 11zM-10 31h29
q28 0 43.5 8.5t19.5 27.5l115 565q1 3 1 8q0 29 -48 29h-29l6 31h282l-6 -31h-28q-56 0 -63 -37l-115 -565q-1 -3 -1 -9q0 -14 12 -20.5t37 -6.5h28l-6 -31h-282z" />
    <glyph glyph-name="Eth" unicode="&#xd0;" horiz-adv-x="681" 
d="M687 467q0 -55 -13 -117q-72 -350 -384 -350h-313l6 31h29q53 0 62 36l51 253h-75l10 54h76l53 258q1 3 1 9q0 28 -48 28h-29l6 31h314q254 0 254 -233zM572 473q0 88 -37 135t-112 47h-114l-58 -281h197l-10 -54h-198l-56 -275h113q97 0 164 79t97 226q14 72 14 123z
" />
    <glyph glyph-name="Ntilde" unicode="&#xd1;" horiz-adv-x="734" 
d="M328 791q19 42 51 72t72 30q17 0 32.5 -6.5t40.5 -19.5t40 -19t31 -6q24 0 41 14.5t36 46.5l20 -13q-50 -105 -125 -105q-17 0 -33 6.5t-37 19.5q-23 13 -39 19.5t-33 6.5q-23 0 -40.5 -14t-36.5 -45zM-13 31h27q29 0 44.5 8.5t19.5 27.5l115 565q1 3 1 8q0 29 -49 29
h-28l6 31h205l242 -549l98 481q1 3 1 9q0 28 -49 28h-28l6 31h221l-6 -31h-29q-55 0 -62 -37l-129 -632h-65l-282 629l-114 -562q-1 -3 -1 -9q0 -27 48 -27h28l-5 -31h-221z" />
    <glyph glyph-name="Ograve" unicode="&#xd2;" horiz-adv-x="741" 
d="M434 867q-14 10 -20.5 19t-6.5 21q0 7 1 10q3 14 14.5 24t29.5 10q25 0 44 -28l90 -113l-27 -30zM123 55q-69 65 -69 186q0 51 12 109q34 170 139.5 265t270.5 95q137 0 206.5 -66t69.5 -187q0 -50 -12 -107q-35 -171 -140 -265.5t-271 -94.5q-137 0 -206 65zM521.5 121
q73.5 83 102.5 229q12 62 12 113q0 95 -42.5 147.5t-127.5 52.5q-107 0 -180.5 -83.5t-103.5 -229.5q-12 -61 -12 -113q0 -95 42.5 -147t126.5 -52q109 0 182.5 83z" />
    <glyph glyph-name="Oacute" unicode="&#xd3;" horiz-adv-x="741" 
d="M397 810l137 114q30 27 54 27q16 0 23.5 -7.5t7.5 -19.5q0 -17 -12 -31t-36 -26l-160 -87zM123 55q-69 65 -69 186q0 51 12 109q34 170 139.5 265t270.5 95q137 0 206.5 -66t69.5 -187q0 -50 -12 -107q-35 -171 -140 -265.5t-271 -94.5q-137 0 -206 65zM521.5 121
q73.5 83 102.5 229q12 62 12 113q0 95 -42.5 147.5t-127.5 52.5q-107 0 -180.5 -83.5t-103.5 -229.5q-12 -61 -12 -113q0 -95 42.5 -147t126.5 -52q109 0 182.5 83z" />
    <glyph glyph-name="Ocircumflex" unicode="&#xd4;" horiz-adv-x="741" 
d="M339 804l154 140h60l98 -140l-24 -23l-93 89q-15 13 -23 13q-12 0 -30 -13l-127 -89zM123 55q-69 65 -69 186q0 51 12 109q34 170 139.5 265t270.5 95q137 0 206.5 -66t69.5 -187q0 -50 -12 -107q-35 -171 -140 -265.5t-271 -94.5q-137 0 -206 65zM521.5 121
q73.5 83 102.5 229q12 62 12 113q0 95 -42.5 147.5t-127.5 52.5q-107 0 -180.5 -83.5t-103.5 -229.5q-12 -61 -12 -113q0 -95 42.5 -147t126.5 -52q109 0 182.5 83z" />
    <glyph glyph-name="Otilde" unicode="&#xd5;" horiz-adv-x="741" 
d="M317 791q19 43 51 72.5t72 29.5q17 0 32.5 -6.5t40.5 -19.5t40 -19t31 -6q23 0 40 14.5t36 46.5l21 -13q-21 -45 -52.5 -75t-72.5 -30q-17 0 -32 6.5t-39 19.5q-21 13 -37.5 19.5t-33.5 6.5q-24 0 -41.5 -14t-35.5 -45zM123 55q-69 65 -69 186q0 51 12 109
q34 170 139.5 265t270.5 95q137 0 206.5 -66t69.5 -187q0 -50 -12 -107q-35 -171 -140 -265.5t-271 -94.5q-137 0 -206 65zM521.5 121q73.5 83 102.5 229q12 62 12 113q0 95 -42.5 147.5t-127.5 52.5q-107 0 -180.5 -83.5t-103.5 -229.5q-12 -61 -12 -113q0 -95 42.5 -147
t126.5 -52q109 0 182.5 83z" />
    <glyph glyph-name="Odieresis" unicode="&#xd6;" horiz-adv-x="741" 
d="M353.5 790.5q-10.5 10.5 -10.5 28.5q0 28 17.5 47t43.5 19q20 0 30.5 -11t10.5 -29q0 -27 -18 -46t-45 -19q-18 0 -28.5 10.5zM565.5 790.5q-10.5 10.5 -10.5 28.5q0 8 1 13q5 24 22 38.5t40 14.5q19 0 29.5 -11t10.5 -29q0 -27 -18 -46t-44 -19q-20 0 -30.5 10.5z
M123 55q-69 65 -69 186q0 51 12 109q34 170 139.5 265t270.5 95q137 0 206.5 -66t69.5 -187q0 -50 -12 -107q-35 -171 -140 -265.5t-271 -94.5q-137 0 -206 65zM521.5 121q73.5 83 102.5 229q12 62 12 113q0 95 -42.5 147.5t-127.5 52.5q-107 0 -180.5 -83.5t-103.5 -229.5
q-12 -61 -12 -113q0 -95 42.5 -147t126.5 -52q109 0 182.5 83z" />
    <glyph glyph-name="multiply" unicode="&#xd7;" horiz-adv-x="566" 
d="M57 157l195 168l-127 168l67 58l130 -173l200 173l42 -58l-195 -168l127 -168l-66 -58l-130 174l-200 -174z" />
    <glyph glyph-name="Oslash" unicode="&#xd8;" horiz-adv-x="741" 
d="M695 631q57 -63 57 -174q0 -50 -12 -107q-35 -171 -140 -265.5t-271 -94.5q-133 0 -204 63l-77 -78l-34 29l82 83q-42 60 -42 154q0 51 12 109q34 170 139.5 265t270.5 95q118 0 185 -49l64 65l34 -30zM176 169l425 431q-43 63 -135 63q-107 0 -180.5 -83.5
t-103.5 -229.5q-12 -61 -12 -113q0 -36 6 -68zM622 557l-430 -436q41 -83 147 -83q109 0 182.5 83t102.5 229q12 62 12 113q0 52 -14 94z" />
    <glyph glyph-name="Ugrave" unicode="&#xd9;" horiz-adv-x="730" 
d="M456 867q-14 10 -20.5 19t-6.5 21q0 7 1 10q3 14 14.5 24t29.5 10q25 0 44 -28l90 -113l-27 -30zM155.5 28q-59.5 38 -59.5 121q0 29 7 60l86 423q1 3 1 8q0 29 -45 29h-23l6 31h266l-6 -31h-24q-24 0 -40 -9.5t-20 -27.5l-88 -432q-5 -22 -5 -48q0 -63 41.5 -89
t112.5 -26q76 0 135.5 37.5t77.5 125.5l88 432q1 3 1 8q0 29 -45 29h-23l6 31h204l-5 -31h-24q-24 0 -40 -9.5t-20 -27.5l-86 -423q-46 -219 -306 -219q-113 0 -172.5 38z" />
    <glyph glyph-name="Uacute" unicode="&#xda;" horiz-adv-x="730" 
d="M409 810l136 114q15 12 27.5 19.5t27.5 7.5q16 0 23.5 -7.5t7.5 -19.5q0 -17 -12 -31t-36 -26l-161 -87zM155.5 28q-59.5 38 -59.5 121q0 29 7 60l86 423q1 3 1 8q0 29 -45 29h-23l6 31h266l-6 -31h-24q-24 0 -40 -9.5t-20 -27.5l-88 -432q-5 -22 -5 -48q0 -63 41.5 -89
t112.5 -26q76 0 135.5 37.5t77.5 125.5l88 432q1 3 1 8q0 29 -45 29h-23l6 31h204l-5 -31h-24q-24 0 -40 -9.5t-20 -27.5l-86 -423q-46 -219 -306 -219q-113 0 -172.5 38z" />
    <glyph glyph-name="Ucircumflex" unicode="&#xdb;" horiz-adv-x="730" 
d="M349 804l155 140h60l97 -140l-24 -23l-93 89q-13 13 -23 13q-11 0 -29 -13l-127 -89zM155.5 28q-59.5 38 -59.5 121q0 29 7 60l86 423q1 3 1 8q0 29 -45 29h-23l6 31h266l-6 -31h-24q-24 0 -40 -9.5t-20 -27.5l-88 -432q-5 -22 -5 -48q0 -63 41.5 -89t112.5 -26
q76 0 135.5 37.5t77.5 125.5l88 432q1 3 1 8q0 29 -45 29h-23l6 31h204l-5 -31h-24q-24 0 -40 -9.5t-20 -27.5l-86 -423q-46 -219 -306 -219q-113 0 -172.5 38z" />
    <glyph glyph-name="Udieresis" unicode="&#xdc;" horiz-adv-x="730" 
d="M363.5 790.5q-10.5 10.5 -10.5 28.5q0 9 1 13q5 24 21.5 38.5t39.5 14.5q19 0 30 -10.5t11 -28.5q0 -28 -18 -47t-45 -19q-19 0 -29.5 10.5zM576 791q-11 11 -11 30q0 7 1 11q5 24 22 38.5t41 14.5q19 0 29.5 -10t10.5 -28q0 -28 -18 -47.5t-44 -19.5q-20 0 -31 11z
M155.5 28q-59.5 38 -59.5 121q0 29 7 60l86 423q1 3 1 8q0 29 -45 29h-23l6 31h266l-6 -31h-24q-24 0 -40 -9.5t-20 -27.5l-88 -432q-5 -22 -5 -48q0 -63 41.5 -89t112.5 -26q76 0 135.5 37.5t77.5 125.5l88 432q1 3 1 8q0 29 -45 29h-23l6 31h204l-5 -31h-24
q-24 0 -40 -9.5t-20 -27.5l-86 -423q-46 -219 -306 -219q-113 0 -172.5 38z" />
    <glyph glyph-name="Yacute" unicode="&#xdd;" horiz-adv-x="677" 
d="M396 824l136 114q30 27 55 27q15 0 22.5 -8t7.5 -19q0 -17 -12 -31t-36 -26l-160 -87zM157 31h28q29 0 44.5 8.5t19.5 27.5l45 224l-119 343q-5 16 -19 25.5t-30 9.5h-18l5 31h256l-6 -31h-26q-22 0 -35.5 -11.5t-8.5 -25.5l91 -288l219 284q9 12 9 21q0 10 -9 15t-25 5
h-30l6 31h217l-6 -31h-21q-18 0 -36 -10t-31 -27l-268 -342l-45 -223q-1 -3 -1 -9q0 -27 48 -27h29l-6 -31h-282z" />
    <glyph glyph-name="Thorn" unicode="&#xde;" horiz-adv-x="592" 
d="M-13 31h27q29 0 44.5 8.5t19.5 27.5l115 565q1 3 1 8q0 29 -49 29h-28l6 31h199l-22 -110h143q176 0 176 -146q0 -34 -7 -68q-20 -101 -81.5 -157.5t-175.5 -56.5h-143l-19 -95q-1 -3 -1 -9q0 -27 48 -27h29l-6 -31h-282zM341 208q64 0 102.5 44t54.5 124q8 38 8 66
q0 102 -97 102h-119l-68 -336h119z" />
    <glyph glyph-name="germandbls" unicode="&#xdf;" horiz-adv-x="703" 
d="M495.5 312.5q21.5 -16.5 67.5 -37.5q36 -16 57.5 -29.5t37 -35t15.5 -52.5q0 -14 -3 -29q-13 -65 -66.5 -102t-130.5 -37q-90 0 -138.5 28.5t-48.5 71.5q0 24 14 39t33 15q15 0 24.5 -9t5.5 -23q-1 -5 -5 -12t-5 -12q-2 -12 7 -24.5t29.5 -21t52.5 -8.5q49 0 78 20.5
t36 55.5q1 4 1 11q0 23 -19 37.5t-61 32.5q-37 16 -61 30.5t-40.5 38.5t-16.5 60q0 19 4 36q11 56 58.5 88t108.5 41q8 44 8 73q0 118 -112 118q-46 0 -81.5 -27.5t-46.5 -82.5l-145 -710l-113 -7l118 577h-66l9 44h66l15 74q12 57 50 97.5t90.5 60.5t108.5 20
q117 0 161.5 -52.5t44.5 -125.5q0 -33 -6 -61l-7 -34q-70 0 -110 -24t-40 -67q0 -29 21.5 -45.5z" />
    <glyph glyph-name="agrave" unicode="&#xe0;" horiz-adv-x="568" 
d="M313 635q-14 10 -20.5 19t-6.5 21q0 7 1 10q3 14 14.5 24t29.5 10q25 0 44 -28l90 -113l-27 -30zM67.5 29.5q-31.5 39.5 -31.5 105.5q0 31 8 71q26 125 97 199.5t170 74.5q39 0 74 -9.5t49 -32.5l6 32h110l-82 -407q-2 -12 -2 -15q0 -17 18 -17q8 0 38 8l-5 -21
q-18 -13 -46.5 -20.5t-53.5 -7.5q-29 0 -47 10t-18 33q0 8 1 12l19 90q-55 -70 -110.5 -107.5t-98.5 -37.5q-64 0 -95.5 39.5zM272.5 78q36.5 32 70 74.5t47.5 71.5l30 144q-6 34 -26.5 48t-53.5 14q-31 0 -69 -22t-71.5 -72t-49.5 -128q-5 -28 -5 -47q0 -50 20 -82.5
t46 -32.5q25 0 61.5 32z" />
    <glyph glyph-name="aacute" unicode="&#xe1;" horiz-adv-x="568" 
d="M286 578l136 114q15 12 27.5 19.5t27.5 7.5q16 0 23.5 -7.5t7.5 -19.5q0 -17 -12 -31t-36 -26l-160 -87zM67.5 29.5q-31.5 39.5 -31.5 105.5q0 31 8 71q26 125 97 199.5t170 74.5q39 0 74 -9.5t49 -32.5l6 32h110l-82 -407q-2 -12 -2 -15q0 -17 18 -17q8 0 38 8l-5 -21
q-18 -13 -46.5 -20.5t-53.5 -7.5q-29 0 -47 10t-18 33q0 8 1 12l19 90q-55 -70 -110.5 -107.5t-98.5 -37.5q-64 0 -95.5 39.5zM272.5 78q36.5 32 70 74.5t47.5 71.5l30 144q-6 34 -26.5 48t-53.5 14q-31 0 -69 -22t-71.5 -72t-49.5 -128q-5 -28 -5 -47q0 -50 20 -82.5
t46 -32.5q25 0 61.5 32z" />
    <glyph glyph-name="acircumflex" unicode="&#xe2;" horiz-adv-x="568" 
d="M209 572l155 140h59l98 -140l-24 -23l-93 89q-15 13 -23 13q-10 0 -30 -13l-126 -89zM67.5 29.5q-31.5 39.5 -31.5 105.5q0 31 8 71q26 125 97 199.5t170 74.5q39 0 74 -9.5t49 -32.5l6 32h110l-82 -407q-2 -12 -2 -15q0 -17 18 -17q8 0 38 8l-5 -21q-18 -13 -46.5 -20.5
t-53.5 -7.5q-29 0 -47 10t-18 33q0 8 1 12l19 90q-55 -70 -110.5 -107.5t-98.5 -37.5q-64 0 -95.5 39.5zM272.5 78q36.5 32 70 74.5t47.5 71.5l30 144q-6 34 -26.5 48t-53.5 14q-31 0 -69 -22t-71.5 -72t-49.5 -128q-5 -28 -5 -47q0 -50 20 -82.5t46 -32.5q25 0 61.5 32z
" />
    <glyph glyph-name="atilde" unicode="&#xe3;" horiz-adv-x="568" 
d="M198 559q19 43 51 72.5t72 29.5q17 0 32 -6t40 -19q22 -13 38.5 -19.5t33.5 -6.5q23 0 40 14.5t36 46.5l21 -13q-21 -45 -52.5 -75t-72.5 -30q-17 0 -32 6.5t-39 19.5q-21 13 -37.5 19.5t-33.5 6.5q-24 0 -41.5 -14t-35.5 -45zM67.5 29.5q-31.5 39.5 -31.5 105.5
q0 31 8 71q26 125 97 199.5t170 74.5q39 0 74 -9.5t49 -32.5l6 32h110l-82 -407q-2 -12 -2 -15q0 -17 18 -17q8 0 38 8l-5 -21q-18 -13 -46.5 -20.5t-53.5 -7.5q-29 0 -47 10t-18 33q0 8 1 12l19 90q-55 -70 -110.5 -107.5t-98.5 -37.5q-64 0 -95.5 39.5zM272.5 78
q36.5 32 70 74.5t47.5 71.5l30 144q-6 34 -26.5 48t-53.5 14q-31 0 -69 -22t-71.5 -72t-49.5 -128q-5 -28 -5 -47q0 -50 20 -82.5t46 -32.5q25 0 61.5 32z" />
    <glyph glyph-name="adieresis" unicode="&#xe4;" horiz-adv-x="568" 
d="M220.5 558.5q-10.5 10.5 -10.5 28.5q0 9 1 13q5 24 21.5 38.5t39.5 14.5q19 0 30 -10.5t11 -28.5q0 -28 -18 -47t-45 -19q-19 0 -29.5 10.5zM433 559q-11 11 -11 30q0 7 1 11q5 24 22 38.5t41 14.5q19 0 29.5 -10.5t10.5 -28.5q0 -28 -18 -47t-44 -19q-20 0 -31 11z
M67.5 29.5q-31.5 39.5 -31.5 105.5q0 31 8 71q26 125 97 199.5t170 74.5q39 0 74 -9.5t49 -32.5l6 32h110l-82 -407q-2 -12 -2 -15q0 -17 18 -17q8 0 38 8l-5 -21q-18 -13 -46.5 -20.5t-53.5 -7.5q-29 0 -47 10t-18 33q0 8 1 12l19 90q-55 -70 -110.5 -107.5t-98.5 -37.5
q-64 0 -95.5 39.5zM272.5 78q36.5 32 70 74.5t47.5 71.5l30 144q-6 34 -26.5 48t-53.5 14q-31 0 -69 -22t-71.5 -72t-49.5 -128q-5 -28 -5 -47q0 -50 20 -82.5t46 -32.5q25 0 61.5 32z" />
    <glyph glyph-name="aring" unicode="&#xe5;" horiz-adv-x="568" 
d="M309 558.5q-21 19.5 -21 52.5q0 6 2 22q9 42 41 68t74 26q37 0 58 -19.5t21 -51.5q0 -50 -34.5 -83.5t-82.5 -33.5q-37 0 -58 19.5zM414.5 594.5q17.5 14.5 22.5 38.5q1 5 1 13q0 18 -11.5 29t-29.5 11q-22 0 -39.5 -14.5t-22.5 -38.5q-1 -5 -1 -13q0 -18 11.5 -29
t29.5 -11q22 0 39.5 14.5zM67.5 29.5q-31.5 39.5 -31.5 105.5q0 31 8 71q26 125 97 199.5t170 74.5q39 0 74 -9.5t49 -32.5l6 32h110l-82 -407q-2 -12 -2 -15q0 -17 18 -17q8 0 38 8l-5 -21q-18 -13 -46.5 -20.5t-53.5 -7.5q-29 0 -47 10t-18 33q0 8 1 12l19 90
q-55 -70 -110.5 -107.5t-98.5 -37.5q-64 0 -95.5 39.5zM272.5 78q36.5 32 70 74.5t47.5 71.5l30 144q-6 34 -26.5 48t-53.5 14q-31 0 -69 -22t-71.5 -72t-49.5 -128q-5 -28 -5 -47q0 -50 20 -82.5t46 -32.5q25 0 61.5 32z" />
    <glyph glyph-name="ae" unicode="&#xe6;" horiz-adv-x="792" 
d="M34.5 11.5q-31.5 21.5 -31.5 60.5q0 12 3 24q14 72 94.5 118.5t230.5 69.5q13 35 28 60q1 5 1 15q0 37 -25 56t-66 19q-36 0 -68.5 -14.5t-35.5 -30.5q-1 -4 -1 -15t-1 -16q-4 -16 -16 -27.5t-34 -11.5q-15 0 -24.5 9.5t-9.5 27.5q0 58 64.5 91t157.5 33q97 0 134 -53
q73 53 175 53q98 0 143.5 -30t45.5 -82q0 -13 -3 -28q-20 -93 -130 -133.5t-244 -45.5q2 -61 33 -95.5t84 -34.5q63 0 110 33.5t74 103.5h32q-24 -79 -86 -128.5t-154 -49.5q-135 0 -183 80q-44 -40 -97 -60t-108 -20q-61 0 -92.5 21.5zM621.5 247.5q81.5 37.5 81.5 114.5
q0 74 -94 75q-70 0 -116 -59t-64 -144q-4 -24 -5 -35q116 11 197.5 48.5zM253 55.5q40 19.5 66 44.5q-10 33 -10 66q0 29 8 69l2 9q-98 -26 -151 -68t-53 -89q0 -25 16.5 -38t46.5 -13q35 0 75 19.5z" />
    <glyph glyph-name="ccedilla" unicode="&#xe7;" horiz-adv-x="507" 
d="M459 452.5q43 -27.5 43 -74.5q0 -13 -3 -25q-3 -15 -16 -28.5t-29 -13.5t-24 8.5t-8 20.5q0 9 7 21q6 14 6 21q0 20 -23 37.5t-65 17.5q-78 0 -129.5 -56t-70.5 -147q-7 -34 -7 -66q0 -63 29 -100t84 -37q130 0 183 137h32q-23 -78 -82 -127t-149 -51l-35 -48
q31 0 58.5 -15t27.5 -47q0 -4 -2 -16q-11 -55 -57 -75t-104 -20q-22 0 -49 5l11 31q16 -2 21 -2q94 0 105 57q5 24 -22 34.5t-52 10.5l-6 11l57 76q-79 8 -121 52.5t-42 120.5q0 30 8 70q23 112 101 178.5t193 66.5q87 0 130 -27.5z" />
    <glyph glyph-name="egrave" unicode="&#xe8;" horiz-adv-x="510" 
d="M275.5 654q-6.5 9 -6.5 21q0 7 1 10q3 14 14.5 24t29.5 10q15 0 25 -8t19 -20l89 -113l-27 -30l-124 87q-14 10 -20.5 19zM385 207q-110 -40 -245 -46q2 -60 32.5 -95t83.5 -35q63 0 110.5 33.5t74.5 103.5h31q-23 -79 -85 -128.5t-155 -49.5q-99 0 -151.5 45t-52.5 131
q0 34 7 69q23 114 101 179.5t191 65.5q98 0 144 -30t46 -82q0 -13 -3 -28q-19 -93 -129 -133zM339 247.5q82 37.5 82 114.5q0 74 -95 75q-70 0 -115.5 -59t-63.5 -144q-3 -11 -4 -20t-2 -15q116 11 198 48.5z" />
    <glyph glyph-name="eacute" unicode="&#xe9;" horiz-adv-x="510" 
d="M276 548l-13 30l136 114q15 12 27.5 19.5t27.5 7.5q16 0 23.5 -7.5t7.5 -19.5q0 -17 -12 -31t-36 -26zM385 207q-110 -40 -245 -46q2 -60 32.5 -95t83.5 -35q63 0 110.5 33.5t74.5 103.5h31q-23 -79 -85 -128.5t-155 -49.5q-99 0 -151.5 45t-52.5 131q0 34 7 69
q23 114 101 179.5t191 65.5q98 0 144 -30t46 -82q0 -13 -3 -28q-19 -93 -129 -133zM339 247.5q82 37.5 82 114.5q0 74 -95 75q-70 0 -115.5 -59t-63.5 -144q-3 -11 -4 -20t-2 -15q116 11 198 48.5z" />
    <glyph glyph-name="ecircumflex" unicode="&#xea;" horiz-adv-x="510" 
d="M204 549l-15 23l155 140h59l98 -140l-24 -23l-93 89q-15 13 -23 13q-11 0 -30 -13zM385 207q-110 -40 -245 -46q2 -60 32.5 -95t83.5 -35q63 0 110.5 33.5t74.5 103.5h31q-23 -79 -85 -128.5t-155 -49.5q-99 0 -151.5 45t-52.5 131q0 34 7 69q23 114 101 179.5t191 65.5
q98 0 144 -30t46 -82q0 -13 -3 -28q-19 -93 -129 -133zM339 247.5q82 37.5 82 114.5q0 74 -95 75q-70 0 -115.5 -59t-63.5 -144q-3 -11 -4 -20t-2 -15q116 11 198 48.5z" />
    <glyph glyph-name="edieresis" unicode="&#xeb;" horiz-adv-x="510" 
d="M204.5 558.5q-10.5 10.5 -10.5 28.5q0 9 1 13q5 24 21.5 38.5t38.5 14.5q20 0 30.5 -11t10.5 -29q0 -27 -18 -46t-45 -19q-18 0 -28.5 10.5zM417 558.5q-11 10.5 -11 28.5q0 9 1 13q5 24 22 38.5t40 14.5q19 0 30 -10.5t11 -28.5q0 -28 -18 -47t-45 -19q-19 0 -30 10.5z
M385 207q-110 -40 -245 -46q2 -60 32.5 -95t83.5 -35q63 0 110.5 33.5t74.5 103.5h31q-23 -79 -85 -128.5t-155 -49.5q-99 0 -151.5 45t-52.5 131q0 34 7 69q23 114 101 179.5t191 65.5q98 0 144 -30t46 -82q0 -13 -3 -28q-19 -93 -129 -133zM339 247.5q82 37.5 82 114.5
q0 74 -95 75q-70 0 -115.5 -59t-63.5 -144q-3 -11 -4 -20t-2 -15q116 11 198 48.5z" />
    <glyph glyph-name="igrave" unicode="&#xec;" horiz-adv-x="316" 
d="M185 635q-14 10 -20.5 19.5t-6.5 21.5l1 9q3 14 15 24t30 10q15 0 25 -8t19 -20l89 -113l-27 -30zM84 1q-20 11 -20 34q0 7 1 11l69 337q1 3 1 8q0 9 -5.5 13t-13.5 4q-5 0 -13.5 -3t-13.5 -4l-3 26l155 49h23l-84 -412q-2 -12 -2 -15q0 -17 18 -17q8 0 38 8l-4 -21
q-19 -14 -46 -21.5t-52 -7.5q-28 0 -48 11z" />
    <glyph glyph-name="iacute" unicode="&#xed;" horiz-adv-x="316" 
d="M137 578l137 114q30 27 54 27q16 0 23.5 -7.5t7.5 -19.5q0 -17 -12 -31t-36 -26l-160 -87zM84 1q-20 11 -20 34q0 7 1 11l69 337q1 3 1 8q0 9 -5.5 13t-13.5 4q-5 0 -13.5 -3t-13.5 -4l-3 26l155 49h23l-84 -412q-2 -12 -2 -15q0 -17 18 -17q8 0 38 8l-4 -21
q-19 -14 -46 -21.5t-52 -7.5q-28 0 -48 11z" />
    <glyph glyph-name="icircumflex" unicode="&#xee;" horiz-adv-x="316" 
d="M79 572l154 140h60l98 -140l-24 -23l-93 89q-15 13 -23 13q-12 0 -30 -13l-127 -89zM84 1q-20 11 -20 34q0 7 1 11l69 337q1 3 1 8q0 9 -5.5 13t-13.5 4q-5 0 -13.5 -3t-13.5 -4l-3 26l155 49h23l-84 -412q-2 -12 -2 -15q0 -17 18 -17q8 0 38 8l-4 -21q-19 -14 -46 -21.5
t-52 -7.5q-28 0 -48 11z" />
    <glyph glyph-name="idieresis" unicode="&#xef;" horiz-adv-x="316" 
d="M93.5 558.5q-10.5 10.5 -10.5 28.5q0 28 17.5 47t43.5 19q20 0 30.5 -10t10.5 -28q0 -29 -17.5 -48t-45.5 -19q-18 0 -28.5 10.5zM305.5 558.5q-10.5 10.5 -10.5 28.5q0 28 18 47t45 19q19 0 29.5 -10t10.5 -28q0 -28 -17.5 -47.5t-44.5 -19.5q-20 0 -30.5 10.5zM84 1
q-20 11 -20 34q0 7 1 11l69 337q1 3 1 8q0 9 -5.5 13t-13.5 4q-5 0 -13.5 -3t-13.5 -4l-3 26l155 49h23l-84 -412q-2 -12 -2 -15q0 -17 18 -17q8 0 38 8l-4 -21q-19 -14 -46 -21.5t-52 -7.5q-28 0 -48 11z" />
    <glyph glyph-name="eth" unicode="&#xf0;" horiz-adv-x="575" 
d="M455 662q54 -62 82.5 -138t28.5 -154q0 -36 -8 -78q-30 -143 -111 -222.5t-212 -79.5q-96 0 -145.5 53.5t-49.5 138.5q0 35 7 66q13 63 51 121t101 95.5t147 37.5q36 0 68.5 -14t50.5 -42q-7 47 -26 94t-50 87l-179 -94l-7 54l151 81q-37 39 -90 66l40 42q64 -30 112 -74
l145 79l23 -51zM447 319q0 60 -28.5 99t-77.5 39q-41 0 -78.5 -26.5t-65 -74.5t-39.5 -108q-8 -42 -8 -75q0 -62 24.5 -100.5t72.5 -38.5q69 0 122 67.5t73 168.5q5 28 5 49z" />
    <glyph glyph-name="ntilde" unicode="&#xf1;" horiz-adv-x="624" 
d="M274.5 591q-17.5 -14 -35.5 -45l-20 13q19 43 51 72.5t72 29.5q17 0 32.5 -6.5t40.5 -19.5t40 -19t31 -6q24 0 41 14.5t36 46.5l20 -13q-21 -45 -52.5 -75t-72.5 -30q-17 0 -32 6.5t-39 19.5q-21 13 -37.5 19.5t-33.5 6.5q-24 0 -41.5 -14zM534.5 453.5
q33.5 -26.5 33.5 -74.5q0 -19 -4 -36l-57 -279q-1 -5 -1 -12q0 -20 20 -20q13 0 36 7l-4 -20q-19 -14 -46 -22t-52 -8q-28 0 -48 11t-20 34q0 8 1 12l58 288q4 17 4 35q0 64 -71 64q-32 0 -66.5 -25t-63 -67t-41.5 -91l-50 -250l-113 -10l81 392l1 6q0 18 -20 18
q-7 0 -28 -7l-1 26l149 50h27l-23 -116q32 51 85.5 86t107.5 35q72 0 105.5 -26.5z" />
    <glyph glyph-name="ograve" unicode="&#xf2;" horiz-adv-x="560" 
d="M307 635q-14 10 -20.5 19t-6.5 21q0 7 1 10q3 14 14.5 24t29.5 10q23 0 45 -28l89 -113l-27 -30zM82 35.5q-54 45.5 -54 132.5q0 33 7 67q24 117 103.5 181t201.5 64q102 0 156 -45.5t54 -130.5q0 -29 -8 -69q-23 -118 -102.5 -181.5t-200.5 -63.5q-103 0 -157 45.5z
M364 86.5q49 52.5 68 148.5q8 42 8 72q0 62 -29 95t-81 33q-67 0 -116 -52t-69 -148q-8 -42 -8 -71q0 -63 29 -96.5t83 -33.5q66 0 115 52.5z" />
    <glyph glyph-name="oacute" unicode="&#xf3;" horiz-adv-x="560" 
d="M259 578l137 114q30 27 54 27q16 0 23.5 -7.5t7.5 -19.5q0 -17 -12 -31t-36 -26l-160 -87zM82 35.5q-54 45.5 -54 132.5q0 33 7 67q24 117 103.5 181t201.5 64q102 0 156 -45.5t54 -130.5q0 -29 -8 -69q-23 -118 -102.5 -181.5t-200.5 -63.5q-103 0 -157 45.5zM364 86.5
q49 52.5 68 148.5q8 42 8 72q0 62 -29 95t-81 33q-67 0 -116 -52t-69 -148q-8 -42 -8 -71q0 -63 29 -96.5t83 -33.5q66 0 115 52.5z" />
    <glyph glyph-name="ocircumflex" unicode="&#xf4;" horiz-adv-x="560" 
d="M201 572l154 140h60l98 -140l-24 -23l-93 89q-15 13 -24 13q-11 0 -29 -13l-127 -89zM82 35.5q-54 45.5 -54 132.5q0 33 7 67q24 117 103.5 181t201.5 64q102 0 156 -45.5t54 -130.5q0 -29 -8 -69q-23 -118 -102.5 -181.5t-200.5 -63.5q-103 0 -157 45.5zM364 86.5
q49 52.5 68 148.5q8 42 8 72q0 62 -29 95t-81 33q-67 0 -116 -52t-69 -148q-8 -42 -8 -71q0 -63 29 -96.5t83 -33.5q66 0 115 52.5z" />
    <glyph glyph-name="otilde" unicode="&#xf5;" horiz-adv-x="560" 
d="M182 559q19 42 51 72t72 30q17 0 32.5 -6.5t40.5 -19.5t40 -19t31 -6q24 0 41 14.5t36 46.5l20 -13q-50 -105 -125 -105q-17 0 -33 6.5t-37 19.5q-23 13 -39 19.5t-33 6.5q-23 0 -40.5 -14t-35.5 -45zM82 35.5q-54 45.5 -54 132.5q0 33 7 67q24 117 103.5 181t201.5 64
q102 0 156 -45.5t54 -130.5q0 -29 -8 -69q-23 -118 -102.5 -181.5t-200.5 -63.5q-103 0 -157 45.5zM364 86.5q49 52.5 68 148.5q8 42 8 72q0 62 -29 95t-81 33q-67 0 -116 -52t-69 -148q-8 -42 -8 -71q0 -63 29 -96.5t83 -33.5q66 0 115 52.5z" />
    <glyph glyph-name="odieresis" unicode="&#xf6;" horiz-adv-x="560" 
d="M214.5 559q-10.5 11 -10.5 29q0 8 1 12q5 24 21.5 38.5t39.5 14.5q20 0 30.5 -10t10.5 -28q0 -29 -17.5 -48t-45.5 -19q-19 0 -29.5 11zM427.5 558.5q-10.5 10.5 -10.5 28.5q0 28 18 47t45 19q19 0 29.5 -10t10.5 -28q0 -28 -17.5 -47.5t-44.5 -19.5q-20 0 -30.5 10.5z
M82 35.5q-54 45.5 -54 132.5q0 33 7 67q24 117 103.5 181t201.5 64q102 0 156 -45.5t54 -130.5q0 -29 -8 -69q-23 -118 -102.5 -181.5t-200.5 -63.5q-103 0 -157 45.5zM364 86.5q49 52.5 68 148.5q8 42 8 72q0 62 -29 95t-81 33q-67 0 -116 -52t-69 -148q-8 -42 -8 -71
q0 -63 29 -96.5t83 -33.5q66 0 115 52.5z" />
    <glyph glyph-name="divide" unicode="&#xf7;" horiz-adv-x="566" 
d="M291 444q-13 13 -13 35q0 9 1 14q6 28 26.5 45.5t47.5 17.5q23 0 36 -12.5t13 -33.5q0 -34 -21 -56.5t-54 -22.5q-23 0 -36 13zM81 357h471l-12 -61h-472zM222 110q-13 13 -13 35q0 32 22 54.5t53 22.5q24 0 37 -13t13 -34q0 -5 -2 -15q-6 -28 -26 -45.5t-48 -17.5
q-23 0 -36 13z" />
    <glyph glyph-name="oslash" unicode="&#xf8;" horiz-adv-x="560" 
d="M550 304q0 -29 -8 -69q-23 -118 -102.5 -181.5t-200.5 -63.5q-84 0 -135 30l-53 -54l-31 30l50 51q-42 45 -42 121q0 33 7 67q24 117 103.5 181t201.5 64q77 0 124 -25l60 62l34 -31l-56 -57q48 -45 48 -125zM141 121l271 280q-28 34 -82 34q-67 0 -116 -52t-69 -148
q-8 -42 -8 -71q0 -26 4 -43zM440 307q0 29 -6 51l-275 -281q29 -43 90 -43q66 0 115 52.5t68 148.5q8 42 8 72z" />
    <glyph glyph-name="ugrave" unicode="&#xf9;" horiz-adv-x="603" 
d="M297 675q0 6 1 10q2 14 14 24t30 10q15 0 25 -8t19 -20l89 -113l-27 -30l-124 87q-27 17 -27 40zM508 32q8 0 38 8l-4 -21q-19 -14 -45 -21.5t-51 -7.5q-29 0 -47 16t-18 46q0 7 2 21q-28 -36 -77.5 -59.5t-102.5 -23.5q-72 0 -108.5 28t-36.5 77q0 15 3 31l53 256
q1 3 1 8q0 16 -18 16q-8 0 -29 -7l-1 26l149 50h27l-68 -336q-4 -16 -4 -33q0 -35 19.5 -52t56.5 -17q30 0 63 17t60 51.5t37 84.5l39 192q1 3 1 8q0 16 -18 16q-8 0 -29 -7l-1 26l149 50h27l-83 -411q-2 -12 -2 -15q0 -17 18 -17z" />
    <glyph glyph-name="uacute" unicode="&#xfa;" horiz-adv-x="603" 
d="M314 548l-14 30l137 114q30 27 55 27q15 0 22.5 -8t7.5 -19q0 -17 -12 -31t-36 -26zM508 32q8 0 38 8l-4 -21q-19 -14 -45 -21.5t-51 -7.5q-29 0 -47 16t-18 46q0 7 2 21q-28 -36 -77.5 -59.5t-102.5 -23.5q-72 0 -108.5 28t-36.5 77q0 15 3 31l53 256q1 3 1 8
q0 16 -18 16q-8 0 -29 -7l-1 26l149 50h27l-68 -336q-4 -16 -4 -33q0 -35 19.5 -52t56.5 -17q30 0 63 17t60 51.5t37 84.5l39 192q1 3 1 8q0 16 -18 16q-8 0 -29 -7l-1 26l149 50h27l-83 -411q-2 -12 -2 -15q0 -17 18 -17z" />
    <glyph glyph-name="ucircumflex" unicode="&#xfb;" horiz-adv-x="603" 
d="M232 549l-15 23l155 140h59l98 -140l-24 -23l-93 89q-15 13 -23 13q-10 0 -30 -13zM508 32q8 0 38 8l-4 -21q-19 -14 -45 -21.5t-51 -7.5q-29 0 -47 16t-18 46q0 7 2 21q-28 -36 -77.5 -59.5t-102.5 -23.5q-72 0 -108.5 28t-36.5 77q0 15 3 31l53 256q1 3 1 8
q0 16 -18 16q-8 0 -29 -7l-1 26l149 50h27l-68 -336q-4 -16 -4 -33q0 -35 19.5 -52t56.5 -17q30 0 63 17t60 51.5t37 84.5l39 192q1 3 1 8q0 16 -18 16q-8 0 -29 -7l-1 26l149 50h27l-83 -411q-2 -12 -2 -15q0 -17 18 -17z" />
    <glyph glyph-name="udieresis" unicode="&#xfc;" horiz-adv-x="603" 
d="M231.5 558.5q-10.5 10.5 -10.5 28.5q0 28 17.5 47t43.5 19q20 0 30.5 -11t10.5 -29q0 -27 -18 -46t-45 -19q-18 0 -28.5 10.5zM444 558.5q-11 10.5 -11 28.5q0 9 1 13q5 24 22 38.5t40 14.5q19 0 29.5 -11t10.5 -29q0 -27 -18 -46t-44 -19q-19 0 -30 10.5zM508 32
q8 0 38 8l-4 -21q-19 -14 -45 -21.5t-51 -7.5q-29 0 -47 16t-18 46q0 7 2 21q-28 -36 -77.5 -59.5t-102.5 -23.5q-72 0 -108.5 28t-36.5 77q0 15 3 31l53 256q1 3 1 8q0 16 -18 16q-8 0 -29 -7l-1 26l149 50h27l-68 -336q-4 -16 -4 -33q0 -35 19.5 -52t56.5 -17q30 0 63 17
t60 51.5t37 84.5l39 192q1 3 1 8q0 16 -18 16q-8 0 -29 -7l-1 26l149 50h27l-83 -411q-2 -12 -2 -15q0 -17 18 -17z" />
    <glyph glyph-name="yacute" unicode="&#xfd;" horiz-adv-x="559" 
d="M298 548l-14 30l136 114q15 12 27.5 19.5t27.5 7.5q16 0 23.5 -7.5t7.5 -19.5q0 -17 -12 -31t-36 -26zM566.5 462q17.5 -18 17.5 -50q0 -15 -2 -24q-5 -22 -25.5 -52t-54.5 -74l-346 -429q-33 -41 -73.5 -67t-75.5 -26q-27 0 -42 10.5t-15 29.5q0 4 2 14q3 16 15.5 29
t28.5 13q14 0 20 -6.5t10 -18.5q1 -1 3 -6.5t5 -7.5t7 -2q14 0 39 22t47 51l107 136l-104 400q-1 7 -15 7q-10 0 -24.5 -6t-18.5 -7l-3 26l104 46h64l68 -375l80 102q27 33 52 80t32 85q4 17 4 34q0 41 -24 63q14 9 36 15t40 6q24 0 41.5 -18z" />
    <glyph glyph-name="thorn" unicode="&#xfe;" horiz-adv-x="588" 
d="M177 604l1 6q0 18 -20 18q-8 0 -27 -7l-2 26l150 50h27l-68 -331q32 48 80.5 81t101.5 33q78 0 120 -40.5t42 -118.5q0 -38 -8 -74q-28 -136 -98.5 -196.5t-183.5 -60.5q-43 0 -75.5 18.5t-41.5 45.5l-57 -278l-112 -8zM464 242q11 55 11 90q0 52 -21 77.5t-66 25.5
q-30 0 -65.5 -27t-64.5 -68.5t-41 -80.5l-20 -97q-4 -22 -4 -33q0 -42 25.5 -68.5t73.5 -26.5q129 0 172 208z" />
    <glyph glyph-name="ydieresis" unicode="&#xff;" horiz-adv-x="559" 
d="M235.5 558.5q-10.5 10.5 -10.5 28.5q0 28 17.5 47t43.5 19q20 0 30.5 -10t10.5 -28q0 -29 -17.5 -48t-45.5 -19q-18 0 -28.5 10.5zM447.5 558.5q-10.5 10.5 -10.5 28.5q0 28 18 47t45 19q19 0 29.5 -11t10.5 -29q0 -27 -18 -46t-44 -19q-20 0 -30.5 10.5zM566.5 462
q17.5 -18 17.5 -50q0 -15 -2 -24q-5 -22 -25.5 -52t-54.5 -74l-346 -429q-33 -41 -73.5 -67t-75.5 -26q-27 0 -42 10.5t-15 29.5q0 4 2 14q3 16 15.5 29t28.5 13q14 0 20 -6.5t10 -18.5q1 -1 3 -6.5t5 -7.5t7 -2q14 0 39 22t47 51l107 136l-104 400q-1 7 -15 7
q-10 0 -24.5 -6t-18.5 -7l-3 26l104 46h64l68 -375l80 102q27 33 52 80t32 85q4 17 4 34q0 41 -24 63q14 9 36 15t40 6q24 0 41.5 -18z" />
    <glyph glyph-name="Amacron" unicode="&#x100;" horiz-adv-x="722" 
d="M653 781h-337l9 48h337zM684 31l-5 -31h-263l5 31h18q29 0 39.5 10.5t10.5 32.5q0 6 -2 26l-15 103h-265l-69 -123q-7 -11 -7 -22q0 -13 11 -20t29 -7h18l-6 -31h-217l6 31h15q20 0 41.5 10t31.5 26l354 616l92 34l110 -651q3 -17 17.5 -26t32.5 -9h18zM465 249l-48 326
l-184 -326h232z" />
    <glyph glyph-name="amacron" unicode="&#x101;" horiz-adv-x="568" 
d="M200 597h337l-10 -48h-337zM67.5 29.5q-31.5 39.5 -31.5 105.5q0 31 8 71q26 125 97 199.5t170 74.5q39 0 74 -9.5t49 -32.5l6 32h110l-82 -407q-2 -12 -2 -15q0 -17 18 -17q8 0 38 8l-5 -21q-18 -13 -46.5 -20.5t-53.5 -7.5q-29 0 -47 10t-18 33q0 8 1 12l19 90
q-55 -70 -110.5 -107.5t-98.5 -37.5q-64 0 -95.5 39.5zM272.5 78q36.5 32 70 74.5t47.5 71.5l30 144q-6 34 -26.5 48t-53.5 14q-31 0 -69 -22t-71.5 -72t-49.5 -128q-5 -28 -5 -47q0 -50 20 -82.5t46 -32.5q25 0 61.5 32z" />
    <glyph glyph-name="Abreve" unicode="&#x102;" horiz-adv-x="722" 
d="M389 802.5q-29 26.5 -29 73.5q0 11 4 37h32q-3 -40 21 -61.5t75 -21.5q52 0 84 21.5t43 61.5h35q-15 -61 -57 -99t-116 -38q-63 0 -92 26.5zM684 31l-5 -31h-263l5 31h18q29 0 39.5 10.5t10.5 32.5q0 6 -2 26l-15 103h-265l-69 -123q-7 -11 -7 -22q0 -13 11 -20t29 -7h18
l-6 -31h-217l6 31h15q20 0 41.5 10t31.5 26l354 616l92 34l110 -651q3 -17 17.5 -26t32.5 -9h18zM465 249l-48 326l-184 -326h232z" />
    <glyph glyph-name="abreve" unicode="&#x103;" horiz-adv-x="568" 
d="M271 567.5q-29 26.5 -29 72.5q0 20 4 37h33q-4 -39 19.5 -60.5t74.5 -21.5q52 0 84.5 21.5t44.5 60.5h33q-16 -62 -57 -99t-115 -37q-63 0 -92 26.5zM67.5 29.5q-31.5 39.5 -31.5 105.5q0 31 8 71q26 125 97 199.5t170 74.5q39 0 74 -9.5t49 -32.5l6 32h110l-82 -407
q-2 -12 -2 -15q0 -17 18 -17q8 0 38 8l-5 -21q-18 -13 -46.5 -20.5t-53.5 -7.5q-29 0 -47 10t-18 33q0 8 1 12l19 90q-55 -70 -110.5 -107.5t-98.5 -37.5q-64 0 -95.5 39.5zM272.5 78q36.5 32 70 74.5t47.5 71.5l30 144q-6 34 -26.5 48t-53.5 14q-31 0 -69 -22t-71.5 -72
t-49.5 -128q-5 -28 -5 -47q0 -50 20 -82.5t46 -32.5q25 0 61.5 32z" />
    <glyph glyph-name="Aogonek" unicode="&#x104;" horiz-adv-x="722" 
d="M580 -59.5q-23 -32.5 -23 -64.5q0 -21 13 -31.5t35 -10.5t47 11l3 -22q-41 -28 -88 -28q-44 0 -62.5 19.5t-18.5 47.5q0 40 31 76t81 62h-182l5 31h18q29 0 39.5 10.5t10.5 32.5q0 6 -2 26l-15 103h-265l-69 -123q-7 -11 -7 -22q0 -13 11 -20t29 -7h18l-6 -31h-217l6 31
h15q20 0 41.5 10t31.5 26l354 616l92 34l110 -651q3 -17 17.5 -26t32.5 -9h18l-5 -31h-35q-41 -27 -64 -59.5zM465 249l-48 326l-184 -326h232z" />
    <glyph glyph-name="aogonek" unicode="&#x105;" horiz-adv-x="568" 
d="M484 31q8 0 38 8l-5 -21q-16 -12 -48 -21q-59 -47 -71 -99q-1 -5 -1 -14q0 -22 13 -32.5t34 -10.5t48 11l2 -22q-20 -14 -43 -21t-44 -7q-44 0 -63 20t-19 48q0 33 22.5 64t60.5 56q-56 4 -56 43q0 8 1 12l19 90q-55 -70 -110.5 -107.5t-98.5 -37.5q-64 0 -95.5 39.5
t-31.5 105.5q0 31 8 71q26 125 97 199.5t170 74.5q39 0 74 -9.5t49 -32.5l6 32h110l-82 -407q-2 -12 -2 -15q0 -17 18 -17zM272.5 78q36.5 32 70 74.5t47.5 71.5l30 144q-6 34 -26.5 48t-53.5 14q-31 0 -69 -22t-71.5 -72t-49.5 -128q-5 -28 -5 -47q0 -50 20 -82.5t46 -32.5
q25 0 61.5 32z" />
    <glyph glyph-name="Cacute" unicode="&#x106;" horiz-adv-x="658" 
d="M415 810l136 114q15 12 27.5 19.5t27.5 7.5q16 0 23.5 -8t7.5 -20q0 -16 -12.5 -29.5t-36.5 -26.5l-160 -87zM125.5 55q-66.5 65 -66.5 184q0 51 12 111q34 168 139 264t262 96q63 0 107 -17.5t72 -41.5q1 -1 3.5 -2.5t4.5 -1.5q8 0 11 14l9 44h40l-40 -197h-34q1 7 1 20
q0 65 -44.5 99.5t-114.5 34.5q-113 0 -191.5 -83.5t-108.5 -228.5q-13 -67 -13 -114q0 -95 43.5 -147t130.5 -52q66 0 130.5 33t102.5 102h43q-34 -83 -115 -132.5t-187 -49.5q-130 0 -196.5 65z" />
    <glyph glyph-name="cacute" unicode="&#x107;" horiz-adv-x="507" 
d="M281 578l137 114q30 27 54 27q16 0 23.5 -7.5t7.5 -19.5q0 -17 -12 -31t-36 -26l-160 -87zM79.5 35q-52.5 45 -52.5 130q0 30 8 70q23 112 101 178.5t193 66.5q87 0 130 -27.5t43 -74.5q0 -13 -3 -25q-3 -15 -16 -28.5t-29 -13.5t-24 8.5t-8 20.5q0 9 7 21q6 14 6 21
q0 20 -23 37.5t-65 17.5q-78 0 -129.5 -56t-70.5 -147q-7 -34 -7 -66q0 -63 29 -100t84 -37q130 0 183 137h32q-24 -80 -85 -129t-153 -49q-98 0 -150.5 45z" />
    <glyph glyph-name="Ccircumflex" unicode="&#x108;" horiz-adv-x="658" 
d="M345 804l154 140h60l98 -140l-24 -23l-93 89q-15 13 -24 13q-11 0 -29 -13l-127 -89zM125.5 55q-66.5 65 -66.5 184q0 51 12 111q34 168 139 264t262 96q63 0 107 -17.5t72 -41.5q1 -1 3.5 -2.5t4.5 -1.5q8 0 11 14l9 44h40l-40 -197h-34q1 7 1 20q0 65 -44.5 99.5
t-114.5 34.5q-113 0 -191.5 -83.5t-108.5 -228.5q-13 -67 -13 -114q0 -95 43.5 -147t130.5 -52q66 0 130.5 33t102.5 102h43q-34 -83 -115 -132.5t-187 -49.5q-130 0 -196.5 65z" />
    <glyph glyph-name="ccircumflex" unicode="&#x109;" horiz-adv-x="507" 
d="M196 572l154 140h60l98 -140l-24 -23l-93 89q-15 13 -23 13q-12 0 -30 -13l-127 -89zM79.5 35q-52.5 45 -52.5 130q0 30 8 70q23 112 101 178.5t193 66.5q87 0 130 -27.5t43 -74.5q0 -13 -3 -25q-3 -15 -16 -28.5t-29 -13.5t-24 8.5t-8 20.5q0 9 7 21q6 14 6 21
q0 20 -23 37.5t-65 17.5q-78 0 -129.5 -56t-70.5 -147q-7 -34 -7 -66q0 -63 29 -100t84 -37q130 0 183 137h32q-24 -80 -85 -129t-153 -49q-98 0 -150.5 45z" />
    <glyph glyph-name="Cdotaccent" unicode="&#x10a;" horiz-adv-x="658" 
d="M465 778q-11 11 -11 28q0 3 2 13q5 23 21.5 38t38.5 15q19 0 30 -11t11 -29q0 -8 -1 -13q-5 -23 -21.5 -37.5t-39.5 -14.5q-19 0 -30 11zM125.5 55q-66.5 65 -66.5 184q0 51 12 111q34 168 139 264t262 96q63 0 107 -17.5t72 -41.5q1 -1 3.5 -2.5t4.5 -1.5q8 0 11 14
l9 44h40l-40 -197h-34q1 7 1 20q0 65 -44.5 99.5t-114.5 34.5q-113 0 -191.5 -83.5t-108.5 -228.5q-13 -67 -13 -114q0 -95 43.5 -147t130.5 -52q66 0 130.5 33t102.5 102h43q-34 -83 -115 -132.5t-187 -49.5q-130 0 -196.5 65z" />
    <glyph glyph-name="cdotaccent" unicode="&#x10b;" horiz-adv-x="507" 
d="M316.5 556q-11.5 11 -11.5 28q0 3 2 13q5 23 21.5 38t39.5 15q19 0 29.5 -11t10.5 -29q0 -8 -1 -13q-5 -23 -21.5 -37.5t-38.5 -14.5q-19 0 -30.5 11zM79.5 35q-52.5 45 -52.5 130q0 30 8 70q23 112 101 178.5t193 66.5q87 0 130 -27.5t43 -74.5q0 -13 -3 -25
q-3 -15 -16 -28.5t-29 -13.5t-24 8.5t-8 20.5q0 9 7 21q6 14 6 21q0 20 -23 37.5t-65 17.5q-78 0 -129.5 -56t-70.5 -147q-7 -34 -7 -66q0 -63 29 -100t84 -37q130 0 183 137h32q-24 -80 -85 -129t-153 -49q-98 0 -150.5 45z" />
    <glyph glyph-name="Ccaron" unicode="&#x10c;" horiz-adv-x="658" 
d="M364 921l23 23l92 -89q7 -5 13.5 -9t11.5 -4q8 0 28 13l128 89l16 -23l-155 -140h-59zM125.5 55q-66.5 65 -66.5 184q0 51 12 111q34 168 139 264t262 96q63 0 107 -17.5t72 -41.5q1 -1 3.5 -2.5t4.5 -1.5q8 0 11 14l9 44h40l-40 -197h-34q1 7 1 20q0 65 -44.5 99.5
t-114.5 34.5q-113 0 -191.5 -83.5t-108.5 -228.5q-13 -67 -13 -114q0 -95 43.5 -147t130.5 -52q66 0 130.5 33t102.5 102h43q-34 -83 -115 -132.5t-187 -49.5q-130 0 -196.5 65z" />
    <glyph glyph-name="ccaron" unicode="&#x10d;" horiz-adv-x="507" 
d="M217 689l23 23l92 -89q7 -5 13.5 -9t11.5 -4q8 0 28 13l129 89l15 -23l-155 -140h-59zM79.5 35q-52.5 45 -52.5 130q0 30 8 70q23 112 101 178.5t193 66.5q87 0 130 -27.5t43 -74.5q0 -13 -3 -25q-3 -15 -16 -28.5t-29 -13.5t-24 8.5t-8 20.5q0 9 7 21q6 14 6 21
q0 20 -23 37.5t-65 17.5q-78 0 -129.5 -56t-70.5 -147q-7 -34 -7 -66q0 -63 29 -100t84 -37q130 0 183 137h32q-24 -80 -85 -129t-153 -49q-98 0 -150.5 45z" />
    <glyph glyph-name="Dcaron" unicode="&#x10e;" horiz-adv-x="681" 
d="M316 935l23 23l92 -89q7 -5 13.5 -9t11.5 -4q8 0 28 13l128 89l16 -23l-155 -140h-59zM-17 31h29q53 0 62 36l115 565q1 3 1 9q0 28 -48 28h-29l6 31h314q254 0 254 -233q0 -55 -13 -117q-72 -350 -384 -350h-313zM297 45q97 0 164 79t97 226q14 72 14 123q0 88 -37 135
t-112 47h-114l-125 -610h113z" />
    <glyph glyph-name="dcaron" unicode="&#x10f;" horiz-adv-x="682" 
d="M69 30q-32 40 -32 108q0 34 7 68q26 125 97 199.5t170 74.5q40 0 77.5 -9.5t51.5 -32.5l37 186q1 3 1 7q0 17 -18 17q-7 0 -28 -7l-2 26l150 50h27l-134 -654q-2 -10 -2 -14q0 -18 19 -18q8 0 38 8l-5 -21q-18 -13 -47 -20.5t-54 -7.5q-28 0 -46 10t-18 32q0 8 1 13
l18 90q-55 -70 -111.5 -107.5t-99.5 -37.5q-65 0 -97 40zM611 482q29 27 48.5 51t24.5 50q1 4 1 10q0 14 -11 32q-1 2 -6 11.5t-5 21.5l1 8q5 21 22 35t40 14q20 0 32.5 -13t12.5 -38q0 -53 -42.5 -107.5t-103.5 -93.5zM276.5 78q37.5 32 71.5 75t48 71l29 144
q-10 62 -85 62q-31 0 -69 -22t-71.5 -72t-49.5 -128q-5 -27 -5 -45q0 -34 10 -60.5t26 -41.5t33 -15q25 0 62.5 32z" />
    <glyph glyph-name="Dcroat" unicode="&#x110;" horiz-adv-x="681" 
d="M687 467q0 -55 -13 -117q-72 -350 -384 -350h-313l6 31h29q53 0 62 36l51 253h-75l10 54h76l53 258q1 3 1 9q0 28 -48 28h-29l6 31h314q254 0 254 -233zM572 473q0 88 -37 135t-112 47h-114l-58 -281h197l-10 -54h-198l-56 -275h113q97 0 164 79t97 226q14 72 14 123z
" />
    <glyph glyph-name="dcroat" unicode="&#x111;" horiz-adv-x="581" 
d="M473 63q-2 -10 -2 -14q0 -18 19 -18q8 0 38 8l-5 -21q-18 -13 -47 -20.5t-54 -7.5q-28 0 -46 10t-18 32q0 8 1 13l18 90q-55 -70 -111.5 -107.5t-99.5 -37.5q-65 0 -97 40t-32 108q0 34 7 68q26 125 97 199.5t170 74.5q40 0 77.5 -9.5t51.5 -32.5l22 113h-140l7 39h141
l7 34q1 3 1 7q0 17 -18 17q-7 0 -28 -7l-2 26l150 50h27l-26 -127h55l-8 -39h-55zM425 368q-10 62 -85 62q-31 0 -69 -22t-71.5 -72t-49.5 -128q-5 -27 -5 -45q0 -34 10 -60.5t26 -41.5t33 -15q25 0 62.5 32t71.5 75t48 71z" />
    <glyph glyph-name="Emacron" unicode="&#x112;" horiz-adv-x="599" 
d="M616 781h-337l10 48h337zM653 700l-37 -179h-29q3 33 3 45q0 88 -65 88h-217l-54 -264h159q29 0 42.5 23t28.5 72h26l-49 -236h-26q1 7 3 22t2 26q0 47 -36 47h-160l-61 -298h235q73 0 117 138h29l-54 -184h-534l6 31h28q28 0 43.5 8.5t19.5 27.5l115 565q1 3 1 9
q0 28 -49 28h-28l6 31h535z" />
    <glyph glyph-name="emacron" unicode="&#x113;" horiz-adv-x="510" 
d="M505 549h-337l10 48h337zM385 207q-110 -40 -245 -46q2 -60 32.5 -95t83.5 -35q63 0 110.5 33.5t74.5 103.5h31q-23 -79 -85 -128.5t-155 -49.5q-99 0 -151.5 45t-52.5 131q0 34 7 69q23 114 101 179.5t191 65.5q98 0 144 -30t46 -82q0 -13 -3 -28q-19 -93 -129 -133z
M339 247.5q82 37.5 82 114.5q0 74 -95 75q-70 0 -115.5 -59t-63.5 -144q-3 -11 -4 -20t-2 -15q116 11 198 48.5z" />
    <glyph glyph-name="Ebreve" unicode="&#x114;" horiz-adv-x="599" 
d="M359.5 803.5q-28.5 27.5 -28.5 74.5q0 17 3 35h33q-4 -40 20 -61.5t75 -21.5q52 0 84 21.5t43 61.5h35q-15 -61 -57 -99t-116 -38q-63 0 -91.5 27.5zM653 700l-37 -179h-29q3 33 3 45q0 88 -65 88h-217l-54 -264h159q29 0 42.5 23t28.5 72h26l-49 -236h-26q1 7 3 22t2 26
q0 47 -36 47h-160l-61 -298h235q73 0 117 138h29l-54 -184h-534l6 31h28q28 0 43.5 8.5t19.5 27.5l115 565q1 3 1 9q0 28 -49 28h-28l6 31h535z" />
    <glyph glyph-name="ebreve" unicode="&#x115;" horiz-adv-x="510" 
d="M239.5 571.5q-28.5 27.5 -28.5 74.5q0 17 3 35h33q-4 -40 20 -61.5t75 -21.5q52 0 84 21.5t43 61.5h35q-15 -61 -57 -99t-116 -38q-63 0 -91.5 27.5zM385 207q-110 -40 -245 -46q2 -60 32.5 -95t83.5 -35q63 0 110.5 33.5t74.5 103.5h31q-23 -79 -85 -128.5t-155 -49.5
q-99 0 -151.5 45t-52.5 131q0 34 7 69q23 114 101 179.5t191 65.5q98 0 144 -30t46 -82q0 -13 -3 -28q-19 -93 -129 -133zM339 247.5q82 37.5 82 114.5q0 74 -95 75q-70 0 -115.5 -59t-63.5 -144q-3 -11 -4 -20t-2 -15q116 11 198 48.5z" />
    <glyph glyph-name="Edotaccent" unicode="&#x116;" horiz-adv-x="599" 
d="M421 777.5q-11 10.5 -11 27.5q0 4 2 14q5 23 21.5 38t38.5 15q20 0 30.5 -11t10.5 -30q0 -8 -1 -12q-5 -23 -21.5 -37.5t-39.5 -14.5q-19 0 -30 10.5zM653 700l-37 -179h-29q3 33 3 45q0 88 -65 88h-217l-54 -264h159q29 0 42.5 23t28.5 72h26l-49 -236h-26q1 7 3 22
t2 26q0 47 -36 47h-160l-61 -298h235q73 0 117 138h29l-54 -184h-534l6 31h28q28 0 43.5 8.5t19.5 27.5l115 565q1 3 1 9q0 28 -49 28h-28l6 31h535z" />
    <glyph glyph-name="edotaccent" unicode="&#x117;" horiz-adv-x="510" 
d="M315 555.5q-11 10.5 -11 28.5q0 9 1 13q5 23 21.5 38t39.5 15q19 0 29.5 -11t10.5 -29q0 -8 -1 -13q-5 -23 -21.5 -37.5t-38.5 -14.5q-19 0 -30 10.5zM385 207q-110 -40 -245 -46q2 -60 32.5 -95t83.5 -35q63 0 110.5 33.5t74.5 103.5h31q-23 -79 -85 -128.5t-155 -49.5
q-99 0 -151.5 45t-52.5 131q0 34 7 69q23 114 101 179.5t191 65.5q98 0 144 -30t46 -82q0 -13 -3 -28q-19 -93 -129 -133zM339 247.5q82 37.5 82 114.5q0 74 -95 75q-70 0 -115.5 -59t-63.5 -144q-3 -11 -4 -20t-2 -15q116 11 198 48.5z" />
    <glyph glyph-name="Eogonek" unicode="&#x118;" horiz-adv-x="599" 
d="M653 700l-37 -179h-29q3 33 3 45q0 88 -65 88h-217l-54 -264h159q29 0 42.5 23t28.5 72h26l-49 -236h-26q1 7 3 22t2 26q0 47 -36 47h-160l-61 -298h235q73 0 117 138h29l-54 -184h-47q-73 -50 -85 -109q-1 -5 -1 -14q0 -22 13 -32.5t34 -10.5q22 0 47 11l3 -22
q-41 -28 -87 -28q-44 0 -63 19.5t-19 47.5q0 40 31.5 76t80.5 62h-441l6 31h28q28 0 43.5 8.5t19.5 27.5l115 565q1 3 1 9q0 28 -49 28h-28l6 31h535z" />
    <glyph glyph-name="eogonek" unicode="&#x119;" horiz-adv-x="510" 
d="M385 207q-110 -40 -245 -46q2 -60 32.5 -95t83.5 -35q63 0 110.5 33.5t74.5 103.5h31q-14 -47 -42 -84t-68 -61q-31 -25 -48.5 -53.5t-17.5 -55.5q0 -21 13 -31.5t35 -10.5q20 0 47 11l3 -22q-41 -28 -88 -28q-44 0 -62.5 19.5t-18.5 47.5q0 49 46 93q-18 -3 -39 -3
q-99 0 -151.5 45t-52.5 131q0 34 7 69q23 114 101 179.5t191 65.5q98 0 144 -30t46 -82q0 -13 -3 -28q-19 -93 -129 -133zM339 247.5q82 37.5 82 114.5q0 74 -95 75q-70 0 -115.5 -59t-63.5 -144q-3 -11 -4 -20t-2 -15q116 11 198 48.5z" />
    <glyph glyph-name="Ecaron" unicode="&#x11a;" horiz-adv-x="599" 
d="M420 781l-97 140l23 23l92 -89q17 -13 25 -13t28 13l128 89l16 -23l-155 -140h-60zM653 700l-37 -179h-29q3 33 3 45q0 88 -65 88h-217l-54 -264h159q29 0 42.5 23t28.5 72h26l-49 -236h-26q1 7 3 22t2 26q0 47 -36 47h-160l-61 -298h235q73 0 117 138h29l-54 -184h-534
l6 31h28q28 0 43.5 8.5t19.5 27.5l115 565q1 3 1 9q0 28 -49 28h-28l6 31h535z" />
    <glyph glyph-name="ecaron" unicode="&#x11b;" horiz-adv-x="510" 
d="M312 549l-98 140l23 23l92 -89q19 -13 25 -13q9 0 28 13l129 89l15 -23l-154 -140h-60zM471 450q46 -30 46 -82q0 -13 -3 -28q-19 -93 -129 -133t-245 -46q2 -60 32.5 -95t83.5 -35q63 0 110.5 33.5t74.5 103.5h31q-23 -79 -85 -128.5t-155 -49.5q-99 0 -151.5 45
t-52.5 131q0 34 7 69q23 114 101 179.5t191 65.5q98 0 144 -30zM339 247.5q82 37.5 82 114.5q0 74 -95 75q-70 0 -115.5 -59t-63.5 -144q-3 -11 -4 -20t-2 -15q116 11 198 48.5z" />
    <glyph glyph-name="Gcircumflex" unicode="&#x11c;" horiz-adv-x="700" 
d="M336 818l155 140h59l98 -140l-24 -23l-93 89q-15 13 -23 13q-11 0 -30 -13l-127 -89zM125.5 55q-66.5 65 -66.5 184q0 51 12 111q34 168 140 264t264 96q52 0 102 -15t76 -43q4 -4 8 -4q11 0 14 13l9 44h40l-40 -197h-34q1 6 1 18q0 66 -46 101t-116 35q-112 0 -192 -84
t-110 -228q-13 -67 -13 -114q0 -95 43.5 -147t130.5 -52q37 0 77.5 9t72.5 31l41 197q1 4 1 10q0 40 -66 40h-12l6 26h257l-5 -22h-15q-26 0 -38.5 -16t-20.5 -57l-38 -187q-66 -41 -132.5 -59.5t-153.5 -18.5q-130 0 -196.5 65z" />
    <glyph glyph-name="gcircumflex" unicode="&#x11d;" horiz-adv-x="506" 
d="M181 549l-15 23l155 140h59l98 -140l-24 -23l-93 89q-15 13 -23 13q-10 0 -30 -13zM571 467q16 -13 13 -33q-4 -18 -15.5 -28.5t-29.5 -10.5q-12 0 -16.5 4.5t-8.5 13.5q-4 10 -9 15t-19 5q-13 0 -37 -11q20 -28 20 -66q0 -11 -4 -35q-16 -75 -78 -116t-159 -41
q-58 0 -101 16q-36 -24 -36 -49q0 -15 13.5 -24t38.5 -9h163q55 0 89.5 -22t34.5 -65q0 -12 -3 -24q-15 -71 -86.5 -110t-184.5 -39q-87 0 -134 25t-47 73q0 70 83 106q-20 8 -30 23t-10 33q0 52 77 100q-42 31 -42 87q0 19 4 36q15 75 77.5 117t158.5 42q87 0 133 -34
q50 34 100 34q29 0 45 -13zM359 357q0 37 -18.5 58.5t-57.5 21.5q-47 0 -77 -32.5t-40 -83.5q-4 -17 -4 -37q0 -36 18 -57t56 -21q48 0 78.5 32t40.5 83q4 17 4 36zM77 -5.5q-17 -20.5 -21 -38.5q-2 -10 -2 -14q0 -31 30.5 -47t84.5 -16q64 0 106 22.5t50 64.5q2 12 2 16
q0 21 -19.5 31.5t-62.5 10.5h-122q-29 -9 -46 -29.5z" />
    <glyph glyph-name="Gbreve" unicode="&#x11e;" horiz-adv-x="700" 
d="M389 816.5q-29 26.5 -29 73.5q0 11 4 37h32q-3 -40 21 -61.5t75 -21.5q52 0 84 21.5t43 61.5h35q-15 -61 -57 -99t-116 -38q-63 0 -92 26.5zM125.5 55q-66.5 65 -66.5 184q0 51 12 111q34 168 140 264t264 96q52 0 102 -15t76 -43q4 -4 8 -4q11 0 14 13l9 44h40l-40 -197
h-34q1 6 1 18q0 66 -46 101t-116 35q-112 0 -192 -84t-110 -228q-13 -67 -13 -114q0 -95 43.5 -147t130.5 -52q37 0 77.5 9t72.5 31l41 197q1 4 1 10q0 40 -66 40h-12l6 26h257l-5 -22h-15q-26 0 -38.5 -16t-20.5 -57l-38 -187q-66 -41 -132.5 -59.5t-153.5 -18.5
q-130 0 -196.5 65z" />
    <glyph glyph-name="gbreve" unicode="&#x11f;" horiz-adv-x="506" 
d="M217.5 571.5q-28.5 27.5 -28.5 74.5q0 17 3 35h33q-4 -40 20 -61.5t75 -21.5q52 0 84 21.5t43 61.5h35q-15 -61 -57 -99t-116 -38q-63 0 -91.5 27.5zM571 467q16 -13 13 -33q-4 -18 -15.5 -28.5t-29.5 -10.5q-12 0 -16.5 4.5t-8.5 13.5q-4 10 -9 15t-19 5q-13 0 -37 -11
q20 -28 20 -66q0 -11 -4 -35q-16 -75 -78 -116t-159 -41q-58 0 -101 16q-36 -24 -36 -49q0 -15 13.5 -24t38.5 -9h163q55 0 89.5 -22t34.5 -65q0 -12 -3 -24q-15 -71 -86.5 -110t-184.5 -39q-87 0 -134 25t-47 73q0 70 83 106q-20 8 -30 23t-10 33q0 52 77 100
q-42 31 -42 87q0 19 4 36q15 75 77.5 117t158.5 42q87 0 133 -34q50 34 100 34q29 0 45 -13zM359 357q0 37 -18.5 58.5t-57.5 21.5q-47 0 -77 -32.5t-40 -83.5q-4 -17 -4 -37q0 -36 18 -57t56 -21q48 0 78.5 32t40.5 83q4 17 4 36zM77 -5.5q-17 -20.5 -21 -38.5
q-2 -10 -2 -14q0 -31 30.5 -47t84.5 -16q64 0 106 22.5t50 64.5q2 12 2 16q0 21 -19.5 31.5t-62.5 10.5h-122q-29 -9 -46 -29.5z" />
    <glyph glyph-name="Gdotaccent" unicode="&#x120;" horiz-adv-x="700" 
d="M459 791.5q-11 10.5 -11 28.5q0 9 1 13q5 23 21.5 38t39.5 15q19 0 29.5 -11t10.5 -29q0 -8 -1 -13q-5 -23 -21.5 -37.5t-38.5 -14.5q-19 0 -30 10.5zM125.5 55q-66.5 65 -66.5 184q0 51 12 111q34 168 140 264t264 96q52 0 102 -15t76 -43q4 -4 8 -4q11 0 14 13l9 44h40
l-40 -197h-34q1 6 1 18q0 66 -46 101t-116 35q-112 0 -192 -84t-110 -228q-13 -67 -13 -114q0 -95 43.5 -147t130.5 -52q37 0 77.5 9t72.5 31l41 197q1 4 1 10q0 40 -66 40h-12l6 26h257l-5 -22h-15q-26 0 -38.5 -16t-20.5 -57l-38 -187q-66 -41 -132.5 -59.5t-153.5 -18.5
q-130 0 -196.5 65z" />
    <glyph glyph-name="gdotaccent" unicode="&#x121;" horiz-adv-x="506" 
d="M276 556q-11 11 -11 28q0 3 2 13q5 23 21.5 38t38.5 15q20 0 30.5 -11t10.5 -30q0 -8 -1 -12q-5 -23 -21.5 -37.5t-39.5 -14.5q-19 0 -30 11zM571 467q16 -13 13 -33q-4 -18 -15.5 -28.5t-29.5 -10.5q-12 0 -16.5 4.5t-8.5 13.5q-4 10 -9 15t-19 5q-13 0 -37 -11
q20 -28 20 -66q0 -11 -4 -35q-16 -75 -78 -116t-159 -41q-58 0 -101 16q-36 -24 -36 -49q0 -15 13.5 -24t38.5 -9h163q55 0 89.5 -22t34.5 -65q0 -12 -3 -24q-15 -71 -86.5 -110t-184.5 -39q-87 0 -134 25t-47 73q0 70 83 106q-20 8 -30 23t-10 33q0 52 77 100
q-42 31 -42 87q0 19 4 36q15 75 77.5 117t158.5 42q87 0 133 -34q50 34 100 34q29 0 45 -13zM359 357q0 37 -18.5 58.5t-57.5 21.5q-47 0 -77 -32.5t-40 -83.5q-4 -17 -4 -37q0 -36 18 -57t56 -21q48 0 78.5 32t40.5 83q4 17 4 36zM77 -5.5q-17 -20.5 -21 -38.5
q-2 -10 -2 -14q0 -31 30.5 -47t84.5 -16q64 0 106 22.5t50 64.5q2 12 2 16q0 21 -19.5 31.5t-62.5 10.5h-122q-29 -9 -46 -29.5z" />
    <glyph glyph-name="Gcommaaccent" unicode="&#x122;" horiz-adv-x="700" 
d="M125.5 55q-66.5 65 -66.5 184q0 51 12 111q34 168 140 264t264 96q52 0 102 -15t76 -43q4 -4 8 -4q11 0 14 13l9 44h40l-40 -197h-34q1 6 1 18q0 66 -46 101t-116 35q-112 0 -192 -84t-110 -228q-13 -67 -13 -114q0 -95 43.5 -147t130.5 -52q37 0 77.5 9t72.5 31l41 197
q1 4 1 10q0 40 -66 40h-12l6 26h257l-5 -22h-15q-26 0 -38.5 -16t-20.5 -57l-38 -187q-66 -41 -132.5 -59.5t-153.5 -18.5q-130 0 -196.5 65zM213 -302q63 56 73 101q1 4 1 11q0 13 -10 31q-11 16 -11 32q0 23 18.5 40.5t43.5 17.5q21 0 33.5 -13.5t12.5 -38.5q0 -11 -3 -24
q-11 -48 -50.5 -95t-92.5 -81z" />
    <glyph glyph-name="gcommaaccent" unicode="&#x123;" horiz-adv-x="506" 
d="M280.5 558.5q-12.5 12.5 -12.5 37.5q0 54 42.5 108.5t103.5 93.5l14 -19q-29 -27 -48.5 -51t-24.5 -50q-1 -4 -1 -10q0 -15 11 -32q10 -18 10 -31q0 -24 -17.5 -41.5t-44.5 -17.5q-20 0 -32.5 12.5zM571 467q16 -13 13 -33q-4 -18 -15.5 -28.5t-29.5 -10.5
q-12 0 -16.5 4.5t-8.5 13.5q-4 10 -9 15t-19 5q-13 0 -37 -11q20 -28 20 -66q0 -11 -4 -35q-16 -75 -78 -116t-159 -41q-58 0 -101 16q-36 -24 -36 -49q0 -15 13.5 -24t38.5 -9h163q55 0 89.5 -22t34.5 -65q0 -12 -3 -24q-15 -71 -86.5 -110t-184.5 -39q-87 0 -134 25
t-47 73q0 70 83 106q-20 8 -30 23t-10 33q0 52 77 100q-42 31 -42 87q0 19 4 36q15 75 77.5 117t158.5 42q87 0 133 -34q50 34 100 34q29 0 45 -13zM359 357q0 37 -18.5 58.5t-57.5 21.5q-47 0 -77 -32.5t-40 -83.5q-4 -17 -4 -37q0 -36 18 -57t56 -21q48 0 78.5 32t40.5 83
q4 17 4 36zM77 -5.5q-17 -20.5 -21 -38.5q-2 -10 -2 -14q0 -31 30.5 -47t84.5 -16q64 0 106 22.5t50 64.5q2 12 2 16q0 21 -19.5 31.5t-62.5 10.5h-122q-29 -9 -46 -29.5z" />
    <glyph glyph-name="Hcircumflex" unicode="&#x124;" horiz-adv-x="759" 
d="M363 781l-15 23l154 140h60l98 -140l-24 -23l-94 89q-13 13 -23 13q-11 0 -29 -13zM844 700l-6 -31h-29q-55 0 -62 -37l-115 -565q-1 -3 -1 -9q0 -27 48 -27h29l-6 -31h-282l5 31h28q29 0 44 8.5t19 27.5l57 276h-324l-56 -276q-1 -3 -1 -9q0 -27 48 -27h29l-6 -31h-282
l6 31h27q29 0 44.5 8.5t19.5 27.5l115 565q1 3 1 8q0 29 -49 29h-28l6 31h282l-6 -31h-28q-56 0 -63 -37l-49 -243h323l50 243q6 37 -48 37h-28l6 31h282z" />
    <glyph glyph-name="hcircumflex" unicode="&#x125;" horiz-adv-x="624" 
d="M607 798l-24 -23l-93 89q-15 13 -23 13q-12 0 -30 -13l-127 -89l-15 23l154 140h60zM508 64q-1 -4 -1 -11q0 -20 21 -20q12 0 35 7l-4 -21q-19 -14 -46 -21.5t-52 -7.5q-30 0 -47.5 14.5t-17.5 43.5q0 13 2 21l49 241q7 29 7 54q0 37 -17.5 53t-53.5 16q-41 0 -86.5 -46
t-77.5 -112l-56 -275l-113 -10l130 634l1 6q0 18 -20 18q-6 0 -27 -7l-2 26l150 50h27l-76 -373q31 61 80 98.5t113 37.5q71 0 106 -25.5t35 -80.5q0 -21 -6 -50z" />
    <glyph glyph-name="Hbar" unicode="&#x126;" horiz-adv-x="759" 
d="M844 700l-6 -31h-29q-55 0 -62 -37l-18 -87h53l-8 -46h-54l-88 -432q-1 -3 -1 -9q0 -27 48 -27h29l-6 -31h-282l5 31h28q29 0 44 8.5t19 27.5l57 276h-324l-56 -276q-1 -3 -1 -9q0 -27 48 -27h29l-6 -31h-282l6 31h27q29 0 44.5 8.5t19.5 27.5l88 432h-63l8 46h64l18 87
q1 3 1 8q0 29 -49 29h-28l6 31h282l-6 -31h-28q-56 0 -63 -37l-18 -87h324l18 87q6 37 -48 37h-28l6 31h282zM605 499h-324l-22 -110h323z" />
    <glyph glyph-name="hbar" unicode="&#x127;" horiz-adv-x="624" 
d="M528 33q12 0 35 7l-4 -21q-19 -14 -46 -21.5t-52 -7.5q-30 0 -47.5 14.5t-17.5 43.5q0 13 2 21l49 241q7 29 7 54q0 37 -17.5 53t-53.5 16q-41 0 -86.5 -46t-77.5 -112l-56 -275l-113 -10l115 561h-57l8 39h57l7 34l1 6q0 18 -20 18q-6 0 -27 -7l-2 26l150 50h27
l-26 -127h139l-7 -39h-140l-42 -207q31 61 80 98.5t113 37.5q71 0 106 -25.5t35 -80.5q0 -21 -6 -50l-53 -260q-1 -4 -1 -11q0 -20 21 -20z" />
    <glyph glyph-name="Itilde" unicode="&#x128;" horiz-adv-x="329" 
d="M121 791q19 43 51 72.5t72 29.5q17 0 32.5 -6.5t40.5 -19.5t40 -19t31 -6q24 0 41 14.5t36 46.5l20 -13q-21 -45 -52.5 -75t-72.5 -30q-17 0 -32 6.5t-39 19.5q-21 13 -37.5 19.5t-33.5 6.5q-24 0 -41.5 -14t-35.5 -45zM-10 31h29q28 0 43.5 8.5t19.5 27.5l115 565
q1 3 1 8q0 29 -48 29h-29l6 31h282l-6 -31h-28q-56 0 -63 -37l-115 -565q-1 -3 -1 -9q0 -14 12 -20.5t37 -6.5h28l-6 -31h-282z" />
    <glyph glyph-name="itilde" unicode="&#x129;" horiz-adv-x="316" 
d="M61 559q20 43 52 72.5t71 29.5q17 0 32.5 -6.5t40.5 -19.5t40 -19t31 -6q24 0 41 14.5t36 46.5l20 -13q-50 -105 -125 -105q-17 0 -33 6.5t-37 19.5q-23 13 -39 19.5t-33 6.5q-23 0 -40.5 -14t-35.5 -45zM84 1q-20 11 -20 34q0 7 1 11l69 337q1 3 1 8q0 9 -5.5 13
t-13.5 4q-5 0 -13.5 -3t-13.5 -4l-3 26l155 49h23l-84 -412q-2 -12 -2 -15q0 -17 18 -17q8 0 38 8l-4 -21q-19 -14 -46 -21.5t-52 -7.5q-28 0 -48 11z" />
    <glyph glyph-name="Imacron" unicode="&#x12a;" horiz-adv-x="329" 
d="M106 841h387l-10 -54h-388zM-10 31h29q28 0 43.5 8.5t19.5 27.5l115 565q1 3 1 8q0 29 -48 29h-29l6 31h282l-6 -31h-28q-56 0 -63 -37l-115 -565q-1 -3 -1 -9q0 -14 12 -20.5t37 -6.5h28l-6 -31h-282z" />
    <glyph glyph-name="imacron" unicode="&#x12b;" horiz-adv-x="316" 
d="M72 597h337l-10 -48h-337zM84 1q-20 11 -20 34q0 7 1 11l69 337q1 3 1 8q0 9 -5.5 13t-13.5 4q-5 0 -13.5 -3t-13.5 -4l-3 26l155 49h23l-84 -412q-2 -12 -2 -15q0 -17 18 -17q8 0 38 8l-4 -21q-19 -14 -46 -21.5t-52 -7.5q-28 0 -48 11z" />
    <glyph glyph-name="Ibreve" unicode="&#x12c;" horiz-adv-x="329" 
d="M191.5 803.5q-28.5 27.5 -28.5 74.5q0 17 3 35h33q-4 -40 20 -61.5t75 -21.5q52 0 84 21.5t43 61.5h35q-15 -61 -57 -99t-116 -38q-63 0 -91.5 27.5zM-10 31h29q28 0 43.5 8.5t19.5 27.5l115 565q1 3 1 8q0 29 -48 29h-29l6 31h282l-6 -31h-28q-56 0 -63 -37l-115 -565
q-1 -3 -1 -9q0 -14 12 -20.5t37 -6.5h28l-6 -31h-282z" />
    <glyph glyph-name="ibreve" unicode="&#x12d;" horiz-adv-x="316" 
d="M114 668q0 17 3 35h34l-1 -12q0 -33 24.5 -51.5t71.5 -18.5q51 0 83 21.5t44 60.5h34q-15 -61 -57 -98.5t-116 -37.5q-120 0 -120 101zM84 1q-20 11 -20 34q0 7 1 11l69 337q1 3 1 8q0 9 -5.5 13t-13.5 4q-5 0 -13.5 -3t-13.5 -4l-3 26l155 49h23l-84 -412q-2 -12 -2 -15
q0 -17 18 -17q8 0 38 8l-4 -21q-19 -14 -46 -21.5t-52 -7.5q-28 0 -48 11z" />
    <glyph glyph-name="Iogonek" unicode="&#x12e;" horiz-adv-x="329" 
d="M409 700l-6 -31h-28q-56 0 -63 -37l-115 -565q-1 -3 -1 -9q0 -14 12 -20.5t37 -6.5h28l-6 -31h-63q-73 -50 -85 -109q-2 -12 -2 -15q0 -21 13 -31.5t35 -10.5t47 11l3 -22q-41 -28 -87 -28q-44 0 -63 19.5t-19 47.5q0 40 31 76t81 62h-173l5 31h29q28 0 43.5 8.5
t19.5 27.5l115 565q1 3 1 8q0 29 -48 29h-29l6 31h282z" />
    <glyph glyph-name="iogonek" unicode="&#x12f;" horiz-adv-x="300" 
d="M279 672q14 -13 14 -35q0 -32 -22.5 -54.5t-53.5 -22.5q-24 0 -38 13t-14 34q0 5 2 15q6 28 26.5 45.5t48.5 17.5q23 0 37 -13zM180 64q-2 -12 -2 -15q0 -17 18 -17q8 0 38 8l-4 -21q-10 -8 -32 -17q-36 -24 -59 -52.5t-30 -58.5q-1 -5 -1 -14q0 -22 13 -32.5t35 -10.5
q20 0 47 11l2 -22q-20 -14 -43 -21t-44 -7q-44 0 -63 20t-19 48q0 36 26 69t68 58q-27 0 -46.5 11t-19.5 34q0 7 1 11l69 337q1 3 1 8q0 9 -5.5 13t-13.5 4q-5 0 -13.5 -3t-13.5 -4l-3 26l155 49h23z" />
    <glyph glyph-name="Idotaccent" unicode="&#x130;" horiz-adv-x="329" 
d="M251 778q-11 11 -11 28q0 3 2 13q5 23 21.5 38t38.5 15q19 0 30 -11t11 -29q0 -8 -1 -13q-5 -23 -21.5 -37.5t-39.5 -14.5q-19 0 -30 11zM-10 31h29q28 0 43.5 8.5t19.5 27.5l115 565q1 3 1 8q0 29 -48 29h-29l6 31h282l-6 -31h-28q-56 0 -63 -37l-115 -565q-1 -3 -1 -9
q0 -14 12 -20.5t37 -6.5h28l-6 -31h-282z" />
    <glyph glyph-name="dotlessi" unicode="&#x131;" horiz-adv-x="316" 
d="M84 1q-20 11 -20 34q0 7 1 11l69 337q1 3 1 8q0 9 -5.5 13t-13.5 4q-5 0 -13.5 -3t-13.5 -4l-3 26l155 49h23l-84 -412q-2 -12 -2 -15q0 -17 18 -17q8 0 38 8l-4 -21q-19 -14 -46 -21.5t-52 -7.5q-28 0 -48 11z" />
    <glyph glyph-name="IJ" unicode="&#x132;" horiz-adv-x="687" 
d="M-10 31h29q28 0 43.5 8.5t19.5 27.5l115 565q1 3 1 8q0 29 -48 29h-29l6 31h282l-6 -31h-28q-56 0 -63 -37l-115 -565q-1 -3 -1 -9q0 -14 12 -20.5t37 -6.5h28l-6 -31h-282zM290 -91q124 29 157 192l109 531q1 3 1 8q0 29 -49 29h-28l6 31h282l-6 -31h-29q-55 0 -62 -37
l-108 -532q-22 -105 -95.5 -159.5t-177.5 -54.5v23z" />
    <glyph glyph-name="ij" unicode="&#x133;" horiz-adv-x="611" 
d="M179 573q-14 13 -14 34q0 5 2 15q6 28 26.5 45.5t48.5 17.5q23 0 37 -13t14 -35q0 -32 -22.5 -54.5t-53.5 -22.5q-24 0 -38 13zM511 573q-13 13 -13 35q0 9 1 14q6 28 26.5 45.5t47.5 17.5q24 0 38 -13t14 -35q0 -33 -22.5 -55t-54.5 -22q-24 0 -37 13zM84 1
q-20 11 -20 34q0 7 1 11l69 337q1 3 1 8q0 9 -5.5 13t-13.5 4q-5 0 -13.5 -3t-13.5 -4l-3 26l155 49h23l-84 -412q-2 -12 -2 -15q0 -17 18 -17q8 0 38 8l-4 -21q-19 -14 -46 -21.5t-52 -7.5q-28 0 -48 11zM263 -114q47 18 74.5 48t40.5 67t25 97l59 284q1 3 1 7q0 17 -19 17
q-9 0 -28 -7l-2 26l150 50h26l-74 -370q-22 -107 -83 -167.5t-170 -75.5v24z" />
    <glyph glyph-name="Jcircumflex" unicode="&#x134;" horiz-adv-x="375" 
d="M180 818l155 140h60l97 -140l-24 -23l-93 89q-13 13 -23 13q-11 0 -29 -13l-127 -89zM-22 -91q124 29 157 192l109 531q1 3 1 8q0 29 -49 29h-28l6 31h282l-6 -31h-29q-55 0 -62 -37l-108 -532q-22 -105 -95.5 -159.5t-177.5 -54.5v23z" />
    <glyph glyph-name="jcircumflex" unicode="&#x135;" horiz-adv-x="311" 
d="M94 572l155 140h59l98 -140l-24 -23l-93 89q-15 13 -23 13q-11 0 -30 -13l-127 -89zM-37 -114q47 18 73.5 47t40 65.5t25.5 95.5l59 288q1 3 1 8q0 16 -18 16q-8 0 -29 -7l-1 26l149 50h27l-76 -374q-21 -105 -82 -164.5t-169 -74.5v24z" />
    <glyph glyph-name="Kcommaaccent" unicode="&#x136;" horiz-adv-x="700" 
d="M752 700l-6 -31h-21q-18 0 -31.5 -6t-28.5 -17l-334 -261l218 -302q19 -25 35 -38.5t40 -13.5h28l-6 -31h-175l-227 315l-51 -248q-1 -3 -1 -9q0 -27 48 -27h29l-6 -31h-282l6 31h27q29 0 44.5 8.5t19.5 27.5l115 565q1 3 1 8q0 29 -49 29h-28l6 31h282l-6 -31h-28
q-56 0 -63 -37l-50 -244l320 247q11 8 11 18q0 16 -32 16h-15l6 31h204zM351.5 -82q12.5 -13 12.5 -38q0 -53 -42.5 -107.5t-103.5 -93.5l-14 19q30 27 48.5 51t23.5 50q1 4 1 11q0 13 -10 31q-11 18 -11 33l1 8q5 21 22 35t40 14q20 0 32.5 -13z" />
    <glyph glyph-name="kcommaaccent" unicode="&#x137;" horiz-adv-x="598" 
d="M593 470l-5 -30h-24q-23 0 -71 -31l-200 -148l160 -198q12 -15 33 -24t38 -9h27l-6 -30h-171l-163 201l-9 -6l-40 -195l-113 -10l130 634l1 6q0 18 -20 18q-6 0 -27 -7l-2 26l150 50h27l-93 -459l291 212h87zM291.5 -75.5q12.5 -12.5 12.5 -37.5q0 -54 -42.5 -108.5
t-103.5 -93.5l-14 19q63 56 73 101q1 4 1 11q0 13 -10 31q-11 16 -11 32q0 23 18.5 40.5t43.5 17.5q20 0 32.5 -12.5z" />
    <glyph glyph-name="kgreenlandic" unicode="&#x138;" horiz-adv-x="598" 
d="M593 470l-5 -30h-24q-23 0 -71 -31l-200 -148l160 -198q12 -15 33 -24t38 -9h27l-6 -30h-171l-163 201l-9 -6l-40 -195l-113 -10l84 409q1 3 1 7q0 17 -20 17q-6 0 -27 -7l-2 26l150 50h27l-47 -234l291 212h87z" />
    <glyph glyph-name="Lacute" unicode="&#x139;" horiz-adv-x="596" 
d="M231 810l137 114q30 27 54 27q16 0 23.5 -7.5t7.5 -19.5q0 -17 -12 -31t-36 -26l-160 -87zM-11 31h28q29 0 44.5 8.5t19.5 27.5l115 565q1 3 1 8q0 29 -49 29h-28l6 31h282l-6 -31h-29q-55 0 -62 -37l-111 -543q-1 -4 -1 -11q0 -32 50 -32h177q41 0 73 49t47 98h32
l-57 -193h-537z" />
    <glyph glyph-name="lacute" unicode="&#x13a;" horiz-adv-x="307" 
d="M192 792l136 114q15 12 27.5 19.5t27.5 7.5q16 0 23.5 -7.5t7.5 -19.5q0 -17 -12 -31t-36 -26l-161 -87zM89 1q-20 11 -20 34q0 7 1 11l118 578q1 3 1 7q0 17 -19 17q-6 0 -27 -7l-3 26l151 50h27l-134 -653q-1 -5 -1 -13q0 -19 18 -19q8 0 38 8l-4 -21
q-20 -14 -46.5 -21.5t-52.5 -7.5q-27 0 -47 11z" />
    <glyph glyph-name="Lcommaaccent" unicode="&#x13b;" horiz-adv-x="596" 
d="M-11 31h28q29 0 44.5 8.5t19.5 27.5l115 565q1 3 1 8q0 29 -49 29h-28l6 31h282l-6 -31h-29q-55 0 -62 -37l-111 -543q-1 -4 -1 -11q0 -32 50 -32h177q41 0 73 49t47 98h32l-57 -193h-537zM129 -302q29 27 48.5 51t24.5 50q1 4 1 10q0 14 -11 32q-1 2 -6 11.5t-5 21.5
l1 8q5 21 22 35t40 14q20 0 32.5 -12.5t12.5 -37.5q0 -54 -42.5 -108.5t-103.5 -93.5z" />
    <glyph glyph-name="lcommaaccent" unicode="&#x13c;" horiz-adv-x="307" 
d="M89 1q-20 11 -20 34q0 7 1 11l118 578q1 3 1 7q0 17 -19 17q-6 0 -27 -7l-3 26l151 50h27l-134 -653q-1 -5 -1 -13q0 -19 18 -19q8 0 38 8l-4 -21q-20 -14 -46.5 -21.5t-52.5 -7.5q-27 0 -47 11zM5 -296q29 27 48.5 51t24.5 50q1 4 1 10q0 15 -11 32q-10 18 -10 31
q0 24 17.5 41.5t44.5 17.5q20 0 32.5 -12.5t12.5 -37.5q0 -54 -42.5 -108.5t-103.5 -93.5z" />
    <glyph glyph-name="Lcaron" unicode="&#x13d;" horiz-adv-x="596" 
d="M434 475q63 53 73 101q1 4 1 11q0 13 -10 31q-11 17 -11 31q0 24 18 41t44 17q21 0 33 -12t12 -37q0 -54 -43 -109t-103 -93zM-11 31h28q29 0 44.5 8.5t19.5 27.5l115 565q1 3 1 8q0 29 -49 29h-28l6 31h282l-6 -31h-29q-55 0 -62 -37l-111 -543q-1 -4 -1 -11
q0 -32 50 -32h177q41 0 73 49t47 98h32l-57 -193h-537z" />
    <glyph glyph-name="lcaron" unicode="&#x13e;" horiz-adv-x="452" 
d="M89 1q-20 11 -20 34q0 7 1 11l118 578q1 3 1 7q0 17 -19 17q-6 0 -27 -7l-3 26l151 50h27l-134 -653q-1 -5 -1 -13q0 -19 18 -19q8 0 38 8l-4 -21q-20 -14 -46.5 -21.5t-52.5 -7.5q-27 0 -47 11zM380 477q60 51 69 101q1 4 1 11q0 13 -10 31q-1 2 -5 11t-4 19q0 24 18 42
t44 18q21 0 34 -14t13 -40q0 -53 -42 -105.5t-102 -92.5z" />
    <glyph glyph-name="Ldot" unicode="&#x13f;" horiz-adv-x="596" 
d="M-11 31h28q29 0 44.5 8.5t19.5 27.5l115 565q1 3 1 8q0 29 -49 29h-28l6 31h282l-6 -31h-29q-55 0 -62 -37l-111 -543q-1 -4 -1 -11q0 -32 50 -32h177q41 0 73 49t47 98h32l-57 -193h-537zM389 324.5q-11 10.5 -11 28.5q0 27 18 47t45 20q19 0 30 -11.5t11 -29.5
q0 -8 -1 -12q-5 -23 -22.5 -38t-39.5 -15q-19 0 -30 10.5z" />
    <glyph glyph-name="ldot" unicode="&#x140;" horiz-adv-x="428" 
d="M89 1q-20 11 -20 34q0 7 1 11l118 578q1 3 1 7q0 17 -19 17q-6 0 -27 -7l-3 26l151 50h27l-134 -653q-1 -5 -1 -13q0 -19 18 -19q8 0 38 8l-4 -21q-20 -14 -46.5 -21.5t-52.5 -7.5q-27 0 -47 11zM318.5 302q-11.5 11 -11.5 29q0 4 2 14q5 24 23 39.5t42 15.5
q21 0 32.5 -11.5t11.5 -30.5q0 -28 -19.5 -47.5t-47.5 -19.5q-21 0 -32.5 11z" />
    <glyph glyph-name="Lslash" unicode="&#x141;" horiz-adv-x="596" 
d="M578 193l-57 -193h-537l5 31h28q29 0 44.5 8.5t19.5 27.5l40 194l-81 -28l13 60l80 28l63 311q1 3 1 8q0 29 -49 29h-28l6 31h282l-6 -31h-29q-55 0 -62 -37l-55 -268l213 74l-12 -59l-213 -75l-44 -215q-1 -4 -1 -11q0 -32 50 -32h177q41 0 73 49t47 98h32z" />
    <glyph glyph-name="lslash" unicode="&#x142;" horiz-adv-x="313" 
d="M184 64q-1 -5 -1 -13q0 -19 18 -19q8 0 38 8l-4 -21q-20 -14 -46.5 -21.5t-52.5 -7.5q-27 0 -47 11t-20 34q0 7 1 11l42 208l-94 -36l13 60l94 36l63 310q1 3 1 7q0 17 -19 17q-6 0 -27 -7l-3 26l151 50h27l-73 -357l99 38l-13 -61l-99 -38z" />
    <glyph glyph-name="Nacute" unicode="&#x143;" horiz-adv-x="734" 
d="M415 810l136 114q15 12 27.5 19.5t27.5 7.5q16 0 23.5 -8t7.5 -20q0 -16 -12.5 -29.5t-36.5 -26.5l-160 -87zM-13 31h27q29 0 44.5 8.5t19.5 27.5l115 565q1 3 1 8q0 29 -49 29h-28l6 31h205l242 -549l98 481q1 3 1 9q0 28 -49 28h-28l6 31h221l-6 -31h-29q-55 0 -62 -37
l-129 -632h-65l-282 629l-114 -562q-1 -3 -1 -9q0 -27 48 -27h28l-5 -31h-221z" />
    <glyph glyph-name="nacute" unicode="&#x144;" horiz-adv-x="624" 
d="M324 548l-14 30l136 114q15 12 27.5 19.5t27.5 7.5q16 0 23.5 -7.5t7.5 -19.5q0 -17 -12 -31t-36 -26zM507 64q-1 -5 -1 -12q0 -20 20 -20q13 0 36 7l-4 -20q-19 -14 -46 -22t-52 -8q-28 0 -48 11t-20 34q0 8 1 12l58 288q4 17 4 35q0 64 -71 64q-32 0 -66.5 -25t-63 -67
t-41.5 -91l-50 -250l-113 -10l81 392l1 6q0 18 -20 18q-7 0 -28 -7l-1 26l149 50h27l-23 -116q32 51 85.5 86t107.5 35q72 0 105.5 -26.5t33.5 -74.5q0 -19 -4 -36z" />
    <glyph glyph-name="Ncommaaccent" unicode="&#x145;" horiz-adv-x="734" 
d="M-13 31h27q29 0 44.5 8.5t19.5 27.5l115 565q1 3 1 8q0 29 -49 29h-28l6 31h205l242 -549l98 481q1 3 1 9q0 28 -49 28h-28l6 31h221l-6 -31h-29q-55 0 -62 -37l-129 -632h-65l-282 629l-114 -562q-1 -3 -1 -9q0 -27 48 -27h28l-5 -31h-221zM185 -302q30 26 49 50.5
t24 50.5q1 4 1 11q0 13 -10 31q-11 16 -11 32q0 23 18.5 40.5t43.5 17.5q21 0 33.5 -13.5t12.5 -38.5q0 -11 -3 -24q-11 -48 -50.5 -95t-92.5 -81z" />
    <glyph glyph-name="ncommaaccent" unicode="&#x146;" horiz-adv-x="624" 
d="M507 64q-1 -5 -1 -12q0 -20 20 -20q13 0 36 7l-4 -20q-19 -14 -46 -22t-52 -8q-28 0 -48 11t-20 34q0 8 1 12l58 288q4 17 4 35q0 64 -71 64q-32 0 -66.5 -25t-63 -67t-41.5 -91l-50 -250l-113 -10l81 392l1 6q0 18 -20 18q-7 0 -28 -7l-1 26l149 50h27l-23 -116
q32 51 85.5 86t107.5 35q72 0 105.5 -26.5t33.5 -74.5q0 -19 -4 -36zM296.5 -75.5q12.5 -12.5 12.5 -37.5q0 -54 -42.5 -108.5t-103.5 -93.5l-14 19q29 27 48.5 51t24.5 50q1 4 1 10q0 15 -11 32q-10 18 -10 31q0 24 17.5 41.5t44.5 17.5q20 0 32.5 -12.5z" />
    <glyph glyph-name="Ncaron" unicode="&#x147;" horiz-adv-x="734" 
d="M357 921l23 23l92 -89q19 -13 25 -13q9 0 28 13l129 89l15 -23l-154 -140h-60zM-13 31h27q29 0 44.5 8.5t19.5 27.5l115 565q1 3 1 8q0 29 -49 29h-28l6 31h205l242 -549l98 481q1 3 1 9q0 28 -49 28h-28l6 31h221l-6 -31h-29q-55 0 -62 -37l-129 -632h-65l-282 629
l-114 -562q-1 -3 -1 -9q0 -27 48 -27h28l-5 -31h-221z" />
    <glyph glyph-name="ncaron" unicode="&#x148;" horiz-adv-x="624" 
d="M364 549l-98 140l23 23l92 -89q7 -5 13.5 -9t11.5 -4q8 0 28 13l129 89l15 -23l-155 -140h-59zM534.5 453.5q33.5 -26.5 33.5 -74.5q0 -19 -4 -36l-57 -279q-1 -5 -1 -12q0 -20 20 -20q13 0 36 7l-4 -20q-19 -14 -46 -22t-52 -8q-28 0 -48 11t-20 34q0 8 1 12l58 288
q4 17 4 35q0 64 -71 64q-32 0 -66.5 -25t-63 -67t-41.5 -91l-50 -250l-113 -10l81 392l1 6q0 18 -20 18q-7 0 -28 -7l-1 26l149 50h27l-23 -116q32 51 85.5 86t107.5 35q72 0 105.5 -26.5z" />
    <glyph glyph-name="napostrophe" unicode="&#x149;" horiz-adv-x="747" 
d="M207.5 628q12.5 -13 12.5 -38q0 -53 -42.5 -107.5t-103.5 -93.5l-14 19q30 27 48.5 51t23.5 50q1 4 1 11q0 13 -10 31q-11 18 -11 33l1 8q5 21 22 35t40 14q20 0 32.5 -13zM629 64q-1 -5 -1 -12q0 -20 20 -20q13 0 36 7l-4 -20q-19 -14 -46 -22t-52 -8q-28 0 -48 11
t-20 34q0 8 1 12l58 288q4 17 4 35q0 64 -71 64q-32 0 -66.5 -25t-63 -67t-41.5 -91l-50 -250l-113 -10l80 392q1 3 1 8q0 16 -19 16q-7 0 -28 -7l-2 26l150 50h27l-23 -116q32 51 85.5 86t107.5 35q138 0 138 -100q0 -20 -4 -37z" />
    <glyph glyph-name="Eng" unicode="&#x14a;" horiz-adv-x="734" 
d="M308 -251q45 2 88 24t74 60.5t41 86.5l17 80l-281 635l-115 -568q-1 -3 -1 -9q0 -27 48 -27h28l-5 -31h-221l6 31h27q31 0 45 8.5t19 27.5l115 565q1 3 1 8q0 29 -49 29h-28l6 31h205l242 -549l98 481q1 3 1 9q0 28 -49 28h-28l6 31h221l-6 -31h-29q-55 0 -62 -37
l-138 -675q-24 -118 -89 -174.5t-188 -61.5z" />
    <glyph glyph-name="eng" unicode="&#x14b;" horiz-adv-x="613" 
d="M531.5 452q36.5 -28 36.5 -77q0 -10 -4 -32l-74 -366q-21 -102 -82 -158.5t-168 -69.5v24q59 21 89.5 63.5t42.5 104.5l80 390q3 18 3 32q0 35 -19.5 52.5t-55.5 17.5q-31 0 -64 -17t-59.5 -52t-36.5 -85h-1l-56 -279l-113 -10l80 392q1 3 1 8q0 16 -18 16q-8 0 -29 -7
l-1 26l153 50h23l-16 -78q30 36 79.5 59.5t101.5 23.5q71 0 107.5 -28z" />
    <glyph glyph-name="Omacron" unicode="&#x14c;" horiz-adv-x="741" 
d="M333 838h337l-10 -48h-336zM123 55q-69 65 -69 186q0 51 12 109q34 170 139.5 265t270.5 95q137 0 206.5 -66t69.5 -187q0 -50 -12 -107q-35 -171 -140 -265.5t-271 -94.5q-137 0 -206 65zM521.5 121q73.5 83 102.5 229q12 62 12 113q0 95 -42.5 147.5t-127.5 52.5
q-107 0 -180.5 -83.5t-103.5 -229.5q-12 -61 -12 -113q0 -95 42.5 -147t126.5 -52q109 0 182.5 83z" />
    <glyph glyph-name="omacron" unicode="&#x14d;" horiz-adv-x="560" 
d="M194 597h337l-10 -48h-337zM82 35.5q-54 45.5 -54 132.5q0 33 7 67q24 117 103.5 181t201.5 64q102 0 156 -45.5t54 -130.5q0 -29 -8 -69q-23 -118 -102.5 -181.5t-200.5 -63.5q-103 0 -157 45.5zM364 86.5q49 52.5 68 148.5q8 42 8 72q0 62 -29 95t-81 33
q-67 0 -116 -52t-69 -148q-8 -42 -8 -71q0 -63 29 -96.5t83 -33.5q66 0 115 52.5z" />
    <glyph glyph-name="Obreve" unicode="&#x14e;" horiz-adv-x="741" 
d="M398 802.5q-29 27.5 -29 74.5q0 17 3 35h33q-4 -40 20 -61.5t75 -21.5t83.5 21.5t44.5 61.5h34q-15 -61 -57 -99t-115 -38q-63 0 -92 27.5zM123 55q-69 65 -69 186q0 51 12 109q34 170 139.5 265t270.5 95q137 0 206.5 -66t69.5 -187q0 -50 -12 -107
q-35 -171 -140 -265.5t-271 -94.5q-137 0 -206 65zM521.5 121q73.5 83 102.5 229q12 62 12 113q0 95 -42.5 147.5t-127.5 52.5q-107 0 -180.5 -83.5t-103.5 -229.5q-12 -61 -12 -113q0 -95 42.5 -147t126.5 -52q109 0 182.5 83z" />
    <glyph glyph-name="obreve" unicode="&#x14f;" horiz-adv-x="560" 
d="M259.5 571.5q-28.5 27.5 -28.5 74.5q0 17 3 35h33q-4 -40 20 -61.5t75 -21.5t83.5 21.5t44.5 61.5h34q-15 -61 -57 -99t-116 -38q-63 0 -91.5 27.5zM82 35.5q-54 45.5 -54 132.5q0 33 7 67q24 117 103.5 181t201.5 64q102 0 156 -45.5t54 -130.5q0 -29 -8 -69
q-23 -118 -102.5 -181.5t-200.5 -63.5q-103 0 -157 45.5zM364 86.5q49 52.5 68 148.5q8 42 8 72q0 62 -29 95t-81 33q-67 0 -116 -52t-69 -148q-8 -42 -8 -71q0 -63 29 -96.5t83 -33.5q66 0 115 52.5z" />
    <glyph glyph-name="Ohungarumlaut" unicode="&#x150;" horiz-adv-x="741" 
d="M349 810l134 113q2 1 18 14t37 13q18 0 26 -10.5t5 -23.5q-6 -27 -47 -50l-159 -86zM516 810l134 113q2 1 18 14t38 13q18 0 25.5 -10.5t4.5 -23.5q-6 -27 -47 -50l-160 -86zM123 55q-69 65 -69 186q0 51 12 109q34 170 139.5 265t270.5 95q137 0 206.5 -66t69.5 -187
q0 -50 -12 -107q-35 -171 -140 -265.5t-271 -94.5q-137 0 -206 65zM521.5 121q73.5 83 102.5 229q12 62 12 113q0 95 -42.5 147.5t-127.5 52.5q-107 0 -180.5 -83.5t-103.5 -229.5q-12 -61 -12 -113q0 -95 42.5 -147t126.5 -52q109 0 182.5 83z" />
    <glyph glyph-name="ohungarumlaut" unicode="&#x151;" horiz-adv-x="560" 
d="M193 578l133 113q2 1 18 14t37 13q18 0 26.5 -10.5t5.5 -23.5q-6 -27 -47 -50l-160 -86zM359 578l134 113q2 1 18 14t38 13q18 0 26 -10.5t5 -23.5q-6 -27 -47 -50l-161 -86zM82 35.5q-54 45.5 -54 132.5q0 33 7 67q24 117 103.5 181t201.5 64q102 0 156 -45.5t54 -130.5
q0 -29 -8 -69q-23 -118 -102.5 -181.5t-200.5 -63.5q-103 0 -157 45.5zM364 86.5q49 52.5 68 148.5q8 42 8 72q0 62 -29 95t-81 33q-67 0 -116 -52t-69 -148q-8 -42 -8 -71q0 -63 29 -96.5t83 -33.5q66 0 115 52.5z" />
    <glyph glyph-name="OE" unicode="&#x152;" horiz-adv-x="1024" 
d="M1077 700l-36 -179h-30q4 24 4 45q0 38 -14.5 63t-50.5 25h-203l-54 -264h162q29 0 43 23.5t28 71.5h25l-49 -236h-25q1 7 3 22.5t2 25.5q0 47 -35 47h-164l-61 -298h220q71 0 118 138h30l-55 -184h-437l9 47q-82 -57 -187 -57q-130 0 -198 66t-68 186q0 50 12 108
q34 169 138.5 264.5t262.5 95.5q103 0 164 -56l9 46h437zM524 128l90 445q-39 90 -146 90t-181.5 -84t-104.5 -229q-12 -61 -12 -112q0 -96 43 -148.5t128 -52.5q107 0 183 91z" />
    <glyph glyph-name="oe" unicode="&#x153;" horiz-adv-x="847" 
d="M721 207q-110 -40 -245 -46q2 -60 32.5 -95t83.5 -35q63 0 110.5 33.5t74.5 103.5h31q-23 -79 -85 -128.5t-155 -49.5q-113 0 -164 57q-74 -57 -165 -57q-103 0 -157 45.5t-54 132.5q0 33 7 67q24 117 103.5 181t201.5 64q93 0 143 -57q75 57 180 57q98 0 144 -30t46 -82
q0 -13 -3 -28q-19 -93 -129 -133zM675 247.5q82 37.5 82 114.5q0 74 -95 75q-70 0 -115.5 -59t-63.5 -144q-3 -11 -4 -20t-2 -15q116 11 198 48.5zM374 99q-10 29 -10 67q0 34 7 69q17 81 60 136q-13 32 -39 48t-62 16q-67 0 -116 -52t-69 -148q-8 -42 -8 -71
q0 -63 29 -96.5t83 -33.5q73 0 125 65z" />
    <glyph glyph-name="Racute" unicode="&#x154;" horiz-adv-x="658" 
d="M374 780l-13 30l136 114q15 12 27.5 19.5t27.5 7.5q16 0 23.5 -7.5t7.5 -19.5q0 -17 -12 -31t-36 -26zM578.5 367.5q-39.5 -49.5 -110.5 -68.5q27 -17 35.5 -45t12.5 -78q3 -45 8.5 -74.5t21.5 -49.5t48 -21l-6 -31h-89q-50 0 -72.5 25t-27.5 77q-1 18 -1 56
q-1 54 -5.5 83t-22.5 48h-132l-45 -222q-1 -3 -1 -9q0 -27 48 -27h29l-6 -31h-282l6 31h27q29 0 44.5 8.5t19.5 27.5l115 565q1 3 1 8q0 29 -49 29h-28l6 31h339q94 0 137 -36.5t43 -105.5q0 -31 -7 -63q-17 -78 -56.5 -127.5zM528 555q0 99 -100 99h-115l-65 -319h115
q65 0 103.5 40.5t54.5 119.5q7 31 7 60z" />
    <glyph glyph-name="racute" unicode="&#x155;" horiz-adv-x="420" 
d="M201 548l-14 30l137 114q30 27 54 27q16 0 23.5 -7.5t7.5 -19.5q0 -17 -12 -31t-36 -26zM445.5 470.5q18.5 -9.5 18.5 -29.5q0 -6 -1 -9q-4 -23 -17.5 -34.5t-32.5 -11.5q-12 0 -18 4t-12 12q-5 8 -11 12t-17 4q-23 0 -49 -19.5t-48.5 -55.5t-34.5 -83l-53 -260l-113 -10
l80 392q1 3 1 8q0 16 -18 16q-8 0 -29 -7l-1 26l149 50h27l-19 -96q23 46 67 73.5t85 27.5q28 0 46.5 -9.5z" />
    <glyph glyph-name="Rcommaaccent" unicode="&#x156;" horiz-adv-x="658" 
d="M578.5 367.5q-39.5 -49.5 -110.5 -68.5q27 -17 35.5 -45t12.5 -78q3 -45 8.5 -74.5t21.5 -49.5t48 -21l-6 -31h-89q-50 0 -72.5 25t-27.5 77q-1 18 -1 56q-1 54 -5.5 83t-22.5 48h-132l-45 -222q-1 -3 -1 -9q0 -27 48 -27h29l-6 -31h-282l6 31h27q29 0 44.5 8.5
t19.5 27.5l115 565q1 3 1 8q0 29 -49 29h-28l6 31h339q94 0 137 -36.5t43 -105.5q0 -31 -7 -63q-17 -78 -56.5 -127.5zM528 555q0 99 -100 99h-115l-65 -319h115q65 0 103.5 40.5t54.5 119.5q7 31 7 60zM320.5 -81.5q12.5 -12.5 12.5 -37.5q0 -54 -42.5 -108.5t-103.5 -93.5
l-14 19q29 27 48.5 51t24.5 50q1 4 1 10q0 15 -11 32q-10 18 -10 31q0 24 17.5 41.5t44.5 17.5q20 0 32.5 -12.5z" />
    <glyph glyph-name="rcommaaccent" unicode="&#x157;" horiz-adv-x="420" 
d="M445.5 470.5q18.5 -9.5 18.5 -29.5q0 -6 -1 -9q-4 -23 -17.5 -34.5t-32.5 -11.5q-12 0 -18 4t-12 12q-5 8 -11 12t-17 4q-23 0 -49 -19.5t-48.5 -55.5t-34.5 -83l-53 -260l-113 -10l80 392q1 3 1 8q0 16 -18 16q-8 0 -29 -7l-1 26l149 50h27l-19 -96q23 46 67 73.5
t85 27.5q28 0 46.5 -9.5zM121.5 -76.5q12.5 -13.5 12.5 -38.5q0 -11 -3 -24q-11 -48 -50.5 -95t-92.5 -81l-15 19q63 56 73 101q1 4 1 11q0 13 -10 31q-11 16 -11 32q0 23 18.5 40.5t43.5 17.5q21 0 33.5 -13.5z" />
    <glyph glyph-name="Rcaron" unicode="&#x158;" horiz-adv-x="658" 
d="M424 781l-98 140l23 23l93 -89q17 -13 25 -13t27 13l129 89l15 -23l-154 -140h-60zM578.5 367.5q-39.5 -49.5 -110.5 -68.5q27 -17 35.5 -45t12.5 -78q3 -45 8.5 -74.5t21.5 -49.5t48 -21l-6 -31h-89q-50 0 -72.5 25t-27.5 77q-1 18 -1 56q-1 54 -5.5 83t-22.5 48h-132
l-45 -222q-1 -3 -1 -9q0 -27 48 -27h29l-6 -31h-282l6 31h27q29 0 44.5 8.5t19.5 27.5l115 565q1 3 1 8q0 29 -49 29h-28l6 31h339q94 0 137 -36.5t43 -105.5q0 -31 -7 -63q-17 -78 -56.5 -127.5zM528 555q0 99 -100 99h-115l-65 -319h115q65 0 103.5 40.5t54.5 119.5
q7 31 7 60z" />
    <glyph glyph-name="rcaron" unicode="&#x159;" horiz-adv-x="420" 
d="M257 549l-98 140l23 23l93 -89q17 -13 25 -13t27 13l129 89l15 -23l-154 -140h-60zM445.5 470.5q18.5 -9.5 18.5 -29.5q0 -6 -1 -9q-4 -23 -17.5 -34.5t-32.5 -11.5q-12 0 -18 4t-12 12q-5 8 -11 12t-17 4q-23 0 -49 -19.5t-48.5 -55.5t-34.5 -83l-53 -260l-113 -10
l80 392q1 3 1 8q0 16 -18 16q-8 0 -29 -7l-1 26l149 50h27l-19 -96q23 46 67 73.5t85 27.5q28 0 46.5 -9.5z" />
    <glyph glyph-name="Sacute" unicode="&#x15a;" horiz-adv-x="577" 
d="M315 810l136 114q15 12 27.5 19.5t27.5 7.5q16 0 23.5 -7.5t7.5 -19.5q0 -17 -12 -31t-36 -26l-161 -87zM139 6.5q-43 16.5 -68 43.5q-8 8 -12 8t-7.5 -5t-4.5 -12l-9 -42h-40l40 196h34q-1 -6 -1 -16q0 -44 23 -76t60 -49t79 -17q71 0 121.5 34t63.5 98q3 12 3 24
q0 32 -19 56t-47 41t-75 39q-53 24 -86 44.5t-55.5 51.5t-22.5 75q0 21 4 38q17 85 88 128.5t177 43.5q111 0 165 -50q8 -8 10 -8q4 0 6 7l10 47h41l-40 -197h-34q1 7 1 19q0 65 -39.5 99.5t-103.5 34.5q-65 0 -108.5 -29t-53.5 -79q-2 -14 -2 -20q0 -28 17.5 -48.5
t42.5 -34.5t71 -34q57 -25 92 -45.5t59.5 -54.5t24.5 -84q0 -18 -5 -45q-20 -96 -98.5 -147t-187.5 -51q-71 0 -114 16.5z" />
    <glyph glyph-name="sacute" unicode="&#x15b;" horiz-adv-x="455" 
d="M220 578l136 114q15 12 27.5 19.5t27.5 7.5q16 0 23.5 -8t7.5 -20q0 -16 -12.5 -29.5t-35.5 -26.5l-161 -87zM59.5 17q-43.5 27 -43.5 70q0 6 2 18q4 18 17 28.5t29 10.5t25 -9t5 -23q-1 -5 -5 -12t-5 -12q-3 -19 20 -36.5t69 -17.5q53 0 88 19.5t42 56.5q1 4 1 10
q0 23 -22.5 37.5t-69.5 31.5q-45 17 -72.5 31.5t-47.5 39.5t-20 62q0 10 4 32q12 60 66 93t142 33q85 0 125 -26t40 -68q0 -14 -2 -21q-3 -18 -16 -28.5t-29 -10.5q-13 0 -22 7t-9 19q0 9 4.5 16.5t5.5 12.5q3 12 -4.5 24.5t-26.5 21t-51 8.5q-44 0 -74 -17.5t-37 -48.5
q-1 -4 -1 -12q0 -27 24 -42.5t74 -33.5q43 -16 70 -29.5t46 -37t19 -59.5q0 -13 -3 -30q-15 -69 -78.5 -102t-148.5 -33q-87 0 -130.5 27z" />
    <glyph glyph-name="Scircumflex" unicode="&#x15c;" horiz-adv-x="577" 
d="M252 804l154 140h60l98 -140l-24 -23l-94 89q-13 13 -23 13q-11 0 -29 -13l-127 -89zM139 6.5q-43 16.5 -68 43.5q-8 8 -12 8t-7.5 -5t-4.5 -12l-9 -42h-40l40 196h34q-1 -6 -1 -16q0 -44 23 -76t60 -49t79 -17q71 0 121.5 34t63.5 98q3 12 3 24q0 32 -19 56t-47 41
t-75 39q-53 24 -86 44.5t-55.5 51.5t-22.5 75q0 21 4 38q17 85 88 128.5t177 43.5q111 0 165 -50q8 -8 10 -8q4 0 6 7l10 47h41l-40 -197h-34q1 7 1 19q0 65 -39.5 99.5t-103.5 34.5q-65 0 -108.5 -29t-53.5 -79q-2 -14 -2 -20q0 -28 17.5 -48.5t42.5 -34.5t71 -34
q57 -25 92 -45.5t59.5 -54.5t24.5 -84q0 -18 -5 -45q-20 -96 -98.5 -147t-187.5 -51q-71 0 -114 16.5z" />
    <glyph glyph-name="scircumflex" unicode="&#x15d;" horiz-adv-x="455" 
d="M155 572l154 140h60l98 -140l-24 -23l-94 89q-13 13 -23 13q-11 0 -29 -13l-127 -89zM59.5 17q-43.5 27 -43.5 70q0 6 2 18q4 18 17 28.5t29 10.5t25 -9t5 -23q-1 -5 -5 -12t-5 -12q-3 -19 20 -36.5t69 -17.5q53 0 88 19.5t42 56.5q1 4 1 10q0 23 -22.5 37.5t-69.5 31.5
q-45 17 -72.5 31.5t-47.5 39.5t-20 62q0 10 4 32q12 60 66 93t142 33q85 0 125 -26t40 -68q0 -14 -2 -21q-3 -18 -16 -28.5t-29 -10.5q-13 0 -22 7t-9 19q0 9 4.5 16.5t5.5 12.5q3 12 -4.5 24.5t-26.5 21t-51 8.5q-44 0 -74 -17.5t-37 -48.5q-1 -4 -1 -12q0 -27 24 -42.5
t74 -33.5q43 -16 70 -29.5t46 -37t19 -59.5q0 -13 -3 -30q-15 -69 -78.5 -102t-148.5 -33q-87 0 -130.5 27z" />
    <glyph glyph-name="Scedilla" unicode="&#x15e;" horiz-adv-x="577" 
d="M543 509q1 7 1 19q0 65 -39.5 99.5t-103.5 34.5q-65 0 -108.5 -29t-53.5 -79q-2 -14 -2 -20q0 -28 17.5 -48.5t42.5 -34.5t71 -34q57 -25 92 -45.5t59.5 -54.5t24.5 -84q0 -18 -5 -45q-20 -96 -98.5 -147t-187.5 -51l-29 -40q31 0 58.5 -15t27.5 -47q0 -4 -2 -16
q-11 -55 -57 -75t-104 -20q-22 0 -49 5l11 31q16 -2 22 -2q94 0 104 57q5 24 -22 34.5t-52 10.5l-5 11l51 68q-90 9 -136 58q-8 8 -12 8t-7.5 -5t-4.5 -12l-9 -42h-40l40 196h34q-1 -6 -1 -16q0 -44 23 -76t60 -49t79 -17q71 0 121.5 34t63.5 98q3 12 3 24q0 32 -19 56
t-47 41t-75 39q-53 24 -86 44.5t-55.5 51.5t-22.5 75q0 21 4 38q17 85 88 128.5t177 43.5q111 0 165 -50q8 -8 10 -8q4 0 6 7l10 47h41l-40 -197h-34z" />
    <glyph glyph-name="scedilla" unicode="&#x15f;" horiz-adv-x="455" 
d="M409 454q40 -26 40 -68q0 -14 -2 -21q-3 -18 -16 -28.5t-29 -10.5q-13 0 -22 7t-9 19q0 9 4.5 16.5t5.5 12.5q3 12 -4.5 24.5t-26.5 21t-51 8.5q-44 0 -74 -17.5t-37 -48.5q-1 -4 -1 -12q0 -27 24 -42.5t74 -33.5q43 -16 70 -29.5t46 -37t19 -59.5q0 -13 -3 -30
q-14 -65 -71.5 -98t-135.5 -37l-37 -50q31 0 58.5 -15t27.5 -47q0 -4 -2 -16q-18 -95 -161 -95q-22 0 -49 5l12 31q14 -2 21 -2q94 0 104 57q5 24 -21.5 34.5t-52.5 10.5l-5 11l58 77q-74 4 -110.5 30.5t-36.5 65.5q0 6 2 18q4 18 17 28.5t29 10.5t25 -9t5 -23q-1 -5 -5 -12
t-5 -12q-3 -19 20 -36.5t69 -17.5q53 0 88 19.5t42 56.5q1 4 1 10q0 23 -22.5 37.5t-69.5 31.5q-45 17 -72.5 31.5t-47.5 39.5t-20 62q0 10 4 32q12 60 66 93t142 33q85 0 125 -26z" />
    <glyph glyph-name="Scaron" unicode="&#x160;" horiz-adv-x="577" 
d="M276 921l23 23l92 -89q17 -13 25 -13t28 13l128 89l16 -23l-155 -140h-60zM139 6.5q-43 16.5 -68 43.5q-8 8 -12 8t-7.5 -5t-4.5 -12l-9 -42h-40l40 196h34q-1 -6 -1 -16q0 -44 23 -76t60 -49t79 -17q71 0 121.5 34t63.5 98q3 12 3 24q0 32 -19 56t-47 41t-75 39
q-53 24 -86 44.5t-55.5 51.5t-22.5 75q0 21 4 38q17 85 88 128.5t177 43.5q111 0 165 -50q8 -8 10 -8q4 0 6 7l10 47h41l-40 -197h-34q1 7 1 19q0 65 -39.5 99.5t-103.5 34.5q-65 0 -108.5 -29t-53.5 -79q-2 -14 -2 -20q0 -28 17.5 -48.5t42.5 -34.5t71 -34q57 -25 92 -45.5
t59.5 -54.5t24.5 -84q0 -18 -5 -45q-20 -96 -98.5 -147t-187.5 -51q-71 0 -114 16.5z" />
    <glyph glyph-name="scaron" unicode="&#x161;" horiz-adv-x="455" 
d="M180 689l23 23l92 -89q17 -13 25 -13t28 13l128 89l16 -23l-155 -140h-60zM59.5 17q-43.5 27 -43.5 70q0 6 2 18q4 18 17 28.5t29 10.5t25 -9t5 -23q-1 -5 -5 -12t-5 -12q-3 -19 20 -36.5t69 -17.5q53 0 88 19.5t42 56.5q1 4 1 10q0 23 -22.5 37.5t-69.5 31.5
q-45 17 -72.5 31.5t-47.5 39.5t-20 62q0 10 4 32q12 60 66 93t142 33q85 0 125 -26t40 -68q0 -14 -2 -21q-3 -18 -16 -28.5t-29 -10.5q-13 0 -22 7t-9 19q0 9 4.5 16.5t5.5 12.5q3 12 -4.5 24.5t-26.5 21t-51 8.5q-44 0 -74 -17.5t-37 -48.5q-1 -4 -1 -12q0 -27 24 -42.5
t74 -33.5q43 -16 70 -29.5t46 -37t19 -59.5q0 -13 -3 -30q-15 -69 -78.5 -102t-148.5 -33q-87 0 -130.5 27z" />
    <glyph glyph-name="uni0162" unicode="&#x162;" horiz-adv-x="647" 
d="M717 700l-41 -204h-31q7 35 7 71q0 87 -45 87h-131l-120 -587q-1 -3 -1 -9q0 -27 48 -27h29l-6 -31h-121l-38 -50q32 0 59.5 -15t27.5 -47q0 -4 -2 -16q-11 -55 -57.5 -75t-104.5 -20q-22 0 -49 5l12 31q14 -2 21 -2q95 0 105 57q5 24 -22 34.5t-53 10.5l-5 11l58 76
h-113l6 31h28q28 0 43.5 8.5t19.5 27.5l120 587h-132q-38 0 -65 -54.5t-38 -103.5h-30l41 204h580z" />
    <glyph glyph-name="uni0163" unicode="&#x163;" horiz-adv-x="398" 
d="M182 129q-4 -20 -4 -40q0 -29 13.5 -43.5t41.5 -14.5q30 0 55.5 16t35.5 51h36q-15 -53 -54.5 -79.5t-93.5 -28.5l-32 -43q33 0 60 -15.5t27 -47.5q0 -5 -2 -15q-11 -55 -57.5 -75t-104.5 -20q-22 0 -49 5l11 31q16 -2 21 -2q95 0 106 57q5 24 -22 34.5t-53 10.5l-6 11
l54 71q-99 12 -99 96q0 20 4 39l61 299h-71l9 44h71l11 52l105 82h23l-27 -134h134l-9 -44h-134z" />
    <glyph glyph-name="Tcaron" unicode="&#x164;" horiz-adv-x="647" 
d="M316 921l23 23l92 -89q7 -5 13.5 -9t11.5 -4q8 0 28 13l128 89l16 -23l-155 -140h-59zM150 31h28q28 0 43.5 8.5t19.5 27.5l120 587h-132q-38 0 -65 -54.5t-38 -103.5h-30l41 204h580l-41 -204h-31q7 35 7 71q0 87 -45 87h-131l-120 -587q-1 -3 -1 -9q0 -27 48 -27h29
l-6 -31h-282z" />
    <glyph glyph-name="tcaron" unicode="&#x165;" horiz-adv-x="492" 
d="M561 660.5q12 -12.5 12 -37.5q0 -54 -42 -108.5t-103 -93.5l-14 19q29 26 48 50.5t24 50.5q1 4 1 10q0 9 -3 17t-7 15q-10 18 -10 30q0 25 18 42.5t44 17.5q20 0 32 -12.5zM252 470h134l-9 -44h-134l-61 -297q-4 -20 -4 -40q0 -29 13.5 -43.5t41.5 -14.5q30 0 55.5 16
t35.5 51h36q-16 -56 -58 -82t-100 -26q-65 0 -100.5 22.5t-35.5 75.5q0 20 4 39l61 299h-71l9 44h71l11 52l105 82h23z" />
    <glyph glyph-name="Tbar" unicode="&#x166;" horiz-adv-x="647" 
d="M717 700l-41 -204h-31q7 35 7 71q0 87 -45 87h-131l-60 -292h137l-11 -54h-137l-49 -241q-1 -3 -1 -9q0 -27 48 -27h29l-6 -31h-282l6 31h28q28 0 43.5 8.5t19.5 27.5l49 241h-135l10 54h136l60 292h-132q-38 0 -65 -54.5t-38 -103.5h-30l41 204h580z" />
    <glyph glyph-name="tbar" unicode="&#x167;" horiz-adv-x="398" 
d="M243 426l-26 -125h126l-9 -43h-126l-26 -129q-4 -20 -4 -40q0 -29 13.5 -43.5t41.5 -14.5q30 0 55.5 16t35.5 51h36q-16 -56 -58 -82t-100 -26q-65 0 -100.5 22.5t-35.5 75.5q0 20 4 39l27 131h-56l9 43h56l25 125h-71l9 44h71l11 52l105 82h23l-27 -134h134l-9 -44h-134
z" />
    <glyph glyph-name="Utilde" unicode="&#x168;" horiz-adv-x="730" 
d="M332 791q19 43 51 72.5t72 29.5q17 0 32.5 -6.5t40.5 -19.5t40 -19t31 -6q24 0 41 14.5t36 46.5l20 -13q-50 -105 -125 -105q-17 0 -32 6.5t-39 19.5q-21 13 -37.5 19.5t-33.5 6.5q-24 0 -41.5 -14t-35.5 -45zM155.5 28q-59.5 38 -59.5 121q0 29 7 60l86 423q1 3 1 8
q0 29 -45 29h-23l6 31h266l-6 -31h-24q-24 0 -40 -9.5t-20 -27.5l-88 -432q-5 -22 -5 -48q0 -63 41.5 -89t112.5 -26q76 0 135.5 37.5t77.5 125.5l88 432q1 3 1 8q0 29 -45 29h-23l6 31h204l-5 -31h-24q-24 0 -40 -9.5t-20 -27.5l-86 -423q-46 -219 -306 -219
q-113 0 -172.5 38z" />
    <glyph glyph-name="utilde" unicode="&#x169;" horiz-adv-x="603" 
d="M255.5 591q-17.5 -14 -35.5 -45l-20 13q19 43 51 72.5t72 29.5q17 0 32 -6t40 -19q22 -13 38.5 -19.5t33.5 -6.5q23 0 40 14.5t36 46.5l21 -13q-21 -45 -52.5 -75t-72.5 -30q-17 0 -33 6.5t-39 19.5q-21 13 -37 19.5t-33 6.5q-24 0 -41.5 -14zM508 32q8 0 38 8l-4 -21
q-19 -14 -45 -21.5t-51 -7.5q-29 0 -47 16t-18 46q0 7 2 21q-28 -36 -77.5 -59.5t-102.5 -23.5q-72 0 -108.5 28t-36.5 77q0 15 3 31l53 256q1 3 1 8q0 16 -18 16q-8 0 -29 -7l-1 26l149 50h27l-68 -336q-4 -16 -4 -33q0 -35 19.5 -52t56.5 -17q30 0 63 17t60 51.5t37 84.5
l39 192q1 3 1 8q0 16 -18 16q-8 0 -29 -7l-1 26l149 50h27l-83 -411q-2 -12 -2 -15q0 -17 18 -17z" />
    <glyph glyph-name="Umacron" unicode="&#x16a;" horiz-adv-x="730" 
d="M343 829h337l-10 -48h-337zM155.5 28q-59.5 38 -59.5 121q0 29 7 60l86 423q1 3 1 8q0 29 -45 29h-23l6 31h266l-6 -31h-24q-24 0 -40 -9.5t-20 -27.5l-88 -432q-5 -22 -5 -48q0 -63 41.5 -89t112.5 -26q76 0 135.5 37.5t77.5 125.5l88 432q1 3 1 8q0 29 -45 29h-23l6 31
h204l-5 -31h-24q-24 0 -40 -9.5t-20 -27.5l-86 -423q-46 -219 -306 -219q-113 0 -172.5 38z" />
    <glyph glyph-name="umacron" unicode="&#x16b;" horiz-adv-x="603" 
d="M541 569h-337l10 48h337zM508 32q8 0 38 8l-4 -21q-19 -14 -45 -21.5t-51 -7.5q-29 0 -47 16t-18 46q0 7 2 21q-28 -36 -77.5 -59.5t-102.5 -23.5q-72 0 -108.5 28t-36.5 77q0 15 3 31l53 256q1 3 1 8q0 16 -18 16q-8 0 -29 -7l-1 26l149 50h27l-68 -336q-4 -16 -4 -33
q0 -35 19.5 -52t56.5 -17q30 0 63 17t60 51.5t37 84.5l39 192q1 3 1 8q0 16 -18 16q-8 0 -29 -7l-1 26l149 50h27l-83 -411q-2 -12 -2 -15q0 -17 18 -17z" />
    <glyph glyph-name="Ubreve" unicode="&#x16c;" horiz-adv-x="730" 
d="M408.5 802.5q-28.5 27.5 -28.5 74.5q0 17 3 35h33q-4 -40 20 -61.5t75 -21.5q52 0 84 21.5t43 61.5h35q-15 -61 -57 -99t-116 -38q-63 0 -91.5 27.5zM155.5 28q-59.5 38 -59.5 121q0 29 7 60l86 423q1 3 1 8q0 29 -45 29h-23l6 31h266l-6 -31h-24q-24 0 -40 -9.5
t-20 -27.5l-88 -432q-5 -22 -5 -48q0 -63 41.5 -89t112.5 -26q76 0 135.5 37.5t77.5 125.5l88 432q1 3 1 8q0 29 -45 29h-23l6 31h204l-5 -31h-24q-24 0 -40 -9.5t-20 -27.5l-86 -423q-46 -219 -306 -219q-113 0 -172.5 38z" />
    <glyph glyph-name="ubreve" unicode="&#x16d;" horiz-adv-x="603" 
d="M276 570.5q-29 26.5 -29 73.5q0 11 4 37h32q-4 -40 20 -61.5t75 -21.5q52 0 84.5 21.5t43.5 61.5h34q-15 -61 -57 -99t-115 -38q-63 0 -92 26.5zM508 32q8 0 38 8l-4 -21q-19 -14 -45 -21.5t-51 -7.5q-29 0 -47 16t-18 46q0 7 2 21q-28 -36 -77.5 -59.5t-102.5 -23.5
q-72 0 -108.5 28t-36.5 77q0 15 3 31l53 256q1 3 1 8q0 16 -18 16q-8 0 -29 -7l-1 26l149 50h27l-68 -336q-4 -16 -4 -33q0 -35 19.5 -52t56.5 -17q30 0 63 17t60 51.5t37 84.5l39 192q1 3 1 8q0 16 -18 16q-8 0 -29 -7l-1 26l149 50h27l-83 -411q-2 -12 -2 -15
q0 -17 18 -17z" />
    <glyph glyph-name="Uring" unicode="&#x16e;" horiz-adv-x="730" 
d="M440 789q-21 20 -21 53q0 7 2 21q9 42 41 68t75 26q36 0 57 -19.5t21 -51.5q0 -50 -34 -83.5t-83 -33.5q-37 0 -58 20zM551.5 829q18.5 19 18.5 47q0 19 -11.5 29.5t-30.5 10.5q-25 0 -44 -18.5t-19 -47.5q0 -19 11.5 -29.5t30.5 -10.5q26 0 44.5 19zM155.5 28
q-59.5 38 -59.5 121q0 29 7 60l86 423q1 3 1 8q0 29 -45 29h-23l6 31h266l-6 -31h-24q-24 0 -40 -9.5t-20 -27.5l-88 -432q-5 -22 -5 -48q0 -63 41.5 -89t112.5 -26q76 0 135.5 37.5t77.5 125.5l88 432q1 3 1 8q0 29 -45 29h-23l6 31h204l-5 -31h-24q-24 0 -40 -9.5
t-20 -27.5l-86 -423q-46 -219 -306 -219q-113 0 -172.5 38z" />
    <glyph glyph-name="uring" unicode="&#x16f;" horiz-adv-x="603" 
d="M307.5 556.5q-21.5 19.5 -21.5 51.5q0 51 35 84t83 33q37 0 58 -19.5t21 -51.5q0 -11 -3 -23q-9 -42 -40.5 -68t-73.5 -26q-37 0 -58.5 19.5zM333 618q0 -18 11.5 -29t29.5 -11q22 0 39.5 14.5t22.5 38.5q1 5 1 13q0 18 -11.5 29t-29.5 11q-22 0 -39.5 -14.5t-22.5 -38.5
q-1 -5 -1 -13zM508 32q8 0 38 8l-4 -21q-19 -14 -45 -21.5t-51 -7.5q-29 0 -47 16t-18 46q0 7 2 21q-28 -36 -77.5 -59.5t-102.5 -23.5q-72 0 -108.5 28t-36.5 77q0 15 3 31l53 256q1 3 1 8q0 16 -18 16q-8 0 -29 -7l-1 26l149 50h27l-68 -336q-4 -16 -4 -33q0 -35 19.5 -52
t56.5 -17q30 0 63 17t60 51.5t37 84.5l39 192q1 3 1 8q0 16 -18 16q-8 0 -29 -7l-1 26l149 50h27l-83 -411q-2 -12 -2 -15q0 -17 18 -17z" />
    <glyph glyph-name="Uhungarumlaut" unicode="&#x170;" horiz-adv-x="730" 
d="M340 810l133 113q2 1 18 14t37 13q18 0 26.5 -10.5t5.5 -23.5q-6 -27 -47 -50l-160 -86zM506 810l134 113q2 1 18 14t38 13q18 0 26 -10.5t5 -23.5q-6 -27 -47 -50l-161 -86zM155.5 28q-59.5 38 -59.5 121q0 29 7 60l86 423q1 3 1 8q0 29 -45 29h-23l6 31h266l-6 -31h-24
q-24 0 -40 -9.5t-20 -27.5l-88 -432q-5 -22 -5 -48q0 -63 41.5 -89t112.5 -26q76 0 135.5 37.5t77.5 125.5l88 432q1 3 1 8q0 29 -45 29h-23l6 31h204l-5 -31h-24q-24 0 -40 -9.5t-20 -27.5l-86 -423q-46 -219 -306 -219q-113 0 -172.5 38z" />
    <glyph glyph-name="uhungarumlaut" unicode="&#x171;" horiz-adv-x="603" 
d="M215 548l-13 30l133 113q2 1 18 14t37 13q18 0 26 -10.5t5 -23.5q-4 -26 -47 -50zM583.5 707.5q7.5 -10.5 4.5 -23.5q-4 -26 -47 -50l-160 -86l-13 30l134 113q2 1 18 14t38 13q18 0 25.5 -10.5zM492 64q-2 -12 -2 -15q0 -17 18 -17q8 0 38 8l-4 -21q-19 -14 -45 -21.5
t-51 -7.5q-29 0 -47 16t-18 46q0 7 2 21q-28 -36 -77.5 -59.5t-102.5 -23.5q-72 0 -108.5 28t-36.5 77q0 15 3 31l53 256q1 3 1 8q0 16 -18 16q-8 0 -29 -7l-1 26l149 50h27l-68 -336q-4 -16 -4 -33q0 -35 19.5 -52t56.5 -17q30 0 63 17t60 51.5t37 84.5l39 192q1 3 1 8
q0 16 -18 16q-8 0 -29 -7l-1 26l149 50h27z" />
    <glyph glyph-name="Uogonek" unicode="&#x172;" horiz-adv-x="730" 
d="M809 700l-5 -31h-24q-24 0 -40 -9.5t-20 -27.5l-86 -423q-38 -179 -219 -212q-66 -47 -78 -104q-2 -12 -2 -15q0 -21 13 -31.5t35 -10.5t47 11l3 -22q-41 -28 -87 -28q-44 0 -63 19.5t-19 47.5q0 36 25 69t66 58q-9 -1 -27 -1q-113 0 -172.5 38t-59.5 121q0 29 7 60
l86 423q1 3 1 8q0 29 -45 29h-23l6 31h266l-6 -31h-24q-24 0 -40 -9.5t-20 -27.5l-88 -432q-5 -22 -5 -48q0 -63 41.5 -89t112.5 -26q76 0 135.5 37.5t77.5 125.5l88 432q1 3 1 8q0 29 -45 29h-23l6 31h204z" />
    <glyph glyph-name="uogonek" unicode="&#x173;" horiz-adv-x="603" 
d="M508 32q8 0 38 8l-4 -21q-21 -15 -50 -23q-38 -27 -59.5 -58.5t-21.5 -61.5q0 -21 13 -31.5t35 -10.5t47 11l3 -22q-41 -28 -88 -28q-44 0 -62.5 19.5t-18.5 47.5q0 37 26 70.5t69 58.5q-25 2 -39.5 18t-14.5 43q0 7 2 21q-28 -36 -77.5 -59.5t-102.5 -23.5
q-72 0 -108.5 28t-36.5 77q0 15 3 31l53 256q1 3 1 8q0 16 -18 16q-8 0 -29 -7l-1 26l149 50h27l-68 -336q-4 -16 -4 -33q0 -35 19.5 -52t56.5 -17q30 0 63 17t60 51.5t37 84.5l39 192q1 3 1 8q0 16 -18 16q-8 0 -29 -7l-1 26l149 50h27l-83 -411q-2 -12 -2 -15
q0 -17 18 -17z" />
    <glyph glyph-name="Wcircumflex" unicode="&#x174;" horiz-adv-x="1003" 
d="M511 781l-16 23l155 140h59l98 -140l-24 -23l-93 89q-13 13 -23 13t-30 -13zM1097 700l-5 -31h-16q-54 0 -73 -37l-308 -635h-71l-54 462l-255 -462h-86l-54 637q-1 17 -16 26t-33 9h-18l5 31h263l-5 -31h-19q-23 0 -37.5 -10.5t-14.5 -27.5l22 -506l236 434l-9 75
q-2 17 -16.5 26t-32.5 9h-18l6 31h248l-5 -31h-19q-20 0 -36.5 -10t-15.5 -26l42 -508l228 504q4 8 4 15q0 12 -11 18.5t-24 6.5h-24l5 31h217z" />
    <glyph glyph-name="wcircumflex" unicode="&#x175;" horiz-adv-x="749" 
d="M327 549l-15 23l155 140h59l98 -140l-24 -23l-93 89q-15 13 -23 13q-11 0 -30 -13zM744 458q14 -22 14 -59q0 -28 -6 -57q-16 -80 -56.5 -160.5t-110 -136t-164.5 -55.5q-89 0 -97 76q-72 -76 -150 -76q-60 0 -89 24.5t-29 67.5q0 10 4 32l54 268q1 3 1 8q0 16 -18 16
q-8 0 -29 -7l-1 26l149 50h27l-74 -363q-3 -16 -3 -29q0 -53 55 -53q44 0 104 75l3 18l70 343h99l-72 -353q-6 -27 -6 -44q0 -21 9.5 -31.5t30.5 -10.5q29 0 66 36t68 93t43 115q13 62 13 114q0 50 -13 76q30 19 64 19q30 0 44 -22z" />
    <glyph glyph-name="Ycircumflex" unicode="&#x176;" horiz-adv-x="677" 
d="M304 818l155 140h59l98 -140l-24 -23l-93 89q-13 13 -23 13q-11 0 -30 -13l-126 -89zM157 31h28q29 0 44.5 8.5t19.5 27.5l45 224l-119 343q-5 16 -19 25.5t-30 9.5h-18l5 31h256l-6 -31h-26q-22 0 -35.5 -11.5t-8.5 -25.5l91 -288l219 284q9 12 9 21q0 10 -9 15t-25 5
h-30l6 31h217l-6 -31h-21q-18 0 -36 -10t-31 -27l-268 -342l-45 -223q-1 -3 -1 -9q0 -27 48 -27h29l-6 -31h-282z" />
    <glyph glyph-name="ycircumflex" unicode="&#x177;" horiz-adv-x="559" 
d="M241 549l-15 23l154 140h60l98 -140l-24 -23l-94 89q-13 13 -23 13q-11 0 -29 -13zM566.5 462q17.5 -18 17.5 -50q0 -15 -2 -24q-5 -22 -25.5 -52t-54.5 -74l-346 -429q-33 -41 -73.5 -67t-75.5 -26q-27 0 -42 10.5t-15 29.5q0 4 2 14q3 16 15.5 29t28.5 13q14 0 20 -6.5
t10 -18.5q1 -1 3 -6.5t5 -7.5t7 -2q14 0 39 22t47 51l107 136l-104 400q-1 7 -15 7q-10 0 -24.5 -6t-18.5 -7l-3 26l104 46h64l68 -375l80 102q27 33 52 80t32 85q4 17 4 34q0 41 -24 63q14 9 36 15t40 6q24 0 41.5 -18z" />
    <glyph glyph-name="Ydieresis" unicode="&#x178;" horiz-adv-x="677" 
d="M339.5 804.5q-10.5 10.5 -10.5 28.5q0 9 1 13q5 24 21.5 38.5t39.5 14.5q19 0 30 -10.5t11 -28.5q0 -28 -18 -47t-45 -19q-19 0 -29.5 10.5zM552 805q-11 11 -11 30q0 7 1 11q5 24 22 38.5t41 14.5q19 0 29.5 -10t10.5 -28q0 -28 -18 -47.5t-44 -19.5q-20 0 -31 11z
M157 31h28q29 0 44.5 8.5t19.5 27.5l45 224l-119 343q-5 16 -19 25.5t-30 9.5h-18l5 31h256l-6 -31h-26q-22 0 -35.5 -11.5t-8.5 -25.5l91 -288l219 284q9 12 9 21q0 10 -9 15t-25 5h-30l6 31h217l-6 -31h-21q-18 0 -36 -10t-31 -27l-268 -342l-45 -223q-1 -3 -1 -9
q0 -27 48 -27h29l-6 -31h-282z" />
    <glyph glyph-name="Zacute" unicode="&#x179;" horiz-adv-x="563" 
d="M356 810l136 114q15 12 27.5 19.5t27.5 7.5q16 0 23.5 -7.5t7.5 -19.5q0 -17 -12 -31t-36 -26l-160 -87zM-12 29l515 625h-234q-78 0 -116 -133h-30l36 179h477l-4 -21l-518 -633h270q73 0 117 137h30l-54 -183h-494z" />
    <glyph glyph-name="zacute" unicode="&#x17a;" horiz-adv-x="449" 
d="M228 578l136 114q30 27 55 27q15 0 22.5 -8t7.5 -19q0 -17 -12 -31t-36 -26l-160 -87zM255 -4q-22 6 -50 17q-30 11 -50.5 16.5t-42.5 5.5q-46 0 -89 -39l-43 41l372 389h-196q-25 0 -54 -85h-27l26 129h389l-6 -29l-342 -353q9 2 23 2q20 0 41 -7t25 -8q43 -17 75 -17
q56 0 93 87l21 -7q-20 -74 -48.5 -111t-71.5 -37q-23 0 -45 6z" />
    <glyph glyph-name="Zdotaccent" unicode="&#x17b;" horiz-adv-x="563" 
d="M374 777.5q-11 10.5 -11 27.5q0 4 2 14q5 23 21.5 38t38.5 15q20 0 30.5 -11t10.5 -30q0 -8 -1 -12q-5 -23 -21.5 -37.5t-39.5 -14.5q-19 0 -30 10.5zM-12 29l515 625h-234q-78 0 -116 -133h-30l36 179h477l-4 -21l-518 -633h270q73 0 117 137h30l-54 -183h-494z" />
    <glyph glyph-name="zdotaccent" unicode="&#x17c;" horiz-adv-x="449" 
d="M267 555.5q-11 10.5 -11 28.5q0 9 1 13q5 23 21.5 38t39.5 15q19 0 29.5 -11t10.5 -29q0 -8 -1 -13q-5 -23 -21.5 -37.5t-38.5 -14.5q-19 0 -30 10.5zM255 -4q-22 6 -50 17q-30 11 -50.5 16.5t-42.5 5.5q-46 0 -89 -39l-43 41l372 389h-196q-25 0 -54 -85h-27l26 129h389
l-6 -29l-342 -353q9 2 23 2q20 0 41 -7t25 -8q43 -17 75 -17q56 0 93 87l21 -7q-20 -74 -48.5 -111t-71.5 -37q-23 0 -45 6z" />
    <glyph glyph-name="Zcaron" unicode="&#x17d;" horiz-adv-x="563" 
d="M283 921l23 23l92 -89q19 -13 25 -13q9 0 28 13l129 89l15 -23l-154 -140h-60zM-12 29l515 625h-234q-78 0 -116 -133h-30l36 179h477l-4 -21l-518 -633h270q73 0 117 137h30l-54 -183h-494z" />
    <glyph glyph-name="zcaron" unicode="&#x17e;" horiz-adv-x="449" 
d="M180 689l23 23l92 -89q17 -13 25 -13t28 13l128 89l16 -23l-155 -140h-60zM255 -4q-22 6 -50 17q-30 11 -50.5 16.5t-42.5 5.5q-46 0 -89 -39l-43 41l372 389h-196q-25 0 -54 -85h-27l26 129h389l-6 -29l-342 -353q9 2 23 2q20 0 41 -7t25 -8q43 -17 75 -17q56 0 93 87
l21 -7q-20 -74 -48.5 -111t-71.5 -37q-23 0 -45 6z" />
    <glyph glyph-name="uni018F" unicode="&#x18f;" horiz-adv-x="679" 
d="M621 642.5q69 -67.5 69 -189.5q0 -54 -11 -106q-34 -170 -135.5 -263.5t-259.5 -93.5q-123 0 -182 60.5t-59 161.5q0 37 10 89l7 33h499l2 9q11 55 11 99q0 96 -46.5 153t-140.5 57q-78 0 -141.5 -39.5t-99.5 -123.5h-46q20 63 66 113t112.5 79t147.5 29q128 0 197 -67.5
zM445 111.5q64 63.5 98 164.5h-378q-6 -28 -6 -62q0 -70 32 -118t104 -48q86 0 150 63.5z" />
    <glyph glyph-name="florin" unicode="&#x192;" horiz-adv-x="483" 
d="M512 700q33 -22 33 -60q0 -39 -16.5 -55t-40.5 -16q-33 0 -33 25q0 14 8 26t9 17q4 19 -11.5 30.5t-39.5 11.5q-69 0 -90 -96l-23 -113h128l-9 -45h-128l-96 -476q-13 -58 -53.5 -95.5t-113.5 -37.5q-24 0 -52 4.5t-47 13.5l10 50q30 -11 60 -11q33 0 55.5 20.5
t30.5 60.5l96 471h-89l8 45h90l21 101q15 73 66 112t127 39q67 0 100 -22z" />
    <glyph glyph-name="Ohorn" unicode="&#x1a0;" horiz-adv-x="750" 
d="M841.5 635q-44.5 -51 -103.5 -79q14 -45 14 -99q0 -50 -12 -107q-35 -171 -140 -265.5t-271 -94.5q-137 0 -206 65t-69 186q0 51 12 109q34 170 139 265t271 95q193 0 252 -129q61 36 70 81q1 4 1 10q0 16 -11 32q-10 18 -10 31q0 23 18 40.5t44 17.5q21 0 33.5 -13
t12.5 -38q0 -56 -44.5 -107zM636 463q0 95 -42.5 147.5t-127.5 52.5q-107 0 -180.5 -83.5t-103.5 -229.5q-12 -61 -12 -113q0 -95 42.5 -147t126.5 -52q109 0 182.5 83t102.5 229q12 62 12 113z" />
    <glyph glyph-name="ohorn" unicode="&#x1a1;" horiz-adv-x="603" 
d="M666.5 532.5q12.5 -13.5 12.5 -38.5q0 -15 -2 -24q-9 -45 -44.5 -85t-82.5 -67v-14q0 -29 -8 -69q-23 -118 -102.5 -181.5t-200.5 -63.5q-103 0 -157 45.5t-54 132.5q0 33 7 67q24 117 103.5 181t201.5 64q87 0 139 -33.5t66 -96.5q47 37 47 76q0 13 -10 31t-10 30
q0 23 17.5 41t44.5 18q20 0 32.5 -13.5zM440 307q0 62 -29 95t-81 33q-67 0 -116 -52t-69 -148q-8 -42 -8 -71q0 -63 29 -96.5t83 -33.5q66 0 115 52.5t68 148.5q8 42 8 72z" />
    <glyph glyph-name="Uhorn" unicode="&#x1af;" horiz-adv-x="730" 
d="M155.5 28q-59.5 38 -59.5 121q0 29 7 60l86 423q1 3 1 8q0 29 -45 29h-23l6 31h266l-6 -31h-24q-24 0 -40 -9.5t-20 -27.5l-88 -432q-5 -22 -5 -48q0 -63 41.5 -89t112.5 -26q76 0 135.5 37.5t77.5 125.5l88 432q1 3 1 8q0 29 -45 29h-23l6 31h170q34 0 55 20t26 48
q1 3 1 9q0 9 -4 18t-5 11q-10 18 -10 30q0 7 1 11q4 21 21 35t40 14q20 0 32.5 -13.5t12.5 -39.5q0 -15 -2 -23q-13 -61 -57 -104.5t-102 -45.5q-57 -3 -64 -38l-86 -423q-46 -219 -306 -219q-113 0 -172.5 38z" />
    <glyph glyph-name="uhorn" unicode="&#x1b0;" horiz-adv-x="603" 
d="M94.5 18q-36.5 28 -36.5 77q0 15 3 31l53 256q1 3 1 8q0 16 -18 16q-8 0 -29 -7l-1 26l149 50h27l-68 -336q-4 -16 -4 -33q0 -35 19.5 -52t56.5 -17q30 0 63 16t59.5 49t35.5 80l41 200q1 3 1 8q0 16 -19 16q-7 0 -28 -7l-2 26l154 50h23l-17 -89q81 43 93 96q1 3 1 9
q0 9 -4 18t-5 11q-10 18 -10 30q0 7 1 11q3 21 20 35t40 14q22 0 33 -14t11 -37q0 -14 -2 -22q-12 -60 -64.5 -108.5t-120.5 -71.5l-59 -293q-2 -12 -2 -15q0 -17 18 -17q15 0 37 8l-4 -21q-41 -29 -100 -29q-29 0 -45.5 14t-16.5 41q0 6 2 20l2 7q-29 -36 -78 -59t-102 -23
q-72 0 -108.5 28z" />
    <glyph glyph-name="uni01CD" unicode="&#x1cd;" horiz-adv-x="722" 
d="M452 781l-98 140l23 23l92 -89q19 -13 25 -13q9 0 28 13l129 89l15 -23l-154 -140h-60zM684 31l-5 -31h-263l5 31h18q29 0 39.5 10.5t10.5 32.5q0 6 -2 26l-15 103h-265l-69 -123q-7 -11 -7 -22q0 -13 11 -20t29 -7h18l-6 -31h-217l6 31h15q20 0 41.5 10t31.5 26l354 616
l92 34l110 -651q3 -17 17.5 -26t32.5 -9h18zM465 249l-48 326l-184 -326h232z" />
    <glyph glyph-name="uni01CE" unicode="&#x1ce;" horiz-adv-x="568" 
d="M237 689l23 23l92 -89q19 -13 25 -13q9 0 28 13l129 89l15 -23l-154 -140h-60zM67.5 29.5q-31.5 39.5 -31.5 105.5q0 31 8 71q26 125 97 199.5t170 74.5q39 0 74 -9.5t49 -32.5l6 32h110l-82 -407q-2 -12 -2 -15q0 -17 18 -17q8 0 38 8l-5 -21q-18 -13 -46.5 -20.5
t-53.5 -7.5q-29 0 -47 10t-18 33q0 8 1 12l19 90q-55 -70 -110.5 -107.5t-98.5 -37.5q-64 0 -95.5 39.5zM272.5 78q36.5 32 70 74.5t47.5 71.5l30 144q-6 34 -26.5 48t-53.5 14q-31 0 -69 -22t-71.5 -72t-49.5 -128q-5 -28 -5 -47q0 -50 20 -82.5t46 -32.5q25 0 61.5 32z
" />
    <glyph glyph-name="uni01CF" unicode="&#x1cf;" horiz-adv-x="329" 
d="M156 921l24 23l92 -89q17 -13 25 -13t27 13l129 89l15 -23l-154 -140h-60zM-10 31h29q28 0 43.5 8.5t19.5 27.5l115 565q1 3 1 8q0 29 -48 29h-29l6 31h282l-6 -31h-28q-56 0 -63 -37l-115 -565q-1 -3 -1 -9q0 -14 12 -20.5t37 -6.5h28l-6 -31h-282z" />
    <glyph glyph-name="uni01D0" unicode="&#x1d0;" horiz-adv-x="316" 
d="M103 689l23 23l92 -89q7 -5 13.5 -9t11.5 -4q8 0 28 13l128 89l16 -23l-155 -140h-59zM84 1q-20 11 -20 34q0 7 1 11l69 337q1 3 1 8q0 9 -5.5 13t-13.5 4q-5 0 -13.5 -3t-13.5 -4l-3 26l155 49h23l-84 -412q-2 -12 -2 -15q0 -17 18 -17q8 0 38 8l-4 -21
q-19 -14 -46 -21.5t-52 -7.5q-28 0 -48 11z" />
    <glyph glyph-name="uni01D1" unicode="&#x1d1;" horiz-adv-x="741" 
d="M363 921l23 23l92 -89q7 -5 13.5 -9t11.5 -4q8 0 28 13l129 89l15 -23l-155 -140h-59zM123 55q-69 65 -69 186q0 51 12 109q34 170 139.5 265t270.5 95q137 0 206.5 -66t69.5 -187q0 -50 -12 -107q-35 -171 -140 -265.5t-271 -94.5q-137 0 -206 65zM521.5 121
q73.5 83 102.5 229q12 62 12 113q0 95 -42.5 147.5t-127.5 52.5q-107 0 -180.5 -83.5t-103.5 -229.5q-12 -61 -12 -113q0 -95 42.5 -147t126.5 -52q109 0 182.5 83z" />
    <glyph glyph-name="uni01D2" unicode="&#x1d2;" horiz-adv-x="560" 
d="M225 689l23 23l92 -89q17 -13 25 -13t28 13l128 89l16 -23l-155 -140h-59zM82 35.5q-54 45.5 -54 132.5q0 33 7 67q24 117 103.5 181t201.5 64q102 0 156 -45.5t54 -130.5q0 -29 -8 -69q-23 -118 -102.5 -181.5t-200.5 -63.5q-103 0 -157 45.5zM364 86.5
q49 52.5 68 148.5q8 42 8 72q0 62 -29 95t-81 33q-67 0 -116 -52t-69 -148q-8 -42 -8 -71q0 -63 29 -96.5t83 -33.5q66 0 115 52.5z" />
    <glyph glyph-name="uni01D3" unicode="&#x1d3;" horiz-adv-x="730" 
d="M357 921l23 23l92 -89q19 -13 25 -13q9 0 28 13l129 89l15 -23l-154 -140h-60zM155.5 28q-59.5 38 -59.5 121q0 29 7 60l86 423q1 3 1 8q0 29 -45 29h-23l6 31h266l-6 -31h-24q-24 0 -40 -9.5t-20 -27.5l-88 -432q-5 -22 -5 -48q0 -63 41.5 -89t112.5 -26
q76 0 135.5 37.5t77.5 125.5l88 432q1 3 1 8q0 29 -45 29h-23l6 31h204l-5 -31h-24q-24 0 -40 -9.5t-20 -27.5l-86 -423q-46 -219 -306 -219q-113 0 -172.5 38z" />
    <glyph glyph-name="uni01D4" unicode="&#x1d4;" horiz-adv-x="603" 
d="M345 549l-98 140l23 23l92 -89q7 -5 13.5 -9t11.5 -4q8 0 28 13l128 89l16 -23l-155 -140h-59zM508 32q8 0 38 8l-4 -21q-19 -14 -45 -21.5t-51 -7.5q-29 0 -47 16t-18 46q0 7 2 21q-28 -36 -77.5 -59.5t-102.5 -23.5q-72 0 -108.5 28t-36.5 77q0 15 3 31l53 256q1 3 1 8
q0 16 -18 16q-8 0 -29 -7l-1 26l149 50h27l-68 -336q-4 -16 -4 -33q0 -35 19.5 -52t56.5 -17q30 0 63 17t60 51.5t37 84.5l39 192q1 3 1 8q0 16 -18 16q-8 0 -29 -7l-1 26l149 50h27l-83 -411q-2 -12 -2 -15q0 -17 18 -17z" />
    <glyph glyph-name="uni01D5" unicode="&#x1d5;" horiz-adv-x="730" 
d="M359 989h337l-10 -48h-337zM347.5 790.5q-10.5 10.5 -10.5 28.5q0 9 1 13q5 24 21.5 38.5t38.5 14.5q20 0 30.5 -11t10.5 -29q0 -27 -18 -46t-45 -19q-18 0 -28.5 10.5zM560 790.5q-11 10.5 -11 28.5q0 9 1 13q5 24 22 38.5t40 14.5q19 0 30 -10.5t11 -28.5
q0 -28 -18 -47t-45 -19q-19 0 -30 10.5zM155.5 28q-59.5 38 -59.5 121q0 29 7 60l86 423q1 3 1 8q0 29 -45 29h-23l6 31h266l-6 -31h-24q-24 0 -40 -9.5t-20 -27.5l-88 -432q-5 -22 -5 -48q0 -63 41.5 -89t112.5 -26q76 0 135.5 37.5t77.5 125.5l88 432q1 3 1 8q0 29 -45 29
h-23l6 31h204l-5 -31h-24q-24 0 -40 -9.5t-20 -27.5l-86 -423q-46 -219 -306 -219q-113 0 -172.5 38z" />
    <glyph glyph-name="uni01D6" unicode="&#x1d6;" horiz-adv-x="603" 
d="M585 750l-10 -48h-337l10 48h337zM311.5 567q-17.5 -19 -45.5 -19q-18 0 -28.5 10.5t-10.5 28.5q0 28 17.5 47t43.5 19q20 0 30.5 -10t10.5 -28q0 -29 -17.5 -48zM524.5 567.5q-17.5 -19.5 -44.5 -19.5q-20 0 -30.5 10.5t-10.5 28.5q0 28 18 47t45 19q19 0 29.5 -10
t10.5 -28q0 -28 -17.5 -47.5zM492 64q-2 -12 -2 -15q0 -17 18 -17q8 0 38 8l-4 -21q-19 -14 -45 -21.5t-51 -7.5q-29 0 -47 16t-18 46q0 7 2 21q-28 -36 -77.5 -59.5t-102.5 -23.5q-72 0 -108.5 28t-36.5 77q0 15 3 31l53 256q1 3 1 8q0 16 -18 16q-8 0 -29 -7l-1 26l149 50
h27l-68 -336q-4 -16 -4 -33q0 -35 19.5 -52t56.5 -17q30 0 63 17t60 51.5t37 84.5l39 192q1 3 1 8q0 16 -18 16q-8 0 -29 -7l-1 26l149 50h27z" />
    <glyph glyph-name="uni01D7" unicode="&#x1d7;" horiz-adv-x="730" 
d="M488 930l100 84q2 1 17.5 14t37.5 13q16 0 23.5 -7.5t7.5 -19.5q0 -16 -11 -27.5t-36 -25.5l-125 -61zM347 790q-11 11 -11 28q0 27 18.5 47t43.5 20q20 0 31 -11.5t11 -30.5q0 -7 -1 -11q-5 -23 -22.5 -38t-40.5 -15q-18 0 -29 11zM561 790q-11 11 -11 28q0 27 18.5 47
t43.5 20q20 0 31 -11.5t11 -29.5q0 -8 -1 -12q-5 -23 -22.5 -38t-40.5 -15q-18 0 -29 11zM155.5 28q-59.5 38 -59.5 121q0 29 7 60l86 423q1 3 1 8q0 29 -45 29h-23l6 31h266l-6 -31h-24q-24 0 -40 -9.5t-20 -27.5l-88 -432q-5 -22 -5 -48q0 -63 41.5 -89t112.5 -26
q76 0 135.5 37.5t77.5 125.5l88 432q1 3 1 8q0 29 -45 29h-23l6 31h204l-5 -31h-24q-24 0 -40 -9.5t-20 -27.5l-86 -423q-46 -219 -306 -219q-113 0 -172.5 38z" />
    <glyph glyph-name="uni01D8" unicode="&#x1d8;" horiz-adv-x="603" 
d="M391 669l-15 30l100 84q3 2 19 14.5t37 12.5q16 0 23 -8t7 -20q0 -16 -11 -27t-35 -25zM235.5 558.5q-10.5 10.5 -10.5 28.5q0 27 18 47t44 20q19 0 30 -11t11 -29q0 -28 -18.5 -47t-44.5 -19q-19 0 -29.5 10.5zM457 634q18 20 44 20q19 0 30 -11t11 -29q0 -28 -18.5 -47
t-44.5 -19q-19 0 -29.5 10.5t-10.5 28.5q0 27 18 47zM508 32q8 0 38 8l-4 -21q-19 -14 -45 -21.5t-51 -7.5q-29 0 -47 16t-18 46q0 7 2 21q-28 -36 -77.5 -59.5t-102.5 -23.5q-72 0 -108.5 28t-36.5 77q0 15 3 31l53 256q1 3 1 8q0 16 -18 16q-8 0 -29 -7l-1 26l149 50h27
l-68 -336q-4 -16 -4 -33q0 -35 19.5 -52t56.5 -17q30 0 63 17t60 51.5t37 84.5l39 192q1 3 1 8q0 16 -18 16q-8 0 -29 -7l-1 26l149 50h27l-83 -411q-2 -12 -2 -15q0 -17 18 -17z" />
    <glyph glyph-name="uni01D9" unicode="&#x1d9;" horiz-adv-x="730" 
d="M400 1060l24 21l91 -83q4 -5 11 -8t13 -3q10 0 26 11l126 83l15 -21l-151 -130h-58zM357.5 790q-10.5 11 -10.5 29q0 27 18.5 46.5t43.5 19.5q19 0 30 -11t11 -29q0 -28 -18.5 -47t-44.5 -19q-19 0 -29.5 11zM571.5 789.5q-10.5 10.5 -10.5 28.5q0 27 18 47t44 20
q19 0 30 -11t11 -29q0 -28 -18.5 -47t-44.5 -19q-19 0 -29.5 10.5zM155.5 28q-59.5 38 -59.5 121q0 29 7 60l86 423q1 3 1 8q0 29 -45 29h-23l6 31h266l-6 -31h-24q-24 0 -40 -9.5t-20 -27.5l-88 -432q-5 -22 -5 -48q0 -63 41.5 -89t112.5 -26q76 0 135.5 37.5t77.5 125.5
l88 432q1 3 1 8q0 29 -45 29h-23l6 31h204l-5 -31h-24q-24 0 -40 -9.5t-20 -27.5l-86 -423q-46 -219 -306 -219q-113 0 -172.5 38z" />
    <glyph glyph-name="uni01DA" unicode="&#x1da;" horiz-adv-x="603" 
d="M376 699l-97 130l24 21l91 -83q4 -5 11 -8t13 -3q10 0 26 11l126 83l15 -21l-151 -130h-58zM236.5 558.5q-10.5 10.5 -10.5 28.5q0 27 18 47t44 20q19 0 30 -11t11 -29q0 -28 -18.5 -47t-44.5 -19q-19 0 -29.5 10.5zM458 634q18 20 44 20q19 0 30 -11t11 -29
q0 -28 -18.5 -47t-44.5 -19q-19 0 -29.5 10.5t-10.5 28.5q0 27 18 47zM492 64q-2 -12 -2 -15q0 -17 18 -17q8 0 38 8l-4 -21q-19 -14 -45 -21.5t-51 -7.5q-29 0 -47 16t-18 46q0 7 2 21q-28 -36 -77.5 -59.5t-102.5 -23.5q-72 0 -108.5 28t-36.5 77q0 15 3 31l53 256
q1 3 1 8q0 16 -18 16q-8 0 -29 -7l-1 26l149 50h27l-68 -336q-4 -16 -4 -33q0 -35 19.5 -52t56.5 -17q30 0 63 17t60 51.5t37 84.5l39 192q1 3 1 8q0 16 -18 16q-8 0 -29 -7l-1 26l149 50h27z" />
    <glyph glyph-name="uni01DB" unicode="&#x1db;" horiz-adv-x="730" 
d="M426 961q-28 16 -28 39q0 15 12 28t33 13q16 0 25 -7.5t19 -19.5l65 -84l-26 -30zM357.5 790q-10.5 11 -10.5 29q0 27 18.5 46.5t43.5 19.5q19 0 30 -11t11 -29q0 -28 -18.5 -47t-44.5 -19q-19 0 -29.5 11zM571.5 789.5q-10.5 10.5 -10.5 28.5q0 27 18 47t44 20
q19 0 30 -11t11 -29q0 -28 -18.5 -47t-44.5 -19q-19 0 -29.5 10.5zM155.5 28q-59.5 38 -59.5 121q0 29 7 60l86 423q1 3 1 8q0 29 -45 29h-23l6 31h266l-6 -31h-24q-24 0 -40 -9.5t-20 -27.5l-88 -432q-5 -22 -5 -48q0 -63 41.5 -89t112.5 -26q76 0 135.5 37.5t77.5 125.5
l88 432q1 3 1 8q0 29 -45 29h-23l6 31h204l-5 -31h-24q-24 0 -40 -9.5t-20 -27.5l-86 -423q-46 -219 -306 -219q-113 0 -172.5 38z" />
    <glyph glyph-name="uni01DC" unicode="&#x1dc;" horiz-adv-x="603" 
d="M277 769q0 15 12 28t33 13q16 0 25 -7.5t19 -19.5l65 -84l-26 -30l-100 61q-28 16 -28 39zM236.5 558.5q-10.5 10.5 -10.5 28.5q0 27 18 47t44 20q19 0 30 -11t11 -29q0 -28 -18.5 -47t-44.5 -19q-19 0 -29.5 10.5zM450.5 558.5q-10.5 10.5 -10.5 28.5q0 27 18 47t44 20
q19 0 30 -11t11 -29q0 -28 -18.5 -47t-44.5 -19q-19 0 -29.5 10.5zM508 32q8 0 38 8l-4 -21q-19 -14 -45 -21.5t-51 -7.5q-29 0 -47 16t-18 46q0 7 2 21q-28 -36 -77.5 -59.5t-102.5 -23.5q-72 0 -108.5 28t-36.5 77q0 15 3 31l53 256q1 3 1 8q0 16 -18 16q-8 0 -29 -7
l-1 26l149 50h27l-68 -336q-4 -16 -4 -33q0 -35 19.5 -52t56.5 -17q30 0 63 17t60 51.5t37 84.5l39 192q1 3 1 8q0 16 -18 16q-8 0 -29 -7l-1 26l149 50h27l-83 -411q-2 -12 -2 -15q0 -17 18 -17z" />
    <glyph glyph-name="Gcaron" unicode="&#x1e6;" horiz-adv-x="700" 
d="M381 921l23 23l92 -89q19 -13 25 -13q9 0 28 13l129 89l15 -23l-154 -140h-60zM125.5 55q-66.5 65 -66.5 184q0 51 12 111q34 168 140 264t264 96q52 0 102 -15t76 -43q4 -4 8 -4q11 0 14 13l9 44h40l-40 -197h-34q1 6 1 18q0 66 -46 101t-116 35q-112 0 -192 -84
t-110 -228q-13 -67 -13 -114q0 -95 43.5 -147t130.5 -52q37 0 77.5 9t72.5 31l41 197q1 4 1 10q0 40 -66 40h-12l6 26h257l-5 -22h-15q-26 0 -38.5 -16t-20.5 -57l-38 -187q-66 -41 -132.5 -59.5t-153.5 -18.5q-130 0 -196.5 65z" />
    <glyph glyph-name="gcaron" unicode="&#x1e7;" horiz-adv-x="506" 
d="M286 549l-98 140l23 23l92 -89q19 -13 25 -13q9 0 28 13l129 89l15 -23l-154 -140h-60zM571 467q16 -13 13 -33q-4 -18 -15.5 -28.5t-29.5 -10.5q-12 0 -16.5 4.5t-8.5 13.5q-4 10 -9 15t-19 5q-13 0 -37 -11q20 -28 20 -66q0 -11 -4 -35q-16 -75 -78 -116t-159 -41
q-58 0 -101 16q-36 -24 -36 -49q0 -15 13.5 -24t38.5 -9h163q55 0 89.5 -22t34.5 -65q0 -12 -3 -24q-15 -71 -86.5 -110t-184.5 -39q-87 0 -134 25t-47 73q0 70 83 106q-20 8 -30 23t-10 33q0 52 77 100q-42 31 -42 87q0 19 4 36q15 75 77.5 117t158.5 42q87 0 133 -34
q50 34 100 34q29 0 45 -13zM359 357q0 37 -18.5 58.5t-57.5 21.5q-47 0 -77 -32.5t-40 -83.5q-4 -17 -4 -37q0 -36 18 -57t56 -21q48 0 78.5 32t40.5 83q4 17 4 36zM77 -5.5q-17 -20.5 -21 -38.5q-2 -10 -2 -14q0 -31 30.5 -47t84.5 -16q64 0 106 22.5t50 64.5q2 12 2 16
q0 21 -19.5 31.5t-62.5 10.5h-122q-29 -9 -46 -29.5z" />
    <glyph glyph-name="Aringacute" unicode="&#x1fa;" horiz-adv-x="722" 
d="M443 971l-14 30l136 114q15 12 27.5 19.5t27.5 7.5q16 0 23.5 -7.5t7.5 -19.5q0 -17 -12 -31t-36 -26zM417 771q-21 20 -21 53q0 7 2 21q9 42 41 68t75 26q36 0 57 -19.5t21 -51.5q0 -50 -34 -83.5t-83 -33.5q-37 0 -58 20zM461 879.5q-19 -18.5 -19 -47.5
q0 -19 11.5 -29.5t30.5 -10.5q26 0 44.5 19t18.5 47q0 19 -11.5 29.5t-30.5 10.5q-25 0 -44 -18.5zM684 31l-5 -31h-263l5 31h18q29 0 39.5 10.5t10.5 32.5q0 6 -2 26l-15 103h-265l-69 -123q-7 -11 -7 -22q0 -13 11 -20t29 -7h18l-6 -31h-217l6 31h15q20 0 41.5 10t31.5 26
l354 616l92 34l110 -651q3 -17 17.5 -26t32.5 -9h18zM465 249l-48 326l-184 -326h232z" />
    <glyph glyph-name="aringacute" unicode="&#x1fb;" horiz-adv-x="568" 
d="M316 789l136 114q15 12 27.5 19.5t27.5 7.5q16 0 23.5 -8t7.5 -20q0 -16 -12.5 -29.5t-35.5 -26.5l-161 -87zM309 558.5q-21 19.5 -21 52.5q0 6 2 22q9 42 41 68t74 26q37 0 58 -19.5t21 -51.5q0 -50 -34.5 -83.5t-82.5 -33.5q-37 0 -58 19.5zM414.5 594.5
q17.5 14.5 22.5 38.5q1 5 1 13q0 18 -11.5 29t-29.5 11q-22 0 -39.5 -14.5t-22.5 -38.5q-1 -5 -1 -13q0 -18 11.5 -29t29.5 -11q22 0 39.5 14.5zM67.5 29.5q-31.5 39.5 -31.5 105.5q0 31 8 71q26 125 97 199.5t170 74.5q39 0 74 -9.5t49 -32.5l6 32h110l-82 -407
q-2 -12 -2 -15q0 -17 18 -17q8 0 38 8l-5 -21q-18 -13 -46.5 -20.5t-53.5 -7.5q-29 0 -47 10t-18 33q0 8 1 12l19 90q-55 -70 -110.5 -107.5t-98.5 -37.5q-64 0 -95.5 39.5zM272.5 78q36.5 32 70 74.5t47.5 71.5l30 144q-6 34 -26.5 48t-53.5 14q-31 0 -69 -22t-71.5 -72
t-49.5 -128q-5 -28 -5 -47q0 -50 20 -82.5t46 -32.5q25 0 61.5 32z" />
    <glyph glyph-name="AEacute" unicode="&#x1fc;" horiz-adv-x="956" 
d="M707 810l136 114q30 27 55 27q16 0 23 -7t7 -19q0 -18 -12 -31.5t-36 -26.5l-160 -87zM-21 31h15q28 1 48.5 16t40.5 41l432 554l2 6q4 5 4 11q0 10 -11 10h-30l6 31h524l-37 -179h-29q3 33 3 45q0 88 -65 88h-20h-182l-55 -264h147q29 0 42.5 23t28.5 72h26l-49 -236
h-26q1 7 3 22t2 26q0 47 -36 47h-147l-61 -298h220q73 0 117 138h30l-55 -184h-512l6 31h24q24 0 39.5 9t19.5 27l28 136h-231l-100 -131q-6 -9 -6 -14q0 -12 17 -14v-1q0 -5 9 -8.5t17 -3.5h18l-6 -31h-217zM481 249l73 357l-278 -357h205z" />
    <glyph glyph-name="aeacute" unicode="&#x1fd;" horiz-adv-x="792" 
d="M448 578l137 114q30 27 54 27q16 0 23.5 -7.5t7.5 -19.5q0 -17 -12 -31t-36 -26l-160 -87zM34.5 11.5q-31.5 21.5 -31.5 60.5q0 12 3 24q14 72 94.5 118.5t230.5 69.5q13 35 28 60q1 5 1 15q0 37 -25 56t-66 19q-36 0 -68.5 -14.5t-35.5 -30.5q-1 -4 -1 -15t-1 -16
q-4 -16 -16 -27.5t-34 -11.5q-15 0 -24.5 9.5t-9.5 27.5q0 58 64.5 91t157.5 33q97 0 134 -53q73 53 175 53q98 0 143.5 -30t45.5 -82q0 -13 -3 -28q-20 -93 -130 -133.5t-244 -45.5q2 -61 33 -95.5t84 -34.5q63 0 110 33.5t74 103.5h32q-24 -79 -86 -128.5t-154 -49.5
q-135 0 -183 80q-44 -40 -97 -60t-108 -20q-61 0 -92.5 21.5zM621.5 247.5q81.5 37.5 81.5 114.5q0 74 -94 75q-70 0 -116 -59t-64 -144q-4 -24 -5 -35q116 11 197.5 48.5zM253 55.5q40 19.5 66 44.5q-10 33 -10 66q0 29 8 69l2 9q-98 -26 -151 -68t-53 -89q0 -25 16.5 -38
t46.5 -13q35 0 75 19.5z" />
    <glyph glyph-name="Oslashacute" unicode="&#x1fe;" horiz-adv-x="741" 
d="M415 780l-14 30l137 114q30 27 54 27q16 0 23.5 -7.5t7.5 -19.5q0 -17 -12 -31t-36 -26zM695 631q57 -63 57 -174q0 -50 -12 -107q-35 -171 -140 -265.5t-271 -94.5q-133 0 -204 63l-77 -78l-34 29l82 83q-42 60 -42 154q0 51 12 109q34 170 139.5 265t270.5 95
q118 0 185 -49l64 65l34 -30zM176 169l425 431q-43 63 -135 63q-107 0 -180.5 -83.5t-103.5 -229.5q-12 -61 -12 -113q0 -36 6 -68zM622 557l-430 -436q41 -83 147 -83q109 0 182.5 83t102.5 229q12 62 12 113q0 52 -14 94z" />
    <glyph glyph-name="oslashacute" unicode="&#x1ff;" horiz-adv-x="560" 
d="M285 548l-13 30l136 114q15 12 27.5 19.5t27.5 7.5q16 0 23 -7t7 -19q0 -18 -12 -31.5t-36 -26.5zM550 304q0 -29 -8 -69q-23 -118 -102.5 -181.5t-200.5 -63.5q-84 0 -135 30l-53 -54l-31 30l50 51q-42 45 -42 121q0 33 7 67q24 117 103.5 181t201.5 64q77 0 124 -25
l60 62l34 -31l-56 -57q48 -45 48 -125zM141 121l271 280q-28 34 -82 34q-67 0 -116 -52t-69 -148q-8 -42 -8 -71q0 -26 4 -43zM440 307q0 29 -6 51l-275 -281q29 -43 90 -43q66 0 115 52.5t68 148.5q8 42 8 72z" />
    <glyph glyph-name="Scommaaccent" unicode="&#x218;" horiz-adv-x="577" 
d="M139 6.5q-43 16.5 -68 43.5q-8 8 -12 8t-7.5 -5t-4.5 -12l-9 -42h-40l40 196h34q-1 -6 -1 -16q0 -44 23 -76t60 -49t79 -17q71 0 121.5 34t63.5 98q3 12 3 24q0 32 -19 56t-47 41t-75 39q-53 24 -86 44.5t-55.5 51.5t-22.5 75q0 21 4 38q17 85 88 128.5t177 43.5
q111 0 165 -50q8 -8 10 -8q4 0 6 7l10 47h41l-40 -197h-34q1 7 1 19q0 65 -39.5 99.5t-103.5 34.5q-65 0 -108.5 -29t-53.5 -79q-2 -14 -2 -20q0 -28 17.5 -48.5t42.5 -34.5t71 -34q57 -25 92 -45.5t59.5 -54.5t24.5 -84q0 -18 -5 -45q-20 -96 -98.5 -147t-187.5 -51
q-71 0 -114 16.5zM105 -285q29 26 48 50.5t24 50.5q1 4 1 10q0 15 -11 32q-10 18 -10 31q0 24 17.5 41.5t44.5 17.5q20 0 32.5 -12.5t12.5 -37.5q0 -54 -41 -105.5t-104 -96.5z" />
    <glyph glyph-name="scommaaccent" unicode="&#x219;" horiz-adv-x="455" 
d="M59.5 17q-43.5 27 -43.5 70q0 6 2 18q4 18 17 28.5t29 10.5t25 -9t5 -23q-1 -5 -5 -12t-5 -12q-3 -19 20 -36.5t69 -17.5q53 0 88 19.5t42 56.5q1 4 1 10q0 23 -22.5 37.5t-69.5 31.5q-45 17 -72.5 31.5t-47.5 39.5t-20 62q0 10 4 32q12 60 66 93t142 33q85 0 125 -26
t40 -68q0 -14 -2 -21q-3 -18 -16 -28.5t-29 -10.5q-13 0 -22 7t-9 19q0 9 4.5 16.5t5.5 12.5q3 12 -4.5 24.5t-26.5 21t-51 8.5q-44 0 -74 -17.5t-37 -48.5q-1 -4 -1 -12q0 -27 24 -42.5t74 -33.5q43 -16 70 -29.5t46 -37t19 -59.5q0 -13 -3 -30q-15 -69 -78.5 -102
t-148.5 -33q-87 0 -130.5 27zM50 -296q62 55 72 101q1 4 1 11q0 13 -10 31t-10 30q0 25 17.5 42.5t43.5 17.5q20 0 32.5 -12.5t12.5 -37.5q0 -54 -41 -106t-104 -96z" />
    <glyph glyph-name="uni021A" unicode="&#x21a;" horiz-adv-x="647" 
d="M150 31h28q28 0 43.5 8.5t19.5 27.5l120 587h-132q-38 0 -65 -54.5t-38 -103.5h-30l41 204h580l-41 -204h-31q7 35 7 71q0 87 -45 87h-131l-120 -587q-1 -3 -1 -9q0 -27 48 -27h29l-6 -31h-282zM149 -302q29 27 48.5 51t24.5 50q1 4 1 10q0 15 -11 32q-10 18 -10 31
q0 24 17.5 41.5t44.5 17.5q20 0 32.5 -12.5t12.5 -37.5q0 -54 -42.5 -108.5t-103.5 -93.5z" />
    <glyph glyph-name="uni021B" unicode="&#x21b;" horiz-adv-x="398" 
d="M182 129q-4 -20 -4 -40q0 -29 13.5 -43.5t41.5 -14.5q30 0 55.5 16t35.5 51h36q-16 -56 -58 -82t-100 -26q-65 0 -100.5 22.5t-35.5 75.5q0 20 4 39l61 299h-71l9 44h71l11 52l105 82h23l-27 -134h134l-9 -44h-134zM186.5 -76q12.5 -13 12.5 -39q0 -11 -3 -24
q-11 -48 -50.5 -95t-92.5 -81l-15 19q30 26 49 50.5t24 50.5q1 4 1 11q0 13 -10 31q-11 16 -11 32q0 24 18 41t45 17q20 0 32.5 -13z" />
    <glyph glyph-name="uni0237" unicode="&#x237;" horiz-adv-x="311" 
d="M-37 -114q47 18 73.5 47t40 65.5t25.5 95.5l59 288q1 3 1 8q0 16 -18 16q-8 0 -29 -7l-1 26l149 50h27l-76 -374q-21 -105 -82 -164.5t-169 -74.5v24z" />
    <glyph glyph-name="uni0251" unicode="&#x251;" horiz-adv-x="565" 
d="M63.5 25.5q-42.5 35.5 -42.5 113.5q0 40 10 87q16 81 62.5 138.5t111 86.5t134.5 29q73 0 125.5 -22t74.5 -57l-70 -337q-1 -5 -1 -13q0 -19 18 -19q15 0 37 8l-4 -21q-20 -14 -47 -21.5t-53 -7.5q-27 0 -46 9.5t-19 32.5q0 6 1 9l6 25q-32 -40 -75.5 -58t-91.5 -18
q-88 0 -130.5 35.5zM328.5 75q41.5 41 52.5 96l46 225q-35 40 -101 40q-63 0 -114.5 -57t-70.5 -152q-10 -44 -10 -84q0 -54 24 -81.5t76 -27.5q56 0 97.5 41z" />
    <glyph glyph-name="uni0259" unicode="&#x259;" horiz-adv-x="516" 
d="M448.5 435q52.5 -45 52.5 -131q0 -34 -7 -69q-23 -114 -101 -179.5t-191 -65.5q-98 0 -144 30t-46 82q0 13 3 28q19 93 129 133t245 46q-2 60 -32.5 95t-83.5 35q-63 0 -110.5 -33.5t-74.5 -103.5h-31q23 79 85 128.5t155 49.5q99 0 151.5 -45zM318.5 92
q45.5 59 63.5 144q3 11 4 20t2 15q-116 -11 -198 -48.5t-82 -114.5q0 -74 95 -75q70 0 115.5 59z" />
    <glyph glyph-name="uni02BB" unicode="&#x2bb;" horiz-adv-x="238" 
d="M135.5 473q-12.5 13 -12.5 38q0 53 43 107.5t104 92.5l14 -19q-63 -55 -73 -101q-1 -4 -1 -10q0 -15 11 -32q10 -18 10 -31q0 -24 -17.5 -41t-44.5 -17q-21 0 -33.5 13z" />
    <glyph glyph-name="uni02BC" unicode="&#x2bc;" horiz-adv-x="238" 
d="M111 477q64 56 72 101q1 4 1 11q0 13 -10 31t-10 30q0 25 18 42.5t44 17.5q20 0 32.5 -13.5t12.5 -38.5q0 -53 -42 -107t-103 -93z" />
    <glyph glyph-name="uni02BE" unicode="&#x2be;" 
d="M16 612q39 1 58.5 25.5t19.5 52.5q0 19 -12.5 32t-40.5 14l8 36q109 0 109 -74q0 -52 -39 -87t-110 -35z" />
    <glyph glyph-name="uni02BF" unicode="&#x2bf;" 
d="M67 597q-27 21 -27 57q0 6 2 20q20 98 147 98l-8 -36q-39 -1 -58 -25.5t-19 -52.5q0 -19 12.5 -32t39.5 -14l-7 -36q-55 0 -82 21z" />
    <glyph glyph-name="circumflex" unicode="&#x2c6;" horiz-adv-x="480" 
d="M172 603l152 143h58l95 -143l-24 -23l-91 87q-13 13 -22 13t-29 -13l-125 -87z" />
    <glyph glyph-name="caron" unicode="&#x2c7;" horiz-adv-x="480" 
d="M196 723l24 23l89 -88q17 -13 24 -13t27 13l127 88l14 -23l-153 -143h-57z" />
    <glyph glyph-name="uni02C8" unicode="&#x2c8;" 
d="M64 730h92l-31 -151h-91z" />
    <glyph glyph-name="uni02C9" unicode="&#x2c9;" horiz-adv-x="480" 
d="M156 644h349l-9 -43h-348z" />
    <glyph glyph-name="uni02CA" unicode="&#x2ca;" 
d="M-8 608l136 113q9 9 24.5 18.5t30.5 9.5q16 0 23.5 -7.5t7.5 -19.5q0 -33 -48 -57l-160 -87z" />
    <glyph glyph-name="uni02CB" unicode="&#x2cb;" 
d="M41 665q-28 19 -28 42q0 16 13 29t34 13q23 0 43 -27l90 -114l-27 -30z" />
    <glyph glyph-name="uni02CC" unicode="&#x2cc;" 
d="M-92 -40h90l-31 -151h-90z" />
    <glyph glyph-name="breve" unicode="&#x2d8;" horiz-adv-x="480" 
d="M203 678q0 17 3 35h34l-1 -12q0 -33 24.5 -51.5t71.5 -18.5q51 0 83 21.5t45 60.5h33q-15 -61 -56.5 -98.5t-115.5 -37.5q-121 0 -121 101z" />
    <glyph glyph-name="dotaccent" unicode="&#x2d9;" horiz-adv-x="480" 
d="M288.5 589q-10.5 11 -10.5 29q0 27 18.5 46.5t43.5 19.5q20 0 31 -11.5t11 -29.5q0 -27 -19 -46t-45 -19q-19 0 -29.5 11z" />
    <glyph glyph-name="ring" unicode="&#x2da;" horiz-adv-x="480" 
d="M264.5 615.5q-21.5 19.5 -21.5 51.5q0 50 34.5 83t82.5 33q37 0 58 -19.5t21 -52.5q0 -6 -2 -22q-9 -41 -41 -67t-74 -26q-36 0 -57.5 19.5zM370 650.5q17 14.5 22 38.5q1 4 1 13q0 19 -11 29.5t-31 10.5q-22 0 -39 -14.5t-22 -38.5q-2 -10 -2 -13q0 -19 11.5 -29.5
t30.5 -10.5q23 0 40 14.5z" />
    <glyph glyph-name="ogonek" unicode="&#x2db;" horiz-adv-x="480" 
d="M106.5 -175.5q-18.5 19.5 -18.5 47.5q0 7 2 17q8 37 40 69t78 54h44q-38 -24 -62 -53t-31 -60q-1 -5 -1 -14q0 -21 12.5 -31t33.5 -10t46 10l3 -23q-46 -26 -85 -26q-43 0 -61.5 19.5z" />
    <glyph glyph-name="tilde" unicode="&#x2dc;" horiz-adv-x="480" 
d="M150 589q19 43 51 72.5t72 29.5q17 0 32 -6t40 -19q22 -13 38.5 -19.5t33.5 -6.5q23 0 40 14.5t36 46.5l21 -13q-21 -45 -52.5 -75t-72.5 -30q-17 0 -32 6.5t-39 19.5q-21 13 -37.5 19.5t-33.5 6.5q-24 0 -41.5 -14t-35.5 -45z" />
    <glyph glyph-name="hungarumlaut" unicode="&#x2dd;" horiz-adv-x="480" 
d="M134 609l136 113q32 27 55 27q18 0 25.5 -10.5t4.5 -23.5q-6 -27 -47 -50l-159 -86zM326 609l135 113q32 27 56 27q18 0 25.5 -10.5t4.5 -23.5q-6 -27 -47 -50l-159 -86z" />
    <glyph glyph-name="gravecomb" unicode="&#x300;" 
d="M-260 665q-14 10 -20.5 19t-6.5 21q0 7 1 10q3 14 14.5 24t29.5 10q25 0 44 -28l90 -113l-27 -30z" />
    <glyph glyph-name="acutecomb" unicode="&#x301;" 
d="M-273 608l137 114q30 27 54 27q15 0 23 -7.5t8 -19.5q0 -17 -12 -31t-36 -26l-160 -87z" />
    <glyph glyph-name="uni0302" unicode="&#x302;" 
d="M-72 602l155 140h59l98 -140l-24 -23l-93 89q-15 13 -23 13q-11 0 -30 -13l-127 -89z" />
    <glyph glyph-name="tildecomb" unicode="&#x303;" 
d="M-366 589q19 42 51 72t72 30q17 0 32.5 -6.5t40.5 -19.5t40 -19t31 -6q24 0 41 14.5t36 46.5l20 -13q-50 -105 -125 -105q-17 0 -33.5 6.5t-37.5 19.5q-24 13 -39 19.5t-32 6.5q-23 0 -41 -14.5t-36 -44.5z" />
    <glyph glyph-name="uni0304" unicode="&#x304;" 
d="M-79 627h337l-9 -48h-337z" />
    <glyph glyph-name="uni0306" unicode="&#x306;" 
d="M-13 600.5q-29 26.5 -29 73.5q0 11 4 37h32q-4 -40 20 -61.5t75 -21.5q52 0 84.5 21.5t43.5 61.5h35q-16 -61 -58 -99t-115 -38q-63 0 -92 26.5z" />
    <glyph glyph-name="uni0307" unicode="&#x307;" 
d="M47 575.5q-11 10.5 -11 28.5q0 9 1 13q5 23 21.5 38t39.5 15q19 0 29.5 -11t10.5 -29q0 -8 -1 -13q-5 -23 -21 -37.5t-39 -14.5q-19 0 -30 10.5z" />
    <glyph glyph-name="uni0308" unicode="&#x308;" 
d="M-57.5 588.5q-10.5 10.5 -10.5 28.5q0 8 1 13q5 24 21.5 38.5t38.5 14.5q20 0 30.5 -11t10.5 -29q0 -27 -18 -46t-45 -19q-18 0 -28.5 10.5zM155 588.5q-11 10.5 -11 28.5q0 9 1 13q5 24 22 38.5t40 14.5q19 0 29.5 -11t10.5 -29q0 -27 -18 -46t-44 -19q-19 0 -30 10.5z
" />
    <glyph glyph-name="hookabovecomb" unicode="&#x309;" 
d="M-199 621q0 21 12.5 34t39.5 30q23 14 35.5 25t15.5 27q3 13 -4.5 22.5t-20.5 9.5q-12 0 -23 -5t-17 -15q-1 -1 -7.5 -15t-28.5 -14q-20 0 -20 19q0 6 1 9q6 26 35 40t67 14q36 0 57 -14.5t21 -40.5q0 -4 -2 -14q-4 -20 -20 -33t-44 -29q-23 -13 -33 -21t-12 -18
q-3 -11 3 -17.5t21 -12.5l-13 -22q-63 0 -63 41z" />
    <glyph glyph-name="uni030A" unicode="&#x30a;" 
d="M18.5 586.5q-21.5 19.5 -21.5 51.5q0 11 3 23q9 42 41 68t74 26q37 0 58 -19.5t21 -51.5q0 -50 -34.5 -83.5t-82.5 -33.5q-37 0 -58.5 19.5zM124.5 622.5q17.5 14.5 22.5 38.5q1 5 1 13q0 18 -11.5 29t-29.5 11q-22 0 -39.5 -14.5t-22.5 -38.5q-1 -5 -1 -13
q0 -18 11.5 -29t29.5 -11q22 0 39.5 14.5z" />
    <glyph glyph-name="uni030B" unicode="&#x30b;" 
d="M-70 608l133 113q2 1 18 14t37 13q18 0 26.5 -10.5t5.5 -23.5q-6 -27 -47 -50l-160 -86zM96 608l134 113q2 1 18 14t38 13q18 0 26 -10.5t5 -23.5q-6 -27 -47 -50l-161 -86z" />
    <glyph glyph-name="uni030C" unicode="&#x30c;" 
d="M-48 719l23 23l92 -89q7 -5 13.5 -9t11.5 -4q8 0 28 13l129 89l15 -23l-155 -140h-59z" />
    <glyph glyph-name="uni031B" unicode="&#x31b;" 
d="M-57 325q75 39 86 90q1 4 1 10q0 9 -3 17t-7 15q-10 18 -10 30q0 23 17 41t44 18q21 0 33.5 -13t12.5 -38q0 -43 -27.5 -84t-69 -71.5t-82.5 -42.5z" />
    <glyph glyph-name="dotbelowcomb" unicode="&#x323;" 
d="M-373 -159q-11 11 -11 29q0 8 1 12q5 24 22.5 39t39.5 15q19 0 29.5 -11t10.5 -29q0 -28 -18 -47t-44 -19q-19 0 -30 11z" />
    <glyph glyph-name="uni0324" unicode="&#x324;" 
d="M-209 -153q-11 11 -11 28q0 28 18 47.5t45 19.5q19 0 30 -11t11 -29q0 -9 -1 -13q-5 -24 -21.5 -38.5t-40.5 -14.5q-19 0 -30 11zM4 -153q-11 11 -11 29q0 27 18 46.5t45 19.5q19 0 29.5 -11t10.5 -29q0 -9 -1 -13q-5 -24 -21.5 -38.5t-38.5 -14.5q-20 0 -31 11z" />
    <glyph glyph-name="uni0326" unicode="&#x326;" 
d="M-398 -302q29 27 48.5 51t24.5 50q1 4 1 10q0 14 -11 32q-1 2 -6 11.5t-5 21.5l1 8q5 21 22 35t40 14q20 0 32.5 -13t12.5 -38q0 -53 -42.5 -107.5t-103.5 -93.5z" />
    <glyph glyph-name="uni0327" unicode="&#x327;" 
d="M-166 -218l11 31q16 -2 22 -2q94 0 104 57q5 24 -22 34.5t-52 10.5l-5 11l71 94h47l-50 -68q31 0 58.5 -15t27.5 -47q0 -4 -2 -16q-11 -55 -57 -75t-104 -20q-22 0 -49 5z" />
    <glyph glyph-name="uni0328" unicode="&#x328;" 
d="M-146.5 -185.5q-18.5 19.5 -18.5 47.5q0 43 35 81t89 63h43q-45 -28 -70.5 -62.5t-25.5 -67.5q0 -21 13 -31.5t35 -10.5t47 11l3 -22q-41 -28 -88 -28q-44 0 -62.5 19.5z" />
    <glyph glyph-name="uni032E" unicode="&#x32e;" 
d="M-198 -86q0 16 3 33h34q-4 -39 20.5 -60.5t75.5 -21.5t82 21.5t43 60.5h35q-14 -61 -56.5 -98.5t-115.5 -37.5q-121 0 -121 103z" />
    <glyph glyph-name="uni0331" unicode="&#x331;" 
d="M-221 -70h337l-9 -44h-337z" />
    <glyph glyph-name="uni0394" unicode="&#x394;" horiz-adv-x="618" 
d="M-5 42l376 664h85l102 -664l-8 -42h-562zM448 61l-75 528l-297 -528h372z" />
    <glyph glyph-name="uni03A9" unicode="&#x3a9;" horiz-adv-x="720" 
d="M36 136h24q-2 -35 3 -54.5t24 -19.5h128l15 75q-65 6 -104.5 61.5t-39.5 135.5q0 34 7 66q17 81 64.5 143.5t124.5 98t177 35.5q129 0 195.5 -57t66.5 -154q0 -34 -7 -66q-14 -66 -51.5 -124.5t-88.5 -95.5t-105 -43l-15 -75h127q20 0 32 19t24 55h24l-38 -136h-244
l36 175q66 12 116.5 73.5t67.5 143.5q7 31 7 62q0 75 -42 117t-118 42q-90 0 -155.5 -59.5t-86.5 -161.5q-7 -37 -7 -62q0 -61 26.5 -103.5t76.5 -51.5l-36 -175h-244z" />
    <glyph glyph-name="uni03BC" unicode="&#x3bc;" horiz-adv-x="603" 
d="M508 32q15 0 37 8l-4 -21q-41 -29 -100 -29q-29 0 -45.5 14t-16.5 41q0 6 2 20l1 7q-29 -36 -78 -59t-101 -23q-37 0 -62 7l-33 -162h-106l58 284l1 7l53 256q1 3 1 8q0 16 -18 16q-8 0 -29 -7l-1 26l149 50h27l-68 -336q-4 -16 -4 -33q0 -35 19.5 -52t56.5 -17
q29 0 61 15.5t58 47.5t38 78l42 204q1 3 1 8q0 16 -19 16q-7 0 -28 -7l-2 26l154 50h23l-83 -411q-2 -12 -2 -15q0 -17 18 -17z" />
    <glyph glyph-name="pi" unicode="&#x3c0;" horiz-adv-x="665" 
d="M422 10q-23 20 -23 57q0 10 4 32l66 327h-179l-86 -426h-111l87 426h-110l9 44h624l-9 -44h-113l-65 -321q-3 -12 -3 -22q0 -39 38 -39q24 0 56 21l-10 -49q-27 -14 -51 -20t-54 -6q-47 0 -70 20z" />
    <glyph glyph-name="uni0E01" unicode="&#xe01;" horiz-adv-x="576" 
d="M58 210q8 42 36 78.5t74 55.5h-102q20 74 66 123t104.5 72.5t118.5 23.5q93 0 149.5 -36.5t56.5 -108.5q0 -21 -4 -40l-77 -378h-111l80 397q2 8 2 23q0 41 -32.5 67.5t-92.5 26.5q-61 0 -117 -36t-78 -97h145l-8 -40q-45 -20 -67 -51.5t-33 -85.5l-41 -204h-112z" />
    <glyph glyph-name="uni0E02" unicode="&#xe02;" horiz-adv-x="571" 
d="M97 211q78 33 140.5 84.5t76.5 120.5q3 14 3 28q0 36 -22 59t-67 23q-40 0 -69.5 -20.5t-40.5 -49.5q23 19 55 19q37 0 55 -18t18 -49t-16.5 -57.5t-43 -42t-54.5 -15.5q-35 0 -56.5 21.5t-21.5 60.5q0 18 4 34q14 66 64 110t131 44q61 0 97.5 -28.5t36.5 -82.5
q0 -19 -4 -38q-15 -74 -61.5 -124.5t-116.5 -92.5l-29 -146h197l103 502h112l-113 -553h-420zM180 343q19 17 24 42q2 12 2 18q0 18 -11 29.5t-33 11.5q-27 0 -47 -22t-20 -50q0 -20 12 -33t31 -13q23 0 42 17z" />
    <glyph glyph-name="uni0E03" unicode="&#xe03;" horiz-adv-x="571" 
d="M97 211q76 32 140 86.5t78 123.5q5 23 5 42q0 36 -20 55l-66 -52l-52 53q-24 -12 -42.5 -37t-25.5 -48q23 19 55 19q36 0 54 -17.5t18 -47.5q0 -12 -3 -26q-7 -39 -39.5 -65t-71.5 -26q-34 0 -55.5 22t-21.5 62q0 18 4 34q11 54 46.5 105t86.5 70l54 -56l77 56
q34 -11 52.5 -37.5t18.5 -67.5q0 -21 -4 -40q-16 -74 -64 -127.5t-116 -94.5l-29 -146h197l103 502h112l-113 -553h-420zM181 326q21 22 21 51q0 45 -45 45q-27 0 -46.5 -22t-19.5 -50q0 -20 12 -33t30 -13q27 0 48 22z" />
    <glyph glyph-name="uni0E04" unicode="&#xe04;" horiz-adv-x="618" 
d="M52 82q9 47 13 136q2 46 4.5 77t9.5 64q20 96 94 150t204 54q114 0 169.5 -40t55.5 -111q0 -18 -5 -43l-75 -369h-111l75 371q4 17 4 38q0 48 -30.5 76.5t-95.5 28.5q-77 0 -125 -41.5t-61 -107.5q-6 -29 -8 -92q-2 -42 -5 -70t-11 -57l72 152q42 92 124 92
q37 0 57.5 -19t20.5 -51q0 -12 -3 -24q-7 -38 -38 -65t-74 -27q-23 0 -41 11t-23 34l-114 -249h-107q13 34 24 82zM368 260q21 23 21 53q0 19 -11.5 30.5t-33.5 11.5q-25 0 -43.5 -17t-23.5 -42q-1 -4 -1 -12q0 -20 12.5 -33.5t31.5 -13.5q27 0 48 23z" />
    <glyph glyph-name="uni0E05" unicode="&#xe05;" horiz-adv-x="618" 
d="M52 82q9 47 13 136q2 46 4.5 77t9.5 64q16 78 64.5 129.5t133.5 69.5l83 -73l114 73q66 -14 97 -51.5t31 -91.5q0 -19 -5 -46l-75 -369h-111l75 371q5 25 5 44q0 60 -45 83l-98 -66l-75 66q-39 -17 -62.5 -52t-32.5 -81q-5 -24 -7.5 -56.5t-3.5 -40.5t-3.5 -38t-6.5 -56
t-10 -46l71 149q46 91 126 91q37 0 57 -19.5t20 -51.5q0 -29 -15 -56t-42 -43t-59 -16q-23 0 -40.5 11.5t-22.5 34.5l-107 -228h-107q13 34 24 82zM360.5 238q21.5 22 21.5 52q0 20 -12 32t-34 12q-28 0 -47 -22t-19 -51q0 -20 11.5 -32.5t30.5 -12.5q27 0 48.5 22z" />
    <glyph glyph-name="uni0E06" unicode="&#xe06;" horiz-adv-x="604" 
d="M11 65q0 15 3 33q10 46 47.5 77.5t83.5 31.5l6 26q64 34 112 82t60 106q4 26 4 38q0 43 -22 61l-66 -51l-51 53q-24 -12 -42.5 -37t-25.5 -48q23 19 54 19q37 0 55 -18t18 -49q0 -32 -16 -58t-42.5 -41.5t-56.5 -15.5q-34 0 -54.5 22.5t-20.5 62.5q0 15 3 33
q12 54 46.5 103t86.5 68l53 -55l77 56q34 -11 53 -39t19 -68q0 -11 -4 -37q-23 -105 -129 -189l-10 -44q49 -13 95 -42t67 -56l95 464h111l-112 -553h-102q-12 34 -61 74.5t-103 61.5l-11 -55q-9 -45 -43 -68t-92 -23q-85 0 -85 75zM182 324q20 17 24 42q2 12 2 17
q0 19 -11 30.5t-34 11.5q-27 0 -47 -22t-20 -50q0 -20 12 -33t31 -13q23 0 43 17zM106 49q10 14 16 45l14 70q-37 0 -59 -24.5t-22 -70.5q0 -34 25 -34q16 0 26 14z" />
    <glyph glyph-name="uni0E07" unicode="&#xe07;" horiz-adv-x="508" 
d="M87 167q-25 92 -58 131l92 51q40 -52 61 -139.5t22 -160.5h106l66 326q-15 -7 -34 -7q-31 0 -50.5 21t-19.5 53q0 7 2 21q9 45 44.5 72.5t80.5 27.5q51 0 79 -22.5t28 -65.5q0 -13 -3 -28l-91 -447h-302q2 75 -23 167zM410 423.5q22 23.5 22 55.5q0 21 -13 34t-37 13
q-30 0 -51.5 -24t-21.5 -54q0 -20 13.5 -34t34.5 -14q31 0 53 23.5z" />
    <glyph glyph-name="uni0E08" unicode="&#xe08;" horiz-adv-x="561" 
d="M283 206q-16 -25 -41.5 -38.5t-52.5 -13.5q-39 0 -61.5 23t-22.5 58q0 11 3 23q9 45 42.5 74.5t80.5 29.5q41 0 65.5 -23.5t29.5 -70.5l23 -170q10 42 36 113q18 51 29.5 88t19.5 77q4 17 4 36q0 48 -30.5 75t-90.5 27q-71 0 -114.5 -36.5t-60.5 -100.5h-84
q23 84 94.5 135t181.5 51q103 0 159 -39.5t56 -110.5q0 -17 -5 -42q-6 -32 -19 -68.5t-26.5 -71t-17.5 -44.5q-27 -69 -41.5 -110t-21.5 -77h-103zM247.5 217.5q22.5 24.5 22.5 55.5q0 22 -13 35.5t-36 13.5q-29 0 -48.5 -18.5t-25.5 -46.5q-1 -5 -1 -14q0 -22 13 -36
t36 -14q30 0 52.5 24.5z" />
    <glyph glyph-name="uni0E09" unicode="&#xe09;" horiz-adv-x="591" 
d="M517.5 528q60.5 -35 60.5 -104q0 -19 -4 -35l-26 -128q-9 -43 -54 -79q21 -8 32 -25.5t11 -42.5q0 -11 -3 -25q-9 -46 -41 -72.5t-81 -26.5q-41 0 -62.5 19.5t-21.5 54.5q0 16 2 25l3 10q-57 -25 -92 -47.5t-51 -51.5h-106l34 172q-15 -6 -31 -6q-27 0 -47 18t-20 51
q0 13 2 21q9 43 42.5 69.5t78.5 26.5q47 0 73.5 -22.5t26.5 -61.5q0 -11 -3 -25l-32 -156q18 17 41.5 30t58.5 28q59 27 89.5 50t38.5 62l28 137q3 15 3 28q0 43 -31.5 67.5t-93.5 24.5q-57 0 -102 -25.5t-74 -75.5h-87q29 65 104 107.5t174 42.5q100 0 160.5 -35zM152 218
q22 22 22 53q0 20 -12.5 32.5t-35.5 12.5q-29 0 -49.5 -22t-20.5 -52q0 -21 12 -33.5t33 -12.5q29 0 51 22zM471 51q22 23 22 54q0 20 -12.5 33t-35.5 13q-26 0 -46 -18t-26 -44q-1 -4 -1 -13q0 -21 12.5 -34.5t35.5 -13.5q29 0 51 23z" />
    <glyph glyph-name="uni0E0A" unicode="&#xe0a;" horiz-adv-x="587" 
d="M97 211q78 33 140.5 84.5t76.5 120.5q3 14 3 28q0 36 -22 59t-67 23q-40 0 -69.5 -20.5t-40.5 -49.5q23 19 55 19q37 0 55 -18t18 -49t-16.5 -57.5t-43 -42t-54.5 -15.5q-35 0 -56.5 21.5t-21.5 60.5q0 18 4 34q14 66 64 110t131 44q61 0 97.5 -28.5t36.5 -82.5
q0 -19 -4 -38q-15 -74 -61.5 -124.5t-116.5 -92.5l-29 -146h214l54 265q2 12 2 16q0 21 -12 32.5t-28 14.5l10 48q40 9 76.5 48t47.5 93h94q-14 -65 -51 -106t-73 -56q22 -10 34.5 -28.5t12.5 -43.5q0 -6 -2 -20l-63 -314h-437zM180 343q19 17 24 42q2 12 2 18
q0 18 -11 29.5t-33 11.5q-27 0 -47 -22t-20 -50q0 -20 12 -33t31 -13q23 0 42 17z" />
    <glyph glyph-name="uni0E0B" unicode="&#xe0b;" horiz-adv-x="587" 
d="M97 211q76 32 140 86.5t78 123.5q5 23 5 42q0 36 -20 55l-66 -52l-52 53q-24 -12 -42.5 -37t-25.5 -48q23 19 55 19q36 0 54 -17.5t18 -47.5q0 -12 -3 -26q-7 -39 -39.5 -65t-71.5 -26q-34 0 -55.5 22t-21.5 62q0 18 4 34q11 54 46.5 105t86.5 70l54 -56l77 56
q34 -11 52.5 -37.5t18.5 -67.5q0 -21 -4 -40q-16 -74 -64 -127.5t-116 -94.5l-29 -146h214l54 265q2 12 2 16q0 21 -12.5 32.5t-27.5 14.5l10 48q40 9 76.5 48t47.5 93h94q-14 -65 -51 -106t-73 -56q22 -10 34.5 -28.5t12.5 -43.5q0 -6 -2 -20l-63 -314h-437zM181 326
q21 22 21 51q0 45 -45 45q-27 0 -46.5 -22t-19.5 -50q0 -20 12 -33t30 -13q27 0 48 22z" />
    <glyph glyph-name="uni0E0C" unicode="&#xe0c;" horiz-adv-x="834" 
d="M851 553l-113 -553h-106q-6 28 -33.5 49.5t-75.5 48.5l-1 -6q-9 -47 -42.5 -74.5t-82.5 -27.5q-41 0 -63 19.5t-22 55.5q0 47 25 80.5t66 44.5q-3 8 -3 16q0 7 1 10l38 182q2 16 2 23q0 41 -30.5 67t-89.5 26t-112.5 -34.5t-77.5 -98.5h145l-8 -40q-43 -19 -64.5 -44.5
t-31.5 -71.5l-10 -48q15 7 35 7q25 0 47.5 -18.5t22.5 -54.5q0 -5 -2 -21q-10 -45 -46 -72.5t-81 -27.5q-51 0 -78 23.5t-27 65.5q0 14 3 29l23 108q8 41 35 75.5t74 52.5h-102q20 74 65 123.5t102 72.5t116 23q88 0 144.5 -37.5t56.5 -108.5q0 -20 -4 -39l-30 -152
q-2 -10 -2 -14q0 -25 17.5 -39.5t53.5 -31.5q25 -12 39.5 -21t21.5 -22l93 455h112zM457 52.5q21 23.5 21 53.5q0 21 -13 35t-34 14q-30 0 -52.5 -23.5t-22.5 -55.5q0 -21 13 -34t37 -13q30 0 51 23.5zM128.5 128.5q-22.5 -23.5 -22.5 -54.5q0 -21 12.5 -34t37.5 -13
q26 0 46 18t26 45q1 4 1 13q0 21 -13 35t-35 14q-30 0 -52.5 -23.5z" />
    <glyph glyph-name="uni0E0D" unicode="&#xe0d;" horiz-adv-x="833" 
d="M36 108l23 108q8 41 35 75.5t74 52.5h-102q20 75 64 124t100.5 72t115.5 23q87 0 142 -37.5t55 -108.5q0 -20 -4 -39l-68 -327h165l102 502h112l-113 -553h-386l81 398q2 8 2 24q0 41 -29 66.5t-88 25.5t-110.5 -34.5t-75.5 -98.5h145l-8 -40q-43 -19 -64.5 -44.5
t-31.5 -71.5l-10 -48q15 7 35 7q25 0 47.5 -18.5t22.5 -54.5q0 -5 -2 -21q-10 -45 -46 -72.5t-81 -27.5q-51 0 -78 23.5t-27 65.5q0 14 3 29zM118.5 40q12.5 -13 37.5 -13q26 0 46 18t26 45q1 4 1 13q0 21 -13 35t-35 14q-30 0 -52.5 -23.5t-22.5 -54.5q0 -21 12.5 -34z
M339.5 -75q33.5 35 81.5 35q31 0 53 -16.5t22 -50.5q0 -65 -52 -100q14 -3 27 -3q58 0 105 46.5t70 117.5h83q-32 -102 -103 -156t-171 -54q-61 0 -105 22.5t-44 74.5q0 49 33.5 84zM357 -179q12 -12 34 -12q29 0 49 21t20 53q0 20 -12 32t-33 12q-29 0 -49.5 -21.5
t-20.5 -52.5q0 -20 12 -32z" />
    <glyph glyph-name="uni0E0E" unicode="&#xe0e;" horiz-adv-x="615" 
d="M543.5 526q56.5 -37 56.5 -108q0 -21 -4 -40l-127 -620h-103q-10 36 -33.5 65t-57.5 48q-27 -60 -71 -97t-105 -37q-48 0 -73 18.5t-25 52.5q0 57 45.5 92.5t125.5 35.5q32 0 60 -7q5 20 8 34h64q-8 -36 -14 -54q58 -26 85 -68l114 556q2 14 2 21q0 43 -32.5 69.5
t-93.5 26.5t-117 -36t-79 -97h164l-8 -40q-40 -18 -59 -49.5t-31 -87.5l-20 -99q-11 -55 -50.5 -85t-99.5 -30q-38 0 -62.5 20.5t-24.5 55.5q0 12 3 24q6 32 24.5 53t41 31t40.5 10t31 -7l11 50q7 40 31.5 70t66.5 47h-122q20 74 66 123t104.5 72.5t119.5 23.5
q92 0 148.5 -37zM138 104q0 21 -13 34.5t-36 13.5q-29 0 -51 -23t-22 -55q0 -21 12.5 -34t34.5 -13q29 0 49 18t25 45q1 5 1 14zM168.5 -193q30.5 32 50.5 85q-27 6 -57 6q-50 0 -83.5 -22t-33.5 -57q0 -21 13.5 -32.5t38.5 -11.5q41 0 71.5 32z" />
    <glyph glyph-name="uni0E0F" unicode="&#xe0f;" horiz-adv-x="615" 
d="M543.5 526q56.5 -37 56.5 -108q0 -21 -4 -40l-127 -620h-101l-46 63l-65 -63h-25q-4 30 -22 60q-27 -34 -60.5 -54.5t-70.5 -20.5q-42 0 -67 15.5t-25 50.5q0 48 37.5 76.5t93.5 28.5q40 0 74 -20q8 20 12 42h61q-8 -41 -30 -79q18 -23 25 -46l72 66l40 -51l117 571
q2 14 2 21q0 43 -32.5 69.5t-93.5 26.5t-117 -36t-79 -97h164l-8 -40q-40 -18 -59 -49.5t-31 -87.5l-20 -99q-11 -55 -50.5 -85t-99.5 -30q-38 0 -62.5 20.5t-24.5 55.5q0 12 3 24q6 32 24.5 53t41 31t40.5 10q21 0 31 -7l11 50q7 40 31.5 70t66.5 47h-122q20 74 66 123
t104.5 72.5t119.5 23.5q92 0 148.5 -37zM138 104q0 21 -13 34.5t-36 13.5q-29 0 -51 -23t-22 -55q0 -21 12.5 -34t34.5 -13q29 0 49 18t25 45q1 5 1 14zM134 -199.5q24 19.5 42 54.5q-32 22 -68 22q-32 0 -52.5 -16.5t-20.5 -43.5q0 -17 13.5 -26.5t32.5 -9.5q29 0 53 19.5z
" />
    <glyph glyph-name="uni0E10" unicode="&#xe10;" horiz-adv-x="542" 
d="M460.5 367q43.5 -23 43.5 -76q0 -9 -4 -33q-6 -30 -17.5 -57.5t-34.5 -74.5q-19 -38 -32 -67t-20 -59h-104l-29 148q-15 -25 -41 -38.5t-52 -13.5q-39 0 -61.5 23t-22.5 59q0 8 2 22q9 45 43 74.5t80 29.5q41 0 64 -23.5t31 -70.5l21 -116q8 27 28 67q11 24 21.5 51
t15.5 47q2 9 2 24q0 29 -19 43.5t-62 14.5q-45 0 -132 -2.5t-118 -6.5l9 43q18 84 79 136t163 52q32 0 86 -12q40 -9 60 -9q47 0 85 30l22 -51q-25 -19 -55 -28t-53 -9q-30 0 -67 11q-24 7 -41 10t-41 3q-42 0 -77.5 -31.5t-50.5 -89.5q39 3 148 3q87 0 130.5 -23z
M227 158.5q23 23.5 23 54.5q0 23 -12.5 37t-35.5 14q-34 0 -55.5 -24t-21.5 -56q0 -21 13.5 -35t36.5 -14q29 0 52 23.5zM405 -37.5q18 -12.5 18 -37.5q0 -4 -2 -16l-27 -139h-93l-47 53l-62 -53h-21q-8 32 -21 55q-51 -70 -130 -70q-41 0 -63.5 16.5t-22.5 48.5q0 6 2 20
q7 35 39 59.5t85 24.5q45 0 82 -29q7 15 14 45h46q-8 -36 -28 -77q16 -25 22 -44l69 57l58 -64l10 55q-26 1 -38 13.5t-12 30.5q0 8 1 12q5 21 25 36.5t50 15.5q28 0 46 -12.5zM366 -72q0 9 -6 14.5t-16 5.5q-12 0 -21 -7.5t-12 -20.5q-2 -13 4.5 -20.5t17.5 -7.5
q12 0 21 7.5t11 20.5q1 3 1 8zM82.5 -190.5q23.5 17.5 42.5 50.5q-29 29 -66 29q-29 0 -47 -14.5t-23 -37.5q-1 -3 -1 -9q0 -16 12 -26t33 -10q26 0 49.5 17.5z" />
    <glyph glyph-name="uni0E11" unicode="&#xe11;" horiz-adv-x="651" 
d="M136 234q159 88 179 187q5 23 5 42q0 36 -20 55l-66 -52l-52 53q-24 -12 -42.5 -37t-25.5 -48q23 19 55 19q36 0 54 -17.5t18 -47.5q0 -12 -3 -26q-7 -39 -39.5 -65t-71.5 -26q-34 0 -55.5 22t-21.5 62q0 18 4 34q11 54 46.5 105t86.5 70l54 -56l77 56q33 -10 50.5 -37.5
t17.5 -68.5q0 -22 -4 -42q-12 -59 -54 -116.5t-92 -88.5l-26 -130l304 477h65q72 0 72 -66q0 -14 -3 -31l-93 -461h-111l83 414q3 12 3 23q0 20 -19 20h-8l-290 -457h-124zM181 326q21 22 21 51q0 45 -45 45q-27 0 -46.5 -22t-19.5 -50q0 -20 12 -33t30 -13q27 0 48 22z" />
    <glyph glyph-name="uni0E12" unicode="&#xe12;" horiz-adv-x="874" 
d="M890 553l-112 -553h-107q-5 29 -30 49t-73 43q-9 -47 -42.5 -74.5t-81.5 -27.5q-42 0 -64 19.5t-22 55.5q0 48 25.5 81.5t66.5 44.5q-5 17 -5 34q0 12 3 27l20 99q9 43 9 70q0 57 -38 78l-93 -67l-62 66q-72 -30 -93 -133q-9 -45 -15 -134q-3 -51 -7.5 -89.5t-14.5 -76.5
q40 25 80.5 62t69.5 73q-3 -1 -9 -1q-36 0 -55.5 20t-19.5 51q0 47 32.5 80t79.5 33q38 0 58.5 -19.5t20.5 -50.5q0 -11 -3 -23q-16 -75 -93.5 -156.5t-169.5 -133.5h-117q13 34 24 82q9 47 13 136q2 46 4.5 77t9.5 64q15 76 70 128.5t142 70.5l66 -72l105 72
q65 -15 96.5 -51t31.5 -89q0 -19 -5 -44l-29 -143q-1 -4 -1 -12q0 -23 18.5 -38.5t53.5 -34.5q26 -15 39 -24t20 -20l93 451h111zM350 253.5q21 22.5 21 52.5q0 20 -11 31.5t-34 11.5q-24 0 -42.5 -17t-23.5 -42q-1 -4 -1 -13q0 -19 12.5 -32.5t30.5 -13.5q27 0 48 22.5z
M503 52.5q21 23.5 21 53.5q0 21 -13 35t-34 14q-30 0 -52.5 -23.5t-22.5 -55.5q0 -21 13 -34t37 -13q30 0 51 23.5z" />
    <glyph glyph-name="uni0E13" unicode="&#xe13;" horiz-adv-x="846" 
d="M744 189q22 -8 34 -26.5t12 -44.5q0 -12 -3 -26q-9 -47 -42.5 -74.5t-82.5 -27.5q-41 0 -62.5 19.5t-21.5 54.5q0 21 4 36q-48 -25 -80.5 -48.5t-48.5 -51.5h-105l74 369q6 27 6 52q0 44 -25.5 68.5t-87.5 24.5q-58 0 -108.5 -34.5t-75.5 -98.5h145l-8 -40
q-43 -19 -64.5 -44.5t-31.5 -71.5l-10 -48q15 7 35 7q25 0 47.5 -18.5t22.5 -54.5q0 -5 -2 -21q-10 -45 -46 -72.5t-81 -27.5q-51 0 -78 23.5t-27 65.5q0 14 3 29l23 108q8 41 35 75.5t74 52.5h-102q20 75 63.5 124t99.5 72t115 23q87 0 141 -36.5t54 -107.5q0 -22 -4 -41
l-59 -287q16 17 38 31t61 36q56 31 83.5 52.5t32.5 48.5l60 294h111l-58 -286q-10 -42 -60 -78zM723.5 52q20.5 23 20.5 54q0 21 -13 35t-35 14q-30 0 -51.5 -23t-21.5 -54q0 -22 12.5 -35.5t35.5 -13.5q32 0 52.5 23zM128.5 128.5q-22.5 -23.5 -22.5 -54.5q0 -21 12.5 -34
t37.5 -13q26 0 46 18t26 45q1 4 1 13q0 21 -13 35t-35 14q-30 0 -52.5 -23.5z" />
    <glyph glyph-name="uni0E14" unicode="&#xe14;" horiz-adv-x="627" 
d="M52 82q9 47 13 136q2 46 4.5 77t9.5 64q19 95 97 149.5t210 54.5q114 0 169.5 -40.5t55.5 -110.5q0 -18 -5 -43l-75 -369h-111l74 371q5 23 5 40q0 47 -31 75t-96 28q-76 0 -121.5 -41t-59.5 -108q-9 -44 -14 -121q-8 -91 -18 -144q-1 -5 -4 -18t-7 -23q46 27 95 67.5
t76 73.5q-4 -1 -12 -1q-35 0 -54 20.5t-19 51.5q0 7 2 19q8 41 39 67t73 26q38 0 57.5 -19t19.5 -50q0 -12 -3 -24q-15 -74 -99.5 -155t-182.5 -135h-112q13 34 24 82zM365 253.5q21 22.5 21 53.5q0 19 -11.5 30.5t-33.5 11.5q-28 0 -47.5 -21.5t-19.5 -50.5q0 -20 12 -33
t31 -13q27 0 48 22.5z" />
    <glyph glyph-name="uni0E15" unicode="&#xe15;" horiz-adv-x="627" 
d="M52 82q9 47 13 136q2 46 4.5 77t9.5 64q15 76 70 128.5t142 70.5l78 -74l115 74q64 -14 95.5 -52t31.5 -92q0 -18 -5 -45l-75 -369h-111l74 371q5 23 5 42q0 61 -45 85l-96 -66l-72 66q-74 -32 -95 -133q-6 -33 -12 -104q-6 -89 -17 -141q-9 -43 -14 -61q46 27 95 67.5
t76 73.5q-4 -1 -12 -1q-35 0 -54 20.5t-19 51.5q0 7 2 19q8 41 39 67t73 26q38 0 57.5 -19t19.5 -50q0 -12 -3 -24q-15 -74 -99.5 -155t-182.5 -135h-112q13 34 24 82zM365 253.5q21 22.5 21 53.5q0 19 -11.5 30.5t-33.5 11.5q-28 0 -47.5 -21.5t-19.5 -50.5q0 -20 12 -33
t31 -13q27 0 48 22.5z" />
    <glyph glyph-name="uni0E16" unicode="&#xe16;" horiz-adv-x="576" 
d="M35 81q0 16 5 43l19 92q8 41 35 75.5t74 52.5h-102q20 74 66 123t104.5 72.5t118.5 23.5q93 0 149.5 -36.5t56.5 -108.5q0 -21 -4 -40l-77 -378h-111l80 397q2 7 2 22q0 41 -32.5 68t-92.5 27q-61 0 -117 -36t-78 -97h145l-8 -40q-43 -19 -64.5 -44.5t-31.5 -71.5
l-10 -48q15 7 35 7q25 0 47.5 -18.5t22.5 -54.5q0 -5 -2 -21q-10 -45 -46 -72.5t-81 -27.5q-103 0 -103 91zM202 45q20 18 26 45q1 4 1 13q0 21 -13 35t-35 14q-30 0 -52.5 -23.5t-22.5 -54.5q0 -21 12.5 -34t37.5 -13q26 0 46 18z" />
    <glyph glyph-name="uni0E17" unicode="&#xe17;" horiz-adv-x="626" 
d="M163 376q-14 -7 -33 -7q-26 0 -49 18.5t-23 53.5q0 14 2 22q10 45 45.5 72.5t80.5 27.5q51 0 79 -22.5t28 -65.5q0 -13 -3 -28l-60 -289l246 395h74q76 0 76 -69q0 -17 -4 -34l-91 -450h-111l82 405q3 17 3 26q0 21 -19 21h-11l-282 -452h-106zM197 424q22 23 22 55
q0 21 -12.5 34t-37.5 13q-30 0 -51.5 -23t-21.5 -55q0 -20 13.5 -33.5t34.5 -13.5q31 0 53 23z" />
    <glyph glyph-name="uni0E18" unicode="&#xe18;" horiz-adv-x="558" 
d="M70 261h110l-43 -210h224l41 201q5 23 5 37q0 28 -18 40t-61 12q-45 0 -133 -2.5t-119 -6.5l8 43q18 83 82.5 135.5t166.5 52.5q28 0 88 -12q8 -1 30.5 -5t36.5 -4q17 0 32.5 6t38.5 24l22 -51q-49 -37 -94 -37q-29 0 -71 11q-27 7 -45.5 10t-42.5 3q-42 0 -80.5 -32
t-52.5 -89q39 3 145 3q90 0 133.5 -21t43.5 -78q0 -20 -4 -39l-51 -252h-445z" />
    <glyph glyph-name="uni0E19" unicode="&#xe19;" horiz-adv-x="629" 
d="M531 186q43 -18 43 -69q0 -11 -3 -25q-9 -48 -43.5 -75t-86.5 -27q-45 0 -68.5 20.5t-23.5 56.5q0 16 2 25l4 16q-70 -27 -109.5 -51t-50.5 -57h-108l76 376q-14 -7 -33 -7q-26 0 -49 18.5t-23 53.5q0 14 2 22q10 45 45.5 72.5t80.5 27.5q51 0 79 -22.5t28 -65.5
q0 -13 -3 -28l-73 -355q17 14 41.5 25.5t63.5 25.5q47 18 74.5 31t49 33.5t27.5 48.5l61 297h111l-60 -296q-9 -40 -54 -71zM197 424q22 23 22 55q0 21 -12.5 34t-37.5 13q-30 0 -51.5 -23t-21.5 -55q0 -20 13.5 -33.5t34.5 -13.5q31 0 53 23zM516 108q0 21 -11.5 33
t-30.5 12q-15 0 -26 -7q-13 -7 -23 -21t-14 -32q-2 -12 -2 -16q0 -20 11 -31.5t30 -11.5q25 0 42 16t22 43q2 10 2 15z" />
    <glyph glyph-name="uni0E1A" unicode="&#xe1a;" horiz-adv-x="631" 
d="M31 51h66l66 325q-14 -7 -33 -7q-26 0 -49 18.5t-23 53.5q0 14 2 22q10 45 45.5 72.5t80.5 27.5q51 0 79 -22.5t28 -65.5q0 -13 -3 -28l-82 -396h225l103 502h111l-112 -553h-514zM197 424q22 23 22 55q0 21 -12.5 34t-37.5 13q-30 0 -51.5 -23t-21.5 -55
q0 -20 13.5 -33.5t34.5 -13.5q31 0 53 23z" />
    <glyph glyph-name="uni0E1B" unicode="&#xe1b;" horiz-adv-x="631" 
d="M31 51h66l66 325q-14 -7 -33 -7q-26 0 -49 18.5t-23 53.5q0 14 2 22q10 45 45.5 72.5t80.5 27.5q51 0 79 -22.5t28 -65.5q0 -13 -3 -28l-82 -396h225l140 685h111l-149 -736h-514zM197 424q22 23 22 55q0 21 -12.5 34t-37.5 13q-30 0 -51.5 -23t-21.5 -55
q0 -20 13.5 -33.5t34.5 -13.5q31 0 53 23z" />
    <glyph glyph-name="uni0E1C" unicode="&#xe1c;" horiz-adv-x="626" 
d="M108 447q10 55 50 85.5t99 30.5q40 0 64 -21t24 -57q0 -6 -2 -22q-10 -47 -43.5 -70.5t-64.5 -23.5q-21 0 -31 5l-54 -263l160 204h53l78 -203l90 441h111l-112 -553h-111l-95 255l-197 -255h-111zM285 424q22 23 22 54q0 22 -12.5 35t-35.5 13q-29 0 -48 -17.5
t-25 -45.5q-1 -5 -1 -14q0 -21 13.5 -34.5t35.5 -13.5q29 0 51 23z" />
    <glyph glyph-name="uni0E1D" unicode="&#xe1d;" horiz-adv-x="626" 
d="M108 447q10 55 50 85.5t99 30.5q40 0 64 -21t24 -57q0 -6 -2 -22q-10 -47 -43.5 -70.5t-64.5 -23.5q-21 0 -31 5l-54 -263l160 204h53l78 -203l127 624h112l-150 -736h-111l-95 255l-197 -255h-111zM285 424q22 23 22 54q0 22 -12.5 35t-35.5 13q-29 0 -48 -17.5
t-25 -45.5q-1 -5 -1 -14q0 -21 13.5 -34.5t35.5 -13.5q29 0 51 23z" />
    <glyph glyph-name="uni0E1E" unicode="&#xe1e;" horiz-adv-x="693" 
d="M163 376q-14 -7 -33 -7q-26 0 -49 18.5t-23 53.5q0 14 2 22q10 45 45.5 72.5t80.5 27.5q51 0 79 -22.5t28 -65.5q0 -13 -3 -28l-56 -269l182 318h55l50 -319l77 376h111l-112 -553h-111l-61 406l-226 -406h-112zM197 424q22 23 22 55q0 21 -12.5 34t-37.5 13
q-30 0 -51.5 -23t-21.5 -55q0 -20 13.5 -33.5t34.5 -13.5q31 0 53 23z" />
    <glyph glyph-name="uni0E1F" unicode="&#xe1f;" horiz-adv-x="693" 
d="M163 376q-14 -7 -33 -7q-26 0 -49 18.5t-23 53.5q0 14 2 22q10 45 45.5 72.5t80.5 27.5q51 0 79 -22.5t28 -65.5q0 -13 -3 -28l-56 -269l182 318h55l50 -319l115 559h111l-150 -736h-111l-61 406l-226 -406h-112zM197 424q22 23 22 55q0 21 -12.5 34t-37.5 13
q-30 0 -51.5 -23t-21.5 -55q0 -20 13.5 -33.5t34.5 -13.5q31 0 53 23z" />
    <glyph glyph-name="uni0E20" unicode="&#xe20;" horiz-adv-x="615" 
d="M2.5 10.5q-24.5 20.5 -24.5 55.5q0 12 3 24q6 32 24.5 53t41 31t40.5 10q16 0 31 -6l11 49q7 40 31.5 70t66.5 47h-122q20 74 66 123t104.5 72.5t119.5 23.5q92 0 148.5 -37t56.5 -108q0 -21 -4 -40l-77 -378h-111l81 397q2 14 2 21q0 42 -32.5 69t-93.5 27t-117.5 -36
t-78.5 -97h164l-8 -40q-40 -18 -59 -49.5t-31 -87.5l-20 -99q-11 -55 -50.5 -85t-99.5 -30q-38 0 -62.5 20.5zM112 45q20 18 25 45q1 5 1 14q0 21 -13 34.5t-36 13.5q-29 0 -51 -23t-22 -55q0 -21 12.5 -34t34.5 -13q29 0 49 18z" />
    <glyph glyph-name="uni0E21" unicode="&#xe21;" horiz-adv-x="624" 
d="M36 11.5q-19 21.5 -19 55.5q0 11 4 33q10 46 40.5 80.5t80.5 34.5q7 0 10 -1l32 162q-14 -7 -33 -7q-26 0 -49 17.5t-23 52.5q0 37 18 65t47.5 43.5t62.5 15.5q51 0 79 -22.5t28 -65.5q0 -13 -3 -28l-50 -240q52 -12 105 -45.5t71 -62.5l92 454h111l-112 -553h-102
q-17 47 -68 89.5t-107 62.5l-11 -51q-11 -58 -45 -84.5t-98 -26.5q-42 0 -61 21.5zM218 424q22 23 22 55q0 21 -12.5 34t-37.5 13q-30 0 -51.5 -23t-21.5 -55q0 -20 13.5 -33.5t34.5 -13.5q31 0 53 23zM111 48q9 13 17 47l15 78q-40 0 -61 -29.5t-21 -72.5q0 -36 24 -36
q17 0 26 13z" />
    <glyph glyph-name="uni0E22" unicode="&#xe22;" horiz-adv-x="577" 
d="M43 174q8 32 34 61.5t67 40.5q-28 13 -45.5 41.5t-17.5 67.5q0 20 4 37q13 63 55.5 102t107.5 39q43 0 67 -20.5t24 -56.5q0 -15 -2 -23q-6 -31 -24.5 -52.5t-41 -32t-41.5 -10.5q-29 0 -42 8q-4 -37 20 -54t59 -17h69l-11 -55h-75q-40 0 -65.5 -27t-31.5 -61l-23 -111
h249l103 502h111l-112 -553h-472zM273.5 418q20.5 18 26.5 45q1 4 1 13q0 22 -12.5 36t-35.5 14q-29 0 -48 -18t-25 -45q-1 -5 -1 -14q0 -21 13.5 -35t35.5 -14q25 0 45.5 18z" />
    <glyph glyph-name="uni0E23" unicode="&#xe23;" horiz-adv-x="497" 
d="M197.5 10.5q-24.5 20.5 -24.5 55.5q0 36 17.5 63t42.5 41.5t46 14.5q26 0 34 -7l20 98q3 14 3 25q0 26 -18.5 37.5t-61.5 11.5q-38 0 -102.5 -2.5t-95.5 -7.5l8 43q17 84 76 132t161 48q32 0 80 -12q6 -1 25.5 -5t35.5 -4q19 0 33.5 5.5t38.5 24.5l22 -54
q-44 -34 -87 -34q-31 0 -77 12q-5 1 -27 6t-46 5q-43 0 -83 -26.5t-54 -85.5q48 3 105 3q67 0 105.5 -6.5t57.5 -22.5t19 -47q0 -8 -4 -32l-37 -182q-10 -55 -50 -86.5t-100 -31.5q-38 0 -62.5 20.5zM306.5 44.5q19.5 17.5 25.5 45.5q1 5 1 14q0 21 -13 34.5t-36 13.5
q-29 0 -51 -23.5t-22 -54.5q0 -21 12.5 -34t34.5 -13q29 0 48.5 17.5z" />
    <glyph glyph-name="uni0E24" unicode="&#xe24;" horiz-adv-x="576" 
d="M449 397q2 7 2 22q0 41 -32.5 68t-92.5 27q-61 0 -117 -36t-78 -97h145l-8 -40q-43 -19 -64.5 -44.5t-31.5 -71.5l-10 -48q15 7 35 7q25 0 47.5 -18.5t22.5 -54.5q0 -5 -2 -21q-10 -45 -46 -72.5t-81 -27.5q-103 0 -103 91q0 16 5 43l19 92q8 41 35 75.5t74 52.5h-102
q20 74 66 123t104.5 72.5t118.5 23.5q93 0 149.5 -36.5t56.5 -108.5q0 -21 -4 -40l-117 -574h-112zM202 45q20 18 26 45q1 4 1 13q0 21 -13 35t-35 14q-30 0 -52.5 -23.5t-22.5 -54.5q0 -21 12.5 -34t37.5 -13q26 0 46 18z" />
    <glyph glyph-name="uni0E25" unicode="&#xe25;" horiz-adv-x="567" 
d="M37.5 21q-29.5 31 -29.5 87q0 28 5 50q20 97 90.5 153t168.5 56q49 0 89.5 -21t56.5 -61l21 104q3 15 3 30q0 43 -28.5 69t-89.5 26q-54 0 -98 -24t-72 -75h-84q29 66 105 107t168 41q90 0 150 -36t60 -107q0 -19 -4 -36l-78 -384h-111l34 167q4 24 4 33q0 54 -37.5 86.5
t-89.5 32.5q-64 0 -106 -47t-57 -119q11 18 30.5 27t39.5 9q32 0 52.5 -20t20.5 -56q0 -15 -2 -23q-10 -46 -45 -73t-82 -27q-55 0 -84.5 31zM190.5 50q21.5 23 21.5 54q0 21 -13 34.5t-34 13.5q-31 0 -53 -23.5t-22 -55.5q0 -21 12.5 -33.5t36.5 -12.5q30 0 51.5 23z" />
    <glyph glyph-name="uni0E26" unicode="&#xe26;" horiz-adv-x="615" 
d="M489 397q2 14 2 21q0 42 -32.5 69t-93.5 27t-117.5 -36t-78.5 -97h164l-8 -40q-40 -18 -59 -49.5t-31 -87.5l-20 -99q-11 -55 -50.5 -85t-99.5 -30q-38 0 -62.5 20.5t-24.5 55.5q0 12 3 24q6 32 24.5 53t41 31t40.5 10t31 -6l11 49q7 40 31.5 70t66.5 47h-122
q20 74 66 123t104.5 72.5t119.5 23.5q92 0 148.5 -37t56.5 -108q0 -21 -4 -40l-117 -574h-111zM112 45q20 18 25 45q1 5 1 14q0 21 -13 34.5t-36 13.5q-29 0 -51 -23t-22 -55q0 -21 12.5 -34t34.5 -13q29 0 49 18z" />
    <glyph glyph-name="uni0E27" unicode="&#xe27;" horiz-adv-x="517" 
d="M229.5 11q-24.5 21 -24.5 56q0 11 3 23q7 32 25.5 53t40.5 31t41 10q18 0 31 -7l46 223q3 15 3 27q0 43 -29.5 65t-78.5 22q-56 0 -102.5 -33.5t-63.5 -94.5h-82q22 84 96 130.5t167 46.5q97 0 150.5 -31.5t53.5 -96.5q0 -20 -4 -37l-59 -290q-11 -55 -51 -86.5
t-99 -31.5q-39 0 -63.5 21zM339 45q20 18 26 45q1 5 1 14q0 21 -13.5 34.5t-35.5 13.5q-29 0 -51 -23.5t-22 -55.5q0 -21 12 -33.5t35 -12.5q28 0 48 18z" />
    <glyph glyph-name="uni0E28" unicode="&#xe28;" horiz-adv-x="621" 
d="M582 490q23 -34 23 -79q0 -17 -5 -42l-75 -369h-111l75 371q4 16 4 36q0 49 -31.5 78t-97.5 29q-77 0 -125 -41.5t-61 -107.5q-7 -32 -9 -97q-1 -37 -4 -65.5t-11 -56.5l74 152q22 46 52.5 69t72.5 23q37 0 57.5 -19t20.5 -51q0 -12 -3 -24q-7 -38 -38 -65t-74 -27
q-23 0 -41 11t-23 34l-117 -249h-107q13 34 24 82q9 47 13 136q2 46 4.5 77t9.5 64q20 96 94 150t204 54q99 0 158 -32q37 25 51 63h88q-27 -67 -92 -104zM280 284q0 -20 12.5 -33.5t31.5 -13.5q26 0 47 22.5t21 52.5q0 20 -11 31.5t-33 11.5q-25 0 -43.5 -17t-23.5 -42
q-1 -4 -1 -12z" />
    <glyph glyph-name="uni0E29" unicode="&#xe29;" horiz-adv-x="685" 
d="M599 227l-46 -227h-532l10 51h66l66 325q-14 -7 -33 -7q-26 0 -49 18.5t-23 53.5q0 14 2 22q10 45 45.5 72.5t80.5 27.5q51 0 79 -22.5t28 -65.5q0 -13 -3 -28l-82 -396h243l29 142q-25 -3 -51 -3q-83 0 -115.5 23.5t-32.5 63.5q0 49 34 84.5t86 35.5q44 0 63 -19.5
t19 -50.5q0 -7 -2 -21q-9 -43 -39 -69q26 2 48 6l64 310h111l-48 -238q33 36 46 86h78q-44 -122 -142 -174zM197 424q22 23 22 55q0 21 -12.5 34t-37.5 13q-30 0 -51.5 -23t-21.5 -55q0 -20 13.5 -33.5t34.5 -13.5q31 0 53 23zM418.5 264.5q20.5 22.5 20.5 50.5
q0 19 -11 31.5t-34 12.5q-25 0 -44 -17.5t-24 -41.5q-1 -4 -1 -11q0 -20 12.5 -33.5t32.5 -13.5q28 0 48.5 22.5z" />
    <glyph glyph-name="uni0E2A" unicode="&#xe2a;" horiz-adv-x="567" 
d="M533 489q20 -29 20 -69q0 -19 -4 -36l-78 -384h-111l34 167q4 24 4 33q0 54 -37.5 86.5t-89.5 32.5q-64 0 -106 -47t-57 -119q11 18 30.5 27t39.5 9q32 0 52.5 -20t20.5 -56q0 -15 -2 -23q-10 -46 -45 -73t-82 -27q-55 0 -84.5 31t-29.5 87q0 28 5 50q20 97 90.5 153
t168.5 56q49 0 89.5 -21t56.5 -61l21 104q3 15 3 30q0 43 -28.5 69t-89.5 26q-54 0 -98 -24t-72 -75h-84q29 66 105 107t168 41q88 0 143 -32q38 26 52 63h88q-27 -67 -93 -105zM112 128.5q-22 -23.5 -22 -55.5q0 -21 12.5 -33.5t36.5 -12.5q30 0 51.5 23t21.5 54
q0 21 -13 34.5t-34 13.5q-31 0 -53 -23.5z" />
    <glyph glyph-name="uni0E2B" unicode="&#xe2b;" horiz-adv-x="631" 
d="M627.5 420q-18.5 -31 -52.5 -47q24 -14 24 -45q0 -5 -2 -19l-62 -309h-112l53 259q3 15 3 24q0 20 -15 20q-10 0 -18.5 -7t-16 -16t-9.5 -12l-227 -268h-106l76 376q-14 -7 -33 -7q-26 0 -49 18.5t-23 53.5q0 14 2 22q10 45 45.5 72.5t80.5 27.5q51 0 79 -22.5t28 -65.5
q0 -13 -3 -28l-66 -320l165 192q34 41 63 56q-31 21 -31 65q0 17 2 25q9 44 43 71t87 27q46 0 69.5 -20t23.5 -54q0 -38 -18.5 -69zM197 424q22 23 22 55q0 21 -12.5 34t-37.5 13q-30 0 -51.5 -23t-21.5 -55q0 -20 13.5 -33.5t34.5 -13.5q31 0 53 23zM594 477q0 21 -13 34.5
t-36 13.5q-28 0 -50 -23t-22 -54q0 -21 12.5 -34.5t34.5 -13.5q29 0 48 17.5t25 45.5q1 5 1 14z" />
    <glyph glyph-name="uni0E2C" unicode="&#xe2c;" horiz-adv-x="693" 
d="M716 682q8 -21 8 -43q0 -15 -3 -30l-124 -609h-111l-61 406l-226 -406h-112l76 376q-14 -7 -33 -7q-26 0 -49 18.5t-23 53.5q0 14 2 22q10 45 45.5 72.5t80.5 27.5q51 0 79 -22.5t28 -65.5q0 -13 -3 -28l-56 -269l182 318h55l50 -319l87 421q-64 -29 -141 -29
q-74 0 -109.5 21t-35.5 59q0 58 56.5 90.5t146.5 32.5t145 -35q11 23 19 57h86q-20 -64 -59 -112zM415 627q18 -12 55 -12q85 0 142 47q-7 32 -36 48.5t-70 16.5q-42 0 -72 -14.5t-36 -43.5q-1 -3 -1 -10q0 -20 18 -32zM197 424q22 23 22 55q0 21 -12.5 34t-37.5 13
q-30 0 -51.5 -23t-21.5 -55q0 -20 13.5 -33.5t34.5 -13.5q31 0 53 23z" />
    <glyph glyph-name="uni0E2D" unicode="&#xe2d;" horiz-adv-x="572" 
d="M63 239q12 55 52 85.5t99 30.5q40 0 64 -21t24 -57q0 -6 -2 -22q-10 -47 -43.5 -70.5t-64.5 -23.5q-21 0 -32 6l-24 -116h238l70 338q3 15 3 29q0 43 -29.5 69.5t-90.5 26.5q-60 0 -106 -26t-66 -76h-84q26 69 100.5 110t173.5 41q90 0 151.5 -36t61.5 -108q0 -19 -4 -35
l-78 -384h-461zM242 216q22 23 22 54q0 22 -12.5 35t-35.5 13q-29 0 -48 -17.5t-25 -45.5q-2 -10 -2 -14q0 -21 14 -34.5t36 -13.5q29 0 51 23z" />
    <glyph glyph-name="uni0E2E" unicode="&#xe2e;" horiz-adv-x="572" 
d="M544 482q16 -26 16 -56q0 -14 -3 -29l-81 -397h-461l41 201q11 55 51 85.5t99 30.5q40 0 64 -21t24 -57q0 -6 -2 -22q-10 -47 -43.5 -70.5t-64.5 -23.5q-21 0 -31 6l-17 -78h238l72 353l1 3q-45 -24 -96 -36.5t-99 -12.5q-78 0 -119 20.5t-41 60.5q0 59 67 91.5t170 32.5
q45 0 89.5 -9t77.5 -28q18 32 27 70h88q-20 -62 -67 -114zM187 418q24 -14 68 -14q47 0 96 15t89 45q-16 28 -53.5 41.5t-81.5 13.5q-46 0 -88 -16.5t-49 -46.5q-5 -24 19 -38zM134 203q0 -21 13 -34.5t35 -13.5q29 0 51.5 23t22.5 54q0 22 -12.5 35t-35.5 13
q-29 0 -48 -17.5t-25 -45.5q-1 -5 -1 -14z" />
    <glyph glyph-name="uni0E2F" unicode="&#xe2f;" horiz-adv-x="481" 
d="M345 352q-23 -31 -63 -54.5t-84 -23.5q-63 0 -94.5 33t-31.5 88q0 19 5 44q10 51 44.5 87.5t87.5 36.5q43 0 63.5 -19t20.5 -51q0 -7 -2 -21q-9 -44 -39.5 -72t-60.5 -28q-28 0 -42 6q2 -23 16.5 -35.5t45.5 -12.5q34 0 68 20.5t58.5 55.5t33.5 77l14 70h112l-112 -553
h-111zM228.5 430.5q21.5 21.5 21.5 50.5q0 21 -12 34t-33 13q-27 0 -45.5 -17t-24.5 -43q-1 -4 -1 -12q0 -21 12.5 -34t33.5 -13q27 0 48.5 21.5z" />
    <glyph glyph-name="uni0E30" unicode="&#xe30;" horiz-adv-x="402" 
d="M95 473q32 32 81 32q31 0 51 -16t20 -44q0 -5 -2 -15q-13 -61 -73 -81q18 -4 30 -4q54 0 96.5 44t60.5 111h77q-27 -100 -91.5 -151t-148.5 -51q-62 0 -97.5 24.5t-35.5 69.5q0 49 32 81zM119.5 381.5q10.5 -9.5 26.5 -9.5q20 0 35.5 13t20.5 37q1 5 1 13q0 18 -10 27
t-27 9q-19 0 -35 -13t-21 -36q-1 -4 -1 -12q0 -19 10.5 -28.5zM38.5 196q31.5 32 80.5 32q31 0 51 -16t20 -43q0 -4 -2 -16q-12 -61 -73 -81q20 -4 30 -4q55 0 97.5 44t59.5 111h77q-26 -100 -90.5 -151t-149.5 -51q-62 0 -97 24.5t-35 68.5q0 50 31.5 82zM63 104.5
q10 -9.5 26 -9.5q20 0 35.5 13t20.5 37q2 10 2 14q0 17 -11 26t-27 9q-22 0 -39 -16.5t-17 -46.5q0 -17 10 -26.5z" />
    </font>
</defs>
</svg>
