<?xml version="1.0" standalone="no"?>
<!DOCTYPE svg PUBLIC "-//W3C//DTD SVG 1.1//EN" "http://www.w3.org/Graphics/SVG/1.1/DTD/svg11.dtd" >
<svg xmlns="http://www.w3.org/2000/svg" xmlns:xlink="http://www.w3.org/1999/xlink" version="1.1">
<metadata>
Created by FontForge 20170731 at Fri May  5 14:19:02 2017
 By Aleksey,,,
Copyright (c) 2015, Cadson Demak (info@cadsondemak.com)
</metadata>
<defs>
<font id="Taviraj-ThinItalic" horiz-adv-x="0" >
  <font-face 
    font-family="Taviraj Thin"
    font-weight="250"
    font-style="italic"
    font-stretch="normal"
    units-per-em="1000"
    panose-1="0 0 2 0 0 0 0 0 0 0"
    ascent="750"
    descent="-250"
    x-height="470"
    cap-height="700"
    bbox="-440 -459 1163 1107"
    underline-thickness="50"
    underline-position="-150"
    slope="-12"
    unicode-range="U+000D-FB02"
  />
<missing-glyph horiz-adv-x="564" 
d="M44 714h400v-714h-400v714zM410 31v652h-332v-652h332z" />
    <glyph glyph-name="fi" unicode="fi" horiz-adv-x="561" 
d="M163 449h-85l4 21h85l25 121q13 63 70 97.5t142 34.5q72 0 110.5 -24t38.5 -63q0 -23 -9 -35t-22 -12q-12 0 -17.5 6t-2.5 17q2 8 10 18t9 15q3 14 -12 26.5t-43.5 20.5t-65.5 8q-74 0 -121 -28t-58 -82l-25 -120h301l7 3h16l-88 -433q-2 -10 -2 -13q0 -16 15 -16
q9 0 33 8l-2 -8q-24 -21 -49 -21q-13 0 -20.5 7.5t-7.5 21.5q0 6 1 9l87 421h-295l-122 -595l-30 -5z" />
    <glyph glyph-name="fl" unicode="fl" horiz-adv-x="565" 
d="M163 449h-85l4 21h85l25 121q13 64 55.5 98t111.5 34q42 0 73.5 -8t63.5 -22l55 24h16l-138 -677q-2 -10 -2 -13q0 -16 16 -16q8 0 32 8l-2 -8q-24 -21 -49 -21q-13 0 -20.5 7.5t-7.5 21.5q0 6 1 9l133 646v3q0 9 -10 9q-14 0 -36 -11q-28 12 -55.5 18.5t-63.5 6.5
q-66 0 -99 -26.5t-45 -83.5l-25 -120h138l-4 -21h-138l-122 -595l-30 -5z" />
    <glyph glyph-name="ru_lakkhangyaothai" unicode="&#xe24;&#xe45;" horiz-adv-x="811" 
d="M759.5 535.5q36.5 -27.5 36.5 -87.5q0 -19 -5 -47l-122 -597h-31l122 600q5 25 5 42q0 47 -28 71t-79 24q-48 0 -91 -27.5t-66 -81.5q1 -18 -4 -48l-118 -580h-31l120 589q3 15 3 30q0 52 -36.5 85t-105.5 33q-37 0 -79 -17t-78.5 -52.5t-55.5 -87.5h103l-5 -23
q-50 -25 -74.5 -57t-36.5 -91l-15 -70q27 24 67 24q25 0 46 -16t21 -49q0 -31 -15.5 -57t-40 -40.5t-51.5 -14.5q-71 0 -71 68q0 20 4 39l24 117q23 109 112 149h-103q20 66 61 111t91.5 67t101.5 22q58 0 101 -23t58 -68q29 43 74 67t94 24q61 0 97.5 -27.5zM94 118.5
q-23 -24.5 -23 -57.5q0 -22 12 -34.5t37 -12.5q30 0 52 24.5t22 55.5q0 22 -13.5 35.5t-33.5 13.5q-30 0 -53 -24.5z" />
    <glyph glyph-name="lu_lakkhangyaothai" unicode="&#xe26;&#xe45;" horiz-adv-x="860" 
d="M808.5 535.5q36.5 -27.5 36.5 -87.5q0 -19 -5 -47l-122 -597h-31l122 600q5 25 5 41q0 47 -28 71.5t-79 24.5q-48 0 -91.5 -28t-66.5 -83q1 -18 -4 -46l-118 -580h-31l120 589q3 15 3 30q0 52 -36.5 85t-105.5 33q-37 0 -79 -17t-78.5 -52.5t-55.5 -87.5h132l-5 -23
q-50 -25 -74.5 -57t-36.5 -91l-24 -116q-22 -107 -112 -107q-31 0 -50 18.5t-19 49.5q0 14 2 21q9 45 40 66.5t61 21.5q18 0 33.5 -6t22.5 -18l15 71q9 49 36 88t76 61h-132q20 66 61 111t91.5 67t101.5 22q59 0 102 -23t58 -69q28 43 73.5 67.5t94.5 24.5q61 0 97.5 -27.5z
M125 94q0 21 -14 35t-35 14q-28 0 -51 -24t-23 -56q0 -22 12 -35.5t35 -13.5q30 0 49 18.5t25 46.5q2 10 2 15z" />
    <glyph glyph-name=".notdef" horiz-adv-x="564" 
d="M44 714h400v-714h-400v714zM410 31v652h-332v-652h332z" />
    <glyph glyph-name=".null" horiz-adv-x="470" 
 />
    <glyph glyph-name="nonmarkingreturn" unicode="&#xd;" horiz-adv-x="245" 
 />
    <glyph glyph-name="space" unicode=" " horiz-adv-x="245" 
 />
    <glyph glyph-name="exclam" unicode="!" horiz-adv-x="214" 
d="M179 643l3 16q6 29 12 40t20 11q16 0 16 -19q0 -4 -4 -32l-4 -16l-122 -544h-19zM45.5 -3q-7.5 7 -7.5 18q0 19 12.5 31t30.5 12q15 0 22 -9t5 -25q-4 -16 -15.5 -25t-26.5 -9q-13 0 -20.5 7z" />
    <glyph glyph-name="quotedbl" unicode="&#x22;" horiz-adv-x="327" 
d="M177 662l1 4q6 31 14 47t21 16q15 0 15 -24q0 -13 -5 -38l-56 -211h-19zM298 662l1 4q6 31 13.5 47t20.5 16q16 0 16 -25q0 -14 -5 -37l-57 -211h-19z" />
    <glyph glyph-name="numbersign" unicode="#" horiz-adv-x="780" 
d="M627 486l-115 -268h174l-4 -24h-180l-87 -204h-27l87 204h-230l-87 -204h-27l87 204h-181l5 24h186l115 268h-184l5 24h189l81 189h27l-81 -189h229l81 189h28l-81 -189h170l-4 -24h-176zM599 486h-229l-115 -268h230z" />
    <glyph glyph-name="dollar" unicode="$" horiz-adv-x="504" 
d="M543 707l-35 -174h-13q1 7 1 21q0 59 -37 95.5t-104 36.5q-84 0 -133.5 -34.5t-61.5 -93.5q-3 -12 -3 -24q0 -34 19.5 -59.5t48.5 -44t78 -44.5q55 -29 87 -50.5t54.5 -53.5t22.5 -74q0 -9 -4 -33q-11 -54 -45.5 -95.5t-84.5 -65.5t-107 -24l-17 -82h-29l17 84
q-47 6 -81.5 25t-54 34.5t-20.5 15.5q-4 0 -8 -7t-6 -18l-8 -39h-19l36 174h12l-1 -13q0 -40 22.5 -74.5t61.5 -55t85 -20.5q84 0 142.5 43.5t72.5 115.5q3 15 3 28q0 37 -20.5 65t-50 48.5t-81.5 48.5q-52 29 -82 49.5t-51 49.5t-21 67q0 14 3 29q14 71 72.5 110t140.5 42
l16 76h29l-16 -77q41 -3 69.5 -16.5t44.5 -26t18 -12.5q9 0 11 16l8 37h19z" />
    <glyph glyph-name="percent" unicode="%" horiz-adv-x="815" 
d="M96 17l675 695l16 -18l-676 -695zM132 369q-34 35 -34 98q0 25 6 55q18 87 71.5 137.5t130.5 50.5q64 0 97.5 -34.5t33.5 -96.5q0 -27 -6 -57q-17 -87 -71 -137.5t-131 -50.5q-63 0 -97 35zM346.5 409.5q41.5 48.5 54.5 112.5q6 24 6 48q0 49 -25 81t-81 32
q-69 0 -111 -48.5t-56 -112.5q-5 -25 -5 -46q0 -50 25 -82.5t81 -32.5q70 0 111.5 48.5zM476.5 25q-33.5 35 -33.5 97q0 27 6 57q17 87 71.5 137.5t131.5 50.5q64 0 97.5 -35t33.5 -97q0 -26 -6 -56q-18 -87 -72 -138t-131 -51q-64 0 -97.5 35zM692 66.5q42 48.5 55 112.5
q5 25 5 46q0 50 -25 82.5t-81 32.5q-70 0 -111.5 -48.5t-54.5 -112.5q-5 -25 -5 -48q0 -49 24.5 -81t80.5 -32q70 0 112 48.5z" />
    <glyph glyph-name="ampersand" unicode="&#x26;" horiz-adv-x="672" 
d="M85.5 26q-45.5 36 -45.5 101q0 21 4 40q10 48 41 85.5t70 65t103 63.5q-32 36 -49 79.5t-17 82.5q0 18 3 31q12 63 59 99.5t118 36.5q58 0 89 -26t31 -74q0 -10 -4 -34q-13 -65 -62 -109.5t-132 -91.5q42 -61 116 -151l71 -90q72 75 112 184h29q-41 -119 -126 -204
q31 -40 85 -114h-39l-69 93q-55 -49 -121.5 -76t-140.5 -27q-80 0 -125.5 36zM403 479q45 40 56 97q3 15 3 28q0 40 -25.5 62t-70.5 22q-54 0 -92 -30t-48 -83q-3 -16 -3 -33q0 -71 57 -148q78 45 123 85zM345.5 38q61.5 26 114.5 75l-19 24q-20 26 -67 86.5t-68 89
t-34 50.5q-85 -47 -135 -90t-62 -103q-4 -17 -4 -37q0 -58 42 -89.5t107 -31.5q64 0 125.5 26z" />
    <glyph glyph-name="quotesingle" unicode="'" horiz-adv-x="207" 
d="M177 662l1 4q6 31 14 47t21 16q15 0 15 -24q0 -13 -5 -38l-56 -211h-19z" />
    <glyph glyph-name="parenleft" unicode="(" horiz-adv-x="225" 
d="M35 115q0 75 18 159q25 127 82.5 235.5t142.5 194.5h25q-171 -191 -219 -429q-16 -77 -16 -153q0 -145 61 -270h-24q-70 113 -70 263z" />
    <glyph glyph-name="parenright" unicode=")" horiz-adv-x="225" 
d="M97.5 52q55.5 107 79.5 223q16 79 16 157q0 149 -62 272h25q67 -116 67 -268q0 -81 -17 -162q-52 -253 -224 -422h-23q83 93 138.5 200z" />
    <glyph glyph-name="asterisk" unicode="*" horiz-adv-x="490" 
d="M254.5 345.5q-7.5 7.5 -7.5 21.5q0 8 1 12q3 15 7 23.5t13 23.5q11 16 19 34t15 52q-34 -17 -53.5 -33.5t-36.5 -35.5q-16 -16 -25.5 -22.5t-25.5 -6.5q-12 0 -20 10.5t-6 24.5q3 16 17.5 29t30.5 13q42 0 116 35q-60 35 -101 35q-14 0 -23 10t-9 23q0 6 1 9
q3 14 15.5 24.5t24.5 10.5q16 0 23.5 -6.5t14.5 -21.5q10 -19 23 -35.5t40 -34.5q6 33 6 50q0 21 -5 36q0 4 -1.5 11t-1.5 14q0 28 12.5 45.5t32.5 17.5q14 0 21.5 -8t7.5 -22q0 -7 -1 -11q-3 -16 -8 -25.5t-13 -21.5q-12 -18 -19.5 -35.5t-14.5 -50.5q34 17 53.5 33.5
t36.5 35.5q16 16 25.5 22.5t25.5 6.5q12 0 20.5 -10.5t6.5 -24.5q-4 -16 -18 -29t-30 -13q-41 0 -117 -35q33 -19 57 -27t45 -8q14 0 23 -10t9 -24q0 -17 -14 -30t-28 -13q-16 0 -23.5 6.5t-15.5 22.5q-10 19 -23 35.5t-39 33.5q-6 -33 -6 -50q0 -13 5 -36q4 -16 4 -26
q0 -27 -13 -44.5t-33 -17.5q-13 0 -20.5 7.5z" />
    <glyph glyph-name="plus" unicode="+" horiz-adv-x="537" 
d="M285 344h-187l5 24h187l42 207h30l-42 -207h187l-5 -24h-187l-42 -206h-30z" />
    <glyph glyph-name="comma" unicode="," horiz-adv-x="214" 
d="M25 -108q18 20 31.5 45t18.5 50l1 8q-5 -2 -16 -2t-17.5 7t-6.5 19q0 18 13.5 30t30.5 12t26 -11t9 -29q0 -6 -2 -18q-5 -27 -26.5 -65t-46.5 -60z" />
    <glyph glyph-name="hyphen" unicode="-" horiz-adv-x="303" 
d="M57 287h230l-6 -24h-230z" />
    <glyph glyph-name="period" unicode="." horiz-adv-x="214" 
d="M46 -2q-8 7 -8 19q0 19 12.5 30.5t30.5 11.5q15 0 22 -9t5 -25q-4 -16 -15 -25t-26 -9q-13 0 -21 7z" />
    <glyph glyph-name="slash" unicode="/" horiz-adv-x="350" 
d="M393 714h30l-394 -714h-32z" />
    <glyph glyph-name="zero" unicode="0" horiz-adv-x="513" 
d="M62 183q0 70 20 167q35 173 102.5 266.5t177.5 93.5q80 0 116.5 -50t36.5 -144q0 -75 -19 -166q-35 -173 -103 -266.5t-178 -93.5q-153 0 -153 193zM374 100q59 88 93 250q20 95 20 166q0 84 -31 128t-98 44q-95 0 -154 -88t-93 -250q-20 -95 -20 -166q0 -84 31 -128
t98 -44q95 0 154 88z" />
    <glyph glyph-name="one" unicode="1" horiz-adv-x="513" 
d="M122 14h26q58 0 65 33l131 638l-140 -58l5 23l172 68l-137 -671q-4 -18 9.5 -25.5t42.5 -7.5h26l-2 -14h-200z" />
    <glyph glyph-name="two" unicode="2" horiz-adv-x="513" 
d="M23 41q37 76 96.5 131.5t148.5 118.5q61 43 99.5 75t69.5 75t42 96q4 26 4 38q0 50 -31.5 81.5t-104.5 31.5q-58 0 -103 -24.5t-53 -61.5q-6 -29 -27 -29q-16 0 -16 17q0 31 28.5 58.5t76 44.5t100.5 17q75 0 118 -30.5t43 -95.5q0 -27 -5 -48q-12 -57 -44.5 -102.5
t-73.5 -79t-111 -83.5q-79 -56 -135 -108.5t-92 -118.5l-5 -22h312q16 0 32 24t33 68h12l-32 -114h-390z" />
    <glyph glyph-name="three" unicode="3" horiz-adv-x="513" 
d="M119.5 2.5q-38.5 12.5 -60.5 33.5t-22 47q0 8 1 12q6 32 27 32q17 0 17 -18q0 -8 -1 -11q-1 -4 -1 -11q0 -33 36 -54t89 -21q79 0 138 52t76 132q4 24 4 35q0 59 -40 94.5t-103 35.5h-58l5 24h58q50 0 90 24.5t65 62.5t32 76q4 22 4 34q0 47 -32 76.5t-96 29.5
q-58 0 -102.5 -24.5t-52.5 -61.5q-6 -29 -27 -29q-15 0 -15 18q0 34 28 61t74.5 42.5t101.5 15.5q65 0 108.5 -30t43.5 -94q0 -21 -4 -40q-13 -63 -59.5 -111.5t-106.5 -58.5l-1 -5q44 -7 80 -41t36 -94q0 -19 -4 -38q-15 -72 -53.5 -118.5t-88.5 -68t-102 -21.5
q-46 0 -84.5 12.5z" />
    <glyph glyph-name="four" unicode="4" horiz-adv-x="513" 
d="M226 14h26q58 0 65 33l29 137h-311l5 32l397 484h44l-101 -494h101l-11 -22h-94l-28 -137q-4 -17 9 -25t42 -8h26l-2 -14h-199zM349 206l95 466l-383 -466h288z" />
    <glyph glyph-name="five" unicode="5" horiz-adv-x="513" 
d="M119.5 2.5q-38.5 12.5 -60.5 33.5t-22 47q0 8 1 12q6 32 27 32q17 0 17 -18q0 -8 -1 -11q-1 -4 -1 -11q0 -33 36 -54t89 -21q57 0 103 28.5t76 74.5t40 97q6 30 6 59q0 62 -31 100t-97 38q-47 0 -90 -17.5t-90 -53.5l-13 11l105 351h253q18 0 29.5 8.5t19.5 29.5h12
l-17 -60h-276l-91 -299q75 53 161 53q80 0 117.5 -43.5t37.5 -114.5q0 -29 -6 -61q-12 -58 -44.5 -109t-85 -82.5t-120.5 -31.5q-46 0 -84.5 12.5z" />
    <glyph glyph-name="six" unicode="6" horiz-adv-x="513" 
d="M64 169q0 62 16 136q41 202 115.5 303.5t180.5 101.5q48 0 78.5 -15.5t44.5 -38.5t14 -46q0 -9 -1 -13q-6 -32 -27 -32q-15 0 -15 17q0 9 1 12q2 14 2 21q0 34 -26.5 53.5t-76.5 19.5q-79 0 -149.5 -89t-113.5 -302q35 73 92 109t117 36q69 0 111.5 -43.5t42.5 -121.5
q0 -27 -6 -59q-21 -105 -86.5 -166.5t-161.5 -61.5q-152 0 -152 179zM358.5 67q55.5 55 73.5 143q7 32 7 67q0 65 -32 104t-96 39q-48 0 -92 -26.5t-75.5 -73.5t-43.5 -104q-6 -30 -6 -57q0 -65 32.5 -106t95.5 -41q81 0 136.5 55z" />
    <glyph glyph-name="seven" unicode="7" horiz-adv-x="513" 
d="M121 13q0 4 2 12q72 207 175.5 372t212.5 281h-313q-14 0 -26.5 -18.5t-17.5 -45.5h-12l17 86h392l-2 -12q-75 -75 -155.5 -194t-144.5 -245.5t-91 -223.5q-7 -25 -26 -25q-11 0 -11 13z" />
    <glyph glyph-name="eight" unicode="8" horiz-adv-x="513" 
d="M455.5 434.5q-47.5 -51.5 -108.5 -72.5q55 -24 85 -54t30 -82q0 -20 -4 -39q-17 -84 -78 -140.5t-165 -56.5q-87 0 -127.5 40.5t-40.5 105.5q0 23 5 51q14 69 65.5 122t115.5 73q-42 21 -65.5 50t-23.5 75q0 20 4 40q15 77 74 120t143 43q71 0 112.5 -33t41.5 -94
q0 -20 -4 -39q-12 -58 -59.5 -109.5zM429.5 438.5q43.5 47.5 55.5 108.5q3 17 3 32q0 53 -36 81t-91 28q-67 0 -117.5 -36t-64.5 -105q-4 -17 -4 -35q0 -39 20 -64.5t47.5 -40t80.5 -36.5q63 20 106.5 67.5zM432 219q0 37 -19 62t-46.5 40.5t-75.5 34.5l-33 14
q-38 -10 -75.5 -37t-64.5 -66t-36 -83q-5 -25 -5 -41q0 -63 41 -97t101 -34q44 0 88.5 20t77 59t43.5 93q4 17 4 35z" />
    <glyph glyph-name="nine" unicode="9" horiz-adv-x="513" 
d="M122.5 5.5q-30.5 15.5 -44.5 38.5t-14 46q0 9 1 13q8 32 28 32q15 0 15 -17l-1 -12q-2 -14 -2 -21q0 -34 26.5 -53.5t76.5 -19.5q79 0 149.5 89t113.5 302q-34 -72 -97 -111t-123 -39q-66 0 -105 43t-39 119q0 33 7 67q21 105 86 166.5t161 61.5q152 0 152 -179
q0 -62 -16 -136q-40 -202 -115 -303.5t-181 -101.5q-48 0 -78.5 15.5zM354.5 304.5q45.5 27.5 78.5 75t44 104.5q6 30 6 58q0 65 -32 105.5t-95 40.5q-81 0 -136.5 -55t-73.5 -143q-8 -40 -8 -72q0 -64 30.5 -102.5t92.5 -38.5q48 0 93.5 27.5z" />
    <glyph glyph-name="colon" unicode=":" horiz-adv-x="214" 
d="M136.5 442q-7.5 7 -7.5 18q0 19 12 31t30 12q13 0 20.5 -6.5t7.5 -18.5q0 -6 -1 -9q-3 -16 -14 -25t-27 -9q-13 0 -20.5 7zM46 -2q-8 7 -8 19q0 19 12.5 30.5t30.5 11.5q15 0 22 -9t5 -25q-4 -16 -15 -25t-26 -9q-13 0 -21 7z" />
    <glyph glyph-name="semicolon" unicode=";" horiz-adv-x="214" 
d="M136.5 442q-7.5 7 -7.5 18q0 19 12 31t30 12q13 0 20.5 -6.5t7.5 -18.5q0 -6 -1 -9q-3 -16 -14 -25t-27 -9q-13 0 -20.5 7zM25 -108q18 20 31.5 45t18.5 50l1 8q-5 -2 -16 -2t-17.5 7t-6.5 19q0 18 13.5 30t30.5 12t26 -11t9 -29q0 -6 -2 -18q-5 -27 -26.5 -65t-46.5 -60
z" />
    <glyph glyph-name="less" unicode="&#x3c;" horiz-adv-x="537" 
d="M71 321l4 22l498 247l-6 -29l-459 -229l365 -229l-5 -29z" />
    <glyph glyph-name="equal" unicode="=" horiz-adv-x="537" 
d="M102 440h435l-5 -24h-435zM63 252h435l-5 -24h-434z" />
    <glyph glyph-name="greater" unicode="&#x3e;" horiz-adv-x="537" 
d="M27 103l459 229l-365 229l6 29l396 -247l-4 -22l-498 -247z" />
    <glyph glyph-name="question" unicode="?" horiz-adv-x="408" 
d="M151 175q8 43 29.5 78.5t46 62t66.5 64.5q55 50 84.5 85.5t38.5 82.5q4 17 4 38q0 46 -29 74t-91 28q-52 0 -94.5 -25.5t-49.5 -60.5q-6 -29 -27 -29q-17 0 -17 17q0 29 27 57t71.5 45.5t93.5 17.5q65 0 106.5 -29.5t41.5 -92.5q0 -22 -4 -42q-9 -47 -39.5 -84.5
t-87.5 -89.5q-61 -56 -95 -98.5t-45 -97.5l-2 -23h-31q0 12 3 22zM106.5 -2.5q-7.5 6.5 -7.5 18.5q0 6 1 9q3 16 14 25t26 9q13 0 21 -7t8 -19q0 -5 -1 -8q-4 -16 -14.5 -25t-26.5 -9q-13 0 -20.5 6.5z" />
    <glyph glyph-name="at" unicode="@" horiz-adv-x="744" 
d="M112 9q-68 64 -68 180q0 45 10 92q23 112 85.5 200.5t154 138.5t197.5 50q120 0 189.5 -63.5t69.5 -174.5q0 -38 -9 -80q-12 -60 -39 -110t-63 -79t-75 -29q-33 0 -56.5 18.5t-23.5 53.5q0 8 1 12q-22 -40 -64 -62t-82 -22q-53 0 -81 29t-28 82q0 27 5 48q11 57 43 102
t77.5 70t96.5 25q27 0 59.5 -6.5t55.5 -18.5l-60 -225l-2 -6q-2 -10 -2 -16q0 -27 19.5 -44.5t43.5 -17.5q47 0 87 54t59 143q8 42 8 75q0 101 -61.5 159.5t-166.5 58.5q-98 0 -182.5 -44.5t-143.5 -127t-82 -192.5q-10 -47 -10 -93q0 -106 61 -163t177 -57q91 0 184 33
l-4 -25q-94 -32 -185 -32q-127 0 -195 64zM437.5 192q39.5 35 54.5 91l45 164q-21 9 -45.5 13.5t-44.5 4.5q-65 0 -115 -46.5t-67 -127.5q-5 -28 -5 -45q0 -44 22.5 -66.5t65.5 -22.5q50 0 89.5 35z" />
    <glyph glyph-name="A" unicode="A" horiz-adv-x="650" 
d="M608 14l-2 -14h-180l2 14h12q19 0 41 9t25 22q0 3 -0.5 8t-1.5 8l-26 171h-290l-96 -171q-1 -1 -4.5 -7.5t-3.5 -8.5q-2 -13 15 -22t36 -9h14l-2 -14h-180l2 14h14q21 2 43 11.5t30 22.5l358 642l26 17l97 -659q2 -14 20 -24t37 -10h14zM475 256l-58 385l-216 -385h274z
" />
    <glyph glyph-name="B" unicode="B" horiz-adv-x="531" 
d="M-14 14h26q58 0 65 33l124 606q3 17 -10 25t-42 8h-26l3 14h254q71 0 111 -32t40 -92q0 -22 -4 -42q-12 -58 -52 -102.5t-99 -60.5v-4q127 -19 127 -128q0 -27 -6 -53q-18 -89 -80.5 -137.5t-153.5 -48.5h-279zM302 378q73 0 128 44.5t69 113.5q4 19 4 38
q0 53 -38.5 77.5t-116.5 24.5h-112l-60 -298h126zM237 24q101 0 159 41.5t74 120.5q5 28 5 46q0 122 -168 122h-136l-67 -330h133z" />
    <glyph glyph-name="C" unicode="C" horiz-adv-x="606" 
d="M127 51.5q-59 61.5 -59 178.5q0 56 13 120q23 115 76.5 196t130.5 122.5t170 41.5q59 0 99.5 -19.5t62.5 -41.5q1 -1 3.5 -3t4.5 -2q8 0 12 19l9 42h19l-35 -174h-13q1 7 1 19q0 61 -45.5 98.5t-122.5 37.5q-134 0 -222.5 -91.5t-120.5 -244.5q-12 -60 -12 -113
q0 -105 52 -164t160 -59q43 0 90 17t87.5 52t63.5 86h21q-34 -86 -109 -132.5t-166 -46.5q-111 0 -170 61.5z" />
    <glyph glyph-name="D" unicode="D" horiz-adv-x="604" 
d="M-14 14h26q58 0 65 33l124 606q3 17 -10 25t-42 8h-26l3 14h271q106 0 160 -58.5t54 -169.5q0 -57 -13 -122q-35 -168 -123 -259t-221 -91h-270zM256 22q123 0 202 87.5t110 240.5q14 67 14 119q0 100 -47 154.5t-142 54.5h-156l-134 -656h153z" />
    <glyph glyph-name="E" unicode="E" horiz-adv-x="536" 
d="M588 700l-31 -154h-13q6 32 6 59q0 71 -46 71h-271l-59 -291h204q28 0 42.5 25.5t27.5 77.5h14l-47 -230h-14q6 42 6 58q0 45 -34 45h-204l-68 -337h275q37 0 63.5 46t40.5 96h12l-47 -166h-464l2 14h26q58 0 65 33l124 606q7 33 -52 33h-26l3 14h465z" />
    <glyph glyph-name="F" unicode="F" horiz-adv-x="496" 
d="M588 700l-31 -154h-13q6 32 6 59q0 71 -46 71h-271l-64 -314h180q29 0 42.5 25t28.5 78h13l-47 -230h-14q6 42 6 58q0 22 -7.5 33.5t-25.5 11.5h-181l-59 -291q-4 -17 9 -25t42 -8h26l-2 -14h-199l2 14h26q58 0 65 33l124 606q7 33 -52 33h-26l3 14h465z" />
    <glyph glyph-name="G" unicode="G" horiz-adv-x="641" 
d="M127 51.5q-59 61.5 -59 178.5q0 56 13 120q23 115 76.5 196t130.5 122.5t170 41.5q59 0 99.5 -19.5t62.5 -41.5q1 -1 3.5 -3t4.5 -2q8 0 12 19l9 42h19l-35 -174h-13q1 7 1 19q0 61 -45.5 98.5t-122.5 37.5q-134 0 -222.5 -91.5t-120.5 -244.5q-12 -60 -12 -113
q0 -105 52 -164t160 -59q53 0 112.5 15.5t103.5 52.5l42 206q1 4 1 10q0 23 -21 30t-68 11l3 14h182l-3 -14q-28 0 -43.5 -10t-21.5 -41l-44 -216q-42 -36 -103 -59t-153 -23q-111 0 -170 61.5z" />
    <glyph glyph-name="H" unicode="H" horiz-adv-x="695" 
d="M770 700l-3 -14h-26q-58 0 -65 -33l-124 -606q-4 -18 9.5 -25.5t42.5 -7.5h26l-2 -14h-200l2 14h26q58 0 65 33l65 318h-407l-65 -318q-7 -33 52 -33h26l-2 -14h-200l2 14h26q29 0 45.5 8t20.5 25l123 606q4 17 -9 25t-42 8h-26l2 14h200l-3 -14h-26q-58 0 -65 -33
l-54 -264h407l54 264q4 18 -9.5 25.5t-42.5 7.5h-26l3 14h200z" />
    <glyph glyph-name="I" unicode="I" horiz-adv-x="263" 
d="M-5 14h26q60 0 65 33l124 606q4 18 -9.5 25.5t-42.5 7.5h-26l3 14h200l-3 -14h-26q-58 0 -65 -33l-124 -606q-7 -33 52 -33h26l-2 -14h-200z" />
    <glyph glyph-name="J" unicode="J" horiz-adv-x="296" 
d="M-34 -98q55 6 98.5 47.5t57.5 107.5l121 596q7 33 -52 33h-26l3 14h200l-3 -14h-26q-59 0 -65 -33l-121 -595q-16 -79 -67 -125.5t-121 -46.5z" />
    <glyph glyph-name="K" unicode="K" horiz-adv-x="594" 
d="M166 14h26l-2 -14h-200l2 14h26q29 0 45.5 8t20.5 25l123 606q4 17 -9 25t-42 8h-26l2 14h200l-3 -14h-26q-58 0 -65 -33l-124 -606q-7 -33 52 -33zM659 700l-3 -14h-14q-21 0 -35 -7t-29 -21l-371 -287l253 -329q11 -14 21 -21t32 -7h28l-1 -14h-91l-269 350l8 37
l351 269q6 6 6 11q4 19 -34 19h-15l3 14h160z" />
    <glyph glyph-name="L" unicode="L" horiz-adv-x="504" 
d="M-8 14h26q29 0 45.5 8t20.5 25l123 606q4 17 -9 25t-42 8h-26l2 14h200l-3 -14h-26q-58 0 -65 -33l-121 -596q-7 -33 52 -33h195q37 0 63.5 46t40.5 96h12l-47 -166h-443z" />
    <glyph glyph-name="M" unicode="M" horiz-adv-x="812" 
d="M-8 14h26q29 0 45.5 8t20.5 25l123 606q4 17 -9 25t-42 8h-26l2 14h131l130 -576l363 576h131l-3 -14h-26q-58 0 -65 -33l-124 -606q-7 -33 52 -33h26l-2 -14h-200l2 14h26q60 0 65 33l124 606l-1 3l-368 -577h-20l-133 577l-2 -3l-124 -606q-7 -33 52 -33h26l-2 -14
h-200z" />
    <glyph glyph-name="N" unicode="N" horiz-adv-x="698" 
d="M-8 14h26q29 0 45.5 8t20.5 25l123 606q4 17 -9 25t-42 8h-26l2 14h140l253 -649l123 602q4 18 -9.5 25.5t-42.5 7.5h-26l3 14h200l-3 -14h-26q-58 0 -65 -33l-133 -653h-30l-267 677h-6l-129 -630q-7 -33 52 -33h26l-2 -14h-200z" />
    <glyph glyph-name="O" unicode="O" horiz-adv-x="676" 
d="M120 52.5q-62 62.5 -62 181.5q0 55 13 116q35 173 133.5 266.5t239.5 93.5q114 0 176 -63t62 -182q0 -52 -12 -115q-36 -173 -134.5 -266.5t-238.5 -93.5q-115 0 -177 62.5zM522.5 105q86.5 91 117.5 245q13 65 13 112q0 105 -53.5 164.5t-160.5 59.5q-134 0 -220.5 -91
t-117.5 -245q-13 -65 -13 -112q0 -105 53 -164.5t160 -59.5q135 0 221.5 91z" />
    <glyph glyph-name="P" unicode="P" horiz-adv-x="526" 
d="M-8 14h26q29 0 45.5 8t20.5 25l123 606q4 17 -9 25t-42 8h-26l2 14h289q155 0 155 -142q0 -33 -7 -67q-20 -97 -77.5 -153.5t-155.5 -56.5h-174l-48 -234q-7 -33 52 -33h26l-2 -14h-200zM342 305q82 0 131 50t67 136q7 39 7 61q0 59 -31.5 91.5t-97.5 32.5h-175l-76 -371
h175z" />
    <glyph glyph-name="Q" unicode="Q" horiz-adv-x="676" 
d="M286 -10q-24 -12 -39 -22h11q22 0 44.5 -10t54.5 -30q36 -22 62 -33.5t55 -11.5q32 0 66 28.5t53 68.5h19l-8 -19q-19 -42 -54.5 -70.5t-84.5 -28.5q-38 0 -68 13t-70 38q-33 20 -52.5 29.5t-41.5 9.5q-18 0 -46.5 -14t-54.5 -33l-5 14q34 26 61 43t60 31q-92 14 -141 75
t-49 166q0 55 13 116q35 173 133.5 266.5t239.5 93.5q114 0 176 -63t62 -182q0 -52 -12 -115q-36 -173 -134.5 -266.5t-238.5 -93.5h-11zM88 238q0 -105 53 -164.5t160 -59.5q135 0 221.5 91t117.5 245q13 65 13 112q0 105 -53.5 164.5t-160.5 59.5q-134 0 -220.5 -91
t-117.5 -245q-13 -65 -13 -112z" />
    <glyph glyph-name="R" unicode="R" horiz-adv-x="589" 
d="M396 302q18 -15 24 -45.5t9 -83.5q5 -74 24 -116.5t71 -42.5l-2 -14h-39q-34 0 -57 30t-25 75q-2 28 -2 43q-3 59 -8.5 93.5t-20.5 55.5q-24 -2 -38 -2h-167l-51 -248q-7 -33 52 -33h26l-2 -14h-200l2 14h26q29 0 45.5 8t20.5 25l123 606q4 17 -9 25t-42 8h-26l2 14h283
q158 0 158 -138q0 -32 -7 -64q-34 -165 -170 -196zM471 366.5q50 47.5 66 131.5q6 32 6 58q0 120 -132 120h-168l-73 -357h168q83 0 133 47.5z" />
    <glyph glyph-name="S" unicode="S" horiz-adv-x="504" 
d="M127 11q-41 21 -63 38.5t-23 17.5q-4 0 -8 -7t-6 -18l-8 -39h-19l36 174h12l-1 -13q0 -40 22.5 -74.5t61.5 -55t85 -20.5q84 0 142.5 43.5t72.5 115.5q3 15 3 28q0 37 -20.5 65t-50 48.5t-81.5 48.5q-52 29 -82 49.5t-51 49.5t-21 67q0 14 3 29q15 74 77 113t148 39
q47 0 79 -14.5t50 -28t20 -13.5q9 0 11 16l8 37h19l-35 -174h-13q1 7 1 21q0 59 -37 95.5t-104 36.5q-84 0 -133.5 -34.5t-61.5 -93.5q-3 -12 -3 -24q0 -34 19.5 -59.5t48.5 -44t78 -44.5q55 -29 87 -50.5t54.5 -53.5t22.5 -74q0 -9 -4 -33q-11 -54 -46 -96t-85.5 -65.5
t-107.5 -23.5q-56 0 -97 21z" />
    <glyph glyph-name="T" unicode="T" horiz-adv-x="566" 
d="M147 14h26q58 0 65 33l129 629h-141q-38 0 -59 -39t-34 -91h-12l31 154h470l-31 -154h-12q5 27 5 58q0 72 -45 72h-142l-128 -629q-4 -18 9.5 -25.5t42.5 -7.5h26l-2 -14h-200z" />
    <glyph glyph-name="U" unicode="U" horiz-adv-x="662" 
d="M148.5 21.5q-48.5 31.5 -48.5 107.5q0 31 7 63l94 461q3 17 -10.5 25t-34.5 8h-17l3 14h167l-3 -14h-16q-22 0 -39 -8t-20 -25l-94 -464q-6 -31 -6 -55q0 -68 44 -94t126 -26q188 0 224 175l94 464q3 17 -10 25t-35 8h-16l3 14h167l-3 -14h-17q-21 0 -38 -8t-20 -25
l-94 -461q-23 -111 -89.5 -156.5t-176.5 -45.5q-93 0 -141.5 31.5z" />
    <glyph glyph-name="V" unicode="V" horiz-adv-x="629" 
d="M182 652q-1 14 -20 24t-38 10h-14l3 14h180l-3 -14h-14q-19 0 -41.5 -9.5t-21.5 -21.5l73 -601l320 601q6 12 -14 21.5t-40 9.5h-12l3 14h180l-3 -14h-13q-19 0 -42 -10t-30 -24l-349 -657h-22z" />
    <glyph glyph-name="W" unicode="W" horiz-adv-x="873" 
d="M967 700l-3 -14h-14q-20 0 -43 -10t-29 -24l-300 -657h-21l-53 536l-274 -536h-21l-27 657q-1 14 -19.5 24t-38.5 10h-14l3 14h180l-3 -14h-14q-24 0 -44 -10.5t-20 -22.5l21 -594l267 516l-8 77q-1 14 -19.5 24t-38.5 10h-14l3 14h180l-3 -14h-13q-19 0 -42.5 -9
t-22.5 -19l59 -599l270 599q5 10 -15 19t-38 9h-14l3 14h180z" />
    <glyph glyph-name="X" unicode="X" horiz-adv-x="611" 
d="M700 700l-3 -14h-13q-18 0 -39.5 -10.5t-32.5 -23.5l-247 -284l133 -320q5 -13 22.5 -23.5t35.5 -10.5h13l-2 -14h-179l2 14h11q17 0 41 8.5t26 18.5v4l-124 298l-260 -298q-10 -11 10.5 -21t39.5 -10h14l-2 -14h-180l2 14h14q19 2 40.5 11.5t32.5 22.5l278 320l-118 284
q-5 13 -23 23.5t-36 10.5h-13l3 14h179l-2 -14h-14q-18 0 -39.5 -8.5t-24.5 -19.5l110 -265l228 262q9 12 -9 21.5t-45 9.5h-12l3 14h180z" />
    <glyph glyph-name="Y" unicode="Y" horiz-adv-x="617" 
d="M166 14h26q58 0 65 33l52 250l-127 355q-4 13 -22 23.5t-36 10.5h-14l3 14h180l-3 -14h-14q-17 0 -39 -8.5t-24 -18.5q-2 -2 0 -4l116 -335l265 335q9 11 -12.5 21t-41.5 10h-11l3 14h179l-3 -14h-13q-18 0 -39.5 -10.5t-32.5 -23.5l-283 -355l-52 -250q-4 -18 9.5 -25.5
t42.5 -7.5h26l-2 -14h-200z" />
    <glyph glyph-name="Z" unicode="Z" horiz-adv-x="506" 
d="M-11 14l545 662h-288q-62 0 -92 -130h-13l31 154h402l-3 -14l-541 -662h315q36 0 63 46t39 94h13l-46 -164h-426z" />
    <glyph glyph-name="bracketleft" unicode="[" horiz-adv-x="264" 
d="M177 700h137l-4 -22h-106l-160 -780h107l-5 -24h-137z" />
    <glyph glyph-name="backslash" unicode="\" horiz-adv-x="350" 
d="M141 714h30l106 -714h-31z" />
    <glyph glyph-name="bracketright" unicode="]" horiz-adv-x="264" 
d="M-5 -102h107l159 780h-106l3 22h137l-168 -826h-137z" />
    <glyph glyph-name="asciicircum" unicode="^" horiz-adv-x="510" 
d="M341 719h43l96 -406h-35l-89 370l-242 -370h-34z" />
    <glyph glyph-name="underscore" unicode="_" horiz-adv-x="418" 
d="M-60 -90h424l-5 -24h-424z" />
    <glyph glyph-name="grave" unicode="`" horiz-adv-x="451" 
d="M264 659q-12 7 -12 23q1 6 6 10t11 4q9 0 23 -12l84 -87l-8 -10z" />
    <glyph glyph-name="a" unicode="a" horiz-adv-x="483" 
d="M32 119q0 39 11 97q31 154 107 209t150 55q43 0 79.5 -14t47.5 -41l9 45h30l-88 -430q-2 -10 -2 -14q0 -15 15 -15q8 0 32 8l-2 -8q-24 -21 -49 -21q-12 0 -19.5 7t-7.5 20q0 7 1 11l18 86q-64 -69 -127 -96.5t-106 -27.5q-99 0 -99 129zM222 35.5q44 23.5 86 56.5t63 58
l45 218q-3 45 -37 67.5t-89 22.5q-34 0 -76 -18.5t-82 -72t-60 -151.5q-10 -49 -10 -86q0 -63 24.5 -90.5t61.5 -27.5q30 0 74 23.5z" />
    <glyph glyph-name="b" unicode="b" horiz-adv-x="502" 
d="M138 14.5q-38 24.5 -50 66.5l-28 -81h-17l137 674v4q0 8 -9 8q-12 0 -37 -11l-2 12l70 30h16l-68 -335q27 46 78 72t101 26q78 0 119.5 -41.5t41.5 -120.5q0 -40 -8 -77q-51 -251 -246 -251q-60 0 -98 24.5zM378.5 73.5q52.5 61.5 73.5 162.5q8 36 8 76q0 70 -34.5 108
t-102.5 38q-38 0 -79 -20t-71.5 -55t-39.5 -79l-26 -131q-3 -16 -3 -32q0 -54 34 -91.5t98 -37.5q90 0 142.5 61.5z" />
    <glyph glyph-name="c" unicode="c" horiz-adv-x="435" 
d="M70.5 34q-39.5 44 -39.5 124q0 32 8 77q25 117 93 181t164 64q65 0 101 -25.5t36 -64.5q0 -7 -2 -19q-2 -9 -8.5 -16.5t-16.5 -7.5q-9 0 -13.5 6.5t-2.5 16.5q1 5 3 9t3 8q2 12 -8 29t-33 29.5t-59 12.5q-86 0 -146.5 -60.5t-81.5 -162.5q-7 -35 -7 -69
q0 -73 34.5 -113.5t93.5 -40.5q64 0 114.5 38t77.5 115h18q-24 -81 -78 -128t-138 -47q-73 0 -112.5 44z" />
    <glyph glyph-name="d" unicode="d" horiz-adv-x="506" 
d="M32 119q0 39 11 97q31 154 107 209t150 55q43 0 85 -16.5t54 -43.5l52 254v2q0 10 -10 10q-12 0 -37 -11l-1 12l69 30h16l-138 -677q-2 -12 -2 -14q0 -15 14 -15q9 0 33 8l-2 -8q-12 -10 -25 -15.5t-24 -5.5q-13 0 -20.5 7t-7.5 21q0 6 1 10l18 86q-64 -69 -131.5 -96.5
t-112.5 -27.5q-99 0 -99 129zM225.5 36q47.5 24 92 57t64.5 57l45 218q-3 44 -41.5 67t-95.5 23q-34 0 -76 -18.5t-82 -72t-60 -151.5q-10 -49 -10 -86q0 -63 24.5 -90.5t61.5 -27.5q30 0 77.5 24z" />
    <glyph glyph-name="e" unicode="e" horiz-adv-x="445" 
d="M306.5 205q-119.5 -38 -245.5 -42q1 -71 36.5 -111t94.5 -40q64 0 115.5 38t79.5 115h18q-24 -80 -79.5 -127.5t-139.5 -47.5q-74 0 -114.5 44.5t-40.5 125.5q0 32 8 75q24 116 92.5 180.5t161.5 64.5q80 0 118.5 -30.5t38.5 -78.5q0 -12 -3 -26q-21 -102 -140.5 -140z
M314 233.5q108 42.5 108 132.5q0 39 -30.5 65.5t-100.5 26.5q-86 0 -144.5 -62t-78.5 -161q-6 -34 -7 -49q145 5 253 47.5z" />
    <glyph glyph-name="f" unicode="f" horiz-adv-x="324" 
d="M405 704.5q26 -18.5 26 -51.5q0 -24 -9.5 -36.5t-22.5 -12.5q-20 0 -20 18q0 11 9.5 22t10.5 16q4 18 -17.5 29t-47.5 11q-46 0 -74 -27t-39 -83l-25 -120h138l-4 -21h-138l-122 -595l-30 -5l123 600h-85l4 21h85l25 121q13 64 50 98t96 34q41 0 67 -18.5z" />
    <glyph glyph-name="g" unicode="g" horiz-adv-x="429" 
d="M479.5 472.5q8.5 -7.5 5.5 -18.5q-2 -8 -7.5 -13.5t-14.5 -5.5q-10 0 -13.5 6.5t-7.5 11t-17 4.5q-9 0 -22.5 -6t-24.5 -14q25 -30 25 -74q0 -21 -4 -38q-15 -71 -69 -112.5t-129 -41.5q-56 0 -93 24q-47 -31 -51 -58q-1 -3 -1 -9q0 -21 20 -33t56 -12h128q43 0 72.5 -17
t29.5 -54q0 -5 -2 -19q-14 -68 -76.5 -99t-149.5 -31q-65 0 -105.5 24.5t-40.5 69.5q0 7 2 21q12 58 77 92q-38 16 -38 50q0 44 65 87q-32 30 -32 81q0 20 4 37q14 71 68 113t130 42q67 0 105 -33q40 33 81 33q21 0 29.5 -7.5zM374 357q0 46 -29 74t-86 28q-67 0 -110 -38
t-54 -96q-4 -24 -4 -34q0 -45 28 -72t85 -27q68 0 111 37.5t56 95.5q3 17 3 32zM83 65q-34 -21 -48.5 -41t-19.5 -45q-2 -12 -2 -17q0 -38 35.5 -57t95.5 -19q79 0 129.5 27t60.5 78q2 12 2 17q0 26 -22 39.5t-72 13.5h-119q-25 0 -40 4z" />
    <glyph glyph-name="h" unicode="h" horiz-adv-x="521" 
d="M402 39q-2 -10 -2 -13q0 -15 16 -15q8 0 32 8l-2 -8q-24 -21 -49 -21q-12 0 -19.5 7t-7.5 20q0 7 1 11l55 269q8 36 8 70q0 50 -24.5 70.5t-75.5 20.5q-44 0 -95 -37.5t-94 -106.5l-64 -314l-32 -10l140 684v3q0 9 -9 9q-12 0 -37 -11l-2 12l69 30h17l-72 -356
q31 48 82 83.5t101 35.5q61 0 93.5 -23.5t32.5 -84.5q0 -26 -8 -68z" />
    <glyph glyph-name="i" unicode="i" horiz-adv-x="225" 
d="M162.5 575.5q-6.5 8.5 -4.5 23.5q3 15 14 23.5t26 8.5q12 0 19 -6.5t7 -17.5q0 -18 -12 -29t-28 -11q-15 0 -21.5 8.5zM70.5 -2.5q-7.5 7.5 -7.5 21.5q0 6 1 9l83 402v3q0 9 -10 9q-6 0 -17 -3.5t-19 -7.5l-2 12l69 30h16l-88 -433q-2 -10 -2 -13q0 -16 15 -16q9 0 33 8
l-2 -8q-24 -21 -49 -21q-13 0 -20.5 7.5z" />
    <glyph glyph-name="j" unicode="j" horiz-adv-x="228" 
d="M191 573.5q-7 6.5 -7 17.5q0 18 11.5 29t29.5 11q14 0 20.5 -8.5t4.5 -23.5q-3 -15 -14 -23.5t-25 -8.5q-13 0 -20 6.5zM-14 -95q43 20 67.5 50.5t33.5 73.5l81 398v4q0 8 -9 8q-12 0 -37 -11l-2 12l69 30h16l-90 -442q-9 -47 -42 -84.5t-87 -56.5v18z" />
    <glyph glyph-name="k" unicode="k" horiz-adv-x="475" 
d="M470 470l-2 -12h-10q-14 0 -25 -2.5t-20 -11.5l-253 -198l196 -212q10 -11 25 -16.5t25 -5.5h23l-2 -12h-84l-208 226l-9 -7l-45 -219l-32 -10l140 684v3q0 9 -9 9q-12 0 -37 -11l-2 12l69 30h17l-95 -467l280 220h58z" />
    <glyph glyph-name="l" unicode="l" horiz-adv-x="239" 
d="M78.5 -3q-7.5 7 -7.5 21q0 6 1 10l132 646v4q0 8 -9 8q-12 0 -37 -11l-2 12l70 30h16l-138 -677q-2 -10 -2 -13q0 -16 15 -16q7 0 33 8l-2 -8q-12 -10 -25 -15.5t-24 -5.5q-13 0 -20.5 7z" />
    <glyph glyph-name="m" unicode="m" horiz-adv-x="745" 
d="M624 40q-2 -10 -2 -13q0 -16 15 -16q9 0 33 8l-2 -8q-24 -21 -49 -21q-13 0 -20.5 7.5t-7.5 21.5q0 6 1 9l64 307q5 23 5 48q0 75 -73 75q-40 0 -82 -40t-73 -98t-41 -107l-44 -213l-31 -10l71 346q5 25 5 41q0 40 -20.5 60.5t-58.5 20.5q-39 0 -78.5 -38.5t-69.5 -94.5
t-41 -106l-44 -219l-32 -10l89 437v4q0 8 -8 8q-13 0 -38 -11l-2 12l69 30h17l-29 -145q28 63 72.5 109t100.5 46q52 0 77.5 -25.5t25.5 -70.5q0 -17 -5 -42l-4 -17q30 62 75.5 108.5t101.5 46.5q100 0 100 -92q0 -21 -6 -47z" />
    <glyph glyph-name="n" unicode="n" horiz-adv-x="521" 
d="M400 40q-2 -10 -2 -13q0 -16 16 -16q8 0 32 8l-2 -8q-24 -21 -48 -21q-13 0 -20.5 7t-7.5 20q0 7 1 11l65 317q4 17 4 34q0 40 -24 59.5t-67 19.5q-49 0 -95 -37t-79.5 -91.5t-46.5 -104.5l-45 -225l-32 -10l89 437v4q0 8 -8 8q-13 0 -38 -11l-2 12l69 30h17l-32 -156
q33 65 88 115.5t119 50.5q117 0 117 -91q0 -16 -5 -41z" />
    <glyph glyph-name="o" unicode="o" horiz-adv-x="485" 
d="M77 36q-45 46 -45 129q0 35 7 70q24 114 95.5 179.5t167.5 65.5q80 0 124.5 -45.5t44.5 -127.5q0 -30 -8 -72q-23 -114 -94 -179.5t-167 -65.5q-80 0 -125 46zM353 71.5q62 59.5 83 163.5q8 40 8 69q0 73 -38.5 113.5t-107.5 40.5q-86 0 -147.5 -59t-83.5 -164
q-7 -35 -7 -68q0 -74 38 -114.5t108 -40.5q85 0 147 59.5z" />
    <glyph glyph-name="p" unicode="p" horiz-adv-x="513" 
d="M140 427v4q0 8 -8 8q-13 0 -38 -11l-2 12l69 30h17l-27 -133q33 58 88.5 100.5t115.5 42.5q148 0 148 -147q0 -41 -10 -85q-26 -133 -91.5 -195.5t-167.5 -62.5q-54 0 -92.5 26t-43.5 60l-62 -303l-30 -5zM390 75q53 63 74 168q10 46 10 86q0 64 -30 96.5t-93 32.5
q-44 0 -86.5 -29.5t-76.5 -75.5t-53 -94l-21 -101q-3 -15 -3 -29q0 -51 35 -84t101 -33q90 0 143 63z" />
    <glyph glyph-name="q" unicode="q" horiz-adv-x="513" 
d="M319.5 -225q-7.5 7 -7.5 20q0 7 1 11l65 319q-31 -60 -86.5 -97.5t-108.5 -37.5q-152 0 -152 161q0 40 11 97q24 114 89.5 173t151.5 59q54 0 94.5 -21.5t56.5 -62.5l24 74h19l-132 -652q-2 -12 -2 -14q0 -15 14 -15q8 0 32 8l-1 -8q-12 -10 -25 -15.5t-24 -5.5
q-12 0 -19.5 7zM286 46q44 34 73.5 83.5t37.5 90.5l19 87q3 17 3 31q0 57 -42 88.5t-97 31.5q-46 0 -89 -24.5t-75 -73t-46 -117.5q-9 -43 -9 -82q0 -70 32 -109.5t100 -39.5q49 0 93 34z" />
    <glyph glyph-name="r" unicode="r" horiz-adv-x="293" 
d="M328 474q12 -6 12 -17q0 -9 -6 -15.5t-14 -6.5q-11 0 -13 6.5t-5 11t-14 4.5q-46 0 -79.5 -38t-50.5 -105l-63 -314l-32 -10l90 437v4q0 8 -9 8q-7 0 -18 -3.5t-19 -7.5l-2 12l69 30h16l-14 -72q18 34 47.5 58t72.5 24q20 0 32 -6z" />
    <glyph glyph-name="s" unicode="s" horiz-adv-x="386" 
d="M58.5 15.5q-35.5 25.5 -35.5 64.5q0 7 2 19q2 9 8.5 16.5t16.5 7.5q9 0 13.5 -6.5t2.5 -16.5q-1 -3 -3 -7.5t-3 -9.5q-2 -12 7 -29t31 -29.5t58 -12.5q65 0 104.5 26.5t48.5 72.5q2 12 2 16q0 31 -25 49.5t-76 41.5q-40 18 -64.5 32.5t-42 37.5t-17.5 56q0 66 50 101
t117 35q65 0 98.5 -25t33.5 -64q0 -13 -2 -20q-2 -9 -8.5 -16.5t-16.5 -7.5q-9 0 -13.5 6.5t-2.5 16.5q1 5 3 9t3 8q2 12 -6.5 29t-30.5 29.5t-58 12.5q-59 0 -97.5 -29.5t-38.5 -78.5q0 -37 27.5 -58.5t81.5 -45.5q56 -25 84.5 -48t28.5 -64q0 -15 -2 -23
q-12 -58 -61 -89.5t-117 -31.5q-65 0 -100.5 25.5z" />
    <glyph glyph-name="t" unicode="t" horiz-adv-x="329" 
d="M126 119q-6 -27 -6 -47q0 -31 15 -45.5t45 -14.5q29 0 53 14t34 44h24q-12 -40 -44.5 -60t-67.5 -20q-46 0 -67.5 18.5t-21.5 59.5q0 26 5 48l68 333h-85l4 21h85l17 85l25 45h15l-26 -130h136l-4 -21h-137z" />
    <glyph glyph-name="u" unicode="u" horiz-adv-x="513" 
d="M388 27q0 -16 15 -16q7 0 33 8l-2 -8q-12 -10 -25 -15.5t-24 -5.5q-13 0 -20.5 7t-7.5 21q0 6 1 10l11 52q-27 -35 -74.5 -62.5t-106.5 -27.5q-62 0 -94 27t-32 75q0 14 3 30l63 305v4q0 8 -9 8q-7 0 -18 -3.5t-19 -7.5l-2 12l69 30h16l-68 -338q-4 -16 -4 -34
q0 -42 25.5 -64t73.5 -22q40 0 80 17.5t70 50t42 74.5l56 273v4q0 8 -9 8q-7 0 -18 -3.5t-19 -7.5l-2 12l69 30h16l-87 -430q-2 -10 -2 -13z" />
    <glyph glyph-name="v" unicode="v" horiz-adv-x="458" 
d="M58 70q0 18 4 35l66 322v4q0 8 -9 8q-7 0 -18 -3.5t-19 -7.5l-2 12l69 30h16l-73 -361q-4 -16 -4 -33q0 -64 74 -64q39 0 97 49t106.5 123t62.5 145q9 44 9 71q0 46 -29 70q10 10 23 10q18 0 27 -21t9 -56q0 -32 -8 -75q-13 -65 -62.5 -145.5t-115 -136.5t-125.5 -56
q-98 0 -98 80z" />
    <glyph glyph-name="w" unicode="w" horiz-adv-x="664" 
d="M658.5 462.5q7.5 -17.5 7.5 -48.5q0 -34 -10 -86q-13 -65 -61 -145t-110.5 -136.5t-119.5 -56.5q-69 0 -69 74q0 16 3 35q-30 -48 -68.5 -78.5t-79.5 -30.5q-49 0 -70.5 24t-21.5 61q0 15 3 30l66 322v4q0 8 -9 8q-7 0 -18 -3.5t-19 -7.5l-2 12l69 30h16l-75 -370
q-2 -14 -2 -22q0 -30 17 -48.5t53 -18.5q38 0 77.5 38t72.5 100l65 321h29l-70 -344q-7 -34 -7 -60q0 -29 11.5 -42t38.5 -13q36 0 91.5 49.5t103 124t61.5 144.5q9 45 9 72q0 25 -6.5 41t-20.5 28q10 10 23 10q15 0 22.5 -17.5z" />
    <glyph glyph-name="x" unicode="x" horiz-adv-x="459" 
d="M488 470l-2 -12h-11q-13 0 -26.5 -5t-22.5 -15l-170 -193l101 -213q11 -21 24 -21q7 0 33 8l-2 -8q-10 -10 -22 -15.5t-23 -5.5q-13 0 -23 12.5t-20 32.5l-89 186l-195 -221h-65l2 12h11q31 0 48 20l188 211l-89 187q-3 9 -17 9q-7 0 -18 -3.5t-19 -7.5l-2 12l51 30h18
l97 -203l181 203h62z" />
    <glyph glyph-name="y" unicode="y" horiz-adv-x="477" 
d="M455 458.5q15 -21.5 15 -54.5q0 -13 -3 -27q-9 -37 -23 -57l-316 -440q-37 -50 -69.5 -81.5t-62.5 -31.5q-12 0 -22.5 6t-8.5 19q3 10 9.5 17.5t16.5 7.5q7 0 15 -7t13 -7q13 0 39 25.5t49 58.5l93 129l-77 413q-2 10 -17 10q-13 0 -38 -11l-2 12l65 30h16l74 -424
l197 275q15 24 24 56q2 16 2 21q0 26 -12 41.5t-34 29.5q9 11 23 11q19 0 34 -21.5z" />
    <glyph glyph-name="z" unicode="z" horiz-adv-x="382" 
d="M-10.5 -0.5q-3.5 9.5 -1.5 23.5q6 21 17 32l382 394h-232q-16 0 -30.5 -31t-21.5 -56h-12l22 108h306l-5 -24l-367 -377q31 -3 56 -11t57 -21q33 -13 54 -19t46 -6q24 0 38 19t30 62l13 -3q-9 -41 -20.5 -62.5t-27.5 -29.5t-42 -8q-21 0 -38 5t-35.5 13t-27.5 12
q-32 13 -64.5 22t-42.5 9q-9 0 -11 -13q-1 -5 0 -14.5t-1 -14.5q-2 -11 -10.5 -15t-17.5 -4q-10 0 -13.5 9.5z" />
    <glyph glyph-name="braceleft" unicode="{" horiz-adv-x="346" 
d="M128.5 -100.5q-29.5 20.5 -29.5 66.5q0 19 7 56l32 159q3 14 3 26q0 33 -23.5 51t-73.5 25l5 23q62 8 94 32t41 70l33 159q10 53 29.5 83.5t55 45t95.5 14.5l-3 -22q-42 -2 -69 -10.5t-47 -32.5t-29 -70l-36 -171q-10 -50 -45.5 -78t-90.5 -33q44 -3 69 -24.5t25 -59.5
q0 -16 -2 -24l-36 -171q-4 -19 -4 -38q0 -43 25.5 -57.5t77.5 -17.5l-4 -22q-70 0 -99.5 20.5z" />
    <glyph glyph-name="bar" unicode="|" horiz-adv-x="402" 
d="M148 760h30v-946h-30v946z" />
    <glyph glyph-name="braceright" unicode="}" horiz-adv-x="346" 
d="M-6 -99q42 2 69 10.5t47 32.5t29 70l36 171q9 48 46.5 76t89.5 32q-45 4 -70 25t-25 59q0 12 3 27l35 171q5 25 5 39q0 43 -25.5 57t-77.5 17l3 22q70 0 99.5 -20.5t29.5 -67.5q0 -23 -6 -55l-32 -159q-3 -13 -3 -26q0 -33 23.5 -51t74.5 -25l-5 -23q-63 -8 -95 -32
t-41 -70l-33 -159q-10 -52 -29.5 -83t-55.5 -45.5t-96 -14.5z" />
    <glyph glyph-name="asciitilde" unicode="~" horiz-adv-x="537" 
d="M349 302q-28 11 -64 32q-32 18 -52 26.5t-42 8.5q-59 0 -106 -47l-8 16q51 53 121 53q25 0 47 -9.5t57 -28.5q34 -20 59.5 -30t52.5 -10q59 0 105 47l9 -16q-51 -53 -118 -53q-33 0 -61 11z" />
    <glyph glyph-name="uni00A0" unicode="&#xa0;" horiz-adv-x="245" 
 />
    <glyph glyph-name="exclamdown" unicode="&#xa1;" horiz-adv-x="214" 
d="M131.5 419q-7.5 7 -7.5 19q0 5 1 8q4 16 15 25t26 9q13 0 20.5 -6.5t7.5 -17.5q0 -7 -1 -10q-3 -16 -14 -25t-27 -9q-13 0 -20.5 7zM5.5 -236q-3.5 4 -3.5 13t5 34l4 16l121 544h20l-98 -544l-4 -16q-6 -29 -12.5 -40t-20.5 -11q-8 0 -11.5 4z" />
    <glyph glyph-name="cent" unicode="&#xa2;" horiz-adv-x="437" 
d="M394 452q33 -25 33 -62q0 -12 -2 -19q-2 -9 -8.5 -16.5t-16.5 -7.5q-9 0 -13.5 6.5t-2.5 16.5q1 5 3 9t3 8q2 12 -7.5 29t-33 29.5t-59.5 12.5q-86 0 -146.5 -60.5t-81.5 -162.5q-7 -35 -7 -69q0 -73 34.5 -113.5t93.5 -40.5q64 0 114.5 38t77.5 115h19
q-23 -75 -71.5 -121.5t-121.5 -52.5l-17 -83h-28l16 82q-70 1 -108 45t-38 123q0 40 8 77q22 111 85 174.5t153 69.5l17 82h29l-17 -81q60 -3 93 -28z" />
    <glyph glyph-name="sterling" unicode="&#xa3;" horiz-adv-x="515" 
d="M1 22h72q18 17 31.5 46t20.5 61l45 220h-98l4 22h98l33 164q17 84 71 129.5t136 45.5q48 0 77.5 -15.5t44 -29.5t16.5 -14q9 0 12 16l8 40h19l-35 -174h-13q1 8 1 25q0 57 -33.5 92.5t-97.5 35.5q-74 0 -117 -37.5t-61 -124.5l-31 -153h214l-4 -22h-214l-45 -219
q-14 -65 -62 -108h276q16 0 32 24t33 68h11l-31 -114h-417z" />
    <glyph glyph-name="currency" unicode="&#xa4;" horiz-adv-x="538" 
d="M53 111l78 65q-23 39 -23 84q0 12 4 38q15 68 68 121l-51 65l27 23l50 -66q58 42 121 42q33 0 60 -11t46 -32l78 67l16 -23l-78 -66q23 -38 23 -82q0 -21 -4 -38q-13 -68 -69 -121l52 -66l-26 -23l-52 67q-54 -42 -121 -42q-63 0 -104 41l-78 -66zM337.5 160.5
q38.5 20.5 65.5 56.5t36 80q4 24 4 35q0 54 -33.5 89.5t-85.5 35.5q-41 0 -79 -21t-65 -57.5t-36 -81.5q-4 -16 -4 -36q0 -54 32.5 -87.5t85.5 -33.5q41 0 79.5 20.5z" />
    <glyph glyph-name="yen" unicode="&#xa5;" horiz-adv-x="617" 
d="M711 700l-3 -14h-13q-18 0 -39.5 -10.5t-32.5 -23.5l-198 -249h147l-4 -21h-160l-68 -85l-24 -114h211l-4 -21h-211l-24 -115q-4 -18 9.5 -25.5t42.5 -7.5h26l-2 -14h-200l2 14h26q58 0 65 33l24 115h-193l4 21h193l24 114l-30 85h-146l4 21h134l-89 249q-4 13 -22 23.5
t-36 10.5h-14l3 14h180l-3 -14h-14q-17 0 -39 -8.5t-24 -18.5q-2 -2 0 -4l87 -252h95l199 252q9 11 -12.5 21t-41.5 10h-11l3 14h179zM378 382h-70l21 -62z" />
    <glyph glyph-name="brokenbar" unicode="&#xa6;" horiz-adv-x="402" 
d="M148 760h30v-414h-30v414zM148 228h30v-414h-30v414z" />
    <glyph glyph-name="section" unicode="&#xa7;" horiz-adv-x="504" 
d="M554 763l-36 -174h-12q1 7 1 21q0 59 -37 95.5t-104 36.5q-84 0 -133.5 -34.5t-61.5 -93.5q-3 -13 -3 -25q0 -33 19.5 -58.5t48 -44t77.5 -44.5q56 -30 87.5 -51t54 -52.5t22.5 -73.5q0 -10 -4 -34q-10 -46 -36 -83.5t-65 -62.5q48 -43 48 -102q0 -19 -4 -35
q-11 -54 -45.5 -96t-85 -65.5t-107.5 -23.5q-56 0 -97 21t-63.5 38.5t-23.5 17.5q-8 0 -13 -25l-8 -39h-18l34 174h13l-1 -13q0 -40 22.5 -74.5t61.5 -55t85 -20.5q84 0 142.5 43.5t72.5 115.5q3 15 3 28q0 37 -20.5 65t-50 48.5t-81.5 48.5q-52 29 -82.5 49.5t-51.5 49.5
t-21 67q0 14 3 29q11 51 45 86t83 50q-35 26 -54.5 54t-19.5 64q0 14 3 29q15 74 77 113t149 39q47 0 79 -14.5t49.5 -28t19.5 -13.5q9 0 12 16l8 37h19zM445 257q0 36 -20.5 64.5t-50 49t-80.5 48.5q-38 20 -55 31q-53 -13 -84.5 -43.5t-40.5 -75.5q-3 -12 -3 -24
q0 -33 19.5 -59t48 -44.5t76.5 -44.5q26 -13 52.5 -28.5t44.5 -29.5q35 21 58.5 54t31.5 74q3 15 3 28z" />
    <glyph glyph-name="dieresis" unicode="&#xa8;" horiz-adv-x="451" 
d="M195.5 590q-6.5 6 -6.5 16q0 17 10.5 27.5t24.5 10.5q11 0 17.5 -6t6.5 -17q0 -16 -11 -26.5t-25 -10.5q-10 0 -16.5 6zM383.5 590q-6.5 6 -6.5 16q0 17 10.5 27.5t24.5 10.5q11 0 17.5 -6t6.5 -17q0 -17 -10.5 -27t-25.5 -10q-10 0 -16.5 6z" />
    <glyph glyph-name="copyright" unicode="&#xa9;" horiz-adv-x="780" 
d="M173.5 37.5q-79.5 47.5 -124 131t-44.5 188.5t44.5 188.5t124 131t178.5 47.5t178.5 -47.5t124 -131t44.5 -188.5t-44.5 -188.5t-124 -131t-178.5 -47.5t-178.5 47.5zM515 62q72 44 113 121t41 174t-41 174t-113 121t-163 44q-90 0 -162.5 -44t-113.5 -121t-41 -174
t41 -174t113.5 -121t162.5 -44q91 0 163 44zM223.5 190q-48.5 61 -48.5 167q0 107 48.5 167.5t136.5 60.5q37 0 64 -11.5t44 -24.5q3 -3 5 -3q6 0 6 11v25h18v-102h-18q-4 40 -34 60.5t-82 20.5q-81 0 -119.5 -55.5t-38.5 -148.5q0 -89 36.5 -146t121.5 -57q45 0 81.5 24
t47.5 70h19q-8 -55 -49 -87t-104 -32q-86 0 -134.5 61z" />
    <glyph glyph-name="ordfeminine" unicode="&#xaa;" horiz-adv-x="316" 
d="M85 472q0 22 6 50q11 52 39 94.5t65 66.5t73 24q52 0 70 -24l5 27h23l-55 -268q-2 -12 -2 -15q0 -14 13 -14q8 0 29 8l-2 -8q-22 -21 -44 -21q-21 0 -21 24q0 4 2 14l16 82q-31 -57 -67.5 -88.5t-72.5 -31.5q-77 0 -77 80zM240 452.5q38 38.5 71 100.5l20 99
q-13 36 -63 36q-52 0 -96 -49t-59 -122q-5 -27 -5 -42q0 -31 14 -46t44 -15q36 0 74 38.5z" />
    <glyph glyph-name="guillemotleft" unicode="&#xab;" horiz-adv-x="391" 
d="M49 257l3 12l192 184l10 -18l-157 -172l87 -172l-18 -18zM200 257l3 12l192 184l10 -18l-157 -172l87 -172l-18 -18z" />
    <glyph glyph-name="logicalnot" unicode="&#xac;" horiz-adv-x="442" 
d="M322 345h-315v22h341v-180h-26v158z" />
    <glyph glyph-name="uni00AD" unicode="&#xad;" horiz-adv-x="303" 
d="M57 287h230l-6 -24h-230z" />
    <glyph glyph-name="registered" unicode="&#xae;" horiz-adv-x="780" 
d="M530.5 676.5q79.5 -47.5 124 -131t44.5 -188.5t-44.5 -188.5t-124 -131t-178.5 -47.5t-178.5 47.5t-124 131t-44.5 188.5t44.5 188.5t124 131t178.5 47.5t178.5 -47.5zM515 62q72 44 113 121t41 174t-41 174t-113 121t-163 44q-90 0 -162.5 -44t-113.5 -121t-41 -174
t41 -174t113.5 -121t162.5 -44q91 0 163 44zM532 144v-14h-65l-107 194h-84v-147q0 -19 7.5 -26t31.5 -7h19v-14h-144v14h19q24 0 31.5 7t7.5 26v353q0 14 -8 21t-21 7h-20v16h173q64 0 97.5 -32.5t33.5 -91.5q0 -57 -28 -89.5t-85 -36.5l89 -154q14 -24 53 -26zM276 348h95
q54 0 77.5 25t23.5 77q0 51 -23.5 75.5t-77.5 24.5h-95v-202z" />
    <glyph glyph-name="macron" unicode="&#xaf;" horiz-adv-x="451" 
d="M185 773h320l-5 -22h-320z" />
    <glyph glyph-name="degree" unicode="&#xb0;" horiz-adv-x="271" 
d="M130 509q-24 25 -24 64q0 16 2 24q11 48 48.5 80.5t84.5 32.5q41 0 65 -24.5t24 -62.5q0 -36 -18.5 -68.5t-49.5 -51.5t-67 -19q-41 0 -65 25zM266.5 531q30.5 28 37.5 66q2 7 2 21q0 31 -19 52t-50 21q-27 0 -52 -16t-40 -42.5t-15 -55.5q0 -32 19 -53t50 -21
q37 0 67.5 28z" />
    <glyph glyph-name="plusminus" unicode="&#xb1;" horiz-adv-x="537" 
d="M285 344h-187l5 24h187l42 207h30l-42 -207h187l-5 -24h-187l-42 -206h-30zM12 24h446l-5 -24h-446z" />
    <glyph glyph-name="uni00B2" unicode="&#xb2;" horiz-adv-x="307" 
d="M57 315q22 45 56 77t87 69q52 37 82.5 69t39.5 73q1 5 1 16q0 29 -17.5 49t-53.5 20q-83 0 -96 -66q-1 -8 -6.5 -15.5t-16.5 -7.5q-15 0 -15 18q0 5 1 8q9 39 48 62t88 23q45 0 72 -19.5t27 -58.5q0 -8 -4 -30q-9 -47 -41.5 -80.5t-91.5 -75.5q-52 -38 -85.5 -69
t-47.5 -67h172q13 0 22.5 13.5t19.5 37.5h13l-21 -76h-239z" />
    <glyph glyph-name="uni00B3" unicode="&#xb3;" horiz-adv-x="307" 
d="M94.5 299q-28.5 19 -28.5 52q0 9 1 14q3 12 10 19t15 7q17 0 14 -23q-3 -10 -3 -21q0 -45 69 -45q46 0 75.5 26.5t38.5 72.5q2 14 2 20q0 32 -19.5 53t-54.5 21h-41l4 22h38q44 0 70.5 27t34.5 64q2 12 2 18q0 28 -16 45t-51 17q-83 0 -96 -66q-6 -23 -23 -23
q-15 0 -15 18q0 5 1 8q8 39 47 62t89 23q40 0 67 -19t27 -58q0 -11 -3 -25q-6 -33 -31.5 -63t-56.5 -40q25 -6 41 -26t16 -52q0 -16 -2 -24q-13 -63 -53 -93t-96 -30q-44 0 -72.5 19z" />
    <glyph glyph-name="acute" unicode="&#xb4;" horiz-adv-x="451" 
d="M254 596l121 87q18 12 27 12q6 0 9 -4t2 -10q-2 -14 -20 -23l-134 -72z" />
    <glyph glyph-name="paragraph" unicode="&#xb6;" horiz-adv-x="429" 
d="M121 12h11q21 0 35.5 6.5t14.5 20.5v273q-86 0 -134 53.5t-48 150.5q0 184 184 184h168v-12h-10q-21 0 -36 -6.5t-15 -20.5v-622q0 -14 15 -20.5t36 -6.5h10v-12h-90v678h-51v-678h-90v12zM182 678q-152 0 -152 -161q0 -90 42 -136t110 -47v344z" />
    <glyph glyph-name="periodcentered" unicode="&#xb7;" horiz-adv-x="252" 
d="M109 297q-12 12 -12 34q0 10 3 22q6 32 25 50t47 18q24 0 37 -13t13 -36q0 -5 -2 -19q-7 -31 -27 -49.5t-49 -18.5q-23 0 -35 12z" />
    <glyph glyph-name="cedilla" unicode="&#xb8;" horiz-adv-x="451" 
d="M99 -180l12 18q21 -4 46 -4q64 0 72 47q7 32 -46 32q-18 0 -34 -2l-6 10l53 79h27l-44 -68q6 1 22 1q24 0 40 -11t16 -32q0 -7 -1 -11q-6 -33 -34.5 -49t-70.5 -16q-28 0 -52 6z" />
    <glyph glyph-name="uni00B9" unicode="&#xb9;" horiz-adv-x="307" 
d="M81 299h26q58 0 65 33l71 348l-82 -35l5 24l113 44l-77 -381q-4 -17 9 -25t42 -8h26l-3 -14h-198z" />
    <glyph glyph-name="ordmasculine" unicode="&#xba;" horiz-adv-x="301" 
d="M110 422.5q-30 30.5 -30 83.5q0 18 5 45q15 73 61.5 116t109.5 43q53 0 83 -30.5t30 -84.5q0 -17 -5 -44q-15 -73 -62 -116t-110 -43q-52 0 -82 30.5zM283 451q37 37 50 100q4 20 4 42q0 45 -22 70t-63 25q-50 0 -87 -37t-50 -100q-5 -25 -5 -42q0 -45 22.5 -70t63.5 -25
q50 0 87 37z" />
    <glyph glyph-name="guillemotright" unicode="&#xbb;" horiz-adv-x="391" 
d="M15 91l157 172l-87 172l19 18l117 -184l-3 -12l-192 -184zM166 91l157 172l-87 172l18 18l118 -184l-3 -12l-192 -184z" />
    <glyph glyph-name="onequarter" unicode="&#xbc;" horiz-adv-x="743" 
d="M682 714h29l-555 -714h-30zM81 299h26q58 0 65 33l71 348l-82 -35l5 24l113 44l-77 -381q-4 -17 9 -25t42 -8h26l-3 -14h-198zM473 14h26q60 0 65 33l13 61h-183l5 24l237 289h35l-59 -291h61l-5 -22h-61l-13 -61q-7 -33 52 -33h26l-2 -14h-199zM582 130l50 246
l-205 -246h155z" />
    <glyph glyph-name="onehalf" unicode="&#xbd;" horiz-adv-x="743" 
d="M682 714h29l-555 -714h-30zM81 299h26q58 0 65 33l71 348l-82 -35l5 24l113 44l-77 -381q-4 -17 9 -25t42 -8h26l-3 -14h-198zM439 30q21 46 55.5 78t87.5 68q52 37 82 69t39 73q2 12 2 17q0 29 -18 48.5t-53 19.5q-83 0 -96 -66q-6 -23 -23 -23q-7 0 -11 4.5t-4 11.5
q0 6 1 10q8 39 47 62t89 23q45 0 71.5 -19.5t26.5 -59.5q0 -41 -18.5 -73.5t-46 -56.5t-71.5 -55q-51 -37 -85 -68.5t-47 -67.5h171q13 0 22 12.5t20 38.5h13l-21 -76h-239z" />
    <glyph glyph-name="threequarters" unicode="&#xbe;" horiz-adv-x="743" 
d="M682 714h29l-555 -714h-30zM104.5 298.5q-28.5 18.5 -28.5 51.5q0 20 7.5 30.5t19.5 10.5q14 0 14 -15l-1 -8q-3 -10 -3 -21q0 -45 69 -45q46 0 75.5 26.5t39.5 72.5q2 12 2 19q0 32 -19.5 53.5t-54.5 21.5h-42l4 22h39q34 0 58 17t36 43t12 51q0 27 -16 43.5t-50 16.5
q-83 0 -96 -66q-6 -23 -23 -23q-18 0 -15 26q9 39 48 62t89 23q40 0 66.5 -19.5t26.5 -58.5q0 -15 -2 -24q-7 -33 -32 -63t-56 -40q24 -6 40.5 -26t16.5 -51q0 -11 -3 -25q-13 -63 -53 -93t-95 -30q-45 0 -73.5 18.5zM473 14h26q60 0 65 33l13 61h-183l5 24l237 289h35
l-59 -291h61l-5 -22h-61l-13 -61q-7 -33 52 -33h26l-2 -14h-199zM582 130l50 246l-205 -246h155z" />
    <glyph glyph-name="questiondown" unicode="&#xbf;" horiz-adv-x="408" 
d="M266 419q-8 7 -8 19q0 5 1 8q4 16 15 25t27 9q13 0 20 -6.5t7 -17.5q0 -6 -1 -10q-2 -15 -13.5 -24.5t-26.5 -9.5q-13 0 -21 7zM18 -211q-40 28 -40 90q0 23 4 43q9 46 38 82t85 89q60 55 94.5 99t46.5 103q2 6 3 23h30q0 -11 -3 -22q-13 -65 -50.5 -113.5t-101.5 -108.5
q-52 -49 -78.5 -81t-33.5 -70q-5 -22 -5 -39q0 -46 29 -73.5t91 -27.5q52 0 94.5 25.5t50.5 60.5q2 12 7.5 20.5t19.5 8.5q16 0 16 -17q0 -29 -27 -57t-71.5 -45.5t-93.5 -17.5q-65 0 -105 28z" />
    <glyph glyph-name="Agrave" unicode="&#xc0;" horiz-adv-x="650" 
d="M395 879q0 9 5 13.5t11 4.5q9 0 23 -12l84 -87l-8 -10l-105 72q-10 6 -10 19zM608 14l-2 -14h-180l2 14h12q19 0 41 9t25 22q0 3 -0.5 8t-1.5 8l-26 171h-290l-96 -171q-1 -1 -4.5 -7.5t-3.5 -8.5q-2 -13 15 -22t36 -9h14l-2 -14h-180l2 14h14q21 2 43 11.5t30 22.5
l358 642l26 17l97 -659q2 -14 20 -24t37 -10h14zM475 256l-58 385l-216 -385h274z" />
    <glyph glyph-name="Aacute" unicode="&#xc1;" horiz-adv-x="650" 
d="M384 788l-5 10l121 87q6 5 13 8.5t14 3.5q6 0 9 -4t2 -10q-2 -14 -21 -23zM608 14l-2 -14h-180l2 14h12q19 0 41 9t25 22q0 3 -0.5 8t-1.5 8l-26 171h-290l-96 -171q-1 -1 -4.5 -7.5t-3.5 -8.5q-2 -13 15 -22t36 -9h14l-2 -14h-180l2 14h14q21 2 43 11.5t30 22.5l358 642
l26 17l97 -659q2 -14 20 -24t37 -10h14zM475 256l-58 385l-216 -385h274z" />
    <glyph glyph-name="Acircumflex" unicode="&#xc2;" horiz-adv-x="650" 
d="M350 787l-10 16l117 96h23l77 -96l-17 -16l-69 75q-5 5 -9 5q-5 0 -12 -5zM608 14l-2 -14h-180l2 14h12q19 0 41 9t25 22q0 3 -0.5 8t-1.5 8l-26 171h-290l-96 -171q-1 -1 -4.5 -7.5t-3.5 -8.5q-2 -13 15 -22t36 -9h14l-2 -14h-180l2 14h14q21 2 43 11.5t30 22.5l358 642
l26 17l97 -659q2 -14 20 -24t37 -10h14zM475 256l-58 385l-216 -385h274z" />
    <glyph glyph-name="Atilde" unicode="&#xc3;" horiz-adv-x="650" 
d="M327 786l-12 8q13 39 36.5 58t50.5 19q15 0 27.5 -7.5t31.5 -23.5q17 -14 28.5 -21t24.5 -7q21 0 38 17t31 49l13 -7q-30 -83 -90 -83q-14 0 -27 8t-29 23q-21 16 -31.5 22.5t-22.5 6.5q-40 0 -69 -62zM608 14l-2 -14h-180l2 14h12q19 0 41 9t25 22q0 3 -0.5 8t-1.5 8
l-26 171h-290l-96 -171q-1 -1 -4.5 -7.5t-3.5 -8.5q-2 -13 15 -22t36 -9h14l-2 -14h-180l2 14h14q21 2 43 11.5t30 22.5l358 642l26 17l97 -659q2 -14 20 -24t37 -10h14zM475 256l-58 385l-216 -385h274z" />
    <glyph glyph-name="Adieresis" unicode="&#xc4;" horiz-adv-x="650" 
d="M332.5 793q-5.5 8 -3.5 22q3 14 12.5 22t21.5 8q11 0 17 -6t6 -16q0 -17 -10.5 -27.5t-25.5 -10.5q-12 0 -17.5 8zM520.5 793q-5.5 8 -3.5 22q3 14 12.5 22t21.5 8q11 0 17 -6t6 -16q0 -17 -10.5 -27.5t-24.5 -10.5q-13 0 -18.5 8zM608 14l-2 -14h-180l2 14h12q19 0 41 9
t25 22q0 3 -0.5 8t-1.5 8l-26 171h-290l-96 -171q-1 -1 -4.5 -7.5t-3.5 -8.5q-2 -13 15 -22t36 -9h14l-2 -14h-180l2 14h14q21 2 43 11.5t30 22.5l358 642l26 17l97 -659q2 -14 20 -24t37 -10h14zM475 256l-58 385l-216 -385h274z" />
    <glyph glyph-name="Aring" unicode="&#xc5;" horiz-adv-x="650" 
d="M396.5 779.5q-16.5 15.5 -16.5 40.5q0 40 26.5 66t63.5 26q28 0 45 -15.5t17 -41.5q0 -5 -2 -17q-7 -33 -32 -53.5t-57 -20.5q-28 0 -44.5 15.5zM403 823q0 -18 11.5 -29t29.5 -11q23 0 40 15t23 40q2 10 2 14q0 19 -11.5 30t-30.5 11q-23 0 -40 -15t-22 -40
q-2 -10 -2 -15zM608 14l-2 -14h-180l2 14h12q19 0 41 9t25 22q0 3 -0.5 8t-1.5 8l-26 171h-290l-96 -171q-1 -1 -4.5 -7.5t-3.5 -8.5q-2 -13 15 -22t36 -9h14l-2 -14h-180l2 14h14q21 2 43 11.5t30 22.5l358 642l26 17l97 -659q2 -14 20 -24t37 -10h14zM475 256l-58 385
l-216 -385h274z" />
    <glyph glyph-name="AE" unicode="&#xc6;" horiz-adv-x="890" 
d="M-29 14h14q19 2 41 11.5t32 22.5l487 615q7 9 7 13v3q0 7 -12 7h-28l3 14h427l-31 -154h-12q5 38 5 57q0 73 -46 73h-242l-59 -291h179q29 0 42.5 25.5t27.5 77.5h14l-47 -230h-14q6 42 6 58q0 22 -7.5 33.5t-25.5 11.5h-180l-68 -337h247q36 0 63.5 47t39.5 95h13
l-47 -166h-420l2 14h16q22 0 39 8t20 25l38 185h-262l-147 -187l-2 -4q-1 -10 17.5 -18.5t35.5 -8.5h14l-2 -14h-180zM500 256l86 417l-334 -417h248z" />
    <glyph glyph-name="Ccedilla" unicode="&#xc7;" horiz-adv-x="606" 
d="M668 705l-35 -174h-13q1 7 1 19q0 61 -45.5 98.5t-122.5 37.5q-134 0 -222.5 -91.5t-120.5 -244.5q-12 -60 -12 -113q0 -105 52 -164t160 -59q43 0 90 17t87.5 52t63.5 86h21q-34 -86 -109 -132.5t-166 -46.5h-3l-38 -58q7 1 22 1q24 0 40 -11t16 -32q0 -7 -1 -11
q-6 -33 -34.5 -49t-70.5 -16q-27 0 -51 6l12 18q20 -4 46 -4q63 0 71 47q7 32 -45 32q-18 0 -34 -2l-6 10l46 70q-97 8 -148 69t-51 170q0 56 13 120q23 115 76.5 196t130.5 122.5t170 41.5q59 0 99.5 -19.5t62.5 -41.5q1 -1 3.5 -3t4.5 -2q8 0 12 19l9 42h19z" />
    <glyph glyph-name="Egrave" unicode="&#xc8;" horiz-adv-x="536" 
d="M352 883q1 6 6 10t11 4q9 0 23 -12l84 -87l-8 -10l-105 72q-13 9 -11 23zM588 700l-31 -154h-13q6 32 6 59q0 71 -46 71h-271l-59 -291h204q28 0 42.5 25.5t27.5 77.5h14l-47 -230h-14q6 42 6 58q0 45 -34 45h-204l-68 -337h275q37 0 63.5 46t40.5 96h12l-47 -166h-464
l2 14h26q58 0 65 33l124 606q7 33 -52 33h-26l3 14h465z" />
    <glyph glyph-name="Eacute" unicode="&#xc9;" horiz-adv-x="536" 
d="M342 788l-5 10l121 87q6 5 13 8.5t14 3.5q6 0 8.5 -4t1.5 -10q-2 -15 -20 -23zM588 700l-31 -154h-13q6 32 6 59q0 71 -46 71h-271l-59 -291h204q28 0 42.5 25.5t27.5 77.5h14l-47 -230h-14q6 42 6 58q0 45 -34 45h-204l-68 -337h275q37 0 63.5 46t40.5 96h12l-47 -166
h-464l2 14h26q58 0 65 33l124 606q7 33 -52 33h-26l3 14h465z" />
    <glyph glyph-name="Ecircumflex" unicode="&#xca;" horiz-adv-x="536" 
d="M308 787l-10 16l117 96h23l77 -96l-17 -16l-69 75q-7 5 -9 5q-5 0 -12 -5zM588 700l-31 -154h-13q6 32 6 59q0 71 -46 71h-271l-59 -291h204q28 0 42.5 25.5t27.5 77.5h14l-47 -230h-14q6 42 6 58q0 45 -34 45h-204l-68 -337h275q37 0 63.5 46t40.5 96h12l-47 -166h-464
l2 14h26q58 0 65 33l124 606q7 33 -52 33h-26l3 14h465z" />
    <glyph glyph-name="Edieresis" unicode="&#xcb;" horiz-adv-x="536" 
d="M290.5 793q-5.5 8 -3.5 22q3 14 12 22t22 8q11 0 17 -6t6 -16q0 -17 -11 -27.5t-25 -10.5q-12 0 -17.5 8zM480 791q-6 6 -6 16q0 17 10 27.5t25 10.5q11 0 17 -6t6 -16q0 -17 -10.5 -27.5t-25.5 -10.5q-10 0 -16 6zM588 700l-31 -154h-13q6 32 6 59q0 71 -46 71h-271
l-59 -291h204q28 0 42.5 25.5t27.5 77.5h14l-47 -230h-14q6 42 6 58q0 45 -34 45h-204l-68 -337h275q37 0 63.5 46t40.5 96h12l-47 -166h-464l2 14h26q58 0 65 33l124 606q7 33 -52 33h-26l3 14h465z" />
    <glyph glyph-name="Igrave" unicode="&#xcc;" horiz-adv-x="263" 
d="M212 860q-12 9 -10 23q1 7 6 10.5t10 3.5q7 0 12.5 -3.5t10.5 -8.5l84 -87l-8 -10zM-5 14h26q60 0 65 33l124 606q4 18 -9.5 25.5t-42.5 7.5h-26l3 14h200l-3 -14h-26q-58 0 -65 -33l-124 -606q-7 -33 52 -33h26l-2 -14h-200z" />
    <glyph glyph-name="Iacute" unicode="&#xcd;" horiz-adv-x="263" 
d="M186 798l121 87q6 5 13 8.5t14 3.5q6 0 9 -4t2 -10q-2 -14 -21 -23l-133 -72zM-5 14h26q60 0 65 33l124 606q4 18 -9.5 25.5t-42.5 7.5h-26l3 14h200l-3 -14h-26q-58 0 -65 -33l-124 -606q-7 -33 52 -33h26l-2 -14h-200z" />
    <glyph glyph-name="Icircumflex" unicode="&#xce;" horiz-adv-x="263" 
d="M147 803l117 96h23l77 -96l-16 -16l-70 75q-5 5 -9 5q-5 0 -12 -5l-100 -75zM-5 14h26q60 0 65 33l124 606q4 18 -9.5 25.5t-42.5 7.5h-26l3 14h200l-3 -14h-26q-58 0 -65 -33l-124 -606q-7 -33 52 -33h26l-2 -14h-200z" />
    <glyph glyph-name="Idieresis" unicode="&#xcf;" horiz-adv-x="263" 
d="M139.5 793q-5.5 8 -3.5 22q3 14 12.5 22t21.5 8q11 0 17 -6t6 -16q0 -17 -10.5 -27.5t-25.5 -10.5q-12 0 -17.5 8zM327.5 793q-5.5 8 -3.5 22q3 14 12.5 22t21.5 8q11 0 17 -6t6 -16q0 -17 -10.5 -27.5t-24.5 -10.5q-13 0 -18.5 8zM-5 14h26q60 0 65 33l124 606
q4 18 -9.5 25.5t-42.5 7.5h-26l3 14h200l-3 -14h-26q-58 0 -65 -33l-124 -606q-7 -33 52 -33h26l-2 -14h-200z" />
    <glyph glyph-name="Eth" unicode="&#xd0;" horiz-adv-x="604" 
d="M557 641.5q54 -58.5 54 -169.5q0 -57 -13 -122q-35 -168 -123 -259t-221 -91h-270l2 14h26q58 0 65 33l62 302h-71l5 22h70l58 282q3 17 -10 25t-42 8h-26l3 14h271q106 0 160 -58.5zM582 469q0 100 -47 154.5t-142 54.5h-156l-63 -307h219l-5 -22h-218l-67 -327h153
q123 0 202 87.5t110 240.5q14 67 14 119z" />
    <glyph glyph-name="Ntilde" unicode="&#xd1;" horiz-adv-x="698" 
d="M346 794q13 39 36 58t51 19q14 0 27 -8t31 -23q19 -15 30 -21.5t23 -6.5q41 0 69 66l14 -7q-30 -83 -90 -83q-14 0 -27 8t-30 23q-18 15 -29.5 22t-24.5 7q-40 0 -68 -62zM-8 14h26q29 0 45.5 8t20.5 25l123 606q4 17 -9 25t-42 8h-26l2 14h140l253 -649l123 602
q4 18 -9.5 25.5t-42.5 7.5h-26l3 14h200l-3 -14h-26q-58 0 -65 -33l-133 -653h-30l-267 677h-6l-129 -630q-7 -33 52 -33h26l-2 -14h-200z" />
    <glyph glyph-name="Ograve" unicode="&#xd2;" horiz-adv-x="676" 
d="M397 860q-12 9 -10 23q1 7 6 10.5t10 3.5q11 0 23 -12l85 -87l-9 -10zM120 52.5q-62 62.5 -62 181.5q0 55 13 116q35 173 133.5 266.5t239.5 93.5q114 0 176 -63t62 -182q0 -52 -12 -115q-36 -173 -134.5 -266.5t-238.5 -93.5q-115 0 -177 62.5zM522.5 105
q86.5 91 117.5 245q13 65 13 112q0 105 -53.5 164.5t-160.5 59.5q-134 0 -220.5 -91t-117.5 -245q-13 -65 -13 -112q0 -105 53 -164.5t160 -59.5q135 0 221.5 91z" />
    <glyph glyph-name="Oacute" unicode="&#xd3;" horiz-adv-x="676" 
d="M393 798l121 87q16 12 26 12q6 0 9 -4t2 -10q-2 -14 -20 -23l-134 -72zM120 52.5q-62 62.5 -62 181.5q0 55 13 116q35 173 133.5 266.5t239.5 93.5q114 0 176 -63t62 -182q0 -52 -12 -115q-36 -173 -134.5 -266.5t-238.5 -93.5q-115 0 -177 62.5zM522.5 105
q86.5 91 117.5 245q13 65 13 112q0 105 -53.5 164.5t-160.5 59.5q-134 0 -220.5 -91t-117.5 -245q-13 -65 -13 -112q0 -105 53 -164.5t160 -59.5q135 0 221.5 91z" />
    <glyph glyph-name="Ocircumflex" unicode="&#xd4;" horiz-adv-x="676" 
d="M353 803l117 96h23l77 -96l-16 -16l-69 75q-7 5 -10 5q-4 0 -11 -5l-100 -75zM120 52.5q-62 62.5 -62 181.5q0 55 13 116q35 173 133.5 266.5t239.5 93.5q114 0 176 -63t62 -182q0 -52 -12 -115q-36 -173 -134.5 -266.5t-238.5 -93.5q-115 0 -177 62.5zM522.5 105
q86.5 91 117.5 245q13 65 13 112q0 105 -53.5 164.5t-160.5 59.5q-134 0 -220.5 -91t-117.5 -245q-13 -65 -13 -112q0 -105 53 -164.5t160 -59.5q135 0 221.5 91z" />
    <glyph glyph-name="Otilde" unicode="&#xd5;" horiz-adv-x="676" 
d="M328 794q14 39 37 58t51 19q14 0 27 -8t31 -23q19 -15 30 -21.5t23 -6.5q41 0 69 66l14 -7q-31 -83 -91 -83q-14 0 -27 8t-29 23q-21 16 -31.5 22.5t-22.5 6.5q-40 0 -68 -62zM120 52.5q-62 62.5 -62 181.5q0 55 13 116q35 173 133.5 266.5t239.5 93.5q114 0 176 -63
t62 -182q0 -52 -12 -115q-36 -173 -134.5 -266.5t-238.5 -93.5q-115 0 -177 62.5zM522.5 105q86.5 91 117.5 245q13 65 13 112q0 105 -53.5 164.5t-160.5 59.5q-134 0 -220.5 -91t-117.5 -245q-13 -65 -13 -112q0 -105 53 -164.5t160 -59.5q135 0 221.5 91z" />
    <glyph glyph-name="Odieresis" unicode="&#xd6;" horiz-adv-x="676" 
d="M346.5 793q-5.5 8 -3.5 22q3 14 12 22t21 8q11 0 17 -6t6 -16q0 -5 -1 -8q-2 -14 -12 -22t-22 -8t-17.5 8zM536 791q-6 6 -6 16q0 17 10 27.5t24 10.5q13 0 19 -8t4 -22q-3 -14 -13 -22t-22 -8q-10 0 -16 6zM120 52.5q-62 62.5 -62 181.5q0 55 13 116q35 173 133.5 266.5
t239.5 93.5q114 0 176 -63t62 -182q0 -52 -12 -115q-36 -173 -134.5 -266.5t-238.5 -93.5q-115 0 -177 62.5zM522.5 105q86.5 91 117.5 245q13 65 13 112q0 105 -53.5 164.5t-160.5 59.5q-134 0 -220.5 -91t-117.5 -245q-13 -65 -13 -112q0 -105 53 -164.5t160 -59.5
q135 0 221.5 91z" />
    <glyph glyph-name="multiply" unicode="&#xd7;" horiz-adv-x="537" 
d="M69 170l213 185l-138 185l24 21l137 -185l216 185l14 -21l-213 -185l138 -185l-23 -21l-140 185l-213 -185z" />
    <glyph glyph-name="Oslash" unicode="&#xd8;" horiz-adv-x="676" 
d="M638 627q45 -62 45 -162q0 -47 -13 -115q-36 -173 -134.5 -266.5t-238.5 -93.5q-120 0 -182 68l-62 -68l-23 14l69 75q-41 59 -41 154q0 56 13 117q35 173 133.5 266.5t239.5 93.5q116 0 176 -63l69 75l24 -13zM89 238q0 -83 31 -136l480 523q-55 61 -161 61
q-134 0 -220.5 -91t-117.5 -245q-12 -60 -12 -112zM653 462q0 87 -36 142l-482 -524q55 -66 166 -66q135 0 221.5 91t117.5 245q13 65 13 112z" />
    <glyph glyph-name="Ugrave" unicode="&#xd9;" horiz-adv-x="662" 
d="M412 860q-13 9 -11 23q1 6 6 10t11 4q9 0 23 -12l84 -87l-9 -10zM148.5 21.5q-48.5 31.5 -48.5 107.5q0 31 7 63l94 461q3 17 -10.5 25t-34.5 8h-17l3 14h167l-3 -14h-16q-22 0 -39 -8t-20 -25l-94 -464q-6 -31 -6 -55q0 -68 44 -94t126 -26q188 0 224 175l94 464
q3 17 -10 25t-35 8h-16l3 14h167l-3 -14h-17q-21 0 -38 -8t-20 -25l-94 -461q-23 -111 -89.5 -156.5t-176.5 -45.5q-93 0 -141.5 31.5z" />
    <glyph glyph-name="Uacute" unicode="&#xda;" horiz-adv-x="662" 
d="M386 798l121 87q6 5 13 8.5t14 3.5q5 0 8 -4t2 -10q-2 -15 -20 -23l-133 -72zM148.5 21.5q-48.5 31.5 -48.5 107.5q0 31 7 63l94 461q3 17 -10.5 25t-34.5 8h-17l3 14h167l-3 -14h-16q-22 0 -39 -8t-20 -25l-94 -464q-6 -31 -6 -55q0 -68 44 -94t126 -26q188 0 224 175
l94 464q3 17 -10 25t-35 8h-16l3 14h167l-3 -14h-17q-21 0 -38 -8t-20 -25l-94 -461q-23 -111 -89.5 -156.5t-176.5 -45.5q-93 0 -141.5 31.5z" />
    <glyph glyph-name="Ucircumflex" unicode="&#xdb;" horiz-adv-x="662" 
d="M347 803l117 96h23l77 -96l-17 -16l-69 75q-7 5 -10 5q-4 0 -11 -5l-100 -75zM148.5 21.5q-48.5 31.5 -48.5 107.5q0 31 7 63l94 461q3 17 -10.5 25t-34.5 8h-17l3 14h167l-3 -14h-16q-22 0 -39 -8t-20 -25l-94 -464q-6 -31 -6 -55q0 -68 44 -94t126 -26q188 0 224 175
l94 464q3 17 -10 25t-35 8h-16l3 14h167l-3 -14h-17q-21 0 -38 -8t-20 -25l-94 -461q-23 -111 -89.5 -156.5t-176.5 -45.5q-93 0 -141.5 31.5z" />
    <glyph glyph-name="Udieresis" unicode="&#xdc;" horiz-adv-x="662" 
d="M339.5 793q-5.5 8 -3.5 22q3 14 12 22t22 8q11 0 17 -6t6 -16q0 -17 -11 -27.5t-25 -10.5q-12 0 -17.5 8zM529 791q-6 6 -6 16q0 17 10 27.5t25 10.5q11 0 17 -6t6 -16q0 -17 -10.5 -27.5t-25.5 -10.5q-10 0 -16 6zM148.5 21.5q-48.5 31.5 -48.5 107.5q0 31 7 63l94 461
q3 17 -10.5 25t-34.5 8h-17l3 14h167l-3 -14h-16q-22 0 -39 -8t-20 -25l-94 -464q-6 -31 -6 -55q0 -68 44 -94t126 -26q188 0 224 175l94 464q3 17 -10 25t-35 8h-16l3 14h167l-3 -14h-17q-21 0 -38 -8t-20 -25l-94 -461q-23 -111 -89.5 -156.5t-176.5 -45.5
q-93 0 -141.5 31.5z" />
    <glyph glyph-name="Yacute" unicode="&#xdd;" horiz-adv-x="617" 
d="M368 826l121 87q16 12 27 12q5 0 8 -4t2 -10q-2 -14 -20 -23l-134 -72zM166 14h26q58 0 65 33l52 250l-127 355q-4 13 -22 23.5t-36 10.5h-14l3 14h180l-3 -14h-14q-17 0 -39 -8.5t-24 -18.5q-2 -2 0 -4l116 -335l265 335q9 11 -12.5 21t-41.5 10h-11l3 14h179l-3 -14
h-13q-18 0 -39.5 -10.5t-32.5 -23.5l-283 -355l-52 -250q-4 -18 9.5 -25.5t42.5 -7.5h26l-2 -14h-200z" />
    <glyph glyph-name="Thorn" unicode="&#xde;" horiz-adv-x="526" 
d="M-8 14h26q29 0 45.5 8t20.5 25l123 606q4 17 -9 25t-42 8h-26l2 14h116l-23 -116h173q155 0 155 -141q0 -30 -8 -68q-20 -97 -77 -153.5t-155 -56.5h-174l-25 -118q-7 -33 52 -33h26l-2 -14h-200zM319 189q82 0 130.5 50t66.5 136q7 39 7 62q0 58 -31 90.5t-97 32.5h-175
l-76 -371h175z" />
    <glyph glyph-name="germandbls" unicode="&#xdf;" horiz-adv-x="593" 
d="M361.5 291.5q27.5 -21.5 81.5 -45.5q56 -25 84.5 -48t28.5 -64q0 -15 -2 -23q-12 -58 -60 -89.5t-116 -31.5q-66 0 -101 25.5t-35 64.5q0 5 2 19q2 9 8.5 16.5t16.5 7.5q9 0 13.5 -6.5t2.5 -16.5q-1 -3 -3 -7.5t-3 -9.5q-2 -12 7 -29t31 -29.5t58 -12.5q65 0 103.5 26.5
t47.5 72.5q2 12 2 16q0 31 -25 49.5t-76 41.5q-40 18 -64.5 32.5t-42 37.5t-17.5 56q0 12 3 27q13 63 66.5 86t119.5 23q11 55 11 92q0 129 -127 129q-53 0 -94.5 -31t-54.5 -94l-148 -722l-30 -5l123 600h-104l4 21h104l22 105q14 70 64 109t118 39q85 0 118 -42t33 -104
q0 -35 -10 -83l-7 -36q-95 0 -137.5 -27.5t-42.5 -80.5q0 -37 27.5 -58.5z" />
    <glyph glyph-name="agrave" unicode="&#xe0;" horiz-adv-x="483" 
d="M273 618q-13 9 -11 23q1 6 6 10t10 4q11 0 23 -12l85 -87l-9 -10zM32 119q0 39 11 97q31 154 107 209t150 55q43 0 79.5 -14t47.5 -41l9 45h30l-88 -430q-2 -10 -2 -14q0 -15 15 -15q8 0 32 8l-2 -8q-24 -21 -49 -21q-12 0 -19.5 7t-7.5 20q0 7 1 11l18 86
q-64 -69 -127 -96.5t-106 -27.5q-99 0 -99 129zM222 35.5q44 23.5 86 56.5t63 58l45 218q-3 45 -37 67.5t-89 22.5q-34 0 -76 -18.5t-82 -72t-60 -151.5q-10 -49 -10 -86q0 -63 24.5 -90.5t61.5 -27.5q30 0 74 23.5z" />
    <glyph glyph-name="aacute" unicode="&#xe1;" horiz-adv-x="483" 
d="M245 556l121 87q16 12 27 12q5 0 8 -4t2 -10q-2 -15 -20 -23l-133 -72zM32 119q0 39 11 97q31 154 107 209t150 55q43 0 79.5 -14t47.5 -41l9 45h30l-88 -430q-2 -10 -2 -14q0 -15 15 -15q8 0 32 8l-2 -8q-24 -21 -49 -21q-12 0 -19.5 7t-7.5 20q0 7 1 11l18 86
q-64 -69 -127 -96.5t-106 -27.5q-99 0 -99 129zM222 35.5q44 23.5 86 56.5t63 58l45 218q-3 45 -37 67.5t-89 22.5q-34 0 -76 -18.5t-82 -72t-60 -151.5q-10 -49 -10 -86q0 -63 24.5 -90.5t61.5 -27.5q30 0 74 23.5z" />
    <glyph glyph-name="acircumflex" unicode="&#xe2;" horiz-adv-x="483" 
d="M206 561l118 96h23l76 -96l-16 -16l-69 75q-7 5 -10 5q-4 0 -11 -5l-100 -75zM32 119q0 39 11 97q31 154 107 209t150 55q43 0 79.5 -14t47.5 -41l9 45h30l-88 -430q-2 -10 -2 -14q0 -15 15 -15q8 0 32 8l-2 -8q-24 -21 -49 -21q-12 0 -19.5 7t-7.5 20q0 7 1 11l18 86
q-64 -69 -127 -96.5t-106 -27.5q-99 0 -99 129zM222 35.5q44 23.5 86 56.5t63 58l45 218q-3 45 -37 67.5t-89 22.5q-34 0 -76 -18.5t-82 -72t-60 -151.5q-10 -49 -10 -86q0 -63 24.5 -90.5t61.5 -27.5q30 0 74 23.5z" />
    <glyph glyph-name="atilde" unicode="&#xe3;" horiz-adv-x="483" 
d="M183 562q14 39 37 58t51 19q14 0 27 -8t31 -23q19 -15 30 -21.5t23 -6.5q41 0 69 66l14 -7q-31 -83 -91 -83q-14 0 -27 8t-29 23q-21 16 -31.5 22.5t-22.5 6.5q-40 0 -68 -62zM32 119q0 39 11 97q31 154 107 209t150 55q43 0 79.5 -14t47.5 -41l9 45h30l-88 -430
q-2 -10 -2 -14q0 -15 15 -15q8 0 32 8l-2 -8q-24 -21 -49 -21q-12 0 -19.5 7t-7.5 20q0 7 1 11l18 86q-64 -69 -127 -96.5t-106 -27.5q-99 0 -99 129zM222 35.5q44 23.5 86 56.5t63 58l45 218q-3 45 -37 67.5t-89 22.5q-34 0 -76 -18.5t-82 -72t-60 -151.5q-10 -49 -10 -86
q0 -63 24.5 -90.5t61.5 -27.5q30 0 74 23.5z" />
    <glyph glyph-name="adieresis" unicode="&#xe4;" horiz-adv-x="483" 
d="M199.5 551q-5.5 8 -3.5 22q3 14 12 22t21 8q13 0 19 -8t4 -22q-3 -14 -13 -22t-22 -8t-17.5 8zM389 549q-6 6 -6 16q0 17 10 27.5t25 10.5q11 0 17 -6t6 -16q0 -17 -11 -27.5t-25 -10.5q-10 0 -16 6zM32 119q0 39 11 97q31 154 107 209t150 55q43 0 79.5 -14t47.5 -41
l9 45h30l-88 -430q-2 -10 -2 -14q0 -15 15 -15q8 0 32 8l-2 -8q-24 -21 -49 -21q-12 0 -19.5 7t-7.5 20q0 7 1 11l18 86q-64 -69 -127 -96.5t-106 -27.5q-99 0 -99 129zM222 35.5q44 23.5 86 56.5t63 58l45 218q-3 45 -37 67.5t-89 22.5q-34 0 -76 -18.5t-82 -72t-60 -151.5
q-10 -49 -10 -86q0 -63 24.5 -90.5t61.5 -27.5q30 0 74 23.5z" />
    <glyph glyph-name="aring" unicode="&#xe5;" horiz-adv-x="483" 
d="M276.5 557.5q-16.5 15.5 -16.5 40.5q0 6 2 18q6 33 31 53.5t57 20.5q27 0 44 -16t17 -41q0 -39 -27.5 -65t-63.5 -26q-27 0 -43.5 15.5zM364 576q17 15 22 40q2 10 2 14q0 19 -11.5 30t-30.5 11q-23 0 -40 -15t-21 -40q-2 -12 -2 -16q0 -18 11 -28.5t30 -10.5q23 0 40 15
zM32 119q0 39 11 97q31 154 107 209t150 55q43 0 79.5 -14t47.5 -41l9 45h30l-88 -430q-2 -10 -2 -14q0 -15 15 -15q8 0 32 8l-2 -8q-24 -21 -49 -21q-12 0 -19.5 7t-7.5 20q0 7 1 11l18 86q-64 -69 -127 -96.5t-106 -27.5q-99 0 -99 129zM222 35.5q44 23.5 86 56.5t63 58
l45 218q-3 45 -37 67.5t-89 22.5q-34 0 -76 -18.5t-82 -72t-60 -151.5q-10 -49 -10 -86q0 -63 24.5 -90.5t61.5 -27.5q30 0 74 23.5z" />
    <glyph glyph-name="ae" unicode="&#xe6;" horiz-adv-x="726" 
d="M37.5 10.5q-21.5 20.5 -21.5 56.5q0 14 3 29q29 140 312 185q14 43 34 74q1 7 1 19q0 42 -28 63t-77 21q-38 0 -77 -16t-43 -34l-3 -26q-6 -29 -28 -29q-17 0 -17 20q0 8 1 12q7 31 36 52.5t68 32t74 10.5q54 0 86 -21t38 -60q35 40 80 60.5t97 20.5q81 0 119 -30.5
t38 -79.5q0 -16 -2 -25q-22 -103 -141 -141t-245 -42q1 -71 36.5 -110.5t93.5 -39.5q64 0 116 38t79 115h18q-24 -80 -79 -127.5t-139 -47.5q-55 0 -92 25t-53 73q-54 -55 -114 -76.5t-102 -21.5q-47 0 -68.5 20.5zM581.5 227q103.5 37 119.5 117q2 14 2 20q0 40 -30.5 67
t-101.5 27q-86 0 -144.5 -62t-78.5 -161l-3 -20l-3 -30q136 5 239.5 42zM226 43q58 31 90 68q-5 23 -5 47q0 35 9 77l4 21q-115 -19 -189.5 -60t-86.5 -98q-2 -8 -2 -23q0 -31 20.5 -47t56.5 -16q45 0 103 31z" />
    <glyph glyph-name="ccedilla" unicode="&#xe7;" horiz-adv-x="435" 
d="M397 454.5q36 -25.5 36 -64.5q0 -7 -2 -19q-2 -9 -8.5 -16.5t-16.5 -7.5q-9 0 -13.5 6.5t-2.5 16.5q1 5 3 9t3 8q2 12 -8 29t-33 29.5t-59 12.5q-86 0 -146.5 -60.5t-81.5 -162.5q-7 -35 -7 -69q0 -73 34.5 -113.5t93.5 -40.5q64 0 114.5 38t77.5 115h18
q-24 -80 -77 -127t-135 -48l-37 -58q6 1 22 1q24 0 40 -12t16 -33q0 -6 -1 -9q-7 -33 -35.5 -49t-69.5 -16q-28 0 -52 6l13 18q20 -4 46 -4q61 0 71 47q6 32 -45 32q-17 0 -35 -2l-6 10l46 70q-62 7 -95.5 50t-33.5 117q0 32 8 77q25 117 93 181t164 64q65 0 101 -25.5z" />
    <glyph glyph-name="egrave" unicode="&#xe8;" horiz-adv-x="445" 
d="M244 641q1 7 6 10.5t10 3.5q7 0 12.5 -3.5t10.5 -8.5l85 -87l-9 -10l-105 72q-12 9 -10 23zM306.5 205q-119.5 -38 -245.5 -42q1 -71 36.5 -111t94.5 -40q64 0 115.5 38t79.5 115h18q-24 -80 -79.5 -127.5t-139.5 -47.5q-74 0 -114.5 44.5t-40.5 125.5q0 32 8 75
q24 116 92.5 180.5t161.5 64.5q80 0 118.5 -30.5t38.5 -78.5q0 -12 -3 -26q-21 -102 -140.5 -140zM314 233.5q108 42.5 108 132.5q0 39 -30.5 65.5t-100.5 26.5q-86 0 -144.5 -62t-78.5 -161q-6 -34 -7 -49q145 5 253 47.5z" />
    <glyph glyph-name="eacute" unicode="&#xe9;" horiz-adv-x="445" 
d="M231 546l-4 10l121 87q16 12 26 12q6 0 9 -4t2 -10q-2 -14 -20 -23zM306.5 205q-119.5 -38 -245.5 -42q1 -71 36.5 -111t94.5 -40q64 0 115.5 38t79.5 115h18q-24 -80 -79.5 -127.5t-139.5 -47.5q-74 0 -114.5 44.5t-40.5 125.5q0 32 8 75q24 116 92.5 180.5t161.5 64.5
q80 0 118.5 -30.5t38.5 -78.5q0 -12 -3 -26q-21 -102 -140.5 -140zM314 233.5q108 42.5 108 132.5q0 39 -30.5 65.5t-100.5 26.5q-86 0 -144.5 -62t-78.5 -161q-6 -34 -7 -49q145 5 253 47.5z" />
    <glyph glyph-name="ecircumflex" unicode="&#xea;" horiz-adv-x="445" 
d="M200 545l-11 16l117 96h23l77 -96l-16 -16l-69 75q-7 5 -10 5q-6 0 -11 -5zM306.5 205q-119.5 -38 -245.5 -42q1 -71 36.5 -111t94.5 -40q64 0 115.5 38t79.5 115h18q-24 -80 -79.5 -127.5t-139.5 -47.5q-74 0 -114.5 44.5t-40.5 125.5q0 32 8 75q24 116 92.5 180.5
t161.5 64.5q80 0 118.5 -30.5t38.5 -78.5q0 -12 -3 -26q-21 -102 -140.5 -140zM314 233.5q108 42.5 108 132.5q0 39 -30.5 65.5t-100.5 26.5q-86 0 -144.5 -62t-78.5 -161q-6 -34 -7 -49q145 5 253 47.5z" />
    <glyph glyph-name="edieresis" unicode="&#xeb;" horiz-adv-x="445" 
d="M186.5 551q-5.5 8 -3.5 22q3 14 12.5 22t21.5 8q11 0 17 -6t6 -16q0 -17 -10.5 -27.5t-25.5 -10.5q-12 0 -17.5 8zM377 548.5q-6 5.5 -6 15.5q0 6 1 9q2 14 11.5 22t21.5 8q11 0 17 -6t6 -16q0 -17 -10.5 -27.5t-24.5 -10.5q-10 0 -16 5.5zM306.5 205
q-119.5 -38 -245.5 -42q1 -71 36.5 -111t94.5 -40q64 0 115.5 38t79.5 115h18q-24 -80 -79.5 -127.5t-139.5 -47.5q-74 0 -114.5 44.5t-40.5 125.5q0 32 8 75q24 116 92.5 180.5t161.5 64.5q80 0 118.5 -30.5t38.5 -78.5q0 -12 -3 -26q-21 -102 -140.5 -140zM314 233.5
q108 42.5 108 132.5q0 39 -30.5 65.5t-100.5 26.5q-86 0 -144.5 -62t-78.5 -161q-6 -34 -7 -49q145 5 253 47.5z" />
    <glyph glyph-name="igrave" unicode="&#xec;" horiz-adv-x="236" 
d="M150 618q-13 9 -11 23q1 6 6 10t11 4q9 0 23 -12l84 -87l-9 -10zM76.5 -3q-7.5 7 -7.5 21q0 6 1 10l83 402v3q0 9 -10 9q-7 0 -18 -3.5t-18 -7.5l-2 12l69 30h16l-88 -433q-2 -10 -2 -13q0 -16 15 -16q7 0 33 8l-2 -8q-12 -10 -25 -15.5t-24 -5.5q-13 0 -20.5 7z" />
    <glyph glyph-name="iacute" unicode="&#xed;" horiz-adv-x="236" 
d="M122 556l121 87q6 5 13 8.5t14 3.5q5 0 8 -4t2 -10q-2 -15 -20 -23l-133 -72zM76.5 -3q-7.5 7 -7.5 21q0 6 1 10l83 402v3q0 9 -10 9q-7 0 -18 -3.5t-18 -7.5l-2 12l69 30h16l-88 -433q-2 -10 -2 -13q0 -16 15 -16q7 0 33 8l-2 -8q-12 -10 -25 -15.5t-24 -5.5
q-13 0 -20.5 7z" />
    <glyph glyph-name="icircumflex" unicode="&#xee;" horiz-adv-x="236" 
d="M84 561l118 96h23l76 -96l-16 -16l-69 75q-7 5 -10 5q-4 0 -11 -5l-100 -75zM76.5 -3q-7.5 7 -7.5 21q0 6 1 10l83 402v3q0 9 -10 9q-7 0 -18 -3.5t-18 -7.5l-2 12l69 30h16l-88 -433q-2 -10 -2 -13q0 -16 15 -16q7 0 33 8l-2 -8q-12 -10 -25 -15.5t-24 -5.5
q-13 0 -20.5 7z" />
    <glyph glyph-name="idieresis" unicode="&#xef;" horiz-adv-x="236" 
d="M77.5 551q-5.5 8 -3.5 22q3 14 12 22t22 8q12 0 18 -8t4 -22q-3 -14 -13 -22t-22 -8t-17.5 8zM267 549q-6 6 -6 16q0 17 10 27.5t25 10.5q11 0 17 -6t6 -16q0 -17 -10.5 -27.5t-25.5 -10.5q-10 0 -16 6zM76.5 -3q-7.5 7 -7.5 21q0 6 1 10l83 402v3q0 9 -10 9
q-7 0 -18 -3.5t-18 -7.5l-2 12l69 30h16l-88 -433q-2 -10 -2 -13q0 -16 15 -16q7 0 33 8l-2 -8q-12 -10 -25 -15.5t-24 -5.5q-13 0 -20.5 7z" />
    <glyph glyph-name="eth" unicode="&#xf0;" horiz-adv-x="524" 
d="M401 687q49 -58 75 -134.5t26 -158.5q0 -53 -10 -100q-30 -143 -104.5 -223.5t-184.5 -80.5q-78 0 -119.5 52t-41.5 134q0 32 8 72q13 61 49 119.5t91.5 96.5t122.5 38q57 0 100 -25t63 -79q-2 73 -26 146t-73 130l-164 -88l-3 19l154 84q-40 42 -92 69l15 18
q57 -28 101 -75q95 52 127 71l9 -19zM460 318q0 70 -39.5 116t-107.5 46q-53 0 -101.5 -30t-83 -82.5t-48.5 -119.5q-7 -34 -7 -69q0 -74 35 -120.5t102 -46.5q61 0 111.5 34.5t85 93.5t48.5 131q5 27 5 47z" />
    <glyph glyph-name="ntilde" unicode="&#xf1;" horiz-adv-x="521" 
d="M206 544l-12 8q13 39 36.5 58t50.5 19q15 0 27.5 -7.5t31.5 -23.5q17 -14 28.5 -21t24.5 -7q21 0 38 17t31 49l13 -7q-30 -83 -90 -83q-14 0 -27 8t-29 23q-21 16 -31.5 22.5t-22.5 6.5q-40 0 -69 -62zM468 389q0 -16 -5 -41l-63 -308q-2 -10 -2 -13q0 -16 16 -16
q8 0 32 8l-2 -8q-24 -21 -48 -21q-13 0 -20.5 7t-7.5 20q0 7 1 11l65 317q4 17 4 34q0 40 -24 59.5t-67 19.5q-49 0 -95 -37t-79.5 -91.5t-46.5 -104.5l-45 -225l-32 -10l89 437v4q0 8 -8 8q-13 0 -38 -11l-2 12l69 30h17l-32 -156q33 65 88 115.5t119 50.5q117 0 117 -91z
" />
    <glyph glyph-name="ograve" unicode="&#xf2;" horiz-adv-x="485" 
d="M275 618q-13 9 -11 23q1 6 6 10t10 4q11 0 23 -12l85 -87l-9 -10zM77 36q-45 46 -45 129q0 35 7 70q24 114 95.5 179.5t167.5 65.5q80 0 124.5 -45.5t44.5 -127.5q0 -30 -8 -72q-23 -114 -94 -179.5t-167 -65.5q-80 0 -125 46zM353 71.5q62 59.5 83 163.5q8 40 8 69
q0 73 -38.5 113.5t-107.5 40.5q-86 0 -147.5 -59t-83.5 -164q-7 -35 -7 -68q0 -74 38 -114.5t108 -40.5q85 0 147 59.5z" />
    <glyph glyph-name="oacute" unicode="&#xf3;" horiz-adv-x="485" 
d="M247 556l121 87q16 12 27 12q5 0 8 -4t2 -10q-2 -14 -20 -23l-133 -72zM77 36q-45 46 -45 129q0 35 7 70q24 114 95.5 179.5t167.5 65.5q80 0 124.5 -45.5t44.5 -127.5q0 -30 -8 -72q-23 -114 -94 -179.5t-167 -65.5q-80 0 -125 46zM353 71.5q62 59.5 83 163.5q8 40 8 69
q0 73 -38.5 113.5t-107.5 40.5q-86 0 -147.5 -59t-83.5 -164q-7 -35 -7 -68q0 -74 38 -114.5t108 -40.5q85 0 147 59.5z" />
    <glyph glyph-name="ocircumflex" unicode="&#xf4;" horiz-adv-x="485" 
d="M208 561l117 96h23l77 -96l-16 -16l-69 75q-7 5 -10 5q-4 0 -11 -5l-100 -75zM77 36q-45 46 -45 129q0 35 7 70q24 114 95.5 179.5t167.5 65.5q80 0 124.5 -45.5t44.5 -127.5q0 -30 -8 -72q-23 -114 -94 -179.5t-167 -65.5q-80 0 -125 46zM353 71.5q62 59.5 83 163.5
q8 40 8 69q0 73 -38.5 113.5t-107.5 40.5q-86 0 -147.5 -59t-83.5 -164q-7 -35 -7 -68q0 -74 38 -114.5t108 -40.5q85 0 147 59.5z" />
    <glyph glyph-name="otilde" unicode="&#xf5;" horiz-adv-x="485" 
d="M183 552q14 39 37 58t51 19q14 0 27 -8t31 -23q19 -15 30 -21.5t23 -6.5q41 0 69 66l14 -7q-31 -83 -91 -83q-14 0 -27 8t-29 23q-21 16 -31.5 22.5t-22.5 6.5q-40 0 -68 -62zM77 36q-45 46 -45 129q0 35 7 70q24 114 95.5 179.5t167.5 65.5q80 0 124.5 -45.5
t44.5 -127.5q0 -30 -8 -72q-23 -114 -94 -179.5t-167 -65.5q-80 0 -125 46zM353 71.5q62 59.5 83 163.5q8 40 8 69q0 73 -38.5 113.5t-107.5 40.5q-86 0 -147.5 -59t-83.5 -164q-7 -35 -7 -68q0 -74 38 -114.5t108 -40.5q85 0 147 59.5z" />
    <glyph glyph-name="odieresis" unicode="&#xf6;" horiz-adv-x="485" 
d="M201.5 551q-5.5 8 -3.5 22q3 14 12 22t21 8q11 0 17 -6t6 -16q0 -5 -1 -8q-2 -14 -12 -22t-22 -8t-17.5 8zM391 549q-6 6 -6 16q0 17 10 27.5t25 10.5q12 0 18 -8t4 -22q-3 -14 -13 -22t-22 -8q-10 0 -16 6zM77 36q-45 46 -45 129q0 35 7 70q24 114 95.5 179.5
t167.5 65.5q80 0 124.5 -45.5t44.5 -127.5q0 -30 -8 -72q-23 -114 -94 -179.5t-167 -65.5q-80 0 -125 46zM353 71.5q62 59.5 83 163.5q8 40 8 69q0 73 -38.5 113.5t-107.5 40.5q-86 0 -147.5 -59t-83.5 -164q-7 -35 -7 -68q0 -74 38 -114.5t108 -40.5q85 0 147 59.5z" />
    <glyph glyph-name="divide" unicode="&#xf7;" horiz-adv-x="537" 
d="M305 487q-7 9 -5 25q4 16 15.5 25t26.5 9q13 0 20.5 -7t7.5 -18q0 -19 -12.5 -31t-30.5 -12q-15 0 -22 9zM102 368h406l-5 -24h-406zM241.5 173q-7.5 7 -7.5 19q0 19 12 30.5t30 11.5q13 0 20.5 -7t7.5 -18q0 -6 -1 -9q-2 -16 -13.5 -25t-27.5 -9q-13 0 -20.5 7z" />
    <glyph glyph-name="oslash" unicode="&#xf8;" horiz-adv-x="485" 
d="M471 307q0 -30 -8 -72q-23 -114 -94 -179.5t-167 -65.5q-58 0 -97 24l-36 -47l-20 14l36 47q-53 45 -53 137q0 35 7 70q24 114 95.5 179.5t167.5 65.5q63 0 104 -29l40 53l22 -13l-42 -56q45 -45 45 -128zM60 167q0 -77 41 -118l290 382q-36 27 -93 27q-86 0 -147.5 -59
t-83.5 -164q-7 -35 -7 -68zM443 304q0 72 -34 110l-289 -380q36 -22 86 -22q85 0 147 59.5t83 163.5q7 35 7 69z" />
    <glyph glyph-name="ugrave" unicode="&#xf9;" horiz-adv-x="513" 
d="M277 641q1 6 6 10t11 4q9 0 23 -12l84 -87l-8 -10l-105 72q-13 9 -11 23zM388 27q0 -16 15 -16q7 0 33 8l-2 -8q-12 -10 -25 -15.5t-24 -5.5q-13 0 -20.5 7t-7.5 21q0 6 1 10l11 52q-27 -35 -74.5 -62.5t-106.5 -27.5q-62 0 -94 27t-32 75q0 14 3 30l63 305v4q0 8 -9 8
q-7 0 -18 -3.5t-19 -7.5l-2 12l69 30h16l-68 -338q-4 -16 -4 -34q0 -42 25.5 -64t73.5 -22q40 0 80 17.5t70 50t42 74.5l56 273v4q0 8 -9 8q-7 0 -18 -3.5t-19 -7.5l-2 12l69 30h16l-87 -430q-2 -10 -2 -13z" />
    <glyph glyph-name="uacute" unicode="&#xfa;" horiz-adv-x="513" 
d="M265 546l-5 10l121 87q6 5 13 8.5t14 3.5q11 0 11 -12q0 -6 -5.5 -13t-15.5 -12zM388 27q0 -16 15 -16q7 0 33 8l-2 -8q-12 -10 -25 -15.5t-24 -5.5q-13 0 -20.5 7t-7.5 21q0 6 1 10l11 52q-27 -35 -74.5 -62.5t-106.5 -27.5q-62 0 -94 27t-32 75q0 14 3 30l63 305v4
q0 8 -9 8q-7 0 -18 -3.5t-19 -7.5l-2 12l69 30h16l-68 -338q-4 -16 -4 -34q0 -42 25.5 -64t73.5 -22q40 0 80 17.5t70 50t42 74.5l56 273v4q0 8 -9 8q-7 0 -18 -3.5t-19 -7.5l-2 12l69 30h16l-87 -430q-2 -10 -2 -13z" />
    <glyph glyph-name="ucircumflex" unicode="&#xfb;" horiz-adv-x="513" 
d="M233 545l-10 16l117 96h23l77 -96l-17 -16l-69 75q-7 5 -9 5q-5 0 -12 -5zM388 27q0 -16 15 -16q7 0 33 8l-2 -8q-12 -10 -25 -15.5t-24 -5.5q-13 0 -20.5 7t-7.5 21q0 6 1 10l11 52q-27 -35 -74.5 -62.5t-106.5 -27.5q-62 0 -94 27t-32 75q0 14 3 30l63 305v4q0 8 -9 8
q-7 0 -18 -3.5t-19 -7.5l-2 12l69 30h16l-68 -338q-4 -16 -4 -34q0 -42 25.5 -64t73.5 -22q40 0 80 17.5t70 50t42 74.5l56 273v4q0 8 -9 8q-7 0 -18 -3.5t-19 -7.5l-2 12l69 30h16l-87 -430q-2 -10 -2 -13z" />
    <glyph glyph-name="udieresis" unicode="&#xfc;" horiz-adv-x="513" 
d="M215.5 551q-5.5 8 -3.5 22q3 14 12 22t22 8q11 0 17 -6t6 -16q0 -17 -10.5 -27.5t-25.5 -10.5q-12 0 -17.5 8zM405 549q-6 6 -6 16q0 17 10.5 27.5t24.5 10.5q11 0 17 -6t6 -16q0 -17 -10.5 -27.5t-25.5 -10.5q-10 0 -16 6zM388 27q0 -16 15 -16q7 0 33 8l-2 -8
q-12 -10 -25 -15.5t-24 -5.5q-13 0 -20.5 7t-7.5 21q0 6 1 10l11 52q-27 -35 -74.5 -62.5t-106.5 -27.5q-62 0 -94 27t-32 75q0 14 3 30l63 305v4q0 8 -9 8q-7 0 -18 -3.5t-19 -7.5l-2 12l69 30h16l-68 -338q-4 -16 -4 -34q0 -42 25.5 -64t73.5 -22q40 0 80 17.5t70 50
t42 74.5l56 273v4q0 8 -9 8q-7 0 -18 -3.5t-19 -7.5l-2 12l69 30h16l-87 -430q-2 -10 -2 -13z" />
    <glyph glyph-name="yacute" unicode="&#xfd;" horiz-adv-x="477" 
d="M240 546l-5 10l121 87q6 5 13 8.5t14 3.5q6 0 9 -4t2 -10q-2 -14 -21 -23zM455 458.5q15 -21.5 15 -54.5q0 -13 -3 -27q-9 -37 -23 -57l-316 -440q-37 -50 -69.5 -81.5t-62.5 -31.5q-12 0 -22.5 6t-8.5 19q3 10 9.5 17.5t16.5 7.5q7 0 15 -7t13 -7q13 0 39 25.5t49 58.5
l93 129l-77 413q-2 10 -17 10q-13 0 -38 -11l-2 12l65 30h16l74 -424l197 275q15 24 24 56q2 16 2 21q0 26 -12 41.5t-34 29.5q9 11 23 11q19 0 34 -21.5z" />
    <glyph glyph-name="thorn" unicode="&#xfe;" horiz-adv-x="513" 
d="M188 660v3q0 9 -9 9q-12 0 -37 -11l-2 12l69 30h17l-75 -366q33 58 88.5 100.5t115.5 42.5q148 0 148 -147q0 -41 -10 -85q-26 -133 -91.5 -195.5t-167.5 -62.5q-54 0 -92.5 26t-43.5 60l-62 -303l-30 -5zM390 75q53 63 74 168q10 46 10 86q0 64 -30 96.5t-93 32.5
q-44 0 -86.5 -29.5t-76.5 -75.5t-53 -94l-21 -101q-3 -15 -3 -29q0 -51 35 -84t101 -33q90 0 143 63z" />
    <glyph glyph-name="ydieresis" unicode="&#xff;" horiz-adv-x="477" 
d="M204 573q3 14 12.5 22t21.5 8q11 0 17 -6t6 -16q0 -17 -10.5 -27.5t-24.5 -10.5q-25 0 -22 30zM398 548.5q-6 5.5 -6 15.5q0 6 1 9q2 14 11.5 22t21.5 8q11 0 17 -6t6 -16q0 -17 -10.5 -27.5t-24.5 -10.5q-10 0 -16 5.5zM455 458.5q15 -21.5 15 -54.5q0 -13 -3 -27
q-9 -37 -23 -57l-316 -440q-37 -50 -69.5 -81.5t-62.5 -31.5q-12 0 -22.5 6t-8.5 19q3 10 9.5 17.5t16.5 7.5q7 0 15 -7t13 -7q13 0 39 25.5t49 58.5l93 129l-77 413q-2 10 -17 10q-13 0 -38 -11l-2 12l65 30h16l74 -424l197 275q15 24 24 56q2 16 2 21q0 26 -12 41.5
t-34 29.5q9 11 23 11q19 0 34 -21.5z" />
    <glyph glyph-name="Amacron" unicode="&#x100;" horiz-adv-x="650" 
d="M576 787h-262l5 22h262zM608 14l-2 -14h-180l2 14h12q19 0 41 9t25 22q0 3 -0.5 8t-1.5 8l-26 171h-290l-96 -171q-1 -1 -4.5 -7.5t-3.5 -8.5q-2 -13 15 -22t36 -9h14l-2 -14h-180l2 14h14q21 2 43 11.5t30 22.5l358 642l26 17l97 -659q2 -14 20 -24t37 -10h14zM475 256
l-58 385l-216 -385h274z" />
    <glyph glyph-name="amacron" unicode="&#x101;" horiz-adv-x="483" 
d="M185 567h262l-4 -22h-263zM32 119q0 39 11 97q31 154 107 209t150 55q43 0 79.5 -14t47.5 -41l9 45h30l-88 -430q-2 -10 -2 -14q0 -15 15 -15q8 0 32 8l-2 -8q-24 -21 -49 -21q-12 0 -19.5 7t-7.5 20q0 7 1 11l18 86q-64 -69 -127 -96.5t-106 -27.5q-99 0 -99 129z
M222 35.5q44 23.5 86 56.5t63 58l45 218q-3 45 -37 67.5t-89 22.5q-34 0 -76 -18.5t-82 -72t-60 -151.5q-10 -49 -10 -86q0 -63 24.5 -90.5t61.5 -27.5q30 0 74 23.5z" />
    <glyph glyph-name="Abreve" unicode="&#x102;" horiz-adv-x="650" 
d="M369.5 803.5q-27.5 22.5 -27.5 66.5q0 6 2 24h24q-1 -6 -1 -16q0 -72 82 -72q38 0 69.5 17.5t48.5 70.5h24q-16 -57 -54.5 -85t-91.5 -28q-48 0 -75.5 22.5zM608 14l-2 -14h-180l2 14h12q19 0 41 9t25 22q0 3 -0.5 8t-1.5 8l-26 171h-290l-96 -171q-1 -1 -4.5 -7.5
t-3.5 -8.5q-2 -13 15 -22t36 -9h14l-2 -14h-180l2 14h14q21 2 43 11.5t30 22.5l358 642l26 17l97 -659q2 -14 20 -24t37 -10h14zM475 256l-58 385l-216 -385h274z" />
    <glyph glyph-name="abreve" unicode="&#x103;" horiz-adv-x="483" 
d="M244.5 556.5q-27.5 22.5 -27.5 67.5q0 7 2 23h24q-5 -53 19.5 -70.5t62.5 -17.5t69.5 17.5t48.5 70.5h24q-16 -57 -55 -85t-92 -28q-48 0 -75.5 22.5zM32 119q0 39 11 97q31 154 107 209t150 55q43 0 79.5 -14t47.5 -41l9 45h30l-88 -430q-2 -10 -2 -14q0 -15 15 -15
q8 0 32 8l-2 -8q-24 -21 -49 -21q-12 0 -19.5 7t-7.5 20q0 7 1 11l18 86q-64 -69 -127 -96.5t-106 -27.5q-99 0 -99 129zM222 35.5q44 23.5 86 56.5t63 58l45 218q-3 45 -37 67.5t-89 22.5q-34 0 -76 -18.5t-82 -72t-60 -151.5q-10 -49 -10 -86q0 -63 24.5 -90.5t61.5 -27.5
q30 0 74 23.5z" />
    <glyph glyph-name="Aogonek" unicode="&#x104;" horiz-adv-x="650" 
d="M493 -47q-26 -30 -26 -62q0 -39 49 -39q17 0 42 7l-4 -16q-31 -9 -55 -9q-31 0 -44.5 14.5t-13.5 36.5q0 5 2 17q6 32 29 57.5t59 40.5h-105l2 14h12q19 0 41 9t25 22q0 3 -0.5 8t-1.5 8l-26 171h-290l-96 -171q-1 -1 -4.5 -7.5t-3.5 -8.5q-2 -13 15 -22t36 -9h14l-2 -14
h-180l2 14h14q21 2 43 11.5t30 22.5l358 642l26 17l97 -659q2 -14 20 -24t37 -10h14l-2 -14h-50q-37 -17 -63 -47zM475 256l-58 385l-216 -385h274z" />
    <glyph glyph-name="aogonek" unicode="&#x105;" horiz-adv-x="483" 
d="M376 26q0 -15 15 -15q8 0 32 8l-2 -8q-14 -13 -32 -18q-33 -19 -54 -47t-21 -56q0 -20 14 -29t35 -9q18 0 42 7l-4 -16q-32 -9 -54 -9q-31 0 -45 15t-14 36q0 7 2 17q12 56 71 90q-16 5 -16 25q0 7 1 11l18 86q-64 -69 -127 -96.5t-106 -27.5q-99 0 -99 129q0 39 11 97
q31 154 107 209t150 55q43 0 79.5 -14t47.5 -41l9 45h30l-88 -430q-2 -10 -2 -14zM222 35.5q44 23.5 86 56.5t63 58l45 218q-3 45 -37 67.5t-89 22.5q-34 0 -76 -18.5t-82 -72t-60 -151.5q-10 -49 -10 -86q0 -63 24.5 -90.5t61.5 -27.5q30 0 74 23.5z" />
    <glyph glyph-name="Cacute" unicode="&#x106;" horiz-adv-x="606" 
d="M386 798l121 87q6 5 13 8.5t14 3.5q5 0 8 -4t2 -10q-2 -15 -20 -23l-133 -72zM127 51.5q-59 61.5 -59 178.5q0 56 13 120q23 115 76.5 196t130.5 122.5t170 41.5q59 0 99.5 -19.5t62.5 -41.5q1 -1 3.5 -3t4.5 -2q8 0 12 19l9 42h19l-35 -174h-13q1 7 1 19
q0 61 -45.5 98.5t-122.5 37.5q-134 0 -222.5 -91.5t-120.5 -244.5q-12 -60 -12 -113q0 -105 52 -164t160 -59q43 0 90 17t87.5 52t63.5 86h21q-34 -86 -109 -132.5t-166 -46.5q-111 0 -170 61.5z" />
    <glyph glyph-name="cacute" unicode="&#x107;" horiz-adv-x="435" 
d="M258 556l121 87q6 5 13 8.5t14 3.5q6 0 9 -4t2 -10q-2 -14 -21 -23l-133 -72zM70.5 34q-39.5 44 -39.5 124q0 32 8 77q25 117 93 181t164 64q65 0 101 -25.5t36 -64.5q0 -7 -2 -19q-2 -9 -8.5 -16.5t-16.5 -7.5q-9 0 -13.5 6.5t-2.5 16.5q1 5 3 9t3 8q2 12 -8 29
t-33 29.5t-59 12.5q-86 0 -146.5 -60.5t-81.5 -162.5q-7 -35 -7 -69q0 -73 34.5 -113.5t93.5 -40.5q64 0 114.5 38t77.5 115h18q-24 -81 -78 -128t-138 -47q-73 0 -112.5 44z" />
    <glyph glyph-name="Ccircumflex" unicode="&#x108;" horiz-adv-x="606" 
d="M347 803l117 96h23l77 -96l-17 -16l-69 75q-7 5 -10 5q-4 0 -11 -5l-100 -75zM127 51.5q-59 61.5 -59 178.5q0 56 13 120q23 115 76.5 196t130.5 122.5t170 41.5q59 0 99.5 -19.5t62.5 -41.5q1 -1 3.5 -3t4.5 -2q8 0 12 19l9 42h19l-35 -174h-13q1 7 1 19
q0 61 -45.5 98.5t-122.5 37.5q-134 0 -222.5 -91.5t-120.5 -244.5q-12 -60 -12 -113q0 -105 52 -164t160 -59q43 0 90 17t87.5 52t63.5 86h21q-34 -86 -109 -132.5t-166 -46.5q-111 0 -170 61.5z" />
    <glyph glyph-name="ccircumflex" unicode="&#x109;" horiz-adv-x="435" 
d="M199 561l117 96h23l77 -96l-17 -16l-69 75q-7 5 -9 5q-5 0 -12 -5l-100 -75zM70.5 34q-39.5 44 -39.5 124q0 32 8 77q25 117 93 181t164 64q65 0 101 -25.5t36 -64.5q0 -7 -2 -19q-2 -9 -8.5 -16.5t-16.5 -7.5q-9 0 -13.5 6.5t-2.5 16.5q1 5 3 9t3 8q2 12 -8 29t-33 29.5
t-59 12.5q-86 0 -146.5 -60.5t-81.5 -162.5q-7 -35 -7 -69q0 -73 34.5 -113.5t93.5 -40.5q64 0 114.5 38t77.5 115h18q-24 -81 -78 -128t-138 -47q-73 0 -112.5 44z" />
    <glyph glyph-name="Cdotaccent" unicode="&#x10a;" horiz-adv-x="606" 
d="M453 765q-6 6 -6 16q0 17 11 27.5t25 10.5q10 0 16 -6t6 -16q0 -17 -10 -27.5t-25 -10.5q-11 0 -17 6zM127 51.5q-59 61.5 -59 178.5q0 56 13 120q23 115 76.5 196t130.5 122.5t170 41.5q59 0 99.5 -19.5t62.5 -41.5q1 -1 3.5 -3t4.5 -2q8 0 12 19l9 42h19l-35 -174h-13
q1 7 1 19q0 61 -45.5 98.5t-122.5 37.5q-134 0 -222.5 -91.5t-120.5 -244.5q-12 -60 -12 -113q0 -105 52 -164t160 -59q43 0 90 17t87.5 52t63.5 86h21q-34 -86 -109 -132.5t-166 -46.5q-111 0 -170 61.5z" />
    <glyph glyph-name="cdotaccent" unicode="&#x10b;" horiz-adv-x="435" 
d="M293 553q-6 6 -6 16q0 17 10.5 27.5t25.5 10.5q10 0 16 -6t6 -16q0 -17 -10.5 -27.5t-24.5 -10.5q-11 0 -17 6zM70.5 34q-39.5 44 -39.5 124q0 32 8 77q25 117 93 181t164 64q65 0 101 -25.5t36 -64.5q0 -7 -2 -19q-2 -9 -8.5 -16.5t-16.5 -7.5q-9 0 -13.5 6.5t-2.5 16.5
q1 5 3 9t3 8q2 12 -8 29t-33 29.5t-59 12.5q-86 0 -146.5 -60.5t-81.5 -162.5q-7 -35 -7 -69q0 -73 34.5 -113.5t93.5 -40.5q64 0 114.5 38t77.5 115h18q-24 -81 -78 -128t-138 -47q-73 0 -112.5 44z" />
    <glyph glyph-name="Ccaron" unicode="&#x10c;" horiz-adv-x="606" 
d="M364 883l17 16l69 -75q5 -5 10 -5q4 0 11 5l100 75l10 -16l-116 -96h-23zM127 51.5q-59 61.5 -59 178.5q0 56 13 120q23 115 76.5 196t130.5 122.5t170 41.5q59 0 99.5 -19.5t62.5 -41.5q1 -1 3.5 -3t4.5 -2q8 0 12 19l9 42h19l-35 -174h-13q1 7 1 19q0 61 -45.5 98.5
t-122.5 37.5q-134 0 -222.5 -91.5t-120.5 -244.5q-12 -60 -12 -113q0 -105 52 -164t160 -59q43 0 90 17t87.5 52t63.5 86h21q-34 -86 -109 -132.5t-166 -46.5q-111 0 -170 61.5z" />
    <glyph glyph-name="ccaron" unicode="&#x10d;" horiz-adv-x="435" 
d="M215 641l17 16l69 -75q5 -5 10 -5q4 0 12 5l99 75l10 -16l-116 -96h-23zM70.5 34q-39.5 44 -39.5 124q0 32 8 77q25 117 93 181t164 64q65 0 101 -25.5t36 -64.5q0 -7 -2 -19q-2 -9 -8.5 -16.5t-16.5 -7.5q-9 0 -13.5 6.5t-2.5 16.5q1 5 3 9t3 8q2 12 -8 29t-33 29.5
t-59 12.5q-86 0 -146.5 -60.5t-81.5 -162.5q-7 -35 -7 -69q0 -73 34.5 -113.5t93.5 -40.5q64 0 114.5 38t77.5 115h18q-24 -81 -78 -128t-138 -47q-73 0 -112.5 44z" />
    <glyph glyph-name="Dcaron" unicode="&#x10e;" horiz-adv-x="604" 
d="M339 911l17 16l69 -75q5 -5 10 -5q4 0 11 5l100 75l10 -16l-116 -96h-23zM-14 14h26q58 0 65 33l124 606q3 17 -10 25t-42 8h-26l3 14h271q106 0 160 -58.5t54 -169.5q0 -57 -13 -122q-35 -168 -123 -259t-221 -91h-270zM256 22q123 0 202 87.5t110 240.5q14 67 14 119
q0 100 -47 154.5t-142 54.5h-156l-134 -656h153z" />
    <glyph glyph-name="dcaron" unicode="&#x10f;" horiz-adv-x="590" 
d="M32 119q0 39 11 97q31 154 107 209t150 55q43 0 85 -16.5t54 -43.5l52 254v2q0 10 -10 10q-12 0 -37 -11l-1 12l69 30h16l-138 -677q-2 -12 -2 -14q0 -15 14 -15q9 0 33 8l-2 -8q-12 -10 -25 -15.5t-24 -5.5q-13 0 -20.5 7t-7.5 21q0 6 1 10l18 86q-64 -69 -131.5 -96.5
t-112.5 -27.5q-99 0 -99 129zM561 553q27 22 44.5 43t17.5 43q0 10 -8 20q-5 7 -7 12t-1 14q3 14 11 21.5t20 7.5q22 0 22 -25l-2 -16q-16 -75 -92 -130zM225.5 36q47.5 24 92 57t64.5 57l45 218q-3 44 -41.5 67t-95.5 23q-34 0 -76 -18.5t-82 -72t-60 -151.5
q-10 -49 -10 -86q0 -63 24.5 -90.5t61.5 -27.5q30 0 77.5 24z" />
    <glyph glyph-name="Dcroat" unicode="&#x110;" horiz-adv-x="604" 
d="M557 641.5q54 -58.5 54 -169.5q0 -57 -13 -122q-35 -168 -123 -259t-221 -91h-270l2 14h26q58 0 65 33l62 302h-71l5 22h70l58 282q3 17 -10 25t-42 8h-26l3 14h271q106 0 160 -58.5zM582 469q0 100 -47 154.5t-142 54.5h-156l-63 -307h219l-5 -22h-218l-67 -327h153
q123 0 202 87.5t110 240.5q14 67 14 119z" />
    <glyph glyph-name="dcroat" unicode="&#x111;" horiz-adv-x="506" 
d="M390 40q-2 -12 -2 -14q0 -15 14 -15q9 0 33 8l-2 -8q-12 -10 -25 -15.5t-24 -5.5q-13 0 -20.5 7t-7.5 21q0 6 1 10l18 86q-64 -69 -131.5 -96.5t-112.5 -27.5q-99 0 -99 129q0 39 11 97q31 154 107 209t150 55q43 0 85 -16.5t54 -43.5l34 165h-139l5 24h139l13 65v2
q0 10 -10 10q-12 0 -37 -11l-1 12l69 30h16l-22 -108h64l-5 -24h-64zM427 368q-3 44 -41.5 67t-95.5 23q-34 0 -76 -18.5t-82 -72t-60 -151.5q-10 -49 -10 -86q0 -63 24.5 -90.5t61.5 -27.5q30 0 77.5 24t92 57t64.5 57z" />
    <glyph glyph-name="Emacron" unicode="&#x112;" horiz-adv-x="536" 
d="M534 787h-262l4 22h263zM588 700l-31 -154h-13q6 32 6 59q0 71 -46 71h-271l-59 -291h204q28 0 42.5 25.5t27.5 77.5h14l-47 -230h-14q6 42 6 58q0 45 -34 45h-204l-68 -337h275q37 0 63.5 46t40.5 96h12l-47 -166h-464l2 14h26q58 0 65 33l124 606q7 33 -52 33h-26l3 14
h465z" />
    <glyph glyph-name="emacron" unicode="&#x113;" horiz-adv-x="445" 
d="M425 545h-262l5 22h262zM306.5 205q-119.5 -38 -245.5 -42q1 -71 36.5 -111t94.5 -40q64 0 115.5 38t79.5 115h18q-24 -80 -79.5 -127.5t-139.5 -47.5q-74 0 -114.5 44.5t-40.5 125.5q0 32 8 75q24 116 92.5 180.5t161.5 64.5q80 0 118.5 -30.5t38.5 -78.5q0 -12 -3 -26
q-21 -102 -140.5 -140zM314 233.5q108 42.5 108 132.5q0 39 -30.5 65.5t-100.5 26.5q-86 0 -144.5 -62t-78.5 -161q-6 -34 -7 -49q145 5 253 47.5z" />
    <glyph glyph-name="Ebreve" unicode="&#x114;" horiz-adv-x="536" 
d="M325.5 798.5q-27.5 22.5 -27.5 67.5q0 7 2 23h24q-5 -53 19.5 -70.5t62.5 -17.5t69.5 17.5t48.5 70.5h24q-16 -57 -55 -85t-92 -28q-48 0 -75.5 22.5zM588 700l-31 -154h-13q6 32 6 59q0 71 -46 71h-271l-59 -291h204q28 0 42.5 25.5t27.5 77.5h14l-47 -230h-14
q6 42 6 58q0 45 -34 45h-204l-68 -337h275q37 0 63.5 46t40.5 96h12l-47 -166h-464l2 14h26q58 0 65 33l124 606q7 33 -52 33h-26l3 14h465z" />
    <glyph glyph-name="ebreve" unicode="&#x115;" horiz-adv-x="445" 
d="M217.5 556.5q-27.5 22.5 -27.5 66.5q0 8 2 24h24q-1 -6 -1 -16q0 -72 83 -72q38 0 69.5 17.5t48.5 70.5h24q-16 -57 -55 -85t-92 -28q-48 0 -75.5 22.5zM306.5 205q-119.5 -38 -245.5 -42q1 -71 36.5 -111t94.5 -40q64 0 115.5 38t79.5 115h18q-24 -80 -79.5 -127.5
t-139.5 -47.5q-74 0 -114.5 44.5t-40.5 125.5q0 32 8 75q24 116 92.5 180.5t161.5 64.5q80 0 118.5 -30.5t38.5 -78.5q0 -12 -3 -26q-21 -102 -140.5 -140zM314 233.5q108 42.5 108 132.5q0 39 -30.5 65.5t-100.5 26.5q-86 0 -144.5 -62t-78.5 -161q-6 -34 -7 -49
q145 5 253 47.5z" />
    <glyph glyph-name="Edotaccent" unicode="&#x116;" horiz-adv-x="536" 
d="M379 767q-6 8 -4 22q3 14 13 22t22 8q10 0 16 -6t6 -16q0 -17 -10 -27.5t-25 -10.5q-12 0 -18 8zM588 700l-31 -154h-13q6 32 6 59q0 71 -46 71h-271l-59 -291h204q28 0 42.5 25.5t27.5 77.5h14l-47 -230h-14q6 42 6 58q0 45 -34 45h-204l-68 -337h275q37 0 63.5 46
t40.5 96h12l-47 -166h-464l2 14h26q58 0 65 33l124 606q7 33 -52 33h-26l3 14h465z" />
    <glyph glyph-name="edotaccent" unicode="&#x117;" horiz-adv-x="445" 
d="M278 553q-6 6 -6 16q0 5 1 8q2 14 12 22t22 8q10 0 16 -5.5t6 -15.5q0 -18 -10 -28.5t-24 -10.5q-11 0 -17 6zM306.5 205q-119.5 -38 -245.5 -42q1 -71 36.5 -111t94.5 -40q64 0 115.5 38t79.5 115h18q-24 -80 -79.5 -127.5t-139.5 -47.5q-74 0 -114.5 44.5t-40.5 125.5
q0 32 8 75q24 116 92.5 180.5t161.5 64.5q80 0 118.5 -30.5t38.5 -78.5q0 -12 -3 -26q-21 -102 -140.5 -140zM314 233.5q108 42.5 108 132.5q0 39 -30.5 65.5t-100.5 26.5q-86 0 -144.5 -62t-78.5 -161q-6 -34 -7 -49q145 5 253 47.5z" />
    <glyph glyph-name="Eogonek" unicode="&#x118;" horiz-adv-x="536" 
d="M588 700l-31 -154h-13q6 32 6 59q0 71 -46 71h-271l-59 -291h204q28 0 42.5 25.5t27.5 77.5h14l-47 -230h-14q6 42 6 58q0 45 -34 45h-204l-68 -337h275q37 0 63.5 46t40.5 96h12l-47 -166h-50q-34 -15 -58 -41.5t-30 -55.5q-1 -5 -1 -12q0 -20 13.5 -29.5t34.5 -9.5
q18 0 42 7l-3 -16q-31 -9 -55 -9q-31 0 -45 15t-14 37q0 6 2 16q7 32 30.5 57.5t58.5 40.5h-389l2 14h26q58 0 65 33l124 606q7 33 -52 33h-26l3 14h465z" />
    <glyph glyph-name="eogonek" unicode="&#x119;" horiz-adv-x="445" 
d="M306.5 205q-119.5 -38 -245.5 -42q1 -71 36.5 -111t94.5 -40q64 0 115.5 38t79.5 115h18q-17 -55 -49 -96t-78 -61q-24 -18 -38.5 -41.5t-14.5 -46.5q0 -20 13.5 -29t35.5 -9q18 0 42 7l-4 -16q-31 -9 -55 -9q-30 0 -44 14.5t-14 36.5q0 7 2 17q5 33 34 63q-25 -5 -49 -5
q-74 0 -114.5 44.5t-40.5 125.5q0 32 8 75q24 116 92.5 180.5t161.5 64.5q80 0 118.5 -30.5t38.5 -78.5q0 -12 -3 -26q-21 -102 -140.5 -140zM314 233.5q108 42.5 108 132.5q0 39 -30.5 65.5t-100.5 26.5q-86 0 -144.5 -62t-78.5 -161q-6 -34 -7 -49q145 5 253 47.5z" />
    <glyph glyph-name="Ecaron" unicode="&#x11a;" horiz-adv-x="536" 
d="M392 787l-78 96l17 16l69 -75q5 -5 10 -5q4 0 11 5l100 75l10 -16l-116 -96h-23zM588 700l-31 -154h-13q6 32 6 59q0 71 -46 71h-271l-59 -291h204q28 0 42.5 25.5t27.5 77.5h14l-47 -230h-14q6 42 6 58q0 45 -34 45h-204l-68 -337h275q37 0 63.5 46t40.5 96h12l-47 -166
h-464l2 14h26q58 0 65 33l124 606q7 33 -52 33h-26l3 14h465z" />
    <glyph glyph-name="ecaron" unicode="&#x11b;" horiz-adv-x="445" 
d="M283 545l-78 96l18 16l69 -75q5 -5 9 -5t12 5l100 75l9 -16l-116 -96h-23zM306.5 205q-119.5 -38 -245.5 -42q1 -71 36.5 -111t94.5 -40q64 0 115.5 38t79.5 115h18q-24 -80 -79.5 -127.5t-139.5 -47.5q-74 0 -114.5 44.5t-40.5 125.5q0 32 8 75q24 116 92.5 180.5
t161.5 64.5q80 0 118.5 -30.5t38.5 -78.5q0 -12 -3 -26q-21 -102 -140.5 -140zM314 233.5q108 42.5 108 132.5q0 39 -30.5 65.5t-100.5 26.5q-86 0 -144.5 -62t-78.5 -161q-6 -34 -7 -49q145 5 253 47.5z" />
    <glyph glyph-name="Gcircumflex" unicode="&#x11c;" horiz-adv-x="641" 
d="M372 831l117 96h23l76 -96l-16 -16l-69 75q-7 5 -10 5q-4 0 -11 -5l-100 -75zM127 51.5q-59 61.5 -59 178.5q0 56 13 120q23 115 76.5 196t130.5 122.5t170 41.5q59 0 99.5 -19.5t62.5 -41.5q1 -1 3.5 -3t4.5 -2q8 0 12 19l9 42h19l-35 -174h-13q1 7 1 19
q0 61 -45.5 98.5t-122.5 37.5q-134 0 -222.5 -91.5t-120.5 -244.5q-12 -60 -12 -113q0 -105 52 -164t160 -59q53 0 112.5 15.5t103.5 52.5l42 206q1 4 1 10q0 23 -21 30t-68 11l3 14h182l-3 -14q-28 0 -43.5 -10t-21.5 -41l-44 -216q-42 -36 -103 -59t-153 -23
q-111 0 -170 61.5z" />
    <glyph glyph-name="gcircumflex" unicode="&#x11d;" horiz-adv-x="429" 
d="M184 545l-10 16l117 96h23l77 -96l-17 -16l-69 75q-7 5 -9 5q-5 0 -12 -5zM479.5 472.5q8.5 -7.5 5.5 -18.5q-2 -8 -7.5 -13.5t-14.5 -5.5q-10 0 -13.5 6.5t-7.5 11t-17 4.5q-9 0 -22.5 -6t-24.5 -14q25 -30 25 -74q0 -21 -4 -38q-15 -71 -69 -112.5t-129 -41.5
q-56 0 -93 24q-47 -31 -51 -58q-1 -3 -1 -9q0 -21 20 -33t56 -12h128q43 0 72.5 -17t29.5 -54q0 -5 -2 -19q-14 -68 -76.5 -99t-149.5 -31q-65 0 -105.5 24.5t-40.5 69.5q0 7 2 21q12 58 77 92q-38 16 -38 50q0 44 65 87q-32 30 -32 81q0 20 4 37q14 71 68 113t130 42
q67 0 105 -33q40 33 81 33q21 0 29.5 -7.5zM374 357q0 46 -29 74t-86 28q-67 0 -110 -38t-54 -96q-4 -24 -4 -34q0 -45 28 -72t85 -27q68 0 111 37.5t56 95.5q3 17 3 32zM83 65q-34 -21 -48.5 -41t-19.5 -45q-2 -12 -2 -17q0 -38 35.5 -57t95.5 -19q79 0 129.5 27t60.5 78
q2 12 2 17q0 26 -22 39.5t-72 13.5h-119q-25 0 -40 4z" />
    <glyph glyph-name="Gbreve" unicode="&#x11e;" horiz-adv-x="641" 
d="M393.5 826.5q-27.5 22.5 -27.5 66.5q0 6 2 24h24q-1 -6 -1 -16q0 -72 82 -72q38 0 69.5 17.5t48.5 70.5h24q-16 -57 -54.5 -85t-92.5 -28q-47 0 -74.5 22.5zM127 51.5q-59 61.5 -59 178.5q0 56 13 120q23 115 76.5 196t130.5 122.5t170 41.5q59 0 99.5 -19.5t62.5 -41.5
q1 -1 3.5 -3t4.5 -2q8 0 12 19l9 42h19l-35 -174h-13q1 7 1 19q0 61 -45.5 98.5t-122.5 37.5q-134 0 -222.5 -91.5t-120.5 -244.5q-12 -60 -12 -113q0 -105 52 -164t160 -59q53 0 112.5 15.5t103.5 52.5l42 206q1 4 1 10q0 23 -21 30t-68 11l3 14h182l-3 -14
q-28 0 -43.5 -10t-21.5 -41l-44 -216q-42 -36 -103 -59t-153 -23q-111 0 -170 61.5z" />
    <glyph glyph-name="gbreve" unicode="&#x11f;" horiz-adv-x="429" 
d="M202.5 556.5q-27.5 22.5 -27.5 66.5q0 6 2 24h24q-1 -6 -1 -16q0 -72 82 -72q38 0 69.5 17.5t48.5 70.5h24q-16 -57 -54.5 -85t-92.5 -28q-47 0 -74.5 22.5zM479.5 472.5q8.5 -7.5 5.5 -18.5q-2 -8 -7.5 -13.5t-14.5 -5.5q-10 0 -13.5 6.5t-7.5 11t-17 4.5q-9 0 -22.5 -6
t-24.5 -14q25 -30 25 -74q0 -21 -4 -38q-15 -71 -69 -112.5t-129 -41.5q-56 0 -93 24q-47 -31 -51 -58q-1 -3 -1 -9q0 -21 20 -33t56 -12h128q43 0 72.5 -17t29.5 -54q0 -5 -2 -19q-14 -68 -76.5 -99t-149.5 -31q-65 0 -105.5 24.5t-40.5 69.5q0 7 2 21q12 58 77 92
q-38 16 -38 50q0 44 65 87q-32 30 -32 81q0 20 4 37q14 71 68 113t130 42q67 0 105 -33q40 33 81 33q21 0 29.5 -7.5zM374 357q0 46 -29 74t-86 28q-67 0 -110 -38t-54 -96q-4 -24 -4 -34q0 -45 28 -72t85 -27q68 0 111 37.5t56 95.5q3 17 3 32zM83 65q-34 -21 -48.5 -41
t-19.5 -45q-2 -12 -2 -17q0 -38 35.5 -57t95.5 -19q79 0 129.5 27t60.5 78q2 12 2 17q0 26 -22 39.5t-72 13.5h-119q-25 0 -40 4z" />
    <glyph glyph-name="Gdotaccent" unicode="&#x120;" horiz-adv-x="641" 
d="M459 793q-6 6 -6 16q0 17 10.5 27.5t25.5 10.5q10 0 16 -6t6 -16q0 -17 -10.5 -27.5t-24.5 -10.5q-11 0 -17 6zM127 51.5q-59 61.5 -59 178.5q0 56 13 120q23 115 76.5 196t130.5 122.5t170 41.5q59 0 99.5 -19.5t62.5 -41.5q1 -1 3.5 -3t4.5 -2q8 0 12 19l9 42h19
l-35 -174h-13q1 7 1 19q0 61 -45.5 98.5t-122.5 37.5q-134 0 -222.5 -91.5t-120.5 -244.5q-12 -60 -12 -113q0 -105 52 -164t160 -59q53 0 112.5 15.5t103.5 52.5l42 206q1 4 1 10q0 23 -21 30t-68 11l3 14h182l-3 -14q-28 0 -43.5 -10t-21.5 -41l-44 -216q-42 -36 -103 -59
t-153 -23q-111 0 -170 61.5z" />
    <glyph glyph-name="gdotaccent" unicode="&#x121;" horiz-adv-x="429" 
d="M263 553q-6 6 -6 16q0 17 10.5 27.5t25.5 10.5q10 0 16 -6t6 -16q0 -17 -10 -27.5t-25 -10.5q-11 0 -17 6zM479.5 472.5q8.5 -7.5 5.5 -18.5q-2 -8 -7.5 -13.5t-14.5 -5.5q-10 0 -13.5 6.5t-7.5 11t-17 4.5q-9 0 -22.5 -6t-24.5 -14q25 -30 25 -74q0 -21 -4 -38
q-15 -71 -69 -112.5t-129 -41.5q-56 0 -93 24q-47 -31 -51 -58q-1 -3 -1 -9q0 -21 20 -33t56 -12h128q43 0 72.5 -17t29.5 -54q0 -5 -2 -19q-14 -68 -76.5 -99t-149.5 -31q-65 0 -105.5 24.5t-40.5 69.5q0 7 2 21q12 58 77 92q-38 16 -38 50q0 44 65 87q-32 30 -32 81
q0 20 4 37q14 71 68 113t130 42q67 0 105 -33q40 33 81 33q21 0 29.5 -7.5zM374 357q0 46 -29 74t-86 28q-67 0 -110 -38t-54 -96q-4 -24 -4 -34q0 -45 28 -72t85 -27q68 0 111 37.5t56 95.5q3 17 3 32zM83 65q-34 -21 -48.5 -41t-19.5 -45q-2 -12 -2 -17q0 -38 35.5 -57
t95.5 -19q79 0 129.5 27t60.5 78q2 12 2 17q0 26 -22 39.5t-72 13.5h-119q-25 0 -40 4z" />
    <glyph glyph-name="Gcommaaccent" unicode="&#x122;" horiz-adv-x="641" 
d="M127 51.5q-59 61.5 -59 178.5q0 56 13 120q23 115 76.5 196t130.5 122.5t170 41.5q59 0 99.5 -19.5t62.5 -41.5q1 -1 3.5 -3t4.5 -2q8 0 12 19l9 42h19l-35 -174h-13q1 7 1 19q0 61 -45.5 98.5t-122.5 37.5q-134 0 -222.5 -91.5t-120.5 -244.5q-12 -60 -12 -113
q0 -105 52 -164t160 -59q53 0 112.5 15.5t103.5 52.5l42 206q1 4 1 10q0 23 -21 30t-68 11l3 14h182l-3 -14q-28 0 -43.5 -10t-21.5 -41l-44 -216q-42 -36 -103 -59t-153 -23q-111 0 -170 61.5zM229 -222q28 23 45.5 43.5t17.5 42.5q0 6 -2.5 11t-5.5 9q-9 9 -9 20
q0 16 9 25.5t23 9.5q21 0 21 -23q0 -4 -2 -18q-14 -75 -91 -130z" />
    <glyph glyph-name="gcommaaccent" unicode="&#x123;" horiz-adv-x="429" 
d="M264 572q0 3 2 17q16 76 91 130l6 -10q-55 -44 -62 -78q-2 -9 0 -14.5t8 -13.5q5 -7 7 -12t1 -14q-3 -14 -11.5 -21.5t-20.5 -7.5q-21 0 -21 24zM479.5 472.5q8.5 -7.5 5.5 -18.5q-2 -8 -7.5 -13.5t-14.5 -5.5q-10 0 -13.5 6.5t-7.5 11t-17 4.5q-9 0 -22.5 -6t-24.5 -14
q25 -30 25 -74q0 -21 -4 -38q-15 -71 -69 -112.5t-129 -41.5q-56 0 -93 24q-47 -31 -51 -58q-1 -3 -1 -9q0 -21 20 -33t56 -12h128q43 0 72.5 -17t29.5 -54q0 -5 -2 -19q-14 -68 -76.5 -99t-149.5 -31q-65 0 -105.5 24.5t-40.5 69.5q0 7 2 21q12 58 77 92q-38 16 -38 50
q0 44 65 87q-32 30 -32 81q0 20 4 37q14 71 68 113t130 42q67 0 105 -33q40 33 81 33q21 0 29.5 -7.5zM374 357q0 46 -29 74t-86 28q-67 0 -110 -38t-54 -96q-4 -24 -4 -34q0 -45 28 -72t85 -27q68 0 111 37.5t56 95.5q3 17 3 32zM83 65q-34 -21 -48.5 -41t-19.5 -45
q-2 -12 -2 -17q0 -38 35.5 -57t95.5 -19q79 0 129.5 27t60.5 78q2 12 2 17q0 26 -22 39.5t-72 13.5h-119q-25 0 -40 4z" />
    <glyph glyph-name="Hcircumflex" unicode="&#x124;" horiz-adv-x="695" 
d="M373 787l-10 16l117 96h23l77 -96l-16 -16l-70 75q-5 5 -9 5q-5 0 -12 -5zM770 700l-3 -14h-26q-58 0 -65 -33l-124 -606q-4 -18 9.5 -25.5t42.5 -7.5h26l-2 -14h-200l2 14h26q58 0 65 33l65 318h-407l-65 -318q-7 -33 52 -33h26l-2 -14h-200l2 14h26q29 0 45.5 8
t20.5 25l123 606q4 17 -9 25t-42 8h-26l2 14h200l-3 -14h-26q-58 0 -65 -33l-54 -264h407l54 264q4 18 -9.5 25.5t-42.5 7.5h-26l3 14h200z" />
    <glyph glyph-name="hcircumflex" unicode="&#x125;" horiz-adv-x="521" 
d="M523 822l-16 -16l-69 75q-7 5 -10 5q-6 0 -11 -5l-100 -75l-11 16l117 96h23zM431.5 456.5q32.5 -23.5 32.5 -84.5q0 -26 -8 -68l-54 -265q-2 -10 -2 -13q0 -15 16 -15q8 0 32 8l-2 -8q-24 -21 -49 -21q-12 0 -19.5 7t-7.5 20q0 7 1 11l55 269q8 36 8 70q0 50 -24.5 70.5
t-75.5 20.5q-44 0 -95 -37.5t-94 -106.5l-64 -314l-32 -10l140 684v3q0 9 -9 9q-12 0 -37 -11l-2 12l69 30h17l-72 -356q31 48 82 83.5t101 35.5q61 0 93.5 -23.5z" />
    <glyph glyph-name="Hbar" unicode="&#x126;" horiz-adv-x="695" 
d="M770 700l-3 -14h-26q-58 0 -65 -33l-23 -110h49l-5 -24h-48l-97 -472q-4 -18 9.5 -25.5t42.5 -7.5h26l-2 -14h-200l2 14h26q58 0 65 33l65 318h-407l-65 -318q-7 -33 52 -33h26l-2 -14h-200l2 14h26q29 0 45.5 8t20.5 25l96 472h-66l5 24h66l22 110q4 17 -9 25t-42 8h-26
l2 14h200l-3 -14h-26q-58 0 -65 -33l-23 -110h407l23 110q4 18 -9.5 25.5t-42.5 7.5h-26l3 14h200zM618 519h-407l-27 -130h407z" />
    <glyph glyph-name="hbar" unicode="&#x127;" horiz-adv-x="521" 
d="M402 39q-2 -10 -2 -13q0 -15 16 -15q8 0 32 8l-2 -8q-24 -21 -49 -21q-12 0 -19.5 7t-7.5 20q0 7 1 11l55 269q8 36 8 70q0 50 -24.5 70.5t-75.5 20.5q-44 0 -95 -37.5t-94 -106.5l-64 -314l-32 -10l122 595h-39l4 24h40l13 65v3q0 9 -9 9q-12 0 -37 -11l-2 12l69 30h17
l-22 -108h163l-5 -24h-163l-45 -224q31 48 82 83.5t101 35.5q61 0 93.5 -23.5t32.5 -84.5q0 -26 -8 -68z" />
    <glyph glyph-name="Itilde" unicode="&#x128;" horiz-adv-x="263" 
d="M122 794q13 39 36.5 58t50.5 19q15 0 27.5 -7.5t31.5 -23.5q17 -14 28.5 -21t24.5 -7q21 0 38 17t31 49l13 -7q-30 -83 -90 -83q-14 0 -27 8t-29 23q-21 16 -31.5 22.5t-22.5 6.5q-40 0 -69 -62zM-5 14h26q60 0 65 33l124 606q4 18 -9.5 25.5t-42.5 7.5h-26l3 14h200
l-3 -14h-26q-58 0 -65 -33l-124 -606q-7 -33 52 -33h26l-2 -14h-200z" />
    <glyph glyph-name="itilde" unicode="&#x129;" horiz-adv-x="236" 
d="M60 552q13 39 36 58t51 19q14 0 27 -8t31 -23q19 -15 30 -21.5t23 -6.5q41 0 69 66l14 -7q-30 -83 -90 -83q-14 0 -27 8t-30 23q-18 15 -29.5 22t-24.5 7q-40 0 -68 -62zM76.5 -3q-7.5 7 -7.5 21q0 6 1 10l83 402v3q0 9 -10 9q-7 0 -18 -3.5t-18 -7.5l-2 12l69 30h16
l-88 -433q-2 -10 -2 -13q0 -16 15 -16q7 0 33 8l-2 -8q-12 -10 -25 -15.5t-24 -5.5q-13 0 -20.5 7z" />
    <glyph glyph-name="Imacron" unicode="&#x12a;" horiz-adv-x="263" 
d="M99 808h320l-5 -22h-320zM-5 14h26q60 0 65 33l124 606q4 18 -9.5 25.5t-42.5 7.5h-26l3 14h200l-3 -14h-26q-58 0 -65 -33l-124 -606q-7 -33 52 -33h26l-2 -14h-200z" />
    <glyph glyph-name="imacron" unicode="&#x12b;" horiz-adv-x="236" 
d="M63 567h262l-4 -22h-262zM76.5 -3q-7.5 7 -7.5 21q0 6 1 10l83 402v3q0 9 -10 9q-7 0 -18 -3.5t-18 -7.5l-2 12l69 30h16l-88 -433q-2 -10 -2 -13q0 -16 15 -16q7 0 33 8l-2 -8q-12 -10 -25 -15.5t-24 -5.5q-13 0 -20.5 7z" />
    <glyph glyph-name="Ibreve" unicode="&#x12c;" horiz-adv-x="263" 
d="M175.5 798.5q-27.5 22.5 -27.5 66.5q0 6 2 24h24q-1 -6 -1 -16q0 -72 82 -72q38 0 69.5 17.5t48.5 70.5h24q-16 -57 -54.5 -85t-91.5 -28q-48 0 -75.5 22.5zM-5 14h26q60 0 65 33l124 606q4 18 -9.5 25.5t-42.5 7.5h-26l3 14h200l-3 -14h-26q-58 0 -65 -33l-124 -606
q-7 -33 52 -33h26l-2 -14h-200z" />
    <glyph glyph-name="ibreve" unicode="&#x12d;" horiz-adv-x="236" 
d="M114.5 563.5q-27.5 22.5 -27.5 67.5q0 7 2 23h24q-5 -53 19.5 -70.5t62.5 -17.5t69.5 17.5t48.5 70.5h24q-16 -57 -55 -85t-92 -28q-48 0 -75.5 22.5zM76.5 -3q-7.5 7 -7.5 21q0 6 1 10l83 402v3q0 9 -10 9q-7 0 -18 -3.5t-18 -7.5l-2 12l69 30h16l-88 -433
q-2 -10 -2 -13q0 -16 15 -16q7 0 33 8l-2 -8q-12 -10 -25 -15.5t-24 -5.5q-13 0 -20.5 7z" />
    <glyph glyph-name="Iogonek" unicode="&#x12e;" horiz-adv-x="263" 
d="M335 700l-3 -14h-26q-58 0 -65 -33l-124 -606q-7 -33 52 -33h26l-2 -14h-31q-38 -17 -63.5 -47.5t-25.5 -62.5q0 -20 14 -29t35 -9q18 0 42 7l-4 -16q-31 -9 -54 -9q-31 0 -45 15t-14 36q0 7 2 17q7 32 30 57.5t58 40.5h-144l2 14h26q60 0 65 33l124 606q4 18 -9.5 25.5
t-42.5 7.5h-26l3 14h200z" />
    <glyph glyph-name="iogonek" unicode="&#x12f;" horiz-adv-x="225" 
d="M217 624.5q7 -6.5 7 -17.5q0 -18 -12 -29t-28 -11q-15 0 -21.5 8.5t-4.5 23.5q3 15 14 23.5t26 8.5q12 0 19 -6.5zM96 40q-2 -10 -2 -13q0 -16 15 -16q9 0 33 8l-2 -8q-11 -10 -27 -17q-33 -18 -55.5 -46t-22.5 -57q0 -39 49 -39q17 0 42 7l-4 -16q-31 -9 -55 -9
q-31 0 -44.5 14.5t-13.5 36.5q0 5 2 17q5 28 23.5 51t46.5 38q-18 5 -18 28l1 9l83 402v3q0 9 -10 9q-6 0 -17 -3.5t-19 -7.5l-2 12l69 30h16z" />
    <glyph glyph-name="Idotaccent" unicode="&#x130;" horiz-adv-x="263" 
d="M230 765q-6 6 -6 16q0 5 1 8q2 14 12 22t22 8q10 0 16 -5.5t6 -15.5q0 -18 -10 -28.5t-24 -10.5q-11 0 -17 6zM-5 14h26q60 0 65 33l124 606q4 18 -9.5 25.5t-42.5 7.5h-26l3 14h200l-3 -14h-26q-58 0 -65 -33l-124 -606q-7 -33 52 -33h26l-2 -14h-200z" />
    <glyph glyph-name="dotlessi" unicode="&#x131;" horiz-adv-x="236" 
d="M76.5 -3q-7.5 7 -7.5 21q0 6 1 10l83 402v3q0 9 -10 9q-7 0 -18 -3.5t-18 -7.5l-2 12l69 30h16l-88 -433q-2 -10 -2 -13q0 -16 15 -16q7 0 33 8l-2 -8q-12 -10 -25 -15.5t-24 -5.5q-13 0 -20.5 7z" />
    <glyph glyph-name="IJ" unicode="&#x132;" horiz-adv-x="534" 
d="M-5 14h26q60 0 65 33l124 606q4 18 -9.5 25.5t-42.5 7.5h-26l3 14h200l-3 -14h-26q-58 0 -65 -33l-124 -606q-7 -33 52 -33h26l-2 -14h-200zM204 -98q55 6 98.5 47t57.5 108l121 596q4 18 -9.5 25.5t-42.5 7.5h-26l3 14h200l-3 -14h-26q-59 0 -65 -33l-121 -595
q-16 -79 -67 -125.5t-120 -46.5v16z" />
    <glyph glyph-name="ij" unicode="&#x133;" horiz-adv-x="466" 
d="M162.5 575.5q-6.5 8.5 -4.5 23.5q3 15 14 23.5t26 8.5q12 0 19 -6.5t7 -17.5q0 -18 -12 -29t-28 -11q-15 0 -21.5 8.5zM426.5 575.5q-6.5 8.5 -4.5 23.5q3 15 14 23.5t26 8.5q12 0 19 -6.5t7 -17.5q0 -18 -12 -29t-28 -11q-15 0 -21.5 8.5zM70.5 -2.5q-7.5 7.5 -7.5 21.5
q0 6 1 9l83 402v3q0 9 -10 9q-6 0 -17 -3.5t-19 -7.5l-2 12l69 30h16l-88 -433q-2 -10 -2 -13q0 -16 15 -16q9 0 33 8l-2 -8q-24 -21 -49 -21q-13 0 -20.5 7.5zM223 -95q43 20 67.5 50.5t33.5 73.5l81 398v4q0 8 -9 8q-12 0 -37 -11l-2 12l69 30h17l-91 -442
q-9 -47 -41.5 -84.5t-87.5 -56.5v18z" />
    <glyph glyph-name="Jcircumflex" unicode="&#x134;" horiz-adv-x="296" 
d="M186 831l117 96h23l77 -96l-16 -16l-69 75q-7 5 -10 5q-6 0 -11 -5l-100 -75zM-34 -98q55 6 98.5 47.5t57.5 107.5l121 596q7 33 -52 33h-26l3 14h200l-3 -14h-26q-59 0 -65 -33l-121 -595q-16 -79 -67 -125.5t-121 -46.5z" />
    <glyph glyph-name="jcircumflex" unicode="&#x135;" horiz-adv-x="228" 
d="M96 561l117 96h23l77 -96l-16 -16l-69 75q-7 5 -10 5q-5 0 -12 -5l-99 -75zM-14 -95q43 20 67.5 50.5t33.5 73.5l81 398v4q0 8 -9 8q-12 0 -37 -11l-2 12l69 30h16l-90 -442q-9 -47 -42 -84.5t-87 -56.5v18z" />
    <glyph glyph-name="Kcommaaccent" unicode="&#x136;" horiz-adv-x="594" 
d="M166 14h26l-2 -14h-200l2 14h26q29 0 45.5 8t20.5 25l123 606q4 17 -9 25t-42 8h-26l2 14h200l-3 -14h-26q-58 0 -65 -33l-124 -606q-7 -33 52 -33zM659 700l-3 -14h-14q-21 0 -35 -7t-29 -21l-371 -287l253 -329q11 -14 21 -21t32 -7h28l-1 -14h-91l-269 350l8 37
l351 269q6 6 6 11q4 19 -34 19h-15l3 14h160zM301 -86l-2 -16q-16 -75 -92 -130l-5 10q27 22 44.5 43t17.5 43q0 10 -8 20q-5 7 -7 12t-1 14q3 14 11 21.5t20 7.5q22 0 22 -25z" />
    <glyph glyph-name="kcommaaccent" unicode="&#x137;" horiz-adv-x="475" 
d="M470 470l-2 -12h-10q-14 0 -25 -2.5t-20 -11.5l-253 -198l196 -212q10 -11 25 -16.5t25 -5.5h23l-2 -12h-84l-208 226l-9 -7l-45 -219l-32 -10l140 684v3q0 9 -9 9q-12 0 -37 -11l-2 12l69 30h17l-95 -467l280 220h58zM233 -84q0 -4 -2 -18q-14 -75 -91 -130l-6 10
q28 23 45.5 43.5t17.5 42.5q0 11 -9 20q-5 7 -7 12.5t-1 13.5q3 14 11.5 21.5t20.5 7.5q21 0 21 -23z" />
    <glyph glyph-name="kgreenlandic" unicode="&#x138;" horiz-adv-x="475" 
d="M470 470l-2 -12h-10q-14 0 -25 -2.5t-20 -11.5l-253 -198l196 -212q10 -11 25 -16.5t25 -5.5h23l-2 -12h-84l-208 226l-10 -7l-44 -219l-32 -10l90 440v3q0 9 -9 9q-12 0 -37 -11l-2 12l69 30h17l-45 -223l280 220h58z" />
    <glyph glyph-name="Lacute" unicode="&#x139;" horiz-adv-x="504" 
d="M245 798l121 87q16 12 27 12q5 0 8 -4t2 -10q-2 -15 -20 -23l-133 -72zM-8 14h26q29 0 45.5 8t20.5 25l123 606q4 17 -9 25t-42 8h-26l2 14h200l-3 -14h-26q-58 0 -65 -33l-121 -596q-7 -33 52 -33h195q37 0 63.5 46t40.5 96h12l-47 -166h-443z" />
    <glyph glyph-name="lacute" unicode="&#x13a;" horiz-adv-x="239" 
d="M201 798l121 87q16 12 26 12q6 0 9 -4t2 -10q-2 -14 -20 -23l-134 -72zM78.5 -3q-7.5 7 -7.5 21q0 6 1 10l132 646v4q0 8 -9 8q-12 0 -37 -11l-2 12l70 30h16l-138 -677q-2 -10 -2 -13q0 -16 15 -16q7 0 33 8l-2 -8q-12 -10 -25 -15.5t-24 -5.5q-13 0 -20.5 7z" />
    <glyph glyph-name="Lcommaaccent" unicode="&#x13b;" horiz-adv-x="504" 
d="M-8 14h26q29 0 45.5 8t20.5 25l123 606q4 17 -9 25t-42 8h-26l2 14h200l-3 -14h-26q-58 0 -65 -33l-121 -596q-7 -33 52 -33h195q37 0 63.5 46t40.5 96h12l-47 -166h-443zM129 -222q27 22 44.5 43t17.5 43q0 10 -8 20q-5 7 -7 12t-1 14q3 14 11 21.5t20 7.5q22 0 22 -25
l-2 -16q-16 -75 -92 -130z" />
    <glyph glyph-name="lcommaaccent" unicode="&#x13c;" horiz-adv-x="239" 
d="M78.5 -3q-7.5 7 -7.5 21q0 6 1 10l132 646v4q0 8 -9 8q-12 0 -37 -11l-2 12l70 30h16l-138 -677q-2 -10 -2 -13q0 -16 15 -16q7 0 33 8l-2 -8q-12 -10 -25 -15.5t-24 -5.5q-13 0 -20.5 7zM-16 -222q27 22 44.5 43t17.5 43q0 10 -8 20q-5 7 -7 12t-1 14q3 14 11 21.5
t20 7.5q22 0 22 -25l-2 -16q-16 -75 -92 -130z" />
    <glyph glyph-name="Lcaron" unicode="&#x13d;" horiz-adv-x="504" 
d="M375 544q28 23 45.5 43.5t17.5 42.5q0 11 -9 20q-5 7 -7 12.5t-1 13.5q3 14 11.5 21.5t20.5 7.5q21 0 21 -23q0 -4 -2 -18q-14 -75 -91 -130zM-8 14h26q29 0 45.5 8t20.5 25l123 606q4 17 -9 25t-42 8h-26l2 14h200l-3 -14h-26q-58 0 -65 -33l-121 -596q-7 -33 52 -33
h195q37 0 63.5 46t40.5 96h12l-47 -166h-443z" />
    <glyph glyph-name="lcaron" unicode="&#x13e;" horiz-adv-x="311" 
d="M78.5 -3q-7.5 7 -7.5 21q0 6 1 10l132 646v4q0 8 -9 8q-12 0 -37 -11l-2 12l70 30h16l-138 -677q-2 -10 -2 -13q0 -16 15 -16q7 0 33 8l-2 -8q-12 -10 -25 -15.5t-24 -5.5q-13 0 -20.5 7zM279 544q28 23 45.5 43.5t17.5 42.5q0 11 -9 20q-5 7 -7 12.5t-1 13.5
q3 14 11.5 21.5t20.5 7.5q21 0 21 -23q0 -4 -2 -18q-14 -75 -91 -130z" />
    <glyph glyph-name="Ldot" unicode="&#x13f;" horiz-adv-x="504" 
d="M-8 14h26q29 0 45.5 8t20.5 25l123 606q4 17 -9 25t-42 8h-26l2 14h200l-3 -14h-26q-58 0 -65 -33l-121 -596q-7 -33 52 -33h195q37 0 63.5 46t40.5 96h12l-47 -166h-443zM309 315q-6 6 -6 16q0 17 11 27.5t25 10.5q10 0 16 -6t6 -16q0 -17 -10 -27.5t-25 -10.5
q-11 0 -17 6z" />
    <glyph glyph-name="ldot" unicode="&#x140;" horiz-adv-x="316" 
d="M78.5 -3q-7.5 7 -7.5 21q0 6 1 10l132 646v4q0 8 -9 8q-12 0 -37 -11l-2 12l70 30h16l-138 -677q-2 -10 -2 -13q0 -16 15 -16q7 0 33 8l-2 -8q-12 -10 -25 -15.5t-24 -5.5q-13 0 -20.5 7zM241.5 316.5q-7.5 6.5 -7.5 18.5q0 6 1 9q3 16 14 25t27 9q13 0 20.5 -7t7.5 -18
q0 -19 -11.5 -31t-29.5 -12q-14 0 -21.5 6.5z" />
    <glyph glyph-name="Lslash" unicode="&#x141;" horiz-adv-x="504" 
d="M480 166l-47 -166h-443l2 14h26q29 0 45.5 8t20.5 25l50 247l-91 -32l6 28l91 32l67 331q4 17 -9 25t-42 8h-26l2 14h200l-3 -14h-26q-58 0 -65 -33l-65 -319l230 82l-6 -28l-229 -82l-51 -249q-7 -33 52 -33h195q37 0 63.5 46t40.5 96h12z" />
    <glyph glyph-name="lslash" unicode="&#x142;" horiz-adv-x="239" 
d="M104 40q-2 -10 -2 -13q0 -16 15 -16q7 0 33 8l-2 -8q-12 -10 -25 -15.5t-24 -5.5q-13 0 -20.5 7t-7.5 21q0 6 1 10l54 266l-111 -43l6 28l111 43l72 352v4q0 8 -9 8q-12 0 -37 -11l-2 12l70 30h16l-78 -383l111 43l-6 -28l-111 -43z" />
    <glyph glyph-name="Nacute" unicode="&#x143;" horiz-adv-x="698" 
d="M410 798l121 87q6 5 13 8.5t14 3.5q5 0 8 -4t2 -10q-2 -15 -20 -23l-133 -72zM-8 14h26q29 0 45.5 8t20.5 25l123 606q4 17 -9 25t-42 8h-26l2 14h140l253 -649l123 602q4 18 -9.5 25.5t-42.5 7.5h-26l3 14h200l-3 -14h-26q-58 0 -65 -33l-133 -653h-30l-267 677h-6
l-129 -630q-7 -33 52 -33h26l-2 -14h-200z" />
    <glyph glyph-name="nacute" unicode="&#x144;" horiz-adv-x="521" 
d="M286 546l-5 10l121 87q18 12 27 12q6 0 9 -4t2 -10q-2 -14 -20 -23zM400 40q-2 -10 -2 -13q0 -16 16 -16q8 0 32 8l-2 -8q-24 -21 -48 -21q-13 0 -20.5 7t-7.5 20q0 7 1 11l65 317q4 17 4 34q0 40 -24 59.5t-67 19.5q-49 0 -95 -37t-79.5 -91.5t-46.5 -104.5l-45 -225
l-32 -10l89 437v4q0 8 -8 8q-13 0 -38 -11l-2 12l69 30h17l-32 -156q33 65 88 115.5t119 50.5q117 0 117 -91q0 -16 -5 -41z" />
    <glyph glyph-name="Ncommaaccent" unicode="&#x145;" horiz-adv-x="698" 
d="M-8 14h26q29 0 45.5 8t20.5 25l123 606q4 17 -9 25t-42 8h-26l2 14h140l253 -649l123 602q4 18 -9.5 25.5t-42.5 7.5h-26l3 14h200l-3 -14h-26q-58 0 -65 -33l-133 -653h-30l-267 677h-6l-129 -630q-7 -33 52 -33h26l-2 -14h-200zM198 -222q27 22 44.5 43t17.5 43
q0 10 -8 20q-5 7 -7 12t-1 14q6 29 32 29q21 0 21 -25l-2 -16q-16 -75 -91 -130z" />
    <glyph glyph-name="ncommaaccent" unicode="&#x146;" horiz-adv-x="521" 
d="M400 40q-2 -10 -2 -13q0 -16 16 -16q8 0 32 8l-2 -8q-24 -21 -48 -21q-13 0 -20.5 7t-7.5 20q0 7 1 11l65 317q4 17 4 34q0 40 -24 59.5t-67 19.5q-49 0 -95 -37t-79.5 -91.5t-46.5 -104.5l-45 -225l-32 -10l89 437v4q0 8 -8 8q-13 0 -38 -11l-2 12l69 30h17l-32 -156
q33 65 88 115.5t119 50.5q117 0 117 -91q0 -16 -5 -41zM239 -85q0 -3 -2 -17q-14 -75 -91 -130l-6 10q55 44 62 78q2 9 0 14.5t-8 13.5q-5 7 -7 12t-1 14q3 14 11.5 21.5t20.5 7.5q21 0 21 -24z" />
    <glyph glyph-name="Ncaron" unicode="&#x147;" horiz-adv-x="698" 
d="M387 883l17 16l69 -75q5 -5 10 -5q4 0 11 5l100 75l10 -16l-116 -96h-23zM-8 14h26q29 0 45.5 8t20.5 25l123 606q4 17 -9 25t-42 8h-26l2 14h140l253 -649l123 602q4 18 -9.5 25.5t-42.5 7.5h-26l3 14h200l-3 -14h-26q-58 0 -65 -33l-133 -653h-30l-267 677h-6
l-129 -630q-7 -33 52 -33h26l-2 -14h-200z" />
    <glyph glyph-name="ncaron" unicode="&#x148;" horiz-adv-x="521" 
d="M337 545l-78 96l17 16l70 -75q3 -5 9 -5q4 0 12 5l100 75l9 -16l-116 -96h-23zM468 389q0 -16 -5 -41l-63 -308q-2 -10 -2 -13q0 -16 16 -16q8 0 32 8l-2 -8q-24 -21 -48 -21q-13 0 -20.5 7t-7.5 20q0 7 1 11l65 317q4 17 4 34q0 40 -24 59.5t-67 19.5q-49 0 -95 -37
t-79.5 -91.5t-46.5 -104.5l-45 -225l-32 -10l89 437v4q0 8 -8 8q-13 0 -38 -11l-2 12l69 30h17l-32 -156q33 65 88 115.5t119 50.5q117 0 117 -91z" />
    <glyph glyph-name="napostrophe" unicode="&#x149;" horiz-adv-x="628" 
d="M168 556q0 -3 -2 -17q-16 -76 -91 -130l-6 10q55 44 62 78q2 9 0 14.5t-8 13.5q-5 7 -7 12t-1 14q3 14 11.5 21.5t20.5 7.5q21 0 21 -24zM507 40q-2 -10 -2 -13q0 -16 15 -16q9 0 33 8l-2 -8q-12 -10 -25 -15.5t-24 -5.5q-13 0 -20.5 7t-7.5 21q0 6 1 10l65 317
q4 17 4 35q0 39 -24 58.5t-67 19.5q-49 0 -95 -37.5t-79.5 -92.5t-46.5 -105l-45 -223l-31 -10l89 437v4q0 8 -9 8q-6 0 -17.5 -3.5t-19.5 -7.5l-2 12l69 30h16l-32 -157q33 66 88 116.5t120 50.5q116 0 116 -89q0 -18 -5 -43z" />
    <glyph glyph-name="Eng" unicode="&#x14a;" horiz-adv-x="698" 
d="M347 -218q56 6 99 47t56 108l14 64l-267 676h-6l-129 -630q-7 -33 52 -33h26l-2 -14h-200l2 14h26q29 0 45.5 8t20.5 25l123 606q4 17 -9 25t-42 8h-26l2 14h140l253 -649l123 602q4 18 -9.5 25.5t-42.5 7.5h-26l3 14h200l-3 -14h-26q-58 0 -65 -33l-146 -715
q-16 -79 -66.5 -125.5t-119.5 -46.5v16z" />
    <glyph glyph-name="eng" unicode="&#x14b;" horiz-adv-x="519" 
d="M439.5 456.5q27.5 -23.5 27.5 -67.5q0 -16 -5 -41l-81 -404q-10 -47 -43 -84.5t-87 -56.5l-1 18q43 20 67.5 50t34.5 74l81 400q4 17 4 35q0 39 -24 58.5t-67 19.5q-49 0 -95 -37t-79.5 -91.5t-46.5 -104.5l-45 -225l-32 -10l90 437v4q0 8 -9 8q-7 0 -18 -3.5t-19 -7.5
l-2 12l69 30h16l-32 -157q33 66 88 116.5t120 50.5q61 0 88.5 -23.5z" />
    <glyph glyph-name="Omacron" unicode="&#x14c;" horiz-adv-x="676" 
d="M336 828h262l-5 -22h-262zM120 52.5q-62 62.5 -62 181.5q0 55 13 116q35 173 133.5 266.5t239.5 93.5q114 0 176 -63t62 -182q0 -52 -12 -115q-36 -173 -134.5 -266.5t-238.5 -93.5q-115 0 -177 62.5zM522.5 105q86.5 91 117.5 245q13 65 13 112q0 105 -53.5 164.5
t-160.5 59.5q-134 0 -220.5 -91t-117.5 -245q-13 -65 -13 -112q0 -105 53 -164.5t160 -59.5q135 0 221.5 91z" />
    <glyph glyph-name="omacron" unicode="&#x14d;" horiz-adv-x="485" 
d="M187 567h262l-5 -22h-262zM77 36q-45 46 -45 129q0 35 7 70q24 114 95.5 179.5t167.5 65.5q80 0 124.5 -45.5t44.5 -127.5q0 -30 -8 -72q-23 -114 -94 -179.5t-167 -65.5q-80 0 -125 46zM353 71.5q62 59.5 83 163.5q8 40 8 69q0 73 -38.5 113.5t-107.5 40.5
q-86 0 -147.5 -59t-83.5 -164q-7 -35 -7 -68q0 -74 38 -114.5t108 -40.5q85 0 147 59.5z" />
    <glyph glyph-name="Obreve" unicode="&#x14e;" horiz-adv-x="676" 
d="M381.5 796.5q-27.5 22.5 -27.5 67.5q0 7 2 23h24q-1 -6 -1 -16q0 -72 83 -72q38 0 69.5 17.5t48.5 70.5h24q-16 -57 -55 -85t-92 -28q-48 0 -75.5 22.5zM120 52.5q-62 62.5 -62 181.5q0 55 13 116q35 173 133.5 266.5t239.5 93.5q114 0 176 -63t62 -182q0 -52 -12 -115
q-36 -173 -134.5 -266.5t-238.5 -93.5q-115 0 -177 62.5zM522.5 105q86.5 91 117.5 245q13 65 13 112q0 105 -53.5 164.5t-160.5 59.5q-134 0 -220.5 -91t-117.5 -245q-13 -65 -13 -112q0 -105 53 -164.5t160 -59.5q135 0 221.5 91z" />
    <glyph glyph-name="obreve" unicode="&#x14f;" horiz-adv-x="485" 
d="M236.5 556.5q-27.5 22.5 -27.5 67.5q0 7 2 23h24q-5 -53 19.5 -70.5t62.5 -17.5t69.5 17.5t48.5 70.5h24q-16 -57 -55 -85t-92 -28q-48 0 -75.5 22.5zM77 36q-45 46 -45 129q0 35 7 70q24 114 95.5 179.5t167.5 65.5q80 0 124.5 -45.5t44.5 -127.5q0 -30 -8 -72
q-23 -114 -94 -179.5t-167 -65.5q-80 0 -125 46zM353 71.5q62 59.5 83 163.5q8 40 8 69q0 73 -38.5 113.5t-107.5 40.5q-86 0 -147.5 -59t-83.5 -164q-7 -35 -7 -68q0 -74 38 -114.5t108 -40.5q85 0 147 59.5z" />
    <glyph glyph-name="Ohungarumlaut" unicode="&#x150;" horiz-adv-x="676" 
d="M363 799l121 87q16 12 27 12q5 0 8 -4t2 -10q-2 -14 -19 -23l-134 -72zM477 799l121 87q6 5 13 8.5t14 3.5q11 0 11 -12q0 -6 -5.5 -13t-14.5 -12l-134 -72zM120 52.5q-62 62.5 -62 181.5q0 55 13 116q35 173 133.5 266.5t239.5 93.5q114 0 176 -63t62 -182
q0 -52 -12 -115q-36 -173 -134.5 -266.5t-238.5 -93.5q-115 0 -177 62.5zM522.5 105q86.5 91 117.5 245q13 65 13 112q0 105 -53.5 164.5t-160.5 59.5q-134 0 -220.5 -91t-117.5 -245q-13 -65 -13 -112q0 -105 53 -164.5t160 -59.5q135 0 221.5 91z" />
    <glyph glyph-name="ohungarumlaut" unicode="&#x151;" horiz-adv-x="485" 
d="M188 557l121 87q6 5 13 8.5t14 3.5q11 0 11 -12q0 -6 -5.5 -13t-14.5 -12l-134 -72zM302 557l121 87q18 12 27 12q6 0 9 -4t2 -10q-2 -14 -19 -23l-135 -72zM77 36q-45 46 -45 129q0 35 7 70q24 114 95.5 179.5t167.5 65.5q80 0 124.5 -45.5t44.5 -127.5q0 -30 -8 -72
q-23 -114 -94 -179.5t-167 -65.5q-80 0 -125 46zM353 71.5q62 59.5 83 163.5q8 40 8 69q0 73 -38.5 113.5t-107.5 40.5q-86 0 -147.5 -59t-83.5 -164q-7 -35 -7 -68q0 -74 38 -114.5t108 -40.5q85 0 147 59.5z" />
    <glyph glyph-name="OE" unicode="&#x152;" horiz-adv-x="937" 
d="M989 700l-31 -154h-12q5 38 5 57q0 73 -46 73h-242l-59 -291h176q28 0 41.5 25t28.5 78h13l-47 -230h-13q5 33 5 57q0 22 -7.5 34t-25.5 12h-176l-68 -337h247q36 0 63.5 47t39.5 95h13l-47 -166h-352l11 52q-89 -62 -205 -62t-179.5 63.5t-63.5 183.5q0 46 13 113
q23 115 76.5 196t130.5 122.5t170 41.5q116 0 178 -62l11 52h352zM513 89l106 522q-56 75 -175 75q-135 0 -223.5 -91.5t-119.5 -244.5q-12 -58 -12 -109q0 -106 54 -166.5t163 -60.5q121 0 207 75z" />
    <glyph glyph-name="oe" unicode="&#x153;" horiz-adv-x="754" 
d="M613 205.5q-120 -38.5 -245 -42.5q1 -71 36.5 -111t94.5 -40q64 0 116 38t79 115h18q-24 -80 -79.5 -127.5t-139.5 -47.5q-43 0 -75.5 16t-51.5 46q-70 -62 -164 -62q-80 0 -125 46t-45 129q0 35 7 70q24 114 95.5 179.5t167.5 65.5q93 0 138 -63q68 63 160 63
q81 0 119 -30.5t38 -79.5q0 -16 -2 -25q-22 -101 -142 -139.5zM355 72q-16 35 -16 87q0 31 8 76q21 100 74 162q-18 30 -49.5 45.5t-73.5 15.5q-86 0 -147.5 -59t-83.5 -164q-7 -35 -7 -68q0 -74 38 -114.5t108 -40.5q87 0 149 60zM607.5 228q104.5 37 120.5 116q2 14 2 20
q0 40 -30.5 67t-101.5 27q-86 0 -144.5 -62t-78.5 -161q-4 -25 -6 -49q134 5 238.5 42z" />
    <glyph glyph-name="Racute" unicode="&#x154;" horiz-adv-x="589" 
d="M358 788l-5 10l121 87q18 12 27 12q6 0 9 -4t2 -10q-2 -14 -20 -23zM396 302q18 -15 24 -45.5t9 -83.5q5 -74 24 -116.5t71 -42.5l-2 -14h-39q-34 0 -57 30t-25 75q-2 28 -2 43q-3 59 -8.5 93.5t-20.5 55.5q-24 -2 -38 -2h-167l-51 -248q-7 -33 52 -33h26l-2 -14h-200
l2 14h26q29 0 45.5 8t20.5 25l123 606q4 17 -9 25t-42 8h-26l2 14h283q158 0 158 -138q0 -32 -7 -64q-34 -165 -170 -196zM471 366.5q50 47.5 66 131.5q6 32 6 58q0 120 -132 120h-168l-73 -357h168q83 0 133 47.5z" />
    <glyph glyph-name="racute" unicode="&#x155;" horiz-adv-x="293" 
d="M159 546l-4 10l121 87q16 12 26 12q6 0 9 -4t2 -10q-2 -14 -20 -23zM328 474q12 -6 12 -17q0 -9 -6 -15.5t-14 -6.5q-11 0 -13 6.5t-5 11t-14 4.5q-46 0 -79.5 -38t-50.5 -105l-63 -314l-32 -10l90 437v4q0 8 -9 8q-7 0 -18 -3.5t-19 -7.5l-2 12l69 30h16l-14 -72
q18 34 47.5 58t72.5 24q20 0 32 -6z" />
    <glyph glyph-name="Rcommaaccent" unicode="&#x156;" horiz-adv-x="589" 
d="M396 302q18 -15 24 -45.5t9 -83.5q5 -74 24 -116.5t71 -42.5l-2 -14h-39q-34 0 -57 30t-25 75q-2 28 -2 43q-3 59 -8.5 93.5t-20.5 55.5q-24 -2 -38 -2h-167l-51 -248q-7 -33 52 -33h26l-2 -14h-200l2 14h26q29 0 45.5 8t20.5 25l123 606q4 17 -9 25t-42 8h-26l2 14h283
q158 0 158 -138q0 -32 -7 -64q-34 -165 -170 -196zM471 366.5q50 47.5 66 131.5q6 32 6 58q0 120 -132 120h-168l-73 -357h168q83 0 133 47.5zM275 -86l-2 -16q-16 -75 -92 -130l-5 10q27 22 44.5 43t17.5 43q0 10 -8 20q-5 7 -7 12t-1 14q3 14 11 21.5t20 7.5q22 0 22 -25z
" />
    <glyph glyph-name="rcommaaccent" unicode="&#x157;" horiz-adv-x="293" 
d="M328 474q12 -6 12 -17q0 -9 -6 -15.5t-14 -6.5q-11 0 -13 6.5t-5 11t-14 4.5q-46 0 -79.5 -38t-50.5 -105l-63 -314l-32 -10l90 437v4q0 8 -9 8q-7 0 -18 -3.5t-19 -7.5l-2 12l69 30h16l-14 -72q18 34 47.5 58t72.5 24q20 0 32 -6zM87 -84q0 -4 -2 -18q-14 -75 -91 -130
l-6 10q28 23 45.5 43.5t17.5 42.5q0 6 -2.5 11t-5.5 9q-9 9 -9 20q0 16 9 25.5t23 9.5q21 0 21 -23z" />
    <glyph glyph-name="Rcaron" unicode="&#x158;" horiz-adv-x="589" 
d="M409 787l-78 96l17 16l70 -75q3 -5 9 -5q4 0 12 5l100 75l9 -16l-116 -96h-23zM396 302q18 -15 24 -45.5t9 -83.5q5 -74 24 -116.5t71 -42.5l-2 -14h-39q-34 0 -57 30t-25 75q-2 28 -2 43q-3 59 -8.5 93.5t-20.5 55.5q-24 -2 -38 -2h-167l-51 -248q-7 -33 52 -33h26
l-2 -14h-200l2 14h26q29 0 45.5 8t20.5 25l123 606q4 17 -9 25t-42 8h-26l2 14h283q158 0 158 -138q0 -32 -7 -64q-34 -165 -170 -196zM471 366.5q50 47.5 66 131.5q6 32 6 58q0 120 -132 120h-168l-73 -357h168q83 0 133 47.5z" />
    <glyph glyph-name="rcaron" unicode="&#x159;" horiz-adv-x="293" 
d="M215 545l-78 96l18 16l69 -75q5 -5 9 -5t12 5l100 75l9 -16l-116 -96h-23zM328 474q12 -6 12 -17q0 -9 -6 -15.5t-14 -6.5q-11 0 -13 6.5t-5 11t-14 4.5q-46 0 -79.5 -38t-50.5 -105l-63 -314l-32 -10l90 437v4q0 8 -9 8q-7 0 -18 -3.5t-19 -7.5l-2 12l69 30h16l-14 -72
q18 34 47.5 58t72.5 24q20 0 32 -6z" />
    <glyph glyph-name="Sacute" unicode="&#x15a;" horiz-adv-x="504" 
d="M306 798l121 87q6 5 13 8.5t14 3.5q6 0 9 -4t2 -10q-2 -14 -21 -23l-133 -72zM127 11q-41 21 -63 38.5t-23 17.5q-4 0 -8 -7t-6 -18l-8 -39h-19l36 174h12l-1 -13q0 -40 22.5 -74.5t61.5 -55t85 -20.5q84 0 142.5 43.5t72.5 115.5q3 15 3 28q0 37 -20.5 65t-50 48.5
t-81.5 48.5q-52 29 -82 49.5t-51 49.5t-21 67q0 14 3 29q15 74 77 113t148 39q47 0 79 -14.5t50 -28t20 -13.5q9 0 11 16l8 37h19l-35 -174h-13q1 7 1 21q0 59 -37 95.5t-104 36.5q-84 0 -133.5 -34.5t-61.5 -93.5q-3 -12 -3 -24q0 -34 19.5 -59.5t48.5 -44t78 -44.5
q55 -29 87 -50.5t54.5 -53.5t22.5 -74q0 -9 -4 -33q-11 -54 -46 -96t-85.5 -65.5t-107.5 -23.5q-56 0 -97 21z" />
    <glyph glyph-name="sacute" unicode="&#x15b;" horiz-adv-x="386" 
d="M197 556l121 87q16 12 27 12q5 0 8 -4t2 -10q-2 -15 -20 -23l-133 -72zM58.5 15.5q-35.5 25.5 -35.5 64.5q0 7 2 19q2 9 8.5 16.5t16.5 7.5q9 0 13.5 -6.5t2.5 -16.5q-1 -3 -3 -7.5t-3 -9.5q-2 -12 7 -29t31 -29.5t58 -12.5q65 0 104.5 26.5t48.5 72.5q2 12 2 16
q0 31 -25 49.5t-76 41.5q-40 18 -64.5 32.5t-42 37.5t-17.5 56q0 66 50 101t117 35q65 0 98.5 -25t33.5 -64q0 -13 -2 -20q-2 -9 -8.5 -16.5t-16.5 -7.5q-9 0 -13.5 6.5t-2.5 16.5q1 5 3 9t3 8q2 12 -6.5 29t-30.5 29.5t-58 12.5q-59 0 -97.5 -29.5t-38.5 -78.5
q0 -37 27.5 -58.5t81.5 -45.5q56 -25 84.5 -48t28.5 -64q0 -15 -2 -23q-12 -58 -61 -89.5t-117 -31.5q-65 0 -100.5 25.5z" />
    <glyph glyph-name="Scircumflex" unicode="&#x15c;" horiz-adv-x="504" 
d="M257 803l117 96h23l77 -96l-16 -16l-69 75q-7 5 -10 5q-4 0 -11 -5l-100 -75zM127 11q-41 21 -63 38.5t-23 17.5q-4 0 -8 -7t-6 -18l-8 -39h-19l36 174h12l-1 -13q0 -40 22.5 -74.5t61.5 -55t85 -20.5q84 0 142.5 43.5t72.5 115.5q3 15 3 28q0 37 -20.5 65t-50 48.5
t-81.5 48.5q-52 29 -82 49.5t-51 49.5t-21 67q0 14 3 29q15 74 77 113t148 39q47 0 79 -14.5t50 -28t20 -13.5q9 0 11 16l8 37h19l-35 -174h-13q1 7 1 21q0 59 -37 95.5t-104 36.5q-84 0 -133.5 -34.5t-61.5 -93.5q-3 -12 -3 -24q0 -34 19.5 -59.5t48.5 -44t78 -44.5
q55 -29 87 -50.5t54.5 -53.5t22.5 -74q0 -9 -4 -33q-11 -54 -46 -96t-85.5 -65.5t-107.5 -23.5q-56 0 -97 21z" />
    <glyph glyph-name="scircumflex" unicode="&#x15d;" horiz-adv-x="386" 
d="M159 561l117 96h24l76 -96l-16 -16l-69 75q-7 5 -10 5q-4 0 -11 -5l-100 -75zM58.5 15.5q-35.5 25.5 -35.5 64.5q0 7 2 19q2 9 8.5 16.5t16.5 7.5q9 0 13.5 -6.5t2.5 -16.5q-1 -3 -3 -7.5t-3 -9.5q-2 -12 7 -29t31 -29.5t58 -12.5q65 0 104.5 26.5t48.5 72.5q2 12 2 16
q0 31 -25 49.5t-76 41.5q-40 18 -64.5 32.5t-42 37.5t-17.5 56q0 66 50 101t117 35q65 0 98.5 -25t33.5 -64q0 -13 -2 -20q-2 -9 -8.5 -16.5t-16.5 -7.5q-9 0 -13.5 6.5t-2.5 16.5q1 5 3 9t3 8q2 12 -6.5 29t-30.5 29.5t-58 12.5q-59 0 -97.5 -29.5t-38.5 -78.5
q0 -37 27.5 -58.5t81.5 -45.5q56 -25 84.5 -48t28.5 -64q0 -15 -2 -23q-12 -58 -61 -89.5t-117 -31.5q-65 0 -100.5 25.5z" />
    <glyph glyph-name="Scedilla" unicode="&#x15e;" horiz-adv-x="504" 
d="M543 707l-35 -174h-13q1 7 1 21q0 59 -37 95.5t-104 36.5q-84 0 -133.5 -34.5t-61.5 -93.5q-3 -12 -3 -24q0 -34 19.5 -59.5t48.5 -44t78 -44.5q55 -29 87 -50.5t54.5 -53.5t22.5 -74q0 -9 -4 -33q-11 -54 -46 -96t-85.5 -65.5t-107.5 -23.5h-15l-37 -58q7 1 22 1
q24 0 40 -11.5t16 -32.5q0 -7 -1 -10q-7 -33 -35.5 -49t-69.5 -16q-28 0 -52 6l13 18q20 -4 46 -4q61 0 71 47q7 32 -45 32q-17 0 -35 -2l-6 10l48 73q-42 7 -73.5 25t-50 33t-19.5 15q-4 0 -8 -7t-6 -18l-8 -39h-19l36 174h12l-1 -13q0 -40 22.5 -74.5t61.5 -55t85 -20.5
q84 0 142.5 43.5t72.5 115.5q3 15 3 28q0 37 -20.5 65t-50 48.5t-81.5 48.5q-52 29 -82 49.5t-51 49.5t-21 67q0 14 3 29q15 74 77 113t148 39q47 0 79 -14.5t50 -28t20 -13.5q9 0 11 16l8 37h19z" />
    <glyph glyph-name="scedilla" unicode="&#x15f;" horiz-adv-x="386" 
d="M351.5 455q33.5 -25 33.5 -64q0 -13 -2 -20q-2 -9 -8.5 -16.5t-16.5 -7.5q-9 0 -13.5 6.5t-2.5 16.5q1 5 3 9t3 8q2 12 -6.5 29t-30.5 29.5t-58 12.5q-59 0 -97.5 -29.5t-38.5 -78.5q0 -37 27.5 -58.5t81.5 -45.5q56 -25 84.5 -48t28.5 -64q0 -15 -2 -23
q-11 -54 -55.5 -85.5t-107.5 -35.5l-37 -58q7 1 22 1q24 0 40 -11t16 -32q0 -7 -1 -11q-7 -33 -35.5 -49t-69.5 -16q-27 0 -51 6l12 18q20 -4 46 -4q61 0 71 47q7 32 -45 32q-18 0 -34 -2l-6 10l46 69q-60 3 -92.5 28t-32.5 63q0 6 2 18q2 9 8.5 16.5t16.5 7.5
q9 0 13.5 -6.5t2.5 -16.5q-1 -3 -3 -7.5t-3 -9.5q-2 -12 7 -29t31 -29.5t58 -12.5q65 0 104.5 26.5t48.5 72.5q2 12 2 16q0 31 -25 49.5t-76 41.5q-40 18 -64.5 32.5t-42 37.5t-17.5 56q0 66 50 101t117 35q65 0 98.5 -25z" />
    <glyph glyph-name="Scaron" unicode="&#x160;" horiz-adv-x="504" 
d="M274 883l17 16l69 -75q5 -5 10 -5q3 0 11 5l100 75l10 -16l-117 -96h-23zM127 11q-41 21 -63 38.5t-23 17.5q-4 0 -8 -7t-6 -18l-8 -39h-19l36 174h12l-1 -13q0 -40 22.5 -74.5t61.5 -55t85 -20.5q84 0 142.5 43.5t72.5 115.5q3 15 3 28q0 37 -20.5 65t-50 48.5
t-81.5 48.5q-52 29 -82 49.5t-51 49.5t-21 67q0 14 3 29q15 74 77 113t148 39q47 0 79 -14.5t50 -28t20 -13.5q9 0 11 16l8 37h19l-35 -174h-13q1 7 1 21q0 59 -37 95.5t-104 36.5q-84 0 -133.5 -34.5t-61.5 -93.5q-3 -12 -3 -24q0 -34 19.5 -59.5t48.5 -44t78 -44.5
q55 -29 87 -50.5t54.5 -53.5t22.5 -74q0 -9 -4 -33q-11 -54 -46 -96t-85.5 -65.5t-107.5 -23.5q-56 0 -97 21z" />
    <glyph glyph-name="scaron" unicode="&#x161;" horiz-adv-x="386" 
d="M176 641l17 16l69 -75q5 -5 10 -5q3 0 11 5l100 75l10 -16l-117 -96h-23zM58.5 15.5q-35.5 25.5 -35.5 64.5q0 7 2 19q2 9 8.5 16.5t16.5 7.5q9 0 13.5 -6.5t2.5 -16.5q-1 -3 -3 -7.5t-3 -9.5q-2 -12 7 -29t31 -29.5t58 -12.5q65 0 104.5 26.5t48.5 72.5q2 12 2 16
q0 31 -25 49.5t-76 41.5q-40 18 -64.5 32.5t-42 37.5t-17.5 56q0 66 50 101t117 35q65 0 98.5 -25t33.5 -64q0 -13 -2 -20q-2 -9 -8.5 -16.5t-16.5 -7.5q-9 0 -13.5 6.5t-2.5 16.5q1 5 3 9t3 8q2 12 -6.5 29t-30.5 29.5t-58 12.5q-59 0 -97.5 -29.5t-38.5 -78.5
q0 -37 27.5 -58.5t81.5 -45.5q56 -25 84.5 -48t28.5 -64q0 -15 -2 -23q-12 -58 -61 -89.5t-117 -31.5q-65 0 -100.5 25.5z" />
    <glyph glyph-name="uni0162" unicode="&#x162;" horiz-adv-x="566" 
d="M622 700l-31 -154h-12q5 27 5 58q0 72 -45 72h-142l-128 -629q-4 -18 9.5 -25.5t42.5 -7.5h26l-2 -14h-88l-44 -68q7 1 22 1q25 0 41 -11t16 -32q0 -7 -1 -11q-7 -33 -35.5 -49t-70.5 -16q-27 0 -52 6l13 18q20 -4 46 -4q62 0 72 47q7 32 -46 32q-17 0 -35 -2l-5 10
l52 79h-85l2 14h26q58 0 65 33l129 629h-141q-38 0 -59 -39t-34 -91h-12l31 154h470z" />
    <glyph glyph-name="uni0163" unicode="&#x163;" horiz-adv-x="329" 
d="M126 119q-6 -27 -6 -47q0 -31 15 -45.5t45 -14.5q29 0 53 14t34 44h24q-11 -39 -41.5 -58.5t-63.5 -21.5l-38 -58q7 1 22 1q25 0 41 -11.5t16 -33.5q0 -6 -1 -9q-7 -33 -35.5 -49t-70.5 -16q-28 0 -52 6l13 18q20 -4 46 -4q62 0 72 47q6 32 -46 32q-17 0 -35 -2l-6 10
l47 70q-36 4 -52.5 22.5t-16.5 54.5q0 26 5 48l68 333h-85l4 21h85l17 85l25 45h15l-26 -130h136l-4 -21h-137z" />
    <glyph glyph-name="Tcaron" unicode="&#x164;" horiz-adv-x="566" 
d="M315 883l17 16l69 -75q5 -5 10 -5q4 0 11 5l100 75l10 -16l-116 -96h-23zM147 14h26q58 0 65 33l129 629h-141q-38 0 -59 -39t-34 -91h-12l31 154h470l-31 -154h-12q5 27 5 58q0 72 -45 72h-142l-128 -629q-4 -18 9.5 -25.5t42.5 -7.5h26l-2 -14h-200z" />
    <glyph glyph-name="tcaron" unicode="&#x165;" horiz-adv-x="423" 
d="M477 612q0 -3 -2 -17q-14 -75 -91 -130l-6 10q55 44 62 78q2 9 0 14.5t-8 13.5q-5 7 -7 12t-1 14q3 14 11.5 21.5t20.5 7.5q21 0 21 -24zM198 470h136l-4 -21h-137l-67 -330q-6 -27 -6 -47q0 -31 15 -45.5t45 -14.5q29 0 53 14t34 44h24q-12 -40 -44.5 -60t-67.5 -20
q-46 0 -67.5 18.5t-21.5 59.5q0 26 5 48l68 333h-85l4 21h85l17 85l25 45h15z" />
    <glyph glyph-name="Tbar" unicode="&#x166;" horiz-adv-x="566" 
d="M622 700l-31 -154h-12q5 27 5 58q0 72 -45 72h-142l-62 -304h146l-5 -22h-145l-62 -303q-4 -18 9.5 -25.5t42.5 -7.5h26l-2 -14h-200l2 14h26q58 0 65 33l62 303h-144l5 22h144l62 304h-141q-38 0 -59 -39t-34 -91h-12l31 154h470z" />
    <glyph glyph-name="tbar" unicode="&#x167;" horiz-adv-x="329" 
d="M193 449l-33 -162h134l-5 -21h-133l-30 -147q-6 -27 -6 -47q0 -31 15 -45.5t45 -14.5q29 0 53 14t34 44h24q-12 -40 -44.5 -60t-67.5 -20q-46 0 -67.5 18.5t-21.5 59.5q0 26 5 48l30 150h-65l5 21h65l33 162h-85l4 21h85l17 85l25 45h15l-26 -130h136l-4 -21h-137z" />
    <glyph glyph-name="Utilde" unicode="&#x168;" horiz-adv-x="662" 
d="M322 794q13 39 36 58t51 19q14 0 27 -8t31 -23q19 -15 30 -21.5t23 -6.5q41 0 69 66l14 -7q-30 -83 -90 -83q-14 0 -27 8t-30 23q-18 15 -29.5 22t-24.5 7q-40 0 -68 -62zM148.5 21.5q-48.5 31.5 -48.5 107.5q0 31 7 63l94 461q3 17 -10.5 25t-34.5 8h-17l3 14h167
l-3 -14h-16q-22 0 -39 -8t-20 -25l-94 -464q-6 -31 -6 -55q0 -68 44 -94t126 -26q188 0 224 175l94 464q3 17 -10 25t-35 8h-16l3 14h167l-3 -14h-17q-21 0 -38 -8t-20 -25l-94 -461q-23 -111 -89.5 -156.5t-176.5 -45.5q-93 0 -141.5 31.5z" />
    <glyph glyph-name="utilde" unicode="&#x169;" horiz-adv-x="513" 
d="M210 544l-12 8q13 39 36.5 58t50.5 19q14 0 27 -8t31 -23q19 -15 30 -21.5t23 -6.5q22 0 39 17t31 49l13 -7q-30 -83 -90 -83q-14 0 -25.5 7t-30.5 23t-30.5 23t-24.5 7q-39 0 -68 -62zM390 40q-2 -10 -2 -13q0 -16 15 -16q7 0 33 8l-2 -8q-12 -10 -25 -15.5t-24 -5.5
q-13 0 -20.5 7t-7.5 21q0 6 1 10l11 52q-27 -35 -74.5 -62.5t-106.5 -27.5q-62 0 -94 27t-32 75q0 14 3 30l63 305v4q0 8 -9 8q-7 0 -18 -3.5t-19 -7.5l-2 12l69 30h16l-68 -338q-4 -16 -4 -34q0 -42 25.5 -64t73.5 -22q40 0 80 17.5t70 50t42 74.5l56 273v4q0 8 -9 8
q-7 0 -18 -3.5t-19 -7.5l-2 12l69 30h16z" />
    <glyph glyph-name="Umacron" unicode="&#x16a;" horiz-adv-x="662" 
d="M325 809h263l-5 -22h-262zM148.5 21.5q-48.5 31.5 -48.5 107.5q0 31 7 63l94 461q3 17 -10.5 25t-34.5 8h-17l3 14h167l-3 -14h-16q-22 0 -39 -8t-20 -25l-94 -464q-6 -31 -6 -55q0 -68 44 -94t126 -26q188 0 224 175l94 464q3 17 -10 25t-35 8h-16l3 14h167l-3 -14h-17
q-21 0 -38 -8t-20 -25l-94 -461q-23 -111 -89.5 -156.5t-176.5 -45.5q-93 0 -141.5 31.5z" />
    <glyph glyph-name="umacron" unicode="&#x16b;" horiz-adv-x="513" 
d="M459 545h-262l5 22h262zM388 27q0 -16 15 -16q7 0 33 8l-2 -8q-12 -10 -25 -15.5t-24 -5.5q-13 0 -20.5 7t-7.5 21q0 6 1 10l11 52q-27 -35 -74.5 -62.5t-106.5 -27.5q-62 0 -94 27t-32 75q0 14 3 30l63 305v4q0 8 -9 8q-7 0 -18 -3.5t-19 -7.5l-2 12l69 30h16l-68 -338
q-4 -16 -4 -34q0 -42 25.5 -64t73.5 -22q40 0 80 17.5t70 50t42 74.5l56 273v4q0 8 -9 8q-7 0 -18 -3.5t-19 -7.5l-2 12l69 30h16l-87 -430q-2 -10 -2 -13z" />
    <glyph glyph-name="Ubreve" unicode="&#x16c;" horiz-adv-x="662" 
d="M374.5 796.5q-27.5 22.5 -27.5 67.5q0 7 2 23h24q-5 -53 19.5 -70.5t62.5 -17.5t69.5 17.5t48.5 70.5h24q-16 -57 -55 -85t-92 -28q-48 0 -75.5 22.5zM148.5 21.5q-48.5 31.5 -48.5 107.5q0 31 7 63l94 461q3 17 -10.5 25t-34.5 8h-17l3 14h167l-3 -14h-16q-22 0 -39 -8
t-20 -25l-94 -464q-6 -31 -6 -55q0 -68 44 -94t126 -26q188 0 224 175l94 464q3 17 -10 25t-35 8h-16l3 14h167l-3 -14h-17q-21 0 -38 -8t-20 -25l-94 -461q-23 -111 -89.5 -156.5t-176.5 -45.5q-93 0 -141.5 31.5z" />
    <glyph glyph-name="ubreve" unicode="&#x16d;" horiz-adv-x="513" 
d="M251.5 556.5q-27.5 22.5 -27.5 66.5q0 6 2 24h24q-1 -6 -1 -16q0 -72 82 -72q38 0 69.5 17.5t48.5 70.5h24q-16 -57 -54.5 -85t-92.5 -28q-47 0 -74.5 22.5zM388 27q0 -16 15 -16q7 0 33 8l-2 -8q-12 -10 -25 -15.5t-24 -5.5q-13 0 -20.5 7t-7.5 21q0 6 1 10l11 52
q-27 -35 -74.5 -62.5t-106.5 -27.5q-62 0 -94 27t-32 75q0 14 3 30l63 305v4q0 8 -9 8q-7 0 -18 -3.5t-19 -7.5l-2 12l69 30h16l-68 -338q-4 -16 -4 -34q0 -42 25.5 -64t73.5 -22q40 0 80 17.5t70 50t42 74.5l56 273v4q0 8 -9 8q-7 0 -18 -3.5t-19 -7.5l-2 12l69 30h16
l-87 -430q-2 -10 -2 -13z" />
    <glyph glyph-name="Uring" unicode="&#x16e;" horiz-adv-x="662" 
d="M403.5 779.5q-16.5 15.5 -16.5 40.5q0 6 2 18q6 33 31 53.5t57 20.5q28 0 44.5 -16t16.5 -43q0 -10 -1 -15q-7 -33 -32.5 -53.5t-57.5 -20.5q-27 0 -43.5 15.5zM491 798q17 15 23 40q1 5 1 13q0 20 -11 31t-31 11q-26 0 -44.5 -20t-18.5 -51q0 -18 11 -28.5t30 -10.5
q23 0 40 15zM148.5 21.5q-48.5 31.5 -48.5 107.5q0 31 7 63l94 461q3 17 -10.5 25t-34.5 8h-17l3 14h167l-3 -14h-16q-22 0 -39 -8t-20 -25l-94 -464q-6 -31 -6 -55q0 -68 44 -94t126 -26q188 0 224 175l94 464q3 17 -10 25t-35 8h-16l3 14h167l-3 -14h-17q-21 0 -38 -8
t-20 -25l-94 -461q-23 -111 -89.5 -156.5t-176.5 -45.5q-93 0 -141.5 31.5z" />
    <glyph glyph-name="uring" unicode="&#x16f;" horiz-adv-x="513" 
d="M279.5 537.5q-16.5 15.5 -16.5 40.5q0 40 26.5 66t63.5 26q28 0 44.5 -16t16.5 -42q0 -11 -1 -16q-7 -33 -32 -53.5t-57 -20.5q-28 0 -44.5 15.5zM286 581q0 -18 11.5 -29t29.5 -11q23 0 40 15t23 40q1 5 1 13q0 20 -11 31t-31 11q-22 0 -39 -15t-22 -40q-2 -10 -2 -15z
M388 27q0 -16 15 -16q7 0 33 8l-2 -8q-12 -10 -25 -15.5t-24 -5.5q-13 0 -20.5 7t-7.5 21q0 6 1 10l11 52q-27 -35 -74.5 -62.5t-106.5 -27.5q-62 0 -94 27t-32 75q0 14 3 30l63 305v4q0 8 -9 8q-7 0 -18 -3.5t-19 -7.5l-2 12l69 30h16l-68 -338q-4 -16 -4 -34
q0 -42 25.5 -64t73.5 -22q40 0 80 17.5t70 50t42 74.5l56 273v4q0 8 -9 8q-7 0 -18 -3.5t-19 -7.5l-2 12l69 30h16l-87 -430q-2 -10 -2 -13z" />
    <glyph glyph-name="Uhungarumlaut" unicode="&#x170;" horiz-adv-x="662" 
d="M337 799l121 87q6 5 13 8.5t14 3.5q6 0 8.5 -4t1.5 -10q-2 -14 -19 -23l-134 -72zM451 799l121 87q6 5 13 8.5t14 3.5q6 0 9 -4t2 -10q-2 -14 -20 -23l-134 -72zM148.5 21.5q-48.5 31.5 -48.5 107.5q0 31 7 63l94 461q3 17 -10.5 25t-34.5 8h-17l3 14h167l-3 -14h-16
q-22 0 -39 -8t-20 -25l-94 -464q-6 -31 -6 -55q0 -68 44 -94t126 -26q188 0 224 175l94 464q3 17 -10 25t-35 8h-16l3 14h167l-3 -14h-17q-21 0 -38 -8t-20 -25l-94 -461q-23 -111 -89.5 -156.5t-176.5 -45.5q-93 0 -141.5 31.5z" />
    <glyph glyph-name="uhungarumlaut" unicode="&#x171;" horiz-adv-x="513" 
d="M207 547l-4 10l121 87q16 12 26 12q6 0 9 -4t2 -10q-2 -14 -19 -23zM317 557l121 87q16 12 27 12q5 0 8 -4t2 -10q-2 -14 -19 -23l-134 -72zM388 27q0 -16 15 -16q7 0 33 8l-2 -8q-12 -10 -25 -15.5t-24 -5.5q-13 0 -20.5 7t-7.5 21q0 6 1 10l11 52q-27 -35 -74.5 -62.5
t-106.5 -27.5q-62 0 -94 27t-32 75q0 14 3 30l63 305v4q0 8 -9 8q-7 0 -18 -3.5t-19 -7.5l-2 12l69 30h16l-68 -338q-4 -16 -4 -34q0 -42 25.5 -64t73.5 -22q40 0 80 17.5t70 50t42 74.5l56 273v4q0 8 -9 8q-7 0 -18 -3.5t-19 -7.5l-2 12l69 30h16l-87 -430q-2 -10 -2 -13z
" />
    <glyph glyph-name="Uogonek" unicode="&#x172;" horiz-adv-x="662" 
d="M728 700l-3 -14h-17q-21 0 -38 -8t-20 -25l-94 -461q-17 -84 -59.5 -130t-109.5 -62q-31 -15 -52.5 -40t-27.5 -53q-1 -5 -1 -12q0 -20 13.5 -29.5t34.5 -9.5q18 0 42 7l-3 -16q-31 -9 -55 -9q-31 0 -45 15t-14 37q0 6 2 16q12 55 68 87q-28 -3 -59 -3q-93 0 -141.5 31.5
t-48.5 107.5q0 31 7 63l94 461q3 17 -10.5 25t-34.5 8h-17l3 14h167l-3 -14h-16q-22 0 -39 -8t-20 -25l-94 -464q-6 -31 -6 -55q0 -68 44 -94t126 -26q188 0 224 175l94 464q3 17 -10 25t-35 8h-16l3 14h167z" />
    <glyph glyph-name="uogonek" unicode="&#x173;" horiz-adv-x="513" 
d="M388 27q0 -16 15 -16q7 0 33 8l-2 -8q-18 -15 -34 -19q-32 -18 -53 -45.5t-21 -55.5q0 -20 13.5 -29.5t34.5 -9.5q18 0 43 7l-4 -16q-31 -9 -55 -9q-31 0 -45 15t-14 37q0 6 2 16q11 56 72 90q-16 5 -16 26q0 6 1 10l11 52q-27 -35 -74.5 -62.5t-106.5 -27.5
q-62 0 -94 27t-32 75q0 14 3 30l63 305v4q0 8 -9 8q-7 0 -18 -3.5t-19 -7.5l-2 12l69 30h16l-68 -338q-4 -16 -4 -34q0 -42 25.5 -64t73.5 -22q40 0 80 17.5t70 50t42 74.5l56 273v4q0 8 -9 8q-7 0 -18 -3.5t-19 -7.5l-2 12l69 30h16l-87 -430q-2 -10 -2 -13z" />
    <glyph glyph-name="Wcircumflex" unicode="&#x174;" horiz-adv-x="873" 
d="M487 787l-11 16l117 96h23l77 -96l-16 -16l-69 75q-7 5 -10 5q-6 0 -11 -5zM967 700l-3 -14h-14q-20 0 -43 -10t-29 -24l-300 -657h-21l-53 536l-274 -536h-21l-27 657q-1 14 -19.5 24t-38.5 10h-14l3 14h180l-3 -14h-14q-24 0 -44 -10.5t-20 -22.5l21 -594l267 516
l-8 77q-1 14 -19.5 24t-38.5 10h-14l3 14h180l-3 -14h-13q-19 0 -42.5 -9t-22.5 -19l59 -599l270 599q5 10 -15 19t-38 9h-14l3 14h180z" />
    <glyph glyph-name="wcircumflex" unicode="&#x175;" horiz-adv-x="664" 
d="M329 545l-10 16l117 96h23l77 -96l-17 -16l-69 75q-7 5 -9 5q-5 0 -12 -5zM658.5 462.5q7.5 -17.5 7.5 -48.5q0 -34 -10 -86q-13 -65 -61 -145t-110.5 -136.5t-119.5 -56.5q-69 0 -69 74q0 16 3 35q-30 -48 -68.5 -78.5t-79.5 -30.5q-49 0 -70.5 24t-21.5 61q0 15 3 30
l66 322v4q0 8 -9 8q-7 0 -18 -3.5t-19 -7.5l-2 12l69 30h16l-75 -370q-2 -14 -2 -22q0 -30 17 -48.5t53 -18.5q38 0 77.5 38t72.5 100l65 321h29l-70 -344q-7 -34 -7 -60q0 -29 11.5 -42t38.5 -13q36 0 91.5 49.5t103 124t61.5 144.5q9 45 9 72q0 25 -6.5 41t-20.5 28
q10 10 23 10q15 0 22.5 -17.5z" />
    <glyph glyph-name="Ycircumflex" unicode="&#x176;" horiz-adv-x="617" 
d="M329 831l117 96h23l77 -96l-16 -16l-69 75q-7 5 -10 5q-4 0 -11 -5l-100 -75zM166 14h26q58 0 65 33l52 250l-127 355q-4 13 -22 23.5t-36 10.5h-14l3 14h180l-3 -14h-14q-17 0 -39 -8.5t-24 -18.5q-2 -2 0 -4l116 -335l265 335q9 11 -12.5 21t-41.5 10h-11l3 14h179
l-3 -14h-13q-18 0 -39.5 -10.5t-32.5 -23.5l-283 -355l-52 -250q-4 -18 9.5 -25.5t42.5 -7.5h26l-2 -14h-200z" />
    <glyph glyph-name="ycircumflex" unicode="&#x177;" horiz-adv-x="477" 
d="M229 545l-10 16l117 96h23l77 -96l-16 -16l-70 75q-5 5 -9 5q-5 0 -12 -5zM455 458.5q15 -21.5 15 -54.5q0 -13 -3 -27q-9 -37 -23 -57l-316 -440q-37 -50 -69.5 -81.5t-62.5 -31.5q-12 0 -22.5 6t-8.5 19q3 10 9.5 17.5t16.5 7.5q7 0 15 -7t13 -7q13 0 39 25.5t49 58.5
l93 129l-77 413q-2 10 -17 10q-13 0 -38 -11l-2 12l65 30h16l74 -424l197 275q15 24 24 56q2 16 2 21q0 26 -12 41.5t-34 29.5q9 11 23 11q19 0 34 -21.5z" />
    <glyph glyph-name="Ydieresis" unicode="&#x178;" horiz-adv-x="617" 
d="M322.5 821q-5.5 8 -3.5 22q3 14 12 22t21 8q11 0 17 -6t6 -16q0 -5 -1 -8q-2 -14 -12 -22t-22 -8t-17.5 8zM512 819q-6 6 -6 16q0 17 10 27.5t24 10.5q13 0 19 -8t4 -22q-3 -14 -13 -22t-22 -8q-10 0 -16 6zM166 14h26q58 0 65 33l52 250l-127 355q-4 13 -22 23.5
t-36 10.5h-14l3 14h180l-3 -14h-14q-17 0 -39 -8.5t-24 -18.5q-2 -2 0 -4l116 -335l265 335q9 11 -12.5 21t-41.5 10h-11l3 14h179l-3 -14h-13q-18 0 -39.5 -10.5t-32.5 -23.5l-283 -355l-52 -250q-4 -18 9.5 -25.5t42.5 -7.5h26l-2 -14h-200z" />
    <glyph glyph-name="Zacute" unicode="&#x179;" horiz-adv-x="506" 
d="M337 798l121 87q6 5 13 8.5t14 3.5q6 0 8.5 -4t1.5 -10q-2 -15 -20 -23l-133 -72zM-11 14l545 662h-288q-62 0 -92 -130h-13l31 154h402l-3 -14l-541 -662h315q36 0 63 46t39 94h13l-46 -164h-426z" />
    <glyph glyph-name="zacute" unicode="&#x17a;" horiz-adv-x="382" 
d="M195 556l121 87q16 12 27 12q5 0 8 -4t2 -10q-2 -15 -20 -23l-133 -72zM-10.5 -0.5q-3.5 9.5 -1.5 23.5q6 21 17 32l382 394h-232q-16 0 -30.5 -31t-21.5 -56h-12l22 108h306l-5 -24l-367 -377q31 -3 56 -11t57 -21q33 -13 54 -19t46 -6q24 0 38 19t30 62l13 -3
q-9 -41 -20.5 -62.5t-27.5 -29.5t-42 -8q-21 0 -38 5t-35.5 13t-27.5 12q-32 13 -64.5 22t-42.5 9q-9 0 -11 -13q-1 -5 0 -14.5t-1 -14.5q-2 -11 -10.5 -15t-17.5 -4q-10 0 -13.5 9.5z" />
    <glyph glyph-name="Zdotaccent" unicode="&#x17b;" horiz-adv-x="506" 
d="M352 765q-6 6 -6 16q0 5 1 8q2 14 12 22t22 8q10 0 16 -6t6 -16q0 -17 -10 -27.5t-24 -10.5q-11 0 -17 6zM-11 14l545 662h-288q-62 0 -92 -130h-13l31 154h402l-3 -14l-541 -662h315q36 0 63 46t39 94h13l-46 -164h-426z" />
    <glyph glyph-name="zdotaccent" unicode="&#x17c;" horiz-adv-x="382" 
d="M264 553q-6 6 -6 16q0 17 10.5 27.5t25.5 10.5q10 0 16 -6t6 -16q0 -17 -10 -27.5t-25 -10.5q-11 0 -17 6zM-10.5 -0.5q-3.5 9.5 -1.5 23.5q6 21 17 32l382 394h-232q-16 0 -30.5 -31t-21.5 -56h-12l22 108h306l-5 -24l-367 -377q31 -3 56 -11t57 -21q33 -13 54 -19
t46 -6q24 0 38 19t30 62l13 -3q-9 -41 -20.5 -62.5t-27.5 -29.5t-42 -8q-21 0 -38 5t-35.5 13t-27.5 12q-32 13 -64.5 22t-42.5 9q-9 0 -11 -13q-1 -5 0 -14.5t-1 -14.5q-2 -11 -10.5 -15t-17.5 -4q-10 0 -13.5 9.5z" />
    <glyph glyph-name="Zcaron" unicode="&#x17d;" horiz-adv-x="506" 
d="M285 883l17 16l70 -75q3 -5 9 -5q4 0 12 5l99 75l10 -16l-116 -96h-23zM-11 14l545 662h-288q-62 0 -92 -130h-13l31 154h402l-3 -14l-541 -662h315q36 0 63 46t39 94h13l-46 -164h-426z" />
    <glyph glyph-name="zcaron" unicode="&#x17e;" horiz-adv-x="382" 
d="M183 641l18 16l69 -75q5 -5 9 -5t12 5l100 75l9 -16l-116 -96h-23zM-10.5 -0.5q-3.5 9.5 -1.5 23.5q6 21 17 32l382 394h-232q-16 0 -30.5 -31t-21.5 -56h-12l22 108h306l-5 -24l-367 -377q31 -3 56 -11t57 -21q33 -13 54 -19t46 -6q24 0 38 19t30 62l13 -3
q-9 -41 -20.5 -62.5t-27.5 -29.5t-42 -8q-21 0 -38 5t-35.5 13t-27.5 12q-32 13 -64.5 22t-42.5 9q-9 0 -11 -13q-1 -5 0 -14.5t-1 -14.5q-2 -11 -10.5 -15t-17.5 -4q-10 0 -13.5 9.5z" />
    <glyph glyph-name="uni018F" unicode="&#x18f;" horiz-adv-x="624" 
d="M568 639.5q63 -70.5 63 -191.5q0 -46 -11 -104q-35 -171 -133.5 -262.5t-235.5 -91.5q-102 0 -152 60.5t-50 160.5q0 45 11 100l4 20h523l1 4q12 57 12 108q0 111 -56 176.5t-171 65.5q-66 0 -131 -37t-99 -113h-26q28 77 103.5 126t170.5 49q114 0 177 -70.5z
M401.5 52.5q67.5 40.5 113 107.5t66.5 147h-494q-8 -46 -8 -87q0 -91 41 -149.5t131 -58.5q83 0 150.5 40.5z" />
    <glyph glyph-name="florin" unicode="&#x192;" horiz-adv-x="454" 
d="M466.5 704.5q26.5 -18.5 26.5 -52.5q0 -6 -2 -18q-3 -15 -12 -22.5t-18 -7.5q-24 0 -19 25q1 8 9.5 17t9.5 14q4 18 -18 29t-47 11q-47 0 -74.5 -27t-39.5 -83l-24 -120h138l-4 -21h-139l-105 -516q-12 -55 -42.5 -89.5t-82.5 -34.5q-35 0 -62 9l3 25q34 -10 60 -10
q76 0 96 103l104 513h-85l4 21h85l25 121q14 64 51 98t95 34q41 0 67.5 -18.5z" />
    <glyph glyph-name="Ohorn" unicode="&#x1a0;" horiz-adv-x="676" 
d="M740 756.5q7 -6.5 7 -21.5q0 -3 -2 -15q-7 -33 -30.5 -64.5t-60.5 -54.5q28 -55 28 -136q0 -52 -12 -115q-36 -173 -134.5 -266.5t-238.5 -93.5q-115 0 -177 62.5t-62 181.5q0 55 13 116q35 173 133.5 266.5t239.5 93.5q144 0 203 -98q60 41 60 75q0 7 -2.5 12t-5.5 9
q-8 10 -8 19q0 14 9 25t23 11q10 0 17 -6.5zM653 462q0 105 -53.5 164.5t-160.5 59.5q-134 0 -220.5 -91t-117.5 -245q-13 -65 -13 -112q0 -105 53 -164.5t160 -59.5q135 0 221.5 91t117.5 245q13 65 13 112z" />
    <glyph glyph-name="ohorn" unicode="&#x1a1;" horiz-adv-x="485" 
d="M545 522.5q7 -6.5 7 -21.5q0 -3 -2 -15q-7 -33 -29.5 -63.5t-57.5 -53.5q8 -30 8 -63q0 -31 -8 -71q-23 -114 -94 -179.5t-167 -65.5q-80 0 -125 46t-45 129q0 35 7 70q24 114 95.5 179.5t167.5 65.5q59 0 99 -25t57 -72q22 15 38 33.5t16 36.5q0 7 -2.5 12t-5.5 9
q-8 10 -8 19q0 14 9 25t23 11q10 0 17 -6.5zM444 304q0 73 -38.5 113.5t-107.5 40.5q-86 0 -147.5 -59t-83.5 -164q-7 -35 -7 -68q0 -74 38 -114.5t108 -40.5q85 0 147 59.5t83 163.5q8 40 8 69z" />
    <glyph glyph-name="Uhorn" unicode="&#x1af;" horiz-adv-x="662" 
d="M148.5 21.5q-48.5 31.5 -48.5 107.5q0 31 7 63l94 461q3 17 -10.5 25t-34.5 8h-17l3 14h167l-3 -14h-16q-22 0 -39 -8t-20 -25l-94 -464q-6 -31 -6 -55q0 -68 44 -94t126 -26q188 0 224 175l94 464q3 17 -10 25t-35 8h-16l3 14h147q29 0 47.5 15.5t24.5 42.5q2 10 -7 19
q-8 10 -8 20q0 5 1 8q2 13 11 20.5t21 7.5q22 0 22 -26q0 -4 -2 -16q-10 -44 -38.5 -74.5t-68.5 -30.5q-23 0 -40.5 -8t-20.5 -25l-94 -461q-23 -111 -89.5 -156.5t-176.5 -45.5q-93 0 -141.5 31.5z" />
    <glyph glyph-name="uhorn" unicode="&#x1b0;" horiz-adv-x="513" 
d="M94 17q-32 27 -32 75q0 14 3 30l63 305v4q0 8 -9 8q-7 0 -18 -3.5t-19 -7.5l-2 12l69 30h16l-68 -338q-4 -16 -4 -34q0 -42 25.5 -64t73.5 -22q43 0 84.5 19.5t71.5 54.5t39 81l53 260v4q0 8 -9 8q-7 0 -18 -3.5t-19 -7.5l-2 12l69 30h16l-14 -73q30 16 58 40.5t33 49.5
q2 9 -6 19q-3 4 -5.5 9t-2.5 12q0 16 9.5 26t22.5 10q22 0 22 -23l-2 -16q-9 -42 -45 -79t-87 -62l-70 -343q-2 -10 -2 -13q0 -16 15 -16q7 0 33 8l-2 -8q-12 -10 -25 -15.5t-24 -5.5q-13 0 -20.5 7t-7.5 21q0 6 1 10l12 52q-28 -35 -75.5 -62.5t-106.5 -27.5q-62 0 -94 27z
" />
    <glyph glyph-name="uni01CD" unicode="&#x1cd;" horiz-adv-x="650" 
d="M434 787l-78 96l17 16l70 -75q3 -5 9 -5q4 0 12 5l100 75l9 -16l-116 -96h-23zM608 14l-2 -14h-180l2 14h12q19 0 41 9t25 22q0 3 -0.5 8t-1.5 8l-26 171h-290l-96 -171q-1 -1 -4.5 -7.5t-3.5 -8.5q-2 -13 15 -22t36 -9h14l-2 -14h-180l2 14h14q21 2 43 11.5t30 22.5
l358 642l26 17l97 -659q2 -14 20 -24t37 -10h14zM475 256l-58 385l-216 -385h274z" />
    <glyph glyph-name="uni01CE" unicode="&#x1ce;" horiz-adv-x="483" 
d="M229 646l18 16l69 -72q7 -5 9 -5q5 0 12 5l100 72l9 -16l-117 -101h-23zM32 119q0 39 11 97q31 154 107 209t150 55q43 0 79.5 -14t47.5 -41l9 45h30l-88 -430q-2 -10 -2 -14q0 -15 15 -15q8 0 32 8l-2 -8q-24 -21 -49 -21q-12 0 -19.5 7t-7.5 20q0 7 1 11l18 86
q-64 -69 -127 -96.5t-106 -27.5q-99 0 -99 129zM222 35.5q44 23.5 86 56.5t63 58l45 218q-3 45 -37 67.5t-89 22.5q-34 0 -76 -18.5t-82 -72t-60 -151.5q-10 -49 -10 -86q0 -63 24.5 -90.5t61.5 -27.5q30 0 74 23.5z" />
    <glyph glyph-name="uni01CF" unicode="&#x1cf;" horiz-adv-x="263" 
d="M163 883l17 16l70 -75q3 -5 9 -5q4 0 12 5l100 75l9 -16l-116 -96h-23zM-5 14h26q60 0 65 33l124 606q4 18 -9.5 25.5t-42.5 7.5h-26l3 14h200l-3 -14h-26q-58 0 -65 -33l-124 -606q-7 -33 52 -33h26l-2 -14h-200z" />
    <glyph glyph-name="uni01D0" unicode="&#x1d0;" horiz-adv-x="236" 
d="M103 646l17 16l69 -72q7 -5 10 -5q4 0 11 5l100 72l10 -16l-117 -101h-23zM76.5 -3q-7.5 7 -7.5 21q0 6 1 10l83 402v3q0 9 -10 9q-7 0 -18 -3.5t-18 -7.5l-2 12l69 30h16l-88 -433q-2 -10 -2 -13q0 -16 15 -16q7 0 33 8l-2 -8q-12 -10 -25 -15.5t-24 -5.5q-13 0 -20.5 7
z" />
    <glyph glyph-name="uni01D1" unicode="&#x1d1;" horiz-adv-x="676" 
d="M370 883l17 16l69 -75q5 -5 10 -5q3 0 11 5l100 75l10 -16l-117 -96h-23zM120 52.5q-62 62.5 -62 181.5q0 55 13 116q35 173 133.5 266.5t239.5 93.5q114 0 176 -63t62 -182q0 -52 -12 -115q-36 -173 -134.5 -266.5t-238.5 -93.5q-115 0 -177 62.5zM522.5 105
q86.5 91 117.5 245q13 65 13 112q0 105 -53.5 164.5t-160.5 59.5q-134 0 -220.5 -91t-117.5 -245q-13 -65 -13 -112q0 -105 53 -164.5t160 -59.5q135 0 221.5 91z" />
    <glyph glyph-name="uni01D2" unicode="&#x1d2;" horiz-adv-x="485" 
d="M226 646l17 16l69 -72q7 -5 10 -5q4 0 11 5l100 72l10 -16l-118 -101h-23zM77 36q-45 46 -45 129q0 35 7 70q24 114 95.5 179.5t167.5 65.5q80 0 124.5 -45.5t44.5 -127.5q0 -30 -8 -72q-23 -114 -94 -179.5t-167 -65.5q-80 0 -125 46zM353 71.5q62 59.5 83 163.5
q8 40 8 69q0 73 -38.5 113.5t-107.5 40.5q-86 0 -147.5 -59t-83.5 -164q-7 -35 -7 -68q0 -74 38 -114.5t108 -40.5q85 0 147 59.5z" />
    <glyph glyph-name="uni01D3" unicode="&#x1d3;" horiz-adv-x="662" 
d="M363 883l17 16l69 -75q5 -5 10 -5q4 0 11 5l100 75l10 -16l-116 -96h-23zM148.5 21.5q-48.5 31.5 -48.5 107.5q0 31 7 63l94 461q3 17 -10.5 25t-34.5 8h-17l3 14h167l-3 -14h-16q-22 0 -39 -8t-20 -25l-94 -464q-6 -31 -6 -55q0 -68 44 -94t126 -26q188 0 224 175
l94 464q3 17 -10 25t-35 8h-16l3 14h167l-3 -14h-17q-21 0 -38 -8t-20 -25l-94 -461q-23 -111 -89.5 -156.5t-176.5 -45.5q-93 0 -141.5 31.5z" />
    <glyph glyph-name="uni01D4" unicode="&#x1d4;" horiz-adv-x="513" 
d="M317 545l-77 101l17 16l69 -72q7 -5 10 -5q5 0 12 5l99 72l10 -16l-117 -101h-23zM388 27q0 -16 15 -16q7 0 33 8l-2 -8q-12 -10 -25 -15.5t-24 -5.5q-13 0 -20.5 7t-7.5 21q0 6 1 10l11 52q-27 -35 -74.5 -62.5t-106.5 -27.5q-62 0 -94 27t-32 75q0 14 3 30l63 305v4
q0 8 -9 8q-7 0 -18 -3.5t-19 -7.5l-2 12l69 30h16l-68 -338q-4 -16 -4 -34q0 -42 25.5 -64t73.5 -22q40 0 80 17.5t70 50t42 74.5l56 273v4q0 8 -9 8q-7 0 -18 -3.5t-19 -7.5l-2 12l69 30h16l-87 -430q-2 -10 -2 -13z" />
    <glyph glyph-name="uni01D5" unicode="&#x1d5;" horiz-adv-x="662" 
d="M350 935h262l-4 -22h-262zM341.5 791q-6.5 6 -6.5 16q0 17 10.5 27.5t24.5 10.5q12 0 18.5 -8t4.5 -22q-3 -14 -13 -22t-22 -8q-10 0 -16.5 6zM529.5 791q-6.5 6 -6.5 16q0 17 10.5 27.5t24.5 10.5q11 0 17.5 -6t6.5 -17q0 -17 -10.5 -27t-25.5 -10q-10 0 -16.5 6z
M148.5 21.5q-48.5 31.5 -48.5 107.5q0 31 7 63l94 461q3 17 -10.5 25t-34.5 8h-17l3 14h167l-3 -14h-16q-22 0 -39 -8t-20 -25l-94 -464q-6 -31 -6 -55q0 -68 44 -94t126 -26q188 0 224 175l94 464q3 17 -10 25t-35 8h-16l3 14h167l-3 -14h-17q-21 0 -38 -8t-20 -25
l-94 -461q-23 -111 -89.5 -156.5t-176.5 -45.5q-93 0 -141.5 31.5z" />
    <glyph glyph-name="uni01D6" unicode="&#x1d6;" horiz-adv-x="513" 
d="M493 692l-4 -22h-262l4 22h262zM217.5 550q-6.5 6 -6.5 16q0 17 10.5 27.5t24.5 10.5q11 0 17.5 -6t6.5 -17q0 -17 -10.5 -27t-25.5 -10q-10 0 -16.5 6zM447.5 554q-10.5 -10 -25.5 -10q-10 0 -16.5 6t-6.5 16q0 17 10.5 27.5t24.5 10.5q11 0 17.5 -6t6.5 -17
q0 -17 -10.5 -27zM390 40q-2 -10 -2 -13q0 -16 15 -16q7 0 33 8l-2 -8q-12 -10 -25 -15.5t-24 -5.5q-13 0 -20.5 7t-7.5 21q0 6 1 10l11 52q-27 -35 -74.5 -62.5t-106.5 -27.5q-62 0 -94 27t-32 75q0 14 3 30l63 305v4q0 8 -9 8q-7 0 -18 -3.5t-19 -7.5l-2 12l69 30h16
l-68 -338q-4 -16 -4 -34q0 -42 25.5 -64t73.5 -22q40 0 80 17.5t70 50t42 74.5l56 273v4q0 8 -9 8q-7 0 -18 -3.5t-19 -7.5l-2 12l69 30h16z" />
    <glyph glyph-name="uni01D7" unicode="&#x1d7;" horiz-adv-x="662" 
d="M450 892l121 87q6 5 13 8.5t14 3.5q6 0 9 -4t2 -10q-2 -14 -20 -23l-134 -72zM341.5 791q-6.5 6 -6.5 16q0 17 10.5 27.5t24.5 10.5q12 0 18.5 -8t4.5 -22q-3 -14 -13 -22t-22 -8q-10 0 -16.5 6zM529.5 791q-6.5 6 -6.5 16q0 17 10.5 27.5t24.5 10.5q11 0 17.5 -6
t6.5 -17q0 -17 -10.5 -27t-25.5 -10q-10 0 -16.5 6zM148.5 21.5q-48.5 31.5 -48.5 107.5q0 31 7 63l94 461q3 17 -10.5 25t-34.5 8h-17l3 14h167l-3 -14h-16q-22 0 -39 -8t-20 -25l-94 -464q-6 -31 -6 -55q0 -68 44 -94t126 -26q188 0 224 175l94 464q3 17 -10 25t-35 8h-16
l3 14h167l-3 -14h-17q-21 0 -38 -8t-20 -25l-94 -461q-23 -111 -89.5 -156.5t-176.5 -45.5q-93 0 -141.5 31.5z" />
    <glyph glyph-name="uni01D8" unicode="&#x1d8;" horiz-adv-x="513" 
d="M483 746q3 -4 2 -10q-2 -14 -19 -23l-135 -72l-5 10l121 87q18 12 27 12q6 0 9 -4zM217.5 550q-6.5 6 -6.5 16q0 17 10.5 27.5t24.5 10.5q11 0 17.5 -6t6.5 -17q0 -17 -10.5 -27t-25.5 -10q-10 0 -16.5 6zM447.5 554q-10.5 -10 -25.5 -10q-10 0 -16.5 6t-6.5 16
q0 17 10.5 27.5t24.5 10.5q11 0 17.5 -6t6.5 -17q0 -17 -10.5 -27zM390 40q-2 -10 -2 -13q0 -16 15 -16q7 0 33 8l-2 -8q-12 -10 -25 -15.5t-24 -5.5q-13 0 -20.5 7t-7.5 21q0 6 1 10l11 52q-27 -35 -74.5 -62.5t-106.5 -27.5q-62 0 -94 27t-32 75q0 14 3 30l63 305v4
q0 8 -9 8q-7 0 -18 -3.5t-19 -7.5l-2 12l69 30h16l-68 -338q-4 -16 -4 -34q0 -42 25.5 -64t73.5 -22q40 0 80 17.5t70 50t42 74.5l56 273v4q0 8 -9 8q-7 0 -18 -3.5t-19 -7.5l-2 12l69 30h16z" />
    <glyph glyph-name="uni01D9" unicode="&#x1d9;" horiz-adv-x="662" 
d="M382 975l16 16l70 -75q5 -5 9 -5q5 0 12 5l99 75l11 -16l-116 -96h-23zM341.5 791q-6.5 6 -6.5 16q0 17 10.5 27.5t24.5 10.5q12 0 18.5 -8t4.5 -22q-3 -14 -13 -22t-22 -8q-10 0 -16.5 6zM529.5 791q-6.5 6 -6.5 16q0 17 10.5 27.5t24.5 10.5q11 0 17.5 -6t6.5 -17
q0 -17 -10.5 -27t-25.5 -10q-10 0 -16.5 6zM148.5 21.5q-48.5 31.5 -48.5 107.5q0 31 7 63l94 461q3 17 -10.5 25t-34.5 8h-17l3 14h167l-3 -14h-16q-22 0 -39 -8t-20 -25l-94 -464q-6 -31 -6 -55q0 -68 44 -94t126 -26q188 0 224 175l94 464q3 17 -10 25t-35 8h-16l3 14
h167l-3 -14h-17q-21 0 -38 -8t-20 -25l-94 -461q-23 -111 -89.5 -156.5t-176.5 -45.5q-93 0 -141.5 31.5z" />
    <glyph glyph-name="uni01DA" unicode="&#x1da;" horiz-adv-x="513" 
d="M336 638l-78 96l17 16l69 -75q7 -5 9 -5q5 0 12 5l100 75l10 -16l-116 -96h-23zM217.5 550q-6.5 6 -6.5 16q0 17 10.5 27.5t24.5 10.5q11 0 17.5 -6t6.5 -17q0 -17 -10.5 -27t-25.5 -10q-10 0 -16.5 6zM409.5 593.5q10.5 10.5 24.5 10.5q11 0 17.5 -6t6.5 -17
q0 -17 -10.5 -27t-25.5 -10q-10 0 -16.5 6t-6.5 16q0 17 10.5 27.5zM388 27q0 -16 15 -16q7 0 33 8l-2 -8q-12 -10 -25 -15.5t-24 -5.5q-13 0 -20.5 7t-7.5 21q0 6 1 10l11 52q-27 -35 -74.5 -62.5t-106.5 -27.5q-62 0 -94 27t-32 75q0 14 3 30l63 305v4q0 8 -9 8
q-7 0 -18 -3.5t-19 -7.5l-2 12l69 30h16l-68 -338q-4 -16 -4 -34q0 -42 25.5 -64t73.5 -22q40 0 80 17.5t70 50t42 74.5l56 273v4q0 8 -9 8q-7 0 -18 -3.5t-19 -7.5l-2 12l69 30h16l-87 -430q-2 -10 -2 -13z" />
    <glyph glyph-name="uni01DB" unicode="&#x1db;" horiz-adv-x="662" 
d="M385 954q-14 8 -12 23q1 6 6 10t11 4q9 0 23 -12l84 -87l-8 -10zM341.5 791q-6.5 6 -6.5 16q0 17 10.5 27.5t24.5 10.5q12 0 18.5 -8t4.5 -22q-3 -14 -13 -22t-22 -8q-10 0 -16.5 6zM529.5 791q-6.5 6 -6.5 16q0 17 10.5 27.5t24.5 10.5q11 0 17.5 -6t6.5 -17
q0 -17 -10.5 -27t-25.5 -10q-10 0 -16.5 6zM148.5 21.5q-48.5 31.5 -48.5 107.5q0 31 7 63l94 461q3 17 -10.5 25t-34.5 8h-17l3 14h167l-3 -14h-16q-22 0 -39 -8t-20 -25l-94 -464q-6 -31 -6 -55q0 -68 44 -94t126 -26q188 0 224 175l94 464q3 17 -10 25t-35 8h-16l3 14
h167l-3 -14h-17q-21 0 -38 -8t-20 -25l-94 -461q-23 -111 -89.5 -156.5t-176.5 -45.5q-93 0 -141.5 31.5z" />
    <glyph glyph-name="uni01DC" unicode="&#x1dc;" horiz-adv-x="513" 
d="M250 736q1 7 6 10.5t10 3.5q7 0 12.5 -3.5t10.5 -8.5l84 -87l-8 -10l-104 72q-13 9 -11 23zM217.5 550q-6.5 6 -6.5 16q0 17 10.5 27.5t24.5 10.5q11 0 17.5 -6t6.5 -17q0 -17 -10.5 -27t-25.5 -10q-10 0 -16.5 6zM405.5 550q-6.5 6 -6.5 16q0 17 10.5 27.5t24.5 10.5
q11 0 17.5 -6t6.5 -17q0 -17 -10.5 -27t-25.5 -10q-10 0 -16.5 6zM388 27q0 -16 15 -16q7 0 33 8l-2 -8q-12 -10 -25 -15.5t-24 -5.5q-13 0 -20.5 7t-7.5 21q0 6 1 10l11 52q-27 -35 -74.5 -62.5t-106.5 -27.5q-62 0 -94 27t-32 75q0 14 3 30l63 305v4q0 8 -9 8
q-7 0 -18 -3.5t-19 -7.5l-2 12l69 30h16l-68 -338q-4 -16 -4 -34q0 -42 25.5 -64t73.5 -22q40 0 80 17.5t70 50t42 74.5l56 273v4q0 8 -9 8q-7 0 -18 -3.5t-19 -7.5l-2 12l69 30h16l-87 -430q-2 -10 -2 -13z" />
    <glyph glyph-name="Gcaron" unicode="&#x1e6;" horiz-adv-x="641" 
d="M395 883l17 16l69 -75q5 -5 10 -5q3 0 11 5l100 75l10 -16l-117 -96h-23zM127 51.5q-59 61.5 -59 178.5q0 56 13 120q23 115 76.5 196t130.5 122.5t170 41.5q59 0 99.5 -19.5t62.5 -41.5q1 -1 3.5 -3t4.5 -2q8 0 12 19l9 42h19l-35 -174h-13q1 7 1 19q0 61 -45.5 98.5
t-122.5 37.5q-134 0 -222.5 -91.5t-120.5 -244.5q-12 -60 -12 -113q0 -105 52 -164t160 -59q53 0 112.5 15.5t103.5 52.5l42 206q1 4 1 10q0 23 -21 30t-68 11l3 14h182l-3 -14q-28 0 -43.5 -10t-21.5 -41l-44 -216q-42 -36 -103 -59t-153 -23q-111 0 -170 61.5z" />
    <glyph glyph-name="gcaron" unicode="&#x1e7;" horiz-adv-x="429" 
d="M275 543l-78 96l17 16l69 -75q5 -5 10 -5q4 0 11 5l100 75l10 -16l-116 -96h-23zM479.5 472.5q8.5 -7.5 5.5 -18.5q-2 -8 -7.5 -13.5t-14.5 -5.5q-10 0 -13.5 6.5t-7.5 11t-17 4.5q-9 0 -22.5 -6t-24.5 -14q25 -30 25 -74q0 -21 -4 -38q-15 -71 -69 -112.5t-129 -41.5
q-56 0 -93 24q-47 -31 -51 -58q-1 -3 -1 -9q0 -21 20 -33t56 -12h128q43 0 72.5 -17t29.5 -54q0 -5 -2 -19q-14 -68 -76.5 -99t-149.5 -31q-65 0 -105.5 24.5t-40.5 69.5q0 7 2 21q12 58 77 92q-38 16 -38 50q0 44 65 87q-32 30 -32 81q0 20 4 37q14 71 68 113t130 42
q67 0 105 -33q40 33 81 33q21 0 29.5 -7.5zM374 357q0 46 -29 74t-86 28q-67 0 -110 -38t-54 -96q-4 -24 -4 -34q0 -45 28 -72t85 -27q68 0 111 37.5t56 95.5q3 17 3 32zM83 65q-34 -21 -48.5 -41t-19.5 -45q-2 -12 -2 -17q0 -38 35.5 -57t95.5 -19q79 0 129.5 27t60.5 78
q2 12 2 17q0 26 -22 39.5t-72 13.5h-119q-25 0 -40 4z" />
    <glyph glyph-name="Aringacute" unicode="&#x1fa;" horiz-adv-x="650" 
d="M420 964l-5 10l121 87q16 12 27 12q5 0 8 -4t2 -10q-2 -14 -20 -23zM396.5 779.5q-16.5 15.5 -16.5 40.5q0 40 26.5 66t63.5 26q28 0 45 -15.5t17 -41.5q0 -5 -2 -17q-7 -33 -32 -53.5t-57 -20.5q-28 0 -44.5 15.5zM403 823q0 -18 11.5 -29t29.5 -11q23 0 40 15t23 40
q2 10 2 14q0 19 -11.5 30t-30.5 11q-23 0 -40 -15t-22 -40q-2 -10 -2 -15zM608 14l-2 -14h-180l2 14h12q19 0 41 9t25 22q0 3 -0.5 8t-1.5 8l-26 171h-290l-96 -171q-1 -1 -4.5 -7.5t-3.5 -8.5q-2 -13 15 -22t36 -9h14l-2 -14h-180l2 14h14q21 2 43 11.5t30 22.5l358 642
l26 17l97 -659q2 -14 20 -24t37 -10h14zM475 256l-58 385l-216 -385h274z" />
    <glyph glyph-name="aringacute" unicode="&#x1fb;" horiz-adv-x="483" 
d="M293 742l121 87q16 12 27 12q5 0 8 -4t2 -10q-2 -15 -20 -23l-133 -72zM276.5 557.5q-16.5 15.5 -16.5 40.5q0 40 26.5 66t63.5 26q28 0 45 -15.5t17 -41.5q0 -5 -2 -17q-7 -33 -32 -53.5t-57 -20.5q-28 0 -44.5 15.5zM364 576q17 15 23 40q2 10 2 14q0 19 -11.5 30
t-30.5 11q-23 0 -40 -15t-22 -40q-2 -10 -2 -15q0 -18 11.5 -29t29.5 -11q23 0 40 15zM32 119q0 39 11 97q31 154 107 209t150 55q43 0 79.5 -14t47.5 -41l9 45h30l-88 -430q-2 -10 -2 -14q0 -15 15 -15q8 0 32 8l-2 -8q-24 -21 -49 -21q-12 0 -19.5 7t-7.5 20q0 7 1 11
l18 86q-64 -69 -127 -96.5t-106 -27.5q-99 0 -99 129zM222 35.5q44 23.5 86 56.5t63 58l45 218q-3 45 -37 67.5t-89 22.5q-34 0 -76 -18.5t-82 -72t-60 -151.5q-10 -49 -10 -86q0 -63 24.5 -90.5t61.5 -27.5q30 0 74 23.5z" />
    <glyph glyph-name="AEacute" unicode="&#x1fc;" horiz-adv-x="890" 
d="M729 798l121 87q16 12 26 12q6 0 9 -4t2 -10q-2 -14 -20 -23l-134 -72zM-29 14h14q19 2 41 11.5t32 22.5l487 615q7 9 7 13v3q0 7 -12 7h-28l3 14h427l-31 -154h-12q5 38 5 57q0 73 -46 73h-242l-59 -291h179q29 0 42.5 25.5t27.5 77.5h14l-47 -230h-14q6 42 6 58
q0 22 -7.5 33.5t-25.5 11.5h-180l-68 -337h247q36 0 63.5 47t39.5 95h13l-47 -166h-420l2 14h16q22 0 39 8t20 25l38 185h-262l-147 -187l-2 -4q-1 -10 17.5 -18.5t35.5 -8.5h14l-2 -14h-180zM500 256l86 417l-334 -417h248z" />
    <glyph glyph-name="aeacute" unicode="&#x1fd;" horiz-adv-x="726" 
d="M439 556l121 87q16 12 27 12q5 0 8 -4t2 -10q-2 -14 -20 -23l-133 -72zM37.5 10.5q-21.5 20.5 -21.5 56.5q0 14 3 29q29 140 312 185q14 43 34 74q1 7 1 19q0 42 -28 63t-77 21q-38 0 -77 -16t-43 -34l-3 -26q-6 -29 -28 -29q-17 0 -17 20q0 8 1 12q7 31 36 52.5t68 32
t74 10.5q54 0 86 -21t38 -60q35 40 80 60.5t97 20.5q81 0 119 -30.5t38 -79.5q0 -16 -2 -25q-22 -103 -141 -141t-245 -42q1 -71 36.5 -110.5t93.5 -39.5q64 0 116 38t79 115h18q-24 -80 -79 -127.5t-139 -47.5q-55 0 -92 25t-53 73q-54 -55 -114 -76.5t-102 -21.5
q-47 0 -68.5 20.5zM581.5 227q103.5 37 119.5 117q2 14 2 20q0 40 -30.5 67t-101.5 27q-86 0 -144.5 -62t-78.5 -161l-3 -20l-3 -30q136 5 239.5 42zM226 43q58 31 90 68q-5 23 -5 47q0 35 9 77l4 21q-115 -19 -189.5 -60t-86.5 -98q-2 -8 -2 -23q0 -31 20.5 -47t56.5 -16
q45 0 103 31z" />
    <glyph glyph-name="Oslashacute" unicode="&#x1fe;" horiz-adv-x="676" 
d="M405 788l-5 10l121 87q18 12 27 12q6 0 9 -4t2 -10q-2 -14 -20 -23zM638 627q45 -62 45 -162q0 -47 -13 -115q-36 -173 -134.5 -266.5t-238.5 -93.5q-120 0 -182 68l-62 -68l-23 14l69 75q-41 59 -41 154q0 56 13 117q35 173 133.5 266.5t239.5 93.5q116 0 176 -63l69 75
l24 -13zM89 238q0 -83 31 -136l480 523q-55 61 -161 61q-134 0 -220.5 -91t-117.5 -245q-12 -60 -12 -112zM653 462q0 87 -36 142l-482 -524q55 -66 166 -66q135 0 221.5 91t117.5 245q13 65 13 112z" />
    <glyph glyph-name="oslashacute" unicode="&#x1ff;" horiz-adv-x="485" 
d="M266 546l-5 10l121 87q6 5 13 8.5t14 3.5q11 0 11 -12q0 -6 -5.5 -13t-15.5 -12zM471 307q0 -30 -8 -72q-23 -114 -94 -179.5t-167 -65.5q-58 0 -97 24l-36 -47l-20 14l36 47q-53 45 -53 137q0 35 7 70q24 114 95.5 179.5t167.5 65.5q63 0 104 -29l40 53l22 -13l-42 -56
q45 -45 45 -128zM60 167q0 -77 41 -118l290 382q-36 27 -93 27q-86 0 -147.5 -59t-83.5 -164q-7 -35 -7 -68zM443 304q0 72 -34 110l-289 -380q36 -22 86 -22q85 0 147 59.5t83 163.5q7 35 7 69z" />
    <glyph glyph-name="Scommaaccent" unicode="&#x218;" horiz-adv-x="504" 
d="M127 11q-41 21 -63 38.5t-23 17.5q-4 0 -8 -7t-6 -18l-8 -39h-19l36 174h12l-1 -13q0 -40 22.5 -74.5t61.5 -55t85 -20.5q84 0 142.5 43.5t72.5 115.5q3 15 3 28q0 37 -20.5 65t-50 48.5t-81.5 48.5q-52 29 -82 49.5t-51 49.5t-21 67q0 14 3 29q15 74 77 113t148 39
q47 0 79 -14.5t50 -28t20 -13.5q9 0 11 16l8 37h19l-35 -174h-13q1 7 1 21q0 59 -37 95.5t-104 36.5q-84 0 -133.5 -34.5t-61.5 -93.5q-3 -12 -3 -24q0 -34 19.5 -59.5t48.5 -44t78 -44.5q55 -29 87 -50.5t54.5 -53.5t22.5 -74q0 -9 -4 -33q-11 -54 -46 -96t-85.5 -65.5
t-107.5 -23.5q-56 0 -97 21zM84 -222q28 23 45.5 43.5t17.5 42.5q0 6 -2.5 11t-5.5 9q-9 9 -9 20q0 16 9 25.5t23 9.5q21 0 21 -23q0 -4 -2 -18q-14 -75 -91 -130z" />
    <glyph glyph-name="scommaaccent" unicode="&#x219;" horiz-adv-x="386" 
d="M58.5 15.5q-35.5 25.5 -35.5 64.5q0 7 2 19q2 9 8.5 16.5t16.5 7.5q9 0 13.5 -6.5t2.5 -16.5q-1 -3 -3 -7.5t-3 -9.5q-2 -12 7 -29t31 -29.5t58 -12.5q65 0 104.5 26.5t48.5 72.5q2 12 2 16q0 31 -25 49.5t-76 41.5q-40 18 -64.5 32.5t-42 37.5t-17.5 56q0 66 50 101
t117 35q65 0 98.5 -25t33.5 -64q0 -13 -2 -20q-2 -9 -8.5 -16.5t-16.5 -7.5q-9 0 -13.5 6.5t-2.5 16.5q1 5 3 9t3 8q2 12 -6.5 29t-30.5 29.5t-58 12.5q-59 0 -97.5 -29.5t-38.5 -78.5q0 -37 27.5 -58.5t81.5 -45.5q56 -25 84.5 -48t28.5 -64q0 -15 -2 -23
q-12 -58 -61 -89.5t-117 -31.5q-65 0 -100.5 25.5zM49 -222q55 44 61 78q2 9 0 15t-7 13t-7 12t-1 14q6 29 32 29q21 0 21 -24q0 -3 -2 -17q-16 -76 -91 -130z" />
    <glyph glyph-name="uni021A" unicode="&#x21a;" horiz-adv-x="566" 
d="M147 14h26q58 0 65 33l129 629h-141q-38 0 -59 -39t-34 -91h-12l31 154h470l-31 -154h-12q5 27 5 58q0 72 -45 72h-142l-128 -629q-4 -18 9.5 -25.5t42.5 -7.5h26l-2 -14h-200zM140 -222q55 44 62 78q2 9 0 14.5t-8 13.5q-5 7 -7 12t-1 14q3 14 11.5 21.5t20.5 7.5
q21 0 21 -24q0 -3 -2 -17q-14 -75 -91 -130z" />
    <glyph glyph-name="uni021B" unicode="&#x21b;" horiz-adv-x="329" 
d="M126 119q-6 -27 -6 -47q0 -31 15 -45.5t45 -14.5q29 0 53 14t34 44h24q-12 -40 -44.5 -60t-67.5 -20q-46 0 -67.5 18.5t-21.5 59.5q0 26 5 48l68 333h-85l4 21h85l17 85l25 45h15l-26 -130h136l-4 -21h-137zM158 -84q0 -4 -2 -18q-14 -75 -91 -130l-5 10q28 24 45 44
t17 42q0 6 -2.5 11t-5.5 9q-9 9 -9 20q0 16 9 25.5t23 9.5q21 0 21 -23z" />
    <glyph glyph-name="uni0237" unicode="&#x237;" horiz-adv-x="228" 
d="M-14 -95q43 20 67.5 50.5t33.5 73.5l81 398v4q0 8 -9 8q-12 0 -37 -11l-2 12l69 30h16l-90 -442q-9 -47 -42 -84.5t-87 -56.5v18z" />
    <glyph glyph-name="uni0251" unicode="&#x251;" horiz-adv-x="485" 
d="M71 29.5q-40 39.5 -40 121.5q0 39 11 94q15 75 56 128t95.5 80t111.5 27q119 0 162 -68l-76 -372q-2 -10 -2 -13q0 -16 15 -16q7 0 33 8l-3 -8q-12 -10 -25 -15.5t-24 -5.5q-13 0 -20.5 7t-7.5 21q0 6 1 10l11 50q-67 -88 -186 -88q-72 0 -112 39.5zM284.5 33.5
q41.5 21.5 68 56.5t34.5 75l49 241q-41 52 -136 52q-51 0 -99 -25.5t-82.5 -74t-48.5 -115.5q-10 -52 -10 -87q0 -144 133 -144q50 0 91.5 21.5z" />
    <glyph glyph-name="uni0259" unicode="&#x259;" horiz-adv-x="457" 
d="M392 436q41 -44 41 -125q0 -33 -8 -76q-24 -116 -91.5 -180.5t-161.5 -64.5q-81 0 -119 30.5t-38 79.5q0 16 2 25q22 102 141 140t245 42q-1 71 -36 111t-94 40q-64 0 -116 -38t-79 -115h-18q24 80 79 127.5t139 47.5q73 0 114 -44zM318 74q58 62 78 161q6 34 7 49
q-134 -5 -238.5 -42t-120.5 -116q-2 -14 -2 -20q0 -40 30.5 -67t101.5 -27q86 0 144 62z" />
    <glyph glyph-name="uni02BB" unicode="&#x2bb;" horiz-adv-x="214" 
d="M151 556q0 11 2 18q14 74 91 129l6 -10q-54 -45 -62 -78q-2 -9 0 -15.5t8 -12.5q5 -7 7 -12t1 -14q-3 -14 -11 -21.5t-20 -7.5q-22 0 -22 24z" />
    <glyph glyph-name="uni02BC" unicode="&#x2bc;" horiz-adv-x="214" 
d="M140 549q54 45 62 78q2 9 0 14.5t-8 13.5q-5 7 -7 12t-1 14q3 14 11 21.5t20 7.5q22 0 22 -25q0 -10 -2 -17q-14 -74 -91 -129z" />
    <glyph glyph-name="uni02BE" unicode="&#x2be;" 
d="M54 638q27 0 46.5 19.5t19.5 49.5q0 19 -12 30t-32 11l5 19q28 0 45 -15.5t17 -41.5q0 -39 -28 -65t-65 -26z" />
    <glyph glyph-name="uni02BF" unicode="&#x2bf;" 
d="M80.5 635q-17.5 16 -17.5 42q0 39 28 64.5t65 25.5l-4 -19q-24 0 -41.5 -15t-22.5 -40q-1 -5 -1 -13q0 -20 11.5 -31t31.5 -11l-4 -19q-28 0 -45.5 16z" />
    <glyph glyph-name="circumflex" unicode="&#x2c6;" horiz-adv-x="451" 
d="M201 601l118 101h23l76 -101l-17 -16l-70 72q-5 5 -9 5t-12 -5l-99 -72z" />
    <glyph glyph-name="caron" unicode="&#x2c7;" horiz-adv-x="451" 
d="M218 686l17 16l69 -72q7 -5 10 -5q6 0 11 5l100 72l10 -16l-117 -101h-23z" />
    <glyph glyph-name="uni02C8" unicode="&#x2c8;" 
d="M93 720h31l-28 -135h-31z" />
    <glyph glyph-name="uni02C9" unicode="&#x2c9;" horiz-adv-x="451" 
d="M178 651h284l-5 -22h-284z" />
    <glyph glyph-name="uni02CA" unicode="&#x2ca;" 
d="M15 596l121 87q18 12 27 12q6 0 9 -4t2 -10q-2 -14 -20 -23l-134 -72z" />
    <glyph glyph-name="uni02CB" unicode="&#x2cb;" 
d="M43 658q-12 9 -10 23q1 7 6 10.5t10 3.5q7 0 12.5 -3.5t10.5 -8.5l84 -87l-8 -10z" />
    <glyph glyph-name="uni02CC" unicode="&#x2cc;" 
d="M-61 -40h29l-27 -135h-30z" />
    <glyph glyph-name="breve" unicode="&#x2d8;" horiz-adv-x="451" 
d="M241.5 603.5q-27.5 22.5 -27.5 66.5q0 8 2 24h24q-1 -6 -1 -16q0 -72 83 -72q38 0 69.5 17.5t48.5 70.5h24q-16 -57 -55 -85t-92 -28q-48 0 -75.5 22.5z" />
    <glyph glyph-name="dotaccent" unicode="&#x2d9;" horiz-adv-x="451" 
d="M289.5 590q-6.5 6 -6.5 16q0 17 10.5 27.5t24.5 10.5q11 0 17.5 -6t6.5 -17q0 -17 -10.5 -27t-25.5 -10q-10 0 -16.5 6z" />
    <glyph glyph-name="ring" unicode="&#x2da;" horiz-adv-x="451" 
d="M269 635q-17 16 -17 41q0 39 27.5 65t64.5 26q27 0 44 -16t17 -41q0 -39 -28 -65t-64 -26q-27 0 -44 16zM357 653q17 15 22 40q2 10 2 15q0 19 -11 29.5t-31 10.5q-23 0 -40 -15t-22 -40q-1 -5 -1 -13q0 -20 11 -31t30 -11q23 0 40 15z" />
    <glyph glyph-name="ogonek" unicode="&#x2db;" horiz-adv-x="451" 
d="M119.5 -152q-14.5 16 -14.5 39q0 5 2 15q6 32 29.5 57.5t59.5 40.5h26q-33 -16 -57 -41.5t-31 -55.5q-1 -5 -1 -13q0 -37 47 -37q19 0 43 7l-4 -19q-35 -9 -56 -9q-29 0 -43.5 16z" />
    <glyph glyph-name="tilde" unicode="&#x2dc;" horiz-adv-x="451" 
d="M176 592q13 39 36 58t51 19q14 0 27 -8t31 -23q19 -15 30 -21.5t23 -6.5q22 0 39 17t31 49l13 -7q-30 -83 -90 -83q-14 0 -27 8t-30 23q-18 15 -29.5 22t-24.5 7q-40 0 -68 -62z" />
    <glyph glyph-name="hungarumlaut" unicode="&#x2dd;" horiz-adv-x="451" 
d="M181 597l121 87q18 12 27 12q6 0 9 -4t2 -10q-2 -14 -19 -23l-135 -72zM296 597l121 87q16 12 27 12q5 0 8 -4t2 -10q-2 -14 -19 -23l-135 -72z" />
    <glyph glyph-name="gravecomb" unicode="&#x300;" 
d="M-271 658q-12 9 -10 23q1 7 6 10.5t10 3.5q7 0 12.5 -3.5t10.5 -8.5l85 -87l-9 -10z" />
    <glyph glyph-name="acutecomb" unicode="&#x301;" 
d="M-259 596l121 87q16 12 27 12q5 0 8 -4t2 -10q-2 -15 -20 -23l-133 -72z" />
    <glyph glyph-name="uni0302" unicode="&#x302;" 
d="M-25 601l117 96h23l77 -96l-16 -16l-69 75q-7 5 -10 5q-5 0 -12 -5l-99 -75z" />
    <glyph glyph-name="tildecomb" unicode="&#x303;" 
d="M-322 592q14 39 37 58t51 19q14 0 27 -8t31 -23q19 -15 30 -21.5t23 -6.5q41 0 69 66l14 -7q-30 -83 -91 -83q-14 0 -27 8t-29 23q-21 16 -31.5 22.5t-22.5 6.5q-40 0 -68 -62z" />
    <glyph glyph-name="uni0304" unicode="&#x304;" 
d="M-45 607h262l-5 -22h-262z" />
    <glyph glyph-name="uni0306" unicode="&#x306;" 
d="M3.5 596.5q-27.5 22.5 -27.5 66.5q0 8 2 24h24q-1 -6 -1 -16q0 -72 83 -72q38 0 69.5 17.5t48.5 70.5h24q-16 -57 -55 -85t-92 -28q-48 0 -75.5 22.5z" />
    <glyph glyph-name="uni0307" unicode="&#x307;" 
d="M58 563q-6 6 -6 16q0 17 10.5 27.5t24.5 10.5q10 0 16 -5.5t6 -15.5q0 -6 -1 -9q-2 -14 -11.5 -22t-21.5 -8q-11 0 -17 6z" />
    <glyph glyph-name="uni0308" unicode="&#x308;" 
d="M-36 613q3 14 12.5 22t21.5 8q11 0 17 -6t6 -16q0 -17 -10.5 -27.5t-24.5 -10.5q-25 0 -22 30zM158 588.5q-6 5.5 -6 15.5q0 6 1 9q2 14 11.5 22t21.5 8q11 0 17 -6t6 -16q0 -17 -10.5 -27.5t-24.5 -10.5q-10 0 -16 5.5z" />
    <glyph glyph-name="hookabovecomb" unicode="&#x309;" 
d="M-177 590.5q-10 8.5 -10 23.5q0 7 1 10q3 14 14.5 25t31.5 23q23 15 35 26.5t12 28.5q0 23 -31 23q-13 0 -24 -5t-17 -15q-7 -14 -11 -18t-12 -4q-11 0 -11 11q0 21 22.5 35.5t54.5 14.5q27 0 42.5 -10t15.5 -30q0 -21 -14.5 -36t-40.5 -32q-34 -22 -38 -37q-1 -3 -1 -8
q0 -8 5 -11.5t16 -7.5l-10 -15q-20 0 -30 8.5z" />
    <glyph glyph-name="uni030A" unicode="&#x30a;" 
d="M32 578q-17 16 -17 41q0 39 27 65t64 26q27 0 44 -16t17 -41q0 -39 -27.5 -65t-63.5 -26q-27 0 -44 16zM119 596q17 15 23 40q2 10 2 14q0 19 -11.5 30t-30.5 11q-23 0 -40 -15t-22 -40q-2 -10 -2 -14q0 -19 11.5 -30t30.5 -11q22 0 39 15z" />
    <glyph glyph-name="uni030B" unicode="&#x30b;" 
d="M-35 597l121 87q18 12 27 12q6 0 9 -4t2 -10q-2 -14 -19 -23l-135 -72zM80 597l121 87q16 12 27 12q5 0 8 -4t2 -10q-2 -14 -19 -23l-135 -72z" />
    <glyph glyph-name="uni030C" unicode="&#x30c;" 
d="M-9 681l18 16l69 -75q5 -5 9 -5t12 5l100 75l9 -16l-116 -96h-23z" />
    <glyph glyph-name="uni031B" unicode="&#x31b;" 
d="M-12 375q26 16 45.5 36.5t19.5 42.5q0 9 -8 19q-3 4 -5.5 9t-2.5 12q0 14 9.5 24.5t22.5 10.5q24 0 24 -27q0 -4 -2 -16q-7 -36 -35 -70.5t-70 -57.5z" />
    <glyph glyph-name="dotbelowcomb" unicode="&#x323;" 
d="M-360 -118.5q-6 5.5 -6 15.5q0 6 1 9q3 14 12 22t22 8q11 0 17 -6t6 -16q0 -5 -1 -8q-4 -14 -13 -22t-22 -8q-10 0 -16 5.5z" />
    <glyph glyph-name="uni0324" unicode="&#x324;" 
d="M-176 -130q-6 6 -6 16q0 5 1 8q2 14 11.5 22t21.5 8q11 0 17 -6t6 -16q0 -17 -10 -27.5t-24 -10.5q-11 0 -17 6zM11 -130q-6 6 -6 16q0 17 10 27.5t24 10.5q11 0 17 -6t6 -16q0 -5 -1 -8q-2 -14 -11.5 -22t-21.5 -8q-11 0 -17 6z" />
    <glyph glyph-name="uni0326" unicode="&#x326;" 
d="M-346 -222q27 22 44.5 43t17.5 43q0 10 -8 20q-5 7 -7 12t-1 14q3 14 11 21.5t20 7.5q22 0 22 -25l-2 -16q-16 -75 -92 -130z" />
    <glyph glyph-name="uni0327" unicode="&#x327;" 
d="M-141 -180l12 18q21 -4 46 -4q63 0 71 47q7 32 -45 32q-18 0 -34 -2l-6 10l52 79h27l-43 -68q6 1 22 1q24 0 39.5 -11t15.5 -32q0 -7 -1 -11q-6 -33 -34.5 -49t-69.5 -16q-28 0 -52 6z" />
    <glyph glyph-name="uni0328" unicode="&#x328;" 
d="M-119 -151q-14 15 -14 37q0 6 2 16q7 32 30.5 57.5t58.5 40.5h25q-37 -17 -63 -47t-26 -62q0 -20 13.5 -29.5t34.5 -9.5q18 0 43 7l-4 -16q-31 -9 -55 -9q-31 0 -45 15z" />
    <glyph glyph-name="uni032E" unicode="&#x32e;" 
d="M-146.5 -142q-27.5 23 -27.5 69q0 13 1 21h24q-5 -53 20 -70.5t63 -17.5q89 0 116 88h24q-15 -56 -54 -84.5t-92 -28.5q-47 0 -74.5 23z" />
    <glyph glyph-name="uni0331" unicode="&#x331;" 
d="M-185 -76h262l-4 -22h-262z" />
    <glyph glyph-name="uni0394" unicode="&#x394;" horiz-adv-x="546" 
d="M-6 35l376 672h19l100 -672l-7 -35h-494zM457 30l-92 608l-340 -608h432z" />
    <glyph glyph-name="uni03A9" unicode="&#x3a9;" horiz-adv-x="676" 
d="M46 96h12q-1 -10 -1 -27q0 -23 6 -35t21 -12h120l21 100q-56 12 -91 65.5t-35 131.5q0 33 8 75q16 79 60.5 143t113.5 102t156 38q108 0 165.5 -59t57.5 -154q0 -32 -8 -70q-15 -70 -50.5 -129t-83 -96t-96.5 -47l-20 -100h119q20 0 32.5 18t25.5 56h11l-26 -96h-196
l28 140q55 6 102.5 44t79.5 94t44 116q7 39 7 63q0 88 -52.5 141.5t-144.5 53.5q-72 0 -134 -33.5t-104.5 -92.5t-57.5 -132q-7 -38 -7 -66q0 -74 33 -127t96 -61l-28 -140h-195z" />
    <glyph glyph-name="uni03BC" unicode="&#x3bc;" horiz-adv-x="513" 
d="M388 27q0 -16 15 -16q7 0 33 8l-2 -8q-12 -10 -25 -15.5t-24 -5.5q-13 0 -20.5 7t-7.5 21q0 6 1 10l11 52q-27 -35 -74.5 -62.5t-106.5 -27.5q-81 0 -111 47l-38 -184h-28l53 260q0 6 1 9l63 305v4q0 8 -9 8q-7 0 -18 -3.5t-19 -7.5l-2 12l69 30h16l-68 -338
q-4 -16 -4 -34q0 -42 25.5 -64t73.5 -22q40 0 80 17.5t70 50t42 74.5l56 273v4q0 8 -9 8q-7 0 -18 -3.5t-19 -7.5l-2 12l69 30h16l-87 -430q-2 -10 -2 -13z" />
    <glyph glyph-name="pi" unicode="&#x3c0;" horiz-adv-x="557" 
d="M375 56q0 15 3 31l74 361h-238l-91 -448h-31l91 448h-121l4 22h537l-4 -22h-116l-74 -361q-3 -16 -3 -28q0 -47 47 -47q22 0 46 12l-5 -20q-25 -14 -62 -14q-57 0 -57 66z" />
    <glyph glyph-name="uni0E01" unicode="&#xe01;" horiz-adv-x="521" 
d="M72 214q23 109 112 149h-103q20 66 61 111t91.5 67t101.5 22q73 0 119.5 -35t46.5 -102q0 -22 -4 -42l-77 -384h-31l79 393q3 15 3 30q0 52 -36.5 85t-105.5 33q-37 0 -79 -17t-78.5 -52.5t-55.5 -87.5h103l-5 -23q-50 -25 -74.5 -57t-36.5 -91l-43 -213h-31z" />
    <glyph glyph-name="uni0E02" unicode="&#xe02;" horiz-adv-x="501" 
d="M110 207q80 50 137 107t71 125q2 8 2 23q0 36 -23.5 57.5t-69.5 21.5q-50 0 -85.5 -28t-51.5 -75q15 19 36 26.5t39 7.5q31 0 47.5 -17.5t16.5 -47.5q0 -43 -30.5 -75.5t-73.5 -32.5q-33 0 -51 21.5t-18 60.5q0 21 4 41q14 63 61.5 102t112.5 39q54 0 84 -25t30 -71
q0 -14 -3 -29q-27 -127 -206 -242l-34 -170h268l108 527h31l-113 -553h-330zM176.5 339.5q21.5 18.5 26.5 45.5q2 12 2 18q0 22 -12 34.5t-37 12.5q-31 0 -52 -23.5t-21 -55.5q0 -22 13 -36t34 -14q25 0 46.5 18.5z" />
    <glyph glyph-name="uni0E03" unicode="&#xe03;" horiz-adv-x="501" 
d="M110 207q80 50 137 107t71 125q3 17 3 34q0 50 -31 65l-75 -68l-44 65q-29 -13 -54 -49.5t-32 -70.5q15 19 36 26.5t39 7.5q31 0 47.5 -17.5t16.5 -47.5q0 -43 -30.5 -75.5t-73.5 -32.5q-33 0 -51 21t-18 60q0 17 5 42q11 57 45 104.5t82 61.5l40 -62l69 62
q57 -17 57 -88q0 -20 -4 -39q-27 -127 -206 -242l-34 -170h268l108 527h31l-113 -553h-330zM171.5 316.5q21.5 18.5 26.5 45.5q2 12 2 18q0 22 -12 34.5t-37 12.5q-31 0 -52 -23.5t-21 -55.5q0 -22 13 -36t34 -14q25 0 46.5 18.5z" />
    <glyph glyph-name="uni0E04" unicode="&#xe04;" horiz-adv-x="550" 
d="M65 83q10 49 16 139q1 9 4.5 51t11.5 81q20 98 83.5 153.5t169.5 55.5q89 0 132 -40.5t43 -112.5q0 -23 -7 -62l-70 -348h-30l72 357q5 21 5 48q0 62 -37 99t-112 37q-89 0 -145 -52t-73 -132q-7 -34 -9.5 -68t-3.5 -42q-3 -51 -8.5 -91t-20.5 -87l118 230q51 98 125 98
q34 0 51.5 -18t17.5 -48q0 -28 -14 -54t-38 -42t-54 -16q-26 0 -46 17t-19 51l-151 -287h-33q14 43 22 83zM344.5 261.5q21.5 18.5 27.5 45.5q2 12 2 17q0 22 -12 35t-38 13q-30 0 -51.5 -24t-21.5 -55q0 -22 13 -36t34 -14q25 0 46.5 18.5z" />
    <glyph glyph-name="uni0E05" unicode="&#xe05;" horiz-adv-x="550" 
d="M65 83q10 49 16 139q1 9 4.5 51t11.5 81q36 176 173 210l67 -69l95 69q95 -27 95 -141q0 -36 -9 -75l-70 -348h-30l72 357q7 35 7 60q0 88 -68 116l-100 -72l-68 72q-104 -35 -133 -176q-7 -34 -9.5 -68t-3.5 -42q-3 -51 -8.5 -91t-20.5 -87l115 210q26 48 56 73t68 25
q34 0 51.5 -18t17.5 -48q0 -28 -14 -54t-38 -42t-54 -16q-26 0 -46.5 17t-19.5 51l-146 -267h-33q14 43 22 83zM340.5 241.5q21.5 18.5 27.5 45.5q1 6 1 16q0 22 -12 35.5t-37 13.5q-27 0 -46.5 -19t-24.5 -46q-2 -10 -2 -15q0 -22 13.5 -35.5t33.5 -13.5q25 0 46.5 18.5z
" />
    <glyph glyph-name="uni0E06" unicode="&#xe06;" horiz-adv-x="530" 
d="M25 9.5q-14 19.5 -14 49.5q0 36 18 66.5t47 48t60 17.5q12 0 18 -1l8 44q67 47 113 97t58 108q3 14 3 28q0 24 -9 43t-27 28l-74 -68l-45 65q-29 -13 -53 -49.5t-32 -70.5q15 19 36 26.5t39 7.5q31 0 47.5 -16.5t16.5 -46.5q0 -12 -3 -26q-7 -35 -36 -59.5t-65 -24.5
q-33 0 -51 21.5t-18 60.5q0 21 4 41q12 57 46 104.5t82 61.5l39 -62l69 62q30 -9 45.5 -33.5t15.5 -59.5q0 -16 -3 -34q-21 -106 -169 -214l-8 -37q68 -13 133 -54.5t91 -81.5l103 502h30l-112 -553h-30q-12 34 -46.5 68.5t-81 60.5t-91.5 35l-16 -79q-7 -39 -32 -67
t-62 -28q-30 0 -44 19.5zM182.5 316.5q21.5 18.5 25.5 45.5q2 7 2 19q0 21 -12 33.5t-37 12.5q-26 0 -46 -19t-26 -46q-1 -4 -1 -12q0 -22 13.5 -37t33.5 -15q26 0 47.5 18.5zM111 35q15 20 21 50l17 83h-10q-38 0 -62 -22t-32 -59q-3 -15 -3 -29q0 -43 33 -43q21 0 36 20z
" />
    <glyph glyph-name="uni0E07" unicode="&#xe07;" horiz-adv-x="425" 
d="M96 176q-25 94 -57 135l23 19q36 -50 59 -138t34 -170h142l79 388q-14 -13 -32.5 -19t-36.5 -6q-25 0 -45.5 16.5t-20.5 49.5q0 31 15 57t39.5 40.5t51.5 14.5q74 0 74 -67q0 -18 -4 -35l-93 -461h-196q-7 82 -32 176zM363.5 428.5q21.5 18.5 26.5 45.5q2 12 2 18
q0 22 -12 34.5t-37 12.5q-31 0 -52 -23.5t-21 -55.5q0 -22 13 -36t34 -14q25 0 46.5 18.5z" />
    <glyph glyph-name="uni0E08" unicode="&#xe08;" horiz-adv-x="497" 
d="M302 255q-13 -34 -40.5 -51t-53.5 -17q-33 0 -51 20t-18 50q0 7 2 19q9 40 35.5 64.5t67.5 24.5q38 0 57.5 -24.5t27.5 -73.5l24 -220q12 52 42 135q37 103 52 175q5 27 5 47q0 62 -38 99.5t-113 37.5q-89 0 -143.5 -52t-71.5 -133h-29q21 96 83 151.5t166 55.5
q89 0 132.5 -41t43.5 -113q0 -22 -7 -61q-8 -38 -20 -76.5t-34 -100.5q-21 -58 -33.5 -96t-19.5 -75h-35zM263 235q23 24 23 56q0 22 -12 35.5t-35 13.5q-30 0 -49 -18.5t-25 -46.5q-2 -10 -2 -15q0 -21 14 -35t35 -14q28 0 51 24z" />
    <glyph glyph-name="uni0E09" unicode="&#xe09;" horiz-adv-x="530" 
d="M459.5 527.5q50.5 -35.5 50.5 -104.5q0 -20 -4 -39l-27 -134q-12 -56 -70 -94q32 0 49.5 -17.5t17.5 -45.5q0 -42 -30 -72.5t-72 -30.5q-31 0 -48.5 17.5t-17.5 45.5q0 6 2 20q4 22 20 43l-37 -15q-67 -27 -103 -48t-53 -53h-29l41 203q-12 -11 -28.5 -17t-32.5 -6
q-27 0 -45.5 15.5t-18.5 46.5q0 44 29 75t71 31q34 0 51 -17.5t17 -48.5q0 -13 -3 -27l-42 -206q25 24 58.5 40.5t81.5 34.5q51 20 80 35t51.5 38t29.5 57l29 139q3 14 3 26q0 52 -40 87t-111 35q-56 0 -111.5 -26.5t-95.5 -82.5h-28q35 60 101.5 95.5t139.5 35.5
q74 0 124.5 -35.5zM144.5 225q21.5 23 21.5 56q0 20 -11.5 32t-35.5 12q-25 0 -44.5 -18t-25.5 -44q-1 -5 -1 -14q0 -21 12.5 -34t32.5 -13q30 0 51.5 23zM452 90q0 20 -12 32.5t-36 12.5q-29 0 -49.5 -23t-20.5 -53q0 -21 12.5 -34t32.5 -13q25 0 46 17.5t25 43.5
q2 12 2 17z" />
    <glyph glyph-name="uni0E0A" unicode="&#xe0a;" horiz-adv-x="511" 
d="M110 207q80 50 137 107t71 125q2 8 2 23q0 36 -23.5 57.5t-69.5 21.5q-50 0 -85.5 -28t-51.5 -75q15 19 36 26.5t39 7.5q31 0 47.5 -17.5t16.5 -47.5q0 -43 -30.5 -75.5t-73.5 -32.5q-33 0 -51 21.5t-18 60.5q0 21 4 41q14 63 61.5 102t112.5 39q54 0 84 -25t30 -71
q0 -14 -3 -29q-27 -127 -206 -242l-34 -170h278l60 290q2 14 2 18q0 30 -18.5 46t-40.5 20l4 21q21 4 49.5 22.5t53 52t33.5 78.5h29q-15 -70 -55 -110t-73 -54q19 -8 33.5 -26.5t14.5 -44.5q0 -13 -2 -20l-64 -319h-340zM176.5 339.5q21.5 18.5 26.5 45.5q2 12 2 18
q0 22 -12 34.5t-37 12.5q-31 0 -52 -23.5t-21 -55.5q0 -22 13 -36t34 -14q25 0 46.5 18.5z" />
    <glyph glyph-name="uni0E0B" unicode="&#xe0b;" horiz-adv-x="511" 
d="M110 207q80 50 137 107t71 125q3 17 3 34q0 50 -31 65l-75 -68l-44 65q-29 -13 -54 -49.5t-32 -70.5q15 19 36 26.5t39 7.5q31 0 47.5 -17.5t16.5 -47.5q0 -43 -30.5 -75.5t-73.5 -32.5q-33 0 -51 21t-18 60q0 17 5 42q11 57 45 104.5t82 61.5l40 -62l69 62
q57 -17 57 -88q0 -20 -4 -39q-27 -127 -206 -242l-34 -170h278l60 290q2 12 2 18q0 30 -18.5 46t-40.5 20l4 21q21 4 49.5 22.5t53 52t33.5 78.5h28q-15 -70 -54.5 -110t-72.5 -54q19 -8 33.5 -26.5t14.5 -44.5q0 -13 -2 -20l-64 -319h-340zM171.5 316.5
q21.5 18.5 26.5 45.5q2 12 2 18q0 22 -12 34.5t-37 12.5q-31 0 -52 -23.5t-21 -55.5q0 -22 13 -36t34 -14q25 0 46.5 18.5z" />
    <glyph glyph-name="uni0E0C" unicode="&#xe0c;" horiz-adv-x="756" 
d="M767 553l-112 -553h-30q-7 22 -32.5 39.5t-72.5 41.5q-40 19 -61 33q1 -4 1 -15q0 -13 -2 -20q-8 -39 -38 -64t-66 -25q-31 0 -50 18.5t-19 49.5q0 14 2 21q9 39 38.5 64t65.5 25q8 0 20 -2q-3 9 -3 18q0 7 1 11l40 198q4 24 4 34q0 50 -33.5 82t-99.5 32
q-37 0 -76.5 -17t-74 -52.5t-53.5 -87.5h103l-5 -23q-50 -25 -74.5 -57t-36.5 -91l-15 -70q27 24 67 24q25 0 46 -16t21 -49q0 -31 -15.5 -57t-40 -40.5t-51.5 -14.5q-71 0 -71 68q0 20 4 39l24 117q23 109 112 149h-103q30 98 98 149t146 51q70 0 114 -34t44 -100
q0 -18 -5 -45l-35 -176q-2 -12 -2 -16q0 -33 27.5 -52.5t80.5 -41.5q36 -15 55 -25.5t30 -24.5l102 505h31zM94 118.5q-23 -24.5 -23 -57.5q0 -22 12 -34.5t37 -12.5q30 0 52 24.5t22 55.5q0 22 -13.5 35.5t-33.5 13.5q-30 0 -53 -24.5zM419.5 129.5q-13.5 13.5 -33.5 13.5
q-30 0 -53 -24.5t-23 -57.5q0 -22 12 -34.5t37 -12.5q31 0 52.5 24t21.5 56q0 22 -13.5 35.5z" />
    <glyph glyph-name="uni0E0D" unicode="&#xe0d;" horiz-adv-x="776" 
d="M72 214q23 109 112 149h-103q30 98 98 149t146 51q70 0 114 -34t44 -100q0 -18 -5 -45l-73 -358h243l108 527h30l-112 -553h-304l79 393q4 24 4 34q0 50 -33.5 82t-99.5 32q-37 0 -76.5 -17t-74 -52.5t-53.5 -87.5h103l-5 -23q-50 -25 -74.5 -57t-36.5 -91l-15 -70
q27 24 67 24q25 0 46 -16t21 -49q0 -31 -15.5 -57t-40 -40.5t-51.5 -14.5q-71 0 -71 68q0 20 4 39zM83 26.5q12 -12.5 37 -12.5q30 0 52 24.5t22 55.5q0 22 -13.5 35.5t-33.5 13.5q-30 0 -53 -24.5t-23 -57.5q0 -22 12 -34.5zM356 -70q27 22 61 22q32 0 48.5 -15t16.5 -42
q0 -14 -2 -22q-6 -27 -29.5 -51.5t-65.5 -24.5q-8 0 -18 2q28 -26 89 -26q53 0 104 44t76 127h30q-27 -95 -85.5 -143.5t-131.5 -48.5q-63 0 -96 25t-33 68q0 13 3 28q6 35 33 57zM359.5 -171.5q11.5 -11.5 30.5 -11.5q23 0 40 15.5t23 41.5q2 10 2 15q0 19 -11 30.5
t-31 11.5q-27 0 -46 -20t-19 -52q0 -19 11.5 -30.5z" />
    <glyph glyph-name="uni0E0E" unicode="&#xe0e;" horiz-adv-x="569" 
d="M502.5 528q46.5 -35 46.5 -102q0 -22 -4 -42l-127 -628h-30q-7 39 -31.5 69t-62.5 49q-25 -58 -66.5 -94.5t-97.5 -36.5q-39 0 -62 17t-23 50q0 52 41 83t104 31q46 0 88 -16q9 29 11 38h27q-5 -27 -13 -48q68 -32 95 -84l118 579q3 15 3 30q0 52 -36.5 85t-105.5 33
q-37 0 -79 -17t-78.5 -52.5t-55.5 -87.5h132l-5 -23q-50 -25 -74.5 -57t-36.5 -91l-24 -116q-22 -107 -112 -107q-31 0 -50 18.5t-19 49.5q0 14 2 21q9 45 40 66.5t61 21.5q18 0 33.5 -6t22.5 -18l15 71q9 49 36 88t76 61h-132q20 66 61 111t91.5 67t101.5 22
q73 0 119.5 -35zM125 94q0 21 -14 35t-35 14q-28 0 -51 -24t-23 -56q0 -22 12 -35.5t35 -13.5q30 0 49 18.5t25 46.5q2 10 2 15zM214.5 -201.5q33.5 32.5 55.5 85.5q-40 15 -84 15q-47 0 -79 -21.5t-32 -60.5q0 -24 15.5 -37.5t44.5 -13.5q46 0 79.5 32.5z" />
    <glyph glyph-name="uni0E0F" unicode="&#xe0f;" horiz-adv-x="569" 
d="M502.5 528q46.5 -35 46.5 -102q0 -22 -4 -42l-127 -628h-25l-47 69l-70 -69h-20q-4 34 -24 65q-24 -32 -56 -51.5t-68 -19.5q-35 0 -57 14.5t-22 42.5q0 42 31.5 67t83.5 25q48 0 85 -34q14 30 19 53h28q-8 -37 -29 -73q21 -27 29 -56l76 72l44 -62l120 594q3 15 3 30
q0 52 -36.5 85t-105.5 33q-37 0 -79 -17t-78.5 -52.5t-55.5 -87.5h132l-5 -23q-50 -25 -74.5 -57t-36.5 -91l-24 -116q-22 -107 -112 -107q-31 0 -50 18.5t-19 49.5q0 14 2 21q9 45 40 66.5t61 21.5q18 0 33.5 -6t22.5 -18l15 71q9 49 36 88t76 61h-132q20 66 61 111
t91.5 67t101.5 22q73 0 119.5 -35zM125 94q0 21 -14 35t-35 14q-28 0 -51 -24t-23 -56q0 -22 12 -35.5t35 -13.5q30 0 49 18.5t25 46.5q2 10 2 15zM168.5 -207.5q27.5 18.5 47.5 49.5q-34 34 -80 34q-29 0 -50 -14.5t-26 -38.5q-1 -3 -1 -9q0 -19 14.5 -29.5t38.5 -10.5
q29 0 56.5 18.5z" />
    <glyph glyph-name="uni0E10" unicode="&#xe10;" horiz-adv-x="489" 
d="M415.5 361.5q31.5 -22.5 31.5 -64.5q0 -9 -4 -33q-6 -29 -20 -62t-39 -84q-38 -80 -50 -118h-34l-31 199q-13 -34 -40.5 -51t-53.5 -17q-33 0 -51 19t-18 49q0 7 2 21q8 40 35 64.5t67 24.5q39 0 58.5 -24.5t27.5 -73.5l26 -171q7 22 21.5 53t18.5 39q22 45 35 76.5
t18 57.5q2 14 2 21q0 35 -26.5 54.5t-82.5 19.5q-48 0 -137.5 -1.5t-101.5 -3.5l5 25q17 82 71.5 132.5t138.5 50.5q25 0 83 -12q50 -10 65 -10q18 0 40 4t37 14l7 -18q-12 -9 -40.5 -16t-44.5 -7q-19 0 -63 10q-28 6 -48 9.5t-44 3.5q-63 0 -109 -41.5t-66 -120.5
q17 2 92.5 3t118.5 1q72 0 103.5 -22.5zM252 234q0 22 -12 36t-35 14q-30 0 -49 -18.5t-24 -46.5q-2 -10 -2 -15q0 -21 13.5 -35t35.5 -14q24 0 45 18.5t27 45.5q1 5 1 15zM344.5 -41q13.5 -11 13.5 -32q0 -5 -2 -15l-27 -133h-27l-50 51l-66 -51h-15q-8 40 -31 70
q-23 -34 -53.5 -54.5t-68.5 -20.5q-36 0 -55 16.5t-19 41.5q0 35 29.5 62t80.5 27q42 0 80 -31q10 22 16 49h28q-9 -38 -25 -68q25 -29 35 -66l69 53l51 -49l14 66q-15 -9 -34 -9q-21 0 -32 10.5t-11 28.5q0 33 20 49t44 16q22 0 35.5 -11zM305 -49q-17 0 -27 -12t-10 -29
q0 -23 24 -23q17 0 27.5 12t10.5 29q0 23 -25 23zM124 -132q-34 32 -74 32q-33 0 -53 -16.5t-25 -39.5q-1 -3 -1 -9q0 -17 13 -28t38 -11q62 0 102 72z" />
    <glyph glyph-name="uni0E11" unicode="&#xe11;" horiz-adv-x="587" 
d="M153 234q65 45 109 95t56 110q3 17 3 34q0 50 -31 65l-75 -68l-44 65q-29 -13 -54 -49.5t-32 -70.5q15 19 36 26.5t39 7.5q31 0 47.5 -17.5t16.5 -47.5q0 -43 -30.5 -75.5t-73.5 -32.5q-33 0 -51 21t-18 60q0 17 5 42q11 57 45 104.5t82 61.5l40 -62l69 62q57 -17 57 -88
q0 -20 -4 -39q-25 -114 -165 -214l-32 -159q32 53 76 116.5t88 124.5q117 164 174 257h39q31 0 45 -14t14 -43q0 -15 -5 -42l-94 -464h-31l93 460q6 30 6 43q0 38 -37 38h-10q-61 -90 -187.5 -274t-183.5 -267h-29zM171.5 316.5q21.5 18.5 26.5 45.5q2 12 2 18
q0 22 -12 34.5t-37 12.5q-31 0 -52 -23.5t-21 -55.5q0 -22 13 -36t34 -14q25 0 46.5 18.5z" />
    <glyph glyph-name="uni0E12" unicode="&#xe12;" horiz-adv-x="771" 
d="M781 553l-112 -553h-30q-7 21 -29 36.5t-66 38.5q-38 20 -56 31v-7q0 -6 -2 -20q-8 -39 -38 -64t-66 -25q-31 0 -50 18.5t-19 49.5t15 56t39.5 39.5t51.5 14.5q8 0 12 -1q-5 15 -5 31q0 6 2 20l31 149q6 32 6 59q0 81 -67 108l-88 -73l-53 73q-99 -34 -129 -177
q-7 -33 -9.5 -71t-3.5 -45q-3 -47 -6.5 -78.5t-10.5 -64.5q-4 -24 -18 -69q60 38 116 91.5t95 105.5q-16 -7 -33 -7q-34 0 -51.5 19.5t-17.5 48.5q0 43 30 76t74 33q35 0 52.5 -18t17.5 -47q0 -50 -44.5 -113t-111.5 -121.5t-131 -96.5h-33q14 43 22 83q10 49 16 139
q1 9 4.5 51t11.5 81q36 176 173 210l48 -67l80 67q97 -26 97 -137q0 -35 -7 -69l-29 -141q-2 -10 -2 -16q0 -34 28 -56.5t81 -48.5q34 -18 52 -29t29 -24l104 510h30zM314 267.5q23 24.5 23 57.5q0 22 -12 34.5t-37 12.5q-30 0 -52 -24.5t-22 -55.5q0 -22 13.5 -35.5
t33.5 -13.5q30 0 53 24.5zM447.5 129q-13.5 14 -33.5 14q-30 0 -53 -24.5t-23 -57.5q0 -22 12 -34.5t37 -12.5q30 0 52 24.5t22 55.5q0 21 -13.5 35z" />
    <glyph glyph-name="uni0E13" unicode="&#xe13;" horiz-adv-x="765" 
d="M688.5 214.5q-22.5 -22.5 -61.5 -46.5h1q31 0 50.5 -18.5t19.5 -48.5q0 -31 -15.5 -56.5t-40 -40t-51.5 -14.5q-31 0 -50 19t-19 50q0 6 2 20q4 20 18 41q-49 -28 -86.5 -56t-64.5 -64h-29l80 393q4 24 4 35q0 50 -32 81.5t-98 31.5q-58 0 -115 -40t-85 -117h103l-5 -23
q-50 -25 -74.5 -57t-36.5 -91l-15 -70q27 24 67 24q25 0 46 -16t21 -49q0 -31 -15.5 -57t-40 -40.5t-51.5 -14.5q-71 0 -71 68q0 20 4 39l24 117q23 109 112 149h-103q30 98 96.5 149t144.5 51q69 0 111 -33t42 -99q0 -19 -5 -47l-68 -336q23 27 58.5 50t88.5 53
q65 36 98 61t39 54l59 287h31l-59 -288q-6 -28 -28.5 -50.5zM94 118.5q-23 -24.5 -23 -57.5q0 -22 12 -34.5t37 -12.5q30 0 52 24.5t22 55.5q0 22 -13.5 35.5t-33.5 13.5q-30 0 -53 -24.5zM672 94q0 21 -13.5 35t-35.5 14q-28 0 -51 -24t-23 -56q0 -22 12.5 -35.5
t34.5 -13.5q30 0 49 18.5t25 46.5q2 10 2 15z" />
    <glyph glyph-name="uni0E14" unicode="&#xe14;" horiz-adv-x="550" 
d="M65 83q10 49 16 139q1 9 4.5 51t11.5 81q20 98 83.5 153.5t169.5 55.5q89 0 132 -40.5t43 -112.5q0 -23 -7 -62l-70 -348h-30l72 357q5 21 5 48q0 62 -37 99t-112 37q-89 0 -145 -52t-73 -132q-7 -33 -9.5 -71t-3.5 -45q-3 -47 -6.5 -78.5t-10.5 -64.5q-4 -24 -18 -69
q66 41 132.5 96.5t102.5 100.5q-16 -7 -33 -7q-34 0 -51.5 19.5t-17.5 48.5q0 43 30 76t74 33q35 0 52.5 -18t17.5 -47q0 -12 -3 -24q-10 -48 -60.5 -106.5t-118 -111t-129.5 -89.5h-33q14 43 22 83zM338 267.5q23 24.5 23 57.5q0 22 -12 34.5t-37 12.5q-30 0 -52 -24.5
t-22 -55.5q0 -22 13.5 -35.5t33.5 -13.5q30 0 53 24.5z" />
    <glyph glyph-name="uni0E15" unicode="&#xe15;" horiz-adv-x="550" 
d="M65 83q10 49 16 139q1 9 4.5 51t11.5 81q36 176 173 210l67 -70l95 70q95 -27 95 -141q0 -36 -9 -75l-70 -348h-30l72 357q7 35 7 60q0 88 -68 116l-100 -72l-68 72q-104 -35 -133 -176q-7 -33 -9.5 -71t-3.5 -45q-3 -47 -6.5 -78.5t-10.5 -64.5q-4 -24 -18 -69
q66 41 132.5 96.5t102.5 100.5q-16 -7 -33 -7q-34 0 -51.5 19.5t-17.5 48.5q0 43 30 76t74 33q35 0 52.5 -18t17.5 -47q0 -12 -3 -24q-10 -48 -60.5 -106.5t-118 -111t-129.5 -89.5h-33q14 43 22 83zM338 267.5q23 24.5 23 57.5q0 22 -12 34.5t-37 12.5q-30 0 -52 -24.5
t-22 -55.5q0 -22 13.5 -35.5t33.5 -13.5q30 0 53 24.5z" />
    <glyph glyph-name="uni0E16" unicode="&#xe16;" horiz-adv-x="521" 
d="M44 58q0 20 4 39l24 117q23 109 112 149h-103q20 66 61 111t91.5 67t101.5 22q73 0 119.5 -35t46.5 -102q0 -22 -4 -42l-77 -384h-31l79 393q3 15 3 30q0 52 -36.5 85t-105.5 33q-37 0 -79 -17t-78.5 -52.5t-55.5 -87.5h103l-5 -23q-50 -25 -74.5 -57t-36.5 -91l-15 -70
q27 24 67 24q25 0 46 -16t21 -49q0 -31 -15.5 -57t-40 -40.5t-51.5 -14.5q-71 0 -71 68zM172 38.5q22 24.5 22 55.5q0 22 -13.5 35.5t-33.5 13.5q-30 0 -53 -24.5t-23 -57.5q0 -22 12 -34.5t37 -12.5q30 0 52 24.5z" />
    <glyph glyph-name="uni0E17" unicode="&#xe17;" horiz-adv-x="578" 
d="M199 410q-14 -13 -32.5 -19t-36.5 -6q-25 0 -45.5 16.5t-20.5 50.5q0 14 2 22q9 39 38 64t65 25q74 0 74 -67q0 -18 -4 -35l-79 -386l303 478h46q32 0 48 -14.5t16 -47.5q0 -20 -6 -49l-89 -442h-31l90 438q5 30 5 45q0 23 -9.5 33t-32.5 10h-21q-55 -88 -168.5 -267
t-164.5 -259h-31zM191.5 434.5q22.5 24.5 22.5 58.5q0 21 -12.5 33.5t-36.5 12.5q-26 0 -46 -19t-26 -46q-1 -5 -1 -13q0 -22 13.5 -36.5t33.5 -14.5q30 0 52.5 24.5z" />
    <glyph glyph-name="uni0E18" unicode="&#xe18;" horiz-adv-x="487" 
d="M69 264h31l-49 -238h308l46 226q5 27 5 42q0 36 -23.5 51.5t-79.5 15.5q-47 0 -135.5 -1.5t-100.5 -3.5l5 25q17 80 77 131.5t146 51.5q22 0 84 -12q54 -10 72 -10q13 0 23 3.5t26 14.5l8 -18q-13 -11 -29 -17t-29 -6q-17 0 -65 10q-63 13 -99 13q-64 0 -116 -42.5
t-71 -119.5q17 2 87 3t110 1q75 0 108 -18.5t33 -66.5q0 -24 -5 -47l-51 -252h-370z" />
    <glyph glyph-name="uni0E19" unicode="&#xe19;" horiz-adv-x="579" 
d="M468 166q24 -5 37.5 -22.5t13.5 -43.5q0 -31 -15 -56t-39 -39.5t-51 -14.5q-31 0 -50 18.5t-19 49.5q0 14 2 21q4 19 13 35l-51 -19q-74 -26 -113.5 -46.5t-49.5 -48.5h-31l84 410q-14 -13 -32.5 -19t-36.5 -6q-25 0 -45.5 16.5t-20.5 50.5q0 14 2 22q9 39 38 64t65 25
q74 0 74 -67q0 -18 -4 -35l-83 -411q23 19 57.5 33.5t90.5 33.5q14 5 43.5 16t50.5 20q9 6 19 9q70 36 80 88l62 303h30l-63 -309q-8 -43 -58 -78zM191.5 434.5q22.5 24.5 22.5 58.5q0 21 -12.5 33.5t-36.5 12.5q-26 0 -46 -19t-26 -46q-1 -5 -1 -13q0 -22 13.5 -36.5
t33.5 -14.5q30 0 52.5 24.5zM494 94q0 21 -13.5 35t-35.5 14q-24 0 -45 -18.5t-27 -45.5q-1 -5 -1 -15q0 -22 12 -36t35 -14q30 0 49 18.5t24 46.5q2 10 2 15z" />
    <glyph glyph-name="uni0E1A" unicode="&#xe1a;" horiz-adv-x="580" 
d="M51 26h69l79 384q-14 -13 -32.5 -19t-36.5 -6q-25 0 -45.5 16.5t-20.5 50.5q0 14 2 22q9 39 38 64t65 25q74 0 74 -67q0 -18 -4 -35l-88 -435h301l108 527h30l-112 -553h-432zM191.5 434.5q22.5 24.5 22.5 58.5q0 21 -12.5 33.5t-36.5 12.5q-26 0 -46 -19t-26 -46
q-1 -5 -1 -13q0 -22 13.5 -36.5t33.5 -14.5q30 0 52.5 24.5z" />
    <glyph glyph-name="uni0E1B" unicode="&#xe1b;" horiz-adv-x="580" 
d="M51 26h69l79 384q-14 -13 -32.5 -19t-36.5 -6q-25 0 -45.5 16.5t-20.5 50.5q0 14 2 22q9 39 38 64t65 25q74 0 74 -67q0 -18 -4 -35l-88 -435h301l154 751h30l-158 -777h-432zM191.5 434.5q22.5 24.5 22.5 58.5q0 21 -12.5 33.5t-36.5 12.5q-26 0 -46 -19t-26 -46
q-1 -5 -1 -13q0 -22 13.5 -36.5t33.5 -14.5q30 0 52.5 24.5z" />
    <glyph glyph-name="uni0E1C" unicode="&#xe1c;" horiz-adv-x="556" 
d="M118 456q24 107 113 107q31 0 50 -18.5t19 -49.5q0 -14 -2 -21q-9 -45 -40 -67t-60 -22q-40 0 -58 25l-73 -357l227 267h23l117 -267l102 500h30l-112 -553h-30l-126 285l-242 -285h-30zM250 434.5q23 24.5 23 55.5q0 22 -12.5 35.5t-34.5 13.5q-31 0 -49.5 -18.5
t-24.5 -46.5q-1 -5 -1 -14q0 -22 13.5 -36t35.5 -14q27 0 50 24.5z" />
    <glyph glyph-name="uni0E1D" unicode="&#xe1d;" horiz-adv-x="556" 
d="M118 456q24 107 113 107q31 0 50 -18.5t19 -49.5q0 -14 -2 -21q-9 -45 -40 -67t-60 -22q-40 0 -58 25l-73 -357l227 267h23l117 -267l148 724h30l-158 -777h-30l-126 285l-242 -285h-30zM250 434.5q23 24.5 23 55.5q0 22 -12.5 35.5t-34.5 13.5q-31 0 -49.5 -18.5
t-24.5 -46.5q-1 -5 -1 -14q0 -22 13.5 -36t35.5 -14q27 0 50 24.5z" />
    <glyph glyph-name="uni0E1E" unicode="&#xe1e;" horiz-adv-x="641" 
d="M199 410q-14 -13 -32.5 -19t-36.5 -6q-25 0 -45.5 16.5t-20.5 50.5q0 14 2 22q9 39 38 64t65 25q74 0 74 -67q0 -18 -4 -35l-78 -382l259 441h25l79 -441l97 474h31l-112 -553h-31l-85 477l-278 -477h-31zM191.5 434.5q22.5 24.5 22.5 58.5q0 21 -12.5 33.5t-36.5 12.5
q-26 0 -46 -19t-26 -46q-1 -5 -1 -13q0 -22 13.5 -36.5t33.5 -14.5q30 0 52.5 24.5z" />
    <glyph glyph-name="uni0E1F" unicode="&#xe1f;" horiz-adv-x="641" 
d="M199 410q-14 -13 -32.5 -19t-36.5 -6q-25 0 -45.5 16.5t-20.5 50.5q0 14 2 22q9 39 38 64t65 25q74 0 74 -67q0 -18 -4 -35l-78 -382l259 441h25l79 -441l143 698h31l-158 -777h-31l-85 477l-278 -477h-31zM191.5 434.5q22.5 24.5 22.5 58.5q0 21 -12.5 33.5t-36.5 12.5
q-26 0 -46 -19t-26 -46q-1 -5 -1 -13q0 -22 13.5 -36.5t33.5 -14.5q30 0 52.5 24.5z" />
    <glyph glyph-name="uni0E20" unicode="&#xe20;" horiz-adv-x="569" 
d="M-6 8.5q-19 18.5 -19 49.5q0 14 2 21q9 45 40 66.5t61 21.5q18 0 33.5 -6t22.5 -18l15 71q9 49 36 88t76 61h-132q20 66 61 111t91.5 67t101.5 22q73 0 119.5 -35t46.5 -102q0 -22 -4 -42l-77 -384h-31l79 393q3 15 3 30q0 52 -36.5 85t-105.5 33q-37 0 -79 -17
t-78.5 -52.5t-55.5 -87.5h132l-5 -23q-50 -25 -74.5 -57t-36.5 -91l-24 -116q-22 -107 -112 -107q-31 0 -50 18.5zM98 32.5q19 18.5 25 46.5q2 10 2 15q0 21 -14 35t-35 14q-28 0 -51 -24t-23 -56q0 -22 12 -35.5t35 -13.5q30 0 49 18.5z" />
    <glyph glyph-name="uni0E21" unicode="&#xe21;" horiz-adv-x="558" 
d="M36.5 8.5q-13.5 18.5 -13.5 48.5q0 15 3 30q9 45 44.5 74.5t77.5 29.5q10 0 15 -1l45 220q-14 -13 -32.5 -19t-36.5 -6q-25 0 -45.5 16.5t-20.5 49.5q0 31 15 57t39.5 40.5t51.5 14.5q74 0 74 -67q0 -18 -4 -35l-56 -274q49 -9 99.5 -32t89 -51.5t53.5 -53.5l103 503h30
l-112 -553h-30q-12 33 -50.5 68t-89.5 61.5t-98 34.5l-15 -79q-8 -39 -32.5 -67t-60.5 -28q-30 0 -43.5 18.5zM195.5 428.5q21.5 18.5 26.5 45.5q2 12 2 18q0 22 -12 34.5t-37 12.5q-31 0 -52 -23.5t-21 -55.5q0 -22 13 -36t34 -14q25 0 46.5 18.5zM120.5 34.5
q14.5 19.5 21.5 50.5l16 83h-8q-46 0 -71.5 -30.5t-25.5 -78.5q0 -20 8 -32t24 -12q21 0 35.5 19.5z" />
    <glyph glyph-name="uni0E22" unicode="&#xe22;" horiz-adv-x="512" 
d="M58 176q7 34 33 67t72 45q-29 8 -48.5 34.5t-19.5 67.5q0 20 4 37q10 53 45 94.5t88 41.5q37 0 56 -17t19 -46q0 -12 -3 -26q-9 -45 -39.5 -67t-60.5 -22q-25 0 -45 9t-29 40q-4 -19 -4 -39q0 -47 27 -70.5t64 -23.5h73l-4 -23h-81q-50 0 -80 -33.5t-39 -75.5l-28 -143
h326l108 527h30l-112 -553h-388zM251.5 428.5q21.5 18.5 25.5 45.5q2 12 2 17q0 21 -12.5 34.5t-34.5 13.5q-30 0 -49 -18.5t-25 -46.5q-1 -4 -1 -12q0 -23 13.5 -37.5t35.5 -14.5q24 0 45.5 18.5z" />
    <glyph glyph-name="uni0E23" unicode="&#xe23;" horiz-adv-x="468" 
d="M205 9q-19 19 -19 50q0 6 2 20q10 45 40.5 66.5t60.5 21.5q18 0 33.5 -6t23.5 -18l27 139q4 16 4 32q0 36 -28.5 50t-92.5 14q-39 0 -104 -1.5t-77 -3.5l5 25q16 80 73.5 122.5t144.5 42.5q30 0 88 -12q50 -10 67 -10q12 0 21.5 3.5t25.5 14.5l7 -19q-11 -11 -27 -17.5
t-31 -6.5q-23 0 -67 11q-54 14 -87 14q-68 0 -118.5 -33.5t-68.5 -110.5q31 4 141 4q83 0 120.5 -18t37.5 -68q0 -19 -4 -38l-36 -180q-11 -51 -37 -79t-75 -28q-31 0 -50 19zM309 32.5q19 18.5 25 46.5q2 10 2 15q0 21 -13.5 35t-35.5 14q-28 0 -51 -24t-23 -56
q0 -22 12.5 -35.5t34.5 -13.5q30 0 49 18.5z" />
    <glyph glyph-name="uni0E24" unicode="&#xe24;" horiz-adv-x="521" 
d="M468 393q3 15 3 30q0 52 -36.5 85t-105.5 33q-37 0 -79 -17t-78.5 -52.5t-55.5 -87.5h103l-5 -23q-50 -25 -74.5 -57t-36.5 -91l-15 -70q27 24 67 24q25 0 46 -16t21 -49q0 -31 -15.5 -57t-40 -40.5t-51.5 -14.5q-71 0 -71 68q0 20 4 39l24 117q23 109 112 149h-103
q20 66 61 111t91.5 67t101.5 22q73 0 119.5 -35t46.5 -102q0 -22 -4 -42l-118 -580h-31zM172 38.5q22 24.5 22 55.5q0 22 -13.5 35.5t-33.5 13.5q-30 0 -53 -24.5t-23 -57.5q0 -22 12 -34.5t37 -12.5q30 0 52 24.5z" />
    <glyph glyph-name="uni0E25" unicode="&#xe25;" horiz-adv-x="503" 
d="M11 91q0 34 7 65q13 66 49 113.5t86 72.5t106 25q54 0 103 -30.5t59 -85.5l29 142q3 14 3 27q0 52 -40 86.5t-111 34.5q-56 0 -111.5 -26.5t-95.5 -82.5h-28q35 60 101.5 95.5t139.5 35.5q74 0 124.5 -35.5t50.5 -104.5q0 -20 -4 -39l-78 -384h-31l31 156q4 20 4 43
q0 46 -21.5 79t-56 50t-73.5 17q-77 0 -133.5 -51.5t-72.5 -131.5q-7 -30 -8 -57q13 30 40.5 46t52.5 16q26 0 47.5 -16t21.5 -50q0 -14 -2 -22q-8 -41 -35 -65t-67 -24q-87 0 -87 101zM152.5 38q21.5 24 21.5 55q0 22 -13 36t-33 14q-26 0 -47.5 -18.5t-26.5 -45.5
q-2 -12 -2 -18q0 -22 12 -34.5t37 -12.5q30 0 51.5 24z" />
    <glyph glyph-name="uni0E26" unicode="&#xe26;" horiz-adv-x="569" 
d="M516 393q3 15 3 30q0 52 -36.5 85t-105.5 33q-37 0 -79 -17t-78.5 -52.5t-55.5 -87.5h132l-5 -23q-50 -25 -74.5 -57t-36.5 -91l-24 -116q-22 -107 -112 -107q-31 0 -50 18.5t-19 49.5q0 14 2 21q9 45 40 66.5t61 21.5q18 0 33.5 -6t22.5 -18l15 71q9 49 36 88t76 61
h-132q20 66 61 111t91.5 67t101.5 22q73 0 119.5 -35t46.5 -102q0 -22 -4 -42l-118 -580h-31zM98 32.5q19 18.5 25 46.5q2 10 2 15q0 21 -14 35t-35 14q-28 0 -51 -24t-23 -56q0 -22 12 -35.5t35 -13.5q30 0 49 18.5z" />
    <glyph glyph-name="uni0E27" unicode="&#xe27;" horiz-adv-x="459" 
d="M215 8.5q-19 18.5 -19 49.5q0 14 2 21q9 45 40 66.5t61 21.5q18 0 33.5 -6t22.5 -18l55 271q3 14 3 26q0 49 -39.5 75t-100.5 26q-63 0 -118.5 -35t-75.5 -96h-26q24 74 86 113.5t138 39.5q73 0 120 -31t47 -91q0 -9 -4 -33l-64 -311q-21 -107 -111 -107q-31 0 -50 18.5z
M319 32.5q19 18.5 25 46.5q1 5 1 14q0 22 -13 36t-35 14q-28 0 -51 -24t-23 -56q0 -22 12 -35.5t35 -13.5q30 0 49 18.5z" />
    <glyph glyph-name="uni0E28" unicode="&#xe28;" horiz-adv-x="550" 
d="M542.5 555.5q-22.5 -23.5 -51.5 -42.5q34 -38 34 -103q0 -23 -7 -62l-70 -348h-30l72 357q5 21 5 48q0 62 -37 99t-112 37q-89 0 -145 -52t-73 -132q-7 -34 -9.5 -68t-3.5 -42q-3 -51 -8.5 -91t-20.5 -87l118 230q51 98 125 98q34 0 51.5 -18t17.5 -48q0 -28 -14 -54
t-38 -42t-54 -16q-26 0 -46 17t-19 51l-151 -287h-33q14 43 22 83q10 49 16 139q1 9 4.5 51t11.5 81q20 98 83.5 153.5t169.5 55.5q79 0 124 -34q26 14 44.5 33.5t25.5 36.5h29q-8 -20 -30.5 -43.5zM264 257q13 -14 34 -14q25 0 46.5 18.5t27.5 45.5q2 12 2 17q0 22 -12 35
t-38 13q-30 0 -51.5 -24t-21.5 -55q0 -22 13 -36z" />
    <glyph glyph-name="uni0E29" unicode="&#xe29;" horiz-adv-x="625" 
d="M51 26h69l79 384q-14 -13 -32.5 -19t-36.5 -6q-25 0 -45.5 16.5t-20.5 50.5q0 14 2 22q9 39 38 64t65 25q74 0 74 -67q0 -18 -4 -35l-88 -435h311l41 204q-42 -20 -87 -20q-61 0 -91.5 23.5t-30.5 65.5q0 15 3 30q7 34 32.5 56.5t54.5 22.5t44.5 -14.5t15.5 -41.5
q0 -7 -2 -21q-6 -28 -28.5 -53t-61.5 -25l-16 2q28 -26 86 -26q46 0 87 31l60 293h31l-52 -257q35 42 57 104h30q-38 -99 -96 -146l-51 -254h-442zM191.5 434.5q22.5 24.5 22.5 58.5q0 21 -12.5 33.5t-36.5 12.5q-26 0 -46 -19t-26 -46q-1 -5 -1 -13q0 -22 13.5 -36.5
t33.5 -14.5q30 0 52.5 24.5zM396 288q15 15 21 42q2 12 2 16q0 20 -9.5 30.5t-27.5 10.5q-21 0 -36.5 -15.5t-20.5 -41.5q-2 -12 -2 -17q0 -19 9.5 -29.5t26.5 -10.5q22 0 37 15z" />
    <glyph glyph-name="uni0E2A" unicode="&#xe2a;" horiz-adv-x="503" 
d="M505.5 554q-24.5 -25 -55.5 -43q33 -36 33 -89q0 -19 -4 -38l-78 -384h-31l31 156q4 20 4 43q0 46 -21.5 79t-56 50t-73.5 17q-77 0 -133.5 -51.5t-72.5 -131.5q-7 -30 -8 -57q13 30 40.5 46t52.5 16q26 0 47.5 -16t21.5 -50q0 -14 -2 -22q-8 -41 -35 -65t-67 -24
q-87 0 -87 101q0 34 7 65q13 66 49 113.5t86 72.5t106 25q54 0 103 -30.5t59 -85.5l29 142q3 14 3 27q0 52 -40 86.5t-111 34.5q-56 0 -111.5 -26.5t-95.5 -82.5h-28q35 60 101.5 95.5t139.5 35.5q76 0 123 -35q28 15 50 35t29 36h29q-9 -20 -33.5 -45zM52 61
q0 -22 12 -34.5t37 -12.5q30 0 51.5 24t21.5 55q0 22 -13 36t-33 14q-26 0 -47.5 -18.5t-26.5 -45.5q-2 -12 -2 -18z" />
    <glyph glyph-name="uni0E2B" unicode="&#xe2b;" horiz-adv-x="588" 
d="M581.5 544.5q19.5 -18.5 19.5 -48.5q0 -10 -3 -22q-5 -27 -22 -48t-41 -32q19 -16 19 -48q0 -7 -4 -29l-64 -317h-31l63 313q3 15 3 28q0 39 -32 39q-15 0 -27 -7t-27 -25l-289 -348h-31l84 410q-14 -13 -32.5 -19t-36.5 -6q-25 0 -45.5 16.5t-20.5 50.5q0 14 2 22
q9 39 38 64t65 25q74 0 74 -67q0 -18 -4 -35l-83 -413l254 308q23 28 45 40q-14 8 -22 23.5t-8 34.5q0 6 2 20q9 39 38.5 64t65.5 25q31 0 50.5 -18.5zM191.5 434.5q22.5 24.5 22.5 58.5q0 21 -12.5 33.5t-36.5 12.5q-26 0 -46 -19t-26 -46q-1 -5 -1 -13q0 -22 13.5 -36.5
t33.5 -14.5q30 0 52.5 24.5zM575 489q0 21 -13.5 35t-35.5 14q-28 0 -51 -24t-23 -56q0 -22 12.5 -35.5t34.5 -13.5q30 0 49 18.5t25 46.5q2 10 2 15z" />
    <glyph glyph-name="uni0E2C" unicode="&#xe2c;" horiz-adv-x="641" 
d="M669 673q2 -27 -4 -56l-125 -617h-31l-85 477l-278 -477h-31l84 410q-14 -13 -32.5 -19t-36.5 -6q-25 0 -45.5 16.5t-20.5 50.5q0 14 2 22q9 39 38 64t65 25q74 0 74 -67q0 -18 -4 -35l-78 -382l259 441h25l79 -441l111 541q3 11 3 21q-62 -54 -156 -54q-57 0 -86.5 21
t-29.5 54q0 6 2 18q9 44 52.5 69t110.5 25q50 0 83.5 -17t46.5 -50q20 35 30 79h28q-13 -66 -50 -113zM638 675q-6 37 -35.5 56t-79.5 19q-46 0 -81.5 -17.5t-43.5 -51.5q-1 -4 -1 -12q0 -26 21.5 -42t67.5 -16q95 0 152 64zM191.5 434.5q22.5 24.5 22.5 58.5
q0 21 -12.5 33.5t-36.5 12.5q-26 0 -46 -19t-26 -46q-1 -5 -1 -13q0 -22 13.5 -36.5t33.5 -14.5q30 0 52.5 24.5z" />
    <glyph glyph-name="uni0E2D" unicode="&#xe2d;" horiz-adv-x="513" 
d="M77 257q10 49 38 78t75 29q30 0 49 -18.5t19 -49.5q0 -14 -2 -21q-9 -45 -39.5 -67t-60.5 -22q-40 0 -58 25l-38 -185h325l75 367q2 8 2 24q0 52 -41.5 88t-113.5 36q-66 0 -126 -30t-82 -85h-28q26 64 90.5 100.5t151.5 36.5q75 0 127.5 -36.5t52.5 -105.5q0 -20 -4 -37
l-78 -384h-386zM208 235q23 24 23 56q0 22 -12 35.5t-35 13.5q-30 0 -49 -18.5t-25 -46.5q-1 -5 -1 -14q0 -22 13 -36t35 -14q28 0 51 24z" />
    <glyph glyph-name="uni0E2E" unicode="&#xe2e;" horiz-adv-x="513" 
d="M488 482q8 -19 8 -44q0 -20 -4 -37l-81 -401h-386l45 224q10 50 38 78.5t75 28.5q31 0 50 -19t19 -50q0 -6 -2 -20q-9 -45 -40 -67t-60 -22q-40 0 -59 25l-31 -152h325l79 384q3 14 3 26t-3 22q-44 -41 -102.5 -63t-117.5 -22q-64 0 -104.5 19.5t-40.5 55.5t31 62
t80 39.5t102 13.5q121 0 164 -58q32 43 42 93h28q-13 -64 -58 -116zM360.5 418.5q55.5 22.5 94.5 62.5q-18 31 -60.5 45.5t-94.5 14.5q-33 0 -72.5 -10t-68 -29.5t-28.5 -47.5q0 -27 32.5 -42.5t84.5 -15.5q57 0 112.5 22.5zM102 227q0 -21 13.5 -35t35.5 -14q24 0 45 18.5
t27 45.5q1 5 1 15q0 22 -12 36t-34 14q-31 0 -50 -18.5t-24 -46.5q-2 -10 -2 -15z" />
    <glyph glyph-name="uni0E2F" unicode="&#xe2f;" horiz-adv-x="406" 
d="M351 382q-25 -38 -70.5 -69.5t-99.5 -31.5q-59 0 -86.5 31t-27.5 79q0 19 5 42q10 53 43 91.5t85 38.5q37 0 56 -17t19 -46q0 -12 -3 -26q-9 -45 -39.5 -67t-59.5 -22q-25 0 -47 10.5t-28 41.5q-4 -24 -4 -37q0 -41 21 -69t68 -28q42 0 82 26t67.5 65.5t35.5 77.5l17 81
h31l-112 -553h-31zM225 434.5q23 24.5 23 55.5q0 21 -13 35t-35 14q-30 0 -48.5 -18.5t-24.5 -46.5q-1 -5 -1 -14q0 -22 13.5 -36t35.5 -14q27 0 50 24.5z" />
    <glyph glyph-name="uni0E30" unicode="&#xe30;" horiz-adv-x="350" 
d="M97.5 463.5q25.5 27.5 61.5 27.5q59 0 59 -50q0 -14 -2 -22q-6 -27 -27 -50t-59 -23q-2 0 -18 2q16 -8 34.5 -13t34.5 -5q57 0 104.5 45t62.5 118h27q-18 -90 -74 -137.5t-127 -47.5q-45 0 -73.5 21t-28.5 62q0 45 25.5 72.5zM101 402q0 -17 9.5 -26.5t24.5 -9.5
q20 0 35 13.5t20 38.5q2 12 2 16q0 17 -10 26.5t-26 9.5q-19 0 -33.5 -13.5t-19.5 -38.5q-2 -12 -2 -16zM42 191q26 27 62 27q59 0 59 -49q0 -11 -3 -23q-5 -27 -26 -50t-60 -23q-3 0 -17 2q16 -8 34.5 -13t34.5 -5q57 0 104 45t62 118h28q-18 -90 -74 -137.5t-128 -47.5
q-45 0 -73.5 21.5t-28.5 62.5q0 45 26 72zM45 130q0 -18 9.5 -27.5t25.5 -9.5q20 0 35 13.5t19 38.5q2 12 2 17q0 17 -9.5 26t-25.5 9q-19 0 -33.5 -13.5t-20.5 -38.5q-2 -12 -2 -15z" />
    <glyph glyph-name="uni0E31" unicode="&#xe31;" 
d="M-121.5 661.5q-34.5 25.5 -34.5 69.5t27 73.5t62 29.5q28 0 43.5 -14t15.5 -40q0 -11 -3 -23q-4 -27 -26 -52t-60 -25q-5 0 -9 1q27 -25 90 -25q38 0 78 19t72 57t47 94h28q-28 -94 -92.5 -142t-139.5 -48q-64 0 -98.5 25.5zM-50.5 720q16.5 21 16.5 55q0 38 -36 38
q-20 0 -35.5 -15.5t-21.5 -41.5q-1 -6 -1 -16q0 -20 9 -30.5t26 -10.5q26 0 42.5 21z" />
    <glyph glyph-name="uni0E32" unicode="&#xe32;" horiz-adv-x="394" 
d="M343 404q5 25 5 41q0 47 -28 71.5t-80 24.5q-49 0 -93 -29t-65 -86h-27q21 63 74.5 100t115.5 37q61 0 97 -27.5t36 -87.5q0 -19 -5 -47l-81 -401h-31z" />
    <glyph glyph-name="uni0E33" unicode="&#xe33;" horiz-adv-x="394" 
d="M-62 653.5q-17 17.5 -17 45.5q0 7 2 21q8 37 33.5 60.5t65.5 23.5q34 0 52 -17t18 -46q0 -44 -28.5 -74.5t-75.5 -30.5q-33 0 -50 17.5zM35.5 675.5q17.5 16.5 23.5 44.5q1 6 1 16q0 45 -42 45q-28 0 -47 -22t-19 -57q0 -20 11 -31.5t30 -11.5q25 0 42.5 16.5zM343 404
q5 25 5 41q0 47 -28 71.5t-80 24.5q-49 0 -93 -29t-65 -86h-27q21 63 74.5 100t115.5 37q61 0 97 -27.5t36 -87.5q0 -19 -5 -47l-81 -401h-31z" />
    <glyph glyph-name="uni0E34" unicode="&#xe34;" 
d="M-270 753q52 40 125 40q76 0 124 -34.5t54 -102.5h-373q18 57 70 97zM-2 680q-12 42 -52 66t-97 24q-49 0 -90 -25.5t-59 -64.5h298z" />
    <glyph glyph-name="uni0E35" unicode="&#xe35;" 
d="M-270 753q52 40 125 40q120 0 159 -76l24 117h30l-36 -178h-372q18 57 70 97zM-2 680q-12 42 -52 66t-97 24q-49 0 -90 -25.5t-59 -64.5h298z" />
    <glyph glyph-name="uni0E36" unicode="&#xe36;" 
d="M90 833q14 -14 14 -38q0 -4 -2 -16q-6 -30 -27.5 -49t-54.5 -19h-2q12 -24 15 -55h-373q18 57 70 97t125 40q65 0 108 -24q0 7 1 10q6 30 28.5 49t55.5 19q28 0 42 -14zM76 793q0 16 -8.5 24.5t-24.5 8.5q-20 0 -32.5 -12.5t-17.5 -34.5q-1 -5 -1 -14q0 -34 32 -34
q19 0 32 13t18 35q2 10 2 14zM-2 680q-12 42 -52 66t-97 24q-49 0 -90 -25.5t-59 -64.5h298z" />
    <glyph glyph-name="uni0E37" unicode="&#xe37;" 
d="M68 834l-36 -178h-372q18 57 70 97t125 40q54 0 92 -16l12 57h29l-15 -70q26 -18 41 -47l24 117h30zM-2 680q-12 42 -52 66t-97 24q-49 0 -90 -25.5t-59 -64.5h298z" />
    <glyph glyph-name="uni0E38" unicode="&#xe38;" 
d="M-172 -196q-25 -22 -61 -22q-24 0 -41.5 15.5t-17.5 44.5q0 40 28 66t67 26q36 0 52 -15.5t16 -40.5q0 -6 -2 -20l-37 -187h-31zM-185.5 -179.5q16.5 13.5 22.5 38.5q1 5 1 13q0 18 -11 27.5t-29 9.5q-22 0 -38 -12.5t-21 -37.5q-2 -12 -2 -16q0 -18 10.5 -27t29.5 -9
q21 0 37.5 13.5z" />
    <glyph glyph-name="uni0E39" unicode="&#xe39;" 
d="M-406 -303h53l22 108q-12 -10 -24.5 -14t-30.5 -4q-21 0 -37.5 13.5t-16.5 40.5q0 38 26.5 63t63.5 25q33 0 47.5 -15.5t14.5 -39.5q0 -7 -2 -19l-33 -158h130l48 237h30l-53 -263h-243zM-336 -173.5q18 16.5 18 43.5q0 18 -10.5 27t-25.5 9q-22 0 -40 -15.5t-18 -43.5
q0 -17 11 -27t27 -10q20 0 38 16.5z" />
    <glyph glyph-name="uni0E3A" unicode="&#xe3a;" 
d="M-180 -129.5q-8 7.5 -8 20.5q0 7 1 10q4 17 16 27.5t30 10.5q15 0 23 -7.5t8 -20.5q0 -21 -13 -34.5t-34 -13.5q-15 0 -23 7.5z" />
    <glyph glyph-name="uni0E3F" unicode="&#xe3f;" horiz-adv-x="531" 
d="M475 431.5q-40 -44.5 -99 -60.5v-4q127 -19 127 -128q0 -27 -6 -53q-18 -89 -80.5 -137.5t-153.5 -48.5h-20l-17 -82h-29l17 82h-230l2 14h26q58 0 65 33l124 606q3 17 -10 25t-42 8h-26l3 14h230l17 82h29l-17 -82q69 -2 108 -33.5t39 -90.5q0 -17 -5 -42
q-12 -58 -52 -102.5zM430 422.5q55 44.5 69 113.5q4 19 4 38q0 53 -38.5 77.5t-116.5 24.5h-112l-60 -298h126q73 0 128 44.5zM475 232q0 122 -168 122h-136l-67 -330h133q101 0 159 41.5t74 120.5q5 28 5 46z" />
    </font>
</defs>
</svg>
