<?xml version="1.0" standalone="no"?>
<!DOCTYPE svg PUBLIC "-//W3C//DTD SVG 1.1//EN" "http://www.w3.org/Graphics/SVG/1.1/DTD/svg11.dtd" >
<svg xmlns="http://www.w3.org/2000/svg" xmlns:xlink="http://www.w3.org/1999/xlink" version="1.1">
<metadata>
Created by FontForge 20170731 at Fri May  5 14:19:02 2017
 By Aleksey,,,
Copyright (c) 2015, Cadson Demak (info@cadsondemak.com)
</metadata>
<defs>
<font id="Taviraj-Light" horiz-adv-x="0" >
  <font-face 
    font-family="Taviraj Light"
    font-weight="300"
    font-stretch="normal"
    units-per-em="1000"
    panose-1="0 0 4 0 0 0 0 0 0 0"
    ascent="750"
    descent="-250"
    x-height="470"
    cap-height="700"
    bbox="-603 -479 1266 1107"
    underline-thickness="50"
    underline-position="-150"
    unicode-range="U+000D-FB02"
  />
<missing-glyph horiz-adv-x="591" 
d="M86 714h418v-714h-418v714zM467 33v647h-345v-647h345z" />
    <glyph glyph-name="fi" unicode="fi" horiz-adv-x="646" 
d="M43 21h16q24 0 39 7.5t15 22.5v386h-90v33h90v81q0 88 51 129.5t169 41.5q93 0 148.5 -28t55.5 -78q0 -22 -11.5 -33t-29.5 -11q-16 0 -25.5 7.5t-9.5 21.5q0 4 1 9.5t1 12.5q0 32 -36.5 49t-92.5 17q-68 0 -108.5 -26t-40.5 -79v-114h323l12 4h23v-423q0 -15 15 -22.5
t38 -7.5h16v-21h-211v21h16q23 0 38 7.5t15 22.5v386h-285v-386q0 -15 15 -22.5t38 -7.5h17v-21h-212v21z" />
    <glyph glyph-name="fl" unicode="fl" horiz-adv-x="646" 
d="M43 21h16q24 0 39 7.5t15 22.5v386h-90v33h90v80q0 89 36.5 130.5t127.5 41.5q44 0 89 -9t79 -22l75 26h23v-666q0 -15 15 -22.5t38 -7.5h16v-21h-211v21h16q23 0 38 7.5t15 22.5v574q-24 25 -64 44t-101 19q-50 0 -76 -15t-35 -44t-9 -80v-79h143v-33h-143v-386
q0 -15 15 -22.5t38 -7.5h17v-21h-212v21z" />
    <glyph glyph-name="ru_lakkhangyaothai" unicode="&#xe24;&#xe45;" horiz-adv-x="890" 
d="M775.5 523.5q51.5 -39.5 51.5 -126.5v-593h-74v596q0 64 -32 95.5t-91 31.5q-46 0 -80.5 -27t-45.5 -79q4 -16 4 -40v-577h-74v591q0 35 -19 65.5t-56.5 48.5t-88.5 18q-40 0 -79 -16.5t-67 -49.5t-36 -79h129v-31q-44 -22 -62 -51t-18 -81v-59q16 15 49 15
q31 0 59.5 -22.5t28.5 -68.5q0 -42 -28.5 -68t-70.5 -26q-112 0 -112 120v105q0 45 20 81.5t65 56.5h-107q6 70 41.5 117.5t87.5 70t110 22.5q63 0 114 -19.5t81 -58.5q25 37 67 57.5t93 20.5q89 0 140.5 -39.5zM135 129q-18 -18 -18 -45q0 -28 16 -46t47 -18
q28 0 44.5 18.5t16.5 45.5t-17.5 45t-43.5 18q-27 0 -45 -18z" />
    <glyph glyph-name="lu_lakkhangyaothai" unicode="&#xe26;&#xe45;" horiz-adv-x="934" 
d="M819.5 523.5q51.5 -39.5 51.5 -126.5v-593h-73v596q0 64 -32 95.5t-91 31.5q-46 0 -80.5 -26t-45.5 -78q5 -22 5 -42v-577h-74v591q0 35 -19.5 65.5t-57 48.5t-88.5 18q-40 0 -79 -16.5t-67 -49.5t-36 -79h154v-31q-43 -22 -59 -54t-16 -89v-107q0 -53 -28 -82t-84 -29
q-42 0 -71 26t-29 68q0 46 28.5 68.5t60.5 22.5q31 0 49 -15v60q0 97 81 133h-133q7 70 42.5 117.5t87.5 70t110 22.5q62 0 113 -19t81 -57q24 36 66.5 56t93.5 20q88 0 139.5 -39.5zM141.5 38q16.5 18 16.5 46q0 27 -18 45t-45 18q-26 0 -43.5 -18t-17.5 -45t16.5 -45.5
t44.5 -18.5q30 0 46.5 18z" />
    <glyph glyph-name=".notdef" horiz-adv-x="591" 
d="M86 714h418v-714h-418v714zM467 33v647h-345v-647h345z" />
    <glyph glyph-name=".null" horiz-adv-x="495" 
 />
    <glyph glyph-name="nonmarkingreturn" unicode="&#xd;" horiz-adv-x="257" 
 />
    <glyph glyph-name="space" unicode=" " horiz-adv-x="257" 
 />
    <glyph glyph-name="exclam" unicode="!" horiz-adv-x="266" 
d="M92 634l-1 17q0 31 8.5 45t34.5 14q25 0 33.5 -14t8.5 -45l-1 -17l-23 -512h-36zM98 2.5q-13 12.5 -13 34.5t13.5 35t35.5 13t35 -13t13 -35t-13 -34.5t-35 -12.5q-23 0 -36 12.5z" />
    <glyph glyph-name="quotedbl" unicode="&#x22;" horiz-adv-x="382" 
d="M74 651q0 37 7.5 55t32.5 18q23 0 31.5 -17.5t8.5 -51.5l-25 -215h-32zM228 651q0 37 7.5 55t32.5 18q24 0 32 -17.5t8 -51.5l-25 -215h-32z" />
    <glyph glyph-name="numbersign" unicode="#" horiz-adv-x="831" 
d="M616 474l-58 -250h172v-35h-180l-47 -199h-55l46 199h-229l-46 -199h-56l47 199h-176v35h184l58 250h-178v35h187l43 185h55l-43 -185h229l43 185h56l-43 -185h168v-35h-177zM561 474h-229l-58 -250h229z" />
    <glyph glyph-name="dollar" unicode="$" horiz-adv-x="563" 
d="M460.5 43q-62.5 -51 -162.5 -53v-85h-38v87q-47 5 -83 20t-72 37q-21 13 -26 13q-9 0 -9 -17v-44h-31v185h24q5 -45 35.5 -82t76.5 -58t94 -21q81 0 129 39t48 107q0 42 -25 73t-61.5 52t-99.5 49q-68 30 -108.5 53.5t-69 60.5t-28.5 89q0 76 56 117t150 45v78h38v-79
q42 -3 73 -15.5t65 -30.5q17 -10 20 -10q7 0 7 11v42h31v-185h-24q-7 70 -56.5 111.5t-122.5 41.5q-77 0 -119 -32t-42 -86q0 -37 23 -64.5t57.5 -46t93.5 -43.5q72 -31 115 -55.5t73.5 -65t30.5 -100.5q0 -87 -62.5 -138z" />
    <glyph glyph-name="percent" unicode="%" horiz-adv-x="882" 
d="M140 8l571 709l30 -25l-573 -708zM80.5 376q-46.5 50 -46.5 139t47 139.5t135 50.5t134.5 -50.5t46.5 -139.5t-46.5 -139t-134.5 -50q-89 0 -135.5 50zM304 409q28 46 28 106t-28 106.5t-88 46.5t-88 -46.5t-28 -106.5t28 -106t88 -46t88 46zM531.5 40
q-47.5 51 -47.5 140q0 88 47.5 138.5t135.5 50.5t134.5 -50.5t46.5 -138.5q0 -89 -46.5 -140t-134.5 -51t-135.5 51zM754.5 73.5q27.5 46.5 27.5 106.5t-27.5 106t-87.5 46t-88 -46.5t-28 -105.5q0 -60 28 -106.5t88 -46.5t87.5 46.5z" />
    <glyph glyph-name="ampersand" unicode="&#x26;" horiz-adv-x="721" 
d="M108.5 38q-63.5 48 -63.5 131q0 49 24 87.5t60 66.5t92 61q-46 46 -72.5 96.5t-26.5 88.5q0 67 45 103.5t123 36.5q71 0 114.5 -33.5t43.5 -99.5q0 -60 -40 -102t-112 -86q59 -64 174 -178l65 -65q59 77 74 179h41q-17 -120 -90 -205q28 -27 85 -86l32 -33h-88l-77 78
q-46 -42 -106 -65t-131 -23q-103 0 -166.5 48zM371.5 488.5q33.5 36.5 33.5 87.5q0 47 -28.5 73t-77.5 26t-77.5 -26t-28.5 -74q0 -72 82 -162q63 39 96.5 75.5zM394.5 44.5q51.5 20.5 91.5 59.5q-98 98 -149 150.5t-87 94.5q-62 -42 -97 -82.5t-35 -94.5q0 -71 48.5 -109.5
t117.5 -38.5q59 0 110.5 20.5z" />
    <glyph glyph-name="quotesingle" unicode="'" horiz-adv-x="228" 
d="M74 651q0 37 7.5 55t32.5 18q23 0 31.5 -17.5t8.5 -51.5l-25 -215h-32z" />
    <glyph glyph-name="parenleft" unicode="(" horiz-adv-x="259" 
d="M77.5 48q-41.5 109 -41.5 238t42 241t125 196l28 -7q-135 -182 -135 -429q0 -242 134 -426l-27 -6q-84 84 -125.5 193z" />
    <glyph glyph-name="parenright" unicode=")" horiz-adv-x="259" 
d="M29 -139q134 182 134 426q0 249 -135 429l28 7q83 -84 125 -196t42 -241q0 -128 -42 -237.5t-125 -193.5z" />
    <glyph glyph-name="asterisk" unicode="*" horiz-adv-x="520" 
d="M230.5 332.5q-11.5 12.5 -11.5 32.5q0 24 12 46q8 17 12.5 35t5.5 50q-28 -15 -44 -30.5t-32 -35.5q-14 -18 -23.5 -25t-27.5 -7q-14 0 -26 11.5t-12 27.5t11 29t27 15q7 1 27 4t42 10.5t47 20.5q-64 32 -108 32q-18 0 -32 14.5t-14 32.5q0 16 12 27.5t27 11.5
q18 0 27.5 -7t21.5 -23q13 -19 29.5 -35t46.5 -33q0 34 -4.5 52.5t-13.5 33.5q-6 11 -8.5 20.5t-2.5 23.5q0 21 11 33.5t30 12.5q18 0 29.5 -12.5t11.5 -33.5q0 -14 -2.5 -22.5t-9.5 -22.5q-9 -19 -13.5 -36t-4.5 -49q30 17 46.5 33t29.5 35q12 16 21.5 23t27.5 7
q15 0 27.5 -11.5t12.5 -27.5q0 -18 -14 -32.5t-33 -14.5q-23 0 -48 -7.5t-59 -24.5q30 -16 52 -22.5t39 -9t24 -3.5q16 -2 27.5 -15t11.5 -29t-12.5 -27.5t-26.5 -11.5q-18 0 -28 7.5t-23 24.5q-15 20 -31 35.5t-44 30.5q1 -34 5.5 -52t12.5 -34q6 -10 9 -20t3 -25
q0 -20 -11.5 -32.5t-29.5 -12.5t-29.5 12.5z" />
    <glyph glyph-name="plus" unicode="+" horiz-adv-x="574" 
d="M251 320h-192v42h192v201h73v-201h191v-42h-191v-200h-73v200z" />
    <glyph glyph-name="comma" unicode="," horiz-adv-x="237" 
d="M75 -115q21 25 30.5 46.5t9.5 49.5q0 8 -16 15q-15 9 -23.5 18.5t-8.5 29.5t14 33t36 13q29 0 44.5 -20t15.5 -53q0 -35 -23 -78t-54 -72z" />
    <glyph glyph-name="hyphen" unicode="-" horiz-adv-x="360" 
d="M41 299h278v-45h-278v45z" />
    <glyph glyph-name="period" unicode="." horiz-adv-x="237" 
d="M81 4q-14 14 -14 37t14 36.5t38 13.5q23 0 37 -13.5t14 -36.5t-14 -37t-37 -14q-24 0 -38 14z" />
    <glyph glyph-name="slash" unicode="/" horiz-adv-x="367" 
d="M292 709h44l-261 -709h-44z" />
    <glyph glyph-name="zero" unicode="0" horiz-adv-x="565" 
d="M100.5 84q-56.5 94 -56.5 266q0 360 238 360t238 -360q0 -172 -56.5 -266t-181.5 -94t-181.5 94zM407 109q38 85 38 241t-38 241t-125 85q-86 0 -124 -85t-38 -241t38 -241t124 -85q87 0 125 85z" />
    <glyph glyph-name="one" unicode="1" horiz-adv-x="565" 
d="M154 22h36q59 0 59 35v599l-131 -58v40l207 84v-665q0 -18 14.5 -26.5t44.5 -8.5h36v-22h-266v22z" />
    <glyph glyph-name="two" unicode="2" horiz-adv-x="565" 
d="M48 49q13 52 43.5 95t66.5 75.5t89 73.5q54 42 89.5 75.5t59.5 76.5t24 93q0 61 -35.5 99.5t-114.5 38.5q-59 0 -94.5 -25.5t-35.5 -68.5q0 -14 -9.5 -24t-27.5 -10q-17 0 -27.5 9.5t-10.5 28.5q0 33 27.5 61.5t76 45.5t107.5 17q98 0 157.5 -43.5t59.5 -135.5
q0 -55 -27 -100.5t-65.5 -79t-103.5 -80.5q-73 -52 -119.5 -98.5t-63.5 -104.5v-18h313q23 0 36 24t22 67h20l-11 -141h-446v49z" />
    <glyph glyph-name="three" unicode="3" horiz-adv-x="565" 
d="M159.5 6q-48.5 16 -76.5 44t-28 61q0 19 11 29.5t28 10.5q18 0 27 -10t9 -23q0 -43 37.5 -68.5t96.5 -25.5q74 0 118.5 48t44.5 126q0 68 -46 112t-117 44h-75v36h75q50 0 84 23.5t50 59.5t16 73q0 58 -36 94t-106 36q-59 0 -94.5 -25.5t-35.5 -68.5q0 -14 -9.5 -24
t-27.5 -10q-17 0 -27.5 10t-10.5 30q0 35 27.5 62.5t75.5 43.5t108 16q88 0 148 -41.5t60 -129.5q0 -59 -38 -105.5t-96 -58.5v-4q58 -12 103.5 -55t45.5 -116q0 -107 -67.5 -158.5t-166.5 -51.5q-59 0 -107.5 16z" />
    <glyph glyph-name="four" unicode="4" horiz-adv-x="565" 
d="M259 22h36q30 0 44.5 8.5t14.5 26.5v116h-321v47l316 482h81v-486h106l-11 -43h-95v-116q0 -35 60 -35h35v-22h-266v22zM354 216v427l-277 -427h277z" />
    <glyph glyph-name="five" unicode="5" horiz-adv-x="565" 
d="M157.5 6.5q-47.5 16.5 -73.5 42t-26 52.5q0 21 9 32t24 11q26 0 31 -32q5 -43 43 -65.5t94 -22.5q78 0 121.5 54.5t43.5 136.5q0 79 -37.5 132.5t-113.5 53.5q-94 0 -166 -74l-28 11l39 362h285q18 0 28 8.5t14 28.5h22l-8 -86h-306l-29 -267q66 52 160 52
q111 0 163 -63.5t52 -157.5q0 -62 -25 -113t-77.5 -81.5t-129.5 -30.5q-62 0 -109.5 16.5z" />
    <glyph glyph-name="six" unicode="6" horiz-adv-x="565" 
d="M53 305q0 199 63 302t184 103q58 0 100 -18.5t63.5 -47t21.5 -58.5q0 -20 -9.5 -30.5t-26.5 -10.5q-33 0 -33 37q0 45 -30.5 69.5t-87.5 24.5q-76 0 -123.5 -84t-48.5 -267q22 60 72 89.5t107 29.5q61 0 108 -27t73.5 -77t26.5 -118q0 -107 -59 -169.5t-171 -62.5
q-230 0 -230 315zM398 76q40 52 40 136q0 87 -38 142.5t-111 55.5q-44 0 -78.5 -25t-54 -68.5t-19.5 -98.5q0 -81 39.5 -137.5t108.5 -56.5q73 0 113 52z" />
    <glyph glyph-name="seven" unicode="7" horiz-adv-x="565" 
d="M173 6q-10 9 -10 26q0 148 76.5 315.5t191.5 303.5h-310q-19 0 -30.5 -22.5t-12.5 -51.5h-23v123h450v-27q-140 -180 -197 -326.5t-65 -306.5q-1 -21 -11 -32t-34 -11q-15 0 -25 9z" />
    <glyph glyph-name="eight" unicode="8" horiz-adv-x="565" 
d="M474.5 300q39.5 -40 39.5 -112q0 -88 -59.5 -143t-174.5 -55q-113 0 -171.5 53.5t-58.5 140.5q0 65 38 115t98 75q-54 28 -83.5 66.5t-29.5 99.5q0 80 57 125t154 45q94 0 151 -43.5t57 -122.5q0 -57 -35.5 -104t-92.5 -70q71 -30 110.5 -70zM164.5 473
q24.5 -30 59.5 -47.5t98 -40.5q56 21 86.5 64t30.5 96q0 63 -43 97t-107 34q-66 0 -107.5 -32.5t-41.5 -93.5q0 -47 24.5 -77zM357.5 41.5q39.5 17.5 63.5 52.5t24 83q0 43 -23 72.5t-57 47.5t-92 40l-45 18q-52 -21 -86.5 -69t-34.5 -105q0 -51 23.5 -86.5t62 -53
t81.5 -17.5q44 0 83.5 17.5z" />
    <glyph glyph-name="nine" unicode="9" horiz-adv-x="565" 
d="M164 8.5q-42 18.5 -63.5 47t-21.5 58.5q0 20 9.5 30t26.5 10q33 0 33 -37q0 -44 30.5 -68.5t87.5 -24.5q76 0 123.5 83.5t48.5 266.5q-22 -60 -75.5 -91.5t-110.5 -31.5q-92 0 -146.5 62t-54.5 165q0 107 59.5 169.5t170.5 62.5q230 0 230 -316q0 -199 -63 -301.5
t-184 -102.5q-58 0 -100 18.5zM350.5 312.5q35.5 25.5 56 70t20.5 98.5q0 81 -39.5 137.5t-108.5 56.5q-73 0 -113 -52t-40 -136q0 -88 36.5 -144t108.5 -56q44 0 79.5 25.5z" />
    <glyph glyph-name="colon" unicode=":" horiz-adv-x="237" 
d="M81 414q-14 14 -14 37q0 22 14 36t38 14q23 0 37 -14t14 -36q0 -23 -14 -37t-37 -14q-24 0 -38 14zM81 4q-14 14 -14 37t14 36.5t38 13.5q23 0 37 -13.5t14 -36.5t-14 -37t-37 -14q-24 0 -38 14z" />
    <glyph glyph-name="semicolon" unicode=";" horiz-adv-x="237" 
d="M81 414q-14 14 -14 37q0 22 14 36t38 14q23 0 37 -14t14 -36q0 -23 -14 -37t-37 -14q-24 0 -38 14zM75 -115q21 25 30.5 46.5t9.5 49.5q0 8 -16 15q-15 9 -23.5 18.5t-8.5 29.5t14 33t36 13q29 0 44.5 -20t15.5 -53q0 -35 -23 -78t-54 -72z" />
    <glyph glyph-name="less" unicode="&#x3c;" horiz-adv-x="574" 
d="M46 317v29l477 246v-49l-406 -212l406 -212v-48z" />
    <glyph glyph-name="equal" unicode="=" horiz-adv-x="574" 
d="M52 435h470v-42h-470v42zM52 244h470v-42h-470v42z" />
    <glyph glyph-name="greater" unicode="&#x3e;" horiz-adv-x="574" 
d="M49 119l405 212l-405 212v49l478 -246v-29l-478 -246v48z" />
    <glyph glyph-name="question" unicode="?" horiz-adv-x="453" 
d="M168 194q0 43 13.5 77.5t33 59.5t52.5 61q42 45 62.5 78t20.5 76q0 59 -31.5 94.5t-100.5 35.5q-53 0 -86.5 -26.5t-33.5 -67.5q0 -14 -8 -24t-26 -10q-36 0 -36 38q0 32 24.5 60.5t69 46t100.5 17.5q87 0 143.5 -40t56.5 -128q0 -35 -14 -65t-34 -52.5t-54 -54.5
q-35 -34 -55.5 -57.5t-35 -54.5t-14.5 -69q0 -14 2 -28h-46q-3 13 -3 33zM156 3q-13 13 -13 35t13 35t35 13t35.5 -13t13.5 -35t-13.5 -35t-35.5 -13t-35 13z" />
    <glyph glyph-name="at" unicode="@" horiz-adv-x="793" 
d="M194.5 -13q-78.5 43 -119 120t-40.5 178q0 108 46.5 195.5t132.5 138t201 50.5q98 0 175 -39.5t120 -112t43 -168.5q0 -60 -19 -110.5t-53.5 -80.5t-78.5 -30q-35 0 -64 21.5t-33 59.5q-17 -40 -57 -60.5t-81 -20.5q-70 0 -110 42t-40 117q0 56 23.5 103t67.5 74.5
t104 27.5q35 0 72 -8t67 -23l-19 -234q-2 -30 19.5 -48t50.5 -18q30 0 55.5 24t40 67t14.5 98q0 85 -37.5 149.5t-103.5 100t-151 35.5q-102 0 -179 -44t-118.5 -122.5t-41.5 -180.5q0 -143 77.5 -226t229.5 -83q105 0 197 38v-37q-97 -36 -202 -36q-110 0 -188.5 43z
M449 193.5q29 31.5 34 82.5l13 162q-39 16 -82 16q-60 0 -98 -47t-38 -122q0 -59 25 -91t72 -32q45 0 74 31.5z" />
    <glyph glyph-name="A" unicode="A" horiz-adv-x="714" 
d="M709 22v-22h-231v22h15q21 0 39 7t14 18l-61 170h-285l-56 -151q-2 -8 -2 -10q0 -15 17 -24.5t36 -9.5h17v-22h-207v22h15q20 0 41 10.5t27 24.5l237 629l56 26l247 -655q6 -16 25.5 -25.5t38.5 -9.5h17zM473 252l-128 356l-132 -356h260z" />
    <glyph glyph-name="B" unicode="B" horiz-adv-x="590" 
d="M20 22h28q30 0 44.5 8.5t14.5 26.5v585q0 18 -14.5 26.5t-44.5 8.5h-28v23h293q99 0 152 -42.5t53 -123.5q0 -58 -33.5 -103t-92.5 -61v-3q94 -14 131 -63.5t37 -115.5q0 -90 -56.5 -139t-161.5 -49h-322v22zM293 383q68 0 109.5 41.5t41.5 108.5q0 68 -40.5 100
t-122.5 32h-98v-282h110zM304 35q92 0 137.5 40t45.5 116q0 80 -46.5 119t-144.5 39h-113v-314h121z" />
    <glyph glyph-name="C" unicode="C" horiz-adv-x="658" 
d="M128 84q-83 94 -83 266q0 113 39 194t113.5 123.5t176.5 42.5q63 0 110.5 -18.5t79.5 -41.5q8 -5 9 -5q9 0 9 17v43h31v-186h-24q-7 72 -63.5 113.5t-138.5 41.5q-129 0 -197.5 -87.5t-68.5 -236.5q0 -150 64 -237.5t193 -87.5q70 0 132 36.5t84 108.5h33
q-18 -85 -88.5 -132.5t-173.5 -47.5q-154 0 -237 94z" />
    <glyph glyph-name="D" unicode="D" horiz-adv-x="669" 
d="M19 22h29q59 0 59 35v585q0 35 -59 35h-29v23h305q151 0 227.5 -90t76.5 -260q0 -171 -77 -260.5t-228 -89.5h-304v22zM321 33q115 0 173 83.5t58 233.5t-57.5 233t-171.5 83h-140v-633h138z" />
    <glyph glyph-name="E" unicode="E" horiz-adv-x="591" 
d="M553 175l-16 -175h-520v22h28q60 0 60 35v585q0 35 -60 35h-28v23h521v-167h-22q-4 52 -20 92t-61 40h-254v-278h189q30 0 39 24t13 75h21v-233h-21q-4 51 -13 75t-39 24h-189v-317h265q41 0 60.5 43t24.5 97h22z" />
    <glyph glyph-name="F" unicode="F" horiz-adv-x="559" 
d="M538 700v-167h-22q-4 52 -20 92t-61 40h-254v-304h171q30 0 39 24t13 75h21v-233h-21q-4 51 -13 75t-39 24h-171v-269q0 -18 14.5 -26.5t44.5 -8.5h28v-22h-251v22h29q59 0 59 35v585q0 35 -59 35h-29v23h521z" />
    <glyph glyph-name="G" unicode="G" horiz-adv-x="698" 
d="M128 84q-83 94 -83 266q0 113 39.5 194t114 123.5t177.5 42.5q57 0 109 -18t80 -42q4 -4 11 -4q9 0 9 16v43h31v-186h-24q-8 72 -65 113.5t-139 41.5q-128 0 -197.5 -88t-69.5 -236q0 -150 64 -237.5t193 -87.5q47 0 96 12t83 42v202q0 28 -24.5 38.5t-72.5 11.5v20h229
v-18h-8q-23 0 -33.5 -7t-14 -25.5t-3.5 -56.5v-174q-50 -39 -111 -59.5t-154 -20.5q-154 0 -237 94z" />
    <glyph glyph-name="H" unicode="H" horiz-adv-x="757" 
d="M659.5 668.5q-14.5 -8.5 -14.5 -26.5v-585q0 -18 14.5 -26.5t44.5 -8.5h28v-22h-251v22h28q60 0 60 35v297h-381v-297q0 -35 59 -35h29v-22h-251v22h28q30 0 44.5 8.5t14.5 26.5v585q0 18 -14.5 26.5t-44.5 8.5h-28v23h251v-23h-29q-59 0 -59 -35v-253h381v253
q0 35 -60 35h-28v23h251v-23h-28q-30 0 -44.5 -8.5z" />
    <glyph glyph-name="I" unicode="I" horiz-adv-x="307" 
d="M28 22h29q59 0 59 35v585q0 35 -59 35h-29v23h251v-23h-28q-30 0 -44.5 -8.5t-14.5 -26.5v-585q0 -18 14.5 -26.5t44.5 -8.5h28v-22h-251v22z" />
    <glyph glyph-name="J" unicode="J" horiz-adv-x="349" 
d="M31 -95q61 11 93.5 56.5t32.5 117.5v563q0 18 -14.5 26.5t-44.5 8.5h-28v23h251v-23h-29q-59 0 -59 -35v-563q0 -92 -54 -142.5t-144 -50.5z" />
    <glyph glyph-name="K" unicode="K" horiz-adv-x="674" 
d="M657 22v-22h-138l-329 333l-2 -2v-274q0 -35 59 -35h29v-22h-251v22h28q30 0 44.5 8.5t14.5 26.5v585q0 18 -14.5 26.5t-44.5 8.5h-28v23h251v-23h-29q-59 0 -59 -35v-257l297 260q6 8 6 13q0 19 -39 19h-15v23h189v-23h-18q-20 0 -32 -6t-27 -19l-309 -274l313 -316
q20 -20 35.5 -30t39.5 -10h29z" />
    <glyph glyph-name="L" unicode="L" horiz-adv-x="573" 
d="M26 22h28q60 0 60 35v585q0 35 -60 35h-28v23h251v-23h-28q-30 0 -44.5 -8.5t-14.5 -26.5v-569q0 -38 60 -38h194q40 0 60.5 47.5t25.5 96.5h23l-16 -179h-511v22z" />
    <glyph glyph-name="M" unicode="M" horiz-adv-x="884" 
d="M25 22h28q30 0 44.5 8.5t14.5 26.5v585q0 18 -14.5 26.5t-44.5 8.5h-28v23h172l241 -549l243 549h178v-23h-28q-30 0 -44.5 -8.5t-14.5 -26.5v-585q0 -18 14.5 -26.5t44.5 -8.5h28v-22h-251v22h28q60 0 60 35v570l-248 -550h-46l-246 551v-571q0 -35 59 -35h29v-22h-219
v22z" />
    <glyph glyph-name="N" unicode="N" horiz-adv-x="746" 
d="M25 22h28q30 0 44.5 8.5t14.5 26.5v585q0 18 -14.5 26.5t-44.5 8.5h-28v23h176l388 -599v541q0 18 -14.5 26.5t-44.5 8.5h-28v23h219v-23h-29q-59 0 -59 -35v-642h-49l-428 655v-598q0 -35 59 -35h29v-22h-219v22z" />
    <glyph glyph-name="O" unicode="O" horiz-adv-x="739" 
d="M124 84q-86 94 -86 266q0 171 86 265.5t246 94.5q159 0 245 -94.5t86 -265.5q0 -172 -86 -266t-245 -94q-160 0 -246 94zM560.5 113q64.5 87 64.5 237t-64.5 237t-191.5 87q-125 0 -190 -87t-65 -237t65 -237t190 -87q127 0 191.5 87z" />
    <glyph glyph-name="P" unicode="P" horiz-adv-x="582" 
d="M25 22h28q30 0 44.5 8.5t14.5 26.5v585q0 18 -14.5 26.5t-44.5 8.5h-28v23h328q210 0 210 -212q0 -99 -50 -155.5t-160 -56.5h-165v-219q0 -35 59 -35h29v-22h-251v22zM341 311q76 0 112 47t36 130q0 84 -36 130.5t-112 46.5h-153v-354h153z" />
    <glyph glyph-name="Q" unicode="Q" horiz-adv-x="739" 
d="M629 -87q24 22 35 61h19q0 -16 -1 -23q-5 -46 -40 -78t-89 -32q-40 0 -72.5 14t-81.5 42q-35 21 -58.5 32t-46.5 11q-42 0 -95 -35l-8 14q30 25 56 43t58 32q-129 19 -198 111t-69 245q0 171 86 265.5t246 94.5q159 0 245 -94.5t86 -265.5q0 -172 -86 -266t-245 -94h-20
q-23 -12 -39 -24h12q28 0 55.5 -9.5t65.5 -27.5q43 -19 70.5 -28.5t56.5 -9.5q34 0 58 22zM179 113q65 -87 190 -87q127 0 191.5 87t64.5 237t-64.5 237t-191.5 87q-125 0 -190 -87t-65 -237t65 -237z" />
    <glyph glyph-name="R" unicode="R" horiz-adv-x="649" 
d="M521 94q12 -30 34.5 -51t57.5 -21v-22h-67q-44 0 -70.5 26.5t-40.5 76.5l-12 47q-13 54 -25.5 88t-34.5 54h-15h-160v-235q0 -35 59 -35h29v-22h-251v22h28q30 0 44.5 8.5t14.5 26.5v585q0 18 -14.5 26.5t-44.5 8.5h-28v23h323q112 0 162 -53t50 -151q0 -163 -135 -196
q28 -15 41.5 -44.5t28.5 -81.5q14 -50 26 -80zM486 496q0 169 -150 169h-148v-338h148q150 0 150 169z" />
    <glyph glyph-name="S" unicode="S" horiz-adv-x="563" 
d="M192 6.5q-42 16.5 -88 42.5q-19 13 -25 13q-9 0 -9 -17v-44h-31v185h24q5 -45 35.5 -82t76.5 -58t94 -21q81 0 129 39t48 107q0 42 -25 73t-61.5 52t-99.5 49q-68 30 -108.5 53.5t-69 60.5t-28.5 89q0 79 60.5 120.5t161.5 41.5q50 0 86.5 -13.5t73.5 -33.5
q17 -10 20 -10q7 0 7 11v42h31v-185h-24q-7 70 -56.5 111.5t-122.5 41.5q-77 0 -119 -32t-42 -86q0 -37 23 -64.5t57.5 -46t93.5 -43.5q72 -31 115 -55.5t73.5 -65t30.5 -100.5q0 -59 -30 -102t-83 -66t-119 -23q-57 0 -99 16.5z" />
    <glyph glyph-name="T" unicode="T" horiz-adv-x="631" 
d="M190 22h28q60 0 60 35v608h-142q-40 0 -54.5 -45.5t-17.5 -98.5h-22v179h547v-179h-22q-3 53 -17.5 98.5t-54.5 45.5h-141v-608q0 -18 14.5 -26.5t44.5 -8.5h28v-22h-251v22z" />
    <glyph glyph-name="U" unicode="U" horiz-adv-x="724" 
d="M173 38.5q-66 48.5 -66 161.5v442q0 18 -15 26.5t-39 8.5h-21v23h226v-23h-21q-24 0 -39 -8.5t-15 -26.5v-448q0 -95 52.5 -132t146.5 -37q82 0 136.5 38t54.5 131v448q0 18 -15 26.5t-39 8.5h-20v23h193v-23h-21q-24 0 -39 -8.5t-15 -26.5v-442q0 -111 -64.5 -160.5
t-187.5 -49.5q-126 0 -192 48.5z" />
    <glyph glyph-name="V" unicode="V" horiz-adv-x="701" 
d="M90 643q-6 15 -25.5 24.5t-38.5 9.5h-16v23h230v-23h-16q-21 0 -39.5 -9.5t-13.5 -24.5l191 -555l192 553q5 16 -15 26t-40 10h-15v23h207v-23h-15q-20 0 -41 -11t-27 -26l-229 -644h-57z" />
    <glyph glyph-name="W" unicode="W" horiz-adv-x="977" 
d="M967 700v-23h-15q-21 0 -42.5 -10t-25.5 -25l-180 -646h-48l-162 499l-169 -499h-55l-180 647q-4 15 -24 24.5t-40 9.5h-16v23h230v-23h-16q-25 0 -41 -10.5t-12 -24.5l139 -550l161 475l-25 76q-5 15 -24.5 24.5t-38.5 9.5h-17v23h223v-23h-16q-20 0 -39 -9.5t-15 -22.5
l170 -553l142 551q4 15 -15.5 24.5t-38.5 9.5h-17v23h207z" />
    <glyph glyph-name="X" unicode="X" horiz-adv-x="683" 
d="M677 22v-22h-232v22h15q23 0 37 8t14 21q0 9 -6 18l-166 248l-195 -261q-5 -8 -5 -12q0 -11 16 -16.5t41 -5.5h16v-22h-206v22h15q18 0 38 10.5t30 24.5l225 298l-193 288q-9 14 -27.5 24t-36.5 10h-16v23h232v-23h-17q-21 0 -36.5 -8t-15.5 -19q0 -5 3 -10l151 -226
l170 226q5 8 5 13q0 11 -12 17.5t-28 6.5h-33v23h206v-23h-15q-19 0 -38 -10.5t-30 -24.5l-199 -266l213 -319q10 -15 28 -25t35 -10h17z" />
    <glyph glyph-name="Y" unicode="Y" horiz-adv-x="674" 
d="M204 22h28q60 0 60 35v237l-202 349q-20 34 -50 34h-30v23h226v-23h-33q-18 0 -28.5 -6.5t-10.5 -16.5q0 -5 3 -11l174 -311l186 309q4 5 4 12q0 11 -10.5 17.5t-26.5 6.5h-37v23h207v-23h-28q-33 0 -55 -35l-213 -349v-236q0 -18 14.5 -26.5t44.5 -8.5h28v-22h-251v22z
" />
    <glyph glyph-name="Z" unicode="Z" horiz-adv-x="556" 
d="M24 21l415 644h-272q-45 0 -61 -40t-20 -92h-22v167h458v-18l-414 -647h304q41 0 60.5 42t25.5 96h22l-16 -173h-480v21z" />
    <glyph glyph-name="bracketleft" unicode="[" horiz-adv-x="288" 
d="M60 701h183v-33h-122v-758h122v-35h-183v826z" />
    <glyph glyph-name="backslash" unicode="\" horiz-adv-x="367" 
d="M30 709h43l262 -709h-44z" />
    <glyph glyph-name="bracketright" unicode="]" horiz-adv-x="288" 
d="M44 -90h122v758h-122v33h182v-826h-182v35z" />
    <glyph glyph-name="asciicircum" unicode="^" horiz-adv-x="546" 
d="M240 720h65l193 -408h-59l-166 364l-167 -364h-59z" />
    <glyph glyph-name="underscore" unicode="_" horiz-adv-x="449" 
d="M-4 -79h457v-35h-457v35z" />
    <glyph glyph-name="grave" unicode="`" horiz-adv-x="485" 
d="M180 662q-28 16 -28 36q0 10 7 17t19 7q20 0 40 -20l112 -100l-14 -20z" />
    <glyph glyph-name="a" unicode="a" horiz-adv-x="484" 
d="M65.5 19q-32.5 29 -32.5 77q0 72 75 119.5t234 69.5v55q0 53 -33 79.5t-88 26.5q-38 0 -72 -15.5t-34 -32.5q0 -6 1.5 -13.5t1.5 -14.5q0 -13 -7.5 -23.5t-25.5 -10.5q-15 0 -24.5 11t-9.5 31q0 49 55.5 75.5t129.5 26.5q86 0 133 -38.5t47 -104.5v-285q0 -16 5 -23.5
t16 -7.5q13 0 35 8v-14q-14 -12 -33 -18.5t-39 -6.5q-23 0 -40 10.5t-17 33.5v36q-42 -46 -91.5 -63t-94.5 -17q-59 0 -91.5 29zM277.5 50.5q44.5 26.5 64.5 59.5v145q-112 -20 -174.5 -61t-62.5 -93q0 -38 23.5 -57.5t63.5 -19.5q41 0 85.5 26.5z" />
    <glyph glyph-name="b" unicode="b" horiz-adv-x="563" 
d="M204.5 12.5q-44.5 22.5 -65.5 60.5l-21 -73h-36v649q0 18 -18 18q-10 0 -32 -9l-6 19l106 40h22v-324q23 42 68.5 64.5t93.5 22.5q99 0 156.5 -61.5t57.5 -176.5q0 -134 -56.5 -193t-161.5 -59q-63 0 -107.5 22.5zM421.5 81q36.5 58 36.5 156q0 101 -40.5 155t-120.5 54
q-34 0 -67.5 -18t-54.5 -50t-21 -73v-132q0 -38 17.5 -72.5t51.5 -56t79 -21.5q83 0 119.5 58z" />
    <glyph glyph-name="c" unicode="c" horiz-adv-x="490" 
d="M89.5 54q-60.5 64 -60.5 181q0 114 62 179.5t172 65.5q46 0 89.5 -14.5t69.5 -48.5l11 63h21v-159h-21q-10 62 -50 94t-101 32q-85 0 -132 -58.5t-47 -154.5q0 -97 45 -155t118 -58q66 0 109 35.5t55 109.5h26q-8 -80 -57 -128t-141 -48q-108 0 -168.5 64z" />
    <glyph glyph-name="d" unicode="d" horiz-adv-x="566" 
d="M86.5 51.5q-55.5 61.5 -55.5 193.5q0 76 27 129t74.5 79.5t107.5 26.5q114 0 166 -74v243q0 18 -17 18q-12 0 -32 -9l-6 19l105 40h23v-654q0 -34 41 -34h21v-18l-122 -14l-5 78q-51 -85 -174 -85q-98 0 -153.5 61.5zM338.5 43.5q33.5 20.5 51 53.5t17.5 70v155
q0 35 -21 63.5t-54 44.5t-67 16q-78 0 -120 -52.5t-42 -151.5q0 -101 36.5 -160t119.5 -59q46 0 79.5 20.5z" />
    <glyph glyph-name="e" unicode="e" horiz-adv-x="497" 
d="M104 261q-1 -9 -1 -27q0 -64 21 -112.5t59 -74.5t86 -26q66 0 110 35.5t57 109.5h26q-8 -80 -59 -128t-142 -48q-108 0 -170 64t-62 181q0 115 62 180t170 65q100 0 152.5 -55t52.5 -143v-21h-362zM160.5 406q-39.5 -41 -52.5 -111h293q-2 60 -35.5 106t-101.5 46
q-64 0 -103.5 -41z" />
    <glyph glyph-name="f" unicode="f" horiz-adv-x="379" 
d="M359.5 696q35.5 -26 35.5 -71q0 -20 -10 -29.5t-25 -9.5q-16 0 -25 7.5t-9 22.5q0 7 6 17t6 15q0 19 -22 30t-47 11q-84 0 -84 -103v-116h143v-33h-143v-386q0 -15 15 -22.5t38 -7.5h17v-21h-212v21h16q24 0 39 7.5t15 22.5v386h-90v33h90v111q0 69 38 105t108 36
q65 0 100.5 -26z" />
    <glyph glyph-name="g" unicode="g" horiz-adv-x="486" 
d="M487 469.5q15 -10.5 15 -25.5q0 -14 -7.5 -21.5t-21.5 -7.5q-9 0 -14 3.5t-10 10.5q-5 8 -11 12t-19 4t-41 -15q43 -40 43 -107q0 -73 -52 -114.5t-142 -41.5q-60 0 -105 20q-34 -24 -34 -50q0 -21 20 -34t56 -13h152q57 0 96.5 -25t39.5 -75q0 -70 -62.5 -105
t-166.5 -35q-88 0 -140.5 30.5t-52.5 86.5q0 58 70 89q-30 9 -45 27.5t-15 40.5q0 42 55 78q-60 43 -60 121q0 73 51.5 115t140.5 42q82 0 131 -34q39 34 88 34q26 0 41 -10.5zM318 234q31 35 31 89t-31 89.5t-91 35.5q-59 0 -89.5 -35t-30.5 -90q0 -54 30.5 -89t89.5 -35
q60 0 91 35zM84 -33q0 -42 39 -63.5t105 -21.5q74 0 117 25t43 71q0 33 -20.5 49.5t-68.5 16.5h-162q-53 -25 -53 -77z" />
    <glyph glyph-name="h" unicode="h" horiz-adv-x="596" 
d="M571 21v-21h-208v21h14q22 0 37 7.5t15 22.5v283q0 55 -29 83t-82 28q-38 0 -72.5 -18t-56.5 -53t-22 -83v-240q0 -15 15 -22.5t37 -7.5h14v-21h-208v21h16q23 0 38 7.5t15 22.5v598q0 18 -18 18q-11 0 -31 -9l-7 19l106 40h23v-323q21 35 66 60.5t103 25.5
q80 0 123 -36.5t43 -98.5v-294q0 -15 15 -22.5t38 -7.5h16z" />
    <glyph glyph-name="i" unicode="i" horiz-adv-x="273" 
d="M93.5 576q-13.5 13 -13.5 34q0 22 13.5 35t35.5 13t35.5 -13t13.5 -35q0 -21 -13.5 -34t-35.5 -13t-35.5 13zM31 21h16q23 0 38 7.5t15 22.5v355q0 10 -5.5 14.5t-12.5 4.5q-6 0 -17 -4t-14 -5l-7 19l106 39h23v-423q0 -15 15 -22.5t38 -7.5h16v-21h-211v21z" />
    <glyph glyph-name="j" unicode="j" horiz-adv-x="277" 
d="M120.5 576q-13.5 13 -13.5 34q0 22 13.5 35t35.5 13t35.5 -13t13.5 -35q0 -21 -13.5 -34t-35.5 -13t-35.5 13zM32 -105q42 19 61.5 46.5t24.5 62t5 97.5v303q0 18 -18 18q-10 0 -32 -9l-6 19l106 40h22v-368q0 -97 -33 -153t-125 -77z" />
    <glyph glyph-name="k" unicode="k" horiz-adv-x="559" 
d="M546 21v-21h-133l-238 214l-9 -8v-155q0 -15 15 -22.5t38 -7.5h15v-21h-210v21h16q24 0 39 7.5t15 22.5v598q0 18 -18 18q-9 0 -32 -9l-6 19l106 40h22v-466l198 168q8 8 8 13q0 7 -10.5 12t-24.5 5h-18v21h177v-21h-18q-13 0 -28 -6.5t-27 -16.5l-201 -172l229 -206
q15 -13 35 -20t34 -7h26z" />
    <glyph glyph-name="l" unicode="l" horiz-adv-x="284" 
d="M37 21h16q24 0 39 7.5t15 22.5v598q0 18 -18 18q-10 0 -32 -9l-6 19l106 40h22v-666q0 -15 15 -22.5t38 -7.5h15v-21h-210v21z" />
    <glyph glyph-name="m" unicode="m" horiz-adv-x="857" 
d="M832 21v-21h-210v21h16q23 0 38 7.5t15 22.5v283q0 54 -26 82.5t-69 28.5q-58 0 -95 -40.5t-37 -113.5v-240q0 -15 15 -22.5t38 -7.5h10v-21h-198v21h11q24 0 39 7.5t15 22.5v283q0 54 -26 82.5t-70 28.5q-58 0 -94.5 -40.5t-36.5 -113.5v-240q0 -15 15 -22.5t38 -7.5h15
v-21h-210v21h16q23 0 38 7.5t15 22.5v353q0 18 -17 18q-12 0 -32 -9l-6 19l105 40h23v-74q19 34 57.5 58t91.5 24q59 0 95 -24.5t48 -68.5q16 37 56.5 65t97.5 28q73 0 112 -36.5t39 -98.5v-294q0 -15 15 -22.5t38 -7.5h15z" />
    <glyph glyph-name="n" unicode="n" horiz-adv-x="596" 
d="M571 21v-21h-208v21h14q22 0 37 7.5t15 22.5v283q0 55 -29 83t-82 28q-38 0 -72.5 -18t-56.5 -53t-22 -83v-240q0 -15 15 -22.5t37 -7.5h14v-21h-208v21h16q23 0 38 7.5t15 22.5v353q0 18 -18 18q-11 0 -31 -9l-7 19l106 40h23v-78q21 35 66 60.5t103 25.5
q80 0 123 -36.5t43 -98.5v-294q0 -15 15 -22.5t38 -7.5h16z" />
    <glyph glyph-name="o" unicode="o" horiz-adv-x="544" 
d="M93.5 54.5q-64.5 64.5 -64.5 180.5t64.5 180.5t178.5 64.5t178 -64.5t64 -180.5t-64 -180.5t-178 -64.5t-178.5 64.5zM397 78.5q46 55.5 46 156.5q0 100 -46 155.5t-125 55.5q-80 0 -125.5 -55.5t-45.5 -155.5q0 -101 45.5 -156.5t125.5 -55.5q79 0 125 55.5z" />
    <glyph glyph-name="p" unicode="p" horiz-adv-x="573" 
d="M26 -204h16q23 0 38.5 7.5t15.5 22.5v578q0 18 -18 18q-10 0 -32 -9l-6 19l106 40h22v-82q28 47 73 68.5t96 21.5q97 0 152 -60t55 -173q0 -134 -57.5 -195.5t-169.5 -61.5q-50 0 -92 22t-57 53v-238q0 -16 15 -23.5t38 -7.5h15v-21h-210v21zM435.5 82q36.5 59 36.5 160
t-38.5 152.5t-119.5 51.5q-31 0 -65.5 -18.5t-57.5 -52t-23 -76.5v-139q0 -58 39.5 -97.5t108.5 -39.5q83 0 119.5 59z" />
    <glyph glyph-name="q" unicode="q" horiz-adv-x="574" 
d="M407 61q-49 -71 -167 -71q-100 0 -154.5 62t-54.5 195q0 114 57 173.5t150 59.5q59 0 104.5 -20.5t69.5 -58.5l18 71h49v-654q0 -18 18 -18q10 0 32 9l6 -19l-106 -40h-22v311zM338.5 42q33.5 19 51 51t17.5 69v146q0 44 -23 75t-57.5 47t-69.5 16q-69 0 -111.5 -52.5
t-42.5 -151.5q0 -100 38 -159.5t118 -59.5q46 0 79.5 19z" />
    <glyph glyph-name="r" unicode="r" horiz-adv-x="371" 
d="M346 470.5q18 -9.5 18 -27.5q0 -16 -8 -24.5t-22 -8.5q-9 0 -14.5 3.5t-10.5 9.5q-6 7 -11 10.5t-16 3.5q-44 0 -73.5 -42.5t-30.5 -113.5v-230q0 -15 15 -22.5t38 -7.5h15v-21h-210v21h16q23 0 38 7.5t15 22.5v353q0 18 -17 18q-12 0 -32 -9l-6 19l107 40h21v-83
q15 39 47 65t75 26q28 0 46 -9.5z" />
    <glyph glyph-name="s" unicode="s" horiz-adv-x="438" 
d="M138 4.5q-41 14.5 -65 48.5l-11 -62h-21v148h21q11 -54 49 -85t97 -31q61 0 93.5 22.5t32.5 64.5q0 23 -15.5 39.5t-37.5 27t-65 27.5q-52 19 -85.5 36t-57 47t-23.5 76q0 57 43.5 87t117.5 30q44 0 85 -15t63 -45l11 60h21v-143h-22q-12 49 -47 79t-91 30q-49 0 -79 -20
t-30 -56q0 -28 17 -47.5t42.5 -31.5t68.5 -28q51 -18 82 -33.5t52.5 -43t21.5 -68.5q0 -64 -49.5 -96t-128.5 -32q-49 0 -90 14.5z" />
    <glyph glyph-name="t" unicode="t" horiz-adv-x="379" 
d="M362 84q-5 -48 -39 -71t-82 -23q-70 0 -105 30.5t-35 100.5v316h-82v33h82v86l52 46h21v-132h142v-33h-142v-313q0 -53 18.5 -78t58.5 -25q31 0 53.5 15t26.5 48h31z" />
    <glyph glyph-name="u" unicode="u" horiz-adv-x="581" 
d="M545 29v-14q-29 -25 -72 -25q-26 0 -41.5 14t-15.5 42v31q-21 -35 -66 -61t-104 -26q-80 0 -123 36.5t-43 97.5v280q0 18 -17 18q-12 0 -32 -9l-6 19l105 40h23v-337q0 -55 29 -83t82 -28q38 0 73 18t57 53t22 83v226q0 18 -18 18q-10 0 -32 -9l-6 19l108 40h20v-420
q0 -31 22 -31q13 0 35 8z" />
    <glyph glyph-name="v" unicode="v" horiz-adv-x="522" 
d="M85 399q-11 30 -22 40t-35 10h-14v21h187v-21h-14q-41 0 -41 -20l2 -8l123 -352l122 350q2 6 2 9q0 12 -12 16.5t-29 4.5h-14v21h168v-21h-13q-17 0 -32 -6t-20 -19l-153 -424h-59z" />
    <glyph glyph-name="w" unicode="w" horiz-adv-x="736" 
d="M720 470v-21h-12q-17 0 -32 -6t-18 -19l-119 -424h-57l-115 400l-121 -400h-57l-112 405q-5 20 -15.5 32t-37.5 12h-9v21h179v-21h-14q-47 0 -40 -28l89 -352l118 401h56l118 -404l90 353q7 30 -39 30h-13v21h161z" />
    <glyph glyph-name="x" unicode="x" horiz-adv-x="525" 
d="M512 21v-21h-185v21h14q16 0 29 5t13 14q0 5 -4 9l-122 158l-126 -156q-5 -5 -5 -11q0 -9 12 -14t26 -5h14v-21h-165v21h12q15 0 29.5 6t24.5 18l156 191l-147 189q-18 24 -47 24h-14v21h182v-21h-16q-15 0 -25 -4.5t-10 -12.5q0 -4 5 -11l108 -140l113 138q5 7 5 11
q0 9 -13 14t-28 5h-13v21h161v-21h-12q-14 0 -28 -6.5t-24 -18.5l-139 -172l160 -207q9 -12 22.5 -18t26.5 -6h10z" />
    <glyph glyph-name="y" unicode="y" horiz-adv-x="539" 
d="M525 470v-21h-13q-42 0 -55 -35l-195 -505q-19 -49 -51.5 -73t-81.5 -24q-41 0 -66 16t-25 35q0 28 23 28q11 0 16.5 -5t10.5 -15q6 -11 13 -16.5t21 -5.5q38 0 62.5 18.5t39.5 58.5l29 77l-177 422q-5 13 -19 18.5t-29 5.5h-14v21h187v-21h-14q-19 0 -32 -6.5t-8 -19.5
l134 -346l129 345q5 14 -8 20.5t-31 6.5h-14v21h168z" />
    <glyph glyph-name="z" unicode="z" horiz-adv-x="433" 
d="M20 21l317 416h-225q-16 0 -25.5 -29t-11.5 -57h-20v119h357v-28l-314 -410h236q34 0 49 86h20l-10 -118h-373v21z" />
    <glyph glyph-name="braceleft" unicode="{" horiz-adv-x="361" 
d="M206 -114.5q-38 14.5 -54 45.5t-16 86v167q0 47 -27.5 74.5t-87.5 34.5v26q62 9 88.5 34.5t26.5 74.5v162q0 56 15 88t53 47t109 15v-25q-61 -5 -90 -29t-29 -86v-172q0 -110 -123 -122v-2q60 -5 91.5 -35t31.5 -81v-177q0 -43 14 -67t39 -34t67 -14v-25q-70 0 -108 14.5
z" />
    <glyph glyph-name="bar" unicode="|" horiz-adv-x="433" 
d="M185 755h63v-946h-63v946z" />
    <glyph glyph-name="braceright" unicode="}" horiz-adv-x="361" 
d="M46 -104q42 4 67 14t39 34t14 67v177q0 51 31.5 81t91.5 35v2q-123 12 -123 122v172q0 62 -29 86t-90 29v25q71 0 109 -15t53 -47t15 -88v-162q0 -49 26.5 -74.5t88.5 -34.5v-26q-60 -7 -87.5 -34.5t-27.5 -74.5v-167q0 -55 -16 -86t-54 -45.5t-108 -14.5v25z" />
    <glyph glyph-name="asciitilde" unicode="~" horiz-adv-x="575" 
d="M348 276q-32 10 -76 29q-36 16 -60 24t-47 8q-59 0 -96 -43l-17 29q18 23 47.5 38t66.5 15q26 0 53 -9t67 -26q41 -18 70 -27t58 -9q59 0 95 44l17 -29q-18 -24 -46 -39t-65 -15q-35 0 -67 10z" />
    <glyph glyph-name="uni00A0" unicode="&#xa0;" horiz-adv-x="257" 
 />
    <glyph glyph-name="exclamdown" unicode="&#xa1;" horiz-adv-x="266" 
d="M97 397q-13 13 -13 35t13 35t35 13t35.5 -13t13.5 -35t-13.5 -35t-35.5 -13t-35 13zM98.5 -225q-8.5 14 -8.5 45l1 16l23 511h36l24 -511l1 -16q0 -31 -8.5 -45t-34.5 -14q-25 0 -33.5 14z" />
    <glyph glyph-name="cent" unicode="&#xa2;" horiz-adv-x="491" 
d="M406.5 45q-42.5 -47 -121.5 -54v-80h-38v79q-103 4 -160.5 67.5t-57.5 177.5q0 110 57.5 175t160.5 70v81h38v-82q41 -2 77.5 -17.5t59.5 -44.5l11 63h21v-159h-21q-10 62 -50 94t-101 32q-85 0 -132 -58.5t-47 -154.5q0 -97 45 -155t118 -58q66 0 109 35.5t55 109.5h26
q-7 -74 -49.5 -121z" />
    <glyph glyph-name="sterling" unicode="&#xa3;" horiz-adv-x="564" 
d="M32 33h73q31 32 31 98v210h-99v32h99v122q0 104 44.5 158.5t149.5 54.5q53 0 91.5 -15t61.5 -37q7 -7 12 -7q8 0 8 15v41h31v-181h-24q-8 71 -49.5 110t-110.5 39q-70 0 -105.5 -37t-35.5 -119v-144h215v-32h-215v-204q0 -63 -41 -104h229q33 0 50 8.5t26 29.5t17 65h21
l-12 -136h-467v33z" />
    <glyph glyph-name="currency" unicode="&#xa4;" horiz-adv-x="575" 
d="M74 111l66 64q-43 55 -43 121q0 67 42 120l-66 64l30 30l66 -65q50 41 118 41q69 0 119 -42l66 66l29 -30l-66 -65q20 -25 31.5 -55.5t11.5 -63.5q0 -68 -44 -120l66 -64l-29 -30l-66 65q-49 -41 -118 -41q-67 0 -118 40l-65 -64zM362.5 164q34.5 20 54.5 54.5t20 76.5
q0 43 -20.5 78t-54.5 55.5t-75 20.5t-74.5 -20t-53.5 -55.5t-20 -78.5q0 -42 19.5 -76.5t53.5 -54.5t75 -20t75.5 20z" />
    <glyph glyph-name="yen" unicode="&#xa5;" horiz-adv-x="674" 
d="M664 700v-23h-28q-33 0 -55 -35l-146 -240h147v-32h-167l-47 -77v-102h214v-32h-214v-102q0 -18 14.5 -26.5t44.5 -8.5h28v-22h-251v22h28q60 0 60 35v102h-196v32h196v103l-44 76h-152v32h133l-139 241q-20 34 -50 34h-30v23h226v-23h-33q-18 0 -28.5 -6.5t-10.5 -16.5
q0 -5 3 -11l135 -241h81l144 239q4 5 4 12q0 11 -10.5 17.5t-26.5 6.5h-37v23h207zM364 370h-44l21 -38z" />
    <glyph glyph-name="brokenbar" unicode="&#xa6;" horiz-adv-x="433" 
d="M185 755h63v-414h-63v414zM185 236h63v-427h-63v427z" />
    <glyph glyph-name="section" unicode="&#xa7;" horiz-adv-x="563" 
d="M523 -47q0 -59 -30 -102.5t-83 -66.5t-119 -23q-59 0 -106.5 19t-76 36.5t-30.5 17.5q-3 0 -5.5 -5.5t-2.5 -14.5v-42h-31v186h24q5 -46 35.5 -82.5t76 -57.5t94.5 -21q80 0 128.5 38.5t48.5 106.5q0 43 -25 74t-62 52t-100 49q-67 30 -108 54t-69 60.5t-28 88.5
q0 48 24 83t67 54q-44 28 -67.5 62.5t-23.5 82.5q0 79 60.5 120t160.5 41q50 0 88.5 -14t63 -28t26.5 -14q9 0 9 14v39h31v-185h-24q-7 70 -56.5 111.5t-122.5 41.5q-77 0 -119 -32t-42 -86q0 -39 23.5 -67t58.5 -47t96 -46q70 -30 112.5 -54.5t72.5 -64t30 -96.5
q0 -45 -18.5 -81.5t-51.5 -61.5q71 -56 71 -139zM153.5 260.5q23.5 -28.5 59.5 -48t95 -44.5q66 -28 96 -45q42 39 42 101q0 43 -25 73.5t-61.5 51.5t-98.5 49l-64 30q-67 -30 -67 -100q0 -39 23.5 -67.5z" />
    <glyph glyph-name="dieresis" unicode="&#xa8;" horiz-adv-x="485" 
d="M108.5 592.5q-11.5 11.5 -11.5 29.5q0 19 11.5 30.5t28.5 11.5q19 0 30.5 -11.5t11.5 -30.5t-11.5 -30t-30.5 -11q-17 0 -28.5 11.5zM317.5 592q-11.5 11 -11.5 30t11.5 30.5t29.5 11.5t29.5 -11.5t11.5 -30.5t-11.5 -30t-29.5 -11t-29.5 11z" />
    <glyph glyph-name="copyright" unicode="&#xa9;" horiz-adv-x="817" 
d="M222 37q-83 47 -129.5 130.5t-46.5 188.5t46.5 189t129.5 131t187 47q103 0 185.5 -47.5t129.5 -131t47 -188.5t-47 -188.5t-129.5 -130.5t-185.5 -47q-104 0 -187 47zM574 69.5q73 42.5 114.5 118t41.5 168.5t-41.5 168.5t-114.5 118t-165 42.5t-165.5 -42.5t-115 -118
t-41.5 -168.5t41.5 -168.5t115 -118t165.5 -42.5t165 42.5zM266 188.5q-53 59.5 -53 165.5q0 104 52.5 164.5t147.5 60.5q43 0 77 -12.5t49 -28.5l6 39h23v-120h-22q-12 90 -118 90q-78 0 -116 -53t-38 -140q0 -85 35.5 -139t115.5 -54q48 0 84 24.5t47 72.5h24
q-8 -58 -52 -93.5t-113 -35.5q-96 0 -149 59.5z" />
    <glyph glyph-name="ordfeminine" unicode="&#xaa;" horiz-adv-x="385" 
d="M23 439q0 47 52 83.5t179 41.5v45q0 38 -23 53.5t-65 15.5q-25 0 -50 -9.5t-25 -21.5q0 -5 1.5 -10.5t1.5 -10.5q0 -10 -7.5 -16.5t-20.5 -6.5q-12 0 -19.5 9t-7.5 23q0 34 40 54t97 20q143 0 143 -105v-187q0 -29 19 -29q14 0 32 7v-13q-25 -24 -64 -24q-20 0 -34 10
t-14 30v19q-19 -29 -57 -44t-74 -15q-104 0 -104 81zM206.5 407.5q31.5 15.5 47.5 43.5v85q-98 -3 -133 -30t-35 -61q0 -25 15.5 -39t41.5 -14q32 0 63.5 15.5z" />
    <glyph glyph-name="guillemotleft" unicode="&#xab;" horiz-adv-x="464" 
d="M37 255v15l181 205l20 -27l-127 -186l127 -185l-20 -27zM220 255v15l181 205l20 -27l-127 -186l127 -185l-20 -27z" />
    <glyph glyph-name="logicalnot" unicode="&#xac;" horiz-adv-x="474" 
d="M380 337h-338v33h379v-188h-41v155z" />
    <glyph glyph-name="uni00AD" unicode="&#xad;" horiz-adv-x="360" 
d="M40 299h280v-45h-280v45z" />
    <glyph glyph-name="registered" unicode="&#xae;" horiz-adv-x="817" 
d="M594.5 675.5q82.5 -47.5 129.5 -131t47 -188.5t-47 -188.5t-129.5 -130.5t-185.5 -47q-104 0 -187 47t-129.5 130.5t-46.5 188.5t46.5 189t129.5 131t187 47q103 0 185.5 -47.5zM574 69.5q73 42.5 114.5 118t41.5 168.5t-41.5 168.5t-114.5 118t-165 42.5t-165.5 -42.5
t-115 -118t-41.5 -168.5t41.5 -168.5t115 -118t165.5 -42.5t165 42.5zM602 154v-19h-88l-103 189h-67v-139q0 -17 7.5 -24t30.5 -7h20v-19h-171v19h20q23 0 31 7t8 24v339q0 28 -31 28h-21v20h198q70 0 104 -32t34 -90q0 -53 -27 -85.5t-81 -39.5l84 -147q11 -22 52 -24z
M344 353h81q50 0 72 24t22 73q0 47 -22.5 70t-71.5 23h-81v-190z" />
    <glyph glyph-name="macron" unicode="&#xaf;" horiz-adv-x="485" 
d="M58 771h369v-38h-369v38z" />
    <glyph glyph-name="degree" unicode="&#xb0;" horiz-adv-x="306" 
d="M62.5 504q-35.5 36 -35.5 89t35 88.5t91 35.5t91 -35.5t35 -88.5t-35.5 -89t-90.5 -36t-90.5 36zM216 528q25 27 25 65t-25 65t-63 27t-63.5 -27t-25.5 -65t25.5 -65t63.5 -27t63 27z" />
    <glyph glyph-name="plusminus" unicode="&#xb1;" horiz-adv-x="574" 
d="M252 335h-192v42h192v196h73v-196h191v-42h-191v-195h-73v195zM50 47h474v-42h-474v42z" />
    <glyph glyph-name="uni00B2" unicode="&#xb2;" horiz-adv-x="365" 
d="M37 312q13 43 40.5 73.5t74.5 68.5q50 40 74.5 70.5t24.5 73.5q0 34 -21.5 56.5t-59.5 22.5q-44 0 -59.5 -17.5t-19.5 -47.5q-2 -11 -8 -18.5t-21 -7.5q-12 0 -19 7.5t-7 21.5q0 41 40.5 67.5t100.5 26.5q62 0 101.5 -28.5t39.5 -86.5q0 -46 -28 -78.5t-82 -73.5
q-47 -37 -71.5 -61.5t-33.5 -57.5h172q25 0 33 52h17l-8 -97h-280v34z" />
    <glyph glyph-name="uni00B3" unicode="&#xb3;" horiz-adv-x="365" 
d="M72 296q-37 24 -37 66q0 32 27 32q15 0 21.5 -8t6.5 -19q0 -62 76 -62q45 0 68.5 24t23.5 67q0 36 -24.5 62t-63.5 26h-50v32h48q41 0 61.5 26t20.5 60t-19.5 54.5t-56.5 20.5q-44 0 -62 -17t-18 -48q0 -11 -7 -19t-21 -8q-12 0 -19.5 8.5t-7.5 23.5q0 41 38.5 66.5
t98.5 25.5q58 0 98 -27t40 -80q0 -34 -18.5 -63t-49.5 -39q34 -9 55.5 -35.5t21.5 -66.5q0 -64 -42.5 -95t-108.5 -31q-63 0 -100 24z" />
    <glyph glyph-name="acute" unicode="&#xb4;" horiz-adv-x="485" 
d="M167 602l112 100q23 20 40 20q12 0 19 -7.5t7 -17.5q0 -20 -28 -36l-136 -79z" />
    <glyph glyph-name="paragraph" unicode="&#xb6;" horiz-adv-x="481" 
d="M157 21h16q23 0 37 7t14 23v260q-90 3 -139 56.5t-49 146.5q0 186 196 186h213v-21h-16q-23 0 -37 -7.5t-14 -23.5v-597q0 -16 14 -23t37 -7h16v-21h-115v668h-58v-668h-115v21zM224 668q-147 -2 -147 -153q0 -83 41.5 -126t105.5 -45v324z" />
    <glyph glyph-name="periodcentered" unicode="&#xb7;" horiz-adv-x="275" 
d="M88 300q-17 19 -17 51t17 51t48 19t49 -19.5t18 -50.5t-18 -50.5t-49 -19.5t-48 19z" />
    <glyph glyph-name="cedilla" unicode="&#xb8;" horiz-adv-x="485" 
d="M171 -199l7 26q11 -2 40 -2q77 0 77 51q0 23 -22.5 29.5t-54.5 6.5l-16 20l42 77h38l-34 -68q42 0 70.5 -14t28.5 -50q0 -42 -35.5 -62t-94.5 -20q-24 0 -46 6z" />
    <glyph glyph-name="uni00B9" unicode="&#xb9;" horiz-adv-x="365" 
d="M61 300h35q57 0 57 34v322l-79 -33v33l149 56v-378q0 -34 58 -34h34v-22h-254v22z" />
    <glyph glyph-name="ordmasculine" unicode="&#xba;" horiz-adv-x="347" 
d="M56.5 405q-42.5 47 -42.5 128t42 128.5t117 47.5t117.5 -47t42.5 -129q0 -81 -42.5 -128t-117.5 -47q-74 0 -116.5 47zM245.5 433q26.5 37 26.5 100t-26.5 100.5t-71.5 37.5q-46 0 -73 -37.5t-27 -100.5t27 -100t73 -37q45 0 71.5 37z" />
    <glyph glyph-name="guillemotright" unicode="&#xbb;" horiz-adv-x="464" 
d="M42 77l128 185l-128 186l20 27l182 -205v-15l-182 -205zM225 77l128 185l-128 186l20 27l182 -205v-15l-182 -205z" />
    <glyph glyph-name="onequarter" unicode="&#xbc;" horiz-adv-x="855" 
d="M56 300h34q58 0 58 34v322l-80 -33v33l149 56v-378q0 -34 58 -34h34v-22h-253v22zM638 709h41l-429 -709h-41zM470 132l189 294h74v-288h66l-3 -33h-63v-49q0 -34 58 -34h29v-22h-244v22h29q58 0 58 34v49h-193v27zM663 138v229l-149 -229h149z" />
    <glyph glyph-name="onehalf" unicode="&#xbd;" horiz-adv-x="855" 
d="M56 300h34q58 0 58 34v322l-80 -33v33l149 56v-378q0 -34 58 -34h34v-22h-253v22zM633 709h41l-429 -709h-41zM533 34q13 42 40.5 72.5t74.5 68.5q50 40 75 70.5t25 74.5q0 34 -21.5 56t-59.5 22q-30 0 -46 -9t-22 -21.5t-11 -31.5q-4 -15 -9.5 -23t-19.5 -8
q-12 0 -19.5 8t-7.5 23q0 42 40.5 68t100.5 26q62 0 101.5 -28t39.5 -86q0 -33 -15 -59t-36 -45.5t-58 -48.5q-45 -34 -70.5 -60t-34.5 -59h171q14 0 21.5 14.5t12.5 37.5h16l-7 -96h-281v34z" />
    <glyph glyph-name="threequarters" unicode="&#xbe;" horiz-adv-x="855" 
d="M50.5 385.5q7.5 8.5 19.5 8.5q15 0 21.5 -8t6.5 -19q0 -62 77 -62q44 0 67.5 24t23.5 67q0 36 -24 62t-64 26h-50v32h48q42 0 62.5 26t20.5 60q0 33 -20 54t-57 21q-80 0 -80 -65q0 -11 -7 -19t-20 -8t-20.5 8.5t-7.5 23.5q0 41 39.5 66.5t99.5 25.5q59 0 97.5 -26.5
t38.5 -80.5q0 -34 -18.5 -63t-49.5 -39q34 -9 56 -35.5t22 -66.5q0 -64 -42 -95t-107 -31q-63 0 -101.5 24t-38.5 66q0 15 7.5 23.5zM633 709h41l-429 -709h-41zM466 132l190 294h73v-288h67l-4 -33h-63v-49q0 -34 58 -34h29v-22h-243v22h29q58 0 58 34v49h-194v27zM660 138
v229l-149 -229h149z" />
    <glyph glyph-name="questiondown" unicode="&#xbf;" horiz-adv-x="453" 
d="M226.5 397q-13.5 13 -13.5 35t13.5 35t35.5 13t35 -13t13 -35t-13 -35t-35 -13t-35.5 13zM88 -201.5q-55 38.5 -55 126.5q0 50 25 86.5t75 83.5q35 34 56 58t35.5 56t14.5 72q0 7 -3 28h46q4 -17 4 -33q0 -45 -14.5 -82t-35.5 -64.5t-55 -65.5q-40 -44 -59 -74t-19 -66
q0 -59 32 -94.5t101 -35.5q52 0 85.5 26.5t33.5 67.5q0 14 8.5 24t25.5 10q36 0 36 -38q0 -32 -24.5 -60.5t-69 -46t-100.5 -17.5q-88 0 -143 38.5z" />
    <glyph glyph-name="Agrave" unicode="&#xc0;" horiz-adv-x="714" 
d="M276.5 878.5q-7.5 9.5 -7.5 20.5t8 18t18 7q17 0 39 -20l112 -100l-14 -20l-137 79q-11 6 -18.5 15.5zM709 22v-22h-231v22h15q21 0 39 7t14 18l-61 170h-285l-56 -151q-2 -8 -2 -10q0 -15 17 -24.5t36 -9.5h17v-22h-207v22h15q20 0 41 10.5t27 24.5l237 629l56 26
l247 -655q6 -16 25.5 -25.5t38.5 -9.5h17zM473 252l-128 356l-132 -356h260z" />
    <glyph glyph-name="Aacute" unicode="&#xc1;" horiz-adv-x="714" 
d="M283 784l-14 20l113 100q23 20 40 20q12 0 18.5 -7t6.5 -18q0 -20 -28 -36zM709 22v-22h-231v22h15q21 0 39 7t14 18l-61 170h-285l-56 -151q-2 -8 -2 -10q0 -15 17 -24.5t36 -9.5h17v-22h-207v22h15q20 0 41 10.5t27 24.5l237 629l56 26l247 -655q6 -16 25.5 -25.5
t38.5 -9.5h17zM473 252l-128 356l-132 -356h260z" />
    <glyph glyph-name="Acircumflex" unicode="&#xc2;" horiz-adv-x="714" 
d="M236 784l-17 19l116 118h43l117 -118l-18 -19l-101 82q-13 9 -19 9q-7 0 -20 -9zM709 22v-22h-231v22h15q21 0 39 7t14 18l-61 170h-285l-56 -151q-2 -8 -2 -10q0 -15 17 -24.5t36 -9.5h17v-22h-207v22h15q20 0 41 10.5t27 24.5l237 629l56 26l247 -655q6 -16 25.5 -25.5
t38.5 -9.5h17zM473 252l-128 356l-132 -356h260z" />
    <glyph glyph-name="Atilde" unicode="&#xc3;" horiz-adv-x="714" 
d="M245 827q-15 -15 -25 -45l-19 10q8 41 31.5 65.5t58.5 24.5q17 0 33.5 -7t41.5 -21q23 -13 39 -20t31 -7q23 0 37.5 15.5t25.5 47.5l19 -10q-9 -43 -32 -68.5t-60 -25.5q-16 0 -32 7t-40 21t-40 21t-31 7q-23 0 -38 -15zM709 22v-22h-231v22h15q21 0 39 7t14 18l-61 170
h-285l-56 -151q-2 -8 -2 -10q0 -15 17 -24.5t36 -9.5h17v-22h-207v22h15q20 0 41 10.5t27 24.5l237 629l56 26l247 -655q6 -16 25.5 -25.5t38.5 -9.5h17zM473 252l-128 356l-132 -356h260z" />
    <glyph glyph-name="Adieresis" unicode="&#xc4;" horiz-adv-x="714" 
d="M217 793.5q-11 11.5 -11 29.5q0 19 11 30.5t30 11.5t30 -11.5t11 -30.5q0 -18 -11 -29.5t-30 -11.5t-30 11.5zM426 793.5q-11 11.5 -11 29.5q0 19 11 30.5t30 11.5t30 -11.5t11 -30.5q0 -18 -11 -29.5t-30 -11.5t-30 11.5zM709 22v-22h-231v22h15q21 0 39 7t14 18
l-61 170h-285l-56 -151q-2 -8 -2 -10q0 -15 17 -24.5t36 -9.5h17v-22h-207v22h15q20 0 41 10.5t27 24.5l237 629l56 26l247 -655q6 -16 25.5 -25.5t38.5 -9.5h17zM473 252l-128 356l-132 -356h260z" />
    <glyph glyph-name="Aring" unicode="&#xc5;" horiz-adv-x="714" 
d="M293 780.5q-25 23.5 -25 60.5t25 60.5t64 23.5q38 0 63 -23.5t25 -60.5t-25 -60.5t-63 -23.5q-39 0 -64 23.5zM319 880.5q-15 -14.5 -15 -39.5q0 -24 15 -39t38 -15t38 15t15 39t-15 39t-38 15t-38 -14.5zM709 22v-22h-231v22h15q21 0 39 7t14 18l-61 170h-285l-56 -151
q-2 -8 -2 -10q0 -15 17 -24.5t36 -9.5h17v-22h-207v22h15q20 0 41 10.5t27 24.5l237 629l56 26l247 -655q6 -16 25.5 -25.5t38.5 -9.5h17zM473 252l-128 356l-132 -356h260z" />
    <glyph glyph-name="AE" unicode="&#xc6;" horiz-adv-x="961" 
d="M10 22h15q32 2 49.5 18t36.5 48l343 564q3 6 3 12q0 13 -14 13h-30v23h495v-167h-22q-6 132 -81 132h-231v-278h170q29 0 38.5 24.5t13.5 74.5h20v-233h-20q-4 50 -13.5 74.5t-38.5 24.5h-170v-317h243q41 0 60.5 43t24.5 97h22l-16 -175h-485v22h21q24 0 39 8.5t15 26.5
v160h-257l-95 -159q-2 -3 -2 -8q0 -12 17.5 -20t38.5 -8h16v-22h-206v22zM498 252v387l-237 -387h237z" />
    <glyph glyph-name="Ccedilla" unicode="&#xc7;" horiz-adv-x="658" 
d="M543.5 41.5q-66.5 -47.5 -163.5 -51.5l-26 -51q42 0 70.5 -14t28.5 -50q0 -42 -35.5 -62t-94.5 -20q-23 0 -46 6l7 26q11 -2 40 -2q77 0 77 51q0 23 -22.5 29.5t-54.5 6.5l-16 20l33 61q-143 7 -219.5 100.5t-76.5 258.5q0 113 39 194t113.5 123.5t176.5 42.5
q63 0 110.5 -18.5t79.5 -41.5q8 -5 9 -5q9 0 9 17v43h31v-186h-24q-7 72 -63.5 113.5t-138.5 41.5q-129 0 -197.5 -87.5t-68.5 -236.5q0 -150 64 -237.5t193 -87.5q70 0 132 36.5t84 108.5h33q-17 -81 -83.5 -128.5z" />
    <glyph glyph-name="Egrave" unicode="&#xc8;" horiz-adv-x="591" 
d="M236.5 878.5q-7.5 9.5 -7.5 20.5t8 18t18 7q16 0 39 -20l112 -100l-14 -20l-137 79q-11 6 -18.5 15.5zM553 175l-16 -175h-520v22h28q60 0 60 35v585q0 35 -60 35h-28v23h521v-167h-22q-4 52 -20 92t-61 40h-254v-278h189q30 0 39 24t13 75h21v-233h-21q-4 51 -13 75
t-39 24h-189v-317h265q41 0 60.5 43t24.5 97h22z" />
    <glyph glyph-name="Eacute" unicode="&#xc9;" horiz-adv-x="591" 
d="M247 784l-14 20l113 100q23 20 40 20q12 0 18.5 -7t6.5 -18q0 -20 -28 -36zM553 175l-16 -175h-520v22h28q60 0 60 35v585q0 35 -60 35h-28v23h521v-167h-22q-4 52 -20 92t-61 40h-254v-278h189q30 0 39 24t13 75h21v-233h-21q-4 51 -13 75t-39 24h-189v-317h265
q41 0 60.5 43t24.5 97h22z" />
    <glyph glyph-name="Ecircumflex" unicode="&#xca;" horiz-adv-x="591" 
d="M196 784l-17 19l116 118h43l117 -118l-18 -19l-101 82q-13 9 -19 9q-7 0 -20 -9zM553 175l-16 -175h-520v22h28q60 0 60 35v585q0 35 -60 35h-28v23h521v-167h-22q-4 52 -20 92t-61 40h-254v-278h189q30 0 39 24t13 75h21v-233h-21q-4 51 -13 75t-39 24h-189v-317h265
q41 0 60.5 43t24.5 97h22z" />
    <glyph glyph-name="Edieresis" unicode="&#xcb;" horiz-adv-x="591" 
d="M186 793.5q-11 11.5 -11 29.5q0 19 11 30.5t30 11.5t30 -11.5t11 -30.5q0 -18 -11 -29.5t-30 -11.5t-30 11.5zM395 793.5q-11 11.5 -11 29.5q0 19 11 30.5t30 11.5t30 -11.5t11 -30.5q0 -18 -11 -29.5t-30 -11.5t-30 11.5zM553 175l-16 -175h-520v22h28q60 0 60 35v585
q0 35 -60 35h-28v23h521v-167h-22q-4 52 -20 92t-61 40h-254v-278h189q30 0 39 24t13 75h21v-233h-21q-4 51 -13 75t-39 24h-189v-317h265q41 0 60.5 43t24.5 97h22z" />
    <glyph glyph-name="Igrave" unicode="&#xcc;" horiz-adv-x="307" 
d="M91 863q-11 6 -18.5 15.5t-7.5 20.5t8 18t18 7q16 0 39 -20l112 -100l-14 -20zM28 22h29q59 0 59 35v585q0 35 -59 35h-29v23h251v-23h-28q-30 0 -44.5 -8.5t-14.5 -26.5v-585q0 -18 14.5 -26.5t44.5 -8.5h28v-22h-251v22z" />
    <glyph glyph-name="Iacute" unicode="&#xcd;" horiz-adv-x="307" 
d="M66 804l113 100q23 20 40 20q12 0 18.5 -7t6.5 -18q0 -20 -28 -36l-136 -79zM28 22h29q59 0 59 35v585q0 35 -59 35h-29v23h251v-23h-28q-30 0 -44.5 -8.5t-14.5 -26.5v-585q0 -18 14.5 -26.5t44.5 -8.5h28v-22h-251v22z" />
    <glyph glyph-name="Icircumflex" unicode="&#xce;" horiz-adv-x="307" 
d="M15 803l116 118h43l117 -118l-18 -19l-101 82q-13 9 -19 9q-7 0 -20 -9l-101 -82zM28 22h29q59 0 59 35v585q0 35 -59 35h-29v23h251v-23h-28q-30 0 -44.5 -8.5t-14.5 -26.5v-585q0 -18 14.5 -26.5t44.5 -8.5h28v-22h-251v22z" />
    <glyph glyph-name="Idieresis" unicode="&#xcf;" horiz-adv-x="307" 
d="M18 793.5q-11 11.5 -11 29.5q0 19 11 30.5t30 11.5t30 -11.5t11 -30.5q0 -18 -11 -29.5t-30 -11.5t-30 11.5zM227 793.5q-11 11.5 -11 29.5q0 19 11 30.5t30 11.5t30 -11.5t11 -30.5q0 -18 -11 -29.5t-30 -11.5t-30 11.5zM28 22h29q59 0 59 35v585q0 35 -59 35h-29v23
h251v-23h-28q-30 0 -44.5 -8.5t-14.5 -26.5v-585q0 -18 14.5 -26.5t44.5 -8.5h28v-22h-251v22z" />
    <glyph glyph-name="Eth" unicode="&#xd0;" horiz-adv-x="669" 
d="M551.5 610q76.5 -90 76.5 -260q0 -171 -77 -260.5t-228 -89.5h-304v22h29q59 0 59 35v277h-77v38h77v270q0 35 -59 35h-29v23h305q151 0 227.5 -90zM494 116.5q58 83.5 58 233.5t-57.5 233t-171.5 83h-140v-294h216v-38h-216v-301h138q115 0 173 83.5z" />
    <glyph glyph-name="Ntilde" unicode="&#xd1;" horiz-adv-x="746" 
d="M223 792q8 41 31.5 65.5t58.5 24.5q17 0 33.5 -7t41.5 -21q23 -13 39 -20t31 -7q23 0 37.5 15.5t25.5 47.5l19 -10q-9 -43 -32 -68.5t-60 -25.5q-16 0 -32 7t-40 21t-40 21t-31 7q-23 0 -38 -15t-25 -45zM25 22h28q30 0 44.5 8.5t14.5 26.5v585q0 18 -14.5 26.5
t-44.5 8.5h-28v23h176l388 -599v541q0 18 -14.5 26.5t-44.5 8.5h-28v23h219v-23h-29q-59 0 -59 -35v-642h-49l-428 655v-598q0 -35 59 -35h29v-22h-219v22z" />
    <glyph glyph-name="Ograve" unicode="&#xd2;" horiz-adv-x="739" 
d="M290 863q-11 6 -18.5 15.5t-7.5 20.5t8 18t18 7q16 0 39 -20l112 -100l-14 -20zM124 84q-86 94 -86 266q0 171 86 265.5t246 94.5q159 0 245 -94.5t86 -265.5q0 -172 -86 -266t-245 -94q-160 0 -246 94zM560.5 113q64.5 87 64.5 237t-64.5 237t-191.5 87q-125 0 -190 -87
t-65 -237t65 -237t190 -87q127 0 191.5 87z" />
    <glyph glyph-name="Oacute" unicode="&#xd3;" horiz-adv-x="739" 
d="M281 804l113 100q23 20 40 20q12 0 18.5 -7t6.5 -18q0 -20 -28 -36l-136 -79zM124 84q-86 94 -86 266q0 171 86 265.5t246 94.5q159 0 245 -94.5t86 -265.5q0 -172 -86 -266t-245 -94q-160 0 -246 94zM560.5 113q64.5 87 64.5 237t-64.5 237t-191.5 87q-125 0 -190 -87
t-65 -237t65 -237t190 -87q127 0 191.5 87z" />
    <glyph glyph-name="Ocircumflex" unicode="&#xd4;" horiz-adv-x="739" 
d="M232 803l116 118h43l117 -118l-18 -19l-101 82q-13 9 -19 9q-7 0 -20 -9l-101 -82zM124 84q-86 94 -86 266q0 171 86 265.5t246 94.5q159 0 245 -94.5t86 -265.5q0 -172 -86 -266t-245 -94q-160 0 -246 94zM560.5 113q64.5 87 64.5 237t-64.5 237t-191.5 87
q-125 0 -190 -87t-65 -237t65 -237t190 -87q127 0 191.5 87z" />
    <glyph glyph-name="Otilde" unicode="&#xd5;" horiz-adv-x="739" 
d="M209 792q8 41 31.5 65.5t58.5 24.5q17 0 33.5 -7t41.5 -21q23 -13 39 -20t31 -7q23 0 37.5 15.5t25.5 47.5l19 -10q-9 -43 -32 -68.5t-60 -25.5q-16 0 -32 7t-40 21t-40 21t-31 7q-23 0 -38 -15t-25 -45zM124 84q-86 94 -86 266q0 171 86 265.5t246 94.5q159 0 245 -94.5
t86 -265.5q0 -172 -86 -266t-245 -94q-160 0 -246 94zM560.5 113q64.5 87 64.5 237t-64.5 237t-191.5 87q-125 0 -190 -87t-65 -237t65 -237t190 -87q127 0 191.5 87z" />
    <glyph glyph-name="Odieresis" unicode="&#xd6;" horiz-adv-x="739" 
d="M235 793.5q-11 11.5 -11 29.5q0 19 11 30.5t30 11.5t30 -11.5t11 -30.5q0 -18 -11 -29.5t-30 -11.5t-30 11.5zM444 793.5q-11 11.5 -11 29.5q0 19 11 30.5t30 11.5t30 -11.5t11 -30.5q0 -18 -11 -29.5t-30 -11.5t-30 11.5zM124 84q-86 94 -86 266q0 171 86 265.5
t246 94.5q159 0 245 -94.5t86 -265.5q0 -172 -86 -266t-245 -94q-160 0 -246 94zM560.5 113q64.5 87 64.5 237t-64.5 237t-191.5 87q-125 0 -190 -87t-65 -237t65 -237t190 -87q127 0 191.5 87z" />
    <glyph glyph-name="multiply" unicode="&#xd7;" horiz-adv-x="574" 
d="M71 163l175 177l-175 176l38 40l178 -179l178 179l38 -40l-176 -176l176 -177l-38 -39l-178 179l-178 -179z" />
    <glyph glyph-name="Oslash" unicode="&#xd8;" horiz-adv-x="739" 
d="M676 511.5q25 -70.5 25 -161.5q0 -172 -86 -266t-245 -94q-131 0 -215 65l-57 -73l-34 22l61 79q-87 93 -87 267q0 171 86 265.5t246 94.5q121 0 200 -55l54 69l35 -22l-57 -73q49 -47 74 -117.5zM165 134l372 479q-64 61 -168 61q-125 0 -190 -87t-65 -237
q0 -133 51 -216zM560.5 113q64.5 87 64.5 237q0 146 -60 231l-375 -481q66 -74 179 -74q127 0 191.5 87z" />
    <glyph glyph-name="Ugrave" unicode="&#xd9;" horiz-adv-x="724" 
d="M308 863q-11 6 -18.5 15.5t-7.5 20.5t8 18t18 7q16 0 39 -20l112 -100l-14 -20zM173 38.5q-66 48.5 -66 161.5v442q0 18 -15 26.5t-39 8.5h-21v23h226v-23h-21q-24 0 -39 -8.5t-15 -26.5v-448q0 -95 52.5 -132t146.5 -37q82 0 136.5 38t54.5 131v448q0 18 -15 26.5
t-39 8.5h-20v23h193v-23h-21q-24 0 -39 -8.5t-15 -26.5v-442q0 -111 -64.5 -160.5t-187.5 -49.5q-126 0 -192 48.5z" />
    <glyph glyph-name="Uacute" unicode="&#xda;" horiz-adv-x="724" 
d="M283 804l113 100q23 20 40 20q12 0 18.5 -7t6.5 -18q0 -20 -28 -36l-136 -79zM173 38.5q-66 48.5 -66 161.5v442q0 18 -15 26.5t-39 8.5h-21v23h226v-23h-21q-24 0 -39 -8.5t-15 -26.5v-448q0 -95 52.5 -132t146.5 -37q82 0 136.5 38t54.5 131v448q0 18 -15 26.5t-39 8.5
h-20v23h193v-23h-21q-24 0 -39 -8.5t-15 -26.5v-442q0 -111 -64.5 -160.5t-187.5 -49.5q-126 0 -192 48.5z" />
    <glyph glyph-name="Ucircumflex" unicode="&#xdb;" horiz-adv-x="724" 
d="M233 803l116 118h43l117 -118l-18 -19l-101 82q-13 9 -19 9q-7 0 -20 -9l-101 -82zM173 38.5q-66 48.5 -66 161.5v442q0 18 -15 26.5t-39 8.5h-21v23h226v-23h-21q-24 0 -39 -8.5t-15 -26.5v-448q0 -95 52.5 -132t146.5 -37q82 0 136.5 38t54.5 131v448q0 18 -15 26.5
t-39 8.5h-20v23h193v-23h-21q-24 0 -39 -8.5t-15 -26.5v-442q0 -111 -64.5 -160.5t-187.5 -49.5q-126 0 -192 48.5z" />
    <glyph glyph-name="Udieresis" unicode="&#xdc;" horiz-adv-x="724" 
d="M236 793.5q-11 11.5 -11 29.5q0 19 11 30.5t30 11.5t30 -11.5t11 -30.5q0 -18 -11 -29.5t-30 -11.5t-30 11.5zM445 793.5q-11 11.5 -11 29.5q0 19 11 30.5t30 11.5t30 -11.5t11 -30.5q0 -18 -11 -29.5t-30 -11.5t-30 11.5zM173 38.5q-66 48.5 -66 161.5v442
q0 18 -15 26.5t-39 8.5h-21v23h226v-23h-21q-24 0 -39 -8.5t-15 -26.5v-448q0 -95 52.5 -132t146.5 -37q82 0 136.5 38t54.5 131v448q0 18 -15 26.5t-39 8.5h-20v23h193v-23h-21q-24 0 -39 -8.5t-15 -26.5v-442q0 -111 -64.5 -160.5t-187.5 -49.5q-126 0 -192 48.5z" />
    <glyph glyph-name="Yacute" unicode="&#xdd;" horiz-adv-x="674" 
d="M262 825l113 100q23 20 40 20q12 0 18.5 -7t6.5 -18q0 -20 -28 -36l-136 -79zM204 22h28q60 0 60 35v237l-202 349q-20 34 -50 34h-30v23h226v-23h-33q-18 0 -28.5 -6.5t-10.5 -16.5q0 -5 3 -11l174 -311l186 309q4 5 4 12q0 11 -10.5 17.5t-26.5 6.5h-37v23h207v-23h-28
q-33 0 -55 -35l-213 -349v-236q0 -18 14.5 -26.5t44.5 -8.5h28v-22h-251v22z" />
    <glyph glyph-name="Thorn" unicode="&#xde;" horiz-adv-x="582" 
d="M25 22h28q30 0 44.5 8.5t14.5 26.5v585q0 18 -14.5 26.5t-44.5 8.5h-28v23h163v-113h165q210 0 210 -212q0 -99 -50 -155.5t-160 -56.5h-165v-106q0 -35 59 -35h29v-22h-251v22zM341 198q76 0 112 47t36 130q0 84 -36 130.5t-112 46.5h-153v-354h153z" />
    <glyph glyph-name="germandbls" unicode="&#xdf;" horiz-adv-x="675" 
d="M400.5 322.5q16.5 -20.5 41.5 -33.5t67 -29q47 -19 75.5 -34.5t48 -41t19.5 -64.5q0 -62 -43.5 -96t-118.5 -34q-49 0 -90 14.5t-65 48.5l-12 -62h-21v148h22q11 -55 45.5 -85.5t91.5 -30.5q59 0 89 23.5t30 63.5q0 23 -14.5 39.5t-35.5 27t-61 27.5q-49 19 -81 36
t-54 47t-22 76q0 59 46.5 86.5t110.5 32.5q0 89 -31.5 147.5t-125.5 58.5q-52 0 -86 -29t-34 -88v-520q0 -15 15 -22.5t38 -7.5h16v-21h-211v21h16q23 0 38 7.5t15 22.5v386h-71v33h71v89q0 78 54 120.5t136 42.5q141 0 184 -75t43 -159v-35q-152 0 -152 -81
q0 -29 16.5 -49.5z" />
    <glyph glyph-name="agrave" unicode="&#xe0;" horiz-adv-x="484" 
d="M176 626q-11 6 -18.5 15.5t-7.5 20.5t8 18t18 7q16 0 39 -20l112 -100l-14 -20zM65.5 19q-32.5 29 -32.5 77q0 72 75 119.5t234 69.5v55q0 53 -33 79.5t-88 26.5q-38 0 -72 -15.5t-34 -32.5q0 -6 1.5 -13.5t1.5 -14.5q0 -13 -7.5 -23.5t-25.5 -10.5q-15 0 -24.5 11
t-9.5 31q0 49 55.5 75.5t129.5 26.5q86 0 133 -38.5t47 -104.5v-285q0 -16 5 -23.5t16 -7.5q13 0 35 8v-14q-14 -12 -33 -18.5t-39 -6.5q-23 0 -40 10.5t-17 33.5v36q-42 -46 -91.5 -63t-94.5 -17q-59 0 -91.5 29zM277.5 50.5q44.5 26.5 64.5 59.5v145q-112 -20 -174.5 -61
t-62.5 -93q0 -38 23.5 -57.5t63.5 -19.5q41 0 85.5 26.5z" />
    <glyph glyph-name="aacute" unicode="&#xe1;" horiz-adv-x="484" 
d="M160 567l113 100q23 20 40 20q12 0 18.5 -7t6.5 -18q0 -20 -28 -36l-136 -79zM65.5 19q-32.5 29 -32.5 77q0 72 75 119.5t234 69.5v55q0 53 -33 79.5t-88 26.5q-38 0 -72 -15.5t-34 -32.5q0 -6 1.5 -13.5t1.5 -14.5q0 -13 -7.5 -23.5t-25.5 -10.5q-15 0 -24.5 11t-9.5 31
q0 49 55.5 75.5t129.5 26.5q86 0 133 -38.5t47 -104.5v-285q0 -16 5 -23.5t16 -7.5q13 0 35 8v-14q-14 -12 -33 -18.5t-39 -6.5q-23 0 -40 10.5t-17 33.5v36q-42 -46 -91.5 -63t-94.5 -17q-59 0 -91.5 29zM277.5 50.5q44.5 26.5 64.5 59.5v145q-112 -20 -174.5 -61
t-62.5 -93q0 -38 23.5 -57.5t63.5 -19.5q41 0 85.5 26.5z" />
    <glyph glyph-name="acircumflex" unicode="&#xe2;" horiz-adv-x="484" 
d="M102 566l116 118h43l117 -118l-18 -19l-101 82q-13 9 -19 9q-7 0 -20 -9l-101 -82zM65.5 19q-32.5 29 -32.5 77q0 72 75 119.5t234 69.5v55q0 53 -33 79.5t-88 26.5q-38 0 -72 -15.5t-34 -32.5q0 -6 1.5 -13.5t1.5 -14.5q0 -13 -7.5 -23.5t-25.5 -10.5q-15 0 -24.5 11
t-9.5 31q0 49 55.5 75.5t129.5 26.5q86 0 133 -38.5t47 -104.5v-285q0 -16 5 -23.5t16 -7.5q13 0 35 8v-14q-14 -12 -33 -18.5t-39 -6.5q-23 0 -40 10.5t-17 33.5v36q-42 -46 -91.5 -63t-94.5 -17q-59 0 -91.5 29zM277.5 50.5q44.5 26.5 64.5 59.5v145q-112 -20 -174.5 -61
t-62.5 -93q0 -38 23.5 -57.5t63.5 -19.5q41 0 85.5 26.5z" />
    <glyph glyph-name="atilde" unicode="&#xe3;" horiz-adv-x="484" 
d="M84 560q8 41 31.5 65.5t58.5 24.5q17 0 33.5 -7t41.5 -21q23 -13 39 -20t31 -7q23 0 37.5 15.5t25.5 47.5l19 -10q-9 -43 -32 -68.5t-60 -25.5q-16 0 -32 7t-40 21t-40 21t-31 7q-23 0 -38 -15t-25 -45zM65.5 19q-32.5 29 -32.5 77q0 72 75 119.5t234 69.5v55
q0 53 -33 79.5t-88 26.5q-38 0 -72 -15.5t-34 -32.5q0 -6 1.5 -13.5t1.5 -14.5q0 -13 -7.5 -23.5t-25.5 -10.5q-15 0 -24.5 11t-9.5 31q0 49 55.5 75.5t129.5 26.5q86 0 133 -38.5t47 -104.5v-285q0 -16 5 -23.5t16 -7.5q13 0 35 8v-14q-14 -12 -33 -18.5t-39 -6.5
q-23 0 -40 10.5t-17 33.5v36q-42 -46 -91.5 -63t-94.5 -17q-59 0 -91.5 29zM277.5 50.5q44.5 26.5 64.5 59.5v145q-112 -20 -174.5 -61t-62.5 -93q0 -38 23.5 -57.5t63.5 -19.5q41 0 85.5 26.5z" />
    <glyph glyph-name="adieresis" unicode="&#xe4;" horiz-adv-x="484" 
d="M103 556.5q-11 11.5 -11 29.5q0 19 11 30.5t30 11.5t30 -11.5t11 -30.5q0 -18 -11 -29.5t-30 -11.5t-30 11.5zM312 556.5q-11 11.5 -11 29.5q0 19 11 30.5t30 11.5t30 -11.5t11 -30.5q0 -18 -11 -29.5t-30 -11.5t-30 11.5zM65.5 19q-32.5 29 -32.5 77q0 72 75 119.5
t234 69.5v55q0 53 -33 79.5t-88 26.5q-38 0 -72 -15.5t-34 -32.5q0 -6 1.5 -13.5t1.5 -14.5q0 -13 -7.5 -23.5t-25.5 -10.5q-15 0 -24.5 11t-9.5 31q0 49 55.5 75.5t129.5 26.5q86 0 133 -38.5t47 -104.5v-285q0 -16 5 -23.5t16 -7.5q13 0 35 8v-14q-14 -12 -33 -18.5
t-39 -6.5q-23 0 -40 10.5t-17 33.5v36q-42 -46 -91.5 -63t-94.5 -17q-59 0 -91.5 29zM277.5 50.5q44.5 26.5 64.5 59.5v145q-112 -20 -174.5 -61t-62.5 -93q0 -38 23.5 -57.5t63.5 -19.5q41 0 85.5 26.5z" />
    <glyph glyph-name="aring" unicode="&#xe5;" horiz-adv-x="484" 
d="M178 567.5q-25 23.5 -25 60.5t25 60.5t64 23.5q38 0 63 -23.5t25 -60.5t-25 -60.5t-63 -23.5q-39 0 -64 23.5zM280 589q15 15 15 39t-15 39t-38 15t-38 -14.5t-15 -39.5q0 -24 15 -39t38 -15t38 15zM65.5 19q-32.5 29 -32.5 77q0 72 75 119.5t234 69.5v55q0 53 -33 79.5
t-88 26.5q-38 0 -72 -15.5t-34 -32.5q0 -6 1.5 -13.5t1.5 -14.5q0 -13 -7.5 -23.5t-25.5 -10.5q-15 0 -24.5 11t-9.5 31q0 49 55.5 75.5t129.5 26.5q86 0 133 -38.5t47 -104.5v-285q0 -16 5 -23.5t16 -7.5q13 0 35 8v-14q-14 -12 -33 -18.5t-39 -6.5q-23 0 -40 10.5
t-17 33.5v36q-42 -46 -91.5 -63t-94.5 -17q-59 0 -91.5 29zM277.5 50.5q44.5 26.5 64.5 59.5v145q-112 -20 -174.5 -61t-62.5 -93q0 -38 23.5 -57.5t63.5 -19.5q41 0 85.5 26.5z" />
    <glyph glyph-name="ae" unicode="&#xe6;" horiz-adv-x="790" 
d="M66 18.5q-33 28.5 -33 77.5q0 70 71 116.5t221 69.5q4 36 17 67q-3 48 -35.5 72.5t-85.5 24.5q-38 0 -72 -15.5t-34 -32.5q0 -6 1.5 -13.5t1.5 -14.5q0 -12 -8.5 -21.5t-26.5 -9.5q-15 0 -23.5 10t-8.5 29q0 49 55.5 75.5t129.5 26.5q54 0 93 -18t58 -51q29 34 71.5 51.5
t95.5 17.5q100 0 152.5 -55t52.5 -143v-21h-363q-1 -9 -1 -27q0 -64 21 -112.5t59 -74.5t87 -26q66 0 110 35.5t56 109.5h27q-8 -80 -59 -128t-142 -48q-63 0 -111.5 23t-77.5 68q-41 -49 -95.5 -70t-105.5 -21q-65 0 -98 28.5zM693 295q-1 60 -34.5 106t-101.5 46
q-65 0 -105 -41t-52 -111h293zM279.5 49.5q45.5 25.5 68.5 56.5q-26 52 -26 144q-104 -22 -160.5 -60.5t-56.5 -88.5q0 -38 23.5 -57.5t63.5 -19.5q42 0 87.5 25.5z" />
    <glyph glyph-name="ccedilla" unicode="&#xe7;" horiz-adv-x="490" 
d="M400.5 39q-47.5 -48 -136.5 -49l-27 -53q42 0 70.5 -14t28.5 -50q0 -42 -35.5 -62t-94.5 -20q-24 0 -46 6l7 26q11 -2 40 -2q77 0 77 51q0 23 -22.5 29.5t-54.5 6.5l-16 20l35 64q-94 9 -145.5 72t-51.5 171q0 114 62 179.5t172 65.5q46 0 89.5 -14.5t69.5 -48.5l11 63
h21v-159h-21q-10 62 -50 94t-101 32q-85 0 -132 -58.5t-47 -154.5q0 -97 45 -155t118 -58q66 0 109 35.5t55 109.5h26q-8 -79 -55.5 -127z" />
    <glyph glyph-name="egrave" unicode="&#xe8;" horiz-adv-x="497" 
d="M174.5 641.5q-7.5 9.5 -7.5 20.5t8 18t18 7q16 0 39 -20l112 -100l-14 -20l-137 79q-11 6 -18.5 15.5zM104 261q-1 -9 -1 -27q0 -64 21 -112.5t59 -74.5t86 -26q66 0 110 35.5t57 109.5h26q-8 -80 -59 -128t-142 -48q-108 0 -170 64t-62 181q0 115 62 180t170 65
q100 0 152.5 -55t52.5 -143v-21h-362zM160.5 406q-39.5 -41 -52.5 -111h293q-2 60 -35.5 106t-101.5 46q-64 0 -103.5 -41z" />
    <glyph glyph-name="eacute" unicode="&#xe9;" horiz-adv-x="497" 
d="M188 547l-14 20l113 100q23 20 40 20q12 0 18.5 -7t6.5 -18q0 -20 -28 -36zM104 261q-1 -9 -1 -27q0 -64 21 -112.5t59 -74.5t86 -26q66 0 110 35.5t57 109.5h26q-8 -80 -59 -128t-142 -48q-108 0 -170 64t-62 181q0 115 62 180t170 65q100 0 152.5 -55t52.5 -143v-21
h-362zM160.5 406q-39.5 -41 -52.5 -111h293q-2 60 -35.5 106t-101.5 46q-64 0 -103.5 -41z" />
    <glyph glyph-name="ecircumflex" unicode="&#xea;" horiz-adv-x="497" 
d="M134 547l-17 19l116 118h43l117 -118l-18 -19l-101 82q-13 9 -19 9q-7 0 -20 -9zM104 261q-1 -9 -1 -27q0 -64 21 -112.5t59 -74.5t86 -26q66 0 110 35.5t57 109.5h26q-8 -80 -59 -128t-142 -48q-108 0 -170 64t-62 181q0 115 62 180t170 65q100 0 152.5 -55t52.5 -143
v-21h-362zM160.5 406q-39.5 -41 -52.5 -111h293q-2 60 -35.5 106t-101.5 46q-64 0 -103.5 -41z" />
    <glyph glyph-name="edieresis" unicode="&#xeb;" horiz-adv-x="497" 
d="M123 556.5q-11 11.5 -11 29.5q0 19 11 30.5t30 11.5t30 -11.5t11 -30.5q0 -18 -11 -29.5t-30 -11.5t-30 11.5zM332 556.5q-11 11.5 -11 29.5q0 19 11 30.5t30 11.5t30 -11.5t11 -30.5q0 -18 -11 -29.5t-30 -11.5t-30 11.5zM104 261q-1 -9 -1 -27q0 -64 21 -112.5
t59 -74.5t86 -26q66 0 110 35.5t57 109.5h26q-8 -80 -59 -128t-142 -48q-108 0 -170 64t-62 181q0 115 62 180t170 65q100 0 152.5 -55t52.5 -143v-21h-362zM160.5 406q-39.5 -41 -52.5 -111h293q-2 60 -35.5 106t-101.5 46q-64 0 -103.5 -41z" />
    <glyph glyph-name="igrave" unicode="&#xec;" horiz-adv-x="287" 
d="M81 626q-11 6 -18.5 15.5t-7.5 20.5t8 18t18 7q16 0 39 -20l112 -100l-14 -20zM38 21h16q23 0 38 7.5t15 22.5v355q0 10 -5.5 14.5t-12.5 4.5q-6 0 -17 -4t-14 -5l-7 19l106 39h23v-423q0 -15 15 -22.5t38 -7.5h16v-21h-211v21z" />
    <glyph glyph-name="iacute" unicode="&#xed;" horiz-adv-x="287" 
d="M54 567l113 100q23 20 40 20q12 0 18.5 -7t6.5 -18q0 -20 -28 -36l-136 -79zM38 21h16q23 0 38 7.5t15 22.5v355q0 10 -5.5 14.5t-12.5 4.5q-6 0 -17 -4t-14 -5l-7 19l106 39h23v-423q0 -15 15 -22.5t38 -7.5h16v-21h-211v21z" />
    <glyph glyph-name="icircumflex" unicode="&#xee;" horiz-adv-x="287" 
d="M5 566l116 118h43l117 -118l-18 -19l-101 82q-13 9 -19 9q-7 0 -20 -9l-101 -82zM38 21h16q23 0 38 7.5t15 22.5v355q0 10 -5.5 14.5t-12.5 4.5q-6 0 -17 -4t-14 -5l-7 19l106 39h23v-423q0 -15 15 -22.5t38 -7.5h16v-21h-211v21z" />
    <glyph glyph-name="idieresis" unicode="&#xef;" horiz-adv-x="287" 
d="M8 556.5q-11 11.5 -11 29.5q0 19 11 30.5t30 11.5t30 -11.5t11 -30.5q0 -18 -11 -29.5t-30 -11.5t-30 11.5zM217 556.5q-11 11.5 -11 29.5q0 19 11 30.5t30 11.5t30 -11.5t11 -30.5q0 -18 -11 -29.5t-30 -11.5t-30 11.5zM38 21h16q23 0 38 7.5t15 22.5v355
q0 10 -5.5 14.5t-12.5 4.5q-6 0 -17 -4t-14 -5l-7 19l106 39h23v-423q0 -15 15 -22.5t38 -7.5h16v-21h-211v21z" />
    <glyph glyph-name="eth" unicode="&#xf0;" horiz-adv-x="581" 
d="M484.5 495q48.5 -102 48.5 -202q0 -143 -64 -223t-190 -80q-73 0 -125.5 35.5t-79.5 94t-27 128.5q0 62 26 120.5t80 96t132 37.5q48 0 92 -19.5t72 -60.5q-17 60 -52.5 119.5t-87.5 108.5l-159 -91l-13 37l142 82q-56 45 -110 68l23 30q67 -28 127 -75l43 26
q75 45 81 49l24 -35l-116 -67q85 -77 133.5 -179zM377 56q40 33 60.5 89.5t20.5 124.5q0 52 -22 97.5t-60.5 73t-86.5 27.5q-49 0 -87.5 -28t-60 -78.5t-21.5 -113.5q0 -61 19 -112t55.5 -82t86.5 -31q56 0 96 33z" />
    <glyph glyph-name="ntilde" unicode="&#xf1;" horiz-adv-x="596" 
d="M181 590q-15 -15 -25 -45l-19 10q8 41 31.5 65.5t58.5 24.5q17 0 33.5 -7t41.5 -21q23 -13 39 -20t31 -7q23 0 37.5 15.5t25.5 47.5l19 -10q-9 -43 -32 -68.5t-60 -25.5q-16 0 -32 7t-40 21t-40 21t-31 7q-23 0 -38 -15zM571 21v-21h-208v21h14q22 0 37 7.5t15 22.5v283
q0 55 -29 83t-82 28q-38 0 -72.5 -18t-56.5 -53t-22 -83v-240q0 -15 15 -22.5t37 -7.5h14v-21h-208v21h16q23 0 38 7.5t15 22.5v353q0 18 -18 18q-11 0 -31 -9l-7 19l106 40h23v-78q21 35 66 60.5t103 25.5q80 0 123 -36.5t43 -98.5v-294q0 -15 15 -22.5t38 -7.5h16z" />
    <glyph glyph-name="ograve" unicode="&#xf2;" horiz-adv-x="544" 
d="M209 626q-11 6 -18.5 15.5t-7.5 20.5t8 18t18 7q17 0 39 -20l112 -100l-14 -20zM93.5 54.5q-64.5 64.5 -64.5 180.5t64.5 180.5t178.5 64.5t178 -64.5t64 -180.5t-64 -180.5t-178 -64.5t-178.5 64.5zM397 78.5q46 55.5 46 156.5q0 100 -46 155.5t-125 55.5
q-80 0 -125.5 -55.5t-45.5 -155.5q0 -101 45.5 -156.5t125.5 -55.5q79 0 125 55.5z" />
    <glyph glyph-name="oacute" unicode="&#xf3;" horiz-adv-x="544" 
d="M182 567l113 100q23 20 40 20q12 0 18.5 -7t6.5 -18q0 -20 -28 -36l-136 -79zM93.5 54.5q-64.5 64.5 -64.5 180.5t64.5 180.5t178.5 64.5t178 -64.5t64 -180.5t-64 -180.5t-178 -64.5t-178.5 64.5zM397 78.5q46 55.5 46 156.5q0 100 -46 155.5t-125 55.5
q-80 0 -125.5 -55.5t-45.5 -155.5q0 -101 45.5 -156.5t125.5 -55.5q79 0 125 55.5z" />
    <glyph glyph-name="ocircumflex" unicode="&#xf4;" horiz-adv-x="544" 
d="M133 566l116 118h43l117 -118l-18 -19l-101 82q-13 9 -19 9q-7 0 -20 -9l-101 -82zM93.5 54.5q-64.5 64.5 -64.5 180.5t64.5 180.5t178.5 64.5t178 -64.5t64 -180.5t-64 -180.5t-178 -64.5t-178.5 64.5zM397 78.5q46 55.5 46 156.5q0 100 -46 155.5t-125 55.5
q-80 0 -125.5 -55.5t-45.5 -155.5q0 -101 45.5 -156.5t125.5 -55.5q79 0 125 55.5z" />
    <glyph glyph-name="otilde" unicode="&#xf5;" horiz-adv-x="544" 
d="M112 555q8 41 31.5 65.5t58.5 24.5q17 0 33.5 -7t41.5 -21q23 -13 39 -20t31 -7q23 0 37.5 15.5t25.5 47.5l19 -10q-9 -43 -32 -68.5t-60 -25.5q-16 0 -32 7t-40 21t-40 21t-31 7q-23 0 -38 -15t-25 -45zM93.5 54.5q-64.5 64.5 -64.5 180.5t64.5 180.5t178.5 64.5
t178 -64.5t64 -180.5t-64 -180.5t-178 -64.5t-178.5 64.5zM397 78.5q46 55.5 46 156.5q0 100 -46 155.5t-125 55.5q-80 0 -125.5 -55.5t-45.5 -155.5q0 -101 45.5 -156.5t125.5 -55.5q79 0 125 55.5z" />
    <glyph glyph-name="odieresis" unicode="&#xf6;" horiz-adv-x="544" 
d="M136 556.5q-11 11.5 -11 29.5q0 19 11 30.5t30 11.5t30 -11.5t11 -30.5q0 -18 -11 -29.5t-30 -11.5t-30 11.5zM345 556.5q-11 11.5 -11 29.5q0 19 11 30.5t30 11.5t30 -11.5t11 -30.5q0 -18 -11 -29.5t-30 -11.5t-30 11.5zM93.5 54.5q-64.5 64.5 -64.5 180.5t64.5 180.5
t178.5 64.5t178 -64.5t64 -180.5t-64 -180.5t-178 -64.5t-178.5 64.5zM397 78.5q46 55.5 46 156.5q0 100 -46 155.5t-125 55.5q-80 0 -125.5 -55.5t-45.5 -155.5q0 -101 45.5 -156.5t125.5 -55.5q79 0 125 55.5z" />
    <glyph glyph-name="divide" unicode="&#xf7;" horiz-adv-x="574" 
d="M249.5 467.5q-13.5 13.5 -13.5 34.5q0 22 13.5 35.5t35.5 13.5t35.5 -13.5t13.5 -35.5q0 -21 -13.5 -34.5t-35.5 -13.5t-35.5 13.5zM58 362h457v-42h-457v42zM247.5 144.5q-13.5 13.5 -13.5 35.5q0 21 13.5 34.5t35.5 13.5q23 0 36.5 -13.5t13.5 -34.5q0 -22 -13.5 -35.5
t-36.5 -13.5q-22 0 -35.5 13.5z" />
    <glyph glyph-name="oslash" unicode="&#xf8;" horiz-adv-x="544" 
d="M514 235q0 -116 -64 -180.5t-178 -64.5q-73 0 -127 27l-35 -51l-31 22l34 49q-41 32 -62.5 82t-21.5 116q0 116 64.5 180.5t178.5 64.5q74 0 126 -27l39 57l33 -22l-39 -56q83 -65 83 -197zM144 82l228 333q-42 31 -100 31q-80 0 -125.5 -55.5t-45.5 -155.5
q0 -98 43 -153zM397 78.5q46 55.5 46 156.5q0 97 -43 152l-229 -332q41 -32 101 -32q79 0 125 55.5z" />
    <glyph glyph-name="ugrave" unicode="&#xf9;" horiz-adv-x="581" 
d="M206.5 641.5q-7.5 9.5 -7.5 20.5t8 18t18 7q16 0 39 -20l112 -100l-14 -20l-137 79q-11 6 -18.5 15.5zM545 29v-14q-29 -25 -72 -25q-26 0 -41.5 14t-15.5 42v31q-21 -35 -66 -61t-104 -26q-80 0 -123 36.5t-43 97.5v280q0 18 -17 18q-12 0 -32 -9l-6 19l105 40h23v-337
q0 -55 29 -83t82 -28q38 0 73 18t57 53t22 83v226q0 18 -18 18q-10 0 -32 -9l-6 19l108 40h20v-420q0 -31 22 -31q13 0 35 8z" />
    <glyph glyph-name="uacute" unicode="&#xfa;" horiz-adv-x="581" 
d="M225 547l-14 20l113 100q23 20 40 20q12 0 18.5 -7t6.5 -18q0 -20 -28 -36zM545 29v-14q-29 -25 -72 -25q-26 0 -41.5 14t-15.5 42v31q-21 -35 -66 -61t-104 -26q-80 0 -123 36.5t-43 97.5v280q0 18 -17 18q-12 0 -32 -9l-6 19l105 40h23v-337q0 -55 29 -83t82 -28
q38 0 73 18t57 53t22 83v226q0 18 -18 18q-10 0 -32 -9l-6 19l108 40h20v-420q0 -31 22 -31q13 0 35 8z" />
    <glyph glyph-name="ucircumflex" unicode="&#xfb;" horiz-adv-x="581" 
d="M166 547l-17 19l116 118h43l117 -118l-18 -19l-101 82q-13 9 -19 9q-7 0 -20 -9zM545 29v-14q-29 -25 -72 -25q-26 0 -41.5 14t-15.5 42v31q-21 -35 -66 -61t-104 -26q-80 0 -123 36.5t-43 97.5v280q0 18 -17 18q-12 0 -32 -9l-6 19l105 40h23v-337q0 -55 29 -83t82 -28
q38 0 73 18t57 53t22 83v226q0 18 -18 18q-10 0 -32 -9l-6 19l108 40h20v-420q0 -31 22 -31q13 0 35 8z" />
    <glyph glyph-name="udieresis" unicode="&#xfc;" horiz-adv-x="581" 
d="M152 556.5q-11 11.5 -11 29.5q0 19 11 30.5t30 11.5t30 -11.5t11 -30.5q0 -18 -11 -29.5t-30 -11.5t-30 11.5zM361 556.5q-11 11.5 -11 29.5q0 19 11 30.5t30 11.5t30 -11.5t11 -30.5q0 -18 -11 -29.5t-30 -11.5t-30 11.5zM545 29v-14q-29 -25 -72 -25q-26 0 -41.5 14
t-15.5 42v31q-21 -35 -66 -61t-104 -26q-80 0 -123 36.5t-43 97.5v280q0 18 -17 18q-12 0 -32 -9l-6 19l105 40h23v-337q0 -55 29 -83t82 -28q38 0 73 18t57 53t22 83v226q0 18 -18 18q-10 0 -32 -9l-6 19l108 40h20v-420q0 -31 22 -31q13 0 35 8z" />
    <glyph glyph-name="yacute" unicode="&#xfd;" horiz-adv-x="539" 
d="M203 547l-14 20l113 100q23 20 40 20q12 0 18.5 -7t6.5 -18q0 -20 -28 -36zM525 470v-21h-13q-42 0 -55 -35l-195 -505q-19 -49 -51.5 -73t-81.5 -24q-41 0 -66 16t-25 35q0 28 23 28q11 0 16.5 -5t10.5 -15q6 -11 13 -16.5t21 -5.5q38 0 62.5 18.5t39.5 58.5l29 77
l-177 422q-5 13 -19 18.5t-29 5.5h-14v21h187v-21h-14q-19 0 -32 -6.5t-8 -19.5l134 -346l129 345q5 14 -8 20.5t-31 6.5h-14v21h168z" />
    <glyph glyph-name="thorn" unicode="&#xfe;" horiz-adv-x="573" 
d="M26 -204h16q23 0 38.5 7.5t15.5 22.5v818q0 10 -5.5 14.5t-12.5 4.5q-6 0 -16.5 -4t-15.5 -5l-6 19l106 39h22v-322q28 47 73 68.5t96 21.5q97 0 152 -60t55 -173q0 -134 -57.5 -195.5t-169.5 -61.5q-50 0 -92 22t-57 53v-238q0 -16 15 -23.5t38 -7.5h15v-21h-210v21z
M435.5 82q36.5 59 36.5 160t-38.5 152.5t-119.5 51.5q-31 0 -65.5 -18.5t-57.5 -52t-23 -76.5v-139q0 -58 39.5 -97.5t108.5 -39.5q83 0 119.5 59z" />
    <glyph glyph-name="ydieresis" unicode="&#xff;" horiz-adv-x="539" 
d="M150 556.5q-11 11.5 -11 29.5q0 19 11 30.5t30 11.5t30 -11.5t11 -30.5q0 -18 -11 -29.5t-30 -11.5t-30 11.5zM359 556.5q-11 11.5 -11 29.5q0 19 11 30.5t30 11.5t30 -11.5t11 -30.5q0 -18 -11 -29.5t-30 -11.5t-30 11.5zM525 470v-21h-13q-42 0 -55 -35l-195 -505
q-19 -49 -51.5 -73t-81.5 -24q-41 0 -66 16t-25 35q0 28 23 28q11 0 16.5 -5t10.5 -15q6 -11 13 -16.5t21 -5.5q38 0 62.5 18.5t39.5 58.5l29 77l-177 422q-5 13 -19 18.5t-29 5.5h-14v21h187v-21h-14q-19 0 -32 -6.5t-8 -19.5l134 -346l129 345q5 14 -8 20.5t-31 6.5h-14
v21h168z" />
    <glyph glyph-name="Amacron" unicode="&#x100;" horiz-adv-x="714" 
d="M514 784h-313v35h313v-35zM709 22v-22h-231v22h15q21 0 39 7t14 18l-61 170h-285l-56 -151q-2 -8 -2 -10q0 -15 17 -24.5t36 -9.5h17v-22h-207v22h15q20 0 41 10.5t27 24.5l237 629l56 26l247 -655q6 -16 25.5 -25.5t38.5 -9.5h17zM473 252l-128 356l-132 -356h260z" />
    <glyph glyph-name="amacron" unicode="&#x101;" horiz-adv-x="484" 
d="M81 582h313v-35h-313v35zM65.5 19q-32.5 29 -32.5 77q0 72 75 119.5t234 69.5v55q0 53 -33 79.5t-88 26.5q-38 0 -72 -15.5t-34 -32.5q0 -6 1.5 -13.5t1.5 -14.5q0 -13 -7.5 -23.5t-25.5 -10.5q-15 0 -24.5 11t-9.5 31q0 49 55.5 75.5t129.5 26.5q86 0 133 -38.5
t47 -104.5v-285q0 -16 5 -23.5t16 -7.5q13 0 35 8v-14q-14 -12 -33 -18.5t-39 -6.5q-23 0 -40 10.5t-17 33.5v36q-42 -46 -91.5 -63t-94.5 -17q-59 0 -91.5 29zM277.5 50.5q44.5 26.5 64.5 59.5v145q-112 -20 -174.5 -61t-62.5 -93q0 -38 23.5 -57.5t63.5 -19.5
q41 0 85.5 26.5z" />
    <glyph glyph-name="Abreve" unicode="&#x102;" horiz-adv-x="714" 
d="M254.5 808.5q-35.5 32.5 -38.5 92.5h30q10 -86 111 -86q100 0 109 86h31q-4 -59 -39 -92t-101 -33q-67 0 -102.5 32.5zM709 22v-22h-231v22h15q21 0 39 7t14 18l-61 170h-285l-56 -151q-2 -8 -2 -10q0 -15 17 -24.5t36 -9.5h17v-22h-207v22h15q20 0 41 10.5t27 24.5
l237 629l56 26l247 -655q6 -16 25.5 -25.5t38.5 -9.5h17zM473 252l-128 356l-132 -356h260z" />
    <glyph glyph-name="abreve" unicode="&#x103;" horiz-adv-x="484" 
d="M145.5 569.5q-35.5 32.5 -38.5 92.5h30q10 -86 111 -86q100 0 109 86h31q-4 -59 -39 -92t-101 -33q-67 0 -102.5 32.5zM65.5 19q-32.5 29 -32.5 77q0 72 75 119.5t234 69.5v55q0 53 -33 79.5t-88 26.5q-38 0 -72 -15.5t-34 -32.5q0 -6 1.5 -13.5t1.5 -14.5
q0 -13 -7.5 -23.5t-25.5 -10.5q-15 0 -24.5 11t-9.5 31q0 49 55.5 75.5t129.5 26.5q86 0 133 -38.5t47 -104.5v-285q0 -16 5 -23.5t16 -7.5q13 0 35 8v-14q-14 -12 -33 -18.5t-39 -6.5q-23 0 -40 10.5t-17 33.5v36q-42 -46 -91.5 -63t-94.5 -17q-59 0 -91.5 29zM277.5 50.5
q44.5 26.5 64.5 59.5v145q-112 -20 -174.5 -61t-62.5 -93q0 -38 23.5 -57.5t63.5 -19.5q41 0 85.5 26.5z" />
    <glyph glyph-name="Aogonek" unicode="&#x104;" horiz-adv-x="714" 
d="M614 -47.5q-18 -26.5 -18 -55.5q0 -28 17 -41t43 -13q21 0 45 9l4 -19q-35 -19 -71 -19q-47 0 -67.5 23.5t-20.5 53.5q0 33 21.5 61.5t58.5 47.5h-148v22h15q21 0 39 7t14 18l-61 170h-285l-56 -151q-2 -8 -2 -10q0 -15 17 -24.5t36 -9.5h17v-22h-207v22h15q20 0 41 10.5
t27 24.5l237 629l56 26l247 -655q6 -16 25.5 -25.5t38.5 -9.5h17v-22h-46q-31 -21 -49 -47.5zM473 252l-128 356l-132 -356h260z" />
    <glyph glyph-name="aogonek" unicode="&#x105;" horiz-adv-x="484" 
d="M361 -100q0 -28 17 -41t43 -13q21 0 45 9l4 -19q-35 -19 -71 -19q-47 0 -67.5 23.5t-20.5 53.5q0 29 17 54.5t47 45.5q-32 9 -32 40v36q-42 -46 -91.5 -63t-94.5 -17q-59 0 -91.5 29t-32.5 77q0 72 75 119.5t234 69.5v55q0 53 -33 79.5t-88 26.5q-38 0 -72 -15.5
t-34 -32.5q0 -6 1.5 -13.5t1.5 -14.5q0 -13 -7.5 -23.5t-25.5 -10.5q-15 0 -24.5 11t-9.5 31q0 49 55.5 75.5t129.5 26.5q86 0 133 -38.5t47 -104.5v-285q0 -16 5 -23.5t16 -7.5q13 0 35 8v-14q-22 -20 -61 -24q-50 -42 -50 -91zM342 255q-112 -20 -174.5 -61t-62.5 -93
q0 -38 23.5 -57.5t63.5 -19.5q41 0 85.5 26.5t64.5 59.5v145z" />
    <glyph glyph-name="Cacute" unicode="&#x106;" horiz-adv-x="658" 
d="M286 804l113 100q23 20 40 20q12 0 18.5 -7t6.5 -18q0 -20 -28 -36l-136 -79zM128 84q-83 94 -83 266q0 113 39 194t113.5 123.5t176.5 42.5q63 0 110.5 -18.5t79.5 -41.5q8 -5 9 -5q9 0 9 17v43h31v-186h-24q-7 72 -63.5 113.5t-138.5 41.5q-129 0 -197.5 -87.5
t-68.5 -236.5q0 -150 64 -237.5t193 -87.5q70 0 132 36.5t84 108.5h33q-18 -85 -88.5 -132.5t-173.5 -47.5q-154 0 -237 94z" />
    <glyph glyph-name="cacute" unicode="&#x107;" horiz-adv-x="490" 
d="M200 567l113 100q23 20 40 20q12 0 18.5 -7t6.5 -18q0 -20 -28 -36l-136 -79zM89.5 54q-60.5 64 -60.5 181q0 114 62 179.5t172 65.5q46 0 89.5 -14.5t69.5 -48.5l11 63h21v-159h-21q-10 62 -50 94t-101 32q-85 0 -132 -58.5t-47 -154.5q0 -97 45 -155t118 -58
q66 0 109 35.5t55 109.5h26q-8 -80 -57 -128t-141 -48q-108 0 -168.5 64z" />
    <glyph glyph-name="Ccircumflex" unicode="&#x108;" horiz-adv-x="658" 
d="M230 803l116 118h43l117 -118l-18 -19l-101 82q-13 9 -19 9q-7 0 -20 -9l-101 -82zM128 84q-83 94 -83 266q0 113 39 194t113.5 123.5t176.5 42.5q63 0 110.5 -18.5t79.5 -41.5q8 -5 9 -5q9 0 9 17v43h31v-186h-24q-7 72 -63.5 113.5t-138.5 41.5q-129 0 -197.5 -87.5
t-68.5 -236.5q0 -150 64 -237.5t193 -87.5q70 0 132 36.5t84 108.5h33q-18 -85 -88.5 -132.5t-173.5 -47.5q-154 0 -237 94z" />
    <glyph glyph-name="ccircumflex" unicode="&#x109;" horiz-adv-x="490" 
d="M118 566l116 118h43l117 -118l-18 -19l-101 82q-13 9 -19 9q-7 0 -20 -9l-101 -82zM89.5 54q-60.5 64 -60.5 181q0 114 62 179.5t172 65.5q46 0 89.5 -14.5t69.5 -48.5l11 63h21v-159h-21q-10 62 -50 94t-101 32q-85 0 -132 -58.5t-47 -154.5q0 -97 45 -155t118 -58
q66 0 109 35.5t55 109.5h26q-8 -80 -57 -128t-141 -48q-108 0 -168.5 64z" />
    <glyph glyph-name="Cdotaccent" unicode="&#x10a;" horiz-adv-x="658" 
d="M352 774q-11 11 -11 30t11 30t30 11q18 0 29 -11t11 -30t-11 -30t-29 -11q-19 0 -30 11zM128 84q-83 94 -83 266q0 113 39 194t113.5 123.5t176.5 42.5q63 0 110.5 -18.5t79.5 -41.5q8 -5 9 -5q9 0 9 17v43h31v-186h-24q-7 72 -63.5 113.5t-138.5 41.5
q-129 0 -197.5 -87.5t-68.5 -236.5q0 -150 64 -237.5t193 -87.5q70 0 132 36.5t84 108.5h33q-18 -85 -88.5 -132.5t-173.5 -47.5q-154 0 -237 94z" />
    <glyph glyph-name="cdotaccent" unicode="&#x10b;" horiz-adv-x="490" 
d="M237 557q-11 11 -11 30t11 30t30 11q18 0 29 -11t11 -30t-11 -30t-29 -11q-19 0 -30 11zM89.5 54q-60.5 64 -60.5 181q0 114 62 179.5t172 65.5q46 0 89.5 -14.5t69.5 -48.5l11 63h21v-159h-21q-10 62 -50 94t-101 32q-85 0 -132 -58.5t-47 -154.5q0 -97 45 -155t118 -58
q66 0 109 35.5t55 109.5h26q-8 -80 -57 -128t-141 -48q-108 0 -168.5 64z" />
    <glyph glyph-name="Ccaron" unicode="&#x10c;" horiz-adv-x="658" 
d="M228 902l17 19l101 -82q12 -9 20 -9q6 0 19 9l101 82l18 -19l-117 -118h-43zM128 84q-83 94 -83 266q0 113 39 194t113.5 123.5t176.5 42.5q63 0 110.5 -18.5t79.5 -41.5q8 -5 9 -5q9 0 9 17v43h31v-186h-24q-7 72 -63.5 113.5t-138.5 41.5q-129 0 -197.5 -87.5
t-68.5 -236.5q0 -150 64 -237.5t193 -87.5q70 0 132 36.5t84 108.5h33q-18 -85 -88.5 -132.5t-173.5 -47.5q-154 0 -237 94z" />
    <glyph glyph-name="ccaron" unicode="&#x10d;" horiz-adv-x="490" 
d="M116 665l17 19l101 -82q12 -9 20 -9q6 0 19 9l101 82l18 -19l-117 -118h-43zM89.5 54q-60.5 64 -60.5 181q0 114 62 179.5t172 65.5q46 0 89.5 -14.5t69.5 -48.5l11 63h21v-159h-21q-10 62 -50 94t-101 32q-85 0 -132 -58.5t-47 -154.5q0 -97 45 -155t118 -58
q66 0 109 35.5t55 109.5h26q-8 -80 -57 -128t-141 -48q-108 0 -168.5 64z" />
    <glyph glyph-name="Dcaron" unicode="&#x10e;" horiz-adv-x="669" 
d="M186 923l17 19l101 -82q12 -9 20 -9q6 0 19 9l101 82l18 -19l-117 -118h-43zM19 22h29q59 0 59 35v585q0 35 -59 35h-29v23h305q151 0 227.5 -90t76.5 -260q0 -171 -77 -260.5t-228 -89.5h-304v22zM321 33q115 0 173 83.5t58 233.5t-57.5 233t-171.5 83h-140v-633h138z
" />
    <glyph glyph-name="dcaron" unicode="&#x10f;" horiz-adv-x="662" 
d="M86.5 51.5q-55.5 61.5 -55.5 193.5q0 76 27 129t74.5 79.5t107.5 26.5q114 0 166 -74v243q0 18 -17 18q-12 0 -32 -9l-6 19l105 40h23v-654q0 -34 41 -34h21v-18l-122 -14l-5 78q-51 -85 -174 -85q-98 0 -153.5 61.5zM541 517q51 49 51 89q0 11 -4 18.5t-12 17.5
q-8 9 -12 16t-4 17q0 17 10.5 28t28.5 11q20 0 32.5 -14t12.5 -45q0 -42 -24 -82t-65 -71zM338.5 43.5q33.5 20.5 51 53.5t17.5 70v155q0 35 -21 63.5t-54 44.5t-67 16q-78 0 -120 -52.5t-42 -151.5q0 -101 36.5 -160t119.5 -59q46 0 79.5 20.5z" />
    <glyph glyph-name="Dcroat" unicode="&#x110;" horiz-adv-x="669" 
d="M551.5 610q76.5 -90 76.5 -260q0 -171 -77 -260.5t-228 -89.5h-304v22h29q59 0 59 35v277h-77v38h77v270q0 35 -59 35h-29v23h305q151 0 227.5 -90zM494 116.5q58 83.5 58 233.5t-57.5 233t-171.5 83h-140v-294h216v-38h-216v-301h138q115 0 173 83.5z" />
    <glyph glyph-name="dcroat" unicode="&#x111;" horiz-adv-x="566" 
d="M479 568v-505q0 -34 41 -34h21v-18l-122 -14l-5 78q-51 -85 -174 -85q-98 0 -153.5 61.5t-55.5 193.5q0 76 27 129t74.5 79.5t107.5 26.5q114 0 166 -74v162h-145v31h145v50q0 18 -17 18q-12 0 -32 -9l-6 19l105 40h23v-118h62v-31h-62zM407 322q0 35 -21 63.5t-54 44.5
t-67 16q-78 0 -120 -52.5t-42 -151.5q0 -101 36.5 -160t119.5 -59q46 0 79.5 20.5t51 53.5t17.5 70v155z" />
    <glyph glyph-name="Emacron" unicode="&#x112;" horiz-adv-x="591" 
d="M473 784h-313v35h313v-35zM553 175l-16 -175h-520v22h28q60 0 60 35v585q0 35 -60 35h-28v23h521v-167h-22q-4 52 -20 92t-61 40h-254v-278h189q30 0 39 24t13 75h21v-233h-21q-4 51 -13 75t-39 24h-189v-317h265q41 0 60.5 43t24.5 97h22z" />
    <glyph glyph-name="emacron" unicode="&#x113;" horiz-adv-x="497" 
d="M408 547h-313v35h313v-35zM104 261q-1 -9 -1 -27q0 -64 21 -112.5t59 -74.5t86 -26q66 0 110 35.5t57 109.5h26q-8 -80 -59 -128t-142 -48q-108 0 -170 64t-62 181q0 115 62 180t170 65q100 0 152.5 -55t52.5 -143v-21h-362zM160.5 406q-39.5 -41 -52.5 -111h293
q-2 60 -35.5 106t-101.5 46q-64 0 -103.5 -41z" />
    <glyph glyph-name="Ebreve" unicode="&#x114;" horiz-adv-x="591" 
d="M217.5 808.5q-35.5 32.5 -38.5 92.5h30q10 -86 111 -86q100 0 109 86h31q-4 -59 -39 -92t-101 -33q-67 0 -102.5 32.5zM553 175l-16 -175h-520v22h28q60 0 60 35v585q0 35 -60 35h-28v23h521v-167h-22q-4 52 -20 92t-61 40h-254v-278h189q30 0 39 24t13 75h21v-233h-21
q-4 51 -13 75t-39 24h-189v-317h265q41 0 60.5 43t24.5 97h22z" />
    <glyph glyph-name="ebreve" unicode="&#x115;" horiz-adv-x="497" 
d="M148.5 571.5q-35.5 32.5 -38.5 92.5h30q10 -86 111 -86q100 0 109 86h31q-4 -59 -39 -92t-101 -33q-67 0 -102.5 32.5zM104 261q-1 -9 -1 -27q0 -64 21 -112.5t59 -74.5t86 -26q66 0 110 35.5t57 109.5h26q-8 -80 -59 -128t-142 -48q-108 0 -170 64t-62 181q0 115 62 180
t170 65q100 0 152.5 -55t52.5 -143v-21h-362zM160.5 406q-39.5 -41 -52.5 -111h293q-2 60 -35.5 106t-101.5 46q-64 0 -103.5 -41z" />
    <glyph glyph-name="Edotaccent" unicode="&#x116;" horiz-adv-x="591" 
d="M291 774q-11 11 -11 30t11 30t30 11q18 0 29 -11t11 -30t-11 -30t-29 -11q-19 0 -30 11zM553 175l-16 -175h-520v22h28q60 0 60 35v585q0 35 -60 35h-28v23h521v-167h-22q-4 52 -20 92t-61 40h-254v-278h189q30 0 39 24t13 75h21v-233h-21q-4 51 -13 75t-39 24h-189v-317
h265q41 0 60.5 43t24.5 97h22z" />
    <glyph glyph-name="edotaccent" unicode="&#x117;" horiz-adv-x="497" 
d="M228 557q-11 11 -11 30t11 30t30 11q18 0 29 -11t11 -30t-11 -30t-29 -11q-19 0 -30 11zM104 261q-1 -9 -1 -27q0 -64 21 -112.5t59 -74.5t86 -26q66 0 110 35.5t57 109.5h26q-8 -80 -59 -128t-142 -48q-108 0 -170 64t-62 181q0 115 62 180t170 65q100 0 152.5 -55
t52.5 -143v-21h-362zM160.5 406q-39.5 -41 -52.5 -111h293q-2 60 -35.5 106t-101.5 46q-64 0 -103.5 -41z" />
    <glyph glyph-name="Eogonek" unicode="&#x118;" horiz-adv-x="591" 
d="M436 -47.5q-18 -26.5 -18 -55.5q0 -28 17 -41t43 -13q21 0 45 9l4 -19q-35 -19 -71 -19q-47 0 -67.5 23.5t-20.5 53.5q0 33 21.5 61.5t58.5 47.5h-431v22h28q60 0 60 35v585q0 35 -60 35h-28v23h521v-167h-22q-4 52 -20 92t-61 40h-254v-278h189q30 0 39 24t13 75h21
v-233h-21q-4 51 -13 75t-39 24h-189v-317h265q41 0 60.5 43t24.5 97h22l-16 -175h-52q-31 -21 -49 -47.5z" />
    <glyph glyph-name="eogonek" unicode="&#x119;" horiz-adv-x="497" 
d="M104 261q-1 -9 -1 -27q0 -64 21 -112.5t59 -74.5t86 -26q66 0 110 35.5t57 109.5h26q-5 -52 -28.5 -91.5t-65.5 -61.5q-41 -38 -41 -82q0 -28 17 -41t43 -13q21 0 45 9l4 -19q-35 -19 -71 -19q-47 0 -67.5 23.5t-20.5 53.5q0 36 27 68q-21 -3 -43 -3q-108 0 -170 64
t-62 181q0 115 62 180t170 65q100 0 152.5 -55t52.5 -143v-21h-362zM160.5 406q-39.5 -41 -52.5 -111h293q-2 60 -35.5 106t-101.5 46q-64 0 -103.5 -41z" />
    <glyph glyph-name="Ecaron" unicode="&#x11a;" horiz-adv-x="591" 
d="M297 784l-116 118l17 19l101 -82q12 -9 20 -9q6 0 19 9l101 82l18 -19l-117 -118h-43zM553 175l-16 -175h-520v22h28q60 0 60 35v585q0 35 -60 35h-28v23h521v-167h-22q-4 52 -20 92t-61 40h-254v-278h189q30 0 39 24t13 75h21v-233h-21q-4 51 -13 75t-39 24h-189v-317
h265q41 0 60.5 43t24.5 97h22z" />
    <glyph glyph-name="ecaron" unicode="&#x11b;" horiz-adv-x="497" 
d="M234 547l-116 118l17 19l101 -82q12 -9 20 -9q6 0 19 9l101 82l18 -19l-117 -118h-43zM104 261q-1 -9 -1 -27q0 -64 21 -112.5t59 -74.5t86 -26q66 0 110 35.5t57 109.5h26q-8 -80 -59 -128t-142 -48q-108 0 -170 64t-62 181q0 115 62 180t170 65q100 0 152.5 -55
t52.5 -143v-21h-362zM160.5 406q-39.5 -41 -52.5 -111h293q-2 60 -35.5 106t-101.5 46q-64 0 -103.5 -41z" />
    <glyph glyph-name="Gcircumflex" unicode="&#x11c;" horiz-adv-x="698" 
d="M242 824l116 118h43l117 -118l-18 -19l-101 82q-13 9 -19 9q-7 0 -20 -9l-101 -82zM128 84q-83 94 -83 266q0 113 39.5 194t114 123.5t177.5 42.5q57 0 109 -18t80 -42q4 -4 11 -4q9 0 9 16v43h31v-186h-24q-8 72 -65 113.5t-139 41.5q-128 0 -197.5 -88t-69.5 -236
q0 -150 64 -237.5t193 -87.5q47 0 96 12t83 42v202q0 28 -24.5 38.5t-72.5 11.5v20h229v-18h-8q-23 0 -33.5 -7t-14 -25.5t-3.5 -56.5v-174q-50 -39 -111 -59.5t-154 -20.5q-154 0 -237 94z" />
    <glyph glyph-name="gcircumflex" unicode="&#x11d;" horiz-adv-x="486" 
d="M114 547l-17 19l116 118h43l117 -118l-18 -19l-101 82q-13 9 -19 9q-7 0 -20 -9zM487 469.5q15 -10.5 15 -25.5q0 -14 -7.5 -21.5t-21.5 -7.5q-9 0 -14 3.5t-10 10.5q-5 8 -11 12t-19 4t-41 -15q43 -40 43 -107q0 -73 -52 -114.5t-142 -41.5q-60 0 -105 20
q-34 -24 -34 -50q0 -21 20 -34t56 -13h152q57 0 96.5 -25t39.5 -75q0 -70 -62.5 -105t-166.5 -35q-88 0 -140.5 30.5t-52.5 86.5q0 58 70 89q-30 9 -45 27.5t-15 40.5q0 42 55 78q-60 43 -60 121q0 73 51.5 115t140.5 42q82 0 131 -34q39 34 88 34q26 0 41 -10.5zM318 234
q31 35 31 89t-31 89.5t-91 35.5q-59 0 -89.5 -35t-30.5 -90q0 -54 30.5 -89t89.5 -35q60 0 91 35zM84 -33q0 -42 39 -63.5t105 -21.5q74 0 117 25t43 71q0 33 -20.5 49.5t-68.5 16.5h-162q-53 -25 -53 -77z" />
    <glyph glyph-name="Gbreve" unicode="&#x11e;" horiz-adv-x="698" 
d="M274.5 829.5q-35.5 32.5 -38.5 92.5h30q10 -86 111 -86q100 0 109 86h31q-4 -59 -39 -92t-101 -33q-67 0 -102.5 32.5zM128 84q-83 94 -83 266q0 113 39.5 194t114 123.5t177.5 42.5q57 0 109 -18t80 -42q4 -4 11 -4q9 0 9 16v43h31v-186h-24q-8 72 -65 113.5t-139 41.5
q-128 0 -197.5 -88t-69.5 -236q0 -150 64 -237.5t193 -87.5q47 0 96 12t83 42v202q0 28 -24.5 38.5t-72.5 11.5v20h229v-18h-8q-23 0 -33.5 -7t-14 -25.5t-3.5 -56.5v-174q-50 -39 -111 -59.5t-154 -20.5q-154 0 -237 94z" />
    <glyph glyph-name="gbreve" unicode="&#x11f;" horiz-adv-x="486" 
d="M128.5 571.5q-35.5 32.5 -38.5 92.5h30q10 -86 111 -86q100 0 109 86h31q-4 -59 -39 -92t-101 -33q-67 0 -102.5 32.5zM487 469.5q15 -10.5 15 -25.5q0 -14 -7.5 -21.5t-21.5 -7.5q-9 0 -14 3.5t-10 10.5q-5 8 -11 12t-19 4t-41 -15q43 -40 43 -107q0 -73 -52 -114.5
t-142 -41.5q-60 0 -105 20q-34 -24 -34 -50q0 -21 20 -34t56 -13h152q57 0 96.5 -25t39.5 -75q0 -70 -62.5 -105t-166.5 -35q-88 0 -140.5 30.5t-52.5 86.5q0 58 70 89q-30 9 -45 27.5t-15 40.5q0 42 55 78q-60 43 -60 121q0 73 51.5 115t140.5 42q82 0 131 -34q39 34 88 34
q26 0 41 -10.5zM318 234q31 35 31 89t-31 89.5t-91 35.5q-59 0 -89.5 -35t-30.5 -90q0 -54 30.5 -89t89.5 -35q60 0 91 35zM84 -33q0 -42 39 -63.5t105 -21.5q74 0 117 25t43 71q0 33 -20.5 49.5t-68.5 16.5h-162q-53 -25 -53 -77z" />
    <glyph glyph-name="Gdotaccent" unicode="&#x120;" horiz-adv-x="698" 
d="M342 795q-11 11 -11 30t11 30t30 11q18 0 29 -11t11 -30t-11 -30t-29 -11q-19 0 -30 11zM128 84q-83 94 -83 266q0 113 39.5 194t114 123.5t177.5 42.5q57 0 109 -18t80 -42q4 -4 11 -4q9 0 9 16v43h31v-186h-24q-8 72 -65 113.5t-139 41.5q-128 0 -197.5 -88t-69.5 -236
q0 -150 64 -237.5t193 -87.5q47 0 96 12t83 42v202q0 28 -24.5 38.5t-72.5 11.5v20h229v-18h-8q-23 0 -33.5 -7t-14 -25.5t-3.5 -56.5v-174q-50 -39 -111 -59.5t-154 -20.5q-154 0 -237 94z" />
    <glyph glyph-name="gdotaccent" unicode="&#x121;" horiz-adv-x="486" 
d="M201 557q-11 11 -11 30t11 30t30 11q18 0 29 -11t11 -30t-11 -30t-29 -11q-19 0 -30 11zM487 469.5q15 -10.5 15 -25.5q0 -14 -7.5 -21.5t-21.5 -7.5q-9 0 -14 3.5t-10 10.5q-5 8 -11 12t-19 4t-41 -15q43 -40 43 -107q0 -73 -52 -114.5t-142 -41.5q-60 0 -105 20
q-34 -24 -34 -50q0 -21 20 -34t56 -13h152q57 0 96.5 -25t39.5 -75q0 -70 -62.5 -105t-166.5 -35q-88 0 -140.5 30.5t-52.5 86.5q0 58 70 89q-30 9 -45 27.5t-15 40.5q0 42 55 78q-60 43 -60 121q0 73 51.5 115t140.5 42q82 0 131 -34q39 34 88 34q26 0 41 -10.5zM318 234
q31 35 31 89t-31 89.5t-91 35.5q-59 0 -89.5 -35t-30.5 -90q0 -54 30.5 -89t89.5 -35q60 0 91 35zM84 -33q0 -42 39 -63.5t105 -21.5q74 0 117 25t43 71q0 33 -20.5 49.5t-68.5 16.5h-162q-53 -25 -53 -77z" />
    <glyph glyph-name="Gcommaaccent" unicode="&#x122;" horiz-adv-x="698" 
d="M128 84q-83 94 -83 266q0 113 39.5 194t114 123.5t177.5 42.5q57 0 109 -18t80 -42q4 -4 11 -4q9 0 9 16v43h31v-186h-24q-8 72 -65 113.5t-139 41.5q-128 0 -197.5 -88t-69.5 -236q0 -150 64 -237.5t193 -87.5q47 0 96 12t83 42v202q0 28 -24.5 38.5t-72.5 11.5v20h229
v-18h-8q-23 0 -33.5 -7t-14 -25.5t-3.5 -56.5v-174q-50 -39 -111 -59.5t-154 -20.5q-154 0 -237 94zM326 -262q51 49 51 89q0 11 -4 18t-12 18q-8 9 -12 16t-4 17q0 17 10.5 28t28.5 11q20 0 32.5 -14t12.5 -45q0 -42 -24 -82t-65 -71z" />
    <glyph glyph-name="gcommaaccent" unicode="&#x123;" horiz-adv-x="486" 
d="M203.5 561q-12.5 14 -12.5 45q0 42 24 82t65 71l14 -15q-51 -49 -51 -89q0 -11 4 -18t12 -18q8 -9 12 -16t4 -17q0 -17 -10.5 -28t-28.5 -11q-20 0 -32.5 14zM487 469.5q15 -10.5 15 -25.5q0 -14 -7.5 -21.5t-21.5 -7.5q-9 0 -14 3.5t-10 10.5q-5 8 -11 12t-19 4t-41 -15
q43 -40 43 -107q0 -73 -52 -114.5t-142 -41.5q-60 0 -105 20q-34 -24 -34 -50q0 -21 20 -34t56 -13h152q57 0 96.5 -25t39.5 -75q0 -70 -62.5 -105t-166.5 -35q-88 0 -140.5 30.5t-52.5 86.5q0 58 70 89q-30 9 -45 27.5t-15 40.5q0 42 55 78q-60 43 -60 121q0 73 51.5 115
t140.5 42q82 0 131 -34q39 34 88 34q26 0 41 -10.5zM318 234q31 35 31 89t-31 89.5t-91 35.5q-59 0 -89.5 -35t-30.5 -90q0 -54 30.5 -89t89.5 -35q60 0 91 35zM84 -33q0 -42 39 -63.5t105 -21.5q74 0 117 25t43 71q0 33 -20.5 49.5t-68.5 16.5h-162q-53 -25 -53 -77z" />
    <glyph glyph-name="Hcircumflex" unicode="&#x124;" horiz-adv-x="757" 
d="M257 784l-17 19l116 118h43l117 -118l-18 -19l-101 82q-13 9 -19 9q-7 0 -20 -9zM659.5 668.5q-14.5 -8.5 -14.5 -26.5v-585q0 -18 14.5 -26.5t44.5 -8.5h28v-22h-251v22h28q60 0 60 35v297h-381v-297q0 -35 59 -35h29v-22h-251v22h28q30 0 44.5 8.5t14.5 26.5v585
q0 18 -14.5 26.5t-44.5 8.5h-28v23h251v-23h-29q-59 0 -59 -35v-253h381v253q0 35 -60 35h-28v23h251v-23h-28q-30 0 -44.5 -8.5z" />
    <glyph glyph-name="hcircumflex" unicode="&#x125;" horiz-adv-x="596" 
d="M199 790l-17 19l116 118h43l117 -118l-18 -19l-101 82q-13 9 -19 9q-7 0 -20 -9zM571 21v-21h-208v21h14q22 0 37 7.5t15 22.5v283q0 55 -29 83t-82 28q-38 0 -72.5 -18t-56.5 -53t-22 -83v-240q0 -15 15 -22.5t37 -7.5h14v-21h-208v21h16q23 0 38 7.5t15 22.5v598
q0 18 -18 18q-11 0 -31 -9l-7 19l106 40h23v-323q21 35 66 60.5t103 25.5q80 0 123 -36.5t43 -98.5v-294q0 -15 15 -22.5t38 -7.5h16z" />
    <glyph glyph-name="Hbar" unicode="&#x126;" horiz-adv-x="757" 
d="M659.5 668.5q-14.5 -8.5 -14.5 -26.5v-98h53v-35h-53v-452q0 -18 14.5 -26.5t44.5 -8.5h28v-22h-251v22h28q60 0 60 35v297h-381v-297q0 -35 59 -35h29v-22h-251v22h28q30 0 44.5 8.5t14.5 26.5v452h-67v35h67v98q0 18 -14.5 26.5t-44.5 8.5h-28v23h251v-23h-29
q-59 0 -59 -35v-98h381v98q0 35 -60 35h-28v23h251v-23h-28q-30 0 -44.5 -8.5zM569 509h-381v-120h381v120z" />
    <glyph glyph-name="hbar" unicode="&#x127;" horiz-adv-x="596" 
d="M571 21v-21h-208v21h14q22 0 37 7.5t15 22.5v283q0 55 -29 83t-82 28q-38 0 -72.5 -18t-56.5 -53t-22 -83v-240q0 -15 15 -22.5t37 -7.5h14v-21h-208v21h16q23 0 38 7.5t15 22.5v517h-50v31h50v50q0 18 -18 18q-11 0 -31 -9l-7 19l106 40h23v-118h157v-31h-157v-174
q21 35 66 60.5t103 25.5q80 0 123 -36.5t43 -98.5v-294q0 -15 15 -22.5t38 -7.5h16z" />
    <glyph glyph-name="Itilde" unicode="&#x128;" horiz-adv-x="307" 
d="M-6 792q8 41 31.5 65.5t58.5 24.5q17 0 33.5 -7t41.5 -21q23 -13 39 -20t31 -7q23 0 37.5 15.5t25.5 47.5l19 -10q-9 -43 -32 -68.5t-60 -25.5q-16 0 -32 7t-40 21t-40 21t-31 7q-23 0 -38 -15t-25 -45zM28 22h29q59 0 59 35v585q0 35 -59 35h-29v23h251v-23h-28
q-30 0 -44.5 -8.5t-14.5 -26.5v-585q0 -18 14.5 -26.5t44.5 -8.5h28v-22h-251v22z" />
    <glyph glyph-name="itilde" unicode="&#x129;" horiz-adv-x="287" 
d="M-15 555q8 41 31.5 65.5t58.5 24.5q17 0 33.5 -7t41.5 -21q23 -13 39 -20t31 -7q23 0 37.5 15.5t25.5 47.5l19 -10q-9 -43 -32 -68.5t-60 -25.5q-16 0 -32 7t-40 21t-40 21t-31 7q-23 0 -38 -15t-25 -45zM38 21h16q23 0 38 7.5t15 22.5v355q0 10 -5.5 14.5t-12.5 4.5
q-6 0 -17 -4t-14 -5l-7 19l106 39h23v-423q0 -15 15 -22.5t38 -7.5h16v-21h-211v21z" />
    <glyph glyph-name="Imacron" unicode="&#x12a;" horiz-adv-x="307" 
d="M-31 824h369v-38h-369v38zM28 22h29q59 0 59 35v585q0 35 -59 35h-29v23h251v-23h-28q-30 0 -44.5 -8.5t-14.5 -26.5v-585q0 -18 14.5 -26.5t44.5 -8.5h28v-22h-251v22z" />
    <glyph glyph-name="imacron" unicode="&#x12b;" horiz-adv-x="287" 
d="M-14 582h313v-35h-313v35zM38 21h16q23 0 38 7.5t15 22.5v355q0 10 -5.5 14.5t-12.5 4.5q-6 0 -17 -4t-14 -5l-7 19l106 39h23v-423q0 -15 15 -22.5t38 -7.5h16v-21h-211v21z" />
    <glyph glyph-name="Ibreve" unicode="&#x12c;" horiz-adv-x="307" 
d="M50.5 808.5q-35.5 32.5 -38.5 92.5h30q10 -86 111 -86q100 0 109 86h31q-4 -59 -39 -92t-101 -33q-67 0 -102.5 32.5zM28 22h29q59 0 59 35v585q0 35 -59 35h-29v23h251v-23h-28q-30 0 -44.5 -8.5t-14.5 -26.5v-585q0 -18 14.5 -26.5t44.5 -8.5h28v-22h-251v22z" />
    <glyph glyph-name="ibreve" unicode="&#x12d;" horiz-adv-x="287" 
d="M40.5 586.5q-35.5 32.5 -37.5 91.5h30q9 -85 110 -85q100 0 110 85h30q-4 -59 -39 -91.5t-101 -32.5q-67 0 -102.5 32.5zM38 21h16q23 0 38 7.5t15 22.5v355q0 10 -5.5 14.5t-12.5 4.5q-6 0 -17 -4t-14 -5l-7 19l106 39h23v-423q0 -15 15 -22.5t38 -7.5h16v-21h-211v21z
" />
    <glyph glyph-name="Iogonek" unicode="&#x12e;" horiz-adv-x="307" 
d="M206.5 668.5q-14.5 -8.5 -14.5 -26.5v-585q0 -18 14.5 -26.5t44.5 -8.5h28v-22h-50q-31 -21 -49 -47.5t-18 -55.5q0 -28 17 -41t43 -13q21 0 45 9l4 -19q-35 -19 -71 -19q-47 0 -67.5 23.5t-20.5 53.5q0 33 21.5 61.5t58.5 47.5h-164v22h29q59 0 59 35v585q0 35 -59 35
h-29v23h251v-23h-28q-30 0 -44.5 -8.5z" />
    <glyph glyph-name="iogonek" unicode="&#x12f;" horiz-adv-x="273" 
d="M93.5 576q-13.5 13 -13.5 34q0 22 13.5 35t35.5 13t35.5 -13t13.5 -35q0 -21 -13.5 -34t-35.5 -13t-35.5 13zM276 -167q-35 -19 -71 -19q-47 0 -67.5 23.5t-20.5 53.5q0 33 21.5 61.5t58.5 47.5h-166v21h16q23 0 38 7.5t15 22.5v355q0 10 -5.5 14.5t-12.5 4.5
q-6 0 -17 -4t-14 -5l-7 19l106 39h23v-423q0 -15 15 -22.5t38 -7.5h16v-21h-8q-31 -21 -49 -47.5t-18 -55.5q0 -28 17 -41t43 -13q21 0 45 9z" />
    <glyph glyph-name="Idotaccent" unicode="&#x130;" horiz-adv-x="307" 
d="M124 774q-11 11 -11 30t11 30t30 11q18 0 29 -11t11 -30t-11 -30t-29 -11q-19 0 -30 11zM28 22h29q59 0 59 35v585q0 35 -59 35h-29v23h251v-23h-28q-30 0 -44.5 -8.5t-14.5 -26.5v-585q0 -18 14.5 -26.5t44.5 -8.5h28v-22h-251v22z" />
    <glyph glyph-name="dotlessi" unicode="&#x131;" horiz-adv-x="287" 
d="M38 21h16q23 0 38 7.5t15 22.5v355q0 10 -5.5 14.5t-12.5 4.5q-6 0 -17 -4t-14 -5l-7 19l106 39h23v-423q0 -15 15 -22.5t38 -7.5h16v-21h-211v21z" />
    <glyph glyph-name="IJ" unicode="&#x132;" horiz-adv-x="635" 
d="M28 22h29q59 0 59 35v585q0 35 -59 35h-29v23h251v-23h-28q-30 0 -44.5 -8.5t-14.5 -26.5v-585q0 -18 14.5 -26.5t44.5 -8.5h28v-22h-251v22zM317 -95q61 11 93.5 56.5t32.5 117.5v563q0 18 -14.5 26.5t-44.5 8.5h-28v23h251v-23h-29q-59 0 -59 -35v-563
q0 -92 -54 -142.5t-144 -50.5z" />
    <glyph glyph-name="ij" unicode="&#x133;" horiz-adv-x="560" 
d="M93.5 576q-13.5 13 -13.5 34q0 22 13.5 35t35.5 13t35.5 -13t13.5 -35q0 -21 -13.5 -34t-35.5 -13t-35.5 13zM403.5 576q-13.5 13 -13.5 34q0 22 13.5 35t35.5 13t35.5 -13t13.5 -35q0 -21 -13.5 -34t-35.5 -13t-35.5 13zM31 21h16q23 0 38 7.5t15 22.5v355
q0 10 -5.5 14.5t-12.5 4.5q-6 0 -17 -4t-14 -5l-7 19l106 39h23v-423q0 -15 15 -22.5t38 -7.5h16v-21h-211v21zM315 -105q42 19 61.5 46.5t24.5 62t5 97.5v303q0 18 -18 18q-10 0 -32 -9l-6 19l106 40h22v-368q0 -97 -33 -153t-125 -77z" />
    <glyph glyph-name="Jcircumflex" unicode="&#x134;" horiz-adv-x="349" 
d="M57 824l116 118h43l117 -118l-18 -19l-101 82q-13 9 -19 9q-7 0 -20 -9l-101 -82zM31 -95q61 11 93.5 56.5t32.5 117.5v563q0 18 -14.5 26.5t-44.5 8.5h-28v23h251v-23h-29q-59 0 -59 -35v-563q0 -92 -54 -142.5t-144 -50.5z" />
    <glyph glyph-name="jcircumflex" unicode="&#x135;" horiz-adv-x="281" 
d="M19 566l116 118h43l117 -118l-18 -19l-101 82q-13 9 -19 9q-7 0 -20 -9l-101 -82zM36 -105q42 19 61.5 46.5t24 62t4.5 97.5v303q0 18 -18 18q-10 0 -32 -9l-6 19l106 40h22v-368q0 -97 -33 -153t-125 -77z" />
    <glyph glyph-name="Kcommaaccent" unicode="&#x136;" horiz-adv-x="674" 
d="M657 22v-22h-138l-329 333l-2 -2v-274q0 -35 59 -35h29v-22h-251v22h28q30 0 44.5 8.5t14.5 26.5v585q0 18 -14.5 26.5t-44.5 8.5h-28v23h251v-23h-29q-59 0 -59 -35v-257l297 260q6 8 6 13q0 19 -39 19h-15v23h189v-23h-18q-20 0 -32 -6t-27 -19l-309 -274l313 -316
q20 -20 35.5 -30t39.5 -10h29zM397.5 -79q12.5 -14 12.5 -45q0 -42 -24 -82t-65 -71l-14 15q51 49 51 89q0 11 -4 18t-12 18q-8 9 -12 16t-4 17q0 17 10.5 28t28.5 11q20 0 32.5 -14z" />
    <glyph glyph-name="kcommaaccent" unicode="&#x137;" horiz-adv-x="559" 
d="M546 21v-21h-133l-238 214l-9 -8v-155q0 -15 15 -22.5t38 -7.5h15v-21h-210v21h16q24 0 39 7.5t15 22.5v598q0 18 -18 18q-9 0 -32 -9l-6 19l106 40h22v-466l198 168q8 8 8 13q0 7 -10.5 12t-24.5 5h-18v21h177v-21h-18q-13 0 -28 -6.5t-27 -16.5l-201 -172l229 -206
q15 -13 35 -20t34 -7h26zM330.5 -76q12.5 -14 12.5 -45q0 -42 -24 -82t-65 -71l-14 15q51 49 51 89q0 11 -4 18t-12 18q-8 9 -12 16t-4 17q0 17 10.5 28t28.5 11q20 0 32.5 -14z" />
    <glyph glyph-name="kgreenlandic" unicode="&#x138;" horiz-adv-x="559" 
d="M546 21v-21h-133l-238 214l-9 -8v-155q0 -15 15 -22.5t38 -7.5h15v-21h-210v21h16q24 0 39 7.5t15 22.5v364q0 18 -18 18q-9 0 -32 -9l-6 19l106 40h22v-232l198 168q8 8 8 13q0 7 -10.5 12t-24.5 5h-18v21h177v-21h-18q-13 0 -28 -6.5t-27 -16.5l-201 -172l229 -206
q15 -13 35 -20t34 -7h26z" />
    <glyph glyph-name="Lacute" unicode="&#x139;" horiz-adv-x="573" 
d="M117 804l113 100q23 20 40 20q12 0 18.5 -7t6.5 -18q0 -20 -28 -36l-136 -79zM26 22h28q60 0 60 35v585q0 35 -60 35h-28v23h251v-23h-28q-30 0 -44.5 -8.5t-14.5 -26.5v-569q0 -38 60 -38h194q40 0 60.5 47.5t25.5 96.5h23l-16 -179h-511v22z" />
    <glyph glyph-name="lacute" unicode="&#x13a;" horiz-adv-x="284" 
d="M75 795l113 100q23 20 40 20q12 0 18.5 -7t6.5 -18q0 -20 -28 -36l-136 -79zM37 21h16q24 0 39 7.5t15 22.5v598q0 18 -18 18q-10 0 -32 -9l-6 19l106 40h22v-666q0 -15 15 -22.5t38 -7.5h15v-21h-210v21z" />
    <glyph glyph-name="Lcommaaccent" unicode="&#x13b;" horiz-adv-x="573" 
d="M26 22h28q60 0 60 35v585q0 35 -60 35h-28v23h251v-23h-28q-30 0 -44.5 -8.5t-14.5 -26.5v-569q0 -38 60 -38h194q40 0 60.5 47.5t25.5 96.5h23l-16 -179h-511v22zM230 -262q51 49 51 89q0 11 -4 18t-12 18q-8 9 -12 16t-4 17q0 17 10.5 28t28.5 11q20 0 32.5 -14
t12.5 -45q0 -42 -24 -82t-65 -71z" />
    <glyph glyph-name="lcommaaccent" unicode="&#x13c;" horiz-adv-x="284" 
d="M37 21h16q24 0 39 7.5t15 22.5v598q0 18 -18 18q-10 0 -32 -9l-6 19l106 40h22v-666q0 -15 15 -22.5t38 -7.5h15v-21h-210v21zM76 -259q51 49 51 89q0 11 -4 18t-12 18q-8 9 -12 16t-4 17q0 17 10.5 28t28.5 11q20 0 32.5 -14t12.5 -45q0 -42 -24 -82t-65 -71z" />
    <glyph glyph-name="Lcaron" unicode="&#x13d;" horiz-adv-x="573" 
d="M354 509q51 49 51 90q0 11 -4 17.5t-12 17.5q-8 9 -12 16t-4 17q0 17 10.5 28t28.5 11q20 0 32.5 -14t12.5 -44q0 -42 -24 -82.5t-65 -70.5zM26 22h28q60 0 60 35v585q0 35 -60 35h-28v23h251v-23h-28q-30 0 -44.5 -8.5t-14.5 -26.5v-569q0 -38 60 -38h194
q40 0 60.5 47.5t25.5 96.5h23l-16 -179h-511v22z" />
    <glyph glyph-name="lcaron" unicode="&#x13e;" horiz-adv-x="411" 
d="M37 21h16q24 0 39 7.5t15 22.5v598q0 18 -18 18q-10 0 -32 -9l-6 19l106 40h22v-666q0 -15 15 -22.5t38 -7.5h15v-21h-210v21zM290 513q46 44 46 89q0 11 -4 18.5t-12 17.5q-8 9 -12 16t-4 17q0 17 11.5 28t30.5 11q20 0 33.5 -15t13.5 -45q0 -42 -24 -81.5t-65 -70.5z
" />
    <glyph glyph-name="Ldot" unicode="&#x13f;" horiz-adv-x="573" 
d="M26 22h28q60 0 60 35v585q0 35 -60 35h-28v23h251v-23h-28q-30 0 -44.5 -8.5t-14.5 -26.5v-569q0 -38 60 -38h194q40 0 60.5 47.5t25.5 96.5h23l-16 -179h-511v22zM333 322.5q-11 11.5 -11 30.5q0 18 11 29.5t29 11.5q19 0 30 -11.5t11 -29.5q0 -19 -11 -30.5t-30 -11.5
q-18 0 -29 11.5z" />
    <glyph glyph-name="ldot" unicode="&#x140;" horiz-adv-x="387" 
d="M37 21h16q24 0 39 7.5t15 22.5v598q0 18 -18 18q-10 0 -32 -9l-6 19l106 40h22v-666q0 -15 15 -22.5t38 -7.5h15v-21h-210v21zM263.5 312q-12.5 12 -12.5 32q0 21 12.5 33t33.5 12q20 0 32.5 -12.5t12.5 -32.5t-12.5 -32t-32.5 -12q-21 0 -33.5 12z" />
    <glyph glyph-name="Lslash" unicode="&#x141;" horiz-adv-x="573" 
d="M553 179l-16 -179h-511v22h28q60 0 60 35v220l-83 -30v44l83 30v321q0 35 -60 35h-28v23h251v-23h-28q-30 0 -44.5 -8.5t-14.5 -26.5v-293l214 78v-44l-214 -78v-232q0 -38 60 -38h194q40 0 60.5 47.5t25.5 96.5h23z" />
    <glyph glyph-name="lslash" unicode="&#x142;" horiz-adv-x="287" 
d="M181 303v-252q0 -15 15 -22.5t38 -7.5h15v-21h-210v21h16q24 0 39 7.5t15 22.5v223l-101 -40v44l101 40v331q0 18 -18 18q-9 0 -32 -9l-6 19l106 40h22v-370l99 40v-44z" />
    <glyph glyph-name="Nacute" unicode="&#x143;" horiz-adv-x="746" 
d="M298 804l113 100q23 20 40 20q12 0 18.5 -7t6.5 -18q0 -20 -28 -36l-136 -79zM25 22h28q30 0 44.5 8.5t14.5 26.5v585q0 18 -14.5 26.5t-44.5 8.5h-28v23h176l388 -599v541q0 18 -14.5 26.5t-44.5 8.5h-28v23h219v-23h-29q-59 0 -59 -35v-642h-49l-428 655v-598
q0 -35 59 -35h29v-22h-219v22z" />
    <glyph glyph-name="nacute" unicode="&#x144;" horiz-adv-x="596" 
d="M241 547l-14 20l113 100q23 20 40 20q12 0 18.5 -7t6.5 -18q0 -20 -28 -36zM571 21v-21h-208v21h14q22 0 37 7.5t15 22.5v283q0 55 -29 83t-82 28q-38 0 -72.5 -18t-56.5 -53t-22 -83v-240q0 -15 15 -22.5t37 -7.5h14v-21h-208v21h16q23 0 38 7.5t15 22.5v353
q0 18 -18 18q-11 0 -31 -9l-7 19l106 40h23v-78q21 35 66 60.5t103 25.5q80 0 123 -36.5t43 -98.5v-294q0 -15 15 -22.5t38 -7.5h16z" />
    <glyph glyph-name="Ncommaaccent" unicode="&#x145;" horiz-adv-x="746" 
d="M25 22h28q30 0 44.5 8.5t14.5 26.5v585q0 18 -14.5 26.5t-44.5 8.5h-28v23h176l388 -599v541q0 18 -14.5 26.5t-44.5 8.5h-28v23h219v-23h-29q-59 0 -59 -35v-642h-49l-428 655v-598q0 -35 59 -35h29v-22h-219v22zM295 -262q51 49 51 89q0 11 -4 18t-12 18q-8 9 -12 16
t-4 17q0 17 10.5 28t28.5 11q20 0 32.5 -14t12.5 -45q0 -42 -24 -82t-65 -71z" />
    <glyph glyph-name="ncommaaccent" unicode="&#x146;" horiz-adv-x="596" 
d="M571 21v-21h-208v21h14q22 0 37 7.5t15 22.5v283q0 55 -29 83t-82 28q-38 0 -72.5 -18t-56.5 -53t-22 -83v-240q0 -15 15 -22.5t37 -7.5h14v-21h-208v21h16q23 0 38 7.5t15 22.5v353q0 18 -18 18q-11 0 -31 -9l-7 19l106 40h23v-78q21 35 66 60.5t103 25.5
q80 0 123 -36.5t43 -98.5v-294q0 -15 15 -22.5t38 -7.5h16zM336.5 -76q12.5 -14 12.5 -45q0 -42 -24 -82t-65 -71l-14 15q51 49 51 89q0 11 -4 18t-12 18q-8 9 -12 16t-4 17q0 17 10.5 28t28.5 11q20 0 32.5 -14z" />
    <glyph glyph-name="Ncaron" unicode="&#x147;" horiz-adv-x="746" 
d="M237 902l17 19l101 -82q12 -9 20 -9q6 0 19 9l101 82l18 -19l-117 -118h-43zM25 22h28q30 0 44.5 8.5t14.5 26.5v585q0 18 -14.5 26.5t-44.5 8.5h-28v23h176l388 -599v541q0 18 -14.5 26.5t-44.5 8.5h-28v23h219v-23h-29q-59 0 -59 -35v-642h-49l-428 655v-598
q0 -35 59 -35h29v-22h-219v22z" />
    <glyph glyph-name="ncaron" unicode="&#x148;" horiz-adv-x="596" 
d="M289 547l-116 118l17 19l101 -82q12 -9 20 -9q6 0 19 9l101 82l18 -19l-117 -118h-43zM571 21v-21h-208v21h14q22 0 37 7.5t15 22.5v283q0 55 -29 83t-82 28q-38 0 -72.5 -18t-56.5 -53t-22 -83v-240q0 -15 15 -22.5t37 -7.5h14v-21h-208v21h16q23 0 38 7.5t15 22.5v353
q0 18 -18 18q-11 0 -31 -9l-7 19l106 40h23v-78q21 35 66 60.5t103 25.5q80 0 123 -36.5t43 -98.5v-294q0 -15 15 -22.5t38 -7.5h16z" />
    <glyph glyph-name="napostrophe" unicode="&#x149;" horiz-adv-x="716" 
d="M109.5 596q12.5 -14 12.5 -45q0 -42 -24 -82t-65 -71l-14 15q51 49 51 89q0 11 -4 18.5t-12 17.5q-8 9 -12 16t-4 17q0 17 10.5 28t28.5 11q20 0 32.5 -14zM690 21v-21h-208v21h14q22 0 37 7.5t15 22.5v283q0 55 -29 83t-82 28q-38 0 -72.5 -18t-56.5 -53t-22 -83v-240
q0 -15 15 -22.5t37 -7.5h14v-21h-208v21h16q23 0 38 7.5t15 22.5v353q0 18 -18 18q-11 0 -31 -9l-7 19l106 40h23v-78q21 35 66 60.5t103 25.5q80 0 123 -36.5t43 -98.5v-294q0 -15 15 -22.5t38 -7.5h16z" />
    <glyph glyph-name="Eng" unicode="&#x14a;" horiz-adv-x="746" 
d="M431 -235q41 3 76 24t55.5 57t20.5 82v72l-427 659v-602q0 -35 59 -35h29v-22h-219v22h28q31 0 45 8t14 27v585q0 18 -14.5 26.5t-44.5 8.5h-28v23h179l385 -601v543q0 18 -14.5 26.5t-44.5 8.5h-28v23h219v-23h-29q-59 0 -59 -35v-671q0 -72 -17 -120t-60.5 -75.5
t-120.5 -32.5z" />
    <glyph glyph-name="eng" unicode="&#x14b;" horiz-adv-x="572" 
d="M459 443.5q43 -36.5 43 -98.5v-356q0 -89 -35 -141.5t-123 -71.5l-5 21q49 20 70 56.5t21 89.5v391q0 54 -29.5 82.5t-81.5 28.5q-38 0 -73 -18t-57 -53t-22 -83v-221q0 -27 11 -38t41 -11h14v-21h-208v21h16q30 0 41.5 11t11.5 38v334q0 18 -17 18q-12 0 -32 -9l-6 19
l107 40h21v-78q22 35 67 60.5t102 25.5q80 0 123 -36.5z" />
    <glyph glyph-name="Omacron" unicode="&#x14c;" horiz-adv-x="739" 
d="M212 833h313v-35h-313v35zM124 84q-86 94 -86 266q0 171 86 265.5t246 94.5q159 0 245 -94.5t86 -265.5q0 -172 -86 -266t-245 -94q-160 0 -246 94zM560.5 113q64.5 87 64.5 237t-64.5 237t-191.5 87q-125 0 -190 -87t-65 -237t65 -237t190 -87q127 0 191.5 87z" />
    <glyph glyph-name="omacron" unicode="&#x14d;" horiz-adv-x="544" 
d="M114 582h313v-35h-313v35zM93.5 54.5q-64.5 64.5 -64.5 180.5t64.5 180.5t178.5 64.5t178 -64.5t64 -180.5t-64 -180.5t-178 -64.5t-178.5 64.5zM397 78.5q46 55.5 46 156.5q0 100 -46 155.5t-125 55.5q-80 0 -125.5 -55.5t-45.5 -155.5q0 -101 45.5 -156.5t125.5 -55.5
q79 0 125 55.5z" />
    <glyph glyph-name="Obreve" unicode="&#x14e;" horiz-adv-x="739" 
d="M267.5 806.5q-35.5 32.5 -38.5 92.5h30q10 -86 111 -86q100 0 109 86h31q-4 -59 -39 -92t-101 -33q-67 0 -102.5 32.5zM124 84q-86 94 -86 266q0 171 86 265.5t246 94.5q159 0 245 -94.5t86 -265.5q0 -172 -86 -266t-245 -94q-160 0 -246 94zM560.5 113q64.5 87 64.5 237
t-64.5 237t-191.5 87q-125 0 -190 -87t-65 -237t65 -237t190 -87q127 0 191.5 87z" />
    <glyph glyph-name="obreve" unicode="&#x14f;" horiz-adv-x="544" 
d="M168.5 571.5q-35.5 32.5 -38.5 92.5h30q10 -86 111 -86q100 0 109 86h31q-4 -59 -39 -92t-101 -33q-67 0 -102.5 32.5zM93.5 54.5q-64.5 64.5 -64.5 180.5t64.5 180.5t178.5 64.5t178 -64.5t64 -180.5t-64 -180.5t-178 -64.5t-178.5 64.5zM397 78.5q46 55.5 46 156.5
q0 100 -46 155.5t-125 55.5q-80 0 -125.5 -55.5t-45.5 -155.5q0 -101 45.5 -156.5t125.5 -55.5q79 0 125 55.5z" />
    <glyph glyph-name="Ohungarumlaut" unicode="&#x150;" horiz-adv-x="739" 
d="M241 804l112 100q23 20 41 20q12 0 18.5 -7t6.5 -17q0 -20 -28 -37l-136 -79zM388 804l111 100q2 1 13.5 10.5t26.5 9.5q12 0 19 -7t7 -17q0 -20 -27 -37l-136 -79zM124 84q-86 94 -86 266q0 171 86 265.5t246 94.5q159 0 245 -94.5t86 -265.5q0 -172 -86 -266t-245 -94
q-160 0 -246 94zM560.5 113q64.5 87 64.5 237t-64.5 237t-191.5 87q-125 0 -190 -87t-65 -237t65 -237t190 -87q127 0 191.5 87z" />
    <glyph glyph-name="ohungarumlaut" unicode="&#x151;" horiz-adv-x="544" 
d="M118 567l112 100q23 20 41 20q12 0 18.5 -7t6.5 -17q0 -20 -28 -37l-136 -79zM265 567l111 100q2 1 13.5 10.5t26.5 9.5q12 0 19 -7t7 -17q0 -20 -27 -37l-136 -79zM93.5 54.5q-64.5 64.5 -64.5 180.5t64.5 180.5t178.5 64.5t178 -64.5t64 -180.5t-64 -180.5t-178 -64.5
t-178.5 64.5zM397 78.5q46 55.5 46 156.5q0 100 -46 155.5t-125 55.5q-80 0 -125.5 -55.5t-45.5 -155.5q0 -101 45.5 -156.5t125.5 -55.5q79 0 125 55.5z" />
    <glyph glyph-name="OE" unicode="&#x152;" horiz-adv-x="1022" 
d="M985 175l-16 -175h-411v50q-77 -60 -191 -60q-155 0 -242 94.5t-87 265.5q0 113 39 194t113 123.5t177 42.5q114 0 191 -61v51h411v-167h-22q-4 52 -20 92t-61 40h-232v-278h177q29 0 38.5 24.5t13.5 74.5h20v-233h-20q-4 50 -13.5 74.5t-38.5 24.5h-177v-317h243
q41 0 60.5 42.5t25.5 97.5h22zM558 108v483q-66 83 -185 83q-126 0 -192.5 -87.5t-66.5 -236.5t66.5 -237t192.5 -88q119 0 185 83z" />
    <glyph glyph-name="oe" unicode="&#x153;" horiz-adv-x="833" 
d="M439 261q-1 -9 -1 -27q0 -64 21 -112.5t59 -74.5t87 -26q66 0 110 35.5t56 109.5h27q-8 -80 -59 -128t-142 -48q-104 0 -166 60q-62 -60 -159 -60q-114 0 -178.5 64.5t-64.5 180.5t64.5 180.5t178.5 64.5q98 0 160 -60q62 60 165 60q100 0 152.5 -55t52.5 -143v-21h-363z
M495.5 406q-39.5 -41 -52.5 -111h293q-1 60 -34.5 106t-101.5 46q-65 0 -104.5 -41zM402 87q-37 59 -37 148q0 88 37 147q-22 32 -55.5 48t-74.5 16q-80 0 -125.5 -55.5t-45.5 -155.5q0 -101 45.5 -156.5t125.5 -55.5q85 0 130 64z" />
    <glyph glyph-name="Racute" unicode="&#x154;" horiz-adv-x="649" 
d="M255 784l-14 20l113 100q23 20 40 20q12 0 18.5 -7t6.5 -18q0 -20 -28 -36zM521 94q12 -30 34.5 -51t57.5 -21v-22h-67q-44 0 -70.5 26.5t-40.5 76.5l-12 47q-13 54 -25.5 88t-34.5 54h-15h-160v-235q0 -35 59 -35h29v-22h-251v22h28q30 0 44.5 8.5t14.5 26.5v585
q0 18 -14.5 26.5t-44.5 8.5h-28v23h323q112 0 162 -53t50 -151q0 -163 -135 -196q28 -15 41.5 -44.5t28.5 -81.5q14 -50 26 -80zM486 496q0 169 -150 169h-148v-338h148q150 0 150 169z" />
    <glyph glyph-name="racute" unicode="&#x155;" horiz-adv-x="371" 
d="M111 547l-14 20l113 100q23 20 40 20q12 0 18.5 -7t6.5 -18q0 -20 -28 -36zM346 470.5q18 -9.5 18 -27.5q0 -16 -8 -24.5t-22 -8.5q-9 0 -14.5 3.5t-10.5 9.5q-6 7 -11 10.5t-16 3.5q-44 0 -73.5 -42.5t-30.5 -113.5v-230q0 -15 15 -22.5t38 -7.5h15v-21h-210v21h16
q23 0 38 7.5t15 22.5v353q0 18 -17 18q-12 0 -32 -9l-6 19l107 40h21v-83q15 39 47 65t75 26q28 0 46 -9.5z" />
    <glyph glyph-name="Rcommaaccent" unicode="&#x156;" horiz-adv-x="649" 
d="M521 94q12 -30 34.5 -51t57.5 -21v-22h-67q-44 0 -70.5 26.5t-40.5 76.5l-12 47q-13 54 -25.5 88t-34.5 54h-15h-160v-235q0 -35 59 -35h29v-22h-251v22h28q30 0 44.5 8.5t14.5 26.5v585q0 18 -14.5 26.5t-44.5 8.5h-28v23h323q112 0 162 -53t50 -151q0 -163 -135 -196
q28 -15 41.5 -44.5t28.5 -81.5q14 -50 26 -80zM486 496q0 169 -150 169h-148v-338h148q150 0 150 169zM367.5 -79q12.5 -14 12.5 -45q0 -42 -24 -82t-65 -71l-14 15q51 49 51 89q0 11 -4 18t-12 18q-8 9 -12 16t-4 17q0 17 10.5 28t28.5 11q20 0 32.5 -14z" />
    <glyph glyph-name="rcommaaccent" unicode="&#x157;" horiz-adv-x="371" 
d="M346 470.5q18 -9.5 18 -27.5q0 -16 -8 -24.5t-22 -8.5q-9 0 -14.5 3.5t-10.5 9.5q-6 7 -11 10.5t-16 3.5q-44 0 -73.5 -42.5t-30.5 -113.5v-230q0 -15 15 -22.5t38 -7.5h15v-21h-210v21h16q23 0 38 7.5t15 22.5v353q0 18 -17 18q-12 0 -32 -9l-6 19l107 40h21v-83
q15 39 47 65t75 26q28 0 46 -9.5zM152.5 -76q12.5 -14 12.5 -45q0 -42 -24 -82t-65 -71l-14 15q51 49 51 89q0 11 -4 18t-12 18q-8 9 -12 16t-4 17q0 17 10.5 28t28.5 11q20 0 32.5 -14z" />
    <glyph glyph-name="Rcaron" unicode="&#x158;" horiz-adv-x="649" 
d="M308 784l-116 118l17 19l101 -82q12 -9 20 -9q6 0 19 9l101 82l18 -19l-117 -118h-43zM521 94q12 -30 34.5 -51t57.5 -21v-22h-67q-44 0 -70.5 26.5t-40.5 76.5l-12 47q-13 54 -25.5 88t-34.5 54h-15h-160v-235q0 -35 59 -35h29v-22h-251v22h28q30 0 44.5 8.5t14.5 26.5
v585q0 18 -14.5 26.5t-44.5 8.5h-28v23h323q112 0 162 -53t50 -151q0 -163 -135 -196q28 -15 41.5 -44.5t28.5 -81.5q14 -50 26 -80zM486 496q0 169 -150 169h-148v-338h148q150 0 150 169z" />
    <glyph glyph-name="rcaron" unicode="&#x159;" horiz-adv-x="371" 
d="M170 547l-116 118l17 19l101 -82q12 -9 20 -9q6 0 19 9l101 82l18 -19l-117 -118h-43zM346 470.5q18 -9.5 18 -27.5q0 -16 -8 -24.5t-22 -8.5q-9 0 -14.5 3.5t-10.5 9.5q-6 7 -11 10.5t-16 3.5q-44 0 -73.5 -42.5t-30.5 -113.5v-230q0 -15 15 -22.5t38 -7.5h15v-21h-210
v21h16q23 0 38 7.5t15 22.5v353q0 18 -17 18q-12 0 -32 -9l-6 19l107 40h21v-83q15 39 47 65t75 26q28 0 46 -9.5z" />
    <glyph glyph-name="Sacute" unicode="&#x15a;" horiz-adv-x="563" 
d="M192 804l113 100q23 20 40 20q12 0 18.5 -7t6.5 -18q0 -20 -28 -36l-136 -79zM192 6.5q-42 16.5 -88 42.5q-19 13 -25 13q-9 0 -9 -17v-44h-31v185h24q5 -45 35.5 -82t76.5 -58t94 -21q81 0 129 39t48 107q0 42 -25 73t-61.5 52t-99.5 49q-68 30 -108.5 53.5t-69 60.5
t-28.5 89q0 79 60.5 120.5t161.5 41.5q50 0 86.5 -13.5t73.5 -33.5q17 -10 20 -10q7 0 7 11v42h31v-185h-24q-7 70 -56.5 111.5t-122.5 41.5q-77 0 -119 -32t-42 -86q0 -37 23 -64.5t57.5 -46t93.5 -43.5q72 -31 115 -55.5t73.5 -65t30.5 -100.5q0 -59 -30 -102t-83 -66
t-119 -23q-57 0 -99 16.5z" />
    <glyph glyph-name="sacute" unicode="&#x15b;" horiz-adv-x="438" 
d="M136 567l113 100q23 20 40 20q12 0 18.5 -7t6.5 -18q0 -20 -28 -36l-136 -79zM138 4.5q-41 14.5 -65 48.5l-11 -62h-21v148h21q11 -54 49 -85t97 -31q61 0 93.5 22.5t32.5 64.5q0 23 -15.5 39.5t-37.5 27t-65 27.5q-52 19 -85.5 36t-57 47t-23.5 76q0 57 43.5 87
t117.5 30q44 0 85 -15t63 -45l11 60h21v-143h-22q-12 49 -47 79t-91 30q-49 0 -79 -20t-30 -56q0 -28 17 -47.5t42.5 -31.5t68.5 -28q51 -18 82 -33.5t52.5 -43t21.5 -68.5q0 -64 -49.5 -96t-128.5 -32q-49 0 -90 14.5z" />
    <glyph glyph-name="Scircumflex" unicode="&#x15c;" horiz-adv-x="563" 
d="M135 803l116 118h43l117 -118l-18 -19l-101 82q-13 9 -19 9q-7 0 -20 -9l-101 -82zM192 6.5q-42 16.5 -88 42.5q-19 13 -25 13q-9 0 -9 -17v-44h-31v185h24q5 -45 35.5 -82t76.5 -58t94 -21q81 0 129 39t48 107q0 42 -25 73t-61.5 52t-99.5 49q-68 30 -108.5 53.5
t-69 60.5t-28.5 89q0 79 60.5 120.5t161.5 41.5q50 0 86.5 -13.5t73.5 -33.5q17 -10 20 -10q7 0 7 11v42h31v-185h-24q-7 70 -56.5 111.5t-122.5 41.5q-77 0 -119 -32t-42 -86q0 -37 23 -64.5t57.5 -46t93.5 -43.5q72 -31 115 -55.5t73.5 -65t30.5 -100.5q0 -59 -30 -102
t-83 -66t-119 -23q-57 0 -99 16.5z" />
    <glyph glyph-name="scircumflex" unicode="&#x15d;" horiz-adv-x="438" 
d="M84 566l116 118h43l117 -118l-18 -19l-101 82q-13 9 -19 9q-7 0 -20 -9l-101 -82zM138 4.5q-41 14.5 -65 48.5l-11 -62h-21v148h21q11 -54 49 -85t97 -31q61 0 93.5 22.5t32.5 64.5q0 23 -15.5 39.5t-37.5 27t-65 27.5q-52 19 -85.5 36t-57 47t-23.5 76q0 57 43.5 87
t117.5 30q44 0 85 -15t63 -45l11 60h21v-143h-22q-12 49 -47 79t-91 30q-49 0 -79 -20t-30 -56q0 -28 17 -47.5t42.5 -31.5t68.5 -28q51 -18 82 -33.5t52.5 -43t21.5 -68.5q0 -64 -49.5 -96t-128.5 -32q-49 0 -90 14.5z" />
    <glyph glyph-name="Scedilla" unicode="&#x15e;" horiz-adv-x="563" 
d="M284 -10l-25 -49q42 0 70.5 -14t28.5 -50q0 -42 -35.5 -62t-94.5 -20q-23 0 -46 6l7 26q11 -2 40 -2q77 0 77 51q0 23 -22.5 29.5t-54.5 6.5l-16 20l33 61q-42 7 -75 21.5t-66 34.5q-21 13 -26 13q-9 0 -9 -17v-44h-31v185h24q5 -45 35.5 -82t76.5 -58t94 -21
q81 0 129 39t48 107q0 42 -25 73t-61.5 52t-99.5 49q-68 30 -108.5 53.5t-69 60.5t-28.5 89q0 79 60.5 120.5t161.5 41.5q50 0 86.5 -13.5t73.5 -33.5q17 -10 20 -10q7 0 7 11v42h31v-185h-24q-7 70 -56.5 111.5t-122.5 41.5q-77 0 -119 -32t-42 -86q0 -37 23 -64.5
t57.5 -46t93.5 -43.5q72 -31 115 -55.5t73.5 -65t30.5 -100.5q0 -59 -30 -102t-83 -66t-119 -23h-7z" />
    <glyph glyph-name="scedilla" unicode="&#x15f;" horiz-adv-x="438" 
d="M359 24q-47 -32 -123 -34l-27 -54q42 0 70.5 -14t28.5 -50q0 -42 -35.5 -62t-94.5 -20q-24 0 -46 6l7 26q11 -2 40 -2q77 0 77 51q0 23 -22.5 29.5t-54.5 6.5l-16 20l35 64q-87 9 -125 62l-11 -62h-21v148h21q11 -54 49 -85t97 -31q61 0 93.5 22.5t32.5 64.5
q0 23 -15.5 39.5t-37.5 27t-65 27.5q-52 19 -85.5 36t-57 47t-23.5 76q0 57 43.5 87t117.5 30q44 0 85 -15t63 -45l11 60h21v-143h-22q-12 49 -47 79t-91 30q-49 0 -79 -20t-30 -56q0 -28 17 -47.5t42.5 -31.5t68.5 -28q51 -18 82 -33.5t52.5 -43t21.5 -68.5q0 -62 -47 -94z
" />
    <glyph glyph-name="Scaron" unicode="&#x160;" horiz-adv-x="563" 
d="M135 902l17 19l101 -82q12 -9 20 -9q6 0 19 9l101 82l18 -19l-117 -118h-43zM192 6.5q-42 16.5 -88 42.5q-19 13 -25 13q-9 0 -9 -17v-44h-31v185h24q5 -45 35.5 -82t76.5 -58t94 -21q81 0 129 39t48 107q0 42 -25 73t-61.5 52t-99.5 49q-68 30 -108.5 53.5t-69 60.5
t-28.5 89q0 79 60.5 120.5t161.5 41.5q50 0 86.5 -13.5t73.5 -33.5q17 -10 20 -10q7 0 7 11v42h31v-185h-24q-7 70 -56.5 111.5t-122.5 41.5q-77 0 -119 -32t-42 -86q0 -37 23 -64.5t57.5 -46t93.5 -43.5q72 -31 115 -55.5t73.5 -65t30.5 -100.5q0 -59 -30 -102t-83 -66
t-119 -23q-57 0 -99 16.5z" />
    <glyph glyph-name="scaron" unicode="&#x161;" horiz-adv-x="438" 
d="M84 665l17 19l101 -82q12 -9 20 -9q6 0 19 9l101 82l18 -19l-117 -118h-43zM138 4.5q-41 14.5 -65 48.5l-11 -62h-21v148h21q11 -54 49 -85t97 -31q61 0 93.5 22.5t32.5 64.5q0 23 -15.5 39.5t-37.5 27t-65 27.5q-52 19 -85.5 36t-57 47t-23.5 76q0 57 43.5 87t117.5 30
q44 0 85 -15t63 -45l11 60h21v-143h-22q-12 49 -47 79t-91 30q-49 0 -79 -20t-30 -56q0 -28 17 -47.5t42.5 -31.5t68.5 -28q51 -18 82 -33.5t52.5 -43t21.5 -68.5q0 -64 -49.5 -96t-128.5 -32q-49 0 -90 14.5z" />
    <glyph glyph-name="uni0162" unicode="&#x162;" horiz-adv-x="631" 
d="M589 700v-179h-22q-3 53 -17.5 98.5t-54.5 45.5h-141v-608q0 -18 14.5 -26.5t44.5 -8.5h28v-22h-108l-30 -59q42 0 70.5 -14t28.5 -50q0 -42 -35.5 -62t-94.5 -20q-24 0 -46 6l7 26q11 -2 40 -2q77 0 77 51q0 23 -22.5 29.5t-54.5 6.5l-16 20l37 68h-104v22h28
q60 0 60 35v608h-142q-40 0 -54.5 -45.5t-17.5 -98.5h-22v179h547z" />
    <glyph glyph-name="uni0163" unicode="&#x163;" horiz-adv-x="379" 
d="M326 15.5q-31 -22.5 -76 -25.5l-26 -51q42 0 70.5 -14t28.5 -50q0 -42 -35.5 -62t-94.5 -20q-24 0 -46 6l7 26q11 -2 40 -2q77 0 77 51q0 23 -22.5 29.5t-54.5 6.5l-16 20l34 61q-55 6 -83 36.5t-28 93.5v316h-82v33h82v86l52 46h21v-132h142v-33h-142v-313
q0 -53 18.5 -78t58.5 -25q31 0 53.5 15t26.5 48h31q-5 -46 -36 -68.5z" />
    <glyph glyph-name="Tcaron" unicode="&#x164;" horiz-adv-x="631" 
d="M178 902l17 19l101 -82q12 -9 20 -9q6 0 19 9l101 82l18 -19l-117 -118h-43zM190 22h28q60 0 60 35v608h-142q-40 0 -54.5 -45.5t-17.5 -98.5h-22v179h547v-179h-22q-3 53 -17.5 98.5t-54.5 45.5h-141v-608q0 -18 14.5 -26.5t44.5 -8.5h28v-22h-251v22z" />
    <glyph glyph-name="tcaron" unicode="&#x165;" horiz-adv-x="476" 
d="M445.5 640q12.5 -14 12.5 -44q0 -42 -24 -82t-65 -71l-13 14q23 24 36.5 45.5t13.5 44.5q0 11 -4 17.5t-12 17.5q-8 9 -12 16t-4 17q0 18 11 28.5t29 10.5q19 0 31.5 -14zM304.5 36q22.5 15 26.5 48h31q-5 -48 -39 -71t-82 -23q-70 0 -105 30.5t-35 100.5v316h-82v33h82
v86l52 46h21v-132h142v-33h-142v-313q0 -53 18.5 -78t58.5 -25q31 0 53.5 15z" />
    <glyph glyph-name="Tbar" unicode="&#x166;" horiz-adv-x="631" 
d="M589 700v-179h-22q-3 53 -17.5 98.5t-54.5 45.5h-141v-299h147v-38h-147v-271q0 -18 14.5 -26.5t44.5 -8.5h28v-22h-251v22h28q60 0 60 35v271h-146v38h146v299h-142q-40 0 -54.5 -45.5t-17.5 -98.5h-22v179h547z" />
    <glyph glyph-name="tbar" unicode="&#x167;" horiz-adv-x="379" 
d="M362 84q-5 -48 -39 -71t-82 -23q-70 0 -105 30.5t-35 100.5v141h-63v32h63v143h-82v33h82v86l52 46h21v-132h142v-33h-142v-143h135v-32h-135v-138q0 -53 18.5 -78t58.5 -25q31 0 53.5 15t26.5 48h31z" />
    <glyph glyph-name="Utilde" unicode="&#x168;" horiz-adv-x="724" 
d="M212 792q8 41 31.5 65.5t58.5 24.5q17 0 33.5 -7t41.5 -21q23 -13 39 -20t31 -7q23 0 37.5 15.5t25.5 47.5l19 -10q-9 -43 -32 -68.5t-60 -25.5q-16 0 -32 7t-40 21t-40 21t-31 7q-23 0 -38 -15t-25 -45zM173 38.5q-66 48.5 -66 161.5v442q0 18 -15 26.5t-39 8.5h-21v23
h226v-23h-21q-24 0 -39 -8.5t-15 -26.5v-448q0 -95 52.5 -132t146.5 -37q82 0 136.5 38t54.5 131v448q0 18 -15 26.5t-39 8.5h-20v23h193v-23h-21q-24 0 -39 -8.5t-15 -26.5v-442q0 -111 -64.5 -160.5t-187.5 -49.5q-126 0 -192 48.5z" />
    <glyph glyph-name="utilde" unicode="&#x169;" horiz-adv-x="581" 
d="M173 590q-15 -15 -25 -45l-19 10q8 41 31.5 65.5t58.5 24.5q17 0 33.5 -7t41.5 -21q23 -13 39 -20t31 -7q23 0 37.5 15.5t25.5 47.5l19 -10q-9 -43 -32 -68.5t-60 -25.5q-16 0 -32 7t-40 21t-40 21t-31 7q-23 0 -38 -15zM545 29v-14q-29 -25 -72 -25q-26 0 -41.5 14
t-15.5 42v31q-21 -35 -66 -61t-104 -26q-80 0 -123 36.5t-43 97.5v280q0 18 -17 18q-12 0 -32 -9l-6 19l105 40h23v-337q0 -55 29 -83t82 -28q38 0 73 18t57 53t22 83v226q0 18 -18 18q-10 0 -32 -9l-6 19l108 40h20v-420q0 -31 22 -31q13 0 35 8z" />
    <glyph glyph-name="Umacron" unicode="&#x16a;" horiz-adv-x="724" 
d="M213 819h313v-35h-313v35zM173 38.5q-66 48.5 -66 161.5v442q0 18 -15 26.5t-39 8.5h-21v23h226v-23h-21q-24 0 -39 -8.5t-15 -26.5v-448q0 -95 52.5 -132t146.5 -37q82 0 136.5 38t54.5 131v448q0 18 -15 26.5t-39 8.5h-20v23h193v-23h-21q-24 0 -39 -8.5t-15 -26.5
v-442q0 -111 -64.5 -160.5t-187.5 -49.5q-126 0 -192 48.5z" />
    <glyph glyph-name="umacron" unicode="&#x16b;" horiz-adv-x="581" 
d="M443 557h-313v35h313v-35zM545 29v-14q-29 -25 -72 -25q-26 0 -41.5 14t-15.5 42v31q-21 -35 -66 -61t-104 -26q-80 0 -123 36.5t-43 97.5v280q0 18 -17 18q-12 0 -32 -9l-6 19l105 40h23v-337q0 -55 29 -83t82 -28q38 0 73 18t57 53t22 83v226q0 18 -18 18q-10 0 -32 -9
l-6 19l108 40h20v-420q0 -31 22 -31q13 0 35 8z" />
    <glyph glyph-name="Ubreve" unicode="&#x16c;" horiz-adv-x="724" 
d="M268.5 806.5q-35.5 32.5 -38.5 92.5h30q10 -86 111 -86q100 0 109 86h31q-4 -59 -39 -92t-101 -33q-67 0 -102.5 32.5zM173 38.5q-66 48.5 -66 161.5v442q0 18 -15 26.5t-39 8.5h-21v23h226v-23h-21q-24 0 -39 -8.5t-15 -26.5v-448q0 -95 52.5 -132t146.5 -37
q82 0 136.5 38t54.5 131v448q0 18 -15 26.5t-39 8.5h-20v23h193v-23h-21q-24 0 -39 -8.5t-15 -26.5v-442q0 -111 -64.5 -160.5t-187.5 -49.5q-126 0 -192 48.5z" />
    <glyph glyph-name="ubreve" unicode="&#x16d;" horiz-adv-x="581" 
d="M184.5 571.5q-35.5 32.5 -38.5 92.5h30q10 -86 111 -86q100 0 109 86h31q-4 -59 -39 -92t-101 -33q-67 0 -102.5 32.5zM545 29v-14q-29 -25 -72 -25q-26 0 -41.5 14t-15.5 42v31q-21 -35 -66 -61t-104 -26q-80 0 -123 36.5t-43 97.5v280q0 18 -17 18q-12 0 -32 -9l-6 19
l105 40h23v-337q0 -55 29 -83t82 -28q38 0 73 18t57 53t22 83v226q0 18 -18 18q-10 0 -32 -9l-6 19l108 40h20v-420q0 -31 22 -31q13 0 35 8z" />
    <glyph glyph-name="Uring" unicode="&#x16e;" horiz-adv-x="724" 
d="M307 789.5q-25 23.5 -25 60.5t25 60.5t64 23.5q38 0 63 -23.5t25 -60.5t-25 -60.5t-63 -23.5q-39 0 -64 23.5zM409 811q15 15 15 39t-15 39t-38 15t-38 -14.5t-15 -39.5q0 -24 15 -39t38 -15t38 15zM173 38.5q-66 48.5 -66 161.5v442q0 18 -15 26.5t-39 8.5h-21v23h226
v-23h-21q-24 0 -39 -8.5t-15 -26.5v-448q0 -95 52.5 -132t146.5 -37q82 0 136.5 38t54.5 131v448q0 18 -15 26.5t-39 8.5h-20v23h193v-23h-21q-24 0 -39 -8.5t-15 -26.5v-442q0 -111 -64.5 -160.5t-187.5 -49.5q-126 0 -192 48.5z" />
    <glyph glyph-name="uring" unicode="&#x16f;" horiz-adv-x="581" 
d="M223 552.5q-25 23.5 -25 60.5t25 60.5t64 23.5q38 0 63 -23.5t25 -60.5t-25 -60.5t-63 -23.5q-39 0 -64 23.5zM249 652.5q-15 -14.5 -15 -39.5q0 -24 15 -39t38 -15t38 15t15 39t-15 39t-38 15t-38 -14.5zM545 29v-14q-29 -25 -72 -25q-26 0 -41.5 14t-15.5 42v31
q-21 -35 -66 -61t-104 -26q-80 0 -123 36.5t-43 97.5v280q0 18 -17 18q-12 0 -32 -9l-6 19l105 40h23v-337q0 -55 29 -83t82 -28q38 0 73 18t57 53t22 83v226q0 18 -18 18q-10 0 -32 -9l-6 19l108 40h20v-420q0 -31 22 -31q13 0 35 8z" />
    <glyph glyph-name="Uhungarumlaut" unicode="&#x170;" horiz-adv-x="724" 
d="M222 804l112 100q23 20 41 20q12 0 18.5 -7t6.5 -17q0 -20 -28 -37l-136 -79zM369 804l111 100q2 1 13.5 10.5t26.5 9.5q12 0 19 -7t7 -17q0 -20 -27 -37l-136 -79zM173 38.5q-66 48.5 -66 161.5v442q0 18 -15 26.5t-39 8.5h-21v23h226v-23h-21q-24 0 -39 -8.5t-15 -26.5
v-448q0 -95 52.5 -132t146.5 -37q82 0 136.5 38t54.5 131v448q0 18 -15 26.5t-39 8.5h-20v23h193v-23h-21q-24 0 -39 -8.5t-15 -26.5v-442q0 -111 -64.5 -160.5t-187.5 -49.5q-126 0 -192 48.5z" />
    <glyph glyph-name="uhungarumlaut" unicode="&#x171;" horiz-adv-x="581" 
d="M144 547l-14 20l112 100q23 20 41 20q12 0 18.5 -7t6.5 -17q0 -20 -28 -37zM277 567l111 100q2 1 13.5 10.5t26.5 9.5q12 0 19 -7t7 -17q0 -20 -27 -37l-136 -79zM545 29v-14q-29 -25 -72 -25q-26 0 -41.5 14t-15.5 42v31q-21 -35 -66 -61t-104 -26q-80 0 -123 36.5
t-43 97.5v280q0 18 -17 18q-12 0 -32 -9l-6 19l105 40h23v-337q0 -55 29 -83t82 -28q38 0 73 18t57 53t22 83v226q0 18 -18 18q-10 0 -32 -9l-6 19l108 40h20v-420q0 -31 22 -31q13 0 35 8z" />
    <glyph glyph-name="Uogonek" unicode="&#x172;" horiz-adv-x="724" 
d="M692 700v-23h-21q-24 0 -39 -8.5t-15 -26.5v-442q0 -88 -41 -137t-119 -65q-28 -20 -44 -45.5t-16 -52.5q0 -28 17 -41t43 -13q21 0 45 9l4 -19q-35 -19 -71 -19q-47 0 -67.5 23.5t-20.5 53.5q0 28 16 53.5t44 44.5q-13 -2 -42 -2q-126 0 -192 48.5t-66 161.5v442
q0 18 -15 26.5t-39 8.5h-21v23h226v-23h-21q-24 0 -39 -8.5t-15 -26.5v-448q0 -95 52.5 -132t146.5 -37q82 0 136.5 38t54.5 131v448q0 18 -15 26.5t-39 8.5h-20v23h193z" />
    <glyph glyph-name="uogonek" unicode="&#x173;" horiz-adv-x="581" 
d="M556 -167q-35 -19 -71 -19q-47 0 -67.5 23.5t-20.5 53.5t17 55.5t47 44.5q-21 3 -33 17t-12 38v31q-21 -35 -66 -61t-104 -26q-80 0 -123 36.5t-43 97.5v280q0 18 -17 18q-12 0 -32 -9l-6 19l105 40h23v-337q0 -55 29 -83t82 -28q38 0 73 18t57 53t22 83v226q0 18 -18 18
q-10 0 -32 -9l-6 19l108 40h20v-420q0 -31 22 -31q13 0 35 8v-14q-14 -13 -39 -20q-28 -21 -43.5 -46.5t-15.5 -51.5q0 -28 17 -41t43 -13q21 0 45 9z" />
    <glyph glyph-name="Wcircumflex" unicode="&#x174;" horiz-adv-x="977" 
d="M393 784l-17 19l116 118h43l117 -118l-18 -19l-101 82q-13 9 -19 9q-7 0 -20 -9zM967 700v-23h-15q-21 0 -42.5 -10t-25.5 -25l-180 -646h-48l-162 499l-169 -499h-55l-180 647q-4 15 -24 24.5t-40 9.5h-16v23h230v-23h-16q-25 0 -41 -10.5t-12 -24.5l139 -550l161 475
l-25 76q-5 15 -24.5 24.5t-38.5 9.5h-17v23h223v-23h-16q-20 0 -39 -9.5t-15 -22.5l170 -553l142 551q4 15 -15.5 24.5t-38.5 9.5h-17v23h207z" />
    <glyph glyph-name="wcircumflex" unicode="&#x175;" horiz-adv-x="736" 
d="M266 547l-17 19l116 118h43l117 -118l-18 -19l-101 82q-13 9 -19 9q-7 0 -20 -9zM720 470v-21h-12q-17 0 -32 -6t-18 -19l-119 -424h-57l-115 400l-121 -400h-57l-112 405q-5 20 -15.5 32t-37.5 12h-9v21h179v-21h-14q-47 0 -40 -28l89 -352l118 401h56l118 -404l90 353
q7 30 -39 30h-13v21h161z" />
    <glyph glyph-name="Ycircumflex" unicode="&#x176;" horiz-adv-x="674" 
d="M196 824l116 118h43l117 -118l-18 -19l-101 82q-13 9 -19 9q-7 0 -20 -9l-101 -82zM204 22h28q60 0 60 35v237l-202 349q-20 34 -50 34h-30v23h226v-23h-33q-18 0 -28.5 -6.5t-10.5 -16.5q0 -5 3 -11l174 -311l186 309q4 5 4 12q0 11 -10.5 17.5t-26.5 6.5h-37v23h207
v-23h-28q-33 0 -55 -35l-213 -349v-236q0 -18 14.5 -26.5t44.5 -8.5h28v-22h-251v22z" />
    <glyph glyph-name="ycircumflex" unicode="&#x177;" horiz-adv-x="539" 
d="M169 547l-17 19l116 118h43l117 -118l-18 -19l-101 82q-13 9 -19 9q-7 0 -20 -9zM525 470v-21h-13q-42 0 -55 -35l-195 -505q-19 -49 -51.5 -73t-81.5 -24q-41 0 -66 16t-25 35q0 28 23 28q11 0 16.5 -5t10.5 -15q6 -11 13 -16.5t21 -5.5q38 0 62.5 18.5t39.5 58.5l29 77
l-177 422q-5 13 -19 18.5t-29 5.5h-14v21h187v-21h-14q-19 0 -32 -6.5t-8 -19.5l134 -346l129 345q5 14 -8 20.5t-31 6.5h-14v21h168z" />
    <glyph glyph-name="Ydieresis" unicode="&#x178;" horiz-adv-x="674" 
d="M210 814.5q-11 11.5 -11 29.5q0 19 11 30.5t30 11.5t30 -11.5t11 -30.5q0 -18 -11 -29.5t-30 -11.5t-30 11.5zM419 814.5q-11 11.5 -11 29.5q0 19 11 30.5t30 11.5t30 -11.5t11 -30.5q0 -18 -11 -29.5t-30 -11.5t-30 11.5zM204 22h28q60 0 60 35v237l-202 349
q-20 34 -50 34h-30v23h226v-23h-33q-18 0 -28.5 -6.5t-10.5 -16.5q0 -5 3 -11l174 -311l186 309q4 5 4 12q0 11 -10.5 17.5t-26.5 6.5h-37v23h207v-23h-28q-33 0 -55 -35l-213 -349v-236q0 -18 14.5 -26.5t44.5 -8.5h28v-22h-251v22z" />
    <glyph glyph-name="Zacute" unicode="&#x179;" horiz-adv-x="556" 
d="M230 804l113 100q23 20 40 20q12 0 18.5 -7t6.5 -18q0 -20 -28 -36l-136 -79zM24 21l415 644h-272q-45 0 -61 -40t-20 -92h-22v167h458v-18l-414 -647h304q41 0 60.5 42t25.5 96h22l-16 -173h-480v21z" />
    <glyph glyph-name="zacute" unicode="&#x17a;" horiz-adv-x="433" 
d="M139 567l113 100q23 20 40 20q12 0 18.5 -7t6.5 -18q0 -20 -28 -36l-136 -79zM20 21l317 416h-225q-16 0 -25.5 -29t-11.5 -57h-20v119h357v-28l-314 -410h236q34 0 49 86h20l-10 -118h-373v21z" />
    <glyph glyph-name="Zdotaccent" unicode="&#x17b;" horiz-adv-x="556" 
d="M251 774q-11 11 -11 30t11 30t30 11q18 0 29 -11t11 -30t-11 -30t-29 -11q-19 0 -30 11zM24 21l415 644h-272q-45 0 -61 -40t-20 -92h-22v167h458v-18l-414 -647h304q41 0 60.5 42t25.5 96h22l-16 -173h-480v21z" />
    <glyph glyph-name="zdotaccent" unicode="&#x17c;" horiz-adv-x="433" 
d="M196 557q-11 11 -11 30t11 30t30 11q18 0 29 -11t11 -30t-11 -30t-29 -11q-19 0 -30 11zM20 21l317 416h-225q-16 0 -25.5 -29t-11.5 -57h-20v119h357v-28l-314 -410h236q34 0 49 86h20l-10 -118h-373v21z" />
    <glyph glyph-name="Zcaron" unicode="&#x17d;" horiz-adv-x="556" 
d="M145 902l17 19l101 -82q12 -9 20 -9q6 0 19 9l101 82l18 -19l-117 -118h-43zM24 21l415 644h-272q-45 0 -61 -40t-20 -92h-22v167h458v-18l-414 -647h304q41 0 60.5 42t25.5 96h22l-16 -173h-480v21z" />
    <glyph glyph-name="zcaron" unicode="&#x17e;" horiz-adv-x="433" 
d="M88 665l17 19l101 -82q12 -9 20 -9q6 0 19 9l101 82l18 -19l-117 -118h-43zM20 21l317 416h-225q-16 0 -25.5 -29t-11.5 -57h-20v119h357v-28l-314 -410h236q34 0 49 86h20l-10 -118h-373v21z" />
    <glyph glyph-name="uni018F" unicode="&#x18f;" horiz-adv-x="678" 
d="M489.5 665q74.5 -45 114 -127.5t39.5 -192.5q0 -171 -84 -263t-238 -92q-97 0 -161.5 42t-95 113t-30.5 161v26h532v7q0 93 -29.5 167.5t-90.5 118t-153 43.5q-75 0 -133.5 -38.5t-78.5 -117.5h-37q8 56 43 101t93.5 71t133.5 26q101 0 175.5 -45zM489.5 104
q62.5 74 74.5 187h-454q1 -63 22 -122.5t67.5 -99t118.5 -39.5q109 0 171.5 74z" />
    <glyph glyph-name="florin" unicode="&#x192;" horiz-adv-x="488" 
d="M409.5 696q35.5 -26 35.5 -71q0 -20 -10 -29.5t-25 -9.5q-33 0 -33 30q0 7 5.5 17t5.5 15q0 19 -21.5 30t-47.5 11q-84 0 -84 -103v-116h139v-33h-139v-496q0 -57 -29.5 -93t-94.5 -36q-52 0 -88 14v37q34 -10 64 -10q38 0 57 24t19 68v492h-91v33h91v111q0 68 38 104.5
t108 36.5q65 0 100.5 -26z" />
    <glyph glyph-name="Ohorn" unicode="&#x1a0;" horiz-adv-x="743" 
d="M702.5 637q-22.5 -35 -58.5 -59q57 -91 57 -228q0 -172 -86 -266t-245 -94q-160 0 -246 94t-86 266q0 171 86 265.5t246 94.5q87 0 153 -29t108 -84q39 32 39 65q0 11 -4 18.5t-12 16.5q-8 10 -11.5 16.5t-3.5 17.5q0 16 10.5 27t28.5 11q19 0 33 -14.5t14 -44.5
q0 -38 -22.5 -73zM560.5 113q64.5 87 64.5 237t-64.5 237t-191.5 87q-125 0 -190 -87t-65 -237t65 -237t190 -87q127 0 191.5 87z" />
    <glyph glyph-name="ohorn" unicode="&#x1a1;" horiz-adv-x="566" 
d="M555 404q-23 -35 -60 -59q19 -47 19 -110q0 -116 -64 -180.5t-178 -64.5t-178.5 64.5t-64.5 180.5t64.5 180.5t178.5 64.5q76 0 130 -29t83 -85q38 31 38 64q0 11 -4 18.5t-12 16.5q-8 10 -11.5 16.5t-3.5 17.5q0 16 10.5 27t28.5 11q19 0 33 -14.5t14 -44.5
q0 -39 -23 -74zM397 78.5q46 55.5 46 156.5q0 100 -46 155.5t-125 55.5q-80 0 -125.5 -55.5t-45.5 -155.5q0 -101 45.5 -156.5t125.5 -55.5q79 0 125 55.5z" />
    <glyph glyph-name="Uhorn" unicode="&#x1af;" horiz-adv-x="725" 
d="M173 38.5q-66 48.5 -66 161.5v442q0 18 -15 26.5t-39 8.5h-21v23h226v-23h-21q-24 0 -39 -8.5t-15 -26.5v-448q0 -95 52.5 -132t146.5 -37q82 0 136.5 38t54.5 131v448q0 18 -15 26.5t-39 8.5h-20v23h165q32 0 49 17.5t17 45.5q0 8 -3.5 14t-10.5 14q-8 9 -12 16.5
t-4 18.5q0 17 11 27.5t29 10.5q20 0 33 -14.5t13 -44.5q0 -52 -30 -89t-81 -38q-58 -2 -58 -36v-442q0 -111 -64.5 -160.5t-187.5 -49.5q-126 0 -192 48.5z" />
    <glyph glyph-name="uhorn" unicode="&#x1b0;" horiz-adv-x="581" 
d="M122.5 27q-42.5 37 -42.5 97v280q0 18 -17 18q-12 0 -32 -9l-6 19l105 40h23v-337q0 -55 29 -83t82 -28q38 0 73 17.5t57 51.5t22 81v230q0 18 -18 18q-10 0 -32 -9l-6 19l108 40h20v-81q32 17 54.5 42t22.5 51q0 9 -3.5 15t-10.5 14q-8 10 -11.5 16.5t-3.5 17.5
q0 17 10.5 28t28.5 11q19 0 31 -13.5t12 -43.5q0 -51 -37 -93.5t-93 -65.5v-309q0 -41 40 -41q12 0 24 4v-12q-14 -10 -36.5 -16t-45.5 -6q-26 0 -40 19t-14 49v18q-22 -36 -67 -61t-106 -25q-78 0 -120.5 37z" />
    <glyph glyph-name="uni01CD" unicode="&#x1cd;" horiz-adv-x="714" 
d="M335 784l-116 118l17 19l101 -82q12 -9 20 -9q6 0 19 9l101 82l18 -19l-117 -118h-43zM709 22v-22h-231v22h15q21 0 39 7t14 18l-61 170h-285l-56 -151q-2 -8 -2 -10q0 -15 17 -24.5t36 -9.5h17v-22h-207v22h15q20 0 41 10.5t27 24.5l237 629l56 26l247 -655
q6 -16 25.5 -25.5t38.5 -9.5h17zM473 252l-128 356l-132 -356h260z" />
    <glyph glyph-name="uni01CE" unicode="&#x1ce;" horiz-adv-x="484" 
d="M106 674l17 20l100 -80q13 -9 19 -9t19 9l100 80l17 -20l-115 -122h-42zM65.5 19q-32.5 29 -32.5 77q0 72 75 119.5t234 69.5v55q0 53 -33 79.5t-88 26.5q-38 0 -72 -15.5t-34 -32.5q0 -6 1.5 -13.5t1.5 -14.5q0 -13 -7.5 -23.5t-25.5 -10.5q-15 0 -24.5 11t-9.5 31
q0 49 55.5 75.5t129.5 26.5q86 0 133 -38.5t47 -104.5v-285q0 -16 5 -23.5t16 -7.5q13 0 35 8v-14q-14 -12 -33 -18.5t-39 -6.5q-23 0 -40 10.5t-17 33.5v36q-42 -46 -91.5 -63t-94.5 -17q-59 0 -91.5 29zM277.5 50.5q44.5 26.5 64.5 59.5v145q-112 -20 -174.5 -61
t-62.5 -93q0 -38 23.5 -57.5t63.5 -19.5q41 0 85.5 26.5z" />
    <glyph glyph-name="uni01CF" unicode="&#x1cf;" horiz-adv-x="307" 
d="M16 902l17 19l101 -82q12 -9 20 -9q6 0 19 9l101 82l18 -19l-117 -118h-43zM28 22h29q59 0 59 35v585q0 35 -59 35h-29v23h251v-23h-28q-30 0 -44.5 -8.5t-14.5 -26.5v-585q0 -18 14.5 -26.5t44.5 -8.5h28v-22h-251v22z" />
    <glyph glyph-name="uni01D0" unicode="&#x1d0;" horiz-adv-x="287" 
d="M7 674l17 20l100 -80q13 -9 19 -9t19 9l100 80l17 -20l-115 -122h-42zM38 21h16q23 0 38 7.5t15 22.5v355q0 10 -5.5 14.5t-12.5 4.5q-6 0 -17 -4t-14 -5l-7 19l106 39h23v-423q0 -15 15 -22.5t38 -7.5h16v-21h-211v21z" />
    <glyph glyph-name="uni01D1" unicode="&#x1d1;" horiz-adv-x="739" 
d="M232 902l17 19l101 -82q12 -9 20 -9q6 0 19 9l101 82l18 -19l-117 -118h-43zM124 84q-86 94 -86 266q0 171 86 265.5t246 94.5q159 0 245 -94.5t86 -265.5q0 -172 -86 -266t-245 -94q-160 0 -246 94zM560.5 113q64.5 87 64.5 237t-64.5 237t-191.5 87q-125 0 -190 -87
t-65 -237t65 -237t190 -87q127 0 191.5 87z" />
    <glyph glyph-name="uni01D2" unicode="&#x1d2;" horiz-adv-x="544" 
d="M136 674l17 20l100 -80q13 -9 19 -9t19 9l100 80l17 -20l-115 -122h-42zM93.5 54.5q-64.5 64.5 -64.5 180.5t64.5 180.5t178.5 64.5t178 -64.5t64 -180.5t-64 -180.5t-178 -64.5t-178.5 64.5zM397 78.5q46 55.5 46 156.5q0 100 -46 155.5t-125 55.5q-80 0 -125.5 -55.5
t-45.5 -155.5q0 -101 45.5 -156.5t125.5 -55.5q79 0 125 55.5z" />
    <glyph glyph-name="uni01D3" unicode="&#x1d3;" horiz-adv-x="724" 
d="M224 902l17 19l101 -82q12 -9 20 -9q6 0 19 9l101 82l18 -19l-117 -118h-43zM173 38.5q-66 48.5 -66 161.5v442q0 18 -15 26.5t-39 8.5h-21v23h226v-23h-21q-24 0 -39 -8.5t-15 -26.5v-448q0 -95 52.5 -132t146.5 -37q82 0 136.5 38t54.5 131v448q0 18 -15 26.5t-39 8.5
h-20v23h193v-23h-21q-24 0 -39 -8.5t-15 -26.5v-442q0 -111 -64.5 -160.5t-187.5 -49.5q-126 0 -192 48.5z" />
    <glyph glyph-name="uni01D4" unicode="&#x1d4;" horiz-adv-x="581" 
d="M268 552l-116 118l17 19l101 -82q12 -9 20 -9q6 0 19 9l101 82l18 -19l-117 -118h-43zM545 29v-14q-29 -25 -72 -25q-26 0 -41.5 14t-15.5 42v31q-21 -35 -66 -61t-104 -26q-80 0 -123 36.5t-43 97.5v280q0 18 -17 18q-12 0 -32 -9l-6 19l105 40h23v-337q0 -55 29 -83
t82 -28q38 0 73 18t57 53t22 83v226q0 18 -18 18q-10 0 -32 -9l-6 19l108 40h20v-420q0 -31 22 -31q13 0 35 8z" />
    <glyph glyph-name="uni01D5" unicode="&#x1d5;" horiz-adv-x="724" 
d="M205 952h313v-35h-313v35zM227 793.5q-11 11.5 -11 29.5q0 19 11 30.5t30 11.5t30 -11.5t11 -30.5q0 -18 -11 -29.5t-30 -11.5t-30 11.5zM436 793.5q-11 11.5 -11 29.5q0 19 11 30.5t30 11.5t30 -11.5t11 -30.5q0 -18 -11 -29.5t-30 -11.5t-30 11.5zM173 38.5
q-66 48.5 -66 161.5v442q0 18 -15 26.5t-39 8.5h-21v23h226v-23h-21q-24 0 -39 -8.5t-15 -26.5v-448q0 -95 52.5 -132t146.5 -37q82 0 136.5 38t54.5 131v448q0 18 -15 26.5t-39 8.5h-20v23h193v-23h-21q-24 0 -39 -8.5t-15 -26.5v-442q0 -111 -64.5 -160.5t-187.5 -49.5
q-126 0 -192 48.5z" />
    <glyph glyph-name="uni01D6" unicode="&#x1d6;" horiz-adv-x="581" 
d="M446 681h-313v35h313v-35zM155 617.5q11 11.5 30 11.5t30 -11.5t11 -30.5q0 -18 -11 -29.5t-30 -11.5t-30 11.5t-11 29.5q0 19 11 30.5zM364 617.5q11 11.5 30 11.5t30 -11.5t11 -30.5q0 -18 -11 -29.5t-30 -11.5t-30 11.5t-11 29.5q0 19 11 30.5zM545 29v-14
q-29 -25 -72 -25q-26 0 -41.5 14t-15.5 42v31q-21 -35 -66 -61t-104 -26q-80 0 -123 36.5t-43 97.5v280q0 18 -17 18q-12 0 -32 -9l-6 19l105 40h23v-337q0 -55 29 -83t82 -28q38 0 73 18t57 53t22 83v226q0 18 -18 18q-10 0 -32 -9l-6 19l108 40h20v-420q0 -31 22 -31
q13 0 35 8z" />
    <glyph glyph-name="uni01D7" unicode="&#x1d7;" horiz-adv-x="724" 
d="M335 900l84 79q19 19 39 19q12 0 19.5 -6.5t7.5 -16.5q0 -20 -28 -36l-108 -59zM228.5 793.5q-11.5 11.5 -11.5 29.5q0 19 11.5 30.5t28.5 11.5q19 0 30.5 -11.5t11.5 -30.5t-11.5 -30t-30.5 -11q-17 0 -28.5 11.5zM437.5 793q-11.5 11 -11.5 30t11.5 30.5t29.5 11.5
t29.5 -11.5t11.5 -30.5t-11.5 -30t-29.5 -11t-29.5 11zM173 38.5q-66 48.5 -66 161.5v442q0 18 -15 26.5t-39 8.5h-21v23h226v-23h-21q-24 0 -39 -8.5t-15 -26.5v-448q0 -95 52.5 -132t146.5 -37q82 0 136.5 38t54.5 131v448q0 18 -15 26.5t-39 8.5h-20v23h193v-23h-21
q-24 0 -39 -8.5t-15 -26.5v-442q0 -111 -64.5 -160.5t-187.5 -49.5q-126 0 -192 48.5z" />
    <glyph glyph-name="uni01D8" unicode="&#x1d8;" horiz-adv-x="581" 
d="M276 644l-14 20l84 79q19 19 39 19q12 0 19.5 -6.5t7.5 -16.5q0 -20 -28 -36zM155.5 557.5q-11.5 11.5 -11.5 29.5q0 19 11.5 30.5t28.5 11.5q19 0 30.5 -11.5t11.5 -30.5t-11.5 -30t-30.5 -11q-17 0 -28.5 11.5zM364.5 617.5q11.5 11.5 29.5 11.5t29.5 -11.5t11.5 -30.5
t-11.5 -30t-29.5 -11t-29.5 11t-11.5 30t11.5 30.5zM545 29v-14q-29 -25 -72 -25q-26 0 -41.5 14t-15.5 42v31q-21 -35 -66 -61t-104 -26q-80 0 -123 36.5t-43 97.5v280q0 18 -17 18q-12 0 -32 -9l-6 19l105 40h23v-337q0 -55 29 -83t82 -28q38 0 73 18t57 53t22 83v226
q0 18 -18 18q-10 0 -32 -9l-6 19l108 40h20v-420q0 -31 22 -31q13 0 35 8z" />
    <glyph glyph-name="uni01D9" unicode="&#x1d9;" horiz-adv-x="724" 
d="M226 1012l17 19l100 -77q14 -8 19 -8t19 8l100 77l17 -19l-115 -117h-42zM228.5 793.5q-11.5 11.5 -11.5 29.5q0 19 11.5 30.5t28.5 11.5q19 0 30.5 -11.5t11.5 -30.5t-11.5 -30t-30.5 -11q-17 0 -28.5 11.5zM437.5 793q-11.5 11 -11.5 30t11.5 30.5t29.5 11.5
t29.5 -11.5t11.5 -30.5t-11.5 -30t-29.5 -11t-29.5 11zM173 38.5q-66 48.5 -66 161.5v442q0 18 -15 26.5t-39 8.5h-21v23h226v-23h-21q-24 0 -39 -8.5t-15 -26.5v-448q0 -95 52.5 -132t146.5 -37q82 0 136.5 38t54.5 131v448q0 18 -15 26.5t-39 8.5h-20v23h193v-23h-21
q-24 0 -39 -8.5t-15 -26.5v-442q0 -111 -64.5 -160.5t-187.5 -49.5q-126 0 -192 48.5z" />
    <glyph glyph-name="uni01DA" unicode="&#x1da;" horiz-adv-x="581" 
d="M269 659l-115 117l17 19l100 -77q14 -8 19 -8t19 8l100 77l17 -19l-115 -117h-42zM156.5 557.5q-11.5 11.5 -11.5 29.5q0 19 11.5 30.5t28.5 11.5q19 0 30.5 -11.5t11.5 -30.5t-11.5 -30t-30.5 -11q-17 0 -28.5 11.5zM424.5 617.5q11.5 -11.5 11.5 -30.5t-11.5 -30
t-29.5 -11t-29.5 11t-11.5 30t11.5 30.5t29.5 11.5t29.5 -11.5zM545 29v-14q-29 -25 -72 -25q-26 0 -41.5 14t-15.5 42v31q-21 -35 -66 -61t-104 -26q-80 0 -123 36.5t-43 97.5v280q0 18 -17 18q-12 0 -32 -9l-6 19l105 40h23v-337q0 -55 29 -83t82 -28q38 0 73 18t57 53
t22 83v226q0 18 -18 18q-10 0 -32 -9l-6 19l108 40h20v-420q0 -31 22 -31q13 0 35 8z" />
    <glyph glyph-name="uni01DB" unicode="&#x1db;" horiz-adv-x="724" 
d="M264 939q-28 16 -28 36q0 10 7.5 16.5t19.5 6.5q20 0 39 -19l84 -79l-14 -20zM228.5 793.5q-11.5 11.5 -11.5 29.5q0 19 11.5 30.5t28.5 11.5q19 0 30.5 -11.5t11.5 -30.5t-11.5 -30t-30.5 -11q-17 0 -28.5 11.5zM437.5 793q-11.5 11 -11.5 30t11.5 30.5t29.5 11.5
t29.5 -11.5t11.5 -30.5t-11.5 -30t-29.5 -11t-29.5 11zM173 38.5q-66 48.5 -66 161.5v442q0 18 -15 26.5t-39 8.5h-21v23h226v-23h-21q-24 0 -39 -8.5t-15 -26.5v-448q0 -95 52.5 -132t146.5 -37q82 0 136.5 38t54.5 131v448q0 18 -15 26.5t-39 8.5h-20v23h193v-23h-21
q-24 0 -39 -8.5t-15 -26.5v-442q0 -111 -64.5 -160.5t-187.5 -49.5q-126 0 -192 48.5z" />
    <glyph glyph-name="uni01DC" unicode="&#x1dc;" horiz-adv-x="581" 
d="M164 739q0 10 7.5 16.5t19.5 6.5q20 0 39 -19l84 -79l-14 -20l-108 59q-28 16 -28 36zM156.5 557.5q-11.5 11.5 -11.5 29.5q0 19 11.5 30.5t28.5 11.5q19 0 30.5 -11.5t11.5 -30.5t-11.5 -30t-30.5 -11q-17 0 -28.5 11.5zM365.5 557q-11.5 11 -11.5 30t11.5 30.5
t29.5 11.5t29.5 -11.5t11.5 -30.5t-11.5 -30t-29.5 -11t-29.5 11zM545 29v-14q-29 -25 -72 -25q-26 0 -41.5 14t-15.5 42v31q-21 -35 -66 -61t-104 -26q-80 0 -123 36.5t-43 97.5v280q0 18 -17 18q-12 0 -32 -9l-6 19l105 40h23v-337q0 -55 29 -83t82 -28q38 0 73 18t57 53
t22 83v226q0 18 -18 18q-10 0 -32 -9l-6 19l108 40h20v-420q0 -31 22 -31q13 0 35 8z" />
    <glyph glyph-name="Gcaron" unicode="&#x1e6;" horiz-adv-x="698" 
d="M253 902l17 19l101 -82q12 -9 20 -9q6 0 19 9l101 82l18 -19l-117 -118h-43zM128 84q-83 94 -83 266q0 113 39.5 194t114 123.5t177.5 42.5q57 0 109 -18t80 -42q4 -4 11 -4q9 0 9 16v43h31v-186h-24q-8 72 -65 113.5t-139 41.5q-128 0 -197.5 -88t-69.5 -236
q0 -150 64 -237.5t193 -87.5q47 0 96 12t83 42v202q0 28 -24.5 38.5t-72.5 11.5v20h229v-18h-8q-23 0 -33.5 -7t-14 -25.5t-3.5 -56.5v-174q-50 -39 -111 -59.5t-154 -20.5q-154 0 -237 94z" />
    <glyph glyph-name="gcaron" unicode="&#x1e7;" horiz-adv-x="486" 
d="M216 546l-116 118l17 19l101 -82q12 -9 20 -9q6 0 19 9l101 82l18 -19l-117 -118h-43zM487 469.5q15 -10.5 15 -25.5q0 -14 -7.5 -21.5t-21.5 -7.5q-9 0 -14 3.5t-10 10.5q-5 8 -11 12t-19 4t-41 -15q43 -40 43 -107q0 -73 -52 -114.5t-142 -41.5q-60 0 -105 20
q-34 -24 -34 -50q0 -21 20 -34t56 -13h152q57 0 96.5 -25t39.5 -75q0 -70 -62.5 -105t-166.5 -35q-88 0 -140.5 30.5t-52.5 86.5q0 58 70 89q-30 9 -45 27.5t-15 40.5q0 42 55 78q-60 43 -60 121q0 73 51.5 115t140.5 42q82 0 131 -34q39 34 88 34q26 0 41 -10.5zM318 234
q31 35 31 89t-31 89.5t-91 35.5q-59 0 -89.5 -35t-30.5 -90q0 -54 30.5 -89t89.5 -35q60 0 91 35zM84 -33q0 -42 39 -63.5t105 -21.5q74 0 117 25t43 71q0 33 -20.5 49.5t-68.5 16.5h-162q-53 -25 -53 -77z" />
    <glyph glyph-name="Aringacute" unicode="&#x1fa;" horiz-adv-x="714" 
d="M283 967l-14 20l113 100q23 20 40 20q12 0 18.5 -7t6.5 -18q0 -20 -28 -36zM293 780.5q-25 23.5 -25 60.5t25 60.5t64 23.5q38 0 63 -23.5t25 -60.5t-25 -60.5t-63 -23.5q-39 0 -64 23.5zM319 880.5q-15 -14.5 -15 -39.5q0 -24 15 -39t38 -15t38 15t15 39t-15 39t-38 15
t-38 -14.5zM709 22v-22h-231v22h15q21 0 39 7t14 18l-61 170h-285l-56 -151q-2 -8 -2 -10q0 -15 17 -24.5t36 -9.5h17v-22h-207v22h15q20 0 41 10.5t27 24.5l237 629l56 26l247 -655q6 -16 25.5 -25.5t38.5 -9.5h17zM473 252l-128 356l-132 -356h260z" />
    <glyph glyph-name="aringacute" unicode="&#x1fb;" horiz-adv-x="484" 
d="M153 765l113 100q23 20 40 20q12 0 18.5 -7t6.5 -18q0 -20 -28 -36l-136 -79zM178 567.5q-25 23.5 -25 60.5t25 60.5t64 23.5q38 0 63 -23.5t25 -60.5t-25 -60.5t-63 -23.5q-39 0 -64 23.5zM280 589q15 15 15 39t-15 39t-38 15t-38 -14.5t-15 -39.5q0 -24 15 -39t38 -15
t38 15zM65.5 19q-32.5 29 -32.5 77q0 72 75 119.5t234 69.5v55q0 53 -33 79.5t-88 26.5q-38 0 -72 -15.5t-34 -32.5q0 -6 1.5 -13.5t1.5 -14.5q0 -13 -7.5 -23.5t-25.5 -10.5q-15 0 -24.5 11t-9.5 31q0 49 55.5 75.5t129.5 26.5q86 0 133 -38.5t47 -104.5v-285
q0 -16 5 -23.5t16 -7.5q13 0 35 8v-14q-14 -12 -33 -18.5t-39 -6.5q-23 0 -40 10.5t-17 33.5v36q-42 -46 -91.5 -63t-94.5 -17q-59 0 -91.5 29zM277.5 50.5q44.5 26.5 64.5 59.5v145q-112 -20 -174.5 -61t-62.5 -93q0 -38 23.5 -57.5t63.5 -19.5q41 0 85.5 26.5z" />
    <glyph glyph-name="AEacute" unicode="&#x1fc;" horiz-adv-x="961" 
d="M616 804l113 100q23 20 40 20q12 0 18.5 -7t6.5 -18q0 -20 -28 -36l-136 -79zM10 22h15q32 2 49.5 18t36.5 48l343 564q3 6 3 12q0 13 -14 13h-30v23h495v-167h-22q-6 132 -81 132h-231v-278h170q29 0 38.5 24.5t13.5 74.5h20v-233h-20q-4 50 -13.5 74.5t-38.5 24.5h-170
v-317h243q41 0 60.5 43t24.5 97h22l-16 -175h-485v22h21q24 0 39 8.5t15 26.5v160h-257l-95 -159q-2 -3 -2 -8q0 -12 17.5 -20t38.5 -8h16v-22h-206v22zM498 252v387l-237 -387h237z" />
    <glyph glyph-name="aeacute" unicode="&#x1fd;" horiz-adv-x="790" 
d="M381 567l113 100q23 20 40 20q12 0 18.5 -7t6.5 -18q0 -20 -28 -36l-136 -79zM66 18.5q-33 28.5 -33 77.5q0 70 71 116.5t221 69.5q4 36 17 67q-3 48 -35.5 72.5t-85.5 24.5q-38 0 -72 -15.5t-34 -32.5q0 -6 1.5 -13.5t1.5 -14.5q0 -12 -8.5 -21.5t-26.5 -9.5
q-15 0 -23.5 10t-8.5 29q0 49 55.5 75.5t129.5 26.5q54 0 93 -18t58 -51q29 34 71.5 51.5t95.5 17.5q100 0 152.5 -55t52.5 -143v-21h-363q-1 -9 -1 -27q0 -64 21 -112.5t59 -74.5t87 -26q66 0 110 35.5t56 109.5h27q-8 -80 -59 -128t-142 -48q-63 0 -111.5 23t-77.5 68
q-41 -49 -95.5 -70t-105.5 -21q-65 0 -98 28.5zM693 295q-1 60 -34.5 106t-101.5 46q-65 0 -105 -41t-52 -111h293zM279.5 49.5q45.5 25.5 68.5 56.5q-26 52 -26 144q-104 -22 -160.5 -60.5t-56.5 -88.5q0 -38 23.5 -57.5t63.5 -19.5q42 0 87.5 25.5z" />
    <glyph glyph-name="Oslashacute" unicode="&#x1fe;" horiz-adv-x="739" 
d="M300 784l-14 20l113 100q23 20 40 20q12 0 18.5 -7t6.5 -18q0 -20 -28 -36zM676 511.5q25 -70.5 25 -161.5q0 -172 -86 -266t-245 -94q-131 0 -215 65l-57 -73l-34 22l61 79q-87 93 -87 267q0 171 86 265.5t246 94.5q121 0 200 -55l54 69l35 -22l-57 -73
q49 -47 74 -117.5zM165 134l372 479q-64 61 -168 61q-125 0 -190 -87t-65 -237q0 -133 51 -216zM560.5 113q64.5 87 64.5 237q0 146 -60 231l-375 -481q66 -74 179 -74q127 0 191.5 87z" />
    <glyph glyph-name="oslashacute" unicode="&#x1ff;" horiz-adv-x="544" 
d="M210 547l-14 20l113 100q23 20 40 20q12 0 18.5 -7t6.5 -18q0 -20 -28 -36zM514 235q0 -116 -64 -180.5t-178 -64.5q-73 0 -127 27l-35 -51l-31 22l34 49q-41 32 -62.5 82t-21.5 116q0 116 64.5 180.5t178.5 64.5q74 0 126 -27l39 57l33 -22l-39 -56q83 -65 83 -197z
M144 82l228 333q-42 31 -100 31q-80 0 -125.5 -55.5t-45.5 -155.5q0 -98 43 -153zM397 78.5q46 55.5 46 156.5q0 97 -43 152l-229 -332q41 -32 101 -32q79 0 125 55.5z" />
    <glyph glyph-name="Scommaaccent" unicode="&#x218;" horiz-adv-x="563" 
d="M192 6.5q-42 16.5 -88 42.5q-19 13 -25 13q-9 0 -9 -17v-44h-31v185h24q5 -45 35.5 -82t76.5 -58t94 -21q81 0 129 39t48 107q0 42 -25 73t-61.5 52t-99.5 49q-68 30 -108.5 53.5t-69 60.5t-28.5 89q0 79 60.5 120.5t161.5 41.5q50 0 86.5 -13.5t73.5 -33.5
q17 -10 20 -10q7 0 7 11v42h31v-185h-24q-7 70 -56.5 111.5t-122.5 41.5q-77 0 -119 -32t-42 -86q0 -37 23 -64.5t57.5 -46t93.5 -43.5q72 -31 115 -55.5t73.5 -65t30.5 -100.5q0 -59 -30 -102t-83 -66t-119 -23q-57 0 -99 16.5zM192 -254q23 23 37 45t14 45q0 11 -4 17.5
t-12 17.5q-8 9 -12 16t-4 17q0 18 10.5 28.5t28.5 10.5q20 0 32.5 -14t12.5 -44q0 -42 -24 -81.5t-65 -71.5z" />
    <glyph glyph-name="scommaaccent" unicode="&#x219;" horiz-adv-x="438" 
d="M138 4.5q-41 14.5 -65 48.5l-11 -62h-21v148h21q11 -54 49 -85t97 -31q61 0 93.5 22.5t32.5 64.5q0 23 -15.5 39.5t-37.5 27t-65 27.5q-52 19 -85.5 36t-57 47t-23.5 76q0 57 43.5 87t117.5 30q44 0 85 -15t63 -45l11 60h21v-143h-22q-12 49 -47 79t-91 30q-49 0 -79 -20
t-30 -56q0 -28 17 -47.5t42.5 -31.5t68.5 -28q51 -18 82 -33.5t52.5 -43t21.5 -68.5q0 -64 -49.5 -96t-128.5 -32q-49 0 -90 14.5zM146 -260q23 23 37 45t14 45q0 11 -4 17.5t-12 17.5q-8 9 -12 16t-4 17q0 18 10.5 28.5t28.5 10.5q20 0 32.5 -14t12.5 -44q0 -42 -24 -81.5
t-65 -71.5z" />
    <glyph glyph-name="uni021A" unicode="&#x21a;" horiz-adv-x="631" 
d="M190 22h28q60 0 60 35v608h-142q-40 0 -54.5 -45.5t-17.5 -98.5h-22v179h547v-179h-22q-3 53 -17.5 98.5t-54.5 45.5h-141v-608q0 -18 14.5 -26.5t44.5 -8.5h28v-22h-251v22zM246 -262q51 49 51 89q0 11 -4 18t-12 18q-8 9 -12 16t-4 17q0 17 10.5 28t28.5 11
q20 0 32.5 -14t12.5 -45q0 -42 -24 -82t-65 -71z" />
    <glyph glyph-name="uni021B" unicode="&#x21b;" horiz-adv-x="379" 
d="M362 84q-5 -48 -39 -71t-82 -23q-70 0 -105 30.5t-35 100.5v316h-82v33h82v86l52 46h21v-132h142v-33h-142v-313q0 -53 18.5 -78t58.5 -25q31 0 53.5 15t26.5 48h31zM236.5 -76q12.5 -14 12.5 -45q0 -42 -24 -82t-65 -71l-14 15q51 49 51 89q0 11 -4 18t-12 18
q-8 9 -12 16t-4 17q0 17 10.5 28t28.5 11q20 0 32.5 -14z" />
    <glyph glyph-name="uni0237" unicode="&#x237;" horiz-adv-x="281" 
d="M36 -105q42 19 61.5 46.5t24 62t4.5 97.5v303q0 18 -18 18q-10 0 -32 -9l-6 19l106 40h22v-368q0 -97 -33 -153t-125 -77z" />
    <glyph glyph-name="uni0251" unicode="&#x251;" horiz-adv-x="547" 
d="M81.5 48.5q-53.5 58.5 -53.5 186.5q0 78 33.5 133.5t89.5 83.5t122 28q71 0 123 -20.5t81 -53.5v-354q0 -31 22 -31q13 0 35 8l-1 -14q-28 -25 -72 -25q-23 0 -39.5 10.5t-16.5 33.5v38q-49 -82 -166 -82q-104 0 -157.5 58.5zM335.5 43.5q33.5 20.5 51 54t17.5 70.5v233
q-50 46 -133 46q-48 0 -87 -25.5t-61.5 -73.5t-22.5 -113q0 -212 156 -212q46 0 79.5 20.5z" />
    <glyph glyph-name="uni0259" unicode="&#x259;" horiz-adv-x="506" 
d="M407 416q62 -64 62 -181q0 -115 -62 -180t-170 -65q-100 0 -152.5 55t-52.5 143v21h362q1 9 1 27q0 64 -21 112.5t-59 74.5t-86 26q-66 0 -110 -35.5t-57 -109.5h-26q8 80 59 128t142 48q108 0 170 -64zM337.5 64q39.5 41 52.5 111h-293q2 -60 35.5 -106t101.5 -46
q64 0 103.5 41z" />
    <glyph glyph-name="uni02BB" unicode="&#x2bb;" horiz-adv-x="235" 
d="M80 510q-13 14 -13 45q0 42 24.5 81.5t65.5 70.5l14 -15q-51 -49 -51 -89q0 -11 4 -18.5t13 -17.5q1 -2 5.5 -7.5t7 -11.5t2.5 -13q0 -18 -10.5 -28.5t-28.5 -10.5q-20 0 -33 14z" />
    <glyph glyph-name="uni02BC" unicode="&#x2bc;" horiz-adv-x="235" 
d="M62 513q51 49 51 89q0 11 -4 18.5t-12 17.5q-8 9 -12 16t-4 17q0 17 10.5 28t28.5 11q20 0 33 -14.5t13 -44.5q0 -42 -24.5 -82t-65.5 -71z" />
    <glyph glyph-name="uni02BE" unicode="&#x2be;" 
d="M-56 625q29 1 44.5 17t15.5 41t-15.5 41.5t-44.5 17.5v27q53 0 79 -23.5t26 -62.5q0 -38 -28 -62t-77 -24v28z" />
    <glyph glyph-name="uni02BF" unicode="&#x2bf;" 
d="M-21 621q-28 24 -28 62q0 39 26 62.5t79 23.5v-27q-29 -1 -44.5 -17.5t-15.5 -41.5t15.5 -41t44.5 -17v-28q-49 0 -77 24z" />
    <glyph glyph-name="circumflex" unicode="&#x2c6;" horiz-adv-x="485" 
d="M106 602l115 122h42l115 -122l-17 -20l-100 80q-13 9 -19 9t-19 -9l-100 -80z" />
    <glyph glyph-name="caron" unicode="&#x2c7;" horiz-adv-x="485" 
d="M106 704l17 20l100 -80q13 -9 19 -9t19 9l100 80l17 -20l-115 -122h-42z" />
    <glyph glyph-name="uni02C8" unicode="&#x2c8;" 
d="M-32 725h63v-143h-63v143z" />
    <glyph glyph-name="uni02C9" unicode="&#x2c9;" horiz-adv-x="485" 
d="M78 647h329v-32h-329v32z" />
    <glyph glyph-name="uni02CA" unicode="&#x2ca;" 
d="M-84 602l112 100q2 2 13.5 11t25.5 9q12 0 19.5 -7.5t7.5 -17.5q0 -21 -28 -36l-136 -79z" />
    <glyph glyph-name="uni02CB" unicode="&#x2cb;" 
d="M-56 661q-27 15 -27 36q0 10 7 17.5t19 7.5q16 0 39 -20l112 -100l-14 -20z" />
    <glyph glyph-name="uni02CC" unicode="&#x2cc;" 
d="M-32 -40h63v-143h-63v143z" />
    <glyph glyph-name="breve" unicode="&#x2d8;" horiz-adv-x="485" 
d="M148.5 611.5q-35.5 32.5 -37.5 91.5h30q9 -85 110 -85q100 0 110 85h30q-4 -59 -39 -91.5t-101 -32.5q-67 0 -102.5 32.5z" />
    <glyph glyph-name="dotaccent" unicode="&#x2d9;" horiz-adv-x="485" 
d="M212.5 592q-11.5 11 -11.5 30t11.5 30.5t29.5 11.5t30 -11.5t12 -30.5q0 -18 -12 -29.5t-30 -11.5t-29.5 11z" />
    <glyph glyph-name="ring" unicode="&#x2da;" horiz-adv-x="485" 
d="M179 630.5q-25 23.5 -25 60.5t25 60.5t63 23.5q39 0 64 -23.5t25 -60.5t-25 -60.5t-64 -23.5q-38 0 -63 23.5zM280.5 652q14.5 15 14.5 39q0 25 -14.5 39.5t-38.5 14.5q-23 0 -38 -14.5t-15 -39.5q0 -24 15 -39t38 -15q24 0 38.5 15z" />
    <glyph glyph-name="ogonek" unicode="&#x2db;" horiz-adv-x="485" 
d="M186 -158q-21 24 -21 53q0 35 23 63.5t61 47.5h37q-34 -20 -53 -47.5t-19 -57.5q0 -27 16.5 -40t41.5 -13q23 0 45 9l4 -21q-39 -18 -70 -18q-44 0 -65 24z" />
    <glyph glyph-name="tilde" unicode="&#x2dc;" horiz-adv-x="485" 
d="M83 590q8 41 31.5 65.5t58.5 24.5q17 0 33.5 -7t41.5 -21q23 -13 39 -20t31 -7q23 0 37.5 15.5t25.5 47.5l19 -10q-9 -43 -32 -68.5t-60 -25.5q-16 0 -32 7t-40 21t-40 21t-31 7q-23 0 -38 -15t-25 -45z" />
    <glyph glyph-name="hungarumlaut" unicode="&#x2dd;" horiz-adv-x="485" 
d="M70 603l112 100q2 1 13 10t26 9q12 0 19.5 -7t7.5 -17q0 -20 -28 -36l-136 -79zM230 603l111 100q2 1 13 10t27 9q12 0 19 -7t7 -17q0 -21 -27 -36l-136 -79z" />
    <glyph glyph-name="gravecomb" unicode="&#x300;" 
d="M-378 661q-11 6 -18.5 15.5t-7.5 20.5t8 18t18 7q16 0 39 -20l112 -100l-14 -20z" />
    <glyph glyph-name="acutecomb" unicode="&#x301;" 
d="M-366 602l113 100q23 20 40 20q12 0 18.5 -7t6.5 -18q0 -20 -28 -36l-136 -79z" />
    <glyph glyph-name="uni0302" unicode="&#x302;" 
d="M-138 601l116 118h43l117 -118l-18 -19l-101 82q-13 9 -19 9q-7 0 -20 -9l-101 -82z" />
    <glyph glyph-name="tildecomb" unicode="&#x303;" 
d="M-444 590q8 41 31.5 65.5t58.5 24.5q17 0 33.5 -7t41.5 -21q23 -13 39 -20t31 -7q23 0 37.5 15.5t25.5 47.5l19 -10q-9 -43 -32 -68.5t-60 -25.5q-16 0 -32 7t-40 21t-40 21t-31 7q-23 0 -38 -15t-25 -45z" />
    <glyph glyph-name="uni0304" unicode="&#x304;" 
d="M-157 617h313v-35h-313v35z" />
    <glyph glyph-name="uni0306" unicode="&#x306;" 
d="M-102.5 606.5q-35.5 32.5 -38.5 92.5h30q10 -86 111 -86q100 0 109 86h31q-4 -59 -39 -92t-101 -33q-67 0 -102.5 32.5z" />
    <glyph glyph-name="uni0307" unicode="&#x307;" 
d="M-30 572q-11 11 -11 30t11 30t30 11q18 0 29 -11t11 -30t-11 -30t-29 -11q-19 0 -30 11z" />
    <glyph glyph-name="uni0308" unicode="&#x308;" 
d="M-135 591.5q-11 11.5 -11 29.5q0 19 11 30.5t30 11.5t30 -11.5t11 -30.5q0 -18 -11 -29.5t-30 -11.5t-30 11.5zM74 591.5q-11 11.5 -11 29.5q0 19 11 30.5t30 11.5t30 -11.5t11 -30.5q0 -18 -11 -29.5t-30 -11.5t-30 11.5z" />
    <glyph glyph-name="hookabovecomb" unicode="&#x309;" 
d="M-278.5 594q-15.5 13 -15.5 34q0 15 10 26t30 25q19 13 29 23.5t10 25.5q0 14 -9 22.5t-26 8.5q-31 0 -38 -20q-1 -2 -3.5 -9.5t-7.5 -11.5t-14 -4q-20 0 -20 23q0 22 23.5 35t58.5 13q37 0 60 -15.5t23 -44.5q0 -18 -12.5 -31t-36.5 -28q-19 -13 -27.5 -21t-8.5 -17
q0 -12 7 -18t23 -11l-9 -18q-31 0 -46.5 13z" />
    <glyph glyph-name="uni030A" unicode="&#x30a;" 
d="M-64 587.5q-25 23.5 -25 60.5t25 60.5t64 23.5q38 0 63 -23.5t25 -60.5t-25 -60.5t-63 -23.5q-39 0 -64 23.5zM38 609q15 15 15 39t-15 39t-38 15q-24 0 -38.5 -14.5t-14.5 -39.5q0 -24 14.5 -39t38.5 -15q23 0 38 15z" />
    <glyph glyph-name="uni030B" unicode="&#x30b;" 
d="M-143 602l112 100q23 20 41 20q12 0 18.5 -7t6.5 -17q0 -20 -28 -37l-136 -79zM4 602l111 100q2 1 13.5 10.5t26.5 9.5q12 0 19 -7t7 -17q0 -20 -27 -37l-136 -79z" />
    <glyph glyph-name="uni030C" unicode="&#x30c;" 
d="M-138 700l17 19l101 -82q12 -9 20 -9q6 0 19 9l101 82l18 -19l-117 -118h-43z" />
    <glyph glyph-name="uni031B" unicode="&#x31b;" 
d="M-70 350q26 16 43.5 36.5t17.5 43.5q0 11 -4 18.5t-12 16.5q-8 10 -11.5 16.5t-3.5 17.5q0 16 10.5 27t28.5 11q19 0 33 -14.5t14 -44.5q0 -47 -33.5 -88.5t-82.5 -62.5v23z" />
    <glyph glyph-name="dotbelowcomb" unicode="&#x323;" 
d="M-316.5 -136q-11.5 11 -11.5 30t11.5 30.5t29.5 11.5q19 0 30 -11.5t11 -30.5t-11 -30t-30 -11q-18 0 -29.5 11z" />
    <glyph glyph-name="uni0324" unicode="&#x324;" 
d="M-135 -139q-11 11 -11 30t11 30.5t30 11.5t30 -11.5t11 -30.5t-11 -30t-30 -11t-30 11zM74 -139q-11 11 -11 30t11 30.5t30 11.5t30 -11.5t11 -30.5t-11 -30t-30 -11t-30 11z" />
    <glyph glyph-name="uni0326" unicode="&#x326;" 
d="M-292 -262q51 49 51 89q0 11 -4 18t-12 18q-8 9 -12 16t-4 17q0 17 10.5 28t28.5 11q20 0 32.5 -14t12.5 -45q0 -42 -24 -82t-65 -71z" />
    <glyph glyph-name="uni0327" unicode="&#x327;" 
d="M-77 -199l7 26q11 -2 40 -2q77 0 77 51q0 23 -22.5 29.5t-54.5 6.5l-16 20l42 77h38l-34 -68q42 0 70.5 -14t28.5 -50q0 -42 -35.5 -62t-94.5 -20q-23 0 -46 6z" />
    <glyph glyph-name="uni0328" unicode="&#x328;" 
d="M-70.5 -162.5q-20.5 23.5 -20.5 53.5q0 35 23.5 64t62.5 48h36q-33 -21 -52.5 -48.5t-19.5 -57.5q0 -28 17 -41t43 -13q21 0 45 9l4 -19q-35 -19 -71 -19q-47 0 -67.5 23.5z" />
    <glyph glyph-name="uni032E" unicode="&#x32e;" 
d="M-102.5 -144.5q-35.5 32.5 -38.5 91.5h30q10 -85 111 -85q100 0 109 85h31q-4 -59 -39 -91.5t-101 -32.5q-67 0 -102.5 32.5z" />
    <glyph glyph-name="uni0331" unicode="&#x331;" 
d="M-157 -73h313v-33h-313v33z" />
    <glyph glyph-name="uni0394" unicode="&#x394;" horiz-adv-x="606" 
d="M27 38l248 668h55l247 -668v-38h-550v38zM502 45l-208 568l-211 -568h419z" />
    <glyph glyph-name="uni03A9" unicode="&#x3a9;" horiz-adv-x="727" 
d="M58 116h19q5 -36 14.5 -55t29.5 -19h129v87q-52 7 -95.5 44.5t-69 96t-25.5 127.5q0 80 34.5 143.5t103 100t165.5 36.5q98 0 166.5 -36.5t103 -100t34.5 -143.5q0 -68 -25.5 -126.5t-69 -96t-95.5 -45.5v-87h128q20 0 29.5 19t14.5 55h19l-10 -116h-229v157
q50 7 87.5 42t57 86.5t19.5 107.5q0 70 -28.5 124.5t-80.5 84.5t-121 30q-68 0 -120 -30t-80.5 -84.5t-28.5 -124.5q0 -56 19.5 -107.5t56.5 -86.5t87 -42v-157h-229z" />
    <glyph glyph-name="uni03BC" unicode="&#x3bc;" horiz-adv-x="581" 
d="M545 29v-14q-29 -25 -72 -25q-26 0 -41.5 14t-15.5 42v31q-21 -35 -66 -61t-104 -26q-55 0 -95 19v-165h-71v310v250q0 18 -17 18q-12 0 -32 -9l-6 19l105 40h23v-337q0 -55 29 -83t82 -28q38 0 73 18t57 53t22 83v226q0 18 -18 18q-10 0 -32 -9l-6 19l108 40h20v-420
q0 -31 22 -31q13 0 35 8z" />
    <glyph glyph-name="pi" unicode="&#x3c0;" horiz-adv-x="636" 
d="M451 17.5q-24 27.5 -24 75.5v344h-217v-437h-74v437h-120v33h605v-33h-120v-341q0 -68 56 -68q23 0 50 16v-34q-19 -11 -38 -15.5t-45 -4.5q-49 0 -73 27.5z" />
    <glyph glyph-name="uni0E01" unicode="&#xe01;" horiz-adv-x="571" 
d="M63 212q0 45 20 83t65 58h-107q6 70 41.5 117.5t87.5 70t110 22.5q99 0 163.5 -46.5t64.5 -135.5v-381h-74v395q0 36 -19 66t-56 48t-89 18q-40 0 -79 -16.5t-67 -49t-36 -79.5h129v-31q-45 -22 -62.5 -54.5t-17.5 -88.5v-208h-74v212z" />
    <glyph glyph-name="uni0E02" unicode="&#xe02;" horiz-adv-x="558" 
d="M104 209q73 41 123.5 95.5t50.5 122.5q0 46 -29 76t-85 30q-47 0 -75.5 -24t-34.5 -62q11 14 28 20t34 6q42 0 64.5 -24.5t22.5 -65.5q0 -37 -26.5 -62t-65.5 -25q-43 0 -70 31.5t-27 87.5q0 65 42 106.5t119 41.5q69 0 111.5 -36t42.5 -101q0 -70 -40 -125.5
t-111 -104.5v-158h243v515h74v-553h-391v209zM153.5 341q17.5 18 17.5 44q0 27 -15 44.5t-45 17.5q-27 0 -43 -18t-16 -44t17.5 -44t41.5 -18q25 0 42.5 18z" />
    <glyph glyph-name="uni0E03" unicode="&#xe03;" horiz-adv-x="558" 
d="M104 209q73 41 123.5 96.5t50.5 124.5q0 32 -10 58.5t-33 39.5l-60 -60l-63 59q-25 -13 -40.5 -43.5t-17.5 -59.5q11 15 28 21t34 6q42 0 64.5 -24.5t22.5 -65.5q0 -37 -26.5 -62.5t-65.5 -25.5q-43 0 -70 32.5t-27 88.5q0 55 25.5 104.5t73.5 65.5l62 -59l63 59
q44 -12 67.5 -47.5t23.5 -88.5q0 -70 -40.5 -126.5t-110.5 -105.5v-158h243v515h74v-553h-391v209zM153.5 319q17.5 18 17.5 43q0 27 -15 44.5t-45 17.5q-27 0 -43 -18t-16 -44q0 -25 17.5 -43t41.5 -18q25 0 42.5 18z" />
    <glyph glyph-name="uni0E04" unicode="&#xe04;" horiz-adv-x="608" 
d="M84 82q0 33 -3.5 63.5t-10.5 75.5q-7 44 -10.5 74t-3.5 61q0 97 60 152t184 55q123 0 184 -55.5t61 -149.5v-358h-74v364q0 71 -43 117t-130 46t-131 -46.5t-44 -119.5q0 -33 10 -101q4 -27 7.5 -56.5t3.5 -55.5q0 -13 -2 -41l59 191q28 95 110 95q44 0 68.5 -25.5
t24.5 -65.5q0 -37 -26 -64t-68 -27q-26 0 -48.5 14.5t-30.5 42.5l-81 -268h-73q7 41 7 82zM353.5 258q17.5 18 17.5 43q0 27 -15 44.5t-45 17.5q-27 0 -43 -18t-16 -44q0 -25 17.5 -43t41.5 -18q25 0 42.5 18z" />
    <glyph glyph-name="uni0E05" unicode="&#xe05;" horiz-adv-x="608" 
d="M84 82q0 33 -3.5 63.5t-10.5 75.5q-7 44 -10.5 74t-3.5 61q0 80 36 133.5t114 71.5l93 -71l94 71q79 -18 115.5 -71.5t36.5 -131.5v-358h-74v364q0 118 -84 151l-88 -69l-90 69q-45 -18 -65.5 -58.5t-20.5 -95.5q0 -33 10 -103q10 -74 10 -116q0 -29 -2 -44l58 180
q30 94 110 94q44 0 68.5 -25.5t24.5 -65.5q0 -38 -25.5 -64.5t-67.5 -26.5q-26 0 -49 14.5t-31 42.5l-79 -247h-73q7 41 7 82zM352.5 237q17.5 18 17.5 43q0 27 -15.5 45t-45.5 18q-26 0 -42 -18.5t-16 -44.5q0 -25 17.5 -43t40.5 -18q26 0 43.5 18z" />
    <glyph glyph-name="uni0E06" unicode="&#xe06;" horiz-adv-x="590" 
d="M55 18.5q-19 28.5 -19 73.5t32 75.5t78 30.5h8v35q136 93 136 197q0 31 -11.5 58.5t-35.5 40.5l-60 -60l-62 59q-26 -12 -41.5 -43t-17.5 -59q21 26 62 26q42 0 64.5 -24.5t22.5 -65.5q0 -37 -26 -62t-66 -25q-43 0 -70 32t-27 88t25.5 104t74.5 65l61 -59l63 59
q44 -12 69 -48t25 -87q0 -106 -112 -202v-40q63 -13 128 -48t97 -69v483h74v-553h-68q-25 43 -94.5 88t-136.5 62v-68q0 -42 -23.5 -67t-83.5 -25q-47 0 -66 28.5zM161.5 320q17.5 18 17.5 44q0 27 -15 44.5t-45 17.5q-27 0 -43 -18t-16 -44t17.5 -44t41.5 -18q25 0 42.5 18
zM144 41.5q10 16.5 10 47.5v77q-39 0 -59.5 -19.5t-20.5 -55.5q0 -30 10 -48t31 -18q19 0 29 16.5z" />
    <glyph glyph-name="uni0E07" unicode="&#xe07;" horiz-adv-x="486" 
d="M99 171q-46 93 -88 133l52 35q51 -51 93 -140t63 -164h130v357q-20 -16 -51 -16q-34 0 -61 25t-27 67q0 43 28.5 69t70.5 26q56 0 85 -28.5t29 -80.5v-454h-259q-19 78 -65 171zM350 423.5q18 18.5 18 44.5q0 28 -16 46t-47 18q-28 0 -44.5 -18.5t-16.5 -45.5
q0 -26 18 -44.5t43 -18.5q27 0 45 18.5z" />
    <glyph glyph-name="uni0E08" unicode="&#xe08;" horiz-adv-x="551" 
d="M296 230q-8 -29 -32.5 -44.5t-52.5 -15.5q-44 0 -71 28.5t-27 68.5q0 42 26 69t72 27q82 0 114 -96l66 -195q1 35 7 76t7 51q17 98 17 167q0 72 -44 116.5t-128 44.5q-83 0 -125 -44t-44 -117h-59q5 90 63 143.5t169 53.5q116 0 178.5 -54.5t62.5 -149.5q0 -36 -5.5 -74
t-17.5 -106q-11 -59 -17 -100.5t-6 -78.5h-72zM253 220.5q18 18.5 18 45.5t-17 46t-45 19q-30 0 -46.5 -18.5t-16.5 -46.5q0 -27 18 -45.5t45 -18.5q26 0 44 18.5z" />
    <glyph glyph-name="uni0E09" unicode="&#xe09;" horiz-adv-x="584" 
d="M529 139q19 -24 19 -58q0 -41 -25.5 -66t-70.5 -25q-44 0 -69.5 25t-25.5 66q0 14 3 26q-69 -31 -104 -52.5t-46 -54.5h-71v187q-15 -14 -44 -14q-34 0 -59.5 22t-25.5 64q0 40 26.5 65.5t68.5 25.5q50 0 78 -27.5t28 -73.5v-181q18 20 44.5 35t66.5 32q42 18 67 32.5
t41.5 36t16.5 51.5v138q0 58 -45 96t-124 38q-59 0 -106 -26t-71 -79h-60q20 62 85.5 101.5t154.5 39.5q103 0 171.5 -45t68.5 -132v-131q0 -48 -45 -85q34 -7 53 -31zM142.5 216q17.5 17 17.5 43q0 27 -15.5 44t-45.5 17q-26 0 -42.5 -17.5t-16.5 -43.5q0 -25 17 -42.5
t42 -17.5q26 0 43.5 17zM495.5 37.5q17.5 17.5 17.5 43.5q0 27 -16 44.5t-45 17.5q-10 0 -24 -4q-6 -4 -9 -5q-13 -8 -20 -22t-7 -31q0 -26 17 -43.5t43 -17.5t43.5 17.5z" />
    <glyph glyph-name="uni0E0A" unicode="&#xe0a;" horiz-adv-x="572" 
d="M104 209q73 41 123.5 95.5t50.5 122.5q0 46 -29 76t-85 30q-47 0 -75.5 -24t-34.5 -62q11 14 28 20t34 6q42 0 64.5 -24.5t22.5 -65.5q0 -37 -26.5 -62t-65.5 -25q-43 0 -70 31.5t-27 87.5q0 65 42 106.5t119 41.5q69 0 111.5 -36t42.5 -101q0 -70 -40 -125.5
t-111 -104.5v-158h257v278q0 34 -20 51.5t-45 21.5v35q23 5 47.5 24t40.5 50.5t16 72.5h64q0 -68 -32 -108.5t-65 -54.5q29 -11 48.5 -35t19.5 -57v-316h-405v209zM153.5 341q17.5 18 17.5 44q0 27 -15 44.5t-45 17.5q-27 0 -43 -18t-16 -44t17.5 -44t41.5 -18q25 0 42.5 18
z" />
    <glyph glyph-name="uni0E0B" unicode="&#xe0b;" horiz-adv-x="572" 
d="M104 209q73 41 123.5 96.5t50.5 124.5q0 32 -10 58.5t-33 39.5l-60 -60l-63 59q-25 -13 -40.5 -43.5t-17.5 -59.5q11 15 28 21t34 6q42 0 64.5 -24.5t22.5 -65.5q0 -37 -26.5 -62.5t-65.5 -25.5q-43 0 -70 32.5t-27 88.5q0 55 25.5 104.5t73.5 65.5l62 -59l63 59
q44 -12 67.5 -47.5t23.5 -88.5q0 -70 -40.5 -126.5t-110.5 -105.5v-158h257v278q0 34 -20.5 51.5t-44.5 21.5v35q23 5 47.5 24t40.5 50.5t16 72.5h64q0 -68 -32 -108.5t-65 -54.5q29 -11 48.5 -35t19.5 -57v-316h-405v209zM153.5 319q17.5 18 17.5 43q0 27 -15 44.5
t-45 17.5q-27 0 -43 -18t-16 -44q0 -25 17.5 -43t41.5 -18q25 0 42.5 18z" />
    <glyph glyph-name="uni0E0C" unicode="&#xe0c;" horiz-adv-x="828" 
d="M765 553v-553h-71q-13 26 -46.5 46.5t-92.5 47.5l-24 11q2 -12 2 -20q0 -43 -27.5 -69t-71.5 -26t-71 26t-27 69q0 41 25 67t65 29q-7 11 -7 26v188q0 56 -40.5 94t-116.5 38q-62 0 -112 -37.5t-62 -107.5h129v-31q-44 -22 -62 -51t-18 -81v-59q16 15 49 15
q31 0 59.5 -22.5t28.5 -68.5q0 -42 -28.5 -68t-70.5 -26q-56 0 -84 29.5t-28 82.5v113q0 45 20 81.5t65 56.5h-107q6 71 40 118t84 69.5t107 22.5q95 0 158 -46.5t63 -135.5v-164q0 -25 15.5 -43t37 -29t59.5 -26q34 -13 54 -23t32 -23v480h74zM478.5 39.5
q16.5 18.5 16.5 45.5t-17.5 45.5t-43.5 18.5q-27 0 -45 -18.5t-18 -45.5t16 -45.5t47 -18.5q28 0 44.5 18.5zM135 129q-18 -18 -18 -45q0 -28 16 -46t47 -18q28 0 44.5 18.5t16.5 45.5t-17.5 45t-43.5 18q-27 0 -45 -18z" />
    <glyph glyph-name="uni0E0D" unicode="&#xe0d;" horiz-adv-x="838" 
d="M80.5 471q33.5 47 83 69.5t106.5 22.5q95 0 157 -46.5t62 -135.5v-343h212v515h74v-553h-360v395q0 56 -40 94t-115 38q-61 0 -110.5 -37t-61.5 -108h129v-31q-44 -22 -62 -51t-18 -81v-59q16 15 49 15q32 0 60 -23t28 -68q0 -42 -28.5 -68t-70.5 -26q-56 0 -84 29.5
t-28 82.5v113q0 45 20 81.5t65 56.5h-107q6 71 39.5 118zM133 38q16 -18 47 -18q28 0 44.5 18.5t16.5 45.5t-17.5 45t-43.5 18q-27 0 -45 -18t-18 -45q0 -28 16 -46zM422 -68q25 24 64 24q38 0 63.5 -22t25.5 -64q0 -26 -13.5 -48.5t-42.5 -32.5q19 -8 51 -8q58 0 99 45.5
t49 122.5h59q-9 -99 -65.5 -150t-146.5 -51q-73 0 -120.5 30.5t-47.5 91.5q0 38 25 62zM446 -171q15 -16 40 -16t40.5 16t15.5 42t-15.5 42t-40.5 16t-40 -16t-15 -42t15 -42z" />
    <glyph glyph-name="uni0E0E" unicode="&#xe0e;" horiz-adv-x="617" 
d="M489 516.5q65 -46.5 65 -135.5v-624h-70q-16 38 -47.5 67.5t-72.5 47.5q-15 -59 -52 -95.5t-98 -36.5q-52 0 -82 23.5t-30 67.5q0 45 38 72t104 27q37 0 79 -11q2 24 2 35h48q0 -26 -3 -50q71 -29 110 -77v568q0 36 -19.5 66t-56.5 48t-89 18q-40 0 -79 -16.5t-67 -49
t-36 -79.5h154v-31q-43 -22 -59 -54t-16 -89v-107q0 -53 -28 -82t-84 -29q-42 0 -71 26t-29 68q0 46 28.5 68.5t60.5 22.5q31 0 49 -15v60q0 97 81 133h-133q7 70 42.5 117.5t87.5 70t110 22.5q98 0 163 -46.5zM141.5 38q16.5 18 16.5 46q0 27 -18 45t-45 18
q-26 0 -43.5 -18t-17.5 -45t16.5 -45.5t44.5 -18.5q30 0 46.5 18zM282 -197.5q26 32.5 36 85.5q-34 10 -75 10q-45 0 -74 -17t-29 -48q0 -29 18.5 -46t51.5 -17q46 0 72 32.5z" />
    <glyph glyph-name="uni0E0F" unicode="&#xe0f;" horiz-adv-x="617" 
d="M489 516.5q65 -46.5 65 -135.5v-624h-66l-62 66l-57 -66h-23q-13 34 -38 62q-19 -33 -48.5 -53t-67.5 -20q-46 0 -75 19.5t-29 60.5q0 37 29.5 58.5t79.5 21.5q45 0 89 -26q5 23 5 47h46q0 -37 -14 -76q27 -27 39 -51l63 69l55 -57v583q0 36 -19.5 66t-56.5 48t-89 18
q-40 0 -79 -16.5t-67 -49t-36 -79.5h154v-31q-43 -22 -59 -54t-16 -89v-107q0 -53 -28 -82t-84 -29q-42 0 -71 26t-29 68q0 46 28.5 68.5t60.5 22.5q33 0 49 -15v60q0 97 81 133h-133q7 70 42.5 117.5t87.5 70t110 22.5q98 0 163 -46.5zM141.5 38q16.5 18 16.5 46
q0 27 -18 45t-45 18q-26 0 -43.5 -18t-17.5 -45t16.5 -45.5t44.5 -18.5q30 0 46.5 18zM241.5 -204q22.5 19 35.5 52q-40 28 -83 28q-30 0 -48.5 -13.5t-18.5 -37.5q0 -23 18 -35.5t43 -12.5q31 0 53.5 19z" />
    <glyph glyph-name="uni0E10" unicode="&#xe10;" horiz-adv-x="537" 
d="M432.5 356q43.5 -31 43.5 -95q0 -30 -7 -61t-21 -78q-25 -78 -28 -122h-72l-68 173q-8 -29 -32.5 -44.5t-51.5 -15.5q-44 0 -71 28.5t-27 68.5q0 42 25.5 69t71.5 27q41 0 68 -24t46 -72l55 -143q2 21 18 77q2 8 8.5 33.5t10 46.5t3.5 38q0 42 -28 65.5t-87 23.5
q-48 0 -139.5 -2t-113.5 -5v34q0 83 49.5 134t146.5 51q30 0 90 -12q47 -9 67 -9q51 0 80 24l23 -35q-17 -14 -46 -22t-49 -8q-28 0 -70 11q-31 7 -49.5 10t-43.5 3q-54 0 -89 -37t-39 -105q18 2 83 3t104 1q96 0 139.5 -31zM238 163.5q18 18.5 18 45.5t-17 46t-45 19
q-31 0 -47.5 -18.5t-16.5 -46.5q0 -27 18.5 -45.5t45.5 -18.5q26 0 44 18.5zM444 -44q20 -16 20 -46v-136h-62l-61 52l-56 -52h-19q-15 36 -40 63q-17 -34 -45.5 -53.5t-69.5 -19.5q-47 0 -73.5 21.5t-26.5 56.5q0 33 26.5 56.5t78.5 23.5q47 0 91 -30q5 25 5 47h38
q0 -35 -11 -73q25 -25 41 -54l61 55l68 -57v61q-7 -2 -20 -2q-24 0 -39.5 13.5t-15.5 38.5q0 23 17 37t43 14q30 0 50 -16zM411 -102.5q8 8.5 8 21.5q0 14 -7.5 22t-22.5 8q-13 0 -21 -8t-8 -22q0 -13 8 -21.5t21 -8.5q14 0 22 8.5zM199 -136q-40 30 -80 30
q-32 0 -48.5 -15.5t-16.5 -38.5q0 -20 16 -33t43 -13q60 0 86 70z" />
    <glyph glyph-name="uni0E11" unicode="&#xe11;" horiz-adv-x="644" 
d="M141 234q137 93 137 196q0 32 -10 58.5t-33 39.5l-60 -60l-63 59q-25 -13 -40.5 -43.5t-17.5 -59.5q11 15 28 21t34 6q42 0 64.5 -24.5t22.5 -65.5q0 -37 -26.5 -62.5t-65.5 -25.5q-43 0 -70 32.5t-27 88.5q0 55 25.5 104.5t73.5 65.5l62 -59l63 59q43 -12 66.5 -48.5
t23.5 -88.5q0 -59 -32 -114t-85 -96v-144l234 487h51q44 0 64.5 -24t20.5 -74v-462h-74v437q0 30 -7 46t-31 16h-9l-239 -499h-80v234zM153.5 319q17.5 18 17.5 43q0 27 -15 44.5t-45 17.5q-27 0 -43 -18t-16 -44q0 -25 17.5 -43t41.5 -18q25 0 42.5 18z" />
    <glyph glyph-name="uni0E12" unicode="&#xe12;" horiz-adv-x="856" 
d="M793 553v-553h-71q-18 37 -54 59.5t-100 49.5q3 -10 3 -24q0 -43 -27 -69t-71 -26q-45 0 -72 26t-27 69q0 40 24 66t63 29q-14 22 -14 48v131q0 58 -17.5 98t-63.5 59l-79 -70l-74 70q-83 -32 -83 -155q0 -34 5 -75t6 -51q13 -84 13 -140q0 -18 -2 -48q45 31 85.5 76.5
t67.5 89.5q-8 -4 -21 -4q-43 0 -67.5 26.5t-24.5 62.5q0 39 24.5 65t66.5 26q45 0 69.5 -25.5t24.5 -65.5q0 -50 -33 -106.5t-84 -107.5t-105 -84h-78q7 41 7 82q0 33 -3.5 63.5t-10.5 75.5q-7 44 -10.5 74t-3.5 61q0 79 39 133t118 72l74 -70l82 70q79 -18 115.5 -68.5
t36.5 -126.5v-142q0 -34 29.5 -56t85.5 -47q32 -14 51.5 -25t31.5 -24v481h74zM325.5 254.5q17.5 17.5 17.5 43.5q0 27 -15 44.5t-45 17.5q-26 0 -42 -18t-16 -44q0 -25 17.5 -43t40.5 -18q25 0 42.5 17.5zM517 40q17 19 17 45q0 27 -17.5 45.5t-43.5 18.5q-27 0 -45 -18.5
t-18 -45.5t16 -45.5t47 -18.5q27 0 44 19z" />
    <glyph glyph-name="uni0E13" unicode="&#xe13;" horiz-adv-x="839" 
d="M773 147q21 -25 21 -62q0 -43 -27 -69t-71 -26t-71 26t-27 69q0 13 3 25q-45 -27 -76 -53t-46 -57h-70v381q0 65 -35.5 105.5t-116.5 40.5q-61 0 -109 -37t-60 -108h129v-31q-44 -22 -62 -51t-18 -81v-59q16 15 49 15q31 0 59.5 -22.5t28.5 -68.5q0 -42 -28.5 -68
t-70.5 -26q-56 0 -84 29.5t-28 82.5v113q0 45 20 81.5t65 56.5h-107q9 104 73.5 157t152.5 53q95 0 155.5 -46.5t60.5 -135.5v-312q16 22 40 39.5t70 45.5q55 34 82 57t27 51v291h74v-287q0 -25 -15 -45.5t-43 -41.5q34 -7 55 -32zM742 39.5q16 18.5 16 45.5t-18 45.5
t-44 18.5t-44 -18.5t-18 -45.5q0 -26 17 -45t45 -19q30 0 46 18.5zM135 129q-18 -18 -18 -45q0 -28 16 -46t47 -18q28 0 44.5 18.5t16.5 45.5t-17.5 45t-43.5 18q-27 0 -45 -18z" />
    <glyph glyph-name="uni0E14" unicode="&#xe14;" horiz-adv-x="613" 
d="M84 82q0 33 -3.5 63.5t-10.5 75.5q-7 44 -10.5 74t-3.5 61q0 96 62 151.5t186 55.5t185 -55.5t61 -149.5v-358h-74v364q0 71 -43 117t-131 46q-86 0 -129 -46t-43 -120q0 -42 11 -119q12 -94 12 -143q0 -31 -4 -55q51 35 101.5 82.5t74.5 86.5q-8 -4 -22 -4
q-43 0 -67 26.5t-24 62.5q0 39 24.5 65t66.5 26q46 0 70 -25.5t24 -65.5q0 -49 -37.5 -105.5t-94 -107t-113.5 -85.5h-75q7 41 7 82zM346.5 255q17.5 18 17.5 43q0 27 -15.5 44.5t-45.5 17.5q-26 0 -42 -18t-16 -44q0 -25 17.5 -43t40.5 -18q26 0 43.5 18z" />
    <glyph glyph-name="uni0E15" unicode="&#xe15;" horiz-adv-x="613" 
d="M84 82q0 33 -3.5 63.5t-10.5 75.5q-7 44 -10.5 74t-3.5 61q0 79 39 133t118 72l91 -72l94 72q78 -18 115 -72t37 -131v-358h-74v364q0 53 -20 93t-65 58l-87 -69l-88 69q-45 -18 -65.5 -58.5t-20.5 -95.5q0 -40 11 -113q12 -90 12 -139q0 -37 -4 -65q51 35 101.5 82.5
t74.5 86.5q-8 -4 -22 -4q-43 0 -67 26.5t-24 62.5q0 39 24.5 65t66.5 26q46 0 70 -25.5t24 -65.5q0 -49 -37.5 -105.5t-94 -107t-113.5 -85.5h-75q7 41 7 82zM346.5 255q17.5 18 17.5 43q0 27 -15.5 44.5t-45.5 17.5q-26 0 -42 -18t-16 -44q0 -25 17.5 -43t40.5 -18
q26 0 43.5 18z" />
    <glyph glyph-name="uni0E16" unicode="&#xe16;" horiz-adv-x="571" 
d="M63 110v105q0 45 20 81.5t65 56.5h-107q6 70 41.5 117.5t87.5 70t110 22.5q99 0 163.5 -46.5t64.5 -135.5v-381h-74v395q0 35 -19 65.5t-56.5 48.5t-88.5 18q-40 0 -79 -16.5t-67 -49.5t-36 -79h129v-31q-44 -22 -62 -51t-18 -81v-59q16 15 49 15q31 0 59.5 -22.5
t28.5 -68.5q0 -42 -28.5 -68t-70.5 -26q-112 0 -112 120zM224.5 38.5q16.5 18.5 16.5 45.5t-17.5 45t-43.5 18q-27 0 -45 -18t-18 -45q0 -28 16 -46t47 -18q28 0 44.5 18.5z" />
    <glyph glyph-name="uni0E17" unicode="&#xe17;" horiz-adv-x="627" 
d="M145 393q-17 -16 -50 -16q-32 0 -60 23t-28 68q0 43 28.5 69t70.5 26q55 0 84 -28.5t29 -80.5v-338l193 437h62q46 0 68.5 -25.5t22.5 -81.5v-446h-74v421q0 37 -8.5 52.5t-32.5 15.5h-17l-217 -489h-71v393zM146 423.5q18 18.5 18 44.5q0 28 -16 46t-47 18
q-27 0 -44 -18.5t-17 -45.5q0 -26 18 -44.5t43 -18.5q27 0 45 18.5z" />
    <glyph glyph-name="uni0E18" unicode="&#xe18;" horiz-adv-x="544" 
d="M57 262h73v-224h277v214q0 37 -9.5 58t-33 31t-67.5 10q-48 0 -140 -2t-113 -5v34q0 81 54 133t152 52q22 0 53 -5t38 -6q58 -10 75 -10q16 0 28 4.5t29 19.5l23 -35q-33 -30 -72 -30q-27 0 -73 11q-23 5 -49.5 9t-50.5 4q-55 0 -94.5 -37.5t-42.5 -104.5q17 2 78.5 3
t98.5 1q67 0 108 -11.5t61.5 -41t20.5 -82.5v-252h-424v262z" />
    <glyph glyph-name="uni0E19" unicode="&#xe19;" horiz-adv-x="629" 
d="M573.5 143.5q18.5 -24.5 18.5 -58.5q0 -43 -27.5 -69t-73.5 -26t-74 26t-28 69q0 15 3 27q-9 -3 -62 -23.5t-81.5 -42.5t-31.5 -46h-72v393q-17 -16 -50 -16q-31 0 -59.5 22.5t-28.5 68.5q0 43 28.5 69t70.5 26q55 0 84 -28.5t29 -80.5v-383q18 17 45.5 29.5t73.5 29.5
q51 19 81.5 33.5t51.5 36.5t21 53v300h74v-303q0 -41 -42 -73q31 -9 49.5 -33.5zM146 423.5q18 18.5 18 44.5q0 28 -16 46t-47 18q-27 0 -44 -18.5t-17 -45.5q0 -26 18 -44.5t43 -18.5q27 0 45 18.5zM534 41q15 17 15 45q0 27 -17 44.5t-41 17.5t-40.5 -17.5t-16.5 -44.5
t15.5 -44.5t41.5 -17.5q28 0 43 17z" />
    <glyph glyph-name="uni0E1A" unicode="&#xe1a;" horiz-adv-x="630" 
d="M35.5 537q28.5 26 70.5 26q55 0 84 -28.5t29 -80.5v-416h274v515h74v-553h-492v38h70v355q-17 -16 -50 -16q-31 0 -59.5 22.5t-28.5 68.5q0 43 28.5 69zM58 423.5q18 -18.5 43 -18.5q27 0 45 18.5t18 44.5q0 28 -16 46t-47 18q-27 0 -44 -18.5t-17 -45.5q0 -26 18 -44.5z
" />
    <glyph glyph-name="uni0E1B" unicode="&#xe1b;" horiz-adv-x="630" 
d="M35.5 537q28.5 26 70.5 26q55 0 84 -28.5t29 -80.5v-416h274v718h74v-756h-492v38h70v355q-17 -16 -50 -16q-31 0 -59.5 22.5t-28.5 68.5q0 43 28.5 69zM58 423.5q18 -18.5 43 -18.5q27 0 45 18.5t18 44.5q0 28 -16 46t-47 18q-27 0 -44 -18.5t-17 -45.5q0 -26 18 -44.5z
" />
    <glyph glyph-name="uni0E1C" unicode="&#xe1c;" horiz-adv-x="615" 
d="M62 451q0 52 29 82t84 30q42 0 70.5 -26t28.5 -69q0 -46 -28.5 -68.5t-59.5 -22.5q-33 0 -50 13v-308l151 235h40l151 -235v471h74v-553h-73l-172 270l-172 -270h-73v451zM223 423.5q18 18.5 18 44.5q0 27 -17 45.5t-44 18.5q-31 0 -47 -18t-16 -46q0 -26 18 -44.5
t45 -18.5q25 0 43 18.5z" />
    <glyph glyph-name="uni0E1D" unicode="&#xe1d;" horiz-adv-x="615" 
d="M62 451q0 52 29 82t84 30q42 0 70.5 -26t28.5 -69q0 -46 -28.5 -68.5t-59.5 -22.5q-33 0 -50 13v-308l151 235h40l151 -235v674h74v-756h-73l-172 270l-172 -270h-73v451zM223 423.5q18 18.5 18 44.5q0 27 -17 45.5t-44 18.5q-31 0 -47 -18t-16 -46q0 -26 18 -44.5
t45 -18.5q25 0 43 18.5z" />
    <glyph glyph-name="uni0E1E" unicode="&#xe1e;" horiz-adv-x="695" 
d="M145 393q-17 -16 -50 -16q-31 0 -59.5 22.5t-28.5 68.5q0 43 28.5 69t70.5 26q55 0 84 -28.5t29 -80.5v-326l149 380h42l148 -380v425h74v-553h-74l-169 441l-170 -441h-74v393zM146 423.5q18 18.5 18 44.5q0 28 -16 46t-47 18q-27 0 -44 -18.5t-17 -45.5q0 -26 18 -44.5
t43 -18.5q27 0 45 18.5z" />
    <glyph glyph-name="uni0E1F" unicode="&#xe1f;" horiz-adv-x="695" 
d="M145 393q-17 -16 -50 -16q-31 0 -59.5 22.5t-28.5 68.5q0 43 28.5 69t70.5 26q55 0 84 -28.5t29 -80.5v-326l149 380h42l148 -380v628h74v-756h-74l-169 441l-170 -441h-74v393zM146 423.5q18 18.5 18 44.5q0 28 -16 46t-47 18q-27 0 -44 -18.5t-17 -45.5q0 -26 18 -44.5
t43 -18.5q27 0 45 18.5z" />
    <glyph glyph-name="uni0E20" unicode="&#xe20;" horiz-adv-x="617" 
d="M29 16q-29 26 -29 68q0 46 28.5 68.5t60.5 22.5q31 0 49 -15v60q0 97 81 133h-133q7 70 42.5 117.5t87.5 70t110 22.5q98 0 163 -46.5t65 -135.5v-381h-74v395q0 35 -19.5 65.5t-57 48.5t-88.5 18q-40 0 -79 -16.5t-67 -49.5t-36 -79h154v-31q-43 -22 -59 -54t-16 -89
v-107q0 -53 -28 -82t-84 -29q-42 0 -71 26zM141.5 38q16.5 18 16.5 46q0 27 -18 45t-45 18q-26 0 -43.5 -18t-17.5 -45t16.5 -45.5t44.5 -18.5q30 0 46.5 18z" />
    <glyph glyph-name="uni0E21" unicode="&#xe21;" horiz-adv-x="615" 
d="M67 20q-22 30 -22 73q0 45 27.5 77.5t75.5 32.5q9 0 13 -1v191q-17 -16 -50 -16q-31 0 -59.5 22.5t-28.5 68.5q0 43 28.5 69t70.5 26q55 0 84 -28.5t29 -80.5v-257q69 -13 142 -51t101 -72v479h74v-553h-68q-28 49 -103 95.5t-146 62.5v-65q0 -103 -100 -103
q-46 0 -68 30zM162 423.5q18 18.5 18 44.5q0 28 -16 46t-47 18q-27 0 -44 -18.5t-17 -45.5q0 -26 18 -44.5t43 -18.5q27 0 45 18.5zM161 90v80q-39 0 -58.5 -20.5t-19.5 -56.5q0 -30 10 -49t31 -19q37 0 37 65z" />
    <glyph glyph-name="uni0E22" unicode="&#xe22;" horiz-adv-x="567" 
d="M56 175q0 33 20.5 64t63.5 43q-39 12 -66.5 49.5t-27.5 92.5q0 59 32 99t93 40q50 0 77 -25.5t27 -69.5q0 -45 -28.5 -68.5t-59.5 -23.5q-48 0 -67 29q1 -52 34 -77t74 -25h74v-39h-81q-46 0 -68.5 -30.5t-22.5 -68.5v-127h300v515h74v-553h-448v175zM223 423.5
q18 18.5 18 44.5q0 27 -16.5 45.5t-44.5 18.5q-31 0 -47 -18t-16 -46q0 -26 18 -44.5t45 -18.5q25 0 43 18.5z" />
    <glyph glyph-name="uni0E23" unicode="&#xe23;" horiz-adv-x="503" 
d="M240.5 16q-28.5 26 -28.5 68q0 45 27.5 68.5t59.5 23.5q34 0 50 -16v119q0 48 -26.5 66.5t-92.5 18.5q-40 0 -107.5 -2t-89.5 -6v34q0 82 51.5 127.5t149.5 45.5q32 0 90 -12q50 -10 69 -10q16 0 27.5 4.5t29.5 19.5l22 -36q-14 -15 -32.5 -22t-36.5 -7q-25 0 -77 12
q-54 12 -86 12q-58 0 -98.5 -30t-43.5 -98q29 3 127 3q73 0 115 -9t62.5 -34t20.5 -73v-181q0 -53 -28 -82.5t-84 -29.5q-42 0 -70.5 26zM353 38q16 18 16 46q0 27 -18 45t-45 18q-26 0 -43.5 -18t-17.5 -45t16.5 -45.5t44.5 -18.5q31 0 47 18z" />
    <glyph glyph-name="uni0E24" unicode="&#xe24;" horiz-adv-x="571" 
d="M434 395q0 35 -19 65.5t-56.5 48.5t-88.5 18q-40 0 -79 -16.5t-67 -49.5t-36 -79h129v-31q-44 -22 -62 -51t-18 -81v-59q16 15 49 15q31 0 59.5 -22.5t28.5 -68.5q0 -42 -28.5 -68t-70.5 -26q-112 0 -112 120v105q0 45 20 81.5t65 56.5h-107q6 70 41.5 117.5t87.5 70
t110 22.5q99 0 163.5 -46.5t64.5 -135.5v-577h-74v591zM224.5 38.5q16.5 18.5 16.5 45.5t-17.5 45t-43.5 18q-27 0 -45 -18t-18 -45q0 -28 16 -46t47 -18q28 0 44.5 18.5z" />
    <glyph glyph-name="uni0E25" unicode="&#xe25;" horiz-adv-x="557" 
d="M56.5 36q-33.5 46 -33.5 121q0 65 27.5 112.5t76 72.5t111.5 25q54 0 106.5 -26t75.5 -73v123q0 57 -43 96.5t-122 39.5q-58 0 -104.5 -25t-70.5 -79h-58q20 63 86 101.5t152 38.5q61 0 114.5 -19.5t86.5 -60t33 -99.5v-384h-74v161q0 53 -26 92t-66.5 59t-84.5 20
q-78 0 -116 -52t-38 -134l1 -17q7 24 28.5 36.5t45.5 12.5q35 0 63.5 -24.5t28.5 -69.5q0 -43 -26.5 -68.5t-72.5 -25.5q-67 0 -100.5 46zM205.5 38.5q16.5 18.5 16.5 45.5t-17.5 45t-43.5 18q-27 0 -45 -18t-18 -45q0 -28 16 -46t47 -18q28 0 44.5 18.5z" />
    <glyph glyph-name="uni0E26" unicode="&#xe26;" horiz-adv-x="617" 
d="M480 395q0 35 -19.5 65.5t-57 48.5t-88.5 18q-40 0 -79 -16.5t-67 -49.5t-36 -79h154v-31q-43 -22 -59 -54t-16 -89v-107q0 -53 -28 -82t-84 -29q-42 0 -71 26t-29 68q0 46 28.5 68.5t60.5 22.5q31 0 49 -15v60q0 97 81 133h-133q7 70 42.5 117.5t87.5 70t110 22.5
q98 0 163 -46.5t65 -135.5v-577h-74v591zM141.5 38q16.5 18 16.5 46q0 27 -18 45t-45 18q-26 0 -43.5 -18t-17.5 -45t16.5 -45.5t44.5 -18.5q30 0 46.5 18z" />
    <glyph glyph-name="uni0E27" unicode="&#xe27;" horiz-adv-x="508" 
d="M262.5 16q-28.5 26 -28.5 68q0 46 28.5 68.5t59.5 22.5q33 0 49 -15v247q0 58 -43 89t-108 31q-62 0 -108 -34t-53 -95h-56q8 79 70 122t150 43q100 0 161 -40t61 -120v-301q0 -53 -28 -82.5t-84 -29.5q-42 0 -70.5 26zM375 38q16 18 16 46q0 27 -18 45t-45 18
q-26 0 -43.5 -18t-17.5 -45t16.5 -45.5t44.5 -18.5q31 0 47 18z" />
    <glyph glyph-name="uni0E28" unicode="&#xe28;" horiz-adv-x="610" 
d="M547 358v-358h-74v364q0 71 -44 117t-131 46t-131 -46.5t-44 -119.5q0 -37 10 -107q11 -66 11 -109q0 -12 -2 -38l60 191q15 47 41.5 71t68.5 24q44 0 68.5 -25.5t24.5 -65.5q0 -38 -25.5 -64.5t-67.5 -26.5q-26 0 -49 14.5t-31 42.5l-82 -268h-73q7 41 7 82
q0 33 -3.5 63.5t-10.5 75.5q-7 44 -10.5 74t-3.5 61q0 97 60 152t184 55q94 0 153 -34q41 29 49 67h61q-11 -56 -72 -94q56 -53 56 -144zM270 345q-16 -18 -16 -44q0 -25 17.5 -43t41.5 -18q25 0 42.5 18t17.5 43q0 27 -15 44.5t-45 17.5q-27 0 -43 -18z" />
    <glyph glyph-name="uni0E29" unicode="&#xe29;" horiz-adv-x="682" 
d="M35.5 537q28.5 26 70.5 26q55 0 84 -28.5t29 -80.5v-416h289v169q-31 -7 -70 -7q-84 0 -123 31.5t-39 83.5q0 38 24.5 62.5t63.5 24.5q37 0 62 -22t25 -62q0 -28 -16.5 -52t-44.5 -29q25 -6 43 -6q42 0 75 13v309h74v-251q27 42 33 98h56q-18 -110 -89 -160v-240h-507v38
h70v355q-17 -16 -50 -16q-31 0 -59.5 22.5t-28.5 68.5q0 43 28.5 69zM58 423.5q18 -18.5 43 -18.5q27 0 45 18.5t18 44.5q0 28 -16 46t-47 18q-27 0 -44 -18.5t-17 -45.5q0 -26 18 -44.5zM327.5 273.5q14.5 -16.5 37.5 -16.5q24 0 38.5 16.5t14.5 41.5q0 26 -14 42t-39 16
q-24 0 -38 -16.5t-14 -41.5t14.5 -41.5z" />
    <glyph glyph-name="uni0E2A" unicode="&#xe2a;" horiz-adv-x="557" 
d="M494 384v-384h-74v161q0 53 -26 92t-66.5 59t-84.5 20q-78 0 -116 -52t-38 -134l1 -17q7 24 28.5 36.5t45.5 12.5q35 0 63.5 -24.5t28.5 -69.5q0 -43 -26.5 -68.5t-72.5 -25.5q-67 0 -100.5 46t-33.5 121q0 65 27.5 112.5t76 72.5t111.5 25q54 0 106.5 -26t75.5 -73v123
q0 57 -43 96.5t-122 39.5q-58 0 -104.5 -25t-70.5 -79h-58q20 63 86 101.5t152 38.5q84 0 146 -34q21 14 35 31.5t18 35.5h61q-12 -57 -75 -95q49 -47 49 -117zM116 129q-18 -18 -18 -45q0 -28 16 -46t47 -18q28 0 44.5 18.5t16.5 45.5t-17.5 45t-43.5 18q-27 0 -45 -18z
" />
    <glyph glyph-name="uni0E2B" unicode="&#xe2b;" horiz-adv-x="634" 
d="M571 313v-313h-74v286q0 55 -33 55q-13 0 -23 -8t-21 -25l-204 -308h-71v393q-17 -16 -50 -16q-31 0 -59.5 22.5t-28.5 68.5q0 43 28.5 69t70.5 26q55 0 84 -28.5t29 -80.5v-367l166 250q24 36 46 48q-22 12 -34.5 34t-12.5 50q0 42 27 68t74 26t74.5 -26t27.5 -68
q0 -29 -13 -51.5t-38 -34.5q35 -22 35 -70zM146 423.5q18 18.5 18 44.5q0 28 -16 46t-47 18q-27 0 -44 -18.5t-17 -45.5q0 -26 18 -44.5t43 -18.5q27 0 45 18.5zM441.5 513q-17.5 -18 -17.5 -45t17 -45.5t44 -18.5q31 0 47 18t16 46q0 27 -18 45t-45 18q-26 0 -43.5 -18z
" />
    <glyph glyph-name="uni0E2C" unicode="&#xe2c;" horiz-adv-x="695" 
d="M618 679q14 -30 14 -66v-613h-74l-169 441l-170 -441h-74v393q-17 -16 -50 -16q-31 0 -59.5 22.5t-28.5 68.5q0 43 28.5 69t70.5 26q55 0 84 -28.5t29 -80.5v-331l149 385h42l148 -385v493q-60 -38 -146 -38q-77 0 -116 26t-39 70q0 47 45.5 73t123.5 26q100 0 156 -47
q9 29 9 64h59q-5 -67 -32 -111zM489 626.5q36 13.5 60 40.5q-14 35 -48 53t-82 18q-46 0 -76.5 -15.5t-30.5 -47.5q0 -27 23.5 -44.5t72.5 -17.5q45 0 81 13.5zM146 423.5q18 18.5 18 44.5q0 28 -16 46t-47 18q-27 0 -44 -18.5t-17 -45.5q0 -26 18 -44.5t43 -18.5
q27 0 45 18.5z" />
    <glyph glyph-name="uni0E2D" unicode="&#xe2d;" horiz-adv-x="565" 
d="M61 248q0 52 29 81.5t84 29.5q42 0 70.5 -26t28.5 -68q0 -46 -28.5 -69t-59.5 -23q-33 0 -50 16v-151h293v353q0 37 -19.5 68t-58 49.5t-91.5 18.5q-66 0 -115.5 -28t-60.5 -80h-58q14 66 78 105t160 39q62 0 116.5 -19.5t88.5 -60t34 -99.5v-384h-441v248zM222.5 220
q17.5 18 17.5 45t-17 45.5t-44 18.5q-31 0 -47 -18t-16 -46q0 -27 18 -45t45 -18q26 0 43.5 18z" />
    <glyph glyph-name="uni0E2E" unicode="&#xe2e;" horiz-adv-x="565" 
d="M476 482q26 -36 26 -83v-399h-441v212q0 52 29 82t84 30q42 0 70.5 -26t28.5 -69q0 -46 -28.5 -68.5t-59.5 -22.5q-32 0 -50 15v-115h293v369q0 8 -2 24q-42 -32 -96 -49t-110 -17q-81 0 -128.5 24t-47.5 69q0 50 60.5 77.5t150.5 27.5q52 0 100.5 -11t82.5 -35
q18 38 18 80h60q-4 -63 -40 -115zM321.5 418.5q50.5 18.5 84.5 53.5q-24 30 -68.5 44t-94.5 14q-51 0 -97.5 -19t-46.5 -52q0 -27 33 -43t85 -16q54 0 104.5 18.5zM134 184.5q18 -18.5 45 -18.5q25 0 43 18.5t18 44.5q0 27 -17 45.5t-44 18.5q-31 0 -47 -18t-16 -46
q0 -26 18 -44.5z" />
    <glyph glyph-name="uni0E2F" unicode="&#xe2f;" horiz-adv-x="462" 
d="M325 367q-18 -35 -56.5 -62.5t-89.5 -27.5q-77 0 -115.5 46t-38.5 113q0 52 27 89.5t82 37.5q50 0 74.5 -24.5t24.5 -65.5q0 -45 -26 -70t-58 -25q-57 0 -77 29q4 -36 31.5 -63.5t74.5 -27.5q40 0 73.5 23.5t53 60.5t19.5 77v76h75v-553h-74v367zM180.5 427
q17.5 18 17.5 44t-16.5 44t-43.5 18q-30 0 -45.5 -17.5t-15.5 -44.5q0 -26 17.5 -44t43.5 -18q25 0 42.5 18z" />
    <glyph glyph-name="uni0E30" unicode="&#xe30;" horiz-adv-x="392" 
d="M48 476q23 22 61 22q37 0 59 -19.5t22 -54.5q0 -32 -18.5 -54t-57.5 -22q33 -11 54 -11q58 0 95.5 44.5t39.5 114.5h54q-3 -95 -55.5 -144t-133.5 -49q-63 0 -103 29.5t-40 84.5q0 37 23 59zM75.5 382q13.5 -13 32.5 -13q21 0 34 13t13 38q0 24 -13 37t-34 13
q-19 0 -32.5 -13t-13.5 -37q0 -25 13.5 -38zM48 201q23 22 61 22q37 0 59 -19.5t22 -54.5q0 -32 -18.5 -54t-57.5 -22q33 -11 54 -11q58 0 95.5 44.5t39.5 114.5h54q-3 -95 -55.5 -144t-133.5 -49q-63 0 -103 29.5t-40 84.5q0 37 23 59zM75.5 107q13.5 -13 32.5 -13
q21 0 34 13t13 38q0 24 -13 37t-34 13q-19 0 -32.5 -13t-13.5 -37q0 -25 13.5 -38z" />
    <glyph glyph-name="uni0E31" unicode="&#xe31;" 
d="M-267.5 668.5q-44.5 33.5 -44.5 88.5q0 36 23.5 59.5t60.5 23.5q36 0 59 -20.5t23 -55.5q0 -29 -13.5 -52.5t-46.5 -30.5q25 -13 63 -13q41 0 78 18.5t61 55.5t27 90h56q-10 -98 -72.5 -147.5t-148.5 -49.5q-81 0 -125.5 33.5zM-192 717q13 15 13 41q0 25 -13 40t-36 15
q-22 0 -35.5 -15t-13.5 -40t13.5 -40.5t35.5 -15.5q23 0 36 15z" />
    <glyph glyph-name="uni0E32" unicode="&#xe32;" horiz-adv-x="451" 
d="M314 400q0 64 -32 95.5t-91 31.5q-49 0 -84 -29.5t-44 -87.5h-54q7 71 60 112t127 41q88 0 140 -39.5t52 -126.5v-397h-74v400z" />
    <glyph glyph-name="uni0E33" unicode="&#xe33;" horiz-adv-x="451" 
d="M-195.5 659.5q-25.5 24.5 -25.5 63.5t25.5 63.5t75.5 24.5t76 -24.5t26 -63.5t-26 -63.5t-76 -24.5t-75.5 24.5zM-79 679.5q15 16.5 15 43.5t-15 43.5t-41 16.5t-41.5 -16.5t-15.5 -43.5t15.5 -43.5t41.5 -16.5t41 16.5zM314 400q0 64 -32 95.5t-91 31.5q-49 0 -84 -29.5
t-44 -87.5h-54q7 71 60 112t127 41q88 0 140 -39.5t52 -126.5v-397h-74v400z" />
    <glyph glyph-name="uni0E34" unicode="&#xe34;" 
d="M-467.5 725q23.5 34 66.5 54.5t102 20.5q88 0 151.5 -37.5t85.5 -110.5h-433q4 39 27.5 73zM-140 687q-20 37 -63 58t-98 21q-50 0 -86.5 -22.5t-48.5 -56.5h296z" />
    <glyph glyph-name="uni0E35" unicode="&#xe35;" 
d="M-467.5 725q23.5 34 66.5 54.5t102 20.5q54 0 98.5 -17t72.5 -50v105h65v-186h-432q4 39 27.5 73zM-140 687q-20 37 -63 58t-98 21q-50 0 -86.5 -22.5t-48.5 -56.5h296z" />
    <glyph glyph-name="uni0E36" unicode="&#xe36;" 
d="M-55 738q-13 -18 -38 -24q21 -29 31 -62h-433q4 39 27.5 73t66.5 54.5t102 20.5q60 0 110 -18q1 30 20 48.5t53 18.5q35 0 54.5 -19t19.5 -49q0 -25 -13 -43zM-87.5 751.5q10.5 11.5 10.5 27.5q0 17 -10.5 28t-27.5 11q-18 0 -29 -11t-11 -28q0 -16 11 -27.5t29 -11.5
q17 0 27.5 11.5zM-140 687q-20 37 -63 58t-98 21q-50 0 -86.5 -22.5t-48.5 -56.5h296z" />
    <glyph glyph-name="uni0E37" unicode="&#xe37;" 
d="M-63 838v-186h-432q4 39 27.5 73t66.5 54.5t102 20.5q35 0 72 -8v46h53v-67q25 -14 46 -38v105h65zM-140 687q-20 37 -63 58t-98 21q-50 0 -86.5 -22.5t-48.5 -56.5h296z" />
    <glyph glyph-name="uni0E38" unicode="&#xe38;" 
d="M-126 -210q-18 -14 -49 -14t-54 22t-23 62q0 34 25 55.5t66 21.5q98 0 98 -86v-184h-63v123zM-127.5 -181q14.5 14 14.5 39q0 24 -14.5 37.5t-36.5 13.5q-24 0 -38.5 -13.5t-14.5 -37.5q0 -25 14.5 -39t38.5 -14q22 0 36.5 14z" />
    <glyph glyph-name="uni0E39" unicode="&#xe39;" 
d="M-346 -299h51v93q-17 -11 -43 -11q-29 0 -51.5 19t-22.5 58q0 33 24 53.5t61 20.5q50 0 68.5 -24t18.5 -59v-150h117v234h60v-269h-283v35zM-294.5 -177.5q14.5 13.5 14.5 36.5t-14 36t-35 13t-36 -13t-15 -36t15 -36.5t36 -13.5q20 0 34.5 13.5z" />
    <glyph glyph-name="uni0E3A" unicode="&#xe3a;" 
d="M-145 -148.5q-14 14.5 -14 37.5t14 37.5t39 14.5q24 0 38.5 -15t14.5 -37t-14.5 -37t-38.5 -15q-25 0 -39 14.5z" />
    <glyph glyph-name="uni0E3F" unicode="&#xe3f;" horiz-adv-x="593" 
d="M523 303.5q37 -49.5 37 -115.5q0 -90 -56.5 -139t-161.5 -49h-33v-86h-38v86h-251v22h28q30 0 44.5 8.5t14.5 26.5v585q0 18 -14.5 26.5t-44.5 8.5h-28v23h251v81h38v-81h4q99 0 152 -42.5t53 -123.5q0 -58 -33.5 -103t-92.5 -61v-3q94 -14 131 -63.5zM183 383h110
q68 0 109.5 41.5t41.5 108.5q0 68 -40.5 100t-122.5 32h-98v-282zM441.5 75q45.5 40 45.5 116q0 80 -46.5 119t-144.5 39h-113v-314h121q92 0 137.5 40z" />
    <glyph glyph-name="uni0E40" unicode="&#xe40;" horiz-adv-x="277" 
d="M61 110v443h74v-393q18 15 49 15q32 0 60.5 -22.5t28.5 -68.5q0 -42 -29 -68t-71 -26q-112 0 -112 120zM222.5 38.5q16.5 18.5 16.5 45.5t-17.5 45t-43.5 18q-27 0 -45 -18t-18 -45q0 -28 16.5 -46t46.5 -18q28 0 44.5 18.5z" />
    <glyph glyph-name="uni0E41" unicode="&#xe41;" horiz-adv-x="525" 
d="M61 553h74v-393q18 15 49 15q32 0 60.5 -22.5t28.5 -68.5q0 -42 -29 -68t-71 -26q-112 0 -112 120v443zM309 553h74v-393q18 15 49 15q32 0 60.5 -22.5t28.5 -68.5q0 -42 -29 -68t-71 -26q-112 0 -112 120v443zM131.5 38q16.5 -18 46.5 -18q28 0 44.5 18.5t16.5 45.5
t-17.5 45t-43.5 18q-27 0 -45 -18t-18 -45q0 -28 16.5 -46zM379.5 38q16.5 -18 46.5 -18q28 0 44.5 18.5t16.5 45.5t-17.5 45t-43.5 18q-27 0 -45 -18t-18 -45q0 -28 16.5 -46z" />
    <glyph glyph-name="uni0E42" unicode="&#xe42;" horiz-adv-x="346" 
d="M130 110v482q0 61 -32 84.5t-96 23.5q-20 0 -42 -2v29q0 72 41 112.5t128 40.5q22 0 38 -4.5t40 -13.5q12 -5 24 -9t23 -4q14 0 25 5.5t26 20.5l26 -29q-11 -16 -30.5 -26t-38.5 -10q-16 0 -28.5 3.5t-34.5 11.5q-36 15 -63 15q-47 0 -80 -25t-36 -83q10 2 30 2
q74 0 114 -34.5t40 -115.5v-424q16 15 49 15q31 0 59.5 -22.5t28.5 -68.5q0 -42 -28.5 -68t-70.5 -26q-112 0 -112 120zM291.5 38.5q16.5 18.5 16.5 45.5t-17.5 45t-43.5 18q-27 0 -45 -18t-18 -45q0 -28 16 -46t47 -18q28 0 44.5 18.5z" />
    <glyph glyph-name="uni0E43" unicode="&#xe43;" horiz-adv-x="328" 
d="M112 110v396q0 36 17.5 66t51.5 71q30 35 45 59.5t15 51.5q0 43 -31.5 69.5t-84.5 26.5q-45 0 -74 -22.5t-38 -60.5q8 11 22.5 16t30.5 5q42 0 65 -25t23 -65q0 -37 -26 -61.5t-65 -24.5q-44 0 -71.5 32.5t-27.5 90.5q0 68 46.5 108.5t121.5 40.5q77 0 125 -34.5
t48 -96.5q0 -33 -16 -61t-47 -66q-29 -37 -42.5 -60.5t-13.5 -50.5v-355q18 15 49 15q32 0 60.5 -22.5t28.5 -68.5q0 -42 -29 -68t-71 -26q-112 0 -112 120zM105.5 657q17.5 18 17.5 44t-16 43t-44 17q-27 0 -43 -17.5t-16 -43.5t17 -43.5t42 -17.5t42.5 18zM273.5 38.5
q16.5 18.5 16.5 45.5t-17.5 45t-43.5 18q-27 0 -45 -18t-18 -45q0 -28 16.5 -46t46.5 -18q28 0 44.5 18.5z" />
    <glyph glyph-name="uni0E44" unicode="&#xe44;" horiz-adv-x="343" 
d="M126 110v706l-63 -121l-40 14q-7 38 -38 85.5t-57 71.5l41 24q25 -25 52.5 -67.5t36.5 -74.5l69 136h73v-724q18 15 49 15q32 0 60.5 -22.5t28.5 -68.5q0 -42 -29 -68t-71 -26q-112 0 -112 120zM287.5 38.5q16.5 18.5 16.5 45.5t-17.5 45t-43.5 18q-27 0 -45 -18t-18 -45
q0 -28 16.5 -46t46.5 -18q28 0 44.5 18.5z" />
    <glyph glyph-name="uni0E45" unicode="&#xe45;" horiz-adv-x="450" 
d="M314 400q0 64 -32 95.5t-91 31.5q-49 0 -84 -29.5t-44 -87.5h-54q7 71 60 112t127 41q88 0 139.5 -39.5t51.5 -126.5v-593h-73v596z" />
    <glyph glyph-name="uni0E46" unicode="&#xe46;" horiz-adv-x="546" 
d="M380 433q0 31 -9 52.5t-32 32.5l-86 -68l-83 66q-31 -16 -50.5 -57t-20.5 -75q12 16 31.5 24t37.5 8q41 0 65.5 -24t24.5 -66q0 -39 -27.5 -65.5t-69.5 -26.5q-60 0 -88.5 40.5t-28.5 102.5q0 37 14 76.5t44 70.5t76 40l76 -62l84 62q115 -20 115 -152v-581h-73v602z
M208.5 282q17.5 18 17.5 44q0 27 -15.5 45t-45.5 18q-27 0 -43.5 -18.5t-16.5 -44.5t17.5 -44t42.5 -18q26 0 43.5 18z" />
    <glyph glyph-name="uni0E47" unicode="&#xe47;" 
d="M-416.5 684q-18.5 30 -18.5 63q0 45 30 74t89 29h125q31 0 41.5 15.5t12.5 50.5h54q-3 -52 -22 -77t-75 -25h-129q-34 0 -53 -18t-19 -47q0 -16 5 -32.5t16 -26.5q16 17 38.5 30.5t39.5 16.5q29 -29 67 -47q-6 8 -6 21q0 26 17.5 45t46.5 19q33 0 51 -19t18 -46
q0 -28 -19 -48.5t-53 -20.5q-58 0 -128 58q-41 -18 -73 -60q-37 15 -55.5 45zM-126.5 679.5q11.5 11.5 11.5 30.5q0 18 -11.5 29t-28.5 11t-28.5 -11t-11.5 -29q0 -19 11.5 -30.5t28.5 -11.5t28.5 11.5z" />
    <glyph glyph-name="uni0E48" unicode="&#xe48;" 
d="M-132 838h67v-186h-67v186z" />
    <glyph glyph-name="uni0E49" unicode="&#xe49;" 
d="M-297 680q18 5 40.5 18.5t33.5 27.5q-44 1 -64 23t-20 51q0 34 21.5 55.5t60.5 21.5q37 0 60 -21.5t23 -56.5q0 -45 -27 -74t-57 -42q62 2 107.5 15t78.5 51.5t40 111.5h52q-8 -114 -75 -161.5t-177 -47.5h-97v28zM-193.5 766.5q13.5 13.5 13.5 35.5t-13.5 35t-34.5 13
t-34 -13t-13 -35t13.5 -35.5t33.5 -13.5q21 0 34.5 13.5z" />
    <glyph glyph-name="uni0E4A" unicode="&#xe4a;" 
d="M-410.5 673.5q-19.5 25.5 -19.5 66.5t21 78.5t76 57.5l63 -52l65 51q41 -11 60 -38.5t19 -63.5q0 -27 -10.5 -53.5t-26.5 -38.5q58 2 84 51t31 129h48q-2 -85 -40 -147t-106 -62h-79v25q21 4 34 33.5t13 61.5q0 21 -6.5 38.5t-18.5 25.5l-67 -49l-63 50q-23 -10 -36 -29
t-16 -41q12 16 37 16q29 0 47 -19t18 -49q0 -28 -19.5 -47.5t-49.5 -19.5q-39 0 -58.5 25.5zM-320.5 683.5q12.5 12.5 12.5 32.5t-12.5 32t-31.5 12t-31 -12t-12 -32t12 -32.5t31 -12.5t31.5 12.5z" />
    <glyph glyph-name="uni0E4B" unicode="&#xe4b;" 
d="M-12 733h-100v-81h-67v81h-100v34h100v71h67v-71h100v-34z" />
    <glyph glyph-name="uni0E4C" unicode="&#xe4c;" 
d="M-211.5 676q-21.5 24 -21.5 68q0 71 78 104l54 23q23 9 36.5 19t13.5 26h53q-1 -21 -11 -38t-27 -24l-81 -32q-20 -8 -30 -16t-14 -19q8 6 29 6q25 0 42 -20.5t17 -48.5q0 -31 -21 -51.5t-55 -20.5q-41 0 -62.5 24zM-115.5 690q12.5 13 12.5 34t-12.5 33.5t-32.5 12.5
t-32.5 -12.5t-12.5 -33.5t12.5 -34t32.5 -13t32.5 13z" />
    <glyph glyph-name="uni0E4D" unicode="&#xe4d;" 
d="M-195.5 659.5q-25.5 24.5 -25.5 63.5t25.5 63.5t75.5 24.5t76 -24.5t26 -63.5t-26 -63.5t-76 -24.5t-75.5 24.5zM-79 679.5q15 16.5 15 43.5t-15 43.5t-41 16.5t-41.5 -16.5t-15.5 -43.5t15.5 -43.5t41.5 -16.5t41 16.5z" />
    <glyph glyph-name="uni0E4E" unicode="&#xe4e;" 
d="M-251.5 667q-23.5 16 -23.5 50q0 22 17.5 38.5t46.5 20.5q-17 6 -27 21.5t-10 29.5q0 30 20 44t60 14h83v-29h-72q-39 0 -39 -30q0 -16 21.5 -28t50.5 -17l-6 -29q-19 4 -35 4q-29 0 -42.5 -10.5t-13.5 -26.5t10.5 -24t27.5 -8q14 0 30.5 6t24.5 14l22 -26
q-14 -13 -38.5 -21.5t-48.5 -8.5q-35 0 -58.5 16z" />
    <glyph glyph-name="uni0E4F" unicode="&#xe4f;" horiz-adv-x="684" 
d="M207 24.5q-60 32.5 -94.5 92.5t-34.5 137t34.5 136.5t94.5 92.5t135 33q74 0 134 -33t94.5 -92.5t34.5 -136.5t-34.5 -137t-94.5 -92.5t-134 -32.5q-75 0 -135 32.5zM450 65q48 27 76 76t28 113q0 63 -28 112.5t-76 76.5t-108 27q-61 0 -109.5 -27t-76.5 -76.5
t-28 -112.5q0 -64 28 -113t76.5 -76t109.5 -27q60 0 108 27zM237.5 149.5q-41.5 39.5 -41.5 104.5q0 64 41.5 103.5t104.5 39.5q62 0 102.5 -39.5t40.5 -103.5q0 -65 -40.5 -104.5t-102.5 -39.5q-63 0 -104.5 39.5zM413 180q27 27 27 74q0 46 -27 73t-71 27q-45 0 -72 -27
t-27 -73q0 -47 27 -74t72 -27q44 0 71 27z" />
    <glyph glyph-name="uni0E50" unicode="&#xe50;" horiz-adv-x="623" 
d="M161.5 17.5q-62.5 27.5 -95 77t-32.5 112.5t32.5 112.5t95 77t148.5 27.5q87 0 149 -27.5t94.5 -77t32.5 -112.5t-32.5 -112.5t-94.5 -77t-149 -27.5q-86 0 -148.5 27.5zM416.5 46.5q46.5 23.5 72.5 65.5t26 95t-26 95t-72.5 65.5t-106.5 23.5t-106 -23.5t-72 -65.5
t-26 -95t26 -95t72 -65.5t106 -23.5t106.5 23.5z" />
    <glyph glyph-name="uni0E51" unicode="&#xe51;" horiz-adv-x="637" 
d="M509 60q20 54 20 116q0 97 -52 156t-154 59q-62 0 -111.5 -25t-77.5 -69.5t-28 -102.5q0 -76 40 -123t101 -47q39 0 71 25t46 73q-12 -14 -24.5 -17.5t-27.5 -3.5q-38 0 -61 26t-23 67q0 38 25 63t60 25q46 0 72.5 -29t26.5 -77q0 -51 -21 -93.5t-61.5 -67.5t-97.5 -25
q-60 0 -105 26.5t-69 72.5t-24 104q0 71 37.5 123.5t102.5 80t147 27.5q91 0 154 -32.5t94 -89t31 -127.5q0 -60 -18 -112t-53 -92h-73q33 35 53 89zM356.5 143.5q15.5 17.5 15.5 47.5q0 29 -15.5 46t-38.5 17q-24 0 -39 -16.5t-15 -46.5t15 -47.5t39 -17.5q23 0 38.5 17.5z
" />
    <glyph glyph-name="uni0E52" unicode="&#xe52;" horiz-adv-x="688" 
d="M97.5 27q-30.5 27 -30.5 78v465q0 21 -4.5 36.5t-18.5 27.5l48 22q45 -15 45 -74v-468q0 -38 19.5 -57.5t57.5 -19.5h285q42 0 58.5 22.5t16.5 68.5v193q0 36 -12.5 53t-39.5 17q-32 0 -55 -33.5t-23 -85.5h-43q-1 52 -20 85t-55 33q-40 0 -59.5 -32t-24.5 -81
q19 18 48 18q36 0 57 -26t21 -65t-24.5 -64.5t-61.5 -25.5q-46 0 -69.5 30t-23.5 80q0 84 30.5 142t106.5 58q29 0 57 -17t41 -63q16 47 46 63.5t58 16.5q60 0 88.5 -27.5t28.5 -84.5v-207q0 -52 -29.5 -78.5t-86.5 -26.5h-345q-56 0 -86.5 27zM320 159q15 17 15 46
q0 30 -15 47t-38 17t-38.5 -17t-15.5 -47q0 -29 15.5 -46t38.5 -17t38 17z" />
    <glyph glyph-name="uni0E53" unicode="&#xe53;" horiz-adv-x="668" 
d="M67 37q-28 47 -28 153q0 60 18.5 113t58 86.5t99.5 33.5q45 0 85 -27t56 -80q16 52 52.5 79.5t82.5 27.5q60 0 93 -31.5t33 -97.5v-294h-70v283q0 51 -17 77t-55 26q-28 0 -48 -21.5t-30.5 -53t-10.5 -60.5v-251h-61v247q0 31 -11.5 63.5t-33.5 54t-53 21.5
q-54 0 -86 -51.5t-32 -148.5q0 -24 2 -38q17 25 53 25t58 -25.5t22 -63.5q0 -40 -24.5 -67t-66.5 -27q-58 0 -86 47zM193 37q15 17 15 47t-15 47t-38 17t-38.5 -17t-15.5 -47t15.5 -47t38.5 -17t38 17z" />
    <glyph glyph-name="uni0E54" unicode="&#xe54;" horiz-adv-x="676" 
d="M486 19q-26 0 -108 -14q-9 -1 -53 -8t-74 -7q-102 0 -159 53t-57 151q0 113 64 170t205 57h147q182 0 187 169h60q-6 -113 -66.5 -157.5t-176.5 -44.5h-140q-209 0 -209 -193q0 -79 42 -125t113 -46q53 0 133 18l46 10q-85 19 -129.5 57.5t-44.5 89.5q0 47 24.5 74
t71.5 27q39 0 66 -25t27 -63q0 -42 -20.5 -66t-56.5 -28q24 -16 58 -30t67 -23q67 -19 116 -38l22 -9l-22 -34q-80 35 -133 35zM403.5 160.5q14.5 17.5 14.5 47.5q0 29 -14.5 46t-38.5 17q-23 0 -39 -17t-16 -46q0 -30 16 -47.5t39 -17.5q24 0 38.5 17.5z" />
    <glyph glyph-name="uni0E55" unicode="&#xe55;" horiz-adv-x="676" 
d="M106 195q0 -79 42 -125t113 -46q53 0 133 18l46 10q-85 19 -129.5 57.5t-44.5 89.5q0 47 24.5 74t71.5 27q39 0 66 -25t27 -63q0 -42 -20.5 -66t-56.5 -28q24 -16 58 -30t67 -23q67 -19 116 -38l22 -9l-22 -34q-80 35 -133 35q-26 0 -108 -14q-9 -1 -53 -8t-74 -7
q-102 0 -159 53t-57 151q0 113 64 170t205 57h14q-20 23 -20 58q0 38 24 61.5t69 23.5t69.5 -23.5t24.5 -61.5q0 -35 -21 -58q169 8 174 169h60q-6 -113 -66.5 -157.5t-176.5 -44.5h-140q-209 0 -209 -193zM353.5 436.5q13.5 -15.5 37.5 -15.5t37 15.5t13 42.5t-13 43
t-37 16t-37.5 -16t-13.5 -43t13.5 -42.5zM326 160.5q16 -17.5 39 -17.5q24 0 38.5 17.5t14.5 47.5q0 29 -14.5 46t-38.5 17q-23 0 -39 -17t-16 -46q0 -30 16 -47.5z" />
    <glyph glyph-name="uni0E56" unicode="&#xe56;" horiz-adv-x="659" 
d="M204 25q-50 35 -50 99q0 42 26 70t72 28q40 0 66.5 -26t26.5 -66q0 -36 -21.5 -61.5t-59.5 -26.5q34 -19 101 -19q51 0 93.5 22t68 65.5t25.5 106.5q0 79 -53 126.5t-146 47.5q-122 0 -206 -93h-34q0 71 -23.5 159t-53.5 140h65q25 -47 41 -110.5t21 -130.5q35 34 91 51
t113 17q77 0 135 -25t89.5 -71.5t31.5 -109.5q0 -62 -27 -113.5t-86.5 -83t-150.5 -31.5q-105 0 -155 35zM288 81.5q15 17.5 15 47.5q0 29 -15 46t-38 17t-38.5 -17t-15.5 -46q0 -30 15.5 -47.5t38.5 -17.5t38 17.5z" />
    <glyph glyph-name="uni0E57" unicode="&#xe57;" horiz-adv-x="784" 
d="M67 36.5q-28 46.5 -28 152.5q0 235 153 235q89 0 116 -94q16 47 47.5 70.5t72.5 23.5q63 0 93.5 -31t30.5 -99v-258q97 17 97 263q0 239 27 298h67q-13 -37 -17.5 -99t-4.5 -183q0 -125 -33 -220t-139 -95h-67v287q0 53 -14 78.5t-52 25.5q-41 0 -59.5 -47t-18.5 -99v-51
h-62v51q0 57 -16 101.5t-59 44.5q-48 0 -70 -53t-22 -141q0 -31 1 -45q18 21 54 21t57.5 -26t21.5 -65q0 -40 -24.5 -66t-65.5 -26q-58 0 -86 46.5zM193 37q15 17 15 47t-15 47t-38 17t-38.5 -17t-15.5 -47t15.5 -47t38.5 -17t38 17z" />
    <glyph glyph-name="uni0E58" unicode="&#xe58;" horiz-adv-x="647" 
d="M60 71q-26 58 -26 123q0 110 58 168.5t187 58.5h144q70 0 106.5 39t38.5 130h62q-4 -77 -26 -121t-65 -62.5t-114 -18.5h-141q-95 0 -136.5 -50t-41.5 -143q0 -49 13.5 -87t29.5 -54q20 33 54 69.5t65 52.5q16 -56 58 -102t93 -46q36 0 58 13q-35 0 -57.5 25.5
t-22.5 63.5t25.5 64t64.5 26q45 0 69 -28t24 -70q0 -62 -42.5 -97t-113.5 -35q-70 0 -113 37.5t-61 93.5q-22 -18 -52.5 -59.5t-48.5 -72.5q-63 24 -89 82zM526.5 79q15.5 17 15.5 47q0 29 -15.5 46.5t-37.5 17.5q-24 0 -39 -17t-15 -47t15 -47t39 -17q22 0 37.5 17z" />
    <glyph glyph-name="uni0E59" unicode="&#xe59;" horiz-adv-x="634" 
d="M406 129q-39 78 -72 177q-11 32 -34 58.5t-67 26.5q-59 0 -91 -60.5t-32 -143.5q0 -22 3 -48q21 34 68 34q38 0 60 -25.5t22 -65.5q0 -41 -26.5 -66.5t-70.5 -25.5q-126 0 -126 197q0 67 23.5 121t66 85t98.5 31q93 0 133 -75q0 13 4 29q7 44 48 44q13 0 25 -8t29 -24
q16 -15 27 -22.5t24 -7.5q23 0 29.5 27t6.5 87q0 49 -13 125h57q12 -69 12 -143q0 -65 -19.5 -101.5t-57.5 -36.5q-21 0 -39 10t-41 29q-14 12 -23 18t-17 6q-16 0 -16 -41q0 -81 48 -175t113 -158l-46 -21q-67 65 -106 143zM214 36.5q15 17.5 15 46.5q0 30 -15 47.5
t-38 17.5t-38.5 -17.5t-15.5 -47.5q0 -29 15.5 -46.5t38.5 -17.5t38 17.5z" />
    <glyph glyph-name="uni0E5A" unicode="&#xe5a;" horiz-adv-x="620" 
d="M557 553v-553h-74v371q-14 -32 -43 -51.5t-63 -24.5v-295h-74v370q-16 -35 -51.5 -58t-77.5 -23q-71 0 -110 44t-39 110q0 52 25.5 86t73.5 34q43 0 66 -24t23 -61q0 -41 -22.5 -66t-56.5 -25q-33 0 -52 18q7 -34 30 -55.5t62 -21.5q37 0 66.5 22t45.5 58t16 76v69h75
v-218q47 8 76 52t29 101v65h75zM86 518.5q-14 -16.5 -14 -43.5q0 -26 15 -42t38 -16q22 0 37 16t15 42q0 27 -15 43.5t-37 16.5q-25 0 -39 -16.5z" />
    <glyph glyph-name="uni0E5B" unicode="&#xe5b;" horiz-adv-x="1011" 
d="M140 59.5q-47 30.5 -74.5 86t-27.5 125.5t23.5 125.5t65.5 87t95 31.5q77 0 118 -55.5t41 -136.5q0 -57 -29 -96.5t-76 -39.5q-43 0 -66.5 28.5t-23.5 69.5q0 33 21 60.5t67 27.5q22 0 40 -9.5t28 -25.5q-5 62 -35 103t-81 41q-41 0 -73 -28.5t-49 -77t-17 -106.5
t21 -105t57.5 -74t82.5 -27q114 0 160 95t46 234h44l54 -145q19 89 27 134h40l48 -118l23 93h30l46 -81l16 61h25l49 -48l132 -15v-11l-148 -12l-39 41l-19 -74h-25l-50 85l-28 -105h-28l-48 114q-15 -60 -32 -138h-37l-49 127q-14 -126 -73 -199t-167 -73q-58 0 -105 30.5z
M314 233q16 18 16 49q0 30 -15.5 47.5t-39.5 17.5q-25 0 -41 -17t-16 -48q0 -32 16 -49.5t41 -17.5q23 0 39 18z" />
    <glyph glyph-name="uni1E0C" unicode="&#x1e0c;" horiz-adv-x="669" 
d="M19 22h29q59 0 59 35v585q0 35 -59 35h-29v23h305q151 0 227.5 -90t76.5 -260q0 -171 -77 -260.5t-228 -89.5h-304v22zM321 33q115 0 173 83.5t58 233.5t-57.5 233t-171.5 83h-140v-633h138zM286.5 -75.5q11.5 11.5 29.5 11.5q19 0 30 -11.5t11 -30.5t-11 -30t-30 -11
q-18 0 -29.5 11t-11.5 30t11.5 30.5z" />
    <glyph glyph-name="uni1E0D" unicode="&#x1e0d;" horiz-adv-x="566" 
d="M58 374q27 53 74.5 79.5t107.5 26.5q114 0 166 -74v243q0 18 -17 18q-12 0 -32 -9l-6 19l105 40h23v-654q0 -34 41 -34h21v-18l-122 -14l-5 78q-51 -85 -174 -85q-98 0 -153.5 61.5t-55.5 193.5q0 76 27 129zM139.5 82q36.5 -59 119.5 -59q46 0 79.5 20.5t51 53.5
t17.5 70v155q0 35 -21 63.5t-54 44.5t-67 16q-78 0 -120 -52.5t-42 -151.5q0 -101 36.5 -160zM248.5 -75.5q11.5 11.5 29.5 11.5q19 0 30 -11.5t11 -30.5t-11 -30t-30 -11q-18 0 -29.5 11t-11.5 30t11.5 30.5z" />
    <glyph glyph-name="uni1E0E" unicode="&#x1e0e;" horiz-adv-x="669" 
d="M19 22h29q59 0 59 35v585q0 35 -59 35h-29v23h305q151 0 227.5 -90t76.5 -260q0 -171 -77 -260.5t-228 -89.5h-304v22zM321 33q115 0 173 83.5t58 233.5t-57.5 233t-171.5 83h-140v-633h138zM159 -73h313v-33h-313v33z" />
    <glyph glyph-name="uni1E0F" unicode="&#x1e0f;" horiz-adv-x="566" 
d="M86.5 51.5q-55.5 61.5 -55.5 193.5q0 76 27 129t74.5 79.5t107.5 26.5q114 0 166 -74v243q0 18 -17 18q-12 0 -32 -9l-6 19l105 40h23v-654q0 -34 41 -34h21v-18l-122 -14l-5 78q-51 -85 -174 -85q-98 0 -153.5 61.5zM338.5 43.5q33.5 20.5 51 53.5t17.5 70v155
q0 35 -21 63.5t-54 44.5t-67 16q-78 0 -120 -52.5t-42 -151.5q0 -101 36.5 -160t119.5 -59q46 0 79.5 20.5zM125 -73h313v-33h-313v33z" />
    <glyph glyph-name="uni1E20" unicode="&#x1e20;" horiz-adv-x="698" 
d="M214 824h313v-35h-313v35zM128 84q-83 94 -83 266q0 113 39.5 194t114 123.5t177.5 42.5q57 0 109 -18t80 -42q4 -4 11 -4q9 0 9 16v43h31v-186h-24q-8 72 -65 113.5t-139 41.5q-128 0 -197.5 -88t-69.5 -236q0 -150 64 -237.5t193 -87.5q47 0 96 12t83 42v202
q0 28 -24.5 38.5t-72.5 11.5v20h229v-18h-8q-23 0 -33.5 -7t-14 -25.5t-3.5 -56.5v-174q-50 -39 -111 -59.5t-154 -20.5q-154 0 -237 94z" />
    <glyph glyph-name="uni1E21" unicode="&#x1e21;" horiz-adv-x="486" 
d="M396 546h-313v35h313v-35zM487 469.5q15 -10.5 15 -25.5q0 -14 -7.5 -21.5t-21.5 -7.5q-9 0 -14 3.5t-10 10.5q-5 8 -11 12t-19 4t-41 -15q43 -40 43 -107q0 -73 -52 -114.5t-142 -41.5q-60 0 -105 20q-34 -24 -34 -50q0 -21 20 -34t56 -13h152q57 0 96.5 -25t39.5 -75
q0 -70 -62.5 -105t-166.5 -35q-88 0 -140.5 30.5t-52.5 86.5q0 58 70 89q-30 9 -45 27.5t-15 40.5q0 42 55 78q-60 43 -60 121q0 73 51.5 115t140.5 42q82 0 131 -34q39 34 88 34q26 0 41 -10.5zM318 234q31 35 31 89t-31 89.5t-91 35.5q-59 0 -89.5 -35t-30.5 -90
q0 -54 30.5 -89t89.5 -35q60 0 91 35zM84 -33q0 -42 39 -63.5t105 -21.5q74 0 117 25t43 71q0 33 -20.5 49.5t-68.5 16.5h-162q-53 -25 -53 -77z" />
    <glyph glyph-name="uni1E24" unicode="&#x1e24;" horiz-adv-x="757" 
d="M659.5 668.5q-14.5 -8.5 -14.5 -26.5v-585q0 -18 14.5 -26.5t44.5 -8.5h28v-22h-251v22h28q60 0 60 35v297h-381v-297q0 -35 59 -35h29v-22h-251v22h28q30 0 44.5 8.5t14.5 26.5v585q0 18 -14.5 26.5t-44.5 8.5h-28v23h251v-23h-29q-59 0 -59 -35v-253h381v253
q0 35 -60 35h-28v23h251v-23h-28q-30 0 -44.5 -8.5zM407 -75.5q11 -11.5 11 -30.5t-11 -30t-30 -11q-18 0 -29.5 11t-11.5 30t11.5 30.5t29.5 11.5q19 0 30 -11.5z" />
    <glyph glyph-name="uni1E25" unicode="&#x1e25;" horiz-adv-x="596" 
d="M571 21v-21h-208v21h14q22 0 37 7.5t15 22.5v283q0 55 -29 83t-82 28q-38 0 -72.5 -18t-56.5 -53t-22 -83v-240q0 -15 15 -22.5t37 -7.5h14v-21h-208v21h16q23 0 38 7.5t15 22.5v598q0 18 -18 18q-11 0 -31 -9l-7 19l106 40h23v-323q21 35 66 60.5t103 25.5
q80 0 123 -36.5t43 -98.5v-294q0 -15 15 -22.5t38 -7.5h16zM335 -75.5q11 -11.5 11 -30.5t-11 -30t-30 -11q-18 0 -29.5 11t-11.5 30t11.5 30.5t29.5 11.5q19 0 30 -11.5z" />
    <glyph glyph-name="uni1E2A" unicode="&#x1e2a;" horiz-adv-x="757" 
d="M659.5 668.5q-14.5 -8.5 -14.5 -26.5v-585q0 -18 14.5 -26.5t44.5 -8.5h28v-22h-251v22h28q60 0 60 35v297h-381v-297q0 -35 59 -35h29v-22h-251v22h28q30 0 44.5 8.5t14.5 26.5v585q0 18 -14.5 26.5t-44.5 8.5h-28v23h251v-23h-29q-59 0 -59 -35v-253h381v253
q0 35 -60 35h-28v23h251v-23h-28q-30 0 -44.5 -8.5zM486 -53h31q-4 -59 -39 -91.5t-101 -32.5q-67 0 -102.5 32.5t-38.5 91.5h30q10 -85 111 -85q100 0 109 85z" />
    <glyph glyph-name="uni1E2B" unicode="&#x1e2b;" horiz-adv-x="596" 
d="M571 21v-21h-208v21h14q22 0 37 7.5t15 22.5v283q0 55 -29 83t-82 28q-38 0 -72.5 -18t-56.5 -53t-22 -83v-240q0 -15 15 -22.5t37 -7.5h14v-21h-208v21h16q23 0 38 7.5t15 22.5v598q0 18 -18 18q-11 0 -31 -9l-7 19l106 40h23v-323q21 35 66 60.5t103 25.5
q80 0 123 -36.5t43 -98.5v-294q0 -15 15 -22.5t38 -7.5h16zM414 -53h31q-4 -59 -39 -91.5t-101 -32.5q-67 0 -102.5 32.5t-38.5 91.5h30q10 -85 111 -85q100 0 109 85z" />
    <glyph glyph-name="uni1E36" unicode="&#x1e36;" horiz-adv-x="573" 
d="M26 22h28q60 0 60 35v585q0 35 -60 35h-28v23h251v-23h-28q-30 0 -44.5 -8.5t-14.5 -26.5v-569q0 -38 60 -38h194q40 0 60.5 47.5t25.5 96.5h23l-16 -179h-511v22zM285.5 -130.5q-11.5 11.5 -11.5 29.5q0 19 11.5 30.5t29.5 11.5q19 0 30 -11.5t11 -30.5q0 -18 -11 -29.5
t-30 -11.5q-18 0 -29.5 11.5z" />
    <glyph glyph-name="uni1E37" unicode="&#x1e37;" horiz-adv-x="284" 
d="M37 21h16q24 0 39 7.5t15 22.5v598q0 18 -18 18q-10 0 -32 -9l-6 19l106 40h22v-666q0 -15 15 -22.5t38 -7.5h15v-21h-210v21zM111.5 -130.5q-11.5 11.5 -11.5 29.5q0 19 11.5 30.5t29.5 11.5q19 0 30 -11.5t11 -30.5q0 -18 -11 -29.5t-30 -11.5q-18 0 -29.5 11.5z" />
    <glyph glyph-name="uni1E38" unicode="&#x1e38;" horiz-adv-x="573" 
d="M13 817h313v-35h-313v35zM26 22h28q60 0 60 35v585q0 35 -60 35h-28v23h251v-23h-28q-30 0 -44.5 -8.5t-14.5 -26.5v-569q0 -38 60 -38h194q40 0 60.5 47.5t25.5 96.5h23l-16 -179h-511v22zM285.5 -130.5q-11.5 11.5 -11.5 29.5q0 19 11.5 30.5t29.5 11.5q19 0 30 -11.5
t11 -30.5q0 -18 -11 -29.5t-30 -11.5q-18 0 -29.5 11.5z" />
    </font>
</defs>
</svg>
